<?xml version="1.0" encoding="utf-8"?>
<!-- Generator: Adobe Illustrator 19.1.0, SVG Export Plug-In . SVG Version: 6.00 Build 0)  -->
<svg version="1.1" id="Layer_1" xmlns="http://www.w3.org/2000/svg" xmlns:xlink="http://www.w3.org/1999/xlink" x="0px" y="0px"
	 viewBox="0 0 170.1 170.1" style="enable-background:new 0 0 170.1 170.1;" xml:space="preserve">
<style type="text/css">
	.st0{fill:#BCC6A8;}
	.st1{fill:#E2E9D1;}
	.st2{fill:#FFFFFF;}
	.st3{fill:#C9C9C9;}
	.st4{fill:none;stroke:#B2B2B1;stroke-width:1.6;stroke-miterlimit:10;}
	.st5{fill:#DEDEDD;}
	.st6{fill:#EF7B22;}
	.st7{fill:#F5EB01;}
	.st8{fill:#E42B27;}
	.st9{fill:#9DC850;}
	.st10{fill:#5BC1EE;}
	.st11{fill:none;stroke:#B2B2B1;stroke-width:2;stroke-miterlimit:10;}
</style>
<path class="st0" d="M126.7,149.3H43.4c-6,0-10.9-4.9-10.9-10.9V37.2c0-6,4.9-10.9,10.9-10.9h83.3c6,0,10.9,4.9,10.9,10.9v101.2
	C137.6,144.4,132.7,149.3,126.7,149.3z"/>
<path class="st1" d="M124.5,146.3H45.6c-6,0-10.9-4.9-10.9-10.9V38.2c0-6,4.9-10.9,10.9-10.9h78.8c6,0,10.9,4.9,10.9,10.9v97.2
	C135.4,141.4,130.5,146.3,124.5,146.3z"/>
<rect x="44.8" y="33.7" class="st2" width="80.4" height="105.5"/>
<g>
	<path class="st3" d="M91.1,24.9c-1.9,0-2.8-0.8-3.3-1.7c2-0.7,3.3-1.9,3.3-3.2c0-2.1-3.3-3.8-7.5-3.8s-7.5,1.7-7.5,3.8
		c0,1.5,1.6,2.7,3.9,3.4c-0.5,1.2-1.5,2.3-3.9,2.3c-5.5,0-7.3,4-7.3,4h29.9C98.7,29.8,95.8,24.9,91.1,24.9z M83.5,21.9
		c-2.3,0-4.1-0.8-4.1-1.7c0-0.9,1.8-1.7,4.1-1.7c2.3,0,4.1,0.8,4.1,1.7C87.6,21.1,85.7,21.9,83.5,21.9z"/>
</g>
<line class="st4" x1="68.5" y1="84.3" x2="98.8" y2="84.3"/>
<line class="st4" x1="68.5" y1="78.8" x2="98.8" y2="78.8"/>
<circle class="st5" cx="83.9" cy="59.7" r="12.4"/>
<g>
	<circle class="st2" cx="84" cy="59.8" r="11.4"/>
	<g>
		<g>
			<path class="st6" d="M94,59.4h-7.8v-5.2h6C93.3,55.6,93.9,57.4,94,59.4z"/>
			<path class="st7" d="M94,60c0,1.9-0.6,3.7-1.6,5.2c-0.1,0.2-0.3,0.5-0.5,0.7c-0.2,0.3-0.5,0.7-0.8,0.9c-0.2,0.2-0.4,0.4-0.7,0.6
				c-1.2,1-2.7,1.8-4.3,2.2c-0.2,0-0.4,0.1-0.7,0.1c-0.5,0.1-1.1,0.1-1.6,0.1c-1.2,0-2.4-0.2-3.5-0.6v-3.4h10.7V60H94z"/>
			<path class="st8" d="M90.5,60v5.2h-15c-1-1.5-1.5-3.3-1.6-5.2H90.5z"/>
			<path class="st9" d="M91.8,53.5H80.5v-3.1c1.1-0.4,2.3-0.6,3.5-0.6c0.6,0,1.1,0,1.6,0.1c0.2,0,0.4,0.1,0.7,0.1
				c1.6,0.4,3,1.1,4.3,2.2c0.2,0.2,0.5,0.4,0.7,0.6C91.4,53,91.6,53.2,91.8,53.5z"/>
			<g>
				<path class="st10" d="M79.8,50.7v8.7h-5.9c0.1-1.9,0.7-3.7,1.8-5.2c0.2-0.2,0.3-0.5,0.5-0.7C77.1,52.3,78.4,51.3,79.8,50.7z"/>
			</g>
		</g>
	</g>
</g>
<line class="st4" x1="83.6" y1="120.9" x2="83.6" y2="109.4"/>
<polyline class="st4" points="79.8,116.2 83.7,121.5 87.1,116.2 "/>
<path class="st11" d="M76.1,120.9v3.1c0,0-0.2,1.7,1.4,1.7c1.6,0,12.1,0,12.1,0s1.6-0.4,1.6-1.8c0-1.4,0-3,0-3"/>
</svg>
