<?xml version="1.0" encoding="utf-8"?>
<!-- Generator: Adobe Illustrator 21.0.2, SVG Export Plug-In . SVG Version: 6.00 Build 0)  -->
<svg version="1.1" id="Layer_1" xmlns="http://www.w3.org/2000/svg" xmlns:xlink="http://www.w3.org/1999/xlink" x="0px" y="0px"
	 viewBox="0 0 259 195" style="enable-background:new 0 0 259 195;" xml:space="preserve">
<style type="text/css">
	.st0{fill:#DDDDDD;}
	.st1{fill:#848484;}
	.st2{fill:none;stroke:#848484;stroke-width:3;stroke-miterlimit:10;}
	.st3{fill:#A8A8A8;}
	.st4{fill:#C1C1C1;}
	.st5{fill:#EAEAEA;}
	.st6{fill:#F7F7F7;}
	.st7{fill:#CECECE;}
	.st8{fill:#F61C0D;}
	.st9{fill:#FFFFFF;}
</style>
<rect x="20.1" y="146" class="st0" width="198.6" height="4"/>
<ellipse class="st0" cx="121.6" cy="148.6" rx="74.1" ry="10.2"/>
<path class="st1" d="M244.2,186.4v3.7c0,0-0.2,5-4.7,5H4.6c-4.5,0-4.7-5-4.7-5v-3.7l0.1-0.6c0.2,1.4,1.2,4.2,4.6,4.2h235
	c3.4,0,4.3-2.9,4.6-4.2V186.4z"/>
<path class="st2" d="M209.2,174c0,0,75.9-13.8,35.1-20.4s-93.8-10-93.8-10"/>
<path class="st3" d="M120.9,153.6c0,0-60.9-1.2-53.4-8.2s53.4-7,53.4-7s45.9,0,53.4,7S120.9,153.6,120.9,153.6z"/>
<path class="st1" d="M120.1,117.6c17,0,6.5,26,6.5,26h-10.2C116.4,143.6,104.6,117.6,120.1,117.6z"/>
<g>
	<path class="st4" d="M221.9,5.3L217.2,126h-197L15.5,5.3c0-0.1,0-0.2,0-0.3c0.2-0.9,1.6-5,9.3-5h187.7c7.7,0,9.1,4.1,9.3,5
		C221.9,5.1,221.9,5.2,221.9,5.3z"/>
</g>
<g>
	<path class="st5" d="M207.8,5.3h-47.4c14,33-7.2,66.8-50.8,65.5c-44.4-1.4-66.6,30.3-76,49.9h175.9l4.3-111.3
		C213.8,9.3,214.5,5.3,207.8,5.3z"/>
	<path class="st6" d="M109.6,70.7c43.5,1.4,64.8-32.5,50.8-65.5h-41.7l0,0H29.6c-6.7,0-6,4-6,4L28,120.5h5.7
		C43.1,101,65.3,69.4,109.6,70.7z"/>
</g>
<g>
	<path class="st7" d="M38.7,154.3H23.9l-16.5,22C30.4,172.7,37,161.8,38.7,154.3z"/>
	<path class="st4" d="M220.7,154.3H38.6c-1.7,7.5-8.3,18.4-31.3,22l-7.1,9.5c0.2,1.4,1.2,4.2,4.6,4.2h235c3.4,0,4.3-2.9,4.6-4.2
		L220.7,154.3z"/>
</g>
<polygon class="st1" points="31.1,158.4 14.1,183.3 227.1,183.3 213.1,158.4 "/>
<g>
	<path class="st8" d="M155.9,74.3c0,8.2-6.7,14.9-14.9,14.9h-38.8c-8.2,0-14.9-6.7-14.9-14.9V55.7c0-8.2,6.7-14.9,14.9-14.9H141
		c8.2,0,14.9,6.7,14.9,14.9V74.3z"/>
</g>
<g>
	<path class="st9" d="M113.9,55.9c-0.6-0.3-1,0-1,0.6v17c0,0.6,0.4,0.9,1,0.6l17.3-8.7c0.5-0.3,0.5-0.7,0-1L113.9,55.9z"/>
</g>
</svg>
