<?xml version="1.0" encoding="utf-8"?>
<!-- Generator: Adobe Illustrator 19.1.0, SVG Export Plug-In . SVG Version: 6.00 Build 0)  -->
<svg version="1.1" id="Layer_1" xmlns="http://www.w3.org/2000/svg" xmlns:xlink="http://www.w3.org/1999/xlink" x="0px" y="0px"
	 viewBox="-176 299 307.5 296.7" style="enable-background:new -176 299 307.5 296.7;" xml:space="preserve">
<style type="text/css">
	.st0{fill:#C6E6DE;}
	.st1{fill:#9E9F9F;}
	.st2{fill:#A38F4F;}
	.st3{fill:#333333;}
	.st4{fill:#716C6D;}
	.st5{fill:#9BA0D0;}
	.st6{fill:#EFD6C4;}
	.st7{fill:#5C5C5C;}
	.st8{fill:#807A7C;}
	.st9{fill:#FFFFFF;}
	.st10{fill:#648428;}
	.st11{fill:#B6968F;}
	.st12{fill:#957D7A;}
	.st13{fill:#9B8113;}
	.st14{fill:#E1C1AB;}
	.st15{fill:#ECE0CD;}
	.st16{fill:#D7C8B3;}
	.st17{fill:#23BCC1;}
	.st18{fill:#676263;}
	.st19{fill:#B24647;}
	.st20{fill:#475B1B;}
	.st21{fill:#A49579;}
	.st22{fill:#D2BEB5;}
	.st23{fill:#C1B495;}
	.st24{fill:#EED5AB;}
	.st25{fill:#DCAC91;}
	.st26{fill:#EAE4C2;}
	.st27{fill:#E0D3AF;}
	.st28{fill:#FFFFFF;stroke:#333333;stroke-miterlimit:10;}
	.st29{opacity:0.22;fill:none;stroke:#020202;stroke-width:0.75;stroke-miterlimit:10;}
	.st30{fill:#666350;}
	.st31{fill:none;stroke:#333333;stroke-miterlimit:10;}
	.st32{fill:#D66B1A;}
	.st33{fill:#994710;}
	.st34{fill:#877954;}
	.st35{fill:#1A8A8E;}
	.st36{fill:#D1AF1C;}
	.st37{fill:#B79815;}
	.st38{fill:#3F4040;}
	.st39{fill:#C97257;}
	.st40{fill:#EACD50;}
</style>
<path class="st0" d="M113.7,460.8c0,72.3-58.6,130.8-130.8,130.8S-148,533.1-148,460.8S-89.4,330-17.2,330c35.1,0,88.6-9.2,112,13.2
	C119.8,367,113.7,423.6,113.7,460.8z"/>
<path class="st1" d="M-48.6,465.4c0,0,2.5,56.6,13.1,63s15.7-4.3,15.7-4.3s5.7,5.9,11.7,6.3c6,0.4,9.7-83.4,0-93.6
	s-36.2,4.2-36.2,4.2L-48.6,465.4z"/>
<polygon class="st2" points="-154.9,500.8 -87.2,471.7 -103.7,450.3 -169.5,467.7 "/>
<polyline class="st3" points="-25.4,368.3 -24.9,368.8 -18.9,377.1 1.8,360.9 2.5,355.2 -1,354.7 -9.4,361.5 "/>
<polygon class="st3" points="-56,361.5 -43.4,378.9 -33.3,369.6 -40.3,358.1 -52.7,352 "/>
<polygon class="st2" points="113.8,499.4 46.1,470.4 63.7,449.4 131.1,470.4 "/>
<path class="st4" d="M-116.4,460.4l-37.9,8.8c0,0,11,12.8,17.6,12.8c6.6,0,29.9-12.5,29.9-12.5L-116.4,460.4z"/>
<path class="st5" d="M-91.4,447.6c0,0-8.1,12.1-8.8,19.2c-0.7,7.1-1.7,19.4-10.4,18.9c-8.7-0.5-16.1-11.8-16.1-11.8l-6.7,4.4
	c0,0,6.7,13,19.6,13.5s16.8-4.7,16.8-4.7v16.5c0,0,31.6-6.1,32.6-24.1C-62.3,441-91.4,447.6-91.4,447.6z"/>
<path class="st6" d="M-101.1,437.8c0,0,12.2,6.7,9.8,9.8s12.9,4.7,13.1,0c0.2-4.7-8.7-9.8-8.7-9.8H-101.1z"/>
<path class="st7" d="M-144.3,440.6c0,0-1,19.5,4.9,20.2c5.9,0.7,0.2,6.1-5.4,4.2c-5.6-1.9-4.8-24.3-4.8-24.3H-144.3z"/>
<path class="st8" d="M-118,396.1l-51,4.6c0,0-5.9,1.5-5.9,9.7c0,8.2,2.9,38.2,2.9,38.2s2.4,5.9,7.6,4.1s53.8-8.7,53.8-8.7
	L-118,396.1z"/>
<polygon class="st9" points="-116.7,439.1 -166.2,446.4 -169.8,407.9 -120.1,402.9 "/>
<path class="st10" d="M38.4,439.1c0,0-14.8,10-13.9,27.9c0.9,17.9,4.4,21.5,4.4,21.5l2.5,6.7l35.7-2.6c0,0-24.7-43-16.7-52.6
	S38.4,439.1,38.4,439.1z"/>
<g>
	<path class="st11" d="M27.6,447c-5-3.7-11.2-6-17.9-6c-16.7,0-30.2,13.5-30.2,30.2c0,16.7,13.5,30.2,30.2,30.2
		c1.8,0,3.6-0.2,5.3-0.5C34.4,493.1,30.4,460.9,27.6,447z"/>
	<path class="st12" d="M39.9,471.2c0-9.9-4.8-18.6-12.2-24.1c2.7,13.8,6.8,46.1-12.6,53.8C29.1,498.3,39.9,486,39.9,471.2z"/>
</g>
<path class="st13" d="M-91.6,478.4c0,0-5.8,4-0.4,12.9s12.8,11.5,10.6,18.1c-2.2,6.5,15.5,1.7,19.7,0c4.2-1.7,22.7-1.9,22.8,0
	c0.1,1.9,9-9,7.9-23.6c-1.1-14.6-5.7-28.7-17.6-27.1C-60.5,460.2-91.6,478.4-91.6,478.4z"/>
<path class="st14" d="M-124.2,421.1c0,0,2.5,4.7-1.2,5.8c-1.8,0.5-0.1,3.3,1.2,3c3.9-0.7,4.3,0.2,4.3,0.2L-124.2,421.1z"/>
<path class="st2" d="M-72.1,541.2l48.5,12.2l129.9-24.9c0,0-8.7,67.1-131.1,67.1s-117.3-67.1-117.3-67.1L-72.1,541.2z"/>
<g>
	<path class="st15" d="M-60.4,463.9l-25.2-11.8c-4.2,5.2-6.9,11.7-6.9,19c0,16.7,13.5,30.2,30.2,30.2c7.2,0,13.7-2.6,18.9-6.9
		c0-9.5-9.3-23.2-9.3-23.2L-60.4,463.9z"/>
	<path class="st16" d="M-32.1,471.2c0-16.7-13.5-30.2-30.2-30.2c-9.4,0-17.8,4.4-23.3,11.2l25.2,11.8l7.7,7.3c0,0,9.3,13.8,9.3,23.2
		C-36.6,488.9-32.1,480.6-32.1,471.2z"/>
</g>
<path class="st17" d="M-52.8,505.1c0,0,24.5-8.7,19.5,15.7c-5,24.4-22.7,32.8-22.7,32.8l-8.3-4.6c0,0,11.8-8.2,15.8-15.6
	c4-7.3,6.6-17.3,4.9-19.1c-1.8-1.8-0.3,18.8-0.3,18.8l-10,13l-23.3-4.9l5.2-31.9c0,0,5.1-5.4,9.8-4.5s7.2,1.5,7.2,1.5L-52.8,505.1z"
	/>
<polygon class="st18" points="3.9,553 10.7,561 69.9,555.2 69.9,552.5 3.9,551.4 "/>
<polygon class="st8" points="3.9,551.4 10.7,558.3 69.9,552.5 56.6,544.7 "/>
<polygon class="st18" points="-46.9,553 -53.7,561 -112.9,555.2 -112.9,552.5 -46.9,551.4 "/>
<polygon class="st8" points="-46.9,551.4 -53.7,558.3 -112.9,552.5 -99.6,544.7 "/>
<path class="st19" d="M6.7,506.9c0,0-20.4,5.8-20.6,22.2c-0.2,16.5-2.5,24.4,9.5,24.3c12-0.1,15.1-3.3,15.1-3.3l2.2-8.8
	c0,0-11,5.3-16.4-3.5c-5.4-8.8,1.4-16.8,1.4-16.8V544l40.5-1.3l-5.6-29.6c0,0-8.2-9.9-17.2-8C6.7,506.9,6.7,506.9,6.7,506.9z"/>
<path class="st4" d="M73,460.4l37.9,8.8c0,0-11,12.8-17.6,12.8c-6.6,0-29.9-12.5-29.9-12.5L73,460.4z"/>
<path class="st20" d="M52.6,468.7c0,0-3.3,2.6,6.2,1.2s6.4-2,6.4-2l3.9,4.5c0,0-8,10.2-12.4,2.8S52.6,468.7,52.6,468.7z"/>
<path class="st10" d="M48.4,461.6c0,0,14.9,19.6,25.7,18s7.3-2.3,7.3-2.3l4.4,5.1c0,0-20.8,11.3-25.9,2.9
	C54.8,477,48.4,461.6,48.4,461.6z"/>
<path class="st3" d="M-20.5,471.2c0,0-7.3,6.2-2.8,13.1c4.4,6.9,6.6,1.5,6.6,1.5L-20.5,471.2z"/>
<path class="st7" d="M100.8,440.6c0,0,1,19.5-4.9,20.2s-0.2,6.1,5.4,4.2s4.8-24.3,4.8-24.3H100.8z"/>
<path class="st8" d="M74.6,396.1l51,4.6c0,0,5.9,1.5,5.9,9.7c0,8.2-2.9,38.2-2.9,38.2s-2.4,5.9-7.6,4.1S67.1,444,67.1,444
	L74.6,396.1z"/>
<path class="st21" d="M-6,375.3c0,0,25,37.1,15,46.5c-10,9.4-14.3,11.1-17.4,5.1s2.7-15.4,2.7-15.4s-1.4-15.9-6.6-16.3
	c-5.1-0.4-3.5-14.5,0-14.6C-8.7,380.5-6,375.3-6,375.3z"/>
<circle class="st22" cx="45" cy="410.8" r="30.2"/>
<path class="st23" d="M-47.4,370.2c0,0-7.4,1.6-11.9,6.8s-12.6,36.7-12.6,36.7v9.4c0,0,16-28.3,21.2-28.3s-0.7,22.4-0.7,22.4
	s-3.9,6.4-4,15.4c-0.1,9,3.6,17.1,3.6,17.1l45.9-7.1c0,0-3.9-24.7-4.5-30s9.1-8.3,1.3-18.3s-3.1-10.8-3.1-10.8s9.1-5.6,2.8-9.3
	c-7.6-4.5-9.3,4.5-18.9,4.5S-42.6,368.5-47.4,370.2z"/>
<path class="st24" d="M0.7,415.6c0,0,1.3,5.3-2.3,6.1s-3.5,0.4-5.4,1c-1.9,0.6-2.3,1.2-2.3-1.5s-0.7-6.3,2.9-6.3
	S0.7,415.6,0.7,415.6z"/>
<path class="st19" d="M-26.4,405.4c0,0-8.5,18.2-8.9,26.6c-0.4,8.4,0,7.1,0,7.1s20.3-16.1,29.1-17.9s-17.1-16.5-17.1-16.5
	L-26.4,405.4z"/>
<path class="st25" d="M-3.3,418.4c0,0-17.5-16.6-20.7-16.5c-3.2,0.1-3.9,2.5-3.4,2.7c0.6,0.2,2.8,3.4,4.8,2.4c2-0.9,2,2.2,2,2.2
	s-0.6,0.1,0.8,0.9c1.5,0.8,0.2,2.4,2.2,2.5s2.6,3.9,4.8,3.6c2.2-0.3,0.2,2.2,3.3,2.2s3.1,2.7,3.1,2.7S-2.9,421.5-3.3,418.4z"/>
<path class="st26" d="M-3.7,405.6c0,0-1.5-5.2-9.6-3.3c-8.2,1.9-10,8.5-10,8.5s0,4.1,5.9,0s8.1-3.6,8.1-3.6s-4.5,4.2-6.1,5.4
	s-2.8,2.7-2,3.6c0.8,0.9,3.8-1,6.8-3.4c3.1-2.4,4.7-1.3,4.7-1.3s-7.3,4.7-7,7c0.3,2.2-1.3,4.2,4.3,0.7c5.6-3.5,9.1-3.6,9.1-3.6
	S2.9,410.4-3.7,405.6z"/>
<g>
	<path class="st23" d="M-21.9,365.9c0.6-0.8,0-1.7-0.9-2.6c-4.3,0.5-8.2,1.5-8.2,1.5l-9,1.5c0.4,1.2,0.6,2.3,0.2,2.8
		c-0.4,0.4-0.7,0.7-1.1,1.1c2.4,2,5.5,4.2,7.7,4.2c2.5,0,8.4,0.3,13.5-1.3C-22.2,370.6-24.7,369.9-21.9,365.9z"/>
	<path class="st27" d="M-41,370.2c0.4-0.4,0.8-0.7,1.1-1.1c0.4-0.5,0.2-1.6-0.2-2.8"/>
	<path class="st27" d="M-33.3,374.5c-2.2,0-5.3-2.2-7.7-4.2c-1.6,1.6-3.3,2.9-3.3,2.9s3.1,10.8,11,13.9c7.8,3.1,17.5-6.9,15.1-11.7
		c-0.5-0.9-1-1.5-1.6-2.1C-24.9,374.7-30.8,374.5-33.3,374.5z"/>
</g>
<polygon class="st28" points="64.1,416.2 75.2,414.8 75.2,406.5 64.1,406.5 "/>
<g>
	<path class="st26" d="M-6,354.6c3.3-10.5,1.1-14.1,2.8-20.6c0.7-2.6,1.5-7.1,2.2-11.6c-5.5-7.8-14.1-13.2-24.3-13.2
		c-16.7,0-30.2,13.5-30.2,30.2c0,16.7,13.5,30.2,30.2,30.2c0.8,0,1.4-0.4,2.1-0.4C-16.6,366-8,360.9-6,354.6z"/>
	<path class="st27" d="M4.8,339.4c0-6.4-2.5-12-5.9-16.9c-0.7,4.5-1.5,9-2.2,11.6c-1.7,6.5,0.6,10.1-2.8,20.6
		c-2,6.3-10.7,11.4-17.2,14.5C-7.6,368,4.8,355.3,4.8,339.4z"/>
</g>
<path class="st29" d="M-17.9,342.1c-1.4,4.1,6.4,8.8,4.6,11.1c-1.8,2.3-6.6,1.5-10,0"/>
<path class="st30" d="M-15.3,309.2c0,0,7.5,17.1-8,18.1c-15.5,1-19.9,7.5-19.9,15.9s-6.9,18.3-6.9,18.3s-2.5-7.1,4.5,8
	s3,21.6,3,21.6s-2.3-19.8-7.9-19.3c-5.5,0.5-20.9,2.3-11.7-32.5s42.4-34.3,42.4-34.3L-15.3,309.2z"/>
<path class="st3" d="M-13.7,316.4c0,0,0.4,7.1,7.7,7.9c7.3,0.9,7,15,7,15s0,20-4.3,22.1c-4.3,2.1-10.1,8.2-15,8
	c-4.8-0.2-5.1,8,0,11.1c5.1,3.1,4.2,0.2,3.7,5.4c-0.5,5.1,10.2-10.7,8.5-13.2c-1.6-2.5,16.6-1.2,15.7-18.2c-1-17,8.2-31.4-4.9-35.8
	c-13.1-4.4-9.5-16-16-13.9C-17.6,307.2-21.3,308.5-13.7,316.4z"/>
<g>
	<path class="st6" d="M-102.3,420.1c0.1-6-5.7-19.2-9.9-28.2c-7.5,5.5-12.5,14.3-12.5,24.3c0,14.1,9.7,25.8,22.8,29.2
		C-100,437.4-102.3,426.2-102.3,420.1z"/>
	<path class="st14" d="M-94.5,386c-6.6,0-12.7,2.2-17.7,5.9c4.3,9,10,22.2,9.9,28.2c-0.1,6.1,2.3,17.4,0.4,25.3
		c2.4,0.6,4.9,1.7,7.4,1c3.8-1,17.3-13.6,17.3-30.3C-77.2,399.4-77.8,386-94.5,386z"/>
</g>
<path class="st3" d="M17.1,426.9c0,0,8.2,12.6,17.5,12.2c9.3-0.5,26.1-1.8,20.6-16c-5.4-14.2-17.5-29-1-28.5
	c16.5,0.5,14,14,19.6,7.3c5.6-6.8,13.1-3.3,8.6-10.7s-6.9-12.9-14.8-12.9s-8.9,3.5-7.4-3.5c1.5-6.9,4.9-6-5.4-5.7
	c-10.4,0.3-7.5-1.6-9.7,2c-2.2,3.7,2.8,2.7-10.6,3.2s-10.9-9.9-13.4,0.5S6,391.2,10.8,391.2s4.8,6.4,4.1,7.9
	c-0.7,1.5,2,12.2-2.9,8.2s-2.2,5-2.2,9.3c-0.1,4.3,2.9-1.3,5.2,4.5S17.1,426.9,17.1,426.9z"/>
<path class="st31" d="M64.1,410.2c0,0-26-1.1-25.7,7.1"/>
<path class="st9" d="M-67.7,495c0,0,12.5-3,16.2-5.9s4.1,5.6,0,5.9S-67.7,495-67.7,495z"/>
<path class="st3" d="M-19.8,462.4C-8.1,457.2-2.9,453.9-1,452c1.8-1.9-2.2,3.3-2.2,3.3s9.3-0.1,16.1-3.7c6.8-3.7,12.8-2.6,11.6,3
	s3.7,5.6,6.7,4.5c3-1.1,4.5,14.1,2.2,17.1c-2.2,3-4.2,6.8-0.7,8.2c3.5,1.4,9.5-5.1,7.2-17.4c-2.3-12.3-9.4-26.9-25-26.8
	c-15.6,0.1-22.8,4.2-29.4,9.7C-21.1,455.3-19.8,462.4-19.8,462.4z"/>
<g>
	<path class="st32" d="M-98.8,442.3c2.7-0.7,5-16.3,6.1-25.3c-1.7-3-3.3-4-4.2-0.6c-3.1,11.8-1.1,20.2-3.5,20.3
		c-20,0.7-6.3-7.4-19.5-6.5c-5.6,0.4,1.1,15,1.1,15s-3.5,2.5,16,1.8C-102.1,445-100.9,442.8-98.8,442.3z"/>
	<path class="st33" d="M-92.7,417c-1.1,9-3.4,24.6-6.1,25.3c-2,0.5-3.2,2.7-3.9,4.7c3.4-0.1,7.3-0.3,12.3-0.6
		C-84,445.9-88.5,424.6-92.7,417z"/>
</g>
<path class="st34" d="M-84.1,414.8c0,0-6.6,1.8-7.6,6.3c-0.9,4.5,0,18.9,0,18.9l5.8-3.2c0,0-1.3-18.2,1.8-19.5
	C-81,416-84.1,414.8-84.1,414.8z"/>
<path class="st33" d="M-113.7,416.7c-3.8,0.1-2.4,0.2-6.9-0.5c-4.5-0.8-2.9,2.9-2.9,2.9l8-0.6L-113.7,416.7z"/>
<g>
	<path class="st4" d="M74.9,491.7c-2.9,39.4-28.5,50.7-42.1,53.9c9.2,0.3,33,2,37.7-2.9c5-5.3,7.5-45.8,7.5-45.8
		S78,492.6,74.9,491.7z"/>
	<path class="st8" d="M74.9,491.7c-0.4-0.1-0.6-0.4-1.1-0.4c-4.5,0-47.2,0-47.2,0s-2.8,2-2,10.1c0.8,8.1-0.2,40.8-0.2,40.8
		s-0.7,3.4,6,3.4c0.6,0,1.5,0,2.3,0.1C46.4,542.4,72,531.1,74.9,491.7z"/>
</g>
<path class="st7" d="M55.1,523c0,0-4.9,1.1-2.7,5.6c2.2,4.5,2.8,16.5,1.1,21.8c-1.7,5.3-3.1,9.2-3.1,9.2s2.2,3.9,6.1,0
	c3.9-3.9,6.4-10.9,6.4-20.7C62.9,529.1,59.5,525.2,55.1,523z"/>
<path class="st7" d="M69.9,558.2c0,0-2.2,5-9.5,5.6s-19.8,0-19.8,0s-6.4-0.6-5-2.7c1.4-2.1,7.8-2,15.3-2.9
	C58.3,557.3,69.9,558.2,69.9,558.2z"/>
<polygon class="st9" points="73.2,439.1 122.8,446.4 126.3,407.9 76.6,402.9 "/>
<path class="st22" d="M79.4,478.2c0,0,1-6,4.4-5.8c3.3,0.2,2.5,3.1,1.8,2.9c-0.7-0.2,2.4-4.7,5.3-2.9c2.9,1.8-0.5,6.2-3.2,5.8
	c-2.7-0.4,7.2-3,7.2,0c0,3.1-5.2,3-7.2,3.3s3.2-0.5,4.2,1.5s-1.4,3.8-4.7,2c-3.3-1.8-3.3-1.8-3.3-1.8L79.4,478.2z"/>
<path class="st22" d="M65.2,469.2c0,0,0.6-3.7,2.7-3.6c2.1,0.1,1.5,1.9,1.1,1.8c-0.4-0.1,1.5-2.9,3.3-1.8s-0.3,3.8-2,3.6
	c-1.7-0.3,4.5-1.9,4.5,0c0,1.9-3.2,1.8-4.5,2.1c-1.3,0.2,2-0.3,2.6,0.9c0.6,1.2-0.9,2.3-2.9,1.2c-2.1-1.1-2.1-1.1-2.1-1.1
	L65.2,469.2z"/>
<path class="st8" d="M111.3,475.4c-6.2,0.4-7.6,8.5-7.6,8.5s2.5,10.8,11.3,0C123.8,473.1,111.3,475.4,111.3,475.4z"/>
<path class="st3" d="M32.8,452.1c0,0,0.6-5.6,6.9-1.9c6.3,3.8,7.3,7.1,6.7,10.8s-4.2,3,0.2,8.3s2.7,5,2.7,5s-6.6,0.8-8.1-4.4
	s-5.8-4.2-5.8-10.4"/>
<path class="st11" d="M14.9,500.9c0,3.9,2.3,7.3,2.3,7.3s-5.8,0.9-8.1,1.2c-2.4,0.3-4.2-8.4-4.2-8.4L14.9,500.9z"/>
<path class="st11" d="M6.1,549.3c0,0,1.9,5.1,6.8,4.2c4.9-0.9,2-4.2,2-4.2s2.4,3.4,6.5,2.1c4.1-1.3,8.5-7.4,0-8.7s-7.5-2.2-10.4-0.6
	C8.1,543.7,6.1,549.3,6.1,549.3z"/>
<path class="st15" d="M-59.3,500.9c0,0,0.5,9,4.7,8.4c4.2-0.6,0-10.9,0-10.9"/>
<path class="st15" d="M-61.5,546.1c-5.6-0.1-7.8,5.3-7.8,5.3s-1,5.3,1.6,2.1c2.6-3.2,4.4-2.1,4.4-2.1s-4.4,2.3-0.9,3.1
	c3.5,0.8,5-1.5,4.9-3.1c-0.1-1.6-0.3,4,2.2,3.3c2.4-0.7,4.3-4.7,2.6-5.9S-54.4,546.2-61.5,546.1z"/>
<path class="st15" d="M-94.3,543.4c-5.6-0.1-7.8,5.3-7.8,5.3s-1,5.3,1.6,2.1c2.6-3.2,4.4-2.1,4.4-2.1s-4.4,2.3-0.9,3.1
	s5-1.5,4.9-3.1c-0.1-1.6-0.3,4,2.2,3.3s4.3-4.7,2.6-5.9C-89,544.9-87.2,543.4-94.3,543.4z"/>
<g>
	<path class="st4" d="M-121.8,545.4c5,5.3,33.2,2.8,40,2.8s6-3.4,6-3.4s-1-32.7-0.2-40.8c0.8-8.1-2-10.1-2-10.1
		C-84.2,525-121.8,545.4-121.8,545.4z"/>
	<path class="st8" d="M-129.4,499.6c0,0,2.5,40.5,7.5,45.8c0,0,37.6-20.4,43.9-51.4c0,0-42.7,0-47.2,0
		C-129.7,494-129.4,499.6-129.4,499.6z"/>
</g>
<path class="st7" d="M-102.6,524.1c0,0,4.9,1.1,2.7,5.6c-2.2,4.5-2.8,16.5-1.1,21.8s3.1,9.2,3.1,9.2s-2.2,3.9-6.1,0
	c-3.9-3.9-6.4-10.9-6.4-20.7S-107.1,526.3-102.6,524.1z"/>
<path class="st7" d="M-117.4,559.3c0,0,2.2,5,9.5,5.6c7.3,0.6,19.8,0,19.8,0s6.4-0.6,5-2.7s-7.8-2-15.3-2.9
	C-105.9,558.4-117.4,559.3-117.4,559.3z"/>
<path class="st12" d="M0.8,474.2c0,0-2,6.3-3.4,5.8c-1.4-0.6-2.5,5.3,5.2,4.8"/>
<path class="st6" d="M-126.6,473.9c0,0,1.9-4.7-4-4.3c-5.9,0.4-2.7,4.3-2.7,4.3s-6.9-6.3-8.7-2.7c-1.8,3.6,1.7,5.7,5.2,6.4
	s3.5,0.7,3.5,0.7L-126.6,473.9z"/>
<ellipse class="st9" cx="-14.1" cy="566.9" rx="20.3" ry="8.6"/>
<ellipse class="st9" cx="-143.2" cy="547.7" rx="20.3" ry="8.6"/>
<path class="st16" d="M-91.6,478.4c0,0,5,2.4,11.7,1.1c6.7-1.2,10.4-9.9,10.4-9.9L-91.6,478.4z"/>
<path class="st35" d="M-43.6,514.3c0,0-6.1,2.4-5,9.8s-3.8,14.7-5.3,16.2c-1.5,1.5,0,0,0,0l9.8-11.1L-43.6,514.3z"/>
<g>
	<path class="st36" d="M-35.5,482.7c1.7-3.5-0.3-8-2.5-12.5c-2.2-4.5,0.4-7,2.5-13.9c1.5-4.9-3.1-11-5.9-14.2
		c-0.9-0.1-1.8-0.3-2.9-0.2c-12.7,0.5-4.3-5.7-20.1-3.8c-15.8,1.9-20.2,8.9-25.4,16c-5.2,7.1-0.7,11.4-4.3,13.9
		c-3.5,2.4,1.9,10.6-2.7,11.4c-4.5,0.7,0.7,3.3,5.1,0c0,0,11.1,1.5,17.4-5.2c6.3-6.7,6.7,5.2,4.8,7.1c-1.9,1.9,7.5-0.7,11.2-6.7
		s9.6,3.4,8.1,7.3c-1.5,3.9,9.6-5.3,9.1-9.6c-0.6-4.3,1.1-1.2,0,10.6c-0.7,7.3,0.6,12.8,2.8,14.7C-40.3,494.6-37.1,486.2-35.5,482.7
		z"/>
	<path class="st37" d="M-31,468.5c2.5-6.3,6.7-7,2.7-11.5c-3.6-4.1-3.5-13.6-13.1-14.9c2.8,3.2,7.4,9.3,5.9,14.2
		c-2.1,6.9-4.8,9.4-2.5,13.9c2.2,4.5,4.2,9,2.5,12.5c-1.7,3.5-4.8,11.9-2.7,14.7c1.4,1.2,3.1,1,4.9-1.2c4.7-5.7,0.2-17.2,5.8-16.9
		S-33.5,474.8-31,468.5z"/>
</g>
<g>
	<path class="st32" d="M-103.5,393.2l0.4-6.9c-1.3,0.4-2.6,0.9-4.1,1.3c-15.2,4.6-19.3,23.2-17.5,18.9c1.8-4.3-1.8,1.6,8.1,3.4
		c7.5,1.3,8.9-1.8,10.8-5.8l-2.5-3.7C-108.3,400.5-108,396.1-103.5,393.2z"/>
	<path class="st33" d="M-79.2,391.9c-5.2-4.8-11.9-9.7-19.9-6.9l0,0c0,0,4.8,4.4-2.3,7c-1,0.4-1.6,0.9-2.3,1.4l-0.4,7.1
		c0.1-0.1,0.1-0.2,0.2-0.3l6.1,6.5c3,5.5,4.9,37,5.7,35.6c0.8-1.4,26.1-6.6,24.2-29.7C-68.6,403.5-72.4,398-79.2,391.9z"/>
	<path class="st33" d="M-101.1,391.9c7.1-2.6,2.3-7,2.3-7l0,0c-1.3,0.4-2.7,0.9-4.3,1.4l-0.4,6.9
		C-102.7,392.8-102.1,392.2-101.1,391.9z"/>
	<path class="st33" d="M-108.3,400.5l2.5,3.7c0.6-1.2,1.2-2.5,2-3.8l0.4-7.1C-108,396.1-108.3,400.5-108.3,400.5z"/>
</g>
<path class="st6" d="M-95.2,430.4c0,0,8.2-1.9,8.5-5.4c0.3-3.5,1.9-10.9-4.3-8s-6,9.1-6,9.1L-95.2,430.4z"/>
<path class="st38" d="M-2.1,443.4c0,0-8.9,4.1-13.2,9.6s8.4-4.1,8.4-4.1L-2.1,443.4z"/>
<path class="st38" d="M8.1,444.6c0,0-2,8.2-7.2,8.9s1.3,1.8,5.7-2.7S8.1,444.6,8.1,444.6z"/>
<ellipse class="st39" cx="-27.6" cy="421.8" rx="2.8" ry="2.8"/>
<circle class="st39" cx="-18" cy="421.3" r="2.7"/>
<g>
	<path class="st19" d="M-8.9,569.1c-0.6,0.4-0.2-4.3-1.1-6.4c-0.4-1.1-1.1-1.8-1.7-2.3c-0.9,0.4-1.5,0.8-1.5,0.8l-18.3,6.3l23.2,3.4
		c0,0,0.1,0,0.1,0.1C-8.2,570-8.6,568.9-8.9,569.1z"/>
	<path class="st25" d="M-3,570.9c-0.4-4.4-1.6-10.4-4.5-11.1c-1.6-0.4-3.1,0.1-4.2,0.6c0.6,0.5,1.3,1.3,1.7,2.3
		c0.9,2.1,0.5,6.8,1.1,6.4c0.3-0.2,0.6,0.9,0.9,1.9C-7.1,571.7-2.6,574.9-3,570.9z"/>
</g>
<ellipse class="st39" cx="-12.4" cy="567.8" rx="2.7" ry="1.3"/>
<ellipse class="st39" cx="-18.1" cy="564.9" rx="1.8" ry="0.9"/>
<path class="st40" d="M-65.5,440c0,0-15.5,2.6-19.9,13.9c-4.5,11.3-0.8-2.6,7.5-6.5C-69.7,443.6-65.5,440-65.5,440z"/>
<path class="st40" d="M-73.3,462.3c0,0-2.1,9.4-10.5,11.7c-8.4,2.3-8.4,2.3-8.4,2.3s11.5,0.1,15-3.6
	C-73.7,468.9-73.3,462.3-73.3,462.3z"/>
<path class="st40" d="M-88.3,472.2c0,0,4.1-0.1,6.8-2.6c2.7-2.5,4.3-5.6,4.3-7.4c0-1.8-0.8,2.3-3.4,5.4
	C-83.1,470.8-88.3,472.2-88.3,472.2z"/>
<path class="st40" d="M-45.5,465.4c0,0,3,3.2,1.9,5.8c-1,2.6-5,8.3-5,8.3s4.3-2.6,5.2-5.6s1.6-5,0.9-6.3
	C-43.1,466.2-45.5,465.4-45.5,465.4z"/>
</svg>
