<?xml version="1.0" encoding="utf-8"?>
<!-- Generator: Adobe Illustrator 19.1.0, SVG Export Plug-In . SVG Version: 6.00 Build 0)  -->
<svg version="1.1" id="Layer_1" xmlns="http://www.w3.org/2000/svg" xmlns:xlink="http://www.w3.org/1999/xlink" x="0px" y="0px"
	 viewBox="-176 299 328.7 298" style="enable-background:new -176 299 328.7 298;" xml:space="preserve">
<style type="text/css">
	.st0{fill:#AF8B7B;}
	.st1{fill:#D8B484;}
	.st2{fill:#EDF4D9;}
	.st3{fill:#F7F7F7;}
	.st4{fill:#C1C1C1;}
	.st5{fill:#EAEAEA;}
	.st6{fill:#FFFFFF;}
	.st7{fill:#848484;}
	.st8{fill:#CECECE;}
	.st9{fill:#A8A8A8;}
	.st10{fill:none;stroke:#848484;stroke-width:0.75;stroke-miterlimit:10;}
	.st11{fill:none;}
	.st12{fill:#C6E6DE;}
	.st13{fill:#D3EFE7;}
	.st14{fill:#EFEFEF;}
	.st15{fill:#658539;}
	.st16{fill:#648428;}
	.st17{fill:#77A340;}
	.st18{fill:#8BC544;}
	.st19{fill:#BAB47F;}
	.st20{fill:#143D3C;}
	.st21{fill:#994710;}
	.st22{fill:#A88B76;}
	.st23{fill:#1A8A8E;}
	.st24{fill:#937661;}
	.st25{fill:#475B1B;}
	.st26{fill:#742D00;}
	.st27{fill:#12514F;}
	.st28{fill:none;stroke:#1A8A8E;stroke-width:8;stroke-miterlimit:10;}
	.st29{fill:#186666;}
	.st30{fill:none;stroke:#B21D1D;stroke-width:0.5;stroke-miterlimit:10;}
	.st31{fill:none;stroke:#7F5029;stroke-width:0.75;stroke-miterlimit:10;}
	.st32{fill:#BF6267;}
	.st33{fill:#A5606A;}
	.st34{fill:#A5464F;}
	.st35{fill:#7F5029;}
	.st36{fill:none;stroke:#A52B32;stroke-width:3;stroke-miterlimit:10;}
	.st37{fill:#B55E24;}
	.st38{fill:#2D2D2D;}
	.st39{fill:#7F3F14;}
	.st40{fill:#E8E8E8;}
</style>
<g>
	<path class="st0" d="M-43.4,440.3c0.1-0.3,0.1-0.6,0-1c-0.1-2-2.5-1.9-2.5-2.1l-2.1,3c0,0,0.1,0.2,0.4,0.5
		C-46.8,440.4-45.4,440.2-43.4,440.3z"/>
	<path class="st1" d="M-47.6,440.6c0.4,0.4,1,0.8,2,0.7c1.3-0.1,2-0.1,2.2-1.1C-45.4,440.2-46.8,440.4-47.6,440.6z"/>
</g>
<path class="st2" d="M-107.9,520.3c-49.1-53-46-135.8,6.9-184.9s135.8-46,184.9,6.9s46,135.8-6.9,184.9
	c-25.7,23.9-58.6,67-91.1,66.5C-48.6,593.2-82.6,547.5-107.9,520.3z"/>
<path class="st3" d="M-39.2,462.6"/>
<g>
	<path class="st4" d="M125.7,333.7l-6.2,161h-262.8l-6.2-161c0-0.1,0-0.3,0-0.4c0.3-1.2,2.1-6.6,12.4-6.6h250.3
		c10.3,0,12.1,5.4,12.4,6.6C125.7,333.4,125.7,333.5,125.7,333.7z"/>
</g>
<g>
	<path class="st5" d="M-93.2,415.1c-1.5,1.4-3,2.9-4.5,4.4C-96.2,418-94.7,416.5-93.2,415.1z"/>
	<path class="st5" d="M-93.2,415.1c4.3-4,9.1-7.8,14.4-11.2C-84.1,407.2-88.9,411-93.2,415.1z"/>
	<path class="st5" d="M-77.7,403.1c1.1-0.7,2.3-1.4,3.5-2.1C-75.3,401.7-76.5,402.4-77.7,403.1z"/>
	<path class="st3" d="M45.9,382.6c0,0.1-0.1,0.3-0.1,0.4c-0.5,1.3-1,2.6-1.6,3.9c-0.2,0.4-0.3,0.7-0.5,1c-0.2,0.3-0.3,0.7-0.5,1
		c-1.6,3.2-3.5,6.2-5.7,9c-0.2,0.3-0.4,0.5-0.6,0.8c-1,1.2-2,2.4-3.1,3.5c-0.3,0.3-0.5,0.6-0.8,0.8c-0.6,0.6-1.1,1.1-1.7,1.7
		c-0.3,0.2-0.5,0.5-0.8,0.7c-1.7,1.6-3.6,3-5.6,4.4c-0.3,0.2-0.7,0.5-1,0.7c-0.1,0.1-0.2,0.1-0.3,0.2c-0.6,0.4-1.2,0.8-1.9,1.2
		c-1.5,0.9-3.1,1.8-4.7,2.6c-0.4,0.2-0.8,0.4-1.2,0.6c-1.2,0.6-2.4,1.1-3.6,1.6c-0.4,0.2-0.8,0.3-1.2,0.5c-0.4,0.2-0.8,0.3-1.2,0.5
		c-0.5,0.2-1.1,0.4-1.6,0.6c-0.3,0.1-0.6,0.2-1,0.3c-1.2,0.4-2.3,0.7-3.5,1.1c-0.4,0.1-0.8,0.2-1.2,0.3c-1.4,0.4-2.8,0.7-4.2,1
		c-0.4,0.1-0.9,0.2-1.3,0.3c-0.1,0-0.1,0-0.1,0c-0.5,0.1-1.1,0.2-1.6,0.3c-1.7,0.3-3.4,0.5-5.1,0.7c-0.4,0-0.8,0.1-1.1,0.1
		c-1.3,0.1-2.6,0.2-4,0.3c-0.4,0-0.9,0.1-1.3,0.1c-0.8,0-1.5,0.1-2.3,0.1c-0.7,0-1.3,0-2,0c-1.1,0-2.2,0-3.4,0
		c-1.2,0-2.5-0.1-3.7-0.1c-0.9,0-1.7,0-2.6,0h-0.1c-0.8,0-1.5,0-2.3,0.1c-0.7,0-1.4,0.1-2,0.1c-0.4,0-0.8,0.1-1.2,0.1
		c-0.7,0.1-1.3,0.1-2,0.2c0,0,0,0-0.1,0c-0.7,0.1-1.5,0.1-2.2,0.2c-1.8,0.2-3.6,0.4-5.3,0.7c-0.6,0.1-1.1,0.2-1.7,0.3
		c-0.7,0.1-1.4,0.3-2,0.4c-0.4,0.1-0.9,0.2-1.3,0.3c-2.6,0.6-5.1,1.2-7.5,2c-0.5,0.1-0.9,0.3-1.4,0.4c-0.5,0.1-0.9,0.3-1.4,0.5
		c-0.4,0.1-0.8,0.3-1.2,0.4c-1,0.3-1.9,0.7-2.9,1.1c-0.5,0.2-0.9,0.3-1.3,0.5c-0.4,0.2-0.9,0.4-1.3,0.5c-0.4,0.2-0.9,0.4-1.3,0.6
		c-0.4,0.2-0.9,0.4-1.3,0.6c-0.9,0.4-1.7,0.8-2.5,1.2c-0.4,0.2-0.8,0.4-1.2,0.6c-0.4,0.2-0.8,0.4-1.2,0.6c-0.4,0.2-0.8,0.4-1.2,0.7
		c-0.4,0.2-0.8,0.4-1.2,0.7c-1.2,0.7-2.4,1.4-3.5,2.1c-0.4,0.2-0.8,0.5-1.1,0.7c-5.3,3.4-10.1,7.2-14.4,11.2c-1.5,1.4-3,2.9-4.5,4.4
		c-2,2.1-3.9,4.2-5.7,6.3c-8.3,10-14.3,20.4-18.5,29h-7.6l-5.8-148.5c0,0-0.9-5.3,8-5.3H-12c0,0,0,0,0.1,0h55.6
		C50.6,351.9,51.1,368.4,45.9,382.6z"/>
</g>
<g>
	<path class="st6" d="M-107,460.4c1.8-2.1,3.7-4.3,5.7-6.3C-103.3,456.1-105.2,458.2-107,460.4L-107,460.4z"/>
	<path class="st6" d="M-96.8,449.6c-1.5,1.4-3,2.9-4.5,4.4C-99.8,452.5-98.3,451.1-96.8,449.6z"/>
	<path class="st6" d="M-96.8,449.6c4.3-4,9.1-7.8,14.4-11.2C-87.7,441.8-92.5,445.6-96.8,449.6z"/>
	<path class="st6" d="M-81.3,437.7c1.1-0.7,2.3-1.4,3.5-2.1C-78.9,436.3-80.1,437-81.3,437.7z"/>
	<path class="st6" d="M45.9,382.7c0,0.1-0.1,0.3-0.2,0.4C45.8,382.9,45.8,382.8,45.9,382.7L45.9,382.7z"/>
	<path class="st5" d="M115,340.9l-5.8,148.5h-234.7c4.6-9.5,11.5-21.2,21.2-32.1c0.1-0.1,0.2-0.2,0.2-0.3c0.9-1,1.9-2,2.8-3
		c1.4-1.5,2.9-2.9,4.5-4.4c4.3-4,9.1-7.8,14.4-11.2c0.4-0.2,0.8-0.5,1.1-0.7c1.2-0.7,2.3-1.4,3.5-2.1c0.4-0.2,0.8-0.5,1.2-0.7
		c0.4-0.2,0.8-0.4,1.2-0.7c0.4-0.2,0.8-0.4,1.2-0.6c0.4-0.2,0.8-0.4,1.2-0.6c0.8-0.4,1.7-0.8,2.5-1.2c0.4-0.2,0.9-0.4,1.3-0.6
		c0.4-0.2,0.9-0.4,1.3-0.6c0.4-0.2,0.9-0.4,1.3-0.5c0.4-0.2,0.9-0.4,1.3-0.5c1-0.4,1.9-0.7,2.9-1.1c0.4-0.1,0.8-0.3,1.2-0.4
		c0.5-0.2,0.9-0.3,1.4-0.5c0.5-0.2,0.9-0.3,1.4-0.4c2.4-0.7,4.9-1.4,7.5-2c0.4-0.1,0.9-0.2,1.3-0.3c0.7-0.1,1.4-0.3,2-0.4
		c0.6-0.1,1.1-0.2,1.7-0.3c1.7-0.3,3.5-0.5,5.3-0.7c0.7-0.1,1.4-0.2,2.2-0.2c0,0,0,0,0.1,0c0.7-0.1,1.3-0.1,2-0.2
		c0.4,0,0.8-0.1,1.2-0.1c0.7-0.1,1.4-0.1,2-0.1c0.8,0,1.5-0.1,2.3-0.1h0.1c0.9,0,1.7,0,2.6,0c1.2,0,2.5,0,3.7,0.1c1.1,0,2.3,0,3.4,0
		c0.7,0,1.3,0,2,0c0.8,0,1.5,0,2.3-0.1c0.4,0,0.9,0,1.3-0.1c1.3-0.1,2.7-0.2,4-0.3c0.4,0,0.8-0.1,1.1-0.1c1.7-0.2,3.4-0.4,5.1-0.7
		c0.5-0.1,1.1-0.2,1.6-0.3c0,0,0.1,0,0.1,0c0.4-0.1,0.9-0.2,1.3-0.3c1.4-0.3,2.8-0.6,4.2-1c0.4-0.1,0.8-0.2,1.2-0.3
		c1.2-0.3,2.4-0.7,3.5-1.1c0.3-0.1,0.7-0.2,1-0.3c0.5-0.2,1.1-0.4,1.6-0.6c0.4-0.2,0.8-0.3,1.2-0.5c0.4-0.2,0.8-0.3,1.2-0.5
		c1.2-0.5,2.4-1,3.6-1.6c0.4-0.2,0.8-0.4,1.2-0.6c1.6-0.8,3.2-1.7,4.7-2.6c0.6-0.4,1.3-0.8,1.9-1.2c0.1-0.1,0.2-0.1,0.3-0.2
		c0.3-0.2,0.7-0.5,1-0.7c2-1.4,3.8-2.8,5.6-4.4c0.3-0.2,0.5-0.5,0.8-0.7c0.6-0.5,1.2-1.1,1.7-1.7c0.3-0.3,0.6-0.6,0.8-0.8
		c1.1-1.1,2.1-2.3,3.1-3.5c0.2-0.2,0.4-0.5,0.6-0.8c2.2-2.8,4.1-5.8,5.7-9c0.2-0.3,0.4-0.7,0.5-1c0.2-0.3,0.3-0.7,0.5-1
		c0.6-1.3,1.1-2.5,1.6-3.9c5.4-14.3,5-31-2.1-47.6h63.3C115.8,335.5,115,340.9,115,340.9z"/>
</g>
<path class="st7" d="M150.6,538.4v4.9c0,0-0.2,6.7-6.2,6.7h-313.4c-6,0-6.2-6.7-6.2-6.7v-4.9l0.1-0.8c0.3,1.9,1.5,5.7,6.1,5.7h313.4
	c4.5,0,5.8-3.8,6.1-5.7L150.6,538.4z"/>
<g>
	<path class="st8" d="M-123.9,495.4h-19.8l-21.9,29.4C-134.9,520.1-126.2,505.4-123.9,495.4z"/>
	<path class="st4" d="M119,495.4h-242.9c-2.3,9.9-11,24.6-41.8,29.4l-9.5,12.7c0.3,1.9,1.5,5.7,6.1,5.7h313.4c4.5,0,5.8-3.8,6.1-5.7
		L119,495.4z"/>
</g>
<polygon class="st7" points="-134,498.9 -152.2,522.8 123.1,522.8 108.8,498.9 "/>
<polyline class="st9" points="-22.4,526.4 10.1,526.4 17.2,537.6 -28.6,537.6 "/>
<line class="st10" x1="-143.7" y1="495.4" x2="119" y2="495.4"/>
<g>
	<path class="st11" d="M-77.6,435.4c-1.2,0.7-2.4,1.4-3.5,2.1C-80,436.8-78.8,436.1-77.6,435.4z"/>
	<path class="st11" d="M46,382.5c0.1-0.2,0.1-0.4,0.2-0.6c-0.1,0.3-0.2,0.7-0.3,1C45.9,382.7,46,382.6,46,382.5z"/>
	<path class="st12" d="M48.5,350.7c0.1,0.7,0.2,1.4,0.3,2.1c0,0.3,0.1,0.7,0.2,1c0.1,0.7,0.2,1.4,0.2,2c0,0.3,0.1,0.7,0.1,1
		c0.1,0.7,0.1,1.3,0.1,2c0,0.3,0,0.7,0.1,1c0,0.7,0,1.3,0,2c0,0.3,0,0.7,0,1c0,0.7,0,1.3-0.1,2c0,0.3,0,0.7,0,1
		c0,0.7-0.1,1.3-0.2,1.9c0,0.3,0,0.6-0.1,1c-0.1,0.6-0.2,1.3-0.2,1.9c0,0.3-0.1,0.6-0.1,0.9c-0.1,0.7-0.2,1.3-0.3,1.9
		c-0.1,0.3-0.1,0.6-0.2,0.9c-0.1,0.7-0.3,1.3-0.4,2c-0.1,0.3-0.1,0.6-0.2,0.8c-0.2,0.7-0.4,1.3-0.6,2c-0.1,0.3-0.1,0.5-0.2,0.8
		c-0.2,0.7-0.4,1.4-0.7,2c-0.1,0.2-0.1,0.4-0.2,0.6c0,0.1-0.1,0.3-0.1,0.4c-0.5,1.3-1,2.6-1.6,3.9c-0.2,0.4-0.3,0.7-0.5,1
		c-0.2,0.3-0.3,0.7-0.5,1c-1.6,3.2-3.5,6.2-5.7,9c-0.2,0.3-0.4,0.5-0.6,0.8c-1,1.2-2,2.4-3.1,3.5c-0.3,0.3-0.5,0.6-0.8,0.8
		c-0.6,0.6-1.1,1.1-1.7,1.7c-0.3,0.2-0.5,0.5-0.8,0.7c-1.7,1.6-3.6,3-5.6,4.4c-0.3,0.2-0.7,0.5-1,0.7c-0.1,0.1-0.2,0.1-0.3,0.2
		c-0.6,0.4-1.2,0.8-1.9,1.2c-1.5,0.9-3.1,1.8-4.7,2.6c-0.4,0.2-0.8,0.4-1.2,0.6c-1.2,0.6-2.4,1.1-3.6,1.6c-0.4,0.2-0.8,0.3-1.2,0.5
		c-0.4,0.2-0.8,0.3-1.2,0.5c-0.5,0.2-1.1,0.4-1.6,0.6c-0.3,0.1-0.6,0.2-1,0.3c-1.2,0.4-2.3,0.7-3.5,1.1c-0.4,0.1-0.8,0.2-1.2,0.3
		c-1.4,0.4-2.8,0.7-4.2,1c-0.4,0.1-0.9,0.2-1.3,0.3c-0.1,0-0.1,0-0.1,0c-0.5,0.1-1.1,0.2-1.6,0.3c-1.7,0.3-3.4,0.5-5.1,0.7
		c-0.4,0-0.8,0.1-1.1,0.1c-1.3,0.1-2.6,0.2-4,0.3c-0.4,0-0.9,0.1-1.3,0.1c-0.8,0-1.5,0.1-2.3,0.1c-0.7,0-1.3,0-2,0
		c-1.1,0-2.2,0-3.4,0c-1.2,0-2.5-0.1-3.7-0.1c-0.9,0-1.7,0-2.6,0h-0.1c-0.8,0-1.5,0-2.3,0.1c-0.7,0-1.4,0.1-2,0.1
		c-0.4,0-0.8,0.1-1.2,0.1c-0.7,0.1-1.3,0.1-2,0.2c0,0,0,0-0.1,0c-0.7,0.1-1.5,0.1-2.2,0.2c-1.8,0.2-3.6,0.4-5.3,0.7
		c-0.6,0.1-1.1,0.2-1.7,0.3c-0.7,0.1-1.4,0.3-2,0.4c-0.4,0.1-0.9,0.2-1.3,0.3c-2.6,0.6-5.1,1.2-7.5,2c-0.5,0.1-0.9,0.3-1.4,0.4
		c-0.5,0.1-0.9,0.3-1.4,0.5c-0.4,0.1-0.8,0.3-1.2,0.4c-1,0.3-1.9,0.7-2.9,1.1c-0.5,0.2-0.9,0.3-1.3,0.5c-0.4,0.2-0.9,0.4-1.3,0.5
		c-0.4,0.2-0.9,0.4-1.3,0.6c-0.4,0.2-0.9,0.4-1.3,0.6c-0.9,0.4-1.7,0.8-2.5,1.2c-0.4,0.2-0.8,0.4-1.2,0.6c-0.4,0.2-0.8,0.4-1.2,0.6
		c-0.4,0.2-0.8,0.4-1.2,0.7c-0.4,0.2-0.8,0.4-1.2,0.7c-1.2,0.7-2.4,1.4-3.5,2.1c-0.4,0.2-0.8,0.5-1.1,0.7c-3.2,2-6.1,4.2-8.9,6.5
		c8.5,1.7,17,4.1,25,7.5C-30.4,467-50,477.7,7.6,476c32.2-0.9,15.8,6.5-5,13.2h106.6l5.4-139.1H48.3
		C48.4,350.3,48.4,350.5,48.5,350.7z"/>
	<path class="st13" d="M-77.6,435.4c0.4-0.2,0.8-0.5,1.2-0.7c0.4-0.2,0.8-0.4,1.2-0.7c0.4-0.2,0.8-0.4,1.2-0.6
		c0.4-0.2,0.8-0.4,1.2-0.6c0.8-0.4,1.7-0.8,2.5-1.2c0.4-0.2,0.9-0.4,1.3-0.6c0.4-0.2,0.9-0.4,1.3-0.6c0.4-0.2,0.9-0.4,1.3-0.5
		c0.4-0.2,0.9-0.4,1.3-0.5c1-0.4,1.9-0.7,2.9-1.1c0.4-0.1,0.8-0.3,1.2-0.4c0.5-0.2,0.9-0.3,1.4-0.5c0.5-0.2,0.9-0.3,1.4-0.4
		c2.4-0.7,4.9-1.4,7.5-2c0.4-0.1,0.9-0.2,1.3-0.3c0.7-0.1,1.4-0.3,2-0.4c0.6-0.1,1.1-0.2,1.7-0.3c1.7-0.3,3.5-0.5,5.3-0.7
		c0.7-0.1,1.4-0.2,2.2-0.2c0,0,0,0,0.1,0c0.7-0.1,1.3-0.1,2-0.2c0.4,0,0.8-0.1,1.2-0.1c0.7-0.1,1.4-0.1,2-0.1c0.8,0,1.5-0.1,2.3-0.1
		h0.1c0.9,0,1.7,0,2.6,0c1.2,0,2.5,0,3.7,0.1c1.1,0,2.3,0,3.4,0c0.7,0,1.3,0,2,0c0.8,0,1.5,0,2.3-0.1c0.4,0,0.9,0,1.3-0.1
		c1.3-0.1,2.7-0.2,4-0.3c0.4,0,0.8-0.1,1.1-0.1c1.7-0.2,3.4-0.4,5.1-0.7c0.5-0.1,1.1-0.2,1.6-0.3c0,0,0.1,0,0.1,0
		c0.4-0.1,0.9-0.2,1.3-0.3c1.4-0.3,2.8-0.6,4.2-1c0.4-0.1,0.8-0.2,1.2-0.3c1.2-0.3,2.4-0.7,3.5-1.1c0.3-0.1,0.7-0.2,1-0.3
		c0.5-0.2,1.1-0.4,1.6-0.6c0.4-0.2,0.8-0.3,1.2-0.5c0.4-0.2,0.8-0.3,1.2-0.5c1.2-0.5,2.4-1,3.6-1.6c0.4-0.2,0.8-0.4,1.2-0.6
		c1.6-0.8,3.2-1.7,4.7-2.6c0.6-0.4,1.3-0.8,1.9-1.2c0.1-0.1,0.2-0.1,0.3-0.2c0.3-0.2,0.7-0.5,1-0.7c2-1.4,3.8-2.8,5.6-4.4
		c0.3-0.2,0.5-0.5,0.8-0.7c0.6-0.5,1.2-1.1,1.7-1.7c0.3-0.3,0.6-0.6,0.8-0.8c1.1-1.1,2.1-2.3,3.1-3.5c0.2-0.2,0.4-0.5,0.6-0.8
		c2.2-2.8,4.1-5.8,5.7-9c0.2-0.3,0.3-0.7,0.5-1c0.2-0.3,0.3-0.7,0.5-1c0.6-1.3,1.1-2.6,1.6-3.9c0.1-0.3,0.2-0.7,0.3-1
		c0.2-0.7,0.5-1.3,0.7-2c0.1-0.3,0.1-0.5,0.2-0.8c0.2-0.7,0.4-1.3,0.6-2c0.1-0.3,0.1-0.6,0.2-0.8c0.2-0.6,0.3-1.3,0.4-2
		c0.1-0.3,0.1-0.6,0.2-0.9c0.1-0.6,0.2-1.3,0.3-1.9c0-0.3,0.1-0.6,0.1-0.9c0.1-0.6,0.2-1.3,0.2-1.9c0-0.3,0.1-0.6,0.1-1
		c0.1-0.6,0.1-1.3,0.2-1.9c0-0.3,0-0.7,0-1c0-0.7,0.1-1.3,0.1-2c0-0.3,0-0.7,0-1c0-0.7,0-1.3,0-2c0-0.3,0-0.7-0.1-1
		c0-0.7-0.1-1.3-0.1-2c0-0.3-0.1-0.7-0.1-1c-0.1-0.7-0.1-1.4-0.2-2c0-0.3-0.1-0.7-0.2-1c-0.1-0.7-0.2-1.4-0.3-2.1
		c0-0.2-0.1-0.4-0.1-0.6h-186.8l3.6,91.4c13-0.6,28.3,0.2,43.6,3.3c0,0,0,0,0,0h0c0,0,0,0,0,0c2.8-2.3,5.8-4.5,8.9-6.5
		c0.4-0.2,0.8-0.5,1.1-0.7C-80,436.7-78.8,436-77.6,435.4z"/>
	<path class="st14" d="M107.1,335.3H43.8c0.4,1,0.8,2.1,1.2,3.1c0.2,0.6,0.4,1.2,0.6,1.8c0.2,0.4,0.3,0.9,0.5,1.3
		c0.2,0.7,0.4,1.3,0.6,2c0.1,0.4,0.2,0.7,0.3,1.1c0.2,0.7,0.3,1.3,0.5,2c0.1,0.4,0.2,0.7,0.3,1.1c0.2,0.7,0.3,1.4,0.4,2
		c0,0.1,0.1,0.3,0.1,0.4h66.4l0.4-9.4C115.1,340.7,116,335.3,107.1,335.3z"/>
	<path class="st6" d="M48.3,349.7c-0.1-0.7-0.3-1.4-0.4-2c-0.1-0.3-0.2-0.7-0.3-1.1c-0.2-0.7-0.3-1.3-0.5-2
		c-0.1-0.4-0.2-0.7-0.3-1.1c-0.2-0.7-0.4-1.3-0.6-2c-0.1-0.4-0.3-0.9-0.5-1.3c-0.2-0.6-0.4-1.2-0.6-1.8c-0.4-1-0.8-2.1-1.2-3.1
		h-55.6c0,0-0.1,0-0.1,0h-118.9c-8.9,0-8,5.3-8,5.3l0.4,9.4H48.3C48.3,350,48.3,349.8,48.3,349.7z"/>
</g>
<path class="st15" d="M-91.4,464.7c12-5,46.7-22.1,91.3-17.4c44.7,4.7,61.6,29.4,61.6,29.4l-106.9-2.5l-46-7.4V464.7z"/>
<path class="st11" d="M-78,436.8c-1.2,0.7-2.4,1.4-3.5,2.1C-80.4,438.2-79.2,437.5-78,436.8z"/>
<path class="st11" d="M-91.6,446.1c2.8-2.3,5.8-4.5,8.9-6.5C-85.8,441.6-88.8,443.8-91.6,446.1C-91.6,446.1-91.6,446.1-91.6,446.1z"
	/>
<path class="st5" d="M45.6,383.9c0.1-0.2,0.1-0.4,0.2-0.6c-0.1,0.3-0.2,0.7-0.3,1C45.5,384.2,45.6,384,45.6,383.9z"/>
<path class="st16" d="M-101.5,455.2c1.4-1.5,2.9-2.9,4.5-4.4C-98.6,452.3-100.1,453.8-101.5,455.2z"/>
<path class="st16" d="M-97.1,450.9c1.7-1.6,3.6-3.2,5.5-4.7c0,0,0,0,0,0C-93.5,447.7-95.3,449.2-97.1,450.9z"/>
<path class="st16" d="M-108,462.5c1.1-1.3,2.2-2.7,3.4-4c0.1-0.1,0.2-0.2,0.2-0.3c0.9-1,1.9-2,2.8-3c-2,2.1-3.9,4.2-5.7,6.3
	C-107.5,461.9-107.7,462.2-108,462.5z"/>
<path class="st16" d="M-101.5,455.2c-2,2.1-3.9,4.2-5.7,6.3c-0.3,0.3-0.5,0.6-0.8,0.9c-0.6,0.7-1.1,1.4-1.7,2.1
	c-0.5,0.6-0.9,1.2-1.3,1.7c-0.5,0.7-1,1.3-1.5,2c-0.4,0.6-0.8,1.1-1.2,1.7c-0.5,0.8-1.1,1.5-1.6,2.2c-0.2,0.4-0.5,0.7-0.7,1.1
	c0,0.1-0.1,0.1-0.1,0.2c0.2-0.4,0.5-0.7,0.7-1.1c0.5-0.8,1-1.5,1.6-2.3c0.4-0.6,0.8-1.1,1.2-1.7c0.5-0.7,1-1.3,1.5-2
	c0.4-0.6,0.9-1.2,1.3-1.7c0.5-0.7,1.1-1.4,1.7-2.1c1.1-1.3,2.2-2.7,3.4-4c0.1-0.1,0.2-0.2,0.2-0.3c0.9-1,1.8-2,2.8-3"/>
<path class="st17" d="M-91,444.7c8.5,1.7,58.9,3.7,67,7.1c35.8,14.8,45.8,27,103.5,25.3c32.2-0.9-56.1,5.5-76.9,12.2h-135.6
	l-1.9-47.9c13-0.6,28.5,0.1,43.7,3.2c0,0,0,0,0,0h0c0,0,0,0,0,0L-91,444.7z"/>
<path class="st5" d="M-90.8,445.5c0.2-0.2,0.5-0.4,0.7-0.5c0,0,0,0-0.1,0.1c-0.3,0.3-0.7,0.6-1,0.8c-0.1,0.1-0.2,0.2-0.4,0.3h0
	C-91.4,445.9-91.1,445.7-90.8,445.5z"/>
<path class="st5" d="M-87,442.6c0.1,0,0.1-0.1,0.2-0.1c-0.5,0.4-1.1,0.8-1.6,1.2C-87.9,443.3-87.5,442.9-87,442.6z"/>
<path class="st5" d="M-85.2,441.3c0.1-0.1,0.1-0.1,0.2-0.1c-0.5,0.4-1,0.7-1.6,1.1c-0.1,0.1-0.2,0.1-0.2,0.2
	c0.1-0.1,0.1-0.1,0.2-0.2c0.1-0.1,0.2-0.2,0.4-0.3l0.6-0.4C-85.5,441.5-85.3,441.4-85.2,441.3z"/>
<path class="st5" d="M-81.5,438.9c1.1-0.7,2.3-1.4,3.5-2.1C-79.2,437.5-80.4,438.2-81.5,438.9z"/>
<path class="st6" d="M-90.2,445c-0.3,0.3-0.7,0.6-1,0.8c0.1-0.1,0.3-0.2,0.4-0.4C-90.6,445.3-90.4,445.2-90.2,445z"/>
<path class="st6" d="M-82.7,439.6c-2,1.3-3.9,2.6-5.7,4C-86.6,442.2-84.6,440.9-82.7,439.6z"/>
<path class="st6" d="M-81.5,438.9c1.1-0.7,2.3-1.4,3.5-2.1C-79.2,437.5-80.4,438.2-81.5,438.9z"/>
<path class="st6" d="M45.6,383.9c0,0.1-0.1,0.3-0.2,0.4C45.5,384.2,45.6,384,45.6,383.9L45.6,383.9z"/>
<g>
	<path class="st18" d="M110.7,454.4L110.7,454.4c-167.2,0-106.9,25.6-181.2,35l179.9,0.4L110.7,454.4z"/>
</g>
<ellipse class="st19" cx="46.9" cy="467.7" rx="26.3" ry="2.2"/>
<path class="st20" d="M56.9,407.6c0.5-3.9-1.3-6.4-1.3-6.4l-7-4.3l-9.5,11.3c0,0-2.6,5-3.6,5.5c-0.9,0.5,14.7,9,19.9,3.1
	c1.4-1.6,2.6-3.8,3.6-6.4C54.4,413.8,56.5,411,56.9,407.6z"/>
<path class="st21" d="M29.7,459.5c0,0-1.6,1.6-6.6,0.5c-4.9-1.1-9.3,2.2-7.1,3.7s9.5,3.3,11.9,2.6c1.1-0.3-0.7,0.4,2.4,1.2
	c3.1,0.8,2.4-8.3,1.5-8.6C30.9,458.6,29.7,459.5,29.7,459.5z"/>
<path class="st22" d="M14.7,407.3c0,0-3.6-0.3-3.3,1.6s2.6,6.7,4.7,1.4S14.7,407.3,14.7,407.3z"/>
<g>
	<path class="st23" d="M66.6,441.1c-0.6,0.3-0.9,0.7-0.9,0.7s-4.2,7.3-7.8,5.3c-3.6-2.1-2-12.2-7.9-13c-5.9-0.8-14,1.1-14,1.1
		s-9.5,24.7-8.4,25.6c1.1,0.9,4.6,1.9,5.3,1.8c0.6,0,1.3-22.4,5.3-21.9c4.1,0.6,9.1,0.8,11.7-0.9c2.6-1.7-0.1,16.1,8.4,14
		c8.5-2,9.1-7.5,9.1-7.5s0,0.1,0.1,0.3C67.5,444.8,67.5,442.6,66.6,441.1z"/>
	<path class="st21" d="M68.9,440.5c-0.8-0.1-1.7,0.3-2.3,0.6c0.9,1.5,1,3.7,0.9,5.5c0.2,1,1.6-0.5,3.4,5.1c0.4,1.3,2.7-0.8,2.3-2.1
		C72.6,447.4,70.5,440.7,68.9,440.5z"/>
</g>
<path class="st24" d="M43.1,410.2c0,0-1.8,4.5-0.4,4.6c1.4,0.1,3.5-0.9,3.5-0.9l-0.7-6.3L43.1,410.2z"/>
<g>
	<path class="st25" d="M43.8,416c-0.8-2.9-5.7,0.2-5.7,0.2s-3.3,1.8-6.5,0.6c-2.1-0.8-2.9-2.7-3.3-3.9l-2,2.4
		c0.5,1.5,1.5,3.7,3.3,5.1c3,2.5,7.5,0.6,9,1S44.6,418.8,43.8,416z"/>
</g>
<path class="st26" d="M44,413c0,0-3.7,2.2-4.9,4.4s-5.6,16.1-3.5,18.3s3,7.4,12.2,2.7s5.2-4,5.2-4S58.5,412.5,44,413z"/>
<path class="st27" d="M11.6,380c-1.7,3.7-2.1,7.8-1.3,11.8l9,45.9l0.8,3.5c1.6,7.2,2.9,3.8,3.8,3l1.1-1.6l26.4-53.1
	c0,0,3.5-21-18.6-21.5C20,367.7,14.2,374.4,11.6,380z"/>
<g>
	<path class="st18" d="M48.9,415.2c-3.3-2.1-8.9,3.1-8.9,3.1s-4,3.2-9.9,3.8c-3.9,0.4-6.6-0.9-8.2-1.7l-1.3,3.1c2,1.1,5.2,2.4,9,2.8
		c6.6,0.6,12.4-3.3,15.1-3.6C47.4,422.3,52.2,417.4,48.9,415.2z"/>
</g>
<ellipse transform="matrix(0.9972 -7.505137e-02 7.505137e-02 0.9972 -29.0828 3.4251)" class="st28" cx="31" cy="388.7" rx="12.2" ry="11.1"/>
<path class="st22" d="M21.9,420.4c0,0-0.7-3.2-3-3c-2.3,0.2-2.6,0-0.8,1.4c1.8,1.4-2.5,0.1-2.5,0.1l-0.3-1.3c0,0-0.8-0.4-0.4,1.1
	c0.4,1.5-0.8,1,0,2.1s-0.7,2.4,0.9,2.7s4,0.7,4.9,0.1C21.4,422.9,21.9,420.4,21.9,420.4z"/>
<g>
	<path class="st22" d="M48.6,402.2c-0.6-3,0.5-4,1-6.5c0.5-2.5-1-5.2-1-5.2s-0.5-1.2-0.8-2.6c-3.6-0.9-7.3,0-10.1,2.2
		c-0.6,2.2-2.6,5.3-1.1,6.7c2.3,2.1-1.2,2.6-1.1,5.7c0,1.6,0.6,3.4,0.8,5c1.4,1.5,3.2,2.7,5.2,3.3c2.6,0.8,5.2,0.7,7.5-0.1
		C49.2,408.6,49,404.5,48.6,402.2z"/>
	<path class="st24" d="M56.4,403c2-6.3-1.5-12.9-7.8-14.9c-0.3-0.1-0.5-0.1-0.8-0.2c0.3,1.4,0.8,2.6,0.8,2.6s1.6,2.7,1,5.2
		c-0.5,2.5-1.6,3.5-1,6.5c0.5,2.3,0.7,6.4,0.4,8.5C52.4,409.5,55.2,406.7,56.4,403z"/>
</g>
<path class="st29" d="M56.9,407.6c-0.4,3.4-2.5,6.2,2.1,2.8c2.6-7,2.6-16.3-5.1-19.9l-5.3,6.4l7,4.3
	C55.6,401.2,57.4,403.6,56.9,407.6z"/>
<path class="st29" d="M36.6,392.9c0,0,2-3.6,5.8-3.7c2.1,0,3.7,2.8,5.6,3.4c1.9,0.6,3-0.3,2.9,3.1c-0.1,3.4-1.3,2.9-1.5,3.9
	s-0.4,4.2,0,4.3c0.4,0.2,1.3,0.2,1.3,0.2s-0.8-3.2,1.3-3c2.1,0.2,0.6,4.3-0.8,5.1c-1.3,0.8-0.5,2.5,2,1.8c2.5-0.8,4.1-4.5,4.2-7.4
	c0.1-3-0.8-9.2-4.3-11s-5.9-3.1-9.1-2.8c-3.2,0.3-6.2,2.5-6.2,2.5S34.7,393.3,36.6,392.9z"/>
<path class="st30" d="M39.9,388.1c0,0,13.6-1.5,14.2,10.5"/>
<g>
	<path class="st24" d="M50.7,403.7c0.1,1.2,0.7,2,1.4,2c0.8,0,1.4-1.2,1.4-2.6c0-0.7-0.2-1.4-0.4-1.9
		C51.5,401.5,50.9,402.6,50.7,403.7z"/>
	<path class="st22" d="M52.1,400.5c-0.8,0-1.4,1.2-1.4,2.6c0,0.2,0,0.4,0,0.6c0.2-1.1,0.8-2.2,2.4-2.4
		C52.8,400.8,52.5,400.5,52.1,400.5z"/>
</g>
<path class="st31" d="M-98.1,403.6"/>
<path class="st31" d="M-95.2,403.5"/>
<path class="st31" d="M-92.1,404.1"/>
<path class="st31" d="M-90.1,404.7"/>
<g>
	<path class="st32" d="M18.2,428.6L18.2,428.6c0.3-0.5,0.4-0.7,0.4-0.7S18.5,428.2,18.2,428.6C18.2,428.6,18.2,428.6,18.2,428.6
		L18.2,428.6z"/>
	<path class="st32" d="M18.2,428.6C18.2,428.6,18.2,428.6,18.2,428.6c0,0.1-0.1,0.2-0.1,0.3L18.2,428.6z"/>
	<path class="st33" d="M-58,429.1c-0.7,1.3-2,3.8-3.1,6.4c1.6-1.1,4.5-3.3,4.8-4.5c0.4-1.7,0.2-4,0.2-4l-1.8,1.8c0,0,0,0,0,0
		L-58,429.1z"/>
	<polygon class="st34" points="18.2,428.6 18.2,428.6 18.2,428.6 	"/>
</g>
<path class="st12" d="M38.5,406.4c0,0,4.2,1.5,6.4-0.3c2.1-1.8,3.6,1.3,0.9,2.3C43,409.4,37.9,409.8,38.5,406.4z"/>
<path class="st34" d="M-50.2,436c0,0,3.1,1.3,4.1,1.1c1-0.2-1.3,3.7-1.3,3.7s-3.3,0-4.8-2.3C-53.7,436.1-50.2,436-50.2,436z"/>
<path class="st25" d="M-62.5,442.5c0,0,3.5,9.8,1.8,9.8c-1.7,0-5.6-1.8-5.6-1.8l-0.7,3.4c0,0,5.8,3.7,8,2.1c2.3-1.6,3.1-2.6,3.2-3.6
	c0.1-1-1.9-5.6-1.9-5.6h6.7c0,0,2.3,5.2,1.1,4.9s-5.5-0.5-7.1-2.1c-1.6-1.6-1.2,2.6-1.2,2.6s12.2,5.5,12.7,0.5s-3.8-9-3.8-9
	L-62.5,442.5z"/>
<g>
	<path class="st0" d="M-51.7,423.9l0.1-2l-1.1,2.8c0.3,0.3,0.7,0.6,1.1,0.9C-51.6,424.8-51.7,423.9-51.7,423.9z"/>
	<path class="st1" d="M-52.8,424.7l-0.4,1c0,0,0.1,1,0.9,1.2c0.4,0.1,0.5-0.6,0.6-1.3C-52.1,425.3-52.5,425-52.8,424.7z"/>
</g>
<g>
	<path class="st1" d="M-55.4,418.3c-0.2-4.2,3.2-7.8,7.4-8c2.6-0.1,5,1.1,6.4,3.1c0,1.5,0.7,3.7-0.5,4.4c-1.8,0.9,0.3,1.8-0.3,3.7
		c-0.3,1-0.9,2.1-1.3,3c-1.1,0.7-2.4,1.1-3.8,1.2C-51.7,425.8-55.2,422.5-55.4,418.3z"/>
</g>
<path class="st35" d="M-44.5,411.9c0,0,0.5,0.4-0.8,0.5c-1.3,0-1.2-1-2.5-1c-1.3,0-4.3-0.2-4.8,1.9s1.2,3.7,1.1,4.4
	c-0.1,0.6-0.5,2.7-0.7,2.7s-0.8-0.1-0.8-0.1s1-1.8-0.3-2.1s-1.1,2.6-0.4,3.3s-0.1,1.7-1.5,0.8c-1.4-0.9-1.8-3.5-1.3-5.3
	c0.4-1.9,2.1-5.6,4.5-6.1c2.5-0.6,5.6-0.7,7.5,0c1.9,0.7,2.7,2.1,2.7,2.1S-43.4,412.5-44.5,411.9z"/>
<path class="st34" d="M-65.3,452c0,0,0.5-2.5-1.8-2.7c-2.3-0.2-3.5,6.2-2.7,6.4c0.8,0.2,1,1.7,2.1,0.2
	C-66.5,454.3-67.6,452.1-65.3,452z"/>
<g>
	<path class="st11" d="M-57.9,428.8c0.2-0.4,0.4-0.6,0.4-0.7C-57.5,428.2-57.7,428.4-57.9,428.8z"/>
	<path class="st11" d="M-57.9,428.8c-0.7,1.1-2.1,3.5-4.3,6.3c-1.2,1.5-0.8,2.3,0.2,2.7c0.3-0.8,0.6-1.6,0.9-2.3
		c1.6-1.1,4.5-3.3,4.8-4.5c0.4-1.7,0.2-4,0.2-4L-57.9,428.8z"/>
	<path class="st32" d="M-58.2,442.3c0,0-0.4,0.3-3-0.3c-0.6-0.1-1.2,0-1.7-0.2c0,0.4-0.1,0.8,0,1.2c0.1,2.7,12.2,2,14.1,1.7
		c1.9-0.4-1.9-15.6-1.9-15.6s-0.1-3.2-3-3.3c0,0-3.8-3.8-8.6,2.9c-4.7,6.7-7,8.8-1.6,11.7c0.4,0.2,0.8,0.4,1.1,0.6
		c0.8,0.1,1.6,0.3,2.5,0.3c1.5,0.1,2.8-0.2,2.8-0.2l1.9,1.7 M-56.5,430.9c-0.3,1.2-3,3.5-4.7,4.6c-0.3,0.8-0.6,1.6-0.9,2.3
		c-1-0.4-1.4-1.2-0.2-2.7c2.2-2.8,3.7-5.2,4.3-6.3c0.2-0.4,0,0.1,0,0c0,0.1,0.2-0.4,0,0l1.8-1.8C-56.1,427.1-56.1,429.2-56.5,430.9z
		"/>
	<path class="st34" d="M-58.2,442.5c0,0,1.3,1.1,2.4,1c1.1-0.2,0-0.7,0-0.7l-2.1-2c0,0-0.9,0.5-2.4,0.4c-0.8-0.1-1.8-0.1-2.6-0.2
		c0,0,0,0,0,0c-0.1,0.3-0.1,0.6-0.1,0.8c0.5,0.2,1.1,0.4,1.6,0.5C-58.7,442.8-58.2,442.5-58.2,442.5z"/>
</g>
<polygon class="st36" points="-45.6,438.9 -55.4,439.3 -54,460.3 -29.3,471.1 -14,463.6 -38.6,453.9 -41.7,438.9 "/>
<g>
	<polygon class="st37" points="-30.8,456.8 -27,449.5 -24.4,454 	"/>
	<g>
		<polygon class="st38" points="-27,449.5 -38,445.7 -42.1,451.7 -30.8,456.8 		"/>
		<g>
			<polygon class="st21" points="-41.6,452 -40.6,460.6 -32,464.8 -31.6,464.6 -31.1,456.6 			"/>
			<polygon class="st37" points="-30.8,456.8 -31.1,456.6 -31.6,464.6 -26,462.2 -24.4,454 			"/>
		</g>
		<polygon class="st38" points="-27.4,450.3 -24.4,455 -24.1,454.7 -27,449.5 		"/>
		<path class="st39" d="M-29.7,463.8c0,0,0.5-5.3,2.1-5.2c1.6,0.1,0.6,4.1,0.6,4.1L-29.7,463.8z"/>
		
			<ellipse transform="matrix(0.9989 4.625932e-02 -4.625932e-02 0.9989 21.0259 1.7632)" class="st39" cx="-27.6" cy="455.2" rx="0.7" ry="1.4"/>
	</g>
</g>
<path class="st0" d="M-45.6,420.2c0.2-0.6-1.5,2.5-0.3,2.5c1.3,0,1.4,0,1.3-0.7C-44.7,421.3-45.9,421.3-45.6,420.2z"/>
<path class="st33" d="M-62,437.9c0,0,3.1,1.2,4.6,0.8c1.5-0.4,0.1,0.2-2.1-0.4S-62,437.9-62,437.9z"/>
<path class="st1" d="M-58.3,440.9c0,0,1,2.3,2.2,2.3s1.8,0.1,1.8-0.3c0-0.4,0.6-1.6,0.3-2s-2.9-0.2-2.6-1.2c0.3-0.9,0.3-1,0.3-1
	s-0.4-1.5-1-0.5C-57.8,439.2-58.3,440.9-58.3,440.9z"/>
<g>
	<path class="st0" d="M-44.8,438.5c0.4,0,0.7-0.2,0.8-0.5c-0.5,0.3-1.2,0.2-1.4,0.3C-45.2,438.4-45,438.5-44.8,438.5z"/>
	<path class="st1" d="M-44.8,437.2c-0.4,0-0.8,0.3-0.8,0.6c0,0.2,0.1,0.3,0.2,0.4c0.2-0.1,1,0,1.4-0.3c0,0,0-0.1,0-0.1
		C-44,437.5-44.3,437.2-44.8,437.2z"/>
</g>
<path class="st1" d="M-43.4,440.1c0,0.4-0.3,0.7-0.6,0.7c-0.3,0-0.6-0.3-0.6-0.7c0-0.4,0.3-0.7,0.6-0.7
	C-43.6,439.4-43.4,439.7-43.4,440.1z"/>
<path class="st1" d="M-44.2,440.1c0,0.4-0.3,0.7-0.6,0.7c-0.3,0-0.6-0.3-0.6-0.7c0-0.4,0.3-0.7,0.6-0.7
	C-44.5,439.4-44.2,439.7-44.2,440.1z"/>
<path class="st1" d="M-45.1,440.1c0,0.4-0.3,0.7-0.6,0.7c-0.3,0-0.6-0.3-0.6-0.7c0-0.4,0.3-0.7,0.6-0.7
	C-45.3,439.4-45.1,439.7-45.1,440.1z"/>
<polygon class="st6" points="-73.4,489.8 -133.1,489.4 -138.4,350.1 -79.5,350.1 "/>
<polygon class="st40" points="-133.7,375.5 -132.7,394.5 -81.3,394.5 -82.3,375.5 "/>
<polygon class="st40" points="-132.9,403.1 -131.9,422 -80.4,422 -81.4,403.1 "/>
<polygon class="st40" points="-131.3,430.6 -130.3,449.6 -78.8,449.6 -79.9,430.6 "/>
<polygon class="st40" points="-129.9,458.2 -128.9,477.2 -77.4,477.2 -78.4,458.2 "/>
<path class="st35" d="M-52.2,411.8c0,0,0.6-0.5,3,2.1s3,3.4,5,2.6c2-0.7,2.2,1.2,2.8-0.6c0.6-1.8,2.1-3.9-3.3-5.1
	S-52.2,411.8-52.2,411.8z"/>
</svg>
