<?xml version="1.0" encoding="utf-8"?>
<!-- Generator: Adobe Illustrator 19.1.0, SVG Export Plug-In . SVG Version: 6.00 Build 0)  -->
<svg version="1.1" id="Layer_1" xmlns="http://www.w3.org/2000/svg" xmlns:xlink="http://www.w3.org/1999/xlink" x="0px" y="0px"
	 viewBox="44 -24.5 231.2 300.5" style="enable-background:new 44 -24.5 231.2 300.5;" xml:space="preserve">
<style type="text/css">
	.st0{fill:#E6EFC6;}
	.st1{fill:#67863A;}
	.st2{fill:#4D5E2B;}
	.st3{fill:#77A340;}
	.st4{fill:#D1E49E;}
	.st5{fill:#B3D56E;}
	.st6{fill:#8EC547;}
	.st7{enable-background:new    ;}
	.st8{fill:#535454;}
	.st9{fill:none;}
	.st10{fill:#030303;}
</style>
<rect x="44" y="-24.5" class="st0" width="231.2" height="300.5"/>
<g>
	<path class="st1" d="M91.5,195.2c0,0-3.8-22.3-2.4-27.4c1.4-5.2,15.2-21.5,15.2-21.5s15,15.1,15.4,17.7c0.3,2.6,5.2,34,1.7,33.5
		c-3.5-0.5-13.8,0.3-13.8,0.3L91.5,195.2z"/>
	<path class="st2" d="M191.6,171.1c0,0,7.3,4.2,19.9,5.6c12.5,1.4,21.5,1.1,21.5,1.1s3,0,0-5.8c-3-5.8-30.8-12.2-34.6-9.9
		C194.8,164.5,191.6,171.1,191.6,171.1z"/>
	<polygon class="st2" points="86,173.7 103.5,147.5 123.6,168.8 124.5,166.4 103.5,141.9 85.4,170.9 	"/>
	<path class="st2" d="M98.9,194.1c0,0-4.4-24.1,7.4-26.2c11.7-2.1,9.9,26.4,9.9,26.4L98.9,194.1z"/>
	<path class="st3" d="M191.6,197.3l4.1-30c0,0,6.5-4.6,19-3.2c12.5,1.3,16.6,9.3,16.6,9.3l-4.6,25.8h-26.2L191.6,197.3z"/>
	<path class="st1" d="M200.6,199.3c0,0-1.8-31,10.8-26.8c12.5,4.2,2.9,27.9,2.9,27.9L200.6,199.3z"/>
	<g>
		<path class="st4" d="M172.6,200.5l-13.8,2.6l-31.7-7.9l-7.1-1.3c-3.2,0.9-6.5,2-9.5,3.8c-7,4.1-13.1,9.3-17.9,14.2
			c10.1,9.9,29.2,18.9,65.4,18.9c6,0,11.6-0.3,16.7-0.7C167.5,221.5,161.7,209.8,172.6,200.5z"/>
		<path class="st5" d="M110.5,197.7c3-1.8,6.3-3,9.5-3.8l-38.6-7c0,0-0.9,13.1,11.1,24.9C97.4,206.9,103.5,201.6,110.5,197.7z"/>
		<path class="st5" d="M243.5,186.9l-71,13.6c-11,9.4-5,21,2.1,29.6C238.7,224.3,243.5,186.9,243.5,186.9z"/>
	</g>
	<path class="st2" d="M134.9,193.7c0,0-3.4-7.5-8.8-3.5c-5.5,4.1-0.5,7.8,2.6,9.1c3.1,1.4,11.6,0.6,11.6,0.6l-0.6-4.1L134.9,193.7z"
		/>
	<path class="st6" d="M151.3,169.9l-16.8,22.9c0,0,4.6,5.3,6.2,3.7c1.5-1.5,13.6-23.9,13.6-23.9h4.9c0,0-0.3,14.3,6.3,16.1
		c6.5,1.8,15.9-6.6,15.9-6.6l-2.5-5.2c0,0-6.6,6.4-10.5,6.3c-3.7-0.1-4.1-9.8-1.9-14.2C168.8,164.8,151.3,169.9,151.3,169.9z"/>
	<path class="st3" d="M150.3,143.5c0,0-2,18-5.9,19.4c-2,0.7-3.6,0-3.6,0l1.9,4.4c0,0,11.6,1.3,12.8-10.4
		c1.2-11.6-2.1-13.3-2.1-13.3L150.3,143.5L150.3,143.5L150.3,143.5L150.3,143.5z"/>
	<path class="st3" d="M153.2,137.5c0,0-0.3,4.4,1.3,4.4c1.5,0,3.8,0.1,2.9-2c-0.9-2-2.9-3.4-2.9-3.4L153.2,137.5z"/>
	<path class="st2" d="M142.6,108.4c0,0-0.9,1.5-2,3.7c0.5-0.3,1.1-0.6,1.7-0.8L142.6,108.4z"/>
	<path class="st2" d="M141.3,115.3c-3.6,3-3.4,7.8-3.4,8.2c0,0.4,6.8-2.6,7.4-4.7c0.6-2,1.9-3.2,5.5-3.6c3.7-0.3-0.9,1.4-0.6,3.6
		c0.3,2,2,2.9,2,2.9s-0.3-4.1,1.7-4.1c1.9,0,2.6,6.5,0.9,7.3c-1.7,0.8,4.9-1.8,4.9-4.8c0-3.1,0.3-6.1-1.3-6.1s-8.2-2.9-11.3-2.6
		C144,111.5,141.3,115.3,141.3,115.3z"/>
	<path class="st1" d="M150.3,143.5c0,0,4.9-4.3,11.1-4.3c6.1,0,8.8,10.1,8.8,15.9s-4.6,17.2-4.6,17.2s-7.6-3-14.2-2.3
		c-6.5,0.8,0-16.2,0-16.2S154.6,143.8,150.3,143.5z"/>
	<path class="st3" d="M161.2,139.2c0,0,5.4,6.8,5.3,12.8c-0.1,6-11.4,10.5-14.6,10.8s-5.2-0.7-5.2-0.7v-5.3c0,0,12.8,2,14.4-3.6
		c1.7-5.5-2.9-11.4-2.9-11.4s-0.9-1.4,0.6-2.5C160.4,138.5,161.2,139.2,161.2,139.2z"/>
	<circle class="st5" cx="144.3" cy="157.4" r="4.1"/>
	<path class="st2" d="M181.3,182.2c0,0,4.6,5.9,7.2,4.6c4.8-2.1,0-6.3,0-6.3l-5.5-6.8l-4.1,3.2L181.3,182.2z"/>
	<g>
		<path class="st5" d="M157.6,129.6c-0.3-7-4.4-15-4.4-15l-1.7-4.6c-0.9-0.3-2-0.3-3-0.3c-2.3,0-4.6,0.5-6.5,1.4
			c-0.6,0.3-1.1,0.6-1.7,0.8c-2,4-4.8,9.9-4.2,12.8c0.9,3.7,2.4,6,2,11l0,0c2.6,2.6,6.3,4.1,10.4,4.1c1.5,0,3-0.3,4.4-0.7
			C155,137.5,157.9,134.2,157.6,129.6z"/>
		<path class="st6" d="M163.6,124.9c0-7.3-5.2-13.3-12.2-14.8l1.7,4.6c0,0,4.1,7.9,4.4,15c0.3,4.6-2.5,7.8-4.6,9.6
			C159,137.4,163.6,131.6,163.6,124.9z"/>
	</g>
	<path class="st2" d="M142.5,110.3c0,0-3.8,0.6-5.2,2.9c-1.3,2.1-0.3,3.6-3.2,4.4c-3,0.8,4,2.5,9-1.4c5.2-3.8,7.3-1.5,8.5-1.4
		c1.3,0.1,2-0.6,5.6,2c3.7,2.5-2.9,1.5,0.3,4.6c3.2,3,1.4,5,1.4,5s2.9,1.4,0.9,3.8c-1.9,2.4,0.9,2.1,0.9,2.1s4.4-0.9,4.4-6.6
		c0-5.7-4.1-9.6-4.1-9.6s1.8-4.1-2.9-5.8c-4.6-1.8-5.6-1.4-7.3-3.8c-1.8-2.5-0.3,2.1-0.3,2.1s-2-0.5-4-1.7c-1.9-1.2,0.3,1.9,0.3,1.9
		S144.4,108.1,142.5,110.3z"/>
	<g>
		<path class="st1" d="M141,161.2l-5.2-13.8c-0.3-0.6-0.9-1.1-1.4-1.1l-5,16.7c0.3,0.3,0.9,0.7,1.5,0.6l9.4-1.2
			c0.3,0,0.5-0.1,0.7-0.3C141.2,161.9,141.2,161.4,141,161.2z"/>
		<path class="st3" d="M134,146.3l-8.5,1.3c-0.3,0-0.5,0.1-0.7,0.3c-0.1,0.3-0.1,0.6,0,0.9l4.3,13.7c0.1,0.3,0.3,0.3,0.3,0.6l5-16.7
			C134.3,146.3,134.1,146.3,134,146.3z"/>
	</g>
	<path class="st5" d="M131.1,164.4c0,0,1.3,3,4.3,3c3,0.1,7.1,0,7.1,0l-1.9-4.4c0,0-4.6,1.9-4,0s0.9-2.1-0.3-2.1s-1.2,1.4-1.2,1.4
		s0.3-1.4-0.5-1.4c-0.9-0.1-1.3,1.3-1.3,1.3s0.9-1.4-0.3-1.7c-1.3-0.3-1.4,1.4-1.4,1.4S130.9,161,131.1,164.4z"/>
	<g>
		<path class="st6" d="M134.8,145.2l-8.5,1.3c-0.7,0.1-1.3,0.7-1.4,1.3c0.3-0.1,0.3-0.3,0.7-0.3l8.5-1.3c0.3,0,0.3,0,0.5,0
			L134.8,145.2L134.8,145.2z"/>
		<path class="st3" d="M141.8,160.1l-5.2-13.8c-0.3-0.9-0.9-1.2-1.8-1.1l-0.3,1.1c0.6,0.1,1.2,0.5,1.4,1.1l5.2,13.8
			c0.1,0.3,0.1,0.7,0.1,0.9C141.8,161.8,142.1,160.9,141.8,160.1z"/>
	</g>
	<path class="st1" d="M191.6,171.1c0,0,12.2-7.9,21-6.1c8.9,1.8,13.2,2.7,15.9,6.1c2.6,3.4,4.4,6.7,4.4,6.7s1.4,0.9,3.2-1.4
		c1.8-2.3-0.3-14.4-6.3-20.4c-6-6.1-22.1-9.5-31-0.8s-11.3,14.2-10.8,15C188.4,170.9,191.6,171.1,191.6,171.1z"/>
</g>
<g class="st7">
	<path class="st8" d="M84.8,18.3v2.6c-1-0.6-2-0.9-3.1-0.9c-0.4,0-0.8,0.1-1,0.3c-0.3,0.3-0.3,0.4-0.3,0.8c0,0.3,0.2,0.6,0.4,0.9
		c0.3,0.3,0.8,0.4,1.4,0.8c0.3,0.2,0.7,0.3,0.9,0.4c0.3,0.2,0.5,0.3,0.8,0.5c0.3,0.3,0.6,0.4,0.8,0.7s0.3,0.5,0.4,0.9
		c0.2,0.3,0.3,0.8,0.3,1.2c0,1.1-0.3,2-1.2,2.7c-0.8,0.7-1.9,1-3.2,1c-1.4,0-2.6-0.3-3.6-0.8v-2.8c1.1,0.8,2.3,1.2,3.6,1.2
		c0.4,0,0.8-0.1,1-0.3c0.3-0.3,0.4-0.5,0.4-0.9c0-0.2,0-0.3-0.1-0.3c0-0.1-0.1-0.3-0.3-0.3c-0.1,0.1-0.3,0-0.3-0.1
		c-0.1-0.1-0.3-0.2-0.3-0.3c-0.1-0.1-0.3-0.2-0.4-0.3c-0.1-0.1-0.3-0.2-0.5-0.3c-0.2-0.1-0.4-0.3-0.6-0.3c-0.8-0.3-1.4-0.8-1.9-1.4
		c-0.4-0.5-0.8-1.2-0.8-2.1c0-1,0.3-1.9,1.1-2.6c0.8-0.7,1.8-1,3.2-1C83,17.7,84,17.9,84.8,18.3z"/>
	<path class="st8" d="M90.2,22.7V27c0,0.3,0.1,0.6,0.3,0.8c0.2,0.2,0.4,0.3,0.8,0.3c0.4,0,0.9-0.2,1.3-0.3v2.2
		c-0.5,0.2-1.1,0.3-1.9,0.3c-2.1,0-3.1-1-3.1-3.1v-4.2h-1.4v-2h1.4v-2.2h2.6v2.2h2.1v2H90.2L90.2,22.7z"/>
	<path class="st8" d="M101.4,27.3v2.2c-0.6,0.3-1.6,0.6-2.9,0.6c-1.5,0-2.7-0.4-3.6-1.3c-0.8-0.9-1.3-2-1.3-3.4
		c0-1.4,0.3-2.6,1.2-3.5c0.8-0.9,1.8-1.3,3.1-1.3c1.2,0,2.2,0.3,3,1c0.8,0.7,1,1.8,1,3.2c0,0.3-0.1,0.8-0.2,1.4h-5.4
		c0.2,0.5,0.5,0.9,1,1.2c0.5,0.3,1,0.4,1.6,0.4C99.9,28.1,100.7,27.8,101.4,27.3z M99.5,24.6v-0.3c-0.1-1-0.5-1.6-1.4-1.6
		c-0.4,0-0.9,0.2-1.1,0.4c-0.3,0.3-0.5,0.8-0.7,1.4L99.5,24.6L99.5,24.6z"/>
	<path class="st8" d="M106.6,20.8v1.4c0.7-1,1.6-1.5,2.8-1.5c1.2,0,2.1,0.4,2.9,1.3c0.8,0.9,1,2,1,3.4c0,1.4-0.3,2.5-1,3.4
		c-0.7,0.9-1.7,1.4-2.9,1.4c-1.3,0-2.2-0.5-2.8-1.5v4.8H104V20.8H106.6L106.6,20.8z M108.6,28c0.6,0,1-0.3,1.4-0.7
		c0.3-0.4,0.5-1,0.5-1.8c0-0.9-0.2-1.4-0.5-1.9c-0.3-0.4-0.8-0.7-1.4-0.7c-0.5,0-1,0.3-1.4,0.6c-0.3,0.4-0.6,1-0.6,1.8
		c0,0.8,0.3,1.4,0.6,1.9C107.5,27.7,108,28,108.6,28z"/>
	<path class="st8" d="M122.8,27.8h4.2v2.3h-8v-2c1.3-0.9,2.5-1.9,3.5-3.1c1-1,1.5-2,1.5-2.9c0-0.5-0.2-0.9-0.4-1.2
		c-0.3-0.3-0.8-0.4-1.4-0.4c-1,0-2,0.3-3,1.1v-2.5c0.3-0.3,0.9-0.5,1.6-0.8s1.3-0.3,1.9-0.3c1.2,0,2.2,0.3,3,1
		c0.8,0.7,1.1,1.6,1.1,2.7C126.8,23.7,125.5,25.8,122.8,27.8z"/>
	<path class="st8" d="M128.9,29.7c-0.3-0.3-0.4-0.7-0.4-1.1c0-0.4,0.2-0.8,0.4-1.1c0.3-0.3,0.7-0.4,1.1-0.4s0.9,0.2,1.1,0.4
		c0.3,0.3,0.4,0.7,0.4,1.1c0,0.4-0.2,0.9-0.4,1.1s-0.7,0.4-1.1,0.4S129.2,30,128.9,29.7z"/>
</g>
<g>
	<rect x="77.3" y="43.3" class="st9" width="165" height="103.2"/>
	<g class="st7">
		<path class="st10" d="M83.1,43.9v0.8c-0.3-0.2-0.5-0.3-0.9-0.3c-0.3,0-0.5-0.1-0.9-0.1c-0.8,0-1.4,0.3-1.8,0.8
			c-0.4,0.5-0.8,1.2-0.8,2c0,0.8,0.3,1.5,0.8,2c0.4,0.5,1.1,0.8,2,0.8c0.7,0,1.2-0.2,1.7-0.5v0.9c-0.4,0.3-1,0.4-1.8,0.4
			c-1,0-1.9-0.3-2.5-1c-0.6-0.6-1-1.5-1-2.5s0.3-1.9,1-2.5c0.7-0.7,1.4-1,2.5-1C81.9,43.5,82.6,43.7,83.1,43.9z"/>
		<path class="st10" d="M86.3,50.6c-0.8,0-1.3-0.3-1.8-0.8c-0.4-0.5-0.7-1.1-0.7-1.9c0-0.8,0.3-1.4,0.7-1.9c0.4-0.5,1-0.8,1.8-0.8
			s1.4,0.3,1.8,0.8c0.4,0.5,0.6,1.1,0.6,1.9c0,0.8-0.3,1.4-0.7,1.9C87.6,50.3,87,50.6,86.3,50.6z M86.3,46c-0.4,0-0.8,0.2-1.1,0.6
			c-0.3,0.3-0.3,0.8-0.3,1.4s0.2,1,0.4,1.4c0.3,0.3,0.7,0.5,1.1,0.5c0.5,0,0.9-0.2,1.2-0.5c0.3-0.3,0.3-0.9,0.3-1.4
			c0-0.6-0.2-1-0.3-1.4C87.2,46.2,86.9,46,86.3,46z"/>
		<path class="st10" d="M90.7,45.3v0.9c0.3-0.6,0.8-0.9,1.4-0.9c0.8,0,1.3,0.3,1.5,1c0.2-0.3,0.3-0.6,0.6-0.8
			c0.3-0.2,0.5-0.3,0.9-0.3c0.5,0,0.9,0.2,1.2,0.4c0.3,0.3,0.3,0.7,0.3,1.2v3.7h-0.8v-3.3c0-0.8-0.3-1.1-1-1.1
			c-0.3,0-0.6,0.2-0.9,0.4c-0.3,0.3-0.3,0.7-0.3,1.2v2.8h-0.8v-3.3c0-0.8-0.3-1.1-1-1.1c-0.3,0-0.6,0.2-0.9,0.4
			c-0.3,0.3-0.3,0.7-0.3,1.2v2.8h-0.8v-5.2H90.7L90.7,45.3z"/>
		<path class="st10" d="M98.9,45.3v0.9c0.3-0.6,0.8-0.9,1.4-0.9c0.8,0,1.3,0.3,1.5,1c0.2-0.3,0.3-0.6,0.6-0.8
			c0.3-0.2,0.5-0.3,0.9-0.3c0.5,0,0.9,0.2,1.2,0.4c0.3,0.3,0.3,0.7,0.3,1.2v3.7h-0.9v-3.3c0-0.8-0.3-1.1-1-1.1
			c-0.3,0-0.6,0.2-0.9,0.4c-0.3,0.3-0.3,0.7-0.3,1.2v2.8H101v-3.3c0-0.8-0.3-1.1-1-1.1c-0.3,0-0.6,0.2-0.9,0.4
			c-0.3,0.3-0.3,0.7-0.3,1.2v2.8h-0.8v-5.2H98.9L98.9,45.3z"/>
		<path class="st10" d="M109.7,45.3h0.8v5.2h-0.8v-0.9c-0.3,0.6-0.8,1-1.6,1c-0.5,0-0.9-0.2-1.2-0.4c-0.3-0.3-0.4-0.7-0.4-1.2v-3.6
			h0.8v3.3c0,0.3,0.1,0.7,0.3,0.8c0.2,0.3,0.4,0.3,0.8,0.3c0.4,0,0.8-0.2,1-0.4c0.3-0.3,0.3-0.7,0.3-1.2L109.7,45.3L109.7,45.3z"/>
		<path class="st10" d="M112.8,45.3v0.9c0.3-0.6,0.8-1,1.6-1c0.5,0,0.9,0.2,1.2,0.4c0.3,0.3,0.4,0.7,0.4,1.2v3.7h-0.9v-3.3
			c0-0.3-0.1-0.7-0.3-0.9c-0.3-0.3-0.4-0.3-0.8-0.3c-0.3,0-0.7,0.2-1,0.4c-0.3,0.3-0.4,0.7-0.4,1.2v2.9h-0.8v-5.2H112.8L112.8,45.3z
			"/>
		<path class="st10" d="M117.6,44.1c-0.1-0.1-0.2-0.3-0.2-0.3c0-0.2,0.1-0.3,0.2-0.3c0.1-0.1,0.3-0.2,0.3-0.2c0.2,0,0.3,0.1,0.3,0.2
			s0.2,0.3,0.2,0.3c0,0.2-0.1,0.3-0.2,0.3c-0.1,0.1-0.3,0.2-0.3,0.2S117.6,44.2,117.6,44.1z M117.6,50.5v-5.2h0.8v5.2H117.6z"/>
		<path class="st10" d="M121,46v3.1c0,0.5,0.3,0.9,0.8,0.9c0.3,0,0.5-0.1,0.7-0.3v0.8c-0.2,0.1-0.4,0.1-0.8,0.1
			c-1,0-1.5-0.5-1.5-1.5v-3h-0.8v-0.7h0.8v-1.3h0.8v1.3h1.4V46H121L121,46L121,46z"/>
		<path class="st10" d="M125,50.3l-2-5h0.9l0.7,1.7l0.9,2.4c0.1-0.2,0.3-1,0.8-2.4l0.6-1.7h0.9l-1.8,5c-0.3,0.7-0.6,1.2-0.9,1.4
			c-0.3,0.3-0.8,0.4-1.2,0.4c-0.2,0-0.3,0-0.4-0.1v-0.8c0.1,0,0.3,0.1,0.3,0.1C124.3,51.5,124.8,51.1,125,50.3z"/>
		<path class="st10" d="M132.4,50.5l-1.8-5.2h0.9l0.7,2.2l0.8,2.4c0.1-0.3,0.3-1,0.8-2.4l0.8-2.2h0.9l-1.9,5.2H132.4z"/>
		<path class="st10" d="M138.3,50.6c-0.8,0-1.3-0.3-1.8-0.8c-0.4-0.5-0.7-1.1-0.7-1.9c0-0.8,0.3-1.4,0.7-1.9c0.4-0.5,1-0.8,1.8-0.8
			s1.4,0.3,1.8,0.8c0.4,0.5,0.6,1.1,0.6,1.9c0,0.8-0.3,1.4-0.7,1.9C139.6,50.3,139.1,50.6,138.3,50.6z M138.3,46
			c-0.4,0-0.9,0.2-1.1,0.6c-0.3,0.3-0.3,0.8-0.3,1.4s0.2,1,0.4,1.4c0.3,0.3,0.7,0.5,1.1,0.5c0.5,0,0.9-0.2,1.2-0.5
			c0.3-0.3,0.3-0.9,0.3-1.4c0-0.6-0.2-1-0.3-1.4C139.2,46.2,138.9,46,138.3,46z"/>
		<path class="st10" d="M142,50.5v-7.2h0.8v7.2H142z"/>
		<path class="st10" d="M147.5,45.3h0.9v5.2h-0.9v-0.9c-0.3,0.6-0.9,1-1.6,1c-0.5,0-0.9-0.2-1.2-0.4c-0.3-0.3-0.4-0.7-0.4-1.2v-3.6
			h0.8v3.3c0,0.3,0.1,0.7,0.3,0.8c0.2,0.3,0.4,0.3,0.8,0.3c0.4,0,0.8-0.2,1-0.4c0.3-0.3,0.3-0.7,0.3-1.2L147.5,45.3L147.5,45.3z"/>
		<path class="st10" d="M150.5,45.3v0.9c0.3-0.6,0.8-1,1.6-1c0.5,0,0.9,0.2,1.2,0.4c0.3,0.3,0.4,0.7,0.4,1.2v3.7h-0.9v-3.3
			c0-0.3-0.1-0.7-0.3-0.9c-0.3-0.3-0.4-0.3-0.8-0.3s-0.7,0.2-1,0.4c-0.3,0.3-0.4,0.7-0.4,1.2v2.9h-0.8v-5.2H150.5L150.5,45.3z"/>
		<path class="st10" d="M156.3,46v3.1c0,0.5,0.3,0.9,0.8,0.9c0.3,0,0.5-0.1,0.7-0.3v0.8c-0.3,0.2-0.4,0.2-0.8,0.2
			c-1,0-1.5-0.5-1.5-1.5v-3h-0.9v-0.7h0.9v-1.3h0.8v1.3h1.4v0.7L156.3,46L156.3,46z"/>
		<path class="st10" d="M162.8,49.5v0.8c-0.3,0.3-0.9,0.3-1.4,0.3c-0.8,0-1.4-0.3-1.9-0.7c-0.4-0.4-0.7-1.1-0.7-1.9
			c0-0.8,0.3-1.4,0.6-2c0.4-0.4,1-0.7,1.7-0.7c0.6,0,1.1,0.3,1.5,0.6c0.3,0.3,0.6,1,0.6,1.8c0,0.3,0,0.3-0.1,0.6h-3.5
			c0.1,0.5,0.3,0.9,0.6,1.1c0.3,0.3,0.8,0.3,1.3,0.3C161.9,49.8,162.4,49.8,162.8,49.5z M162.3,47.5v-0.3c0-0.4-0.2-0.8-0.3-1
			c-0.2-0.3-0.5-0.3-1-0.3c-0.3,0-0.7,0.2-1,0.3c-0.3,0.3-0.4,0.7-0.4,1.2L162.3,47.5L162.3,47.5z"/>
		<path class="st10" d="M168.1,49.5v0.8c-0.3,0.3-0.9,0.3-1.4,0.3c-0.8,0-1.4-0.3-1.9-0.7c-0.4-0.4-0.7-1.1-0.7-1.9
			c0-0.8,0.3-1.4,0.6-2s1-0.7,1.7-0.7c0.6,0,1.1,0.3,1.5,0.6c0.3,0.3,0.6,1,0.6,1.8c0,0.3,0,0.3-0.1,0.6H165
			c0.1,0.5,0.3,0.9,0.6,1.1c0.3,0.3,0.8,0.3,1.3,0.3C167.3,49.8,167.7,49.8,168.1,49.5z M167.5,47.5v-0.3c0-0.4-0.2-0.8-0.3-1
			c-0.2-0.3-0.5-0.3-1-0.3c-0.3,0-0.7,0.2-1,0.3c-0.3,0.3-0.4,0.7-0.4,1.2L167.5,47.5L167.5,47.5z"/>
		<path class="st10" d="M170.3,45.3v0.9c0.3-0.6,0.8-1,1.4-1c0.2,0,0.3,0,0.3,0V46c-0.2-0.1-0.3-0.1-0.4-0.1c-0.3,0-0.7,0.2-0.9,0.5
			c-0.3,0.3-0.3,0.7-0.3,1.1v2.8h-0.8v-5.2L170.3,45.3L170.3,45.3z"/>
		<path class="st10" d="M175.8,45.5v0.8c-0.3-0.2-0.8-0.3-1.3-0.3c-0.3,0-0.4,0.1-0.7,0.2c-0.2,0.2-0.3,0.3-0.3,0.4
			c0,0.2,0,0.3,0.1,0.3s0.2,0.2,0.3,0.3c0.2,0.1,0.3,0.2,0.3,0.2c0.1,0,0.3,0.1,0.4,0.2c0.4,0.2,0.8,0.3,1,0.6
			c0.3,0.3,0.3,0.5,0.3,0.9s-0.2,0.8-0.4,1c-0.3,0.3-0.8,0.3-1.3,0.3c-0.6,0-1.1-0.1-1.5-0.3v-0.8c0.4,0.3,0.9,0.3,1.4,0.3
			c0.3,0,0.5-0.1,0.7-0.2c0.2-0.2,0.3-0.3,0.3-0.5s-0.1-0.4-0.3-0.6c-0.2-0.2-0.4-0.3-0.9-0.4c-0.3-0.2-0.7-0.3-0.9-0.5
			c-0.3-0.3-0.3-0.5-0.3-0.9s0.2-0.8,0.4-1c0.3-0.3,0.8-0.3,1.2-0.3C175,45.2,175.4,45.3,175.8,45.5z"/>
		<path class="st10" d="M179.7,46.4v-0.8c0.3-0.3,0.9-0.3,1.5-0.3c1.3,0,2,0.7,2,2v3.2h-0.8v-0.6c-0.3,0.4-0.8,0.7-1.4,0.7
			c-0.4,0-0.9-0.2-1.1-0.4c-0.3-0.3-0.4-0.6-0.4-1c0-0.5,0.2-0.9,0.5-1.1c0.3-0.3,0.9-0.3,1.5-0.3h0.9v-0.3c0-0.3-0.1-0.7-0.3-0.9
			c-0.2-0.3-0.4-0.3-0.9-0.3C180.6,46,180.2,46.1,179.7,46.4z M182.4,48.1h-0.9c-0.4,0-0.8,0.1-1,0.3c-0.3,0.2-0.3,0.3-0.3,0.6
			c0,0.3,0.1,0.4,0.3,0.6c0.2,0.2,0.3,0.3,0.8,0.3c0.3,0,0.7-0.1,0.9-0.3c0.3-0.3,0.3-0.4,0.3-0.8V48.1z"/>
		<path class="st10" d="M188,43.3h0.9v7.2H188v-0.8c-0.3,0.5-0.9,0.8-1.6,0.8c-0.7,0-1.2-0.3-1.6-0.8c-0.3-0.5-0.6-1.1-0.6-1.8
			c0-0.8,0.3-1.4,0.6-2c0.3-0.5,0.9-0.8,1.6-0.8s1.2,0.3,1.6,0.9V43.3z M186.6,49.8c0.4,0,0.8-0.2,1-0.4c0.3-0.3,0.4-0.9,0.4-1.5
			c0-0.7-0.2-1.1-0.4-1.4s-0.6-0.4-1-0.4c-0.4,0-0.8,0.2-1,0.5c-0.3,0.3-0.4,0.8-0.4,1.4c0,0.5,0.2,1,0.3,1.4
			C185.8,49.7,186.2,49.8,186.6,49.8z"/>
		<path class="st10" d="M193.8,43.3h0.9v7.2h-0.9v-0.8c-0.3,0.5-0.9,0.8-1.6,0.8c-0.7,0-1.2-0.3-1.6-0.8c-0.3-0.5-0.6-1.1-0.6-1.8
			c0-0.8,0.3-1.4,0.6-2s0.9-0.8,1.6-0.8c0.7,0,1.2,0.3,1.6,0.9V43.3z M192.3,49.8c0.4,0,0.8-0.2,1-0.4c0.3-0.3,0.4-0.9,0.4-1.5
			c0-0.7-0.2-1.1-0.4-1.4c-0.3-0.3-0.6-0.4-1-0.4s-0.8,0.2-1,0.5c-0.3,0.3-0.4,0.8-0.4,1.4c0,0.5,0.2,1,0.3,1.4
			C191.6,49.7,191.9,49.8,192.3,49.8z"/>
		<path class="st10" d="M198.6,50.5v-7.2h0.9v7.2H198.6z"/>
		<path class="st10" d="M203,50.6c-0.8,0-1.3-0.3-1.8-0.8c-0.4-0.5-0.6-1.1-0.6-1.9c0-0.8,0.3-1.4,0.7-1.9c0.4-0.5,1-0.8,1.8-0.8
			c0.8,0,1.4,0.3,1.8,0.8c0.4,0.5,0.6,1.1,0.6,1.9c0,0.8-0.3,1.4-0.7,1.9S203.8,50.6,203,50.6z M203,46c-0.4,0-0.9,0.2-1.1,0.6
			c-0.3,0.3-0.3,0.8-0.3,1.4s0.2,1,0.4,1.4c0.3,0.3,0.7,0.5,1.1,0.5c0.5,0,0.9-0.2,1.2-0.5c0.3-0.3,0.3-0.9,0.3-1.4
			c0-0.6-0.2-1-0.3-1.4C204,46.2,203.7,46,203,46z"/>
		<path class="st10" d="M207.1,48c0,0.5,0.2,1,0.5,1.4c0.3,0.3,0.8,0.5,1.4,0.5c0.3,0,0.8-0.1,1-0.3v0.8c-0.3,0.3-0.8,0.3-1.2,0.3
			c-0.8,0-1.4-0.3-2-0.8c-0.4-0.5-0.7-1.1-0.7-1.9c0-0.8,0.3-1.4,0.7-1.9c0.4-0.5,1.1-0.8,2-0.8c0.4,0,0.9,0.1,1.2,0.3v0.8
			c-0.3-0.3-0.7-0.3-1-0.3c-0.6,0-1,0.2-1.4,0.5C207.5,46.9,207.1,47.4,207.1,48z"/>
		<path class="st10" d="M211.6,46.4v-0.8c0.3-0.3,0.9-0.3,1.5-0.3c1.3,0,2,0.7,2,2v3.2h-0.8v-0.6c-0.3,0.4-0.8,0.7-1.4,0.7
			c-0.4,0-0.9-0.2-1.1-0.4c-0.3-0.3-0.4-0.6-0.4-1c0-0.5,0.2-0.9,0.5-1.1c0.3-0.3,0.9-0.3,1.5-0.3h0.9v-0.3c0-0.3-0.1-0.7-0.3-0.9
			c-0.2-0.3-0.4-0.3-0.9-0.3C212.5,46,212,46.1,211.6,46.4z M214.3,48.1h-0.9c-0.4,0-0.8,0.1-1,0.3c-0.3,0.2-0.3,0.3-0.3,0.6
			c0,0.3,0.1,0.4,0.3,0.6c0.2,0.2,0.3,0.3,0.8,0.3s0.7-0.1,0.9-0.3c0.3-0.3,0.3-0.4,0.3-0.8V48.1z"/>
		<path class="st10" d="M216.5,50.5v-7.2h0.8v7.2H216.5z"/>
	</g>
	<g class="st7">
		<path class="st10" d="M81.5,55.5h0.9v7.2h-0.9V62c-0.3,0.5-0.9,0.8-1.6,0.8s-1.2-0.3-1.6-0.8c-0.3-0.5-0.6-1.1-0.6-1.8
			c0-0.8,0.3-1.4,0.6-2c0.3-0.5,0.9-0.8,1.6-0.8s1.2,0.3,1.6,0.9V55.5z M80.1,62.1c0.4,0,0.8-0.2,1-0.4c0.3-0.3,0.4-0.9,0.4-1.5
			c0-0.7-0.2-1.1-0.4-1.4c-0.3-0.3-0.6-0.5-0.9-0.5c-0.4,0-0.8,0.2-1,0.5c-0.3,0.3-0.4,0.9-0.4,1.4c0,0.5,0.2,1,0.3,1.4
			C79.2,61.9,79.7,62.1,80.1,62.1z"/>
		<path class="st10" d="M87.6,61.7v0.8c-0.3,0.3-0.9,0.3-1.4,0.3c-0.8,0-1.4-0.3-1.9-0.7c-0.4-0.5-0.7-1.2-0.7-2
			c0-0.8,0.3-1.4,0.6-2c0.4-0.4,1-0.7,1.7-0.7c0.6,0,1.1,0.3,1.5,0.6c0.3,0.3,0.6,1,0.6,1.8c0,0.3,0,0.3-0.1,0.6h-3.6
			c0.1,0.5,0.3,0.9,0.6,1.1c0.3,0.3,0.8,0.3,1.3,0.3C86.9,62.1,87.3,61.9,87.6,61.7z M87.1,59.8v-0.3c0-0.4-0.2-0.8-0.3-1
			c-0.3-0.3-0.5-0.3-1-0.3c-0.3,0-0.7,0.2-1,0.3c-0.3,0.3-0.4,0.7-0.4,1.2L87.1,59.8L87.1,59.8z"/>
		<path class="st10" d="M90.3,58.2v3.1c0,0.5,0.3,0.9,0.8,0.9c0.3,0,0.5-0.1,0.7-0.3v0.8c-0.3,0.2-0.4,0.2-0.8,0.2
			c-1,0-1.5-0.5-1.5-1.5v-3.1h-0.8v-0.7h0.8v-1.3h0.8v1.3h1.4v0.7H90.3z"/>
		<path class="st10" d="M93,58.7v-0.8c0.3-0.3,0.9-0.3,1.5-0.3c1.3,0,2,0.7,2,2v3.2h-0.8v-0.6c-0.3,0.4-0.8,0.7-1.4,0.7
			c-0.4,0-0.8-0.2-1.1-0.4c-0.3-0.3-0.4-0.6-0.4-1c0-0.5,0.2-0.9,0.5-1.1c0.3-0.2,0.9-0.3,1.5-0.3h0.9v-0.3c0-0.3-0.1-0.7-0.3-0.9
			c-0.2-0.3-0.4-0.3-0.9-0.3C93.9,58.2,93.4,58.3,93,58.7z M95.6,60.3h-0.9c-0.4,0-0.8,0.1-1,0.3c-0.3,0.2-0.3,0.3-0.3,0.6
			c0,0.3,0.1,0.4,0.3,0.6c0.2,0.2,0.3,0.3,0.8,0.3c0.4,0,0.7-0.1,0.9-0.3c0.3-0.3,0.3-0.4,0.3-0.8V60.3z"/>
		<path class="st10" d="M98,56.3c-0.1-0.1-0.2-0.3-0.2-0.3c0-0.2,0.1-0.3,0.2-0.3c0.1-0.1,0.3-0.2,0.3-0.2c0.2,0,0.3,0.1,0.3,0.2
			c0.2,0,0.2,0.2,0.2,0.3c0,0.2-0.1,0.3-0.2,0.3c-0.1,0.1-0.3,0.2-0.3,0.2C98.2,56.5,98.1,56.4,98,56.3z M97.9,62.7v-5.2h0.8v5.2
			H97.9z"/>
		<path class="st10" d="M100.3,62.7v-7.2h0.8v7.2H100.3z"/>
		<path class="st10" d="M108,57.7v0.8c-0.3-0.2-0.8-0.3-1.3-0.3c-0.3,0-0.4,0.1-0.7,0.2c-0.2,0.2-0.3,0.3-0.3,0.4
			c0,0.2,0,0.3,0.1,0.3s0.2,0.2,0.3,0.3c0.2,0.1,0.3,0.2,0.3,0.2s0.3,0.1,0.4,0.2c0.4,0.2,0.8,0.3,1,0.6c0.3,0.3,0.3,0.5,0.3,0.9
			c0,0.4-0.2,0.8-0.4,1c-0.3,0.3-0.8,0.3-1.3,0.3c-0.6,0-1.1-0.1-1.5-0.3v-0.8c0.4,0.3,0.9,0.3,1.4,0.3c0.3,0,0.5-0.1,0.7-0.2
			c0.2-0.2,0.3-0.3,0.3-0.5c0-0.3-0.1-0.4-0.3-0.6c-0.2-0.2-0.4-0.3-0.9-0.4c-0.3-0.2-0.7-0.3-0.9-0.5c-0.3-0.3-0.3-0.5-0.3-0.9
			c0-0.4,0.2-0.8,0.4-1c0.3-0.3,0.8-0.3,1.2-0.3C107.2,57.5,107.5,57.6,108,57.7z"/>
		<path class="st10" d="M112.5,57.6h0.8v5.2h-0.8v-0.9c-0.3,0.6-0.8,1-1.6,1c-0.5,0-0.9-0.2-1.2-0.4c-0.3-0.3-0.4-0.7-0.4-1.2v-3.6
			h0.8V61c0,0.3,0.1,0.7,0.3,0.8c0.2,0.3,0.4,0.3,0.8,0.3c0.4,0,0.8-0.2,1-0.4c0.3-0.3,0.3-0.7,0.3-1.2L112.5,57.6L112.5,57.6z"/>
		<path class="st10" d="M115.3,60.1c0,0.5,0.2,1,0.5,1.4c0.3,0.3,0.8,0.5,1.4,0.5c0.3,0,0.8-0.1,1-0.3v0.8c-0.3,0.3-0.8,0.3-1.2,0.3
			c-0.8,0-1.4-0.3-2-0.8c-0.4-0.5-0.7-1.1-0.7-1.9c0-0.8,0.3-1.4,0.7-1.9c0.4-0.5,1.1-0.8,2-0.8c0.4,0,0.8,0.1,1.2,0.3v0.8
			c-0.3-0.3-0.7-0.3-1-0.3c-0.6,0-1,0.2-1.4,0.5C115.4,59.1,115.3,59.5,115.3,60.1z"/>
		<path class="st10" d="M120.4,55.5v3c0.3-0.6,0.8-1,1.6-1c0.5,0,0.9,0.2,1.2,0.4c0.3,0.3,0.4,0.7,0.4,1.2v3.5h-0.8v-3.3
			c0-0.3-0.1-0.7-0.3-0.9c-0.3-0.2-0.4-0.3-0.8-0.3c-0.3,0-0.7,0.2-1,0.4c-0.3,0.3-0.4,0.7-0.4,1.2v2.8h-0.8v-7.2L120.4,55.5
			L120.4,55.5z"/>
		<path class="st10" d="M127.7,58.7v-0.8c0.3-0.3,0.9-0.3,1.5-0.3c1.3,0,2,0.7,2,2v3.2h-0.8v-0.6c-0.3,0.4-0.8,0.7-1.4,0.7
			c-0.4,0-0.9-0.2-1.1-0.4c-0.3-0.3-0.4-0.6-0.4-1c0-0.5,0.2-0.9,0.5-1.1c0.3-0.2,0.9-0.3,1.5-0.3h0.8v-0.3c0-0.3-0.1-0.7-0.3-0.9
			c-0.2-0.3-0.4-0.3-0.9-0.3C128.6,58.2,128,58.3,127.7,58.7z M130.3,60.3h-0.9c-0.4,0-0.8,0.1-1,0.3c-0.3,0.2-0.3,0.3-0.3,0.6
			c0,0.3,0.1,0.4,0.3,0.6c0.2,0.2,0.3,0.3,0.8,0.3s0.7-0.1,0.9-0.3c0.3-0.3,0.3-0.4,0.3-0.8C130.3,60.9,130.3,60.3,130.3,60.3z"/>
		<path class="st10" d="M135.3,57.7v0.8c-0.3-0.2-0.8-0.3-1.3-0.3c-0.3,0-0.4,0.1-0.7,0.2c-0.2,0.2-0.3,0.3-0.3,0.4
			c0,0.2,0,0.3,0.1,0.3c0.1,0.1,0.2,0.2,0.3,0.3c0.2,0.1,0.3,0.2,0.3,0.2c0.1,0,0.3,0.1,0.4,0.2c0.4,0.2,0.8,0.3,1,0.6
			c0.3,0.3,0.3,0.5,0.3,0.9c0,0.4-0.2,0.8-0.4,1c-0.3,0.3-0.8,0.3-1.3,0.3c-0.6,0-1.1-0.1-1.5-0.3v-0.8c0.4,0.3,0.9,0.3,1.4,0.3
			c0.3,0,0.5-0.1,0.7-0.2c0.2-0.2,0.3-0.3,0.3-0.5c0-0.3-0.1-0.4-0.3-0.6c-0.2-0.2-0.4-0.3-0.9-0.4c-0.3-0.2-0.7-0.3-0.9-0.5
			c-0.3-0.3-0.3-0.5-0.3-0.9c0-0.4,0.2-0.8,0.4-1c0.3-0.3,0.8-0.3,1.2-0.3C134.6,57.5,135,57.6,135.3,57.7z"/>
		<path class="st10" d="M139.9,57.6v0.9c0.3-0.6,0.8-1,1.6-1c0.5,0,0.9,0.2,1.2,0.4c0.3,0.3,0.4,0.7,0.4,1.2v3.6h-0.9v-3.3
			c0-0.3-0.1-0.7-0.3-0.9c-0.3-0.3-0.4-0.3-0.8-0.3s-0.7,0.2-1,0.4c-0.3,0.3-0.4,0.7-0.4,1.2v2.8H139v-5.2h0.9V57.6z"/>
		<path class="st10" d="M148.4,61.7v0.8c-0.3,0.3-0.9,0.3-1.4,0.3c-0.8,0-1.4-0.3-1.9-0.7s-0.7-1.1-0.7-1.9c0-0.8,0.3-1.4,0.6-2
			c0.4-0.4,1-0.7,1.7-0.7c0.6,0,1.1,0.3,1.5,0.6c0.3,0.3,0.6,1,0.6,1.8c0,0.3,0,0.3-0.1,0.6h-3.5c0.1,0.5,0.3,0.9,0.6,1.1
			c0.3,0.3,0.8,0.3,1.3,0.3C147.6,62.1,148.1,61.9,148.4,61.7z M147.9,59.8v-0.3c0-0.4-0.2-0.8-0.3-1c-0.3-0.3-0.5-0.3-1-0.3
			c-0.3,0-0.7,0.2-1,0.3c-0.3,0.3-0.4,0.7-0.4,1.2L147.9,59.8L147.9,59.8z"/>
		<path class="st10" d="M150,56.3c-0.1-0.1-0.2-0.3-0.2-0.3c0-0.2,0.1-0.3,0.2-0.3c0.1-0.1,0.3-0.2,0.3-0.2c0.2,0,0.3,0.1,0.3,0.2
			s0.2,0.3,0.2,0.3c0,0.2-0.1,0.3-0.2,0.3c-0.1,0.1-0.3,0.2-0.3,0.2C150.3,56.5,150.1,56.4,150,56.3z M150,62.7v-5.2h0.8v5.2H150z"
			/>
		<path class="st10" d="M155.6,57.6h0.9v4.7c0,0.8-0.3,1.4-0.7,1.8c-0.4,0.3-1,0.6-1.7,0.6c-0.6,0-1.1-0.1-1.6-0.3v-0.9
			c0.4,0.3,0.9,0.3,1.5,0.3c0.5,0,0.9-0.2,1.1-0.3c0.3-0.3,0.4-0.7,0.4-1.2v-0.6c-0.3,0.6-0.9,0.9-1.5,0.9c-0.6,0-1-0.3-1.5-0.7
			c-0.3-0.4-0.6-1-0.6-1.8c0-0.8,0.3-1.4,0.6-1.9c0.3-0.5,0.9-0.8,1.5-0.8c0.7,0,1.2,0.3,1.5,0.9L155.6,57.6L155.6,57.6z
			 M154.3,61.8c0.3,0,0.7-0.2,1-0.4c0.3-0.3,0.4-0.7,0.4-1.3c0-0.7-0.2-1.1-0.3-1.4c-0.3-0.3-0.6-0.4-1-0.4c-0.4,0-0.8,0.2-1,0.5
			c-0.3,0.3-0.3,0.8-0.3,1.4c0,0.6,0.2,1,0.4,1.3C153.6,61.7,153.9,61.8,154.3,61.8z"/>
		<path class="st10" d="M158.7,55.5v3c0.3-0.6,0.9-1,1.6-1c0.5,0,0.9,0.2,1.2,0.4c0.3,0.3,0.4,0.7,0.4,1.2v3.5h-0.9v-3.3
			c0-0.3-0.1-0.7-0.3-0.9c-0.3-0.3-0.4-0.3-0.8-0.3c-0.3,0-0.7,0.2-1,0.4c-0.3,0.3-0.4,0.7-0.4,1.2v2.8h-0.8v-7.2L158.7,55.5
			L158.7,55.5z"/>
		<path class="st10" d="M164.2,55.5v2.8c0.3-0.5,0.9-0.9,1.6-0.9c0.7,0,1.2,0.3,1.6,0.8s0.6,1.1,0.6,2c0,0.8-0.3,1.4-0.6,1.8
			c-0.3,0.5-0.9,0.8-1.6,0.8c-0.7,0-1.2-0.3-1.6-0.8v0.8h-0.9v-7.2L164.2,55.5L164.2,55.5z M165.8,62.1c0.3,0,0.8-0.2,1-0.5
			c0.3-0.3,0.3-0.8,0.3-1.4s-0.2-1.1-0.4-1.4c-0.3-0.3-0.6-0.5-1-0.5c-0.3,0-0.7,0.2-1,0.4c-0.3,0.3-0.4,0.8-0.4,1.4
			c0,0.7,0.2,1.2,0.4,1.5C165,61.9,165.3,62.1,165.8,62.1z"/>
		<path class="st10" d="M171.3,62.8c-0.8,0-1.3-0.3-1.8-0.8s-0.7-1.1-0.7-1.9c0-0.8,0.3-1.4,0.7-1.9c0.4-0.5,1-0.8,1.8-0.8
			s1.4,0.3,1.8,0.8c0.4,0.5,0.6,1.1,0.6,1.9c0,0.8-0.3,1.4-0.7,1.9S172,62.8,171.3,62.8z M171.3,58.2c-0.4,0-0.9,0.2-1.1,0.6
			c-0.3,0.4-0.3,0.8-0.3,1.4c0,0.5,0.2,1,0.4,1.4c0.3,0.3,0.7,0.5,1.1,0.5c0.5,0,0.9-0.2,1.2-0.5c0.3-0.3,0.3-0.8,0.3-1.4
			c0-0.6-0.2-1-0.3-1.4C172.4,58.3,171.8,58.2,171.3,58.2z"/>
		<path class="st10" d="M175.7,57.6v0.9c0.3-0.6,0.8-1,1.4-1c0.2,0,0.3,0,0.3,0v0.8c-0.2-0.1-0.3-0.1-0.4-0.1
			c-0.3,0-0.7,0.2-0.9,0.5s-0.3,0.7-0.3,1.1v2.8h-0.9v-5.2L175.7,57.6L175.7,57.6z"/>
		<path class="st10" d="M179,55.5v3c0.3-0.6,0.9-1,1.6-1c0.5,0,0.9,0.2,1.2,0.4c0.3,0.3,0.4,0.7,0.4,1.2v3.5h-0.9v-3.3
			c0-0.3-0.1-0.7-0.3-0.9c-0.3-0.3-0.4-0.3-0.8-0.3c-0.3,0-0.7,0.2-1,0.4c-0.3,0.3-0.4,0.7-0.4,1.2v2.8h-0.8v-7.2L179,55.5L179,55.5
			z"/>
		<path class="st10" d="M185.8,62.8c-0.8,0-1.3-0.3-1.8-0.8s-0.6-1.1-0.6-1.9c0-0.8,0.3-1.4,0.7-1.9c0.4-0.5,1-0.8,1.8-0.8
			c0.8,0,1.4,0.3,1.8,0.8c0.4,0.5,0.6,1.1,0.6,1.9c0,0.8-0.3,1.4-0.7,1.9C187.2,62.6,186.6,62.8,185.8,62.8z M185.8,58.2
			c-0.4,0-0.9,0.2-1.1,0.6c-0.3,0.3-0.3,0.8-0.3,1.4c0,0.5,0.2,1,0.4,1.4c0.3,0.3,0.7,0.5,1.1,0.5c0.5,0,0.9-0.2,1.2-0.5
			c0.3-0.3,0.3-0.8,0.3-1.4c0-0.6-0.2-1-0.3-1.4C186.7,58.3,186.3,58.2,185.8,58.2z"/>
		<path class="st10" d="M191.5,62.8c-0.8,0-1.3-0.3-1.8-0.8c-0.5-0.5-0.6-1.1-0.6-1.9c0-0.8,0.3-1.4,0.7-1.9c0.4-0.5,1-0.8,1.8-0.8
			s1.4,0.3,1.8,0.8c0.4,0.5,0.6,1.1,0.6,1.9c0,0.8-0.3,1.4-0.7,1.9C192.9,62.6,192.3,62.8,191.5,62.8z M191.5,58.2
			c-0.4,0-0.8,0.2-1.1,0.6c-0.3,0.3-0.3,0.8-0.3,1.4c0,0.5,0.2,1,0.4,1.4c0.3,0.3,0.7,0.5,1.1,0.5c0.5,0,0.9-0.2,1.2-0.5
			c0.3-0.3,0.3-0.8,0.3-1.4c0-0.6-0.2-1-0.3-1.4C192.4,58.3,192,58.2,191.5,58.2z"/>
		<path class="st10" d="M198.6,55.5h0.9v7.2h-0.9V62c-0.3,0.5-0.9,0.8-1.6,0.8c-0.7,0-1.2-0.3-1.6-0.8c-0.3-0.5-0.6-1.1-0.6-1.8
			c0-0.8,0.3-1.4,0.6-2c0.3-0.5,0.9-0.8,1.6-0.8s1.2,0.3,1.6,0.9V55.5z M197.1,62.1c0.4,0,0.8-0.2,1-0.4c0.3-0.3,0.4-0.9,0.4-1.5
			c0-0.7-0.2-1.1-0.4-1.4c-0.3-0.3-0.6-0.4-1-0.4c-0.4,0-0.8,0.2-1,0.5c-0.3,0.3-0.4,0.8-0.4,1.4c0,0.5,0.2,1,0.3,1.4
			C196.4,61.9,196.6,62.1,197.1,62.1z"/>
		<path class="st10" d="M203.7,57.7v0.8c-0.3-0.2-0.8-0.3-1.3-0.3c-0.3,0-0.4,0.1-0.7,0.2c-0.2,0.2-0.3,0.3-0.3,0.4
			c0,0.2,0,0.3,0.1,0.3c0.1,0.1,0.2,0.2,0.3,0.3c0.2,0.1,0.3,0.2,0.3,0.2s0.3,0.1,0.4,0.2c0.4,0.2,0.8,0.3,1,0.6
			c0.3,0.3,0.3,0.5,0.3,0.9c0,0.4-0.2,0.8-0.4,1c-0.3,0.3-0.8,0.3-1.3,0.3c-0.6,0-1.1-0.1-1.5-0.3v-0.8c0.4,0.3,0.9,0.3,1.4,0.3
			c0.3,0,0.5-0.1,0.7-0.2c0.2-0.2,0.3-0.3,0.3-0.5c0-0.3-0.1-0.4-0.3-0.6c-0.2-0.2-0.4-0.3-0.9-0.4c-0.3-0.2-0.7-0.3-0.9-0.5
			c-0.3-0.3-0.3-0.5-0.3-0.9c0-0.4,0.2-0.8,0.4-1c0.3-0.3,0.8-0.3,1.2-0.3C202.9,57.5,203.3,57.6,203.7,57.7z"/>
		<path class="st10" d="M204.3,63.9l0.9-2.3h1l-1.3,2.3H204.3z"/>
		<path class="st10" d="M212.7,57.7v0.8c-0.3-0.2-0.8-0.3-1.3-0.3c-0.3,0-0.4,0.1-0.7,0.2c-0.2,0.2-0.3,0.3-0.3,0.4
			c0,0.2,0,0.3,0.1,0.3c0.1,0.1,0.2,0.2,0.3,0.3c0.2,0.1,0.3,0.2,0.3,0.2c0.1,0,0.3,0.1,0.4,0.2c0.4,0.2,0.8,0.3,1,0.6
			c0.3,0.3,0.3,0.5,0.3,0.9c0,0.4-0.2,0.8-0.4,1c-0.3,0.3-0.8,0.3-1.3,0.3c-0.6,0-1.1-0.1-1.5-0.3v-0.8c0.4,0.3,0.9,0.3,1.4,0.3
			c0.3,0,0.5-0.1,0.7-0.2c0.2-0.2,0.3-0.3,0.3-0.5c0-0.3-0.1-0.4-0.3-0.6c-0.2-0.2-0.4-0.3-0.9-0.4c-0.3-0.2-0.7-0.3-0.9-0.5
			c-0.3-0.3-0.3-0.5-0.3-0.9c0-0.4,0.2-0.8,0.4-1c0.3-0.3,0.8-0.3,1.2-0.3C211.9,57.5,212.2,57.6,212.7,57.7z"/>
		<path class="st10" d="M215.1,58.2v3.1c0,0.5,0.3,0.9,0.8,0.9c0.3,0,0.5-0.1,0.7-0.3v0.8c-0.3,0.2-0.4,0.2-0.8,0.2
			c-1,0-1.5-0.5-1.5-1.5v-3.1h-0.9v-0.7h0.9v-1.3h0.8v1.3h1.4v0.7H215.1z"/>
		<path class="st10" d="M218.5,57.6v0.9c0.3-0.6,0.8-1,1.4-1c0.2,0,0.3,0,0.3,0v0.8c-0.2-0.1-0.3-0.1-0.4-0.1
			c-0.3,0-0.7,0.2-0.9,0.5c-0.3,0.3-0.3,0.7-0.3,1.1v2.8h-0.9v-5.2L218.5,57.6L218.5,57.6z"/>
		<path class="st10" d="M224.8,61.7v0.8c-0.3,0.3-0.9,0.3-1.4,0.3c-0.8,0-1.4-0.3-1.9-0.7s-0.7-1.1-0.7-1.9c0-0.8,0.3-1.4,0.6-2
			s1-0.7,1.7-0.7c0.6,0,1.1,0.3,1.5,0.6c0.3,0.3,0.6,1,0.6,1.8c0,0.3,0,0.3-0.1,0.6h-3.5c0.1,0.5,0.3,0.9,0.6,1.1
			c0.3,0.3,0.8,0.3,1.3,0.3C224.1,62.1,224.5,61.9,224.8,61.7z M224.3,59.8v-0.3c0-0.4-0.2-0.8-0.3-1c-0.3-0.3-0.5-0.3-1-0.3
			c-0.3,0-0.7,0.2-1,0.3c-0.3,0.3-0.4,0.7-0.4,1.2L224.3,59.8L224.3,59.8z"/>
		<path class="st10" d="M230.1,61.7v0.8c-0.3,0.3-0.9,0.3-1.4,0.3c-0.8,0-1.4-0.3-1.9-0.7s-0.7-1.1-0.7-1.9c0-0.8,0.3-1.4,0.6-2
			c0.3-0.5,1-0.7,1.7-0.7c0.6,0,1.1,0.3,1.5,0.6c0.3,0.3,0.6,1,0.6,1.8c0,0.3,0,0.3-0.1,0.6H227c0.1,0.5,0.3,0.9,0.6,1.1
			c0.3,0.3,0.8,0.3,1.3,0.3C229.3,62.1,229.8,61.9,230.1,61.7z M229.7,59.8v-0.3c0-0.4-0.2-0.8-0.3-1c-0.3-0.3-0.5-0.3-1-0.3
			c-0.3,0-0.7,0.2-1,0.3c-0.3,0.3-0.4,0.7-0.4,1.2L229.7,59.8L229.7,59.8z"/>
		<path class="st10" d="M232.7,58.2v3.1c0,0.5,0.3,0.9,0.8,0.9c0.3,0,0.5-0.1,0.7-0.3v0.8c-0.3,0.2-0.4,0.2-0.8,0.2
			c-1,0-1.5-0.5-1.5-1.5v-3.1H231v-0.7h0.8v-1.3h0.9v1.3h1.4v0.7H232.7z"/>
	</g>
	<g class="st7">
		<path class="st10" d="M78.9,69.7v0.9c0.3-0.6,0.8-1,1.6-1c0.5,0,0.9,0.2,1.2,0.4c0.3,0.3,0.4,0.7,0.4,1.2v3.6h-0.8v-3.3
			c0-0.3-0.1-0.7-0.3-0.8c-0.3-0.3-0.4-0.3-0.8-0.3c-0.3,0-0.7,0.2-1,0.4c-0.3,0.3-0.4,0.7-0.4,1.2v2.8h-0.8v-5.2h0.9V69.7z"/>
		<path class="st10" d="M83.6,70.7v-0.9c0.3-0.3,0.9-0.3,1.5-0.3c1.3,0,2,0.7,2,2v3.2h-0.8v-0.6c-0.3,0.4-0.8,0.7-1.4,0.7
			c-0.4,0-0.8-0.2-1.1-0.4c-0.3-0.3-0.4-0.6-0.4-1c0-0.5,0.2-0.9,0.5-1.1c0.3-0.3,0.9-0.3,1.5-0.3h0.9v-0.3c0-0.3-0.1-0.7-0.3-0.9
			c-0.2-0.3-0.4-0.3-0.9-0.3C84.7,70.4,84.1,70.6,83.6,70.7z M86.4,72.5h-0.9c-0.4,0-0.8,0.1-1,0.3c-0.3,0.2-0.3,0.3-0.3,0.6
			c0,0.3,0.1,0.4,0.3,0.6s0.3,0.3,0.8,0.3c0.3,0,0.7-0.1,0.9-0.3c0.3-0.3,0.3-0.4,0.3-0.8C86.4,73.1,86.4,72.5,86.4,72.5z"/>
		<path class="st10" d="M89.3,69.7v0.8c0.3-0.6,0.8-0.9,1.4-0.9c0.8,0,1.3,0.3,1.5,1c0.2-0.3,0.3-0.6,0.6-0.8
			c0.3-0.2,0.5-0.3,0.9-0.3c0.5,0,0.9,0.2,1.2,0.4c0.3,0.3,0.3,0.7,0.3,1.2v3.6h-0.8v-3.3c0-0.8-0.3-1.1-1-1.1
			c-0.3,0-0.6,0.2-0.9,0.4c-0.3,0.3-0.3,0.7-0.3,1.2v2.8h-0.9v-3.3c0-0.8-0.3-1.1-1-1.1c-0.3,0-0.6,0.2-0.9,0.4
			c-0.3,0.3-0.3,0.7-0.3,1.2v2.8h-0.8v-5.2L89.3,69.7L89.3,69.7z"/>
		<path class="st10" d="M100.6,73.9v0.8c-0.3,0.3-0.9,0.3-1.4,0.3c-0.8,0-1.4-0.3-1.9-0.7c-0.4-0.4-0.7-1.1-0.7-1.9
			c0-0.8,0.3-1.4,0.6-2c0.4-0.4,1-0.7,1.7-0.7c0.6,0,1.1,0.3,1.5,0.6c0.3,0.3,0.6,1,0.6,1.8c0,0.3,0,0.3-0.1,0.6h-3.5
			c0.1,0.5,0.3,0.9,0.6,1.1c0.3,0.3,0.8,0.3,1.3,0.3C99.8,74.2,100.3,74.1,100.6,73.9z M100.2,72v-0.3c0-0.4-0.2-0.8-0.3-1
			c-0.3-0.3-0.5-0.3-1-0.3c-0.3,0-0.7,0.2-1,0.3c-0.3,0.3-0.4,0.7-0.4,1.2L100.2,72L100.2,72z"/>
		<path class="st10" d="M105,69.9v0.8c-0.3-0.2-0.8-0.3-1.3-0.3c-0.3,0-0.4,0.1-0.7,0.2c-0.2,0.2-0.3,0.3-0.3,0.4
			c0,0.1,0,0.3,0.1,0.3s0.2,0.2,0.3,0.3c0.2,0.1,0.3,0.2,0.3,0.2s0.3,0.1,0.4,0.2c0.4,0.2,0.8,0.3,1,0.6c0.3,0.3,0.3,0.5,0.3,0.9
			c0,0.4-0.2,0.8-0.4,1c-0.3,0.3-0.8,0.3-1.3,0.3c-0.6,0-1.1-0.1-1.5-0.3v-0.8c0.4,0.3,0.9,0.3,1.4,0.3c0.3,0,0.5-0.1,0.7-0.2
			c0.2-0.2,0.3-0.3,0.3-0.5s-0.1-0.4-0.3-0.6c-0.2-0.2-0.4-0.3-0.9-0.4c-0.3-0.2-0.7-0.3-0.9-0.5c-0.3-0.3-0.3-0.5-0.3-0.9
			c0-0.4,0.2-0.8,0.4-1c0.3-0.3,0.8-0.3,1.2-0.3C104.2,69.6,104.6,69.7,105,69.9z"/>
		<path class="st10" d="M105.6,76.1l0.9-2.3h1l-1.3,2.3H105.6z"/>
		<path class="st10" d="M111.3,70.7v-0.9c0.3-0.3,0.9-0.3,1.5-0.3c1.3,0,2,0.7,2,2v3.2H114v-0.6c-0.3,0.4-0.8,0.7-1.4,0.7
			c-0.4,0-0.9-0.2-1.1-0.4c-0.3-0.3-0.4-0.6-0.4-1c0-0.5,0.2-0.9,0.5-1.1c0.3-0.3,0.9-0.3,1.5-0.3h0.9v-0.3c0-0.3-0.1-0.7-0.3-0.9
			c-0.2-0.3-0.4-0.3-0.9-0.3C112.2,70.4,111.6,70.6,111.3,70.7z M113.9,72.5H113c-0.4,0-0.8,0.1-1,0.3c-0.3,0.2-0.3,0.3-0.3,0.6
			c0,0.3,0.1,0.4,0.3,0.6s0.3,0.3,0.8,0.3c0.4,0,0.7-0.1,0.9-0.3c0.3-0.3,0.3-0.4,0.3-0.8V72.5z"/>
		<path class="st10" d="M116.9,69.7v0.9c0.3-0.6,0.8-1,1.6-1c0.5,0,0.9,0.2,1.2,0.4c0.3,0.3,0.4,0.7,0.4,1.2v3.6h-0.8v-3.3
			c0-0.3-0.1-0.7-0.3-0.8c-0.3-0.3-0.4-0.3-0.8-0.3c-0.3,0-0.7,0.2-1,0.4c-0.3,0.3-0.4,0.7-0.4,1.2v2.8h-0.8v-5.2h0.9V69.7z"/>
		<path class="st10" d="M125,67.7h0.8v7.2H125v-0.8c-0.3,0.5-0.9,0.8-1.6,0.8c-0.7,0-1.2-0.3-1.6-0.8c-0.3-0.5-0.6-1.1-0.6-1.8
			c0-0.8,0.3-1.4,0.6-2c0.3-0.5,0.9-0.8,1.6-0.8c0.7,0,1.2,0.3,1.6,0.8V67.7z M123.6,74.2c0.4,0,0.8-0.2,1-0.4
			c0.3-0.3,0.4-0.8,0.4-1.5c0-0.7-0.2-1.1-0.4-1.4c-0.3-0.3-0.6-0.4-1-0.4c-0.4,0-0.8,0.2-1,0.5c-0.3,0.3-0.4,0.8-0.4,1.4
			c0,0.5,0.2,1,0.3,1.4C122.7,74.1,123.2,74.2,123.6,74.2z"/>
		<path class="st10" d="M133.5,73.9v0.8c-0.3,0.3-0.9,0.3-1.4,0.3c-0.8,0-1.4-0.3-1.9-0.7c-0.4-0.4-0.7-1.1-0.7-1.9
			c0-0.8,0.3-1.4,0.6-2c0.4-0.4,1-0.7,1.7-0.7c0.6,0,1.1,0.3,1.5,0.6c0.3,0.3,0.6,1,0.6,1.8c0,0.3,0,0.3-0.1,0.6h-3.5
			c0.1,0.5,0.3,0.9,0.6,1.1c0.3,0.3,0.8,0.3,1.3,0.3C132.9,74.2,133.3,74.1,133.5,73.9z M133.1,72v-0.3c0-0.4-0.2-0.8-0.3-1
			c-0.3-0.3-0.5-0.3-1-0.3c-0.3,0-0.7,0.2-1,0.3c-0.3,0.3-0.4,0.7-0.4,1.2L133.1,72L133.1,72z"/>
		<path class="st10" d="M136.4,74.9l-1.8-5.2h0.8l0.7,2.2l0.8,2.4c0.1-0.3,0.3-1,0.8-2.4l0.8-2.2h0.9l-1.8,5.2H136.4z"/>
		<path class="st10" d="M140.4,70.7v-0.9c0.3-0.3,0.9-0.3,1.5-0.3c1.3,0,2,0.7,2,2v3.2h-0.8v-0.6c-0.3,0.4-0.8,0.7-1.4,0.7
			c-0.4,0-0.9-0.2-1.1-0.4c-0.3-0.3-0.4-0.6-0.4-1c0-0.5,0.2-0.9,0.5-1.1c0.3-0.3,0.9-0.3,1.5-0.3h0.8v-0.3c0-0.3-0.1-0.7-0.3-0.9
			c-0.2-0.3-0.4-0.3-0.9-0.3C141.4,70.4,140.8,70.6,140.4,70.7z M143.1,72.5h-0.9c-0.4,0-0.8,0.1-1,0.3c-0.3,0.2-0.3,0.3-0.3,0.6
			c0,0.3,0.1,0.4,0.3,0.6s0.3,0.3,0.8,0.3c0.3,0,0.7-0.1,0.9-0.3c0.3-0.3,0.3-0.4,0.3-0.8C143.1,73.1,143.1,72.5,143.1,72.5z"/>
		<path class="st10" d="M145.8,72.3c0,0.5,0.2,1,0.5,1.4s0.9,0.5,1.4,0.5c0.3,0,0.8-0.1,1-0.3v0.8c-0.3,0.3-0.8,0.3-1.2,0.3
			c-0.8,0-1.4-0.3-2-0.8c-0.4-0.5-0.7-1.1-0.7-1.9s0.3-1.4,0.7-1.9s1.1-0.8,2-0.8c0.4,0,0.9,0.1,1.2,0.3v0.8c-0.3-0.3-0.7-0.3-1-0.3
			c-0.6,0-1,0.2-1.4,0.5C145.9,71.3,145.8,71.8,145.8,72.3z"/>
		<path class="st10" d="M153.3,69.7h0.9v5.2h-0.9V74c-0.3,0.6-0.8,1-1.6,1c-0.5,0-0.9-0.2-1.2-0.4c-0.3-0.3-0.4-0.7-0.4-1.2v-3.6
			h0.8v3.3c0,0.3,0.1,0.7,0.3,0.9c0.2,0.3,0.4,0.3,0.8,0.3c0.4,0,0.8-0.2,1-0.4c0.3-0.3,0.3-0.7,0.3-1.2L153.3,69.7L153.3,69.7z"/>
		<path class="st10" d="M155.6,70.7v-0.9c0.3-0.3,0.9-0.3,1.5-0.3c1.3,0,2,0.7,2,2v3.2h-0.8v-0.6c-0.3,0.4-0.8,0.7-1.4,0.7
			c-0.4,0-0.9-0.2-1.1-0.4c-0.3-0.3-0.4-0.6-0.4-1c0-0.5,0.2-0.9,0.5-1.1c0.3-0.3,0.9-0.3,1.5-0.3h0.9v-0.3c0-0.3-0.1-0.7-0.3-0.9
			c-0.2-0.3-0.4-0.3-0.9-0.3C156.6,70.4,156.1,70.6,155.6,70.7z M158.4,72.5h-0.9c-0.4,0-0.8,0.1-1,0.3c-0.3,0.2-0.3,0.3-0.3,0.6
			c0,0.3,0.1,0.4,0.3,0.6c0.2,0.2,0.3,0.3,0.8,0.3s0.7-0.1,0.9-0.3c0.3-0.3,0.3-0.4,0.3-0.8C158.4,73.1,158.4,72.5,158.4,72.5z"/>
		<path class="st10" d="M161.7,70.4v3.1c0,0.5,0.3,0.8,0.8,0.8c0.3,0,0.5-0.1,0.7-0.3v0.8c-0.3,0.2-0.4,0.2-0.8,0.2
			c-1,0-1.5-0.5-1.5-1.5v-3H160v-0.7h0.8v-1.3h0.9v1.3h1.4v0.7L161.7,70.4L161.7,70.4z"/>
		<path class="st10" d="M164.4,68.5c-0.1-0.1-0.2-0.3-0.2-0.3c0-0.2,0.1-0.3,0.2-0.3c0.1-0.1,0.3-0.2,0.3-0.2c0.2,0,0.3,0.1,0.3,0.2
			c0.1,0.1,0.2,0.3,0.2,0.3c0,0.2-0.1,0.3-0.2,0.3c-0.1,0.1-0.3,0.2-0.3,0.2C164.6,68.6,164.5,68.6,164.4,68.5z M164.3,74.9v-5.2
			h0.9v5.2H164.3z"/>
		<path class="st10" d="M168.7,75c-0.8,0-1.3-0.3-1.8-0.8c-0.5-0.5-0.6-1.1-0.6-1.9c0-0.8,0.3-1.4,0.7-1.9c0.4-0.5,1-0.8,1.8-0.8
			s1.4,0.3,1.8,0.8c0.4,0.5,0.6,1.1,0.6,1.9c0,0.8-0.3,1.4-0.7,1.9C170.1,74.7,169.5,75,168.7,75z M168.7,70.4
			c-0.4,0-0.9,0.2-1.1,0.6c-0.3,0.3-0.3,0.9-0.3,1.4c0,0.5,0.2,1,0.4,1.4c0.3,0.3,0.7,0.5,1.1,0.5c0.5,0,0.9-0.2,1.2-0.5
			c0.3-0.3,0.3-0.8,0.3-1.4c0-0.6-0.2-1-0.3-1.4C169.7,70.6,169.3,70.4,168.7,70.4z"/>
		<path class="st10" d="M173.2,69.7v0.9c0.3-0.6,0.9-1,1.6-1c0.5,0,0.9,0.2,1.2,0.4c0.3,0.3,0.4,0.7,0.4,1.2v3.6h-0.9v-3.3
			c0-0.3-0.1-0.7-0.3-0.8c-0.3-0.3-0.4-0.3-0.8-0.3s-0.7,0.2-1,0.4c-0.3,0.3-0.4,0.7-0.4,1.2v2.8h-0.8v-5.2h0.9V69.7z"/>
		<path class="st10" d="M180.9,72.3c0,0.5,0.2,1,0.5,1.4c0.3,0.3,0.9,0.5,1.4,0.5c0.3,0,0.8-0.1,1-0.3v0.8c-0.3,0.3-0.8,0.3-1.2,0.3
			c-0.8,0-1.4-0.3-1.9-0.8c-0.4-0.5-0.7-1.1-0.7-1.9s0.3-1.4,0.7-1.9s1.1-0.8,2-0.8c0.4,0,0.9,0.1,1.2,0.3v0.8
			c-0.3-0.3-0.7-0.3-1-0.3c-0.6,0-1,0.2-1.4,0.5C181,71.3,180.9,71.8,180.9,72.3z"/>
		<path class="st10" d="M188.9,73.9v0.8c-0.3,0.3-0.9,0.3-1.4,0.3c-0.8,0-1.4-0.3-1.9-0.7c-0.4-0.4-0.7-1.1-0.7-1.9
			c0-0.8,0.3-1.4,0.6-2s1-0.7,1.7-0.7c0.6,0,1.1,0.3,1.5,0.6c0.3,0.3,0.6,1,0.6,1.8c0,0.3,0,0.3-0.1,0.6h-3.5
			c0.1,0.5,0.3,0.9,0.6,1.1c0.3,0.3,0.8,0.3,1.3,0.3C188,74.2,188.5,74.1,188.9,73.9z M188.4,72v-0.3c0-0.4-0.2-0.8-0.3-1
			c-0.3-0.3-0.5-0.3-1-0.3c-0.3,0-0.7,0.2-1,0.3c-0.3,0.3-0.4,0.7-0.4,1.2L188.4,72L188.4,72z"/>
		<path class="st10" d="M191.2,69.7v0.9c0.3-0.6,0.9-1,1.6-1c0.5,0,0.9,0.2,1.2,0.4c0.3,0.3,0.4,0.7,0.4,1.2v3.6h-0.9v-3.3
			c0-0.3-0.1-0.7-0.3-0.8c-0.3-0.3-0.4-0.3-0.8-0.3s-0.7,0.2-1,0.4c-0.3,0.3-0.4,0.7-0.4,1.2v2.8h-0.8v-5.2h0.9V69.7z"/>
		<path class="st10" d="M197,70.4v3.1c0,0.5,0.3,0.8,0.8,0.8c0.3,0,0.5-0.1,0.7-0.3v0.8c-0.3,0.2-0.4,0.2-0.8,0.2
			c-1,0-1.5-0.5-1.5-1.5v-3h-0.8v-0.7h0.8v-1.3h0.9v1.3h1.4v0.7L197,70.4L197,70.4z"/>
		<path class="st10" d="M203.4,73.9v0.8c-0.3,0.3-0.9,0.3-1.4,0.3c-0.8,0-1.4-0.3-1.9-0.7c-0.4-0.4-0.7-1.1-0.7-1.9
			c0-0.8,0.3-1.4,0.6-2s1-0.7,1.7-0.7c0.6,0,1.1,0.3,1.5,0.6c0.3,0.3,0.6,1,0.6,1.8c0,0.3,0,0.3-0.1,0.6h-3.5
			c0.1,0.5,0.3,0.9,0.6,1.1c0.3,0.3,0.8,0.3,1.3,0.3C202.6,74.2,203.1,74.1,203.4,73.9z M202.9,72v-0.3c0-0.4-0.2-0.8-0.3-1
			c-0.3-0.3-0.5-0.3-1-0.3c-0.3,0-0.7,0.2-1,0.3c-0.3,0.3-0.4,0.7-0.4,1.2L202.9,72L202.9,72z"/>
		<path class="st10" d="M205.8,69.7v0.9c0.3-0.6,0.8-1,1.4-1c0.2,0,0.3,0,0.3,0v0.8c-0.2-0.1-0.3-0.1-0.4-0.1
			c-0.3,0-0.7,0.2-0.9,0.5c-0.3,0.3-0.3,0.7-0.3,1.1v2.8h-0.9v-5.2L205.8,69.7L205.8,69.7z"/>
		<path class="st10" d="M211.1,69.9v0.8c-0.3-0.2-0.8-0.3-1.3-0.3c-0.3,0-0.4,0.1-0.7,0.2c-0.2,0.2-0.3,0.3-0.3,0.4
			c0,0.1,0,0.3,0.1,0.3s0.2,0.2,0.3,0.3c0.2,0.1,0.3,0.2,0.3,0.2c0.1,0,0.3,0.1,0.4,0.2c0.4,0.2,0.8,0.3,1,0.6
			c0.3,0.3,0.3,0.5,0.3,0.9c0,0.4-0.2,0.8-0.4,1c-0.3,0.3-0.8,0.3-1.3,0.3c-0.6,0-1.1-0.1-1.5-0.3v-0.8c0.4,0.3,0.9,0.3,1.4,0.3
			c0.3,0,0.5-0.1,0.7-0.2c0.2-0.2,0.3-0.3,0.3-0.5s-0.1-0.4-0.3-0.6c-0.2-0.2-0.4-0.3-0.9-0.4c-0.3-0.2-0.7-0.3-0.9-0.5
			c-0.3-0.3-0.3-0.5-0.3-0.9c0-0.4,0.2-0.8,0.4-1c0.3-0.3,0.8-0.3,1.2-0.3C210.3,69.6,210.7,69.7,211.1,69.9z"/>
	</g>
</g>
</svg>
