<?xml version="1.0" encoding="utf-8"?>
<!-- Generator: Adobe Illustrator 19.1.0, SVG Export Plug-In . SVG Version: 6.00 Build 0)  -->
<svg version="1.1" id="Layer_1" xmlns="http://www.w3.org/2000/svg" xmlns:xlink="http://www.w3.org/1999/xlink" x="0px" y="0px"
	 viewBox="0 0 323.3 154.6" style="enable-background:new 0 0 323.3 154.6;" xml:space="preserve">
<style type="text/css">
	.st0{fill:#DEDEDD;}
	.st1{fill:#FFFFFF;}
	.st2{fill:#898989;}
	.st3{fill:#ABABAB;}
	.st4{fill:#F3F3F3;}
	.st5{fill:#ECECEC;}
	.st6{fill:#C4C4C4;}
	.st7{fill:#D7D6D6;}
	.st8{opacity:0.4;}
	.st9{fill:#EF7B22;}
	.st10{fill:#F5EB01;}
	.st11{fill:#E42B27;}
	.st12{fill:#9DC850;}
	.st13{fill:#5BC1EE;}
</style>
<g>
	<path class="st0" d="M0,0v154.6h222.5c0-18.6,15.1-33.8,33.8-33.8c18.6,0,33.8,15.1,33.8,33.8h33.3V0H0z"/>
	<path class="st1" d="M256.3,120.8c-18.6,0-33.8,15.1-33.8,33.8H290C290,135.9,274.9,120.8,256.3,120.8z"/>
</g>
<polygon class="st2" points="0.1,57.6 323.4,57.6 323.4,17.1 0,17.1 "/>
<polygon class="st2" points="0.1,17.2 323.4,17.2 323.4,0 0,0 "/>
<polygon class="st0" points="90.7,47.2 181.5,47.2 181.5,39.6 90.6,39.6 "/>
<polygon class="st0" points="282.8,47.2 310.4,47.2 310.4,39.6 282.7,39.6 "/>
<polygon class="st0" points="238.8,47.2 266.4,47.2 266.4,39.6 238.7,39.6 "/>
<polygon class="st3" points="90.7,72.3 136.1,72.3 136.1,68.1 90.6,68.1 "/>
<polygon class="st3" points="223.5,111 268.9,111 268.9,106.9 223.4,106.9 "/>
<polygon class="st3" points="16,111 61.4,111 61.4,106.9 16,106.9 "/>
<circle class="st1" cx="49.8" cy="57.6" r="33.8"/>
<rect x="16" y="120.8" class="st3" width="165.5" height="33.8"/>
<circle class="st4" cx="49.2" cy="57.8" r="29.6"/>
<g>
	<path class="st5" d="M67,34L27.1,77.2c5.4,6.3,13.5,10.3,22.4,10.3c16.4,0,29.6-13.3,29.6-29.6C79.1,48,74.3,39.4,67,34z"/>
</g>
<g>
	<circle class="st6" cx="49" cy="54.2" r="13.8"/>
	<path class="st6" d="M35.7,49.6c0,0-0.3-5.6,1.9-6.9c2.2-1.3,7.8-6.3,13.5-4.6s6.7,4.7,9.4,4.2c2.8-0.5,2.2,5.7-2,3.6"/>
</g>
<g>
	<path class="st6" d="M36.2,84.6c0,0.1,0,0.1,0,0.2L36.2,84.6C36.2,84.6,36.2,84.6,36.2,84.6z"/>
	<path class="st6" d="M42.6,68.8c0,0-6.5,3.3-12.9,11.6c2,1.7,4.1,3.1,6.5,4.2C36.5,79.6,37.8,72.5,42.6,68.8z"/>
	<path class="st6" d="M57,69.3c4.6,3.5,5.9,9.6,6.2,14.4c1.9-1.1,3.8-2.4,5.4-3.9C63.7,73.8,58.9,70.5,57,69.3z"/>
	<path class="st7" d="M63.2,83.8c-0.3,0.2-0.6,0.3-0.9,0.5c-4,2.1-8.6,3.2-13.5,3.2c-4.5,0-8.8-1-12.6-2.8c0,0,0,0,0,0
		c0.3-5,1.7-12.1,6.4-15.8c1.7,0.6,3.9,1.1,6.9,1.1c2.3,0,4.6-0.5,6.7-1.2c0.3,0.2,0.6,0.4,0.8,0.6C61.5,72.8,62.8,78.9,63.2,83.8z"
		/>
</g>
<g class="st8">
	<circle class="st1" cx="49.3" cy="78.2" r="4.6"/>
	<g>
		<g>
			<path class="st9" d="M53.3,78h-3.1v-2.1h2.4C53.1,76.5,53.3,77.2,53.3,78z"/>
			<path class="st10" d="M53.3,78.2c0,0.8-0.2,1.5-0.6,2.1c-0.1,0.1-0.1,0.2-0.2,0.3c-0.1,0.1-0.2,0.3-0.3,0.4
				c-0.1,0.1-0.2,0.2-0.3,0.2c-0.5,0.4-1.1,0.7-1.7,0.9c-0.1,0-0.2,0-0.3,0.1c-0.2,0-0.4,0.1-0.7,0.1c-0.5,0-1-0.1-1.4-0.3v-1.3h4.3
				v-2.4H53.3z"/>
			<path class="st11" d="M51.9,78.2v2.1h-6c-0.4-0.6-0.6-1.3-0.6-2.1H51.9z"/>
			<path class="st12" d="M52.4,75.6h-4.5v-1.2c0.4-0.2,0.9-0.3,1.4-0.3c0.2,0,0.4,0,0.7,0.1c0.1,0,0.2,0,0.3,0.1
				c0.6,0.1,1.2,0.4,1.7,0.9c0.1,0.1,0.2,0.2,0.3,0.2C52.3,75.4,52.4,75.5,52.4,75.6z"/>
			<g>
				<path class="st13" d="M47.7,74.5V78h-2.4c0-0.8,0.3-1.5,0.7-2.1c0.1-0.1,0.1-0.2,0.2-0.3C46.6,75.1,47.1,74.8,47.7,74.5z"/>
			</g>
		</g>
	</g>
</g>
</svg>
