<?xml version="1.0" encoding="utf-8"?>
<!-- Generator: Adobe Illustrator 19.1.0, SVG Export Plug-In . SVG Version: 6.00 Build 0)  -->
<svg version="1.1" id="Layer_1" xmlns:sketch="http://www.bohemiancoding.com/sketch/ns"
	 xmlns="http://www.w3.org/2000/svg" xmlns:xlink="http://www.w3.org/1999/xlink" x="0px" y="0px" viewBox="-20 21 103 103"
	 style="enable-background:new -20 21 103 103;" xml:space="preserve">
<style type="text/css">
	.st0{clip-path:url(#SVGID_2_);}
	.st1{fill:#5A6865;}
	.st2{fill:#B5B5B5;}
	.st3{fill:#9B9B9B;}
	.st4{fill:#9BEAE3;}
	.st5{fill:#848280;}
	.st6{fill:#84D8CE;}
	.st7{fill:#8C9997;}
	.st8{fill:#648428;}
	.st9{fill:#305653;}
	.st10{fill:#143D3C;}
	.st11{clip-path:url(#SVGID_2_);fill:#77A331;}
	.st12{clip-path:url(#SVGID_2_);fill:#648428;}
	.st13{clip-path:url(#SVGID_2_);fill:#B29372;}
	.st14{clip-path:url(#SVGID_2_);fill:#143D3C;}
	.st15{clip-path:url(#SVGID_2_);fill:#C0E57A;}
	.st16{clip-path:url(#SVGID_2_);fill:#D66B1A;}
	.st17{clip-path:url(#SVGID_2_);fill:#F98C32;}
	.st18{clip-path:url(#SVGID_2_);fill:#305653;}
	.st19{fill:none;}
	.st20{fill:#475B10;}
	.st21{fill:#57721D;}
	.st22{clip-path:url(#SVGID_2_);fill:#BC5815;}
	.st23{clip-path:url(#SVGID_2_);fill:#FBDA32;}
	.st24{fill:#B2DD6C;}
	.st25{fill:#F9E48A;}
	.st26{fill:#F7F7F7;}
	.st27{clip-path:url(#SVGID_2_);fill:#F7A669;}
	.st28{clip-path:url(#SVGID_2_);fill:#DBB826;}
	.st29{fill:#A0C45B;}
	.st30{fill:#EAD26C;}
	.st31{fill:#D66B1A;}
	.st32{fill:#F98C32;}
	.st33{fill:#B29372;}
	.st34{fill:#8EC12B;}
	.st35{opacity:0.2;clip-path:url(#SVGID_2_);fill:#5B5B5B;}
</style>
<title>Slice 1</title>
<desc>Created with Sketch.</desc>
<g>
	<defs>
		<circle id="SVGID_1_" cx="31.2" cy="72.6" r="50.2"/>
	</defs>
	<clipPath id="SVGID_2_">
		<use xlink:href="#SVGID_1_"  style="overflow:visible;"/>
	</clipPath>
	<g class="st0">
		<path class="st1" d="M-10.5,84.7l-2,0.5l-0.4-0.5l-0.3,6.6c3.5-1.2,7.6-2.4,12.6-3.4l-0.3-2.5L-10.5,84.7z"/>
		<path class="st1" d="M11.8,81.1l-3.5,0.4L7,79.8l-2.5,1.8l-0.2,0.3L5,86.9c4.8-0.7,10.2-1.3,16.4-1.6l3-3.5L11.8,81.1z"/>
		<path class="st2" d="M1.8,85.6l-2.7-0.2l0.3,2.5c1.7-0.3,3.6-0.7,5.6-1l-0.6-5.2L1.8,85.6z"/>
		<path class="st1" d="M-15.7,81.1l-2.3,2.6c0.7,2.9,1.5,5.7,2.7,8.4c0.7-0.3,1.4-0.5,2.1-0.8l0.3-6.6L-15.7,81.1z"/>
		<path class="st3" d="M-12.9,52.5H-15c-0.9,2.1-1.7,4.3-2.3,6.6h4.4V52.5z"/>
		<polygon class="st4" points="46,52.5 47.2,55.5 49.9,52.5 		"/>
		<path class="st3" d="M-12.9,84.7l0.4-8.2l-1.2,0.9l0.8-2l0.5-0.4l0.2-3.8l-3.1-4l-3.8,3c0,0.8-0.1,1.6-0.1,2.5
			c0,3.8,0.4,7.5,1.2,11.1l2.3-2.6L-12.9,84.7z"/>
		<polygon class="st3" points="-2.2,74.4 -5.1,71.3 -12.5,76.5 -12.9,84.7 -12.5,85.3 -10.5,84.7 -0.8,85.4 -2,74.3 		"/>
		<polygon class="st3" points="9.2,63.3 3.7,67.8 4.1,78.2 3.9,77.5 4.4,81.8 4.5,81.5 7,79.8 8.3,81.5 11.8,81.1 24.4,81.9 
			41.8,61.8 9.2,63.2 		"/>
		<path class="st5" d="M-11,70l-1.2,1.3l-0.1-0.1l-0.2,3.8l7.3-5.2L0,73.5L-2,74.3l1.2,11.1l2.7,0.2l2.5-3.8l-0.5-4.3l-0.2-0.4
			L2,68.8l-2,1.7L-1,68.8l6.8-5.2L1,64.3v1.5l-3.2,0.7v1.3H-6v-3.5h-6.9V59h-4.4c-0.8,2.9-1.4,5.8-1.7,8.9l3.7-3.6L-11,70z"/>
		<path class="st4" d="M-12.9,59h1.9v2.4h1.3v-1.6h2.6v-2.4V54h3.6v6.1l0.8,1.5H0V59l0.1-8.7l2.5-2.2H7v13.6l1.4-0.1l0.8-0.6v0.6
			l6.9-0.6l14.1-9.1l2.6-3.7V37.5l2.4-2.3H42L43.5,54l2.7,2.6l1-1.2l-1.2-3h3.8l14.8-17c-8.9-8.1-20.7-13-33.7-13
			c-20.5,0-38.2,12.3-46,30h2.1V59z"/>
		<polygon class="st3" points="7,61.7 7,48.1 2.6,48.1 0.1,50.3 0,59 0,61.7 -2.7,61.7 -3.5,60.1 -3.5,54 -7.1,54 -7.1,57.5 
			-7.1,59.8 -9.7,59.8 -9.7,61.4 -11,61.4 -11,59 -12.9,59 -12.9,64.3 -6,64.3 -6,67.8 -2.2,67.8 -2.2,66.5 1,65.8 1,64.3 5.8,63.6 
			8.4,61.5 		"/>
		<polygon class="st3" points="43.5,54 42,35.2 35.3,35.2 32.8,37.5 32.8,48.1 30.2,51.8 16.1,60.9 9.2,61.5 9.2,63.2 41.8,61.8 
			46.2,56.7 		"/>
		<polygon class="st3" points="61.9,54.6 59.4,56 59.4,59 60.3,59 64,57.5 65.5,57.5 65.5,54.6 		"/>
		<polygon class="st6" points="47.2,55.5 46.2,56.7 48.6,59 		"/>
		<polygon class="st3" points="57.6,55.5 54.4,55.6 53.2,55.6 53.2,52.5 49.9,52.5 47.2,55.5 48.6,59 46.2,56.7 41.8,61.8 
			50.5,61.4 55.1,61.7 56.1,65.9 59.4,64.3 59.4,59 57.6,59 		"/>
		<path class="st3" d="M76.1,61.7h3.8c-0.4-2-1-3.9-1.7-5.8L76.1,56V61.7z"/>
		<path class="st6" d="M53.2,52.5v3.2h1.2l3.1-0.1V59h1.9v-3l2.5-1.4h3.6v2.8H68v3.4h2.7V59h2.8v3.4H75v-0.7h1V56l2.2-0.1
			c-2.8-7.9-7.5-14.9-13.6-20.5l-14.8,17H53.2z"/>
		<polygon class="st3" points="73.5,59 70.7,59 70.7,60.9 68,60.9 68,57.5 65.5,57.5 65.5,67.2 70.7,67.2 70.7,64.3 75,64.3 
			75,62.4 73.5,62.4 		"/>
		<polygon class="st3" points="72.5,87.9 73.5,86.6 73.5,75.4 60.6,75.4 61.2,85.4 62,85.4 		"/>
		<path class="st5" d="M79.9,61.7h-3.8v0.7h-1v1.9h-4.3v2.9h-5.2v-9.7H64L60.3,59h-0.8v5.2l-3.4,1.6l-1-4.2l-4.6-0.2l-8.8,0.4
			L24.4,81.9l24.7,1.5l3.6,0.4l3.7-1.1l2.6,2.9l2.3-0.2l-0.6-10.1h-0.3l0.3-0.2l-0.2-3.9h-0.1l-5.2-3.5l0.3-1.3l6.6,4.8h-1.7
			l0.2,3.9l8.1-5.6L79,70l-5.5,5.4v11.2l1.1-1.2l1.5,2.4l3-0.8c1.4-4.6,2.1-9.4,2.1-14.4C81.1,68.9,80.7,65.2,79.9,61.7z"/>
		<rect x="75" y="61.7" class="st6" width="1" height="0.7"/>
		<path class="st7" d="M72.5,87.9L62,85.4l-0.8,0.1l0.1,2.2c4.7,0.9,8.7,1.9,12.2,3v-4L72.5,87.9z"/>
		<path class="st1" d="M74.6,85.4l-1.1,1.2v4c1.3,0.4,2.6,0.8,3.8,1.3c0.7-1.6,1.2-3.2,1.7-4.9l-3,0.8L74.6,85.4z"/>
		<path class="st1" d="M58.9,85.6l-2.6-2.9l-3.7,1.1l-3.6-0.4l-24.7-1.5l-3,3.5c3-0.1,6.2-0.2,9.6-0.2c12.3,0,22.3,1,30.4,2.5
			l-0.1-2.2L58.9,85.6z"/>
		<path class="st8" d="M-21.1,70l0.5,1.3l1.5-1.1c0-0.8,0.1-1.5,0.2-2.3L-21.1,70z"/>
		<path class="st8" d="M-12.2,71.2l0.1-1.4L-12.2,71.2L-12.2,71.2L-11,70l-4.3-5.7l-3.7,3.6c-0.1,0.7-0.1,1.5-0.2,2.3l3.8-3
			L-12.2,71.2z"/>
		<polygon class="st9" points="-12.9,75.4 -13.7,77.4 -12.5,76.5 -12.4,75 		"/>
		<polygon class="st9" points="-2.2,74.4 -2,74.3 -2.2,73.3 -2,74.3 0,73.5 -5.1,69.8 -12.4,75 -12.5,76.5 -5.1,71.3 		"/>
		<polygon class="st9" points="3.7,67.8 9.2,63.3 9.2,63.2 7.4,63.3 5.8,63.6 -1,68.8 0,70.5 2,68.8 3.7,77.1 3.9,77.5 2.6,67.4 
			3.9,77.5 4.1,78.2 		"/>
		<polygon class="st8" points="9.2,60.9 8.4,61.5 9.2,61.5 		"/>
		<polygon class="st8" points="9.2,63.2 9.2,61.5 8.4,61.5 5.8,63.6 7.4,63.3 		"/>
		<polygon class="st10" points="55.4,66.5 55.1,67.8 60.3,71.3 60.3,71.3 60.3,70 60.3,71.3 62,71.3 		"/>
		<polygon class="st9" points="73.5,71.9 73.5,75.4 79,70 68.7,69.5 60.6,75.2 60.6,75.4 73.5,75.4 		"/>
		<polygon class="st8" points="60.3,75.4 60.6,75.4 60.6,75.2 		"/>
	</g>
	<g class="st0">
		<g>
			<path class="st8" d="M-13.8,87.7c0,0.3-0.1,0.6-0.1,1C-13.7,88.4-13.6,87.9-13.8,87.7z"/>
		</g>
	</g>
	<polygon class="st11" points="-11,80.4 -10,90.5 -2.7,90.5 -2.7,79.3 -7,75.4 	"/>
	<polygon class="st12" points="-8.7,90.2 -9,84.1 -5.1,83.8 -5.2,89.2 	"/>
	<polygon class="st12" points="-3.5,90.5 5.6,87.7 5.6,79.1 -3.5,80.9 	"/>
	<polygon class="st13" points="-8.4,89.9 -8.7,84.3 -5.5,84.1 -5.5,89.2 	"/>
	<polygon class="st14" points="0.1,83 0.1,85.1 3.6,84.3 3.6,82.4 	"/>
	<path class="st15" d="M-1.1,111.3l22.4-25.9c-17.2,0.8-28.9,3.7-36.7,6.7C-12.2,99.6-7.2,106.2-1.1,111.3z"/>
	<polygon class="st16" points="60.3,81.5 60.3,87.9 70.1,90.1 70.7,81.1 	"/>
	<polygon class="st17" points="75.3,83.2 73.6,91.1 69.6,90 69.6,82.4 74,78.2 	"/>
	<polygon class="st18" points="66,84.7 66,86.6 67.9,86.7 68,85.1 	"/>
	<g class="st0">
		<polygon class="st19" points="74,78.2 73.8,78.4 74,78.2 		"/>
		<polygon class="st20" points="75.1,84.2 76.1,84.1 74.6,77.3 74,78.2 		"/>
		<polygon class="st21" points="74,78.2 74.6,77.3 74.6,77.2 62.1,75.9 58.9,81.6 70.5,83.6 73.8,78.4 73.8,78.4 73.8,78.4 74,78.2 
					"/>
	</g>
	<polyline class="st22" points="61.7,87.9 61.7,84 64.5,84.3 64.5,88.7 	"/>
	<polyline class="st13" points="62,87.9 62,84.3 64.1,84.6 64.1,89.2 	"/>
	<ellipse class="st23" cx="63.8" cy="86.9" rx="0.2" ry="0.2"/>
	<g class="st0">
		<path class="st24" d="M77.3,91.9c-9.4-3.5-24.2-6.7-46.4-6.7c-3.4,0-6.6,0.1-9.6,0.2l-2.2,2.6c0.2,0,0.5,0.1,0.8,0.2l17.1,3
			c0,0,59.3,3,27.6,10.1c-22.7,5.1-23.6,15.1-22.3,20.3C58.2,117.8,71.2,106.6,77.3,91.9z"/>
		<path class="st25" d="M17.7,87.7l1.5,0.3l0,0C18.2,87.8,17.7,87.7,17.7,87.7z"/>
		<path class="st25" d="M19.1,87.9L19.1,87.9l0.8,0.2C19.7,88,19.4,88,19.1,87.9z"/>
	</g>
	<g class="st0">
		<g>
			<circle class="st26" cx="11.9" cy="34.7" r="1.9"/>
			<circle class="st26" cx="16.4" cy="33.8" r="1"/>
			<circle class="st26" cx="16.1" cy="35.2" r="1"/>
			<circle class="st26" cx="14.3" cy="35.2" r="1"/>
			<circle class="st26" cx="14.3" cy="33.5" r="1.9"/>
		</g>
		<path class="st26" d="M12.9,34c0,0-3.2,1.3-4.7,1.3s5.3,1.4,6.7-0.5S12.9,34,12.9,34z"/>
	</g>
	<g class="st0">
		<g>
			<circle class="st26" cx="52.8" cy="35.4" r="2.2"/>
			<circle class="st26" cx="57.9" cy="34.3" r="1.1"/>
			<circle class="st26" cx="57.6" cy="35.9" r="1.1"/>
			<circle class="st26" cx="55.5" cy="35.9" r="1.1"/>
			<circle class="st26" cx="55.5" cy="34" r="2.2"/>
		</g>
		<path class="st26" d="M54,34.5c0,0-3.6,1.5-5.3,1.4c-1.7-0.1,6,1.6,7.6-0.6S54,34.5,54,34.5z"/>
	</g>
	<polygon class="st27" points="38.1,72.6 38.1,73.3 52.1,72.6 52.1,71.9 	"/>
	<polygon class="st17" points="15.2,82.4 23.9,84.7 23.9,86.3 15.2,83.4 	"/>
	<ellipse class="st28" cx="48.1" cy="84.8" rx="0.7" ry="0.8"/>
	<g class="st0">
		<path class="st19" d="M47.6,97.4c0.1,0.1,0.2,0.1,0.3,0.2C47.8,97.5,47.7,97.5,47.6,97.4z"/>
		<path class="st19" d="M48.3,97.9c0.1,0.1,0.1,0.1,0.2,0.2C48.5,98,48.4,98,48.3,97.9z"/>
		<path class="st19" d="M48.7,98.2c0.1,0.1,0.1,0.1,0.2,0.2C48.8,98.3,48.7,98.2,48.7,98.2z"/>
		<path class="st19" d="M49.5,100c0,0,0,0.1-0.1,0.1C49.4,100.1,49.5,100,49.5,100z"/>
		<path class="st19" d="M49.6,99.5c0,0.1,0,0.1,0,0.2C49.6,99.6,49.6,99.5,49.6,99.5z"/>
		<path class="st19" d="M47.1,97.1c0.1,0.1,0.2,0.1,0.3,0.2C47.3,97.3,47.2,97.2,47.1,97.1z"/>
		<path class="st19" d="M49.6,99.7c0,0,0,0.1,0,0.1C49.5,99.8,49.6,99.8,49.6,99.7z"/>
		<path class="st19" d="M49.5,99.2c0,0.1,0.1,0.1,0.1,0.2C49.6,99.3,49.5,99.3,49.5,99.2z"/>
		<path class="st19" d="M49.2,98.7c0,0.1,0.1,0.1,0.1,0.2C49.3,98.8,49.2,98.7,49.2,98.7z"/>
		<path class="st19" d="M49.4,98.9c0.1,0.1,0.1,0.2,0.1,0.2C49.5,99.1,49.4,99,49.4,98.9z"/>
		<path class="st19" d="M48,97.7c0.1,0.1,0.1,0.1,0.2,0.2C48.1,97.8,48.1,97.7,48,97.7z"/>
		<path class="st19" d="M43.4,95.3c0.1,0,0.2,0.1,0.3,0.1C43.6,95.4,43.5,95.3,43.4,95.3z"/>
		<path class="st19" d="M46.6,96.8c0.1,0.1,0.3,0.1,0.4,0.2C46.9,97,46.7,96.9,46.6,96.8z"/>
		<path class="st19" d="M42.8,95c0.1,0,0.2,0.1,0.3,0.1C43,95.1,42.9,95.1,42.8,95z"/>
		<path class="st19" d="M42.3,94.8c0.1,0,0.2,0.1,0.3,0.1C42.5,94.9,42.4,94.9,42.3,94.8z"/>
		<path class="st19" d="M41.8,94.6c0.1,0,0.1,0.1,0.2,0.1C42,94.7,41.9,94.6,41.8,94.6z"/>
		<path class="st19" d="M43.9,95.5c0.1,0,0.2,0.1,0.3,0.1C44.2,95.6,44,95.6,43.9,95.5z"/>
		<path class="st19" d="M45.5,96.3c0.1,0.1,0.2,0.1,0.4,0.2C45.8,96.4,45.7,96.3,45.5,96.3z"/>
		<path class="st19" d="M46,96.5c0.2,0.1,0.3,0.2,0.5,0.3C46.4,96.7,46.2,96.6,46,96.5z"/>
		<path class="st19" d="M44.5,95.8c0.1,0,0.2,0.1,0.3,0.1C44.7,95.9,44.6,95.8,44.5,95.8z"/>
		<path class="st19" d="M45,96c0.1,0,0.2,0.1,0.3,0.1C45.2,96.1,45.1,96.1,45,96z"/>
		<path class="st19" d="M48.9,98.4c0.1,0.1,0.1,0.1,0.2,0.2C49.1,98.5,49,98.5,48.9,98.4z"/>
		<path class="st19" d="M49.1,100.4c0,0-0.1,0.1-0.2,0.1C49,100.5,49.1,100.4,49.1,100.4z"/>
		<path class="st19" d="M49.3,100.2c0,0-0.1,0.1-0.1,0.1C49.3,100.3,49.3,100.2,49.3,100.2z"/>
		<path class="st19" d="M48.8,100.6c-0.1,0-0.1,0.1-0.2,0.1C48.7,100.7,48.8,100.6,48.8,100.6z"/>
		<path class="st19" d="M48,101c-0.2,0.1-0.3,0.1-0.5,0.2C47.7,101.1,47.9,101.1,48,101z"/>
		<path class="st19" d="M48.5,100.8c-0.1,0-0.2,0.1-0.3,0.1C48.3,100.9,48.4,100.8,48.5,100.8z"/>
		<path class="st24" d="M48,101c0.1,0,0.1,0,0.2-0.1c0.1,0,0.2-0.1,0.3-0.1c0.1,0,0.1-0.1,0.1-0.1c0.1,0,0.2-0.1,0.2-0.1
			c0,0,0.1-0.1,0.1-0.1c0.1,0,0.1-0.1,0.2-0.1c0,0,0.1-0.1,0.1-0.1c0,0,0.1-0.1,0.1-0.1c0,0,0-0.1,0.1-0.1c0,0,0.1-0.1,0.1-0.1
			c0,0,0-0.1,0-0.1c0,0,0-0.1,0-0.1c0,0,0-0.1,0-0.1c0-0.1,0-0.1,0-0.2c0,0,0-0.1,0-0.1c0-0.1,0-0.1-0.1-0.2c0,0,0,0,0,0
			c0-0.1-0.1-0.2-0.1-0.2c0,0,0,0-0.1-0.1c0-0.1-0.1-0.1-0.1-0.2c0,0-0.1-0.1-0.1-0.1c0-0.1-0.1-0.1-0.2-0.2c0,0-0.1-0.1-0.1-0.1
			c-0.1-0.1-0.1-0.1-0.2-0.2c0,0-0.1-0.1-0.1-0.1c-0.1-0.1-0.1-0.1-0.2-0.2c0,0-0.1-0.1-0.1-0.1c-0.1-0.1-0.1-0.1-0.2-0.2
			c-0.1,0-0.1-0.1-0.2-0.1c-0.1-0.1-0.2-0.1-0.3-0.2c-0.1,0-0.1-0.1-0.2-0.1c-0.1-0.1-0.2-0.1-0.3-0.2c0,0-0.1-0.1-0.1-0.1
			c-0.1-0.1-0.3-0.1-0.4-0.2c0,0-0.1,0-0.1,0c-0.2-0.1-0.3-0.2-0.5-0.3c0,0-0.1,0-0.1-0.1c-0.1-0.1-0.2-0.1-0.4-0.2
			c-0.1,0-0.1-0.1-0.2-0.1c-0.1,0-0.2-0.1-0.3-0.1c-0.1,0-0.2-0.1-0.2-0.1c-0.1,0-0.2-0.1-0.3-0.1c-0.1,0-0.1-0.1-0.2-0.1
			c-0.1,0-0.2-0.1-0.3-0.1c-0.1,0-0.2-0.1-0.2-0.1c-0.1,0-0.2-0.1-0.3-0.1c-0.1,0-0.2-0.1-0.2-0.1c-0.1,0-0.2-0.1-0.3-0.1
			c-0.1,0-0.2-0.1-0.2-0.1c-0.1,0-0.2-0.1-0.3-0.1c-0.1,0-0.2-0.1-0.3-0.1c-0.1,0-0.1-0.1-0.2-0.1c-0.5-0.2-0.9-0.4-1.3-0.6
			l-7.7,1.5l-16.2-4.8l-17.7,20.4c1.5,1.2,3,2.3,4.6,3.4c5.6-6,30.7-9.5,44-13.5C47.7,101.1,47.9,101.1,48,101z"/>
		<path class="st25" d="M50.5,92l-10,2c0.4,0.2,0.9,0.4,1.3,0.6c0.1,0,0.1,0.1,0.2,0.1c0.1,0,0.2,0.1,0.3,0.1c0.1,0,0.2,0.1,0.3,0.1
			c0.1,0,0.2,0.1,0.2,0.1c0.1,0,0.2,0.1,0.3,0.1c0.1,0,0.2,0.1,0.2,0.1c0.1,0,0.2,0.1,0.3,0.1c0.1,0,0.2,0.1,0.2,0.1
			c0.1,0,0.2,0.1,0.3,0.1c0.1,0,0.2,0.1,0.2,0.1c0.1,0,0.2,0.1,0.3,0.1c0.1,0,0.2,0.1,0.2,0.1c0.1,0,0.2,0.1,0.3,0.1
			c0.1,0,0.1,0.1,0.2,0.1c0.1,0.1,0.2,0.1,0.4,0.2c0,0,0.1,0,0.1,0.1c0.2,0.1,0.3,0.2,0.5,0.3c0,0,0.1,0,0.1,0
			c0.1,0.1,0.3,0.1,0.4,0.2c0.1,0,0.1,0.1,0.1,0.1c0.1,0.1,0.2,0.1,0.3,0.2c0.1,0,0.1,0.1,0.2,0.1c0.1,0.1,0.2,0.1,0.3,0.2
			c0.1,0,0.1,0.1,0.2,0.1c0.1,0.1,0.1,0.1,0.2,0.2c0,0,0.1,0.1,0.1,0.1c0.1,0.1,0.1,0.1,0.2,0.2c0,0,0.1,0.1,0.1,0.1
			c0.1,0.1,0.1,0.1,0.2,0.2c0,0,0.1,0.1,0.1,0.1c0.1,0.1,0.1,0.1,0.2,0.2c0,0,0.1,0.1,0.1,0.1c0,0.1,0.1,0.1,0.1,0.2
			c0,0,0,0,0.1,0.1c0.1,0.1,0.1,0.2,0.1,0.2c0,0,0,0,0,0c0,0.1,0.1,0.1,0.1,0.2c0,0,0,0.1,0,0.1c0,0.1,0,0.1,0,0.2c0,0,0,0.1,0,0.1
			c0,0,0,0.1,0,0.1c0,0,0,0.1,0,0.1c0,0,0,0.1-0.1,0.1c0,0,0,0.1-0.1,0.1c0,0-0.1,0.1-0.1,0.1c0,0-0.1,0.1-0.1,0.1
			c0,0-0.1,0.1-0.2,0.1c0,0-0.1,0.1-0.1,0.1c-0.1,0-0.1,0.1-0.2,0.1c0,0-0.1,0.1-0.1,0.1c-0.1,0-0.2,0.1-0.3,0.1
			c-0.1,0-0.1,0-0.2,0.1c-0.2,0.1-0.3,0.1-0.5,0.2c-13.3,4-38.3,7.5-44,13.5c7.9,5.1,17.3,8.2,27.4,8.2c3.9,0,7.8-0.5,11.4-1.3
			c-1.3-5.3-0.4-15.3,22.3-20.3C86.1,96.4,65.8,93.4,50.5,92z"/>
		<path class="st25" d="M45.9,96.5c0,0,0.1,0,0.1,0.1C46,96.5,45.9,96.5,45.9,96.5z"/>
		<path class="st25" d="M47,97.1c0.1,0,0.1,0.1,0.1,0.1C47.1,97.1,47,97.1,47,97.1z"/>
		<path class="st25" d="M46.5,96.8C46.6,96.8,46.6,96.8,46.5,96.8C46.6,96.8,46.6,96.8,46.5,96.8z"/>
		<path class="st25" d="M47.4,97.3c0.1,0,0.1,0.1,0.2,0.1C47.5,97.4,47.5,97.3,47.4,97.3z"/>
		<path class="st25" d="M45.3,96.2c0.1,0,0.1,0.1,0.2,0.1C45.5,96.3,45.4,96.2,45.3,96.2z"/>
		<path class="st25" d="M41.8,94.6c-0.5-0.2-0.9-0.4-1.3-0.6l0,0C40.9,94.2,41.4,94.4,41.8,94.6z"/>
		<path class="st25" d="M44.8,95.9c0.1,0,0.2,0.1,0.2,0.1C44.9,96,44.9,96,44.8,95.9z"/>
		<path class="st25" d="M43.1,95.2c0.1,0,0.2,0.1,0.2,0.1C43.3,95.3,43.2,95.2,43.1,95.2z"/>
		<path class="st25" d="M42,94.7c0.1,0,0.2,0.1,0.3,0.1C42.2,94.8,42.1,94.7,42,94.7z"/>
		<path class="st25" d="M42.6,94.9c0.1,0,0.2,0.1,0.2,0.1C42.8,95,42.7,95,42.6,94.9z"/>
		<path class="st25" d="M43.7,95.4c0.1,0,0.2,0.1,0.2,0.1C43.9,95.5,43.8,95.5,43.7,95.4z"/>
		<path class="st25" d="M44.3,95.7c0.1,0,0.2,0.1,0.2,0.1C44.4,95.7,44.3,95.7,44.3,95.7z"/>
		<path class="st25" d="M49.3,98.9C49.3,98.9,49.3,98.9,49.3,98.9C49.3,98.9,49.3,98.9,49.3,98.9z"/>
		<path class="st25" d="M49,100.5c0,0-0.1,0.1-0.1,0.1C48.9,100.6,48.9,100.6,49,100.5z"/>
		<path class="st25" d="M49.1,98.6C49.1,98.6,49.2,98.7,49.1,98.6C49.2,98.7,49.1,98.6,49.1,98.6z"/>
		<path class="st25" d="M48.8,98.3c0,0,0.1,0.1,0.1,0.1C48.9,98.4,48.9,98.4,48.8,98.3z"/>
		<path class="st25" d="M49.5,99.9C49.5,99.9,49.5,99.9,49.5,99.9C49.5,99.9,49.5,99.9,49.5,99.9z"/>
		<path class="st25" d="M49.6,99.4C49.6,99.4,49.6,99.5,49.6,99.4C49.6,99.5,49.6,99.4,49.6,99.4z"/>
		<path class="st25" d="M49.5,99.2C49.5,99.2,49.5,99.2,49.5,99.2C49.5,99.2,49.5,99.2,49.5,99.2z"/>
		<path class="st25" d="M49.2,100.3C49.2,100.3,49.2,100.4,49.2,100.3C49.2,100.4,49.2,100.3,49.2,100.3z"/>
		<path class="st25" d="M48.5,98.1c0,0,0.1,0.1,0.1,0.1C48.6,98.2,48.6,98.1,48.5,98.1z"/>
		<path class="st25" d="M49.6,99.6C49.6,99.7,49.6,99.7,49.6,99.6C49.6,99.7,49.6,99.7,49.6,99.6z"/>
		<path class="st25" d="M47.8,97.6c0.1,0,0.1,0.1,0.2,0.1C47.9,97.6,47.9,97.6,47.8,97.6z"/>
		<path class="st25" d="M48.2,97.8c0,0,0.1,0.1,0.1,0.1C48.3,97.9,48.3,97.9,48.2,97.8z"/>
		<path class="st25" d="M49.4,100.1C49.4,100.1,49.4,100.2,49.4,100.1C49.4,100.2,49.4,100.1,49.4,100.1z"/>
		<path class="st25" d="M48.2,100.9c-0.1,0-0.1,0-0.2,0.1C48.1,101,48.1,101,48.2,100.9z"/>
		<path class="st25" d="M48.6,100.7c0,0-0.1,0.1-0.1,0.1C48.5,100.8,48.6,100.8,48.6,100.7z"/>
		<path class="st26" d="M39.6,93.7c-0.2-0.1-0.5-0.2-0.7-0.3C39.1,93.5,39.4,93.6,39.6,93.7z"/>
		<path class="st26" d="M40,93.9c-0.1,0-0.1,0-0.2-0.1C39.9,93.8,40,93.9,40,93.9z"/>
		<path class="st24" d="M20,88.1l17.1,3c0,0,6.2,0.3,13.5,1l2.9-0.6l-41.7-5.2L7,88l9.6,2.8l2.5-2.9L20,88.1z"/>
		<path class="st29" d="M40.5,94.1c-0.2-0.1-0.3-0.1-0.5-0.2c-0.1,0-0.1,0-0.2-0.1c-0.1,0-0.2-0.1-0.3-0.1c-0.2-0.1-0.5-0.2-0.7-0.3
			c-6.7-2.8-15-4.6-18.9-5.3l-0.8-0.1l-2.5,2.9l16.2,4.8L40.5,94.1z"/>
		<path class="st30" d="M20,88.1c3.9,0.7,12.2,2.5,18.9,5.3c0.2,0.1,0.4,0.2,0.7,0.3c0.1,0,0.2,0.1,0.3,0.1c0.1,0,0.1,0,0.2,0.1
			c0.1,0.1,0.3,0.1,0.5,0.2l10-2c-7.3-0.7-13.5-1-13.5-1L20,88.1z"/>
		<path class="st26" d="M40.5,94.1L40.5,94.1c-0.2-0.1-0.3-0.1-0.5-0.2C40.2,93.9,40.3,94,40.5,94.1z"/>
		<path class="st26" d="M39.9,93.8c-0.1,0-0.2-0.1-0.3-0.1C39.7,93.7,39.8,93.8,39.9,93.8z"/>
	</g>
	<g class="st0">
		<polygon class="st31" points="7.4,64.3 10.3,88 32.8,94.2 32.8,94.2 31,67.9 		"/>
		<polygon class="st9" points="15.6,82.6 23.9,84.7 22.8,75.1 14.4,73.3 		"/>
		<g>
			<polygon class="st25" points="48,93.7 48.1,93 43.6,93.7 			"/>
			<polygon class="st31" points="56.1,65.9 56.7,65.8 43.8,48.1 42.5,50.3 55.9,67.2 			"/>
			<polygon class="st32" points="42.5,50.3 31,69.6 30.6,69.5 32.8,94.2 40.1,93.2 38.9,73.3 50.6,72.6 49,92.1 53.4,91.5 
				55.9,67.2 			"/>
			<polygon class="st25" points="48.1,93 48.9,92.8 49,92.1 48.1,92.2 			"/>
			<polygon class="st31" points="38.9,73.3 40.1,93.2 41,93.1 39.6,74.1 49.8,73.3 48.1,92.2 49,92.1 50.6,72.6 			"/>
			<polygon class="st33" points="39.6,74.1 41,93.1 48.1,92.2 49.8,73.3 			"/>
		</g>
		<polygon class="st10" points="58.9,67.4 44.2,48 44.2,49.8 57.8,67.4 		"/>
		<g>
			<polygon class="st10" points="28.9,71.3 30.3,71.7 44.2,49.7 44.2,48 			"/>
			<polygon class="st9" points="44.2,47.9 14.6,43.6 2.2,64.1 28.9,71.3 44.2,48 			"/>
		</g>
	</g>
	<ellipse class="st23" cx="48" cy="85.1" rx="0.9" ry="0.8"/>
	<ellipse class="st23" cx="-6.1" cy="87.8" rx="0.2" ry="0.2"/>
	<g class="st0">
		<polygon class="st9" points="2.6,73.1 2.3,72.6 -8,74.3 -12,80.9 -11.3,81.6 -7,75.4 -7,75.5 -6.8,74.5 		"/>
		<polygon class="st10" points="7,79.3 2.6,73.1 -6.8,74.5 -7,75.5 -3.4,81.6 		"/>
	</g>
	<polygon class="st18" points="71.5,85.5 71.5,87.1 73.2,87.4 73.5,85.9 	"/>
	<g class="st0">
		<path class="st19" d="M58,94.7c-0.1,0.1-0.1,0.2-0.1,0.6c0,0.6,0.1,1.6,0.4,2c0-0.9-0.1-1.8-0.2-2C58.1,95.3,58,95,58,94.7z"/>
		<path class="st19" d="M57.8,92.4c-0.3,0.2,0,1.5,0.2,2.4c0.1-0.1,0.4-0.1,1-0.5c0.7-0.4,0-1.3-0.5-1.7l-0.1,0.6l0.1-0.6
			C58.1,92.4,57.9,92.3,57.8,92.4z"/>
	</g>
	<g class="st0">
		<circle class="st34" cx="7" cy="86.8" r="3.3"/>
		<path class="st34" d="M5.9,92.2c0,0-3.1,0.2-4.1-3.4s0.4-7,0.4-7s-0.5-1-0.2-1.7s0.6-1.2,1.2-0.5s0,0.9,0,1.1
			c0,0.2-0.1,0.5,0.2,0.5s0.7,0.1,0.4,0.4s-1-0.1-0.9,0.5s-0.2,2.7,0,3.6c0.1,0.9-0.1,4.5,2.4,4.3"/>
		<path class="st34" d="M9.3,92.8c0,0,3-1,3.6-4.7c0.5-3.8-1.2-6.9-1.2-6.9s0.4-1,0-1.7s-0.8-1.1-1.2-0.4c-0.4,0.7,0.1,0.9,0.2,1.1
			c0,0.2,0.2,0.4-0.2,0.5C10,80.9,9.7,81,10,81.3s1-0.2,1,0.4s0.5,2.7,0.5,3.6c0,0.9,0.6,4.4-1.8,4.6"/>
		<g>
			<path class="st34" d="M8,99.7l-1.4-0.2C6.8,99.4,7.2,99.5,8,99.7z"/>
			<path class="st34" d="M9,103.4c1.2-1.3-0.9-4.2,0.1-5.1L11,100c0,0-0.1,0-0.1,0c-0.2,0,1.4,2.9,0.1,4.4c-1.1,1.3-5,1.1-5.3,1.3
				c-0.5,0.4,1.2,1.2,1,1.6c-0.1,0.4-0.2,1.1-1.6-0.2c-1.3-1.3-2.1-1.2-1.3-2C4.4,104.7,7.7,104.8,9,103.4z"/>
			<path class="st34" d="M5.2,99.5c0.9-1.2,3.6,0.2,4.2-0.7l-1.6-1.4c0,0,0,0.1,0,0.1c0.1,0.1-2.6-0.8-3.7,0.4
				c-0.9,1.1-0.3,4.3-0.4,4.5c-0.3,0.5-1.2-0.8-1.5-0.7c-0.3,0.1-0.9,0.3,0.4,1.3c1.2,0.9,1.3,1.6,1.9,0.8
				C4.8,103.5,4.2,100.8,5.2,99.5z"/>
			<path class="st34" d="M5.1,99c-0.2-0.2-0.3-1.4-0.2-2.5c0.3-0.5,0.4-1.4,0.4-2c0-0.4,0-0.5-0.1-0.6c0.2-0.8,0.4-2.2,0.2-2.4
				c-0.1-0.1-0.5-0.5-0.7-0.3l-0.2-1.1c0.3-0.1,0.7-0.2,1.2-0.2c2.3-0.1,2.1-0.1,2.1-0.1s1.2,0,2.4,0.2l0.4,1.2
				C10.5,91.1,10.1,92,10,92c-0.4-0.1-0.3,0.9-0.2,2.2c-0.3,0.5-0.1,1.7,0.4,2.2c0.3,1.5,0.6,3,0.8,3.7L8,99.7
				c-0.9-0.1-1.2-0.2-1.4-0.2l-1.4-0.2C5.1,99.1,5.1,99,5.1,99z"/>
		</g>
	</g>
	<g class="st0">
		<circle class="st31" cx="56.9" cy="83.7" r="3.3"/>
		<path class="st31" d="M58,89.2c0,0,3.1,0.2,4.1-3.4c1-3.7-0.4-7-0.4-7s0.5-1,0.2-1.7s-0.6-1.2-1.2-0.5c-0.5,0.7,0,0.9,0,1.1
			c0,0.2,0.1,0.5-0.2,0.5c-0.4,0.1-0.7,0.1-0.4,0.4s1-0.1,0.9,0.5c0,0.6,0.2,2.7,0,3.6c-0.1,0.9,0.1,4.5-2.4,4.3"/>
		<path class="st31" d="M54.6,89.8c0,0-3-1-3.6-4.7s1.2-6.9,1.2-6.9s-0.4-1,0-1.7s0.8-1.1,1.2-0.4s-0.1,0.9-0.2,1.1
			c0,0.2-0.2,0.4,0.2,0.5c0.4,0.1,0.7,0.2,0.4,0.5c-0.3,0.3-1-0.2-1,0.4c0,0.6-0.5,2.7-0.5,3.6c0,0.9-0.6,4.4,1.8,4.6"/>
		<g>
			<path class="st31" d="M55.9,96.6l1.4-0.2C57,96.4,56.7,96.5,55.9,96.6z"/>
			<path class="st31" d="M54.9,100.4c-1.2-1.3,0.9-4.2-0.1-5.1L52.9,97c0,0,0.1,0,0.1,0c0.2,0-1.4,2.9-0.1,4.4
				c1.1,1.3,5,1.1,5.3,1.3c0.5,0.4-1.2,1.2-1,1.6c0.1,0.4,0.2,1.1,1.6-0.2c1.3-1.3,2.1-1.2,1.3-2C59.5,101.6,56.2,101.8,54.9,100.4z
				"/>
			<path class="st31" d="M58.7,96.5c-0.9-1.2-3.6,0.2-4.2-0.7l1.6-1.4c0,0,0,0.1,0,0.1c-0.1,0.1,2.6-0.8,3.7,0.4
				c0.9,1.1,0.3,4.3,0.4,4.5c0.3,0.5,1.2-0.8,1.5-0.7c0.3,0.1,0.9,0.3-0.4,1.3s-1.3,1.6-1.9,0.8C59.1,100.5,59.7,97.8,58.7,96.5z"/>
			<path class="st31" d="M58.8,96c0.2-0.2,0.3-1.4,0.2-2.5c-0.3-0.5-0.4-1.4-0.4-2c0-0.4,0-0.5,0.1-0.6c-0.2-0.8-0.4-2.2-0.2-2.4
				c0.1-0.1,0.5-0.5,0.7-0.3l0.2-1.1c-0.3-0.1-0.7-0.2-1.2-0.2c-2.3-0.1-2.1-0.1-2.1-0.1s-1.2,0-2.4,0.2l-0.4,1.2
				c0.1-0.1,0.5,0.9,0.6,0.8c0.4-0.1,0.3,0.9,0.2,2.2c0.3,0.5,0.1,1.7-0.4,2.2c-0.3,1.5-0.6,3-0.8,3.7l2.9-0.4
				c0.9-0.1,1.2-0.2,1.4-0.2l1.4-0.2C58.7,96.1,58.8,96,58.8,96z"/>
		</g>
	</g>
	<ellipse class="st35" cx="8" cy="110.1" rx="7.2" ry="0.7"/>
	<ellipse class="st35" cx="58.5" cy="108.2" rx="7.2" ry="0.7"/>
</g>
<g>
	<polygon class="st10" points="80.3,70 79,70 81,74.1 81,71.5 	"/>
	<path class="st5" d="M80.9,77.3c0.1-0.8,0.1-1.9,0.2-3L81,74.1L80.9,77.3z"/>
	<path class="st5" d="M81,68.9l0,2.6l0.1,0.2C81.1,70.1,81,68.9,81,68.9z"/>
	<path class="st10" d="M81.1,71.7L81,71.5l0,2.6l0.1,0.3C81.1,73.4,81.1,72.5,81.1,71.7z"/>
</g>
</svg>
