<?xml version="1.0" encoding="utf-8"?>
<!-- Generator: Adobe Illustrator 24.3.0, SVG Export Plug-In . SVG Version: 6.00 Build 0)  -->
<svg version="1.1" id="Layer_1" xmlns:sketch="http://www.bohemiancoding.com/sketch/ns"
	 xmlns="http://www.w3.org/2000/svg" xmlns:xlink="http://www.w3.org/1999/xlink" x="0px" y="0px" viewBox="0 0 103 103"
	 style="enable-background:new 0 0 103 103;" xml:space="preserve">
<style type="text/css">
	.st0{fill:#BE6028;}
	.st1{fill:#F9E27B;}
	.st2{fill:#F1B61C;}
	.st3{fill:#D66E27;}
	.st4{fill:#6B3E1E;}
	.st5{fill:#9A4C24;}
	.st6{fill:#FBDA37;}
	.st7{fill:none;stroke:#030303;stroke-width:0.2738;stroke-miterlimit:10;}
	.st8{fill:#E7D170;}
	.st9{fill:#DBB82A;}
	.st10{fill:#F78D36;}
	.st11{fill:#F8E289;}
	.st12{fill:none;}
</style>
<g>
	<path class="st0" d="M44.7,58.9c0,0-1.9,19.6-0.3,20.5c1.5,0.9,3,1.8,4.5,1.1c1.5-0.7-0.2-18.9,2.4-19.6c2.5-0.6,3.5,0.4,3.5,0.4
		s-0.4,18.7,0.7,18.5c1.1-0.2,4.3,1,4.1-0.8c-0.2-1.9,2.3-20.6,0-22.7C57.2,54.4,44.7,58.9,44.7,58.9z"/>
	<path class="st1" d="M33,76.6L50.3,81l46.4-8.9c0,0-3.1,24-46.9,24S8,72.1,8,72.1L33,76.6z"/>
	<path class="st2" d="M36,66.1c0,0,1,6.8,1,10c0,3.2-0.7,7.4,0,7.3c0.7-0.1,3.7,0.7,4.5-0.5c0.8-1.3-0.2-9.5-0.8-11.6
		c-0.7-2.1,0.7-4.1,2.5-4.8c1.8-0.7,3,0.3,3,3s0.2,4.4,0,6.4c-0.2,2-0.7,5.3,0.1,6s4.4,1,4.3,0c-0.2-1-0.4-19.2-2.7-20.6
		C45.6,59.8,36,66.1,36,66.1z"/>
	<path class="st3" d="M77.4,64.5c0,0,0,0.4,0,1.3c0,0.9,0.1,1.9,0.8,1.9c0.8,0,0-1.2,0-1.2s1,0.6,1.1,1.6c0.1,1,2.3,1.5,2.1,0
		c-0.2-1.5-0.5-4-2-4.2C77.9,63.7,77.4,64.5,77.4,64.5z"/>
	<path class="st2" d="M33.6,42.1c0,0-3.8,2.6-3.9,3.7c-0.1,1,4.3,2.5,4.9,1.8c0.6-0.8,2.2-4.3,1.8-4.9
		C35.9,42.1,33.6,42.1,33.6,42.1z"/>
	<path class="st4" d="M61.4,82.4c0,0-1.2,1.6-3.2,1.7c-2,0.1-2.4,0.8-2.6,1.3c-0.2,0.5-1.3,3.1,4.3,2s4.9-2.4,4.9-2.4
		s-0.5-3.1-1-3.1C63.3,81.9,61.4,82.4,61.4,82.4z"/>
	<path class="st4" d="M68.8,85c-1.9,1.3-2.1,3.5-0.8,3.6c1.3,0.1,4.4,1.3,5.1-0.7c0.7-1.9,0.5-4.3,0.5-4.3l-0.8-2.2L70.4,82
		c0,0,0.3,1.2-0.2,1.7C69.7,84.3,68.8,85,68.8,85z"/>
	<path class="st2" d="M49.8,36.1c0,0,1.6-0.5,2.6-0.5s2.3,0.5,2.3,0.5s0.2,0.7,1.4,0.7c1.3,0,2-0.9,5,0.5c2.9,1.4,15,7.7,15,7.7
		s-2.1,0.8-6,0.6c-3.9-0.3-11.1-4.1-11.1-4.1s1.7,11.8,1.7,14.6c0,2.7-3.8,3.5-3.8,3.5l-4.9-0.9l-4.2,1.3l-3.8-3.5
		c0,0-0.6-6,0.8-9.6c1.4-3.7,1.9-6.4,1.9-6.4s-4.3,5-6.3,5c-2,0-3.8-4.3-3.8-4.3s10-5,11.2-5C48.9,36.1,49.4,36.6,49.8,36.1z"/>
	<path class="st3" d="M35.2,43.3c0,0-7.7,0.9-5.6,12.2c2.2,11.2,2.6,9.5,2.6,9.5s2.8-0.7,3-1.9c0.2-1.2-3.6-9.5-2-11.4
		c1.6-1.9,0.5,13.1,1.5,14.1c1,1,13.6-0.9,14.2-3.2c0.7-2.2-7.9-20.3-9.8-20.2C37.1,42.4,35.7,43.1,35.2,43.3z"/>
	<path class="st5" d="M45.1,29.1c0,0,0.4,2.4,1.3,3.5c1,1,2.1,1.9,2.1,1.9s-0.3-1,0.3-0.9c0.7,0.1-0.3,0.3,0.6,0.8
		c0.8,0.5,3.5,1.3,5.7,0.2c2.2-1.1,4.2-2,4.3-3.1s2.7-5.1,0.8-6.7c-1.3-1.1-10.8-2.7-14.9-1.1C43.4,24.4,45.1,29.1,45.1,29.1z"/>
	<g>
		<path class="st5" d="M25.7,42.1c0,0,3.2,3.3,9.1,0.4c1.1-0.5,3.1-0.4,3.1-0.4s3.7-0.9,5.5-2.5c1.5-1.3,1.3-3.1,1.3-5.8l-8.3,4.7
			L25.7,42.1z"/>
		<path class="st6" d="M27.9,46.7c-0.4,1.3-2,2.5,0,3.3c2,0.8,2-0.3,2-1c0-0.7,1.4,0.5,1.6-0.9c0.1-1.4-1-3.8-2.2-2.6
			C27.9,46.8,27.9,46.7,27.9,46.7z"/>
	</g>
	<path class="st8" d="M35,42.1c0,0-0.7,2.4,0,2.6c0.7,0.3,2.1,0.5,3,0s-1.4-1.6-0.7-3.2C38.1,40,35,42.1,35,42.1z"/>
	<g>
		<polygon class="st3" points="53.8,41 51.6,41 51.6,43.1 49.4,43.1 49.4,45.3 51.6,45.3 51.6,47.5 53.8,47.5 53.8,45.3 56,45.3 
			56,43.1 53.8,43.1 		"/>
	</g>
	<g>
		<path class="st3" d="M64.9,37.3c0,0-0.4,1-0.1,1.7c1.3,2.2,3.3,3.6,6.2,3.6c3.8-2.8,3.8-4.9,4.2-7.8c0.3-2.1-1.6-5.6-3-7.8
			c-0.4-0.1-0.8-0.1-1.2-0.1c-1.2,0-2.3,0.3-3.3,0.8c-1.2,1.6-2.4,3.5-2.7,4.7c-0.7,2.6-0.5,3.7-0.5,3.7"/>
		<path class="st0" d="M72,27c1.3,2.1,3.2,5.7,3,7.8c-0.4,3-0.4,5.1-4.2,7.8h0.1c4.3,0,7.8-3.5,7.8-7.8C78.6,30.8,75.7,27.5,72,27z"
			/>
	</g>
	<g>
		<path class="st6" d="M53.7,35.4c-0.4,0.1-0.8,0.2-1.6,0.1c-0.7,0-1.2-0.1-1.5-0.3c-0.1,0.5-0.2,1.1,0.1,1.3c0.7,0.5,2.5,1.4,3,0
			C53.8,36.2,53.8,35.9,53.7,35.4z"/>
		<path class="st9" d="M53.7,35.4c-0.2-1.3-1.2-2.6-1.2-2.6h-1c0,0-0.7,1.3-0.8,2.4c0.4,0.2,0.8,0.2,1.5,0.3S53.3,35.5,53.7,35.4z"
			/>
	</g>
	<path class="st5" d="M64.3,27.8c0,0-1.9,1.3,0.8,1.4c2.6,0.1,4.3-1,4.9-1.4s1.2,2.1,2.6,2.1s2.3,1.3,2.7,0c0.4-1.3-0.3,2.4,1.1,3
		c1.4,0.6-0.5,3.2,0,3.7c0.5,0.5-1,2.4,0,2.4s3.5-1.9,3.8-3.9c0.3-2-0.8-3.2-0.8-3.2s1.6-1.9,0.8-3.2c-0.7-1.3-2.9-2.1-2.9-2.1
		s0.2-1.9-2.7-1.8c-2.8,0.1-5,0.7-5,0.7s-0.8-1.3-3-0.7c-2.1,0.6-0.9,1.6-0.9,1.6L64.3,27.8z"/>
	<g>
		<path class="st9" d="M48.4,23.5c1.1,1.9,1.9,1.9,1.9,1.9s-0.1-3.8,1.9-4.4c1.3-0.3,2.5-1.1,3.2-1.6c-0.8-0.3-1.9-0.5-2.8-0.5
			c-1.1,0-2,0.2-3,0.6C48.7,20.7,47.8,22.5,48.4,23.5z"/>
		<path class="st6" d="M55.3,19.2c-0.7,0.5-1.9,0.4-3.2,0.8c-2,0.5-1.9,5.3-1.9,5.3s-0.8,0.1-1.9-1.9c-0.6-1,0.3-2.8,1.3-4.2
			c-1.9,0.8-3.5,2.4-4.3,4.3c0.1,3.2,0.6,6.6,1,7.8c1.4,1.9,3.7,3.1,6.2,3.1c1.7,0,2.2-0.3,4.2-1.3c1-1,1.6-1.9,2.2-3.5
			c0.4-1.3,0.6-4.7,0.7-6.7C58.7,21.3,57.2,19.9,55.3,19.2z"/>
		<path class="st9" d="M44.9,24.4c1.1,1.9,1.9,1.9,1.9,1.9s-0.1-3.8,1.9-4.4c1.3-0.3,2.5-1.1,3.2-1.6c-0.8-0.3-1.9-0.5-2.8-0.5
			c-1.1,0-2,0.2-3,0.6C45.2,21.6,44.3,23.4,44.9,24.4z"/>
	</g>
	<path class="st3" d="M45,28.7c0,0-2-2.4-1.4-4.8c0.5-2.4-1.1-5,2.2-6.1c3.3-1.1,0.4-2.9,6.8-1.8c6.4,1.1,4.9,4.3,4.9,4.3
		s3.7-1.5,3.7,1.8c0.1,3.3,1,4.3-0.7,5.5c-1.6,1.3,0.2-1.8-1.6-3.9c-1.9-2.2-2.5-1.5-2.5-1.5s-0.8-3.8-3.7-3c-2.8,0.8-3.2,5-3.2,5
		s-1.5-0.3-1.6-1.9c-0.1-1.6-2.3,1.9-1.4,3.3c0.9,1.6-1.6,1.3-1.6,0.5C44.7,25.3,45,28.7,45,28.7z"/>
	<path class="st10" d="M49.4,18.3c0,0-1.5,2.2-1.1,3.5c0.4,1.3,0.5,1.6,0.5,1.6s-0.7-1.6,0-3C49.5,19.2,49.4,18.3,49.4,18.3z"/>
	<path class="st10" d="M46.9,17.7c0,0-1.9,0.8-2.3,1.6c-0.4,0.8-0.3,2.8-0.3,2.8s0.2-1.9,0.9-2.5C45.9,19,46.9,17.7,46.9,17.7z"/>
	<g>
		<path class="st8" d="M31.4,36.7c-1.5-2.6-1-6.5-0.4-9.4c-2.5,1.3-4.1,3.9-4.1,7c0,4.3,3.5,7.8,7.8,7.8c0.4,0,0.8-0.1,1.2-0.1
			C34.7,41,32.9,39.3,31.4,36.7z"/>
		<path class="st11" d="M40.7,29.1c-1.4-1.6-3.5-2.7-5.9-2.7c-1.3,0-2.6,0.3-3.8,1c-0.7,2.9-1.1,6.8,0.4,9.4
			c1.5,2.5,3.3,4.3,4.5,5.3c1.9-0.3,3.7-1.3,4.9-2.7C42,36.5,41.4,32.1,40.7,29.1z"/>
	</g>
	<path class="st0" d="M61.2,64.3c0,0-2.7,15.2-0.1,17.6c2.5,2.4,3.3,0,3.3,0s-1.1-14.3,2-14.4c3.1-0.1,3.5,0.2,3.5,0.2
		s-2,14.5,0.2,15.3c2.2,0.8,3.6-0.1,3.6-0.1s2.4-16.3,0.7-18.1C72.8,63.1,61.2,64.3,61.2,64.3z"/>
	<g>
		<path class="st10" d="M31.4,26c0,0-1.9-1.9-3.8,0.4c-2,2.3-0.5,14.2-4.8,13.1s2.8,5,5.9,3.5c3.1-1.5,2.8-1.6,2.8-1.6
			s-3-1.8-3.2-2.8c0,0,3.3-1.7,3.9-6.5C32.2,30.5,32.1,27.9,31.4,26C31.4,26,31.4,26,31.4,26z"/>
		<path class="st3" d="M44.7,33.8c0,0-1.6,0.7-2-2.6c-0.5-3.3-2.4-9.1-7-7.4c-3.3,1.2-4,1.9-4.2,2.2c0.7,2,0.8,4.5,0.8,6.2
			c0-0.1,0.1-0.3,0.1-0.4c0.5-5,2.5-3.3,2.9-3.1c0.4,0.3-0.5-2.4,2.7-1.6c3.2,0.8,1.9,8.5,4.4,9C44.8,36.4,44.7,33.8,44.7,33.8z"/>
	</g>
	<path class="st4" d="M69.5,44.2c0,0-5.4,1.5-7.1,5.5c-1.8,4-4.9,11.9-4.4,12.7c0.4,0.7,2.2,3.7,3.2,2.7c1-0.9,3.5-14.7,4.4-14.7
		s-6.7,13.5-5.2,14.2c1.5,0.7,2.2,2.7,9.3,1.8c7-0.9,6.4-2.2,6.4-2.2s-2.8-13-1.4-13.3c1.3-0.2,1.4,14.9,2.8,14.9
		c1.3,0,3.2-1.4,3.2-1.4S79,47.3,76.7,45.8C74.2,44.2,69.5,44.2,69.5,44.2z"/>
	<path class="st3" d="M68.9,45.3c-0.5-0.5-0.2-0.1-0.5-0.5c1.1-0.7,1-3.8,1.1-4.3c0.1-0.6,2.4,1.3,2.4,1.3c0.1-0.5,0.1,3-0.1,2.8
		C71,45.3,69.9,46.3,68.9,45.3z"/>
	<path class="st6" d="M77.9,45c0,0-2.8-1.6-3.1,0c-0.3,1.6-3.5,4.7,0,3.5c3.5-1.1,1.8-2,1.8-2s-1.9,3.5,0,3.2
		c1.9-0.2,2.5,0.2,2.4-1.3C78.8,46.9,79.7,48.2,77.9,45z"/>
	<path class="st0" d="M37.5,81.9c0,0-1.3,3.1,0,3.9c1.3,0.8,0.3,3.5,4.7,2.2s-1.1-5.6-1.1-5.6L37.5,81.9z"/>
	<path class="st0" d="M46.2,81.9c0,0-1,1.5,0,2.2c1,0.7,3.9,1.4,5.6,0c1.6-1.4-2.4-2.5-2.4-2.5L46.2,81.9z"/>
	<path class="st11" d="M33.1,64.6c0,0-1.4,0.6,0,2c1.4,1.4,2.1,2.5,2.1,2.5s1-1.3,0.8-3c-0.3-1.7-0.8-3.1-0.8-3.1L33.1,64.6z"/>
	<polygon class="st10" points="12.2,70.5 17.9,68.4 29.6,70.5 24.6,73.7 	"/>
	<g>
		<polygon class="st3" points="24.6,73.7 12.2,70.5 14.8,77.8 25.2,79.4 24.8,73.5 		"/>
		<polygon class="st0" points="24.8,73.5 25.2,79.4 25.4,79.4 29.6,77 29.6,70.5 		"/>
	</g>
	<polygon class="st10" points="94.5,66.5 88.1,66.5 81.5,72.1 81.5,72.4 88.1,72.6 	"/>
	<g>
		<polygon class="st3" points="88.1,72.6 81.5,72.4 81.5,77.8 88.5,78.6 		"/>
		<polygon class="st0" points="94.7,66.5 94.5,66.5 88.1,72.6 88.5,78.6 94.7,72.4 		"/>
	</g>
</g>
<rect class="st12" width="103" height="103"/>
</svg>
