<?xml version="1.0" encoding="utf-8"?>
<!-- Generator: Adobe Illustrator 19.1.0, SVG Export Plug-In . SVG Version: 6.00 Build 0)  -->
<svg version="1.1" id="Layer_1" xmlns="http://www.w3.org/2000/svg" xmlns:xlink="http://www.w3.org/1999/xlink" x="0px" y="0px"
	 viewBox="0 0 170.1 170.1" style="enable-background:new 0 0 170.1 170.1;" xml:space="preserve">
<style type="text/css">
	.st0{fill:#CEC8B0;}
	.st1{fill:#F7EFCD;}
	.st2{fill:#FFFFFF;}
	.st3{fill:#C9C9C9;}
	.st4{fill:none;stroke:#CBCBCB;stroke-width:2;stroke-miterlimit:10;}
	.st5{fill:none;stroke:#616161;stroke-width:2;stroke-miterlimit:10;}
	.st6{fill:none;stroke:#898989;stroke-width:2;stroke-miterlimit:10;}
	.st7{fill:#DEDEDD;}
	.st8{fill:#616161;}
	.st9{fill:#64C8CB;}
	.st10{fill:#7A7A7A;}
	.st11{fill:#B5B5B5;}
	.st12{fill:#9B9B9B;}
	.st13{fill:#D7D6D6;}
	.st14{fill:none;stroke:#9B9B9B;stroke-width:4;stroke-linecap:round;stroke-miterlimit:10;}
</style>
<path class="st0" d="M115.1,139.3H26.8c-6,0-10.9-4.9-10.9-10.9v-107c0-6,4.9-10.9,10.9-10.9h88.2c6,0,10.9,4.9,10.9,10.9v107
	C126,134.4,121.1,139.3,115.1,139.3z"/>
<path class="st1" d="M112.7,136.1H29.2c-6,0-10.9-4.9-10.9-10.9V22.4c0-6,4.9-10.9,10.9-10.9h83.6c6,0,10.9,4.9,10.9,10.9v102.8
	C123.6,131.2,118.8,136.1,112.7,136.1z"/>
<rect x="28.8" y="18.3" class="st2" width="84.2" height="110.5"/>
<g>
	<path class="st3" d="M77.2,9.1c-2,0-3-0.8-3.5-1.7c2.1-0.7,3.5-1.9,3.5-3.3c0-2.2-3.5-4-7.8-4s-7.8,1.8-7.8,4
		c0,1.5,1.7,2.8,4.1,3.5c-0.5,1.3-1.6,2.4-4.1,2.4c-5.7,0-7.6,4.2-7.6,4.2h31.3C85.3,14.1,82.2,9.1,77.2,9.1z M69.3,5.9
		c-2.4,0-4.3-0.8-4.3-1.8c0-1,1.9-1.8,4.3-1.8c2.4,0,4.3,0.8,4.3,1.8C73.6,5.1,71.7,5.9,69.3,5.9z"/>
</g>
<g>
	<g>
		<g>
			<polygon class="st4" points="46.2,95.6 45.1,105.9 35.1,104.7 36.3,94.7 43.2,95.5 			"/>
		</g>
	</g>
</g>
<g>
	<g>
		<g>
			<polygon class="st4" points="46.6,72.9 45.5,83.1 35.5,81.9 36.7,72 43.7,72.8 			"/>
		</g>
	</g>
</g>
<g>
	<polyline class="st5" points="37.9,29.4 40.9,32.8 47.5,24.8 	"/>
	<g>
		<g>
			<polyline class="st4" points="45.8,30.1 45.1,36.4 35.1,35.2 36.3,25.2 43.2,26.1 			"/>
		</g>
	</g>
</g>
<g>
	<polyline class="st5" points="37.9,52.6 40.9,55.9 47.5,48 	"/>
	<g>
		<g>
			<polyline class="st4" points="45.8,53.2 45.1,59.5 35.1,58.4 36.3,48.4 43.2,49.2 			"/>
		</g>
	</g>
</g>
<line class="st6" x1="57.7" y1="31.9" x2="89.5" y2="31.9"/>
<line class="st6" x1="57.7" y1="55.9" x2="89.5" y2="55.9"/>
<line class="st6" x1="57.7" y1="77.1" x2="89.5" y2="77.1"/>
<line class="st6" x1="57.7" y1="102.3" x2="89.5" y2="102.3"/>
<g>
	<g>
		<path class="st3" d="M166.4,93.4l-73,26.5c-3.5,2-7.9,0.7-9.9-2.7l-1.9-3.3c1.4,2.5,4.1,3.8,6.8,3.6c1.1-0.1,2.1-0.3,3.1-0.9
			l73-26.5c0.6-0.3,1.1-0.7,1.5-1.2l1.6-0.6c1-0.6,1.8-1.3,2.4-2.2c0.3,2.2-0.5,4.5-2.1,6.1C167.5,92.7,167,93.1,166.4,93.4z"/>
		<path class="st3" d="M88.5,117.5c-0.7-0.6-1.3-1.3-1.8-2.1l-1.9-3.3l-3.6-6.3c-1.6-2.9-1-6.5,1.2-8.7l-1.6,0.6
			c-3.5,2-4.7,6.4-2.7,9.9l3.6,6.3C83.1,116.4,85.8,117.7,88.5,117.5z"/>
		<path class="st3" d="M164.6,90.1c0.6-0.3,1.1-0.7,1.5-1.2l-71.4,26c-3.5,2-7.9,0.7-9.9-2.7l1.9,3.3c0.5,0.8,1.1,1.5,1.8,2.1
			c1.1-0.1,2.1-0.3,3.1-0.9L164.6,90.1z"/>
		<path class="st3" d="M170,86.1c-0.1-0.9-0.4-1.8-0.9-2.6l-1.9-3.3c1.6,2.9,1,6.5-1.2,8.7l1.6-0.6C168.7,87.8,169.4,87,170,86.1z"
			/>
		<path class="st7" d="M81.2,105.8l3.6,6.3c2,3.5,6.4,4.7,9.9,2.7l71.4-26c2.3-2.2,2.9-5.8,1.2-8.7l-3.6-6.3c-2-3.5-6.4-4.7-9.9-2.7
			l-71.4,26C80.2,99.3,79.6,102.9,81.2,105.8z"/>
	</g>
	<path class="st3" d="M152.1,88.6l-5.4-9.5c-0.6-1.1-0.2-2.5,0.9-3.1l7.1-2.5c1.1-0.6,2.5-0.2,3.1,0.9l5.4,9.5
		c0.6,1.1,0.2,2.5-0.9,3.1l-7.1,2.5C154.1,90.1,152.7,89.7,152.1,88.6z"/>
	<path class="st3" d="M137.1,94.5l-5.4-9.5c-0.6-1.1-0.2-2.5,0.9-3.1l7.1-2.5c1.1-0.6,2.5-0.2,3.1,0.9l5.4,9.5
		c0.6,1.1,0.2,2.5-0.9,3.1l-7.1,2.5C139.2,96,137.8,95.6,137.1,94.5z"/>
	<path class="st3" d="M106.6,105.3l-5.4-9.5c-0.6-1.1-0.2-2.5,0.9-3.1l7.1-2.5c1.1-0.6,2.5-0.2,3.1,0.9l5.4,9.5
		c0.6,1.1,0.2,2.5-0.9,3.1l-7.1,2.5C108.6,106.8,107.2,106.4,106.6,105.3z"/>
	<path class="st3" d="M121.8,99.9l-5.4-9.5c-0.6-1.1-0.2-2.5,0.9-3.1l7.1-2.5c1.1-0.6,2.5-0.2,3.1,0.9l5.4,9.5
		c0.6,1.1,0.2,2.5-0.9,3.1l-7.1,2.5C123.9,101.4,122.5,101,121.8,99.9z"/>
	<path class="st3" d="M91.4,110.8l-5.4-9.5c-0.6-1.1-0.2-2.5,0.9-3.1l7.1-2.5c1.1-0.6,2.5-0.2,3.1,0.9l5.4,9.5
		c0.6,1.1,0.2,2.5-0.9,3.1l-7.1,2.5C93.4,112.3,92,111.9,91.4,110.8z"/>
	<polygon class="st8" points="156.3,77.9 152.8,79 152.3,78 155.8,77 	"/>
	<polygon class="st8" points="159.5,83.6 156.1,84.7 155.5,83.8 159,82.7 	"/>
	<g>
		<path class="st8" d="M150.7,81.5c0.7-0.4,1.5-0.2,1.9,0.3s0,1.4-0.7,1.8L150.7,81.5z"/>
	</g>
	<polygon class="st8" points="141.7,83.7 138.3,84.9 137.7,83.9 141.2,82.8 	"/>
	<polygon class="st8" points="145,89.4 141.5,90.6 141,89.6 144.5,88.6 	"/>
	<g>
		<path class="st8" d="M136.2,87.3c0.7-0.4,1.5-0.2,1.9,0.3c0.3,0.6,0,1.4-0.7,1.8L136.2,87.3z"/>
	</g>
	<polygon class="st8" points="126.4,89 123,90.2 122.4,89.2 125.9,88.2 	"/>
	<polygon class="st8" points="129.6,94.8 126.2,95.9 125.7,94.9 129.2,93.9 	"/>
	<g>
		<path class="st8" d="M120.9,92.7c0.7-0.4,1.5-0.2,1.9,0.3c0.3,0.6,0,1.4-0.7,1.8L120.9,92.7z"/>
	</g>
	<polygon class="st8" points="111.2,94.5 107.7,95.6 107.2,94.7 110.7,93.6 	"/>
	<polygon class="st8" points="114.4,100.2 111,101.3 110.4,100.4 113.9,99.3 	"/>
	<g>
		<path class="st8" d="M105.6,98.1c0.7-0.4,1.5-0.2,1.9,0.3c0.3,0.6,0,1.4-0.7,1.8L105.6,98.1z"/>
	</g>
	<polygon class="st8" points="95.9,99.9 92.5,101.1 91.9,100.1 95.4,99.1 	"/>
	<polygon class="st8" points="99.2,105.7 95.7,106.8 95.2,105.8 98.7,104.8 	"/>
	<g>
		<path class="st8" d="M90.4,103.6c0.7-0.4,1.5-0.2,1.9,0.3c0.3,0.6,0,1.4-0.7,1.8L90.4,103.6z"/>
	</g>
</g>
<path class="st9" d="M104.9,22.9c-3.7,0.5-2.9,4.9-2.9,4.9s-0.7,0.6-1.8,0.6s1.3,1.1,2.4,0.5c1.1-0.7-0.9,1.5-0.9,1.5s0,0.5,1.2,0.4
	c1.2-0.1,3,6.1,9.8,4.1c7.7-2.3,5.2-6.5,5.2-6.5h-4.1c0,0,2.3-0.4,2.7-1.9c0.6-2.4,0-3,0-3s-5.2,3.5-6.6,3.2
	C108.6,26.4,110.5,22.1,104.9,22.9z"/>
<g>
	<path class="st10" d="M3.3,97.4c-0.4,0-0.5,1.4-0.5,1.4L4,98.8C4,98.8,3.7,97.3,3.3,97.4z"/>
	<path class="st11" d="M0.6,133.7c0,0.1,0,0.1,0,0.2c0.1,0.4,0.2,0.7,0.3,1.1c1.3-1,3.7-2.1,7-1.2l0-1.5
		C4.6,131.5,1.9,132.8,0.6,133.7z"/>
	<g>
		<path class="st10" d="M8,135C8,135,8,134.9,8,135l0-1.2c-3.3-1-5.7,0.2-7,1.2c0.1,0.5,0.2,0.9,0.3,1.3C2.6,135.4,5,134.4,8,135z"
			/>
		<path class="st12" d="M1.2,136.3c0.3,0.9,0.9,1.5,2.8,1.4c3-0.2,3.8-2.2,4-2.6C5,134.4,2.6,135.4,1.2,136.3z"/>
	</g>
	<g>
		<path class="st11" d="M2.8,98.8L0,103.4c1.2-0.2,3.1-0.3,5.4,0.2l-2-4.9L2.8,98.8z"/>
		<path class="st11" d="M7.5,104.4L7.5,104.4L4,98.8l-0.3,0l2.1,5C6.4,103.9,6.9,104.1,7.5,104.4z"/>
		<path class="st13" d="M3.7,98.8l-0.4,0l2,4.9c0.1,0,0.3,0.1,0.4,0.1L3.7,98.8z"/>
	</g>
	<g>
		<path class="st12" d="M7.9,127.8l-0.4-23.4c-3.3-1.3-5.9-1.2-7.5-0.9l0,0c0,0,0,16.5,0.3,25.2C3.2,127.3,5.9,127.3,7.9,127.8z"/>
		<path class="st12" d="M0.3,129.6c0.1,2,0.2,3.5,0.3,4.1c1.3-0.9,4-2.2,7.3-1.4l-0.1-3.7C4.8,127.7,2.1,128.6,0.3,129.6z"/>
		<path class="st10" d="M0.3,128.7c0,0.3,0,0.6,0,0.9c1.8-1,4.5-1.8,7.6-0.9l0-0.9C5.9,127.3,3.2,127.3,0.3,128.7z"/>
		<path class="st10" d="M0.3,126.8c0,0.3,0,0.6,0,0.9c1.8-1,4.5-1.8,7.6-0.9l0-0.9C5.9,125.5,3.2,125.4,0.3,126.8z"/>
	</g>
</g>
<path class="st14" d="M80,110.8c0,0-73.3,37.4,28.2,34.8c16.7-0.4,25.5,11.9,25.5,11.9"/>
</svg>
