<?xml version="1.0" encoding="utf-8"?>
<!-- Generator: Adobe Illustrator 19.1.0, SVG Export Plug-In . SVG Version: 6.00 Build 0)  -->
<svg version="1.1" id="Layer_1" xmlns="http://www.w3.org/2000/svg" xmlns:xlink="http://www.w3.org/1999/xlink" x="0px" y="0px"
	 viewBox="0 0 170.1 170.1" style="enable-background:new 0 0 170.1 170.1;" xml:space="preserve">
<style type="text/css">
	.st0{fill:#C2DBD3;}
	.st1{fill:#DFECE7;}
	.st2{fill:#FFFFFF;}
	.st3{fill:#C9C9C9;}
	.st4{fill:none;stroke:#CBCBCB;stroke-width:2;stroke-miterlimit:10;}
	.st5{fill:none;stroke:#616161;stroke-width:2;stroke-miterlimit:10;}
	.st6{fill:none;stroke:#898989;stroke-width:2;stroke-miterlimit:10;}
	.st7{fill:#7A7A7A;}
	.st8{fill:#B5B5B5;}
	.st9{fill:#9B9B9B;}
	.st10{fill:#D7D6D6;}
</style>
<path class="st0" d="M128.7,152.4H42.1c-6,0-10.9-4.9-10.9-10.9V36.4c0-6,4.9-10.9,10.9-10.9h86.6c6,0,10.9,4.9,10.9,10.9v105.2
	C139.6,147.5,134.8,152.4,128.7,152.4z"/>
<path class="st1" d="M126.4,149.3h-82c-6,0-10.9-4.9-10.9-10.9v-101c0-6,4.9-10.9,10.9-10.9h82c6,0,10.9,4.9,10.9,10.9v101
	C137.4,144.4,132.5,149.3,126.4,149.3z"/>
<rect x="43.9" y="33.1" class="st2" width="83" height="108.9"/>
<g>
	<path class="st3" d="M91.6,24.1c-1.9,0-2.9-0.8-3.4-1.7c2.1-0.7,3.4-1.9,3.4-3.3c0-2.2-3.5-4-7.7-4s-7.7,1.8-7.7,4
		c0,1.5,1.6,2.8,4,3.5c-0.5,1.3-1.6,2.4-4,2.4c-5.6,0-7.5,4.1-7.5,4.1h30.9C99.5,29.1,96.5,24.1,91.6,24.1z M83.8,20.9
		c-2.3,0-4.2-0.8-4.2-1.8c0-1,1.9-1.8,4.2-1.8c2.3,0,4.2,0.8,4.2,1.8C88,20.1,86.1,20.9,83.8,20.9z"/>
</g>
<g>
	<g>
		<g>
			<polygon class="st4" points="61,109.4 59.9,119.5 50.1,118.3 51.3,108.5 58.1,109.3 			"/>
		</g>
	</g>
</g>
<g>
	<polyline class="st5" points="52.9,44.1 55.8,47.4 62.3,39.6 	"/>
	<g>
		<g>
			<polyline class="st4" points="60.7,44.8 59.9,51 50.1,49.8 51.3,40 58.1,40.8 			"/>
		</g>
	</g>
</g>
<g>
	<polyline class="st5" points="52.9,66.9 55.8,70.3 62.3,62.4 	"/>
	<g>
		<g>
			<polyline class="st4" points="60.7,67.6 59.9,73.8 50.1,72.6 51.3,62.8 58.1,63.6 			"/>
		</g>
	</g>
</g>
<g>
	<polyline class="st5" points="52.9,89.8 55.8,93.1 62.3,85.2 	"/>
	<g>
		<g>
			<polyline class="st4" points="60.7,90.4 59.9,96.6 50.1,95.5 51.3,85.7 58.1,86.5 			"/>
		</g>
	</g>
</g>
<line class="st6" x1="72.4" y1="45.5" x2="103.7" y2="45.5"/>
<line class="st6" x1="72.4" y1="70.3" x2="103.7" y2="70.3"/>
<line class="st6" x1="72.4" y1="91.1" x2="103.7" y2="91.1"/>
<line class="st6" x1="72.4" y1="115.9" x2="103.7" y2="115.9"/>
<g>
	<path class="st7" d="M18.1,95.3c0.4,0,0.5-1.4,0.5-1.4l-1.2-0.1C17.4,93.8,17.7,95.3,18.1,95.3z"/>
	<path class="st8" d="M20.7,59.5c0-0.1,0-0.1,0-0.2c-0.1-0.4-0.2-0.7-0.3-1.1c-1.3,1-3.7,2.1-6.9,1.1l0,1.5
		C16.8,61.7,19.5,60.3,20.7,59.5z"/>
	<g>
		<path class="st7" d="M13.5,58.2C13.4,58.2,13.4,58.3,13.5,58.2l0,1.2c3.2,1,5.6-0.2,6.9-1.1c-0.1-0.4-0.1-0.9-0.3-1.3
			C18.8,57.8,16.4,58.8,13.5,58.2z"/>
		<path class="st9" d="M20.1,56.9c-0.3-0.9-0.9-1.5-2.7-1.4c-3,0.2-3.8,2.2-3.9,2.6C16.4,58.8,18.8,57.8,20.1,56.9z"/>
	</g>
	<g>
		<path class="st8" d="M18.6,93.9l2.8-4.6c-1.2,0.2-3,0.3-5.3-0.2l2,4.8L18.6,93.9z"/>
		<path class="st8" d="M14,88.4L14,88.4l3.4,5.4l0.3,0L15.6,89C15.1,88.8,14.5,88.6,14,88.4z"/>
		<path class="st10" d="M17.7,93.8l0.4,0l-2-4.8c-0.1,0-0.3-0.1-0.4-0.1L17.7,93.8z"/>
	</g>
	<g>
		<path class="st9" d="M13.6,65.3L14,88.4c3.2,1.3,5.8,1.2,7.4,0.9l0,0c0,0,0-16.3-0.3-24.9C18.2,65.8,15.5,65.7,13.6,65.3z"/>
		<path class="st9" d="M21,63.5c-0.1-2-0.2-3.5-0.3-4.1c-1.3,0.8-3.9,2.2-7.2,1.3l0.1,3.6C16.6,65.3,19.3,64.5,21,63.5z"/>
		<path class="st7" d="M21.1,64.4c0-0.3,0-0.6,0-0.9c-1.8,1-4.5,1.8-7.5,0.9l0,0.9C15.5,65.7,18.2,65.8,21.1,64.4z"/>
		<path class="st7" d="M21.1,66.2c0-0.3,0-0.6,0-0.9c-1.8,1-4.5,1.8-7.5,0.9l0,0.9C15.5,67.6,18.2,67.7,21.1,66.2z"/>
	</g>
</g>
</svg>
