<?xml version="1.0" encoding="utf-8"?>
<!-- Generator: Adobe Illustrator 19.1.0, SVG Export Plug-In . SVG Version: 6.00 Build 0)  -->
<svg version="1.1" id="Layer_1" xmlns="http://www.w3.org/2000/svg" xmlns:xlink="http://www.w3.org/1999/xlink" x="0px" y="0px"
	 viewBox="-176 299 328.7 240.7" style="enable-background:new -176 299 328.7 240.7;" xml:space="preserve">
<style type="text/css">
	.st0{fill:#EDE6CE;}
	.st1{fill:#F4EFDC;}
	.st2{fill:#565656;}
	.st3{fill:#6D6D6D;}
	.st4{fill:#6B654D;}
	.st5{fill:#877B58;}
	.st6{fill:#7F6808;}
	.st7{fill:#1A8A8E;}
	.st8{fill:#186666;}
	.st9{fill:#A08332;}
	.st10{fill:#B79C44;}
	.st11{fill:#C47C4B;}
	.st12{fill:#E8CF64;}
	.st13{fill:none;}
	.st14{fill:#9B926D;}
	.st15{fill:#23BCC1;}
	.st16{fill:#F9E48A;}
	.st17{fill:#1F6D6D;}
	.st18{fill:#C1E293;}
	.st19{fill:#C1AB4D;}
	.st20{fill:#B29312;}
	.st21{fill:#CCAA17;}
	.st22{fill:#DBBC3B;}
	.st23{fill:none;stroke:#9B745A;stroke-linecap:round;stroke-miterlimit:10;}
	.st24{fill:#8BC544;}
	.st25{fill:#81B23B;}
</style>
<g>
	<path class="st0" d="M-127.3,468.5c2.2,3.6,4.6,7.4,7.2,11.6c0.3-3.3,0.6-5.5,0.6-5.5l38.9-3c3.7-1.5,8.5-2.7,12.8-0.9
		c6.8,2.8-1,42.1-3.5,53.9c12.7,6.2,26.7,9.9,41.5,10.6c17.9,0.9,35-2.8,50.6-10c-2.9-7.3-8-29.9-8-29.9c19-2.5,22.9,1.4,23.3,4.3
		c5.1-3.7,15.3-9.8,27.7-10.5c0.5,0-22.4,11.6,3.4,10.5c11.3-14.6,18.8-19.9,23-31.4C-1.9,442.4-79.2,454.3-127.3,468.5z"/>
	<path class="st1" d="M90.2,468.3c1.9-5.3,3.1-12,3.5-21.6c1.8-37.1,10-93.4-11.2-118.3c-20-23.5-68.4-16.5-99.8-18.1
		c-64.8-3.1-120.1,32.8-123.6,105c-1.2,24.6,3.9,37,13.6,53.2C-79.2,454.3-1.9,442.4,90.2,468.3z"/>
</g>
<path class="st2" d="M32.5,502.5c0,0,1.3-1.2,3.6-2.9c-0.4-3-4.3-6.8-23.3-4.3c0,0,5.1,22.6,8,29.9c2.6-1.2,5.2-2.5,7.7-3.9
	L32.5,502.5z"/>
<path class="st3" d="M36.1,499.6c0.2,1.6-0.5,2.9-0.5,2.9v14.4c11.2-7.4,21.2-16.8,29.7-27.7c-0.5,0-0.9,0-1.4,0
	C51.5,489.8,41.3,495.9,36.1,499.6z"/>
<path class="st3" d="M28.5,521.3c2.4-1.4,4.8-2.8,7.2-4.4v-14.4c0,0,0.7-1.3,0.5-2.9c-2.3,1.7-3.6,2.9-3.6,2.9L28.5,521.3z"/>
<path class="st4" d="M-67.8,470.7c-4.2-1.8-9.1-0.6-12.8,0.9l5-0.4c0,0-3.9,6.9-4.3,19.8c-0.3,7.8-1.3,19.6-2,27.7
	c3.4,2.2,7,4.1,10.6,5.9C-68.8,512.8-60.9,473.5-67.8,470.7z"/>
<path class="st5" d="M-89.5,513.6l3.2-38.9c0,0,2.3-1.6,5.7-3l-38.9,3c0,0-0.4,2.1-0.6,5.5C-111.9,493.2-101.5,504.6-89.5,513.6z"/>
<path class="st5" d="M-89.5,513.6c2.4,1.8,5,3.5,7.5,5.2c0.8-8.2,1.8-20,2-27.7c0.4-12.9,4.3-19.8,4.3-19.8l-5,0.4
	c-3.3,1.4-5.7,3-5.7,3L-89.5,513.6z"/>
<path class="st6" d="M67.2,388.6c0,0-38.5,1.9-52.2,0c-2.1-0.3-13-1.2-13-1.2s13.1-45.6,7.6-52.7"/>
<g>
	<path class="st7" d="M42.9,410.7c-7.7,1.1-4.9,4.8-9.2,13.8C28.4,435.1,7.5,436.8-4,437.6c-10.4,0.7-12.4,5.1-12.6,5.9
		c13.1-1,32.8-3.5,43.8-10.3C36.6,427.3,40.9,417.9,42.9,410.7z"/>
	<path class="st8" d="M48.4,410.3c-2.3,0-4.1,0.1-5.6,0.3c-2,7.3-6.3,16.6-15.7,22.5c-10.9,6.8-30.7,9.4-43.8,10.3
		c0,0.1,0,0.1,0,0.1l1.5,5.6c0,0-3.6,15.1,9.3,13.8c12.9-1.3,45.8-14,58.3-23.5C65,430,63.1,410.1,48.4,410.3z"/>
</g>
<g>
	<path class="st7" d="M62.3,482.4c7.8-10.8-4.5-25.5-4-32.5s-3.9-18.3-6.7-28c-2.8-9.8-2.6-16.4,3.2-20.4c2.9-2,7.8-2,12-1.5
		c-8.7-12.2-29.9-4.9-29.9-4.9c-13.3,11.9-24.8,12.6-24.8,31.4c0,7.2,4.9,15.4,4,27.2C14.7,472.5,9.5,495,9.5,495
		s12.3,14.7,29.3,12.3c17-2.3,34-15.7,34-15.7s-0.1-0.2-0.3-0.5C65.3,490.5,58,488.4,62.3,482.4z"/>
	<path class="st8" d="M69.1,425.7c2.7-12.9,1.2-20.9-2.3-25.8c-4.1-0.5-9-0.6-12,1.5c-5.8,4-5.9,10.6-3.2,20.4
		c2.8,9.8,7.2,21,6.7,28s11.8,21.8,4,32.5c-4.3,6,3,8.1,10.2,8.8C70.7,487.8,60.6,466.7,69.1,425.7z"/>
</g>
<g>
	<path class="st9" d="M-82.8,378.3c0-4.9-0.5-10.4,2-11.9c4.6-2.8-8.8-1.9-8.8-1.9s-2.9,3.7-5.4,7.5
		C-92.6,374.3-88.3,377.4-82.8,378.3z"/>
	<path class="st10" d="M-95,372c-2,3.1-3.8,6.3-3.4,7.5c0.9,2.7,6,8.6,12.4,7.2c2.9-0.7,3.3-4.4,3.3-8.5
		C-88.3,377.4-92.6,374.3-95,372z"/>
</g>
<path class="st9" d="M-45.8,446.4l6.7-2.8l0.3,5.8l5-5.4l14.5,5.4l2.6,7.5c0,0,0.1,1.7-0.8,2.4c-0.9,0.7-2,1-2,1s0.7,1.5-0.6,2.6
	s-2.5,1.6-2.5,1.6s0.2,1.2-1.1,2s-2.2,0.5-2.2,0.5s-0.7,0.8-1.2,1.2c-0.5,0.3-1.9,0.9-2.6,0.6s-2.5-2.6-2.5-2.6L-45.8,446.4z"/>
<path class="st11" d="M-47.8,460.1c0,0,0.8,3.2,2,3.6c1.3,0.5,1.8-0.5,1.8-0.5s1,2.3,2.6,2.3c1.7,0,1.6-0.8,1.6-0.8s0.2,1.4,1.7,1.4
	s1.9-0.4,1.9-0.4s0,1.9,2.2,1.8s3.8-2.1,3.8-2.1l-1.5-4.7l-2.5-3.3l-5-1.9l-7.8,1.3L-47.8,460.1z"/>
<path class="st12" d="M-12.1,442.8c0,0-3.9,0.6-6.3,0.6s-5.1,0-5.1,0s-4.7-3-7.6-3s-5.8,1.2-5.8,1.2s-4.2,1.7-4.4,3s0.6,2,0.5,2.6
	c-0.1,0.6-1.8,2.9,0.9,3.8c2.7,0.9,3.8-0.3,3.9-2c0.1-1.7,0-2.6,2.7-3.2c2.7-0.6,2.9,1.1,6.5,1.8c3.6,0.7,6.1,3.5,7.5,5
	c1.4,1.4,2.6,4.2,2.6,4.2h4.5c0,0,2.3-2.6,2.3-7.2S-12.1,442.8-12.1,442.8z"/>
<g>
	<path class="st13" d="M-31,446.1c0.5,0.2,1.1,0.5,1.6,0.8C-30,446.5-30.5,446.2-31,446.1z"/>
	<path class="st10" d="M-19.1,454.2c-1.9-1.6-2.2-3.3-4.4-4.3c-1-0.4-3.2-1.4-5.5-2.5c-0.3-0.1-0.6-0.3-0.8-0.4
		c-0.5-0.3-0.8-0.3-1.3-0.5c-0.5-0.1-0.9-0.3-1.7-0.1c-2.7,0.6-2.6,1.4-2.7,3.1c-0.1,1.7-1.7,3.3-4.4,2.4s-1.2-3.7-1.1-4.4
		c0.1-0.6-0.7-1.4-0.5-2.6c-2.9,0.7-5.2,1.6-5.2,1.6s-6.8-0.6-7-0.6s-1.9,1.2-1.9,6c0,5.3,1.4,7.1,1.4,7.1s2.3-0.7,3.1,0
		c0.6,0.6,1,1.5,4.3,2.5c-0.2-0.4-0.3-0.8-0.3-1.2c-0.1-1.9,1.9-1.5,1.9-1.5s1.1-0.3,0.9,1c-0.1,0.7,0,1.7,0.3,2.4
		c0.1,0.2,0-0.2,0.1-0.4c0.1-0.6,0-0.9,0.3-1.8c1.2-3.9,3.3-2.3,3.3-2.3s1.9,0.2,1,2.4c-0.5,1.1-0.5,2-0.3,3
		c0.1,0.2,0.2,0.3,0.2,0.1c0.4-1.2,0.4-2,0.5-3c0.6-3,2.6-2.8,3.3-1.7c0.6,0.9,0.3,1.8-0.3,2.7c-0.3,0.5-0.5,1.4-0.2,2.8
		c0,0.1,0.3,0.2,0.4,0.1c0.2-0.1,0-0.5,0-0.8c0.1-2.2,0.4-2.8,1.4-2.5c1.9,0.5,1.4,1.2,1.4,2.5s0.8,1.5,1.3,1.5
		c0.2,0,0.2,0.5,0.2,0.8c1.1,0.8,1.7,3.6,3.6,2.2c0.3-0.2,0.8-0.5,1.3-0.8c0-0.8-0.3-2-1.5-3.4c-2-2.3-2.2-2.7-1.8-2.8
		c0.3-0.1,2.9,3.6,3.6,4.6c0.2,0.3,0.3,0.9,0.7,1c0.9,0.1,2.1-0.7,2.5-1.6c0.1-0.2-0.1-0.6-0.5-1.1c-0.9-1.4-2-3.2-2.5-3.6
		s-1.5-1.8-1.3-1.9c0.2-0.2,1.6,1.5,2,2c0.4,0.5,2.4,3.9,3.1,3.7c0.9-0.2,2-1.6,2.3-2.4c0-0.2,0.1-0.3,0.1-0.4
		c-0.3-0.8-1.1-2.3-2.5-3.6c-1.9-1.7-4.2-3.7-4.2-3.7s2.3,0.9,4.5,3s1.7,3.3,3.2,3c0.3-0.1,1-0.6,1.1-0.8
		C-17,457.3-17.2,455.8-19.1,454.2z"/>
	<path class="st14" d="M-23.1,465.1L-23.1,465.1C-23.2,465.2-23.2,465.2-23.1,465.1z"/>
	<path class="st14" d="M-16.8,457.6c0-0.1,0-0.1,0-0.1L-16.8,457.6z"/>
</g>
<path class="st12" d="M-44.9,463.3c-0.4,0.3-2.2-1.2-2.3-2.9c-0.1-1.7,1.7-1.3,1.7-1.3s0.7-0.2,0.6,0.9
	C-45.1,461.1-44.1,462.7-44.9,463.3z"/>
<path class="st12" d="M-40.5,464.5c-1.1,0.9-4-0.9-2.9-4.3s2.6-2.1,2.6-2.1s1.6,0.2,0.8,2.1S-39.6,463.7-40.5,464.5z"/>
<path class="st12" d="M-36.2,458.7c-0.6-0.9-2.2-0.9-2.6,1.7s-1,4.8,0.5,5.1c1.5,0.3,1.8-0.7,1.8-0.7s-0.5-3,0-3.8
	S-35.7,459.4-36.2,458.7z"/>
<path class="st12" d="M-34.4,461.2c-0.8-0.2-1.1,0.3-1.2,2.2c-0.1,1.9-0.1,3.3,1.2,3.5s1.6-0.1,2-0.4s0.8-1.5,0.4-1.6
	c-0.5,0-1.4-0.5-1.4-1.6C-33.5,462.3-32.8,461.7-34.4,461.2z"/>
<path class="st12" d="M52.8,499.4c0,0-6.1,15.3-2.5,24c2.9,6.8,2,6,7.5,4.8s11.5,2.5,11.8-2s-3.5-10.2-2.4-14.8
	c1.1-4.5,4.4-6.7,2.4-12S52.8,499.4,52.8,499.4z"/>
<path class="st15" d="M61,397.1c0,0-10,2-10.3,11c-0.3,9,13.7,40.6,13.2,49s-15.9,38.7-13.2,41c2.7,2.3,20.7,8.7,22.2,0
	c1.5-8.7,14.5-35.4,10.5-51.2S76.9,397.1,61,397.1z"/>
<ellipse class="st16" cx="-89.2" cy="352.5" rx="3" ry="8.3"/>
<g>
	<path class="st10" d="M-53.6,356.1c0,0.3,0.1,0.6,0.1,1c-1.2,0.5-2.5,0.9-3.8,1.2c-3.8,0.9-17.1-0.1-23-0.1
		c-5.8,0.1-5.9,4.7-9.6,6.2c-3.8,1.6-9-9.1-9-9.1s-0.1,6.2-0.2,9c-0.1,2.8-2.5-2.8-2.5-2.8s-0.9,0.9-1.8,2.3
		c-3.4-3.9-5.9-8.6-7.1-14c-4-17.3,6.8-34.5,24.1-38.5c6.5-1.5,12.9-0.9,18.7,1.3c2.9,1.1,5.5,2.6,8,4.4c4.4,6.8,8.5,14.9,8.6,21.4
		C-50.9,352.1-53.7,352.6-53.6,356.1z"/>
	<path class="st10" d="M-52.6,360.8c-0.9,1.4-2,2.7-3.1,3.9c-4.2,4.5-9.8,7.8-16.2,9.3c-11.9,2.8-23.8-1.5-31.4-10.1
		c0.9-1.4,1.8-2.3,1.8-2.3s2.4,5.6,2.5,2.8c0.1-2.8,0.2-9,0.2-9s5.3,10.7,9,9.1c3.7-1.6,3.8-6.2,9.6-6.2s19.2,1,23,0.1
		c1.3-0.3,2.5-0.7,3.8-1.2C-53.3,358.2-53,359.4-52.6,360.8z"/>
</g>
<path class="st9" d="M-61.1,347.4c0,0,3.5,2.7,3.4,7.3c-0.1,4.6-5.3,3.9-5.3,3.9s2.9-4.7,1.7-5.7C-62.5,351.8-61.1,347.4-61.1,347.4
	z"/>
<path class="st17" d="M-69.5,336.7c0,0-1.7-2.3-4.3-2.4c-2.6-0.1-4.2-0.5-6.4,0.9s-1.8,1.9,0.1,1.8c1.9-0.1,1.6-0.9,3.5-0.6
	s2.1,0.5,4,0.5C-70.6,336.8-69.5,336.7-69.5,336.7z"/>
<path class="st17" d="M-59.6,338.5c0,0,1.7-2.1,3.7-2c2.1,0.1,3.5-0.1,5,1.5c1.5,1.5,1.2,2-0.3,1.8c-1.5-0.3-1.2-1.1-2.7-1
	s-1.8,0.3-3.3,0.1C-58.7,338.8-59.6,338.5-59.6,338.5z"/>
<path class="st18" d="M-77.4,402.5c0,0,1.4-8.7,1.3-15.3c-3.3-1.8-8.1-3.9-14.9-6.7c-2.8-1.2-5.3-1.8-7.4-2c2,1.1,4.1,2.6,6.1,4.6
	C-85,390-77.4,402.5-77.4,402.5z"/>
<g>
	<path class="st17" d="M-52.2,327c-3.4,1-6.1-1.8-7.3-4.1c-0.4-0.8-0.7-1.6-0.7-2.1c-0.1-2.2-2.2,4.5-8.5,0.4
		c-5.5-3.6-2.7,1.7-6.7,1.2l-0.7-0.2c-0.4-0.1-0.9-0.3-1.5-0.5c-3.6-1.5-4.5-2.4-5.5-2.6c-1.1-0.2-2.2,0.5-6.5,2.3
		c-8.4,3.5,1.7,5.5-2.4,8c-4.1,2.5-4.8,2.4-8.4,8.8c-3.6,6.4,7.6,5.1,4.8,10.3c-2.9,5.2,4.8,7.6-1,8.1c-5.7,0.6-1.1-2.1-6.2-6.5
		c-5.1-4.4-2.1,3.3-2.1,3.3s-5.4,4.5-6.7-3.9c0,0-7.7-4.5-4.7-9.5c2.9-5,0.2-8.7,1.8-12.8c1.5-4.1-0.3,0.5,5.2-5.5
		c5.5-6-1.1-6.3,5.7-9.4c6.7-3.1,0.2-6.3,10.8-5c10.7,1.3,3.1-4.5,10.2-3.8s6.5,5.3,8.8,4.4c2.3-0.9-2-3.2,3.8-0.9
		c5.8,2.4,8.3-2.3,11.3,1.1c3,3.3,0.2,4.3,3.7,6.6c3.5,2.3,5.7,4.6,4.5,6.4C-51.8,322.9-47.7,325.7-52.2,327z"/>
</g>
<g>
	<path class="st12" d="M31.6,399.6c-1.3,1-9.3,19.2,11.4,3.5c3.8-2.9,5.2-10.1,4.4-16.2c-4.9,2.9-10.9,4.9-15.1,6
		C32.3,396.3,32.2,399.2,31.6,399.6z"/>
	<path class="st19" d="M39.7,376.4c-9,0-8,4.7-8,4.7s0.5,6.5,0.6,11.8c4.2-1.2,10.2-3.1,15.1-6C46.6,381.2,44,376.4,39.7,376.4z"/>
</g>
<g>
	<path class="st12" d="M28.8,323.3c-10.7,0-17.4,2-23.3,10c-0.7,3.9-5.7,4.6-2.5,16.1c2,7.2,1.7,18,1.7,20.8c0,1.4-0.5,3.2-1,5.2
		c5.9,7.4,14.9,12.1,25.1,12.1c17.7,0,32.1-14.4,32.1-32.1S46.6,323.3,28.8,323.3z"/>
</g>
<path class="st19" d="M19.2,335.6c0,0,11.8,2.8,17.6,1.9c4.7-0.7,11.4-6.1,13.9,0.2C52.3,341.8,58.6,326.2,19.2,335.6z"/>
<g>
	<path class="st20" d="M54.3,383.6l12.9,5c0,0,5.8-36.3-7.8-55.7c6.5,25.9-5.8,42.7-5.9,49.9C54.2,384.1,54.3,383.6,54.3,383.6z"/>
	<path class="st21" d="M59.4,332.9c-5-7.1-12.6-12-24.1-12c-42.8,0-29.8,11.9-29.8,11.9s7.3,5.9,19.4,0c12.1-5.9,19-3.8,22.9,0
		s-0.8,23.8,2.5,38.3c1.6,7.2,2.6,10.4,3.2,11.7C53.6,375.6,65.9,358.8,59.4,332.9z"/>
</g>
<path class="st22" d="M12.8,334.7c0,0,11.2,4,21.8,0s18.7-0.8,21.7,6s-2.5-14.6-17.8-14.6S12.8,334.7,12.8,334.7z"/>
<path class="st21" d="M57.4,355.6c0,0,1.5-0.2,1.1,15.1c-0.2,5.6-0.1,6.9-0.1,6.9s3.2-21.8,2.7-30.3
	C60.6,338.7,57.4,355.6,57.4,355.6z"/>
<path class="st23" d="M20.5,377.4c0,0,12.1,3.9,21.8-3.9"/>
<g>
	<path class="st24" d="M-89.5,469.8c-8.9-1.8-18.2-33.1-18.2-33.1l38.9,21.3c-0.6-2.6-0.9-5-0.3-6.7c2.2-6.3-1.4-56.1-1.8-59.3
		c-0.2-1.6-1.9-3.1-5.3-5c0.1,6.6-1.3,15.3-1.3,15.3S-85,390-92.2,383c-2-2-4.1-3.5-6.1-4.6c-8.4-0.8-11.7,4.4-11.7,4.4
		s12.9,1.5-2.4,17s-13.6,73.9-13.6,73.9s2.2,1.7,9.3,4.7c7.1,3,23.2,1.5,34.5,0.1c11.3-1.4,11.5-3,16-4.4c1.6-0.5,1.4-2.9,0.5-6
		C-72.3,469.3-83.4,471-89.5,469.8z"/>
	<path class="st25" d="M-89.5,469.8c6,1.2,17.2-0.5,23.8-1.7c-0.8-3-2.3-6.7-3.1-10.1l-38.9-21.3C-107.6,436.7-98.4,468-89.5,469.8z
		"/>
</g>
<path class="st18" d="M-53.3,444.9c0,0-31.5,3.9-43.5-12.2c-12-16.2,3.6-34.6,3.6-34.6s7.8-7.1-4.5-15.5
	c-12.2-8.4-17.1,4.2-17.1,4.2s-22.1,24.1,0.6,55.2s34.3,25.9,42.4,24.6c5-0.8,19.3-4.8,19.3-4.8s-0.9-6.7,0.1-8.3
	C-51.5,451.9-53.3,444.9-53.3,444.9z"/>
</svg>
