<svg id="Layer_3" data-name="Layer 3" xmlns="http://www.w3.org/2000/svg" viewBox="0 0 63 63"><defs><style>.cls-1{fill:#717171;}.cls-2{fill:#f3f3f3;}.cls-3{fill:#ececec;}.cls-4{fill:#c4c4c4;}.cls-5{fill:#d7d6d6;}.cls-6{opacity:0.4;}.cls-7{fill:#fff;}.cls-8{fill:#ef7b22;}.cls-9{fill:#f5eb01;}.cls-10{fill:#e42b27;}.cls-11{fill:#9dc850;}.cls-12{fill:#5bc1ee;}</style></defs><title>helper</title><circle class="cls-1" cx="31.5" cy="31.5" r="31.5"/><circle class="cls-2" cx="31.5" cy="31.5" r="29.6"/><path class="cls-3" d="M54,9,14.1,52.2A29.59,29.59,0,1,0,54,9Z" transform="translate(-4.7 -1.3)"/><circle class="cls-4" cx="31.3" cy="27.9" r="13.8"/><path class="cls-4" d="M22.7,24.6s-.3-5.6,1.9-6.9,7.8-6.3,13.5-4.6,6.7,4.7,9.4,4.2,2.2,5.7-2,3.6" transform="translate(-4.7 -1.3)"/><path class="cls-4" d="M23,59.6v0Z" transform="translate(-4.7 -1.3)"/><path class="cls-4" d="M29.6,43.8s-6.5,3.3-12.9,11.6a27.82,27.82,0,0,0,6.5,4.2C23.5,54.6,24.8,47.5,29.6,43.8Z" transform="translate(-4.7 -1.3)"/><path class="cls-4" d="M44,44.3c4.6,3.5,5.9,9.6,6.2,14.4a29.68,29.68,0,0,0,5.4-3.9A49.54,49.54,0,0,0,44,44.3Z" transform="translate(-4.7 -1.3)"/><path class="cls-5" d="M50.2,58.8c-.3.2-.6.3-.9.5a28.91,28.91,0,0,1-13.5,3.2,29.44,29.44,0,0,1-12.6-2.8h0c.3-5,1.7-12.1,6.4-15.8A20.24,20.24,0,0,0,36.5,45a21.46,21.46,0,0,0,6.7-1.2,5.55,5.55,0,0,1,.8.6C48.5,47.8,49.8,53.9,50.2,58.8Z" transform="translate(-4.7 -1.3)"/><g class="cls-6"><circle class="cls-7" cx="31.6" cy="51.9" r="4.6"/></g><path class="cls-8" d="M40,53H37V51h2.29A3,3,0,0,1,40,53Z" transform="translate(-4.7 -1.3)"/><path class="cls-9" d="M41,52.9a3.48,3.48,0,0,1-.65,2.1c-.11.1-.11.2-.22.3s-.22.3-.33.4-.22.2-.33.2a6.27,6.27,0,0,1-1.85.9.42.42,0,0,0-.33.1c-.22,0-.44.1-.76.1A3.75,3.75,0,0,1,35,56.7V55h4V53h2Z" transform="translate(-4.7 -1.3)"/><path class="cls-10" d="M39,53v2H33.29a3.52,3.52,0,0,1-.57-2Z" transform="translate(-4.7 -1.3)"/><path class="cls-11" d="M39.5,51H35V49.8a3.19,3.19,0,0,1,1.4-.3,2,2,0,0,1,.7.1.37.37,0,0,1,.3.1,3.15,3.15,0,0,1,1.7.9c.1.1.2.2.3.2A.35.35,0,0,1,39.5,51Z" transform="translate(-4.7 -1.3)"/><path class="cls-12" d="M35,49.5V53H32.6a3.77,3.77,0,0,1,.7-2.1c.1-.1.1-.2.2-.3A4.18,4.18,0,0,1,35,49.5Z" transform="translate(-4.7 -1.3)"/></svg>