<?xml version="1.0" encoding="utf-8"?>
<!-- Generator: Adobe Illustrator 19.1.0, SVG Export Plug-In . SVG Version: 6.00 Build 0)  -->
<svg version="1.1" id="Layer_1" xmlns="http://www.w3.org/2000/svg" xmlns:xlink="http://www.w3.org/1999/xlink" x="0px" y="0px"
	 viewBox="-176 299 259 195" style="enable-background:new -176 299 259 195;" xml:space="preserve">
<style type="text/css">
	.st0{fill:#DDDDDD;}
	.st1{fill:#848484;}
	.st2{fill:none;stroke:#848484;stroke-width:3;stroke-miterlimit:10;}
	.st3{fill:#A8A8A8;}
	.st4{fill:#C1C1C1;}
	.st5{fill:#EAEAEA;}
	.st6{fill:#F7F7F7;}
	.st7{fill:#E6F4C6;}
	.st8{fill:#D5E5AC;}
	.st9{fill:#CECECE;}
	.st10{fill:#333333;}
</style>
<rect x="-155.9" y="445" class="st0" width="198.6" height="4"/>
<ellipse class="st0" cx="-54.4" cy="447.6" rx="74.1" ry="10.2"/>
<path class="st1" d="M68.2,485.4v3.7c0,0-0.2,5-4.7,5h-234.9c-4.5,0-4.7-5-4.7-5v-3.7l0.1-0.6c0.2,1.4,1.2,4.2,4.6,4.2H63.6
	c3.4,0,4.3-2.9,4.6-4.2L68.2,485.4z"/>
<path class="st2" d="M33.2,473c0,0,75.9-13.8,35.1-20.4s-93.8-10-93.8-10"/>
<path class="st3" d="M-55.1,452.6c0,0-60.9-1.2-53.4-8.2s53.4-7,53.4-7s45.9,0,53.4,7S-55.1,452.6-55.1,452.6z"/>
<path class="st1" d="M-55.9,416.6c17,0,6.5,26,6.5,26h-10.2C-59.6,442.6-71.4,416.6-55.9,416.6z"/>
<g>
	<path class="st4" d="M45.9,304.3L41.2,425h-197l-4.7-120.7c0-0.1,0-0.2,0-0.3c0.2-0.9,1.6-5,9.3-5H36.5c7.7,0,9.1,4.1,9.3,5
		C45.9,304.1,45.9,304.2,45.9,304.3z"/>
</g>
<g>
	<path class="st5" d="M31.8,304.3h-47.4c14,33-7.2,66.8-50.8,65.5c-44.4-1.4-66.6,30.3-76,49.9H33.5l4.3-111.3
		C37.8,308.3,38.5,304.3,31.8,304.3z"/>
	<path class="st6" d="M-66.4,369.7c43.5,1.4,64.8-32.5,50.8-65.5h-41.7c0,0,0,0,0,0h-89.1c-6.7,0-6,4-6,4l4.4,111.3h5.7
		C-132.9,400-110.7,368.4-66.4,369.7z"/>
</g>
<g>
	<path class="st7" d="M-66.4,369.7c27.3,0.9,45.9-12.2,52.4-30.1h-128.5l-2.4,58.2h16.3C-115.8,382.7-96.1,368.8-66.4,369.7z"/>
	<path class="st8" d="M33.2,339.6h-47.1c-6.6,18-25.1,31-52.4,30.1c-29.7-0.9-49.5,13-62.1,28.1l152.7-2.2L33.2,339.6z"/>
</g>
<g>
	<g>
		<path d="M-136.4,377.2v-25.5h1.7v25.7c0,0.8,0.4,1.2,0.8,1.2c0.2,0,0.3,0,0.7-0.1l0.3,1.4c-0.4,0.1-0.7,0.2-1.2,0.2
			C-135.7,380.2-136.4,379.3-136.4,377.2z"/>
		<path d="M-128.8,370.4c0-6.1,4-9.9,8.1-9.9c4.4,0,7.2,3.2,7.2,8.6c0,0.5,0,0.9-0.1,1.4H-127c0.1,4.7,2.8,8.1,7,8.1
			c2,0,3.6-0.7,5-1.7l0.7,1.3c-1.5,0.9-3.2,1.8-5.9,1.8C-124.9,380.2-128.8,376.5-128.8,370.4z M-115.1,369.2c0-4.8-2.1-7.2-5.5-7.2
			c-3.2,0-6,2.7-6.4,7.2H-115.1z"/>
		<path d="M-110.3,375.1c0-4.1,3.7-6.1,12.1-7c0-2.8-0.7-5.9-4.4-5.9c-2.5,0-4.7,1.2-6,2.2l-0.8-1.3c1.3-0.9,3.9-2.4,7-2.4
			c4.4,0,5.9,3.2,5.9,7.2v12H-98l-0.2-2.4h-0.1c-1.9,1.5-4.2,2.9-6.6,2.9C-107.8,380.2-110.3,378.6-110.3,375.1z M-98.2,375.7v-6.3
			c-7.7,0.9-10.3,2.7-10.3,5.6c0,2.7,1.8,3.7,4,3.7C-102.4,378.7-100.6,377.7-98.2,375.7z"/>
		<path d="M-89.9,361h1.5l0.2,3.5h0.1c1.2-2.3,3.1-3.9,5.3-3.9c0.7,0,1.2,0.1,1.9,0.4l-0.4,1.6c-0.6-0.2-1-0.3-1.7-0.3
			c-1.7,0-3.7,1.3-5.1,4.8v12.7h-1.7V361z"/>
		<path d="M-77.5,361h1.5l0.2,2.9h0.1c1.9-1.9,3.9-3.3,6.4-3.3c3.9,0,5.6,2.3,5.6,7.2v12h-1.7V368c0-4-1.2-5.8-4.3-5.8
			c-2.2,0-3.8,1.2-6.1,3.5v14.1h-1.7V361z"/>
	</g>
	<g>
		<path d="M-26.9,376.4l3-3.6c1.7,1.4,3.9,2.5,5.8,2.5c2.2,0,3.3-0.9,3.3-2.3c0-1.5-1.3-1.9-3.4-2.8l-3.1-1.3c-2.4-1-4.7-3-4.7-6.4
			c0-3.9,3.5-7,8.4-7c2.7,0,5.6,1.1,7.6,3.1l-2.7,3.4c-1.6-1.2-3-1.9-4.9-1.9c-1.8,0-3,0.8-3,2.1c0,1.4,1.6,1.9,3.6,2.8l3,1.2
			c2.8,1.2,4.7,3.1,4.7,6.4c0,3.9-3.2,7.3-8.9,7.3C-21.3,379.8-24.5,378.7-26.9,376.4z"/>
		<path d="M-5.3,355.9h5.8l3.8,10.5c0.5,1.4,0.9,2.9,1.4,4.3h0.1c0.5-1.4,0.9-3,1.3-4.3l3.7-10.5h5.8v23.5h-4.8v-8.6
			c0-2.3,0.4-5.7,0.7-8h-0.1l-1.9,5.6l-3.4,9H4.1l-3.4-9l-1.9-5.6h-0.1c0.3,2.3,0.7,5.7,0.7,8v8.6h-4.8V355.9z"/>
	</g>
</g>
<g>
	<path class="st9" d="M-137.3,453.3h-14.8l-16.5,22C-145.6,471.7-139,460.8-137.3,453.3z"/>
	<path class="st4" d="M44.7,453.3h-182.1c-1.7,7.5-8.3,18.4-31.3,22l-7.1,9.5c0.2,1.4,1.2,4.2,4.6,4.2H63.8c3.4,0,4.3-2.9,4.6-4.2
		L44.7,453.3z"/>
</g>
<polygon class="st1" points="-144.9,457.4 -161.9,482.3 51.1,482.3 37.1,457.4 "/>
<g>
	<path class="st10" d="M-43.3,354.1c-7.3,0-13.3,5.9-13.3,13.3s5.9,13.3,13.3,13.3c7.3,0,13.3-5.9,13.3-13.3S-36,354.1-43.3,354.1z
		 M-43.3,376.2c-4.9,0-8.8-3.9-8.8-8.8c0-4.9,3.9-8.8,8.8-8.8c4.9,0,8.8,3.9,8.8,8.8C-34.5,372.2-38.4,376.2-43.3,376.2z"/>
</g>
<polygon class="st10" points="-49.3,373.7 -47.8,375.1 -53.6,380.9 -52.9,381.6 -62.4,391.1 -65.3,388.3 -55.8,378.8 -55.1,379.5 
	"/>
</svg>
