<?xml version="1.0" encoding="utf-8"?>
<!-- Generator: Adobe Illustrator 19.1.0, SVG Export Plug-In . SVG Version: 6.00 Build 0)  -->
<svg version="1.1" id="Layer_1" xmlns="http://www.w3.org/2000/svg" xmlns:xlink="http://www.w3.org/1999/xlink" x="0px" y="0px"
	 viewBox="0 0 231.2 300.5" style="enable-background:new 0 0 231.2 300.5;" xml:space="preserve">
<style type="text/css">
	.st0{fill:#F7E8AC;}
	.st1{fill:#BE6028;}
	.st2{fill:#F9E27B;}
	.st3{fill:#F1B61C;}
	.st4{fill:#D66E27;}
	.st5{fill:#6B3E1E;}
	.st6{fill:#9A4C24;}
	.st7{fill:#FBDA37;}
	.st8{fill:none;stroke:#030303;stroke-width:0.5;stroke-miterlimit:10;}
	.st9{fill:#E7D170;}
	.st10{fill:#DBB82A;}
	.st11{fill:#F78D36;}
	.st12{fill:#F8E289;}
	.st13{enable-background:new    ;}
	.st14{fill:#535454;}
	.st15{fill:none;}
	.st16{fill:#030303;}
</style>
<rect class="st0" width="231.2" height="300.5"/>
<g>
	<path class="st1" d="M102.3,186.1c0,0-3.4,35.8-0.6,37.4c2.8,1.6,5.5,3.2,8.2,2s-0.3-34.6,4.3-35.8c4.5-1.1,6.4,0.8,6.4,0.8
		s-0.7,34.2,1.2,33.8c2-0.4,7.8,1.8,7.5-1.5c-0.3-3.4,4.2-37.6,0-41.4C125.2,177.9,102.3,186.1,102.3,186.1z"/>
	<path class="st2" d="M81,218.3l31.6,8.1l84.8-16.3c0,0-5.7,43.8-85.6,43.8s-76.5-43.8-76.5-43.8L81,218.3z"/>
	<path class="st3" d="M86.5,199.2c0,0,1.8,12.4,1.8,18.2s-1.2,13.6,0,13.4s6.7,1.2,8.3-1c1.5-2.3-0.4-17.3-1.5-21.2
		c-1.2-3.8,1.2-7.5,4.5-8.7c3.2-1.2,5.5,0.6,5.5,5.5s0.4,8.1,0,11.6c-0.4,3.7-1.2,9.6,0.2,11s8.1,1.8,7.8,0s-0.8-35.1-4.9-37.7
		C103.9,187.7,86.5,199.2,86.5,199.2z"/>
	<path class="st4" d="M162.1,196.3c0,0,0,0.7,0,2.3s0.2,3.4,1.5,3.4c1.4,0,0-2.1,0-2.1s1.8,1.1,2,2.9c0.2,1.8,4.2,2.7,3.8,0
		c-0.4-2.7-0.9-7.3-3.7-7.6C163,194.9,162.1,196.3,162.1,196.3z"/>
	<path class="st3" d="M82.1,155.4c0,0-7,4.8-7.2,6.7s7.9,4.6,8.9,3.2c1.1-1.4,4-7.9,3.2-8.9C86.3,155.4,82.1,155.4,82.1,155.4z"/>
	<path class="st5" d="M132.9,228.9c0,0-2.1,2.9-5.8,3.1c-3.7,0.2-4.3,1.4-4.7,2.3s-2.4,5.7,7.8,3.7c10.2-2,8.9-4.3,8.9-4.3
		s-1-5.6-1.8-5.6C136.3,228.1,132.9,228.9,132.9,228.9z"/>
	<path class="st5" d="M146.3,233.8c-3.5,2.4-3.8,6.4-1.4,6.6c2.4,0.2,8.1,2.3,9.3-1.2s0.9-7.8,0.9-7.8l-1.4-4l-4.4,0.8
		c0,0,0.6,2.1-0.4,3.1C147.9,232.5,146.3,233.8,146.3,233.8z"/>
	<path class="st3" d="M111.6,144.4c0,0,3-1,4.8-1s4.2,1,4.2,1s0.3,1.2,2.6,1.2c2.3,0,3.7-1.7,9.1,1c5.3,2.6,27.3,14,27.3,14
		s-3.8,1.5-11,1.1c-7.2-0.5-20.3-7.5-20.3-7.5s3.1,21.5,3.1,26.6c0,5-7,6.4-7,6.4l-9-1.7l-7.6,2.3l-7-6.4c0,0-1.1-10.9,1.5-17.6
		s3.4-11.6,3.4-11.6s-7.8,9.1-11.5,9.1s-7-7.8-7-7.8s18.2-9.1,20.4-9.1C110,144.4,110.9,145.3,111.6,144.4z"/>
	<path class="st4" d="M85,157.5c0,0-14.1,1.7-10.2,22.2c4,20.5,4.7,17.3,4.7,17.3s5.2-1.2,5.5-3.4s-6.6-17.3-3.7-20.8
		c2.9-3.4,0.9,24,2.7,25.8s24.9-1.7,26-5.9c1.2-4.1-14.4-37-17.9-36.8C88.5,156,85.9,157.3,85,157.5z"/>
	<path class="st6" d="M103.1,131.7c0,0,0.7,4.4,2.4,6.3c1.8,1.8,3.8,3.5,3.8,3.5s-0.6-1.8,0.6-1.7c1.2,0.1-0.5,0.5,1.1,1.5
		c1.5,0.9,6.4,2.3,10.4,0.3s7.6-3.7,7.8-5.7c0.2-2,5-9.3,1.4-12.2c-2.4-2-19.8-5-27.2-2C99.9,123,103.1,131.7,103.1,131.7z"/>
	<g>
		<path class="st6" d="M67.6,155.4c0,0,5.8,6,16.7,0.8c2-1,5.7-0.8,5.7-0.8s6.7-1.7,10-4.6c2.7-2.4,2.3-5.7,2.3-10.6l-15.1,8.5
			L67.6,155.4z"/>
		<path class="st7" d="M71.7,163.8c-0.8,2.3-3.7,4.5,0,6.1c3.7,1.5,3.7-0.6,3.7-1.8s2.6,1,2.9-1.7c0.2-2.6-1.8-7-4.1-4.7
			C71.7,163.9,71.7,163.8,71.7,163.8z"/>
		<path class="st8" d="M87.1,150.8"/>
		<path class="st8" d="M79.5,149.4"/>
	</g>
	<path class="st9" d="M84.6,155.4c0,0-1.2,4.4,0,4.8c1.2,0.5,3.8,1,5.5,0s-2.6-2.9-1.2-5.8C90.2,151.6,84.6,155.4,84.6,155.4z"/>
	<g>
		<polygon class="st4" points="119,153.3 114.9,153.3 114.9,157.2 110.9,157.2 110.9,161.3 114.9,161.3 114.9,165.3 119,165.3 
			119,161.3 122.9,161.3 122.9,157.2 119,157.2 		"/>
	</g>
	<g>
		<path class="st4" d="M139.2,146.7c0,0-0.7,1.8-0.2,3.1c2.4,4.1,6.1,6.6,11.3,6.6c7-5.1,7-8.9,7.6-14.3c0.5-3.8-3-10.3-5.4-14.2
			c-0.7-0.1-1.5-0.2-2.1-0.2c-2.1,0-4.2,0.5-6,1.4c-2.1,2.9-4.3,6.3-4.9,8.5c-1.2,4.7-1,6.7-1,6.7"/>
		<path class="st1" d="M152.1,127.9c2.3,3.8,5.9,10.4,5.4,14.2c-0.7,5.4-0.7,9.3-7.6,14.3h0.1c7.9,0,14.3-6.4,14.3-14.3
			C164.3,134.8,158.9,128.8,152.1,127.9z"/>
	</g>
	<g>
		<path class="st7" d="M118.7,143.2c-0.7,0.2-1.5,0.3-2.9,0.2c-1.2,0-2.1-0.2-2.7-0.5c-0.2,1-0.3,2,0.1,2.3c1.2,0.9,4.5,2.6,5.5,0
			C119,144.7,119,144,118.7,143.2z"/>
		<path class="st10" d="M118.7,143.2c-0.4-2.3-2.1-4.7-2.1-4.7h-1.8c0,0-1.2,2.4-1.5,4.4c0.7,0.3,1.5,0.4,2.7,0.5
			C117.2,143.5,118.1,143.4,118.7,143.2z"/>
	</g>
	<path class="st6" d="M138.1,129.3c0,0-3.4,2.3,1.5,2.6c4.8,0.2,7.9-1.8,8.9-2.6c1-0.8,2.1,3.8,4.7,3.8s4.2,2.3,4.9,0
		c0.7-2.3-0.6,4.4,2,5.5s-0.9,5.8,0,6.7s-1.8,4.3,0,4.3c1.8,0,6.4-3.4,6.9-7.2c0.6-3.7-1.5-5.9-1.5-5.9s2.9-3.4,1.5-5.9
		c-1.2-2.4-5.3-3.8-5.3-3.8s0.3-3.4-4.9-3.2c-5.1,0.2-9.2,1.2-9.2,1.2s-1.5-2.3-5.4-1.2c-3.8,1.1-1.7,2.9-1.7,2.9L138.1,129.3z"/>
	<g>
		<path class="st10" d="M109,121.5c2,3.4,3.4,3.4,3.4,3.4s-0.1-7,3.5-8.1c2.3-0.6,4.5-2,5.8-3c-1.5-0.6-3.4-1-5.1-1
			c-2,0-3.7,0.4-5.5,1.1C109.6,116.4,107.9,119.6,109,121.5z"/>
		<path class="st7" d="M121.7,113.6c-1.2,1-3.5,0.7-5.8,1.4c-3.7,1-3.5,9.7-3.5,9.7s-1.5,0.1-3.4-3.4c-1.1-1.8,0.6-5.1,2.3-7.6
			c-3.5,1.5-6.4,4.3-7.8,7.8c0.1,5.9,1.1,12.1,1.8,14.2c2.6,3.4,6.7,5.7,11.3,5.7c3.1,0,4.1-0.5,7.6-2.3c1.8-1.8,2.9-3.4,4-6.4
			c0.8-2.3,1.1-8.6,1.2-12.2C127.9,117.5,125.1,114.9,121.7,113.6z"/>
		<path class="st10" d="M102.6,123c2,3.4,3.4,3.4,3.4,3.4s-0.1-7,3.5-8.1c2.3-0.6,4.5-2,5.8-3c-1.5-0.6-3.4-1-5.1-1
			c-2,0-3.7,0.4-5.5,1.1C103.2,117.9,101.6,121.2,102.6,123z"/>
	</g>
	<path class="st4" d="M102.8,130.9c0,0-3.7-4.3-2.6-8.7c1-4.3-2-9.1,4.1-11.2c6.1-2,0.8-5.3,12.4-3.2c11.6,2,8.9,7.9,8.9,7.9
		s6.7-2.7,6.7,3.2c0.1,6,1.8,7.8-1.2,10c-3,2.3,0.4-3.2-3-7.2c-3.4-4-4.6-2.7-4.6-2.7s-1.5-6.9-6.7-5.5c-5.1,1.4-5.8,9.1-5.8,9.1
		s-2.7-0.5-2.9-3.5c-0.1-3-4.2,3.4-2.6,6.1c1.7,2.9-2.9,2.3-3,1C102.3,124.8,102.8,130.9,102.8,130.9z"/>
	<path class="st11" d="M110.9,112c0,0-2.7,4-2,6.4c0.8,2.3,0.9,3,0.9,3s-1.2-3,0-5.5C111.1,113.6,110.9,112,110.9,112z"/>
	<path class="st11" d="M106.4,110.9c0,0-3.4,1.5-4.2,2.9c-0.8,1.5-0.6,5.1-0.6,5.1s0.4-3.4,1.7-4.6
		C104.5,113.2,106.4,110.9,106.4,110.9z"/>
	<g>
		<path class="st9" d="M78.1,145.6c-2.7-4.7-1.8-11.8-0.7-17.1c-4.5,2.4-7.5,7.2-7.5,12.7c0,7.9,6.4,14.3,14.3,14.3
			c0.7,0,1.5-0.1,2.1-0.2C84.1,153.4,80.8,150.3,78.1,145.6z"/>
		<path class="st12" d="M95,131.7c-2.6-2.9-6.4-4.9-10.8-4.9c-2.4,0-4.8,0.6-6.9,1.8c-1.2,5.3-2,12.4,0.7,17.1
			c2.7,4.6,6,7.8,8.2,9.7c3.5-0.5,6.7-2.3,8.9-5C97.4,145.1,96.3,137.2,95,131.7z"/>
	</g>
	<path class="st1" d="M132.4,196c0,0-4.9,27.8-0.2,32.1c4.6,4.3,6.1,0,6.1,0s-2-26.1,3.7-26.3c5.7-0.2,6.4,0.3,6.4,0.3
		s-3.7,26.4,0.4,27.9s6.6-0.1,6.6-0.1s4.3-29.7,1.2-33C153.7,193.7,132.4,196,132.4,196z"/>
	<g>
		<path class="st11" d="M78.1,126c0,0-3.4-3.5-7,0.7c-3.7,4.2-0.9,26-8.8,23.9s5.1,9.1,10.8,6.4c5.7-2.7,5.1-2.9,5.1-2.9
			s-5.5-3.2-5.9-5.1c0,0,6.1-3.1,7.2-11.8c0-3-0.2-7.8-1.4-11.3C78.1,126,78.1,126,78.1,126z"/>
		<path class="st4" d="M102.3,140.3c0,0-2.9,1.2-3.7-4.7c-0.9-6.1-4.4-16.7-12.8-13.6c-6.1,2.1-7.3,3.4-7.6,4
			c1.2,3.7,1.4,8.3,1.4,11.3c0-0.2,0.1-0.5,0.1-0.7c0.9-9.2,4.5-6.1,5.3-5.7c0.8,0.6-0.9-4.3,4.9-2.9c5.8,1.4,3.5,15.6,8.1,16.4
			C102.5,145,102.3,140.3,102.3,140.3z"/>
	</g>
	<path class="st5" d="M147.6,159.3c0,0-9.9,2.7-13,10.1c-3.2,7.3-8.9,21.7-8.1,23.1c0.8,1.2,4,6.7,5.8,4.9
		c1.8-1.7,6.3-26.9,8.1-26.9c1.8,0-12.2,24.7-9.5,26c2.7,1.2,4.1,4.9,17,3.2c12.8-1.7,11.6-4,11.6-4s-5.1-23.8-2.6-24.2
		c2.4-0.4,2.6,27.2,5.1,27.2c2.4,0,5.8-2.6,5.8-2.6s-2.9-31.2-7-34C156.2,159.2,147.6,159.3,147.6,159.3z"/>
	<path class="st4" d="M146.5,161.2c-1-1-0.3-0.1-1-1c2-1.2,1.8-7,2-7.9c0.1-1.1,4.3,2.3,4.3,2.3c0.2-0.9,0.1,5.5-0.2,5.1
		C150.3,161.3,148.4,163,146.5,161.2z"/>
	<path class="st7" d="M162.9,160.6c0,0-5.1-2.9-5.7,0s-6.4,8.5,0,6.4c6.4-2,3.2-3.7,3.2-3.7s-3.4,6.3,0,5.9c3.4-0.4,4.5,0.4,4.3-2.3
		C164.6,164.2,166.3,166.6,162.9,160.6z"/>
	<path class="st1" d="M89.2,228.1c0,0-2.3,5.7,0,7.2c2.3,1.5,0.6,6.3,8.5,4c7.9-2.3-2-10.2-2-10.2L89.2,228.1z"/>
	<path class="st1" d="M105.1,228.1c0,0-1.8,2.7,0,4c1.8,1.2,7.2,2.6,10.2,0s-4.4-4.5-4.4-4.5L105.1,228.1z"/>
	<path class="st12" d="M81.1,196.4c0,0-2.6,1.1,0,3.7s3.8,4.6,3.8,4.6s1.8-2.3,1.4-5.5c-0.5-3.1-1.4-5.6-1.4-5.6L81.1,196.4z"/>
	<polygon class="st11" points="43,207.2 53.3,203.4 74.7,207.2 65.7,213 	"/>
	<g>
		<polygon class="st4" points="65.7,213 43,207.2 47.7,220.5 66.8,223.5 66,212.8 		"/>
		<polygon class="st1" points="66,212.8 66.8,223.5 67.1,223.5 74.7,219.1 74.7,207.2 		"/>
	</g>
	<polygon class="st11" points="193.3,200 181.6,200 169.6,210.1 169.6,210.8 181.6,211 	"/>
	<g>
		<polygon class="st4" points="181.6,211 169.6,210.8 169.6,220.5 182.3,222 		"/>
		<polygon class="st1" points="193.6,200 193.3,200 181.6,211 182.3,222 193.6,210.8 		"/>
	</g>
</g>
<g class="st13">
	<path class="st14" d="M40.3,35.5v2.6c-1-0.6-2-0.8-2.9-0.8c-0.4,0-0.8,0.1-1,0.3C36.1,37.8,36,38,36,38.3c0,0.3,0.1,0.6,0.4,0.8
		c0.3,0.2,0.7,0.4,1.3,0.7c0.4,0.1,0.7,0.3,0.9,0.4c0.2,0.1,0.5,0.3,0.8,0.5c0.3,0.2,0.6,0.4,0.7,0.7c0.1,0.2,0.4,0.5,0.4,0.9
		c0.1,0.4,0.2,0.7,0.2,1.2c0,1.1-0.4,1.9-1.2,2.6c-0.8,0.7-1.8,1-3.1,1c-1.4,0-2.6-0.2-3.4-0.7v-2.7c1.1,0.8,2.2,1.2,3.4,1.2
		c0.4,0,0.7-0.1,1-0.3c0.3-0.2,0.4-0.5,0.4-0.9c0-0.1,0-0.2-0.1-0.4c0-0.1-0.1-0.2-0.2-0.3c-0.1-0.1-0.2-0.1-0.3-0.2
		s-0.2-0.1-0.4-0.2c-0.1-0.1-0.3-0.1-0.4-0.2s-0.3-0.1-0.5-0.2c-0.2-0.1-0.4-0.2-0.6-0.2c-0.7-0.4-1.4-0.8-1.8-1.3
		c-0.4-0.5-0.7-1.2-0.7-2c0-1,0.4-1.8,1.1-2.5c0.7-0.7,1.8-1,3.1-1C38.4,34.9,39.4,35.1,40.3,35.5z"/>
	<path class="st14" d="M45.4,39.8v4.1c0,0.3,0.1,0.6,0.3,0.7c0.1,0.1,0.4,0.2,0.7,0.2c0.4,0,0.9-0.1,1.2-0.4v2.1
		c-0.4,0.2-1,0.3-1.8,0.3c-2,0-3.1-1-3.1-3.1v-4.1h-1.3v-1.9h1.3v-2.1h2.6v2.1h2v1.9L45.4,39.8L45.4,39.8z"/>
	<path class="st14" d="M56.3,44.2v2.1c-0.6,0.4-1.5,0.6-2.8,0.6c-1.5,0-2.6-0.4-3.4-1.2c-0.8-0.9-1.2-2-1.2-3.3
		c0-1.4,0.4-2.6,1.2-3.4c0.8-0.8,1.8-1.2,2.9-1.2c1.2,0,2.1,0.4,2.9,1c0.7,0.7,1,1.8,1,3.1c0,0.3-0.1,0.7-0.1,1.4h-5.3
		c0.1,0.5,0.5,0.9,1,1.2c0.4,0.3,1,0.4,1.5,0.4C54.8,45,55.6,44.7,56.3,44.2z M54.4,41.6v-0.2c-0.1-1-0.5-1.5-1.4-1.5
		c-0.4,0-0.8,0.1-1.1,0.4c-0.3,0.3-0.5,0.7-0.7,1.3H54.4z"/>
	<path class="st14" d="M61.2,37.9v1.4c0.7-1,1.5-1.5,2.7-1.5s2,0.4,2.8,1.2c0.7,0.8,1,1.9,1,3.3c0,1.3-0.4,2.4-1,3.3
		C66,46.6,65.1,47,63.9,47c-1.2,0-2.1-0.5-2.7-1.5v4.6h-2.6V37.9H61.2L61.2,37.9z M63.2,44.8c0.6,0,1-0.2,1.4-0.7
		c0.4-0.4,0.5-1,0.5-1.8c0-0.8-0.1-1.4-0.5-1.8c-0.4-0.4-0.8-0.7-1.4-0.7c-0.5,0-1,0.2-1.4,0.6s-0.6,1-0.6,1.8
		c0,0.7,0.2,1.4,0.6,1.8C62.1,44.6,62.6,44.8,63.2,44.8z"/>
	<path class="st14" d="M73.8,38.2v-2.4c0.9-0.4,1.8-0.7,2.6-0.7c1.2,0,2.3,0.3,2.9,0.9c0.7,0.6,1.1,1.4,1.1,2.3
		c0,1.3-0.6,2.2-1.8,2.7c1.3,0.3,2,1.2,2,2.6c0,1-0.4,1.8-1.1,2.3s-1.8,0.9-3.1,0.9c-1.2,0-2.3-0.2-3.1-0.6v-2.5
		c1,0.5,1.9,0.8,2.9,0.8c0.6,0,1-0.1,1.3-0.4s0.5-0.6,0.5-1c0-0.9-0.8-1.3-2.4-1.3H75v-2.1h0.6c0.7,0,1.1-0.1,1.5-0.3
		c0.4-0.2,0.6-0.5,0.6-1c0-0.8-0.5-1.2-1.6-1.2C75.4,37.5,74.6,37.7,73.8,38.2z"/>
	<path class="st14" d="M82.5,46.6c-0.3-0.3-0.4-0.7-0.4-1.1c0-0.4,0.1-0.8,0.4-1.1c0.3-0.3,0.7-0.4,1.1-0.4c0.4,0,0.8,0.1,1.1,0.4
		c0.3,0.3,0.4,0.7,0.4,1.1c0,0.4-0.1,0.8-0.4,1.1C84.4,46.9,84,47,83.6,47C83.1,47,82.8,46.9,82.5,46.6z"/>
</g>
<g>
	<rect x="31.7" y="60.1" class="st15" width="174.7" height="69.9"/>
	<g class="st13">
		<path class="st16" d="M36.2,60.4H37v6.2h-0.8v-2.8h-3v2.8h-0.8v-6.2h0.8v2.7h3V60.4z"/>
		<path class="st16" d="M41.2,61.9H42v4.7h-0.8v-0.8c-0.3,0.5-0.8,0.9-1.4,0.9c-0.5,0-0.8-0.1-1.1-0.4c-0.3-0.3-0.4-0.6-0.4-1.1
			v-3.2H39v3c0,0.3,0.1,0.6,0.3,0.8c0.1,0.2,0.4,0.3,0.7,0.3c0.4,0,0.7-0.1,0.9-0.4c0.2-0.3,0.3-0.6,0.3-1.1L41.2,61.9L41.2,61.9z"
			/>
		<path class="st16" d="M44,61.9v0.8c0.3-0.5,0.7-0.8,1.3-0.8c0.7,0,1.2,0.3,1.4,0.9c0.1-0.3,0.3-0.5,0.5-0.7
			c0.2-0.1,0.5-0.2,0.8-0.2c0.5,0,0.8,0.1,1.1,0.4c0.3,0.3,0.3,0.6,0.3,1.1v3.2h-0.8v-3c0-0.7-0.3-1-0.9-1c-0.3,0-0.5,0.1-0.8,0.4
			c-0.2,0.3-0.3,0.6-0.3,1.1v2.5H46v-3c0-0.7-0.3-1-0.9-1c-0.3,0-0.5,0.1-0.8,0.4c-0.2,0.3-0.3,0.6-0.3,1.1v2.5h-0.7v-4.7H44z"/>
		<path class="st16" d="M50.9,63v-0.8c0.3-0.2,0.8-0.3,1.4-0.3c1.2,0,1.8,0.6,1.8,1.8v3h-0.7v-0.5c-0.2,0.4-0.7,0.6-1.3,0.6
			c-0.4,0-0.8-0.1-1-0.4c-0.3-0.3-0.4-0.5-0.4-1c0-0.5,0.1-0.8,0.5-1c0.3-0.2,0.8-0.3,1.4-0.3h0.8v-0.2c0-0.3-0.1-0.6-0.3-0.8
			c-0.1-0.2-0.4-0.3-0.8-0.3C51.7,62.6,51.3,62.7,50.9,63z M53.3,64.5h-0.8c-0.4,0-0.7,0.1-0.9,0.2c-0.2,0.1-0.3,0.3-0.3,0.5
			c0,0.2,0.1,0.4,0.2,0.5c0.1,0.1,0.3,0.2,0.7,0.2s0.6-0.1,0.8-0.3c0.2-0.2,0.3-0.4,0.3-0.7L53.3,64.5L53.3,64.5z"/>
		<path class="st16" d="M56.1,61.9v0.8c0.3-0.5,0.8-0.9,1.4-0.9c0.5,0,0.8,0.1,1.1,0.4c0.3,0.3,0.4,0.6,0.4,1.1v3.2h-0.8v-3
			c0-0.3-0.1-0.6-0.3-0.8c-0.2-0.2-0.4-0.3-0.7-0.3c-0.3,0-0.6,0.1-0.9,0.4S56,63.6,56,64.1v2.5h-0.7v-4.7H56.1z"/>
		<path class="st16" d="M60.4,60.8c-0.1-0.1-0.1-0.2-0.1-0.3s0.1-0.3,0.1-0.3s0.2-0.1,0.3-0.1c0.1,0,0.3,0.1,0.3,0.1
			c0.1,0.1,0.1,0.2,0.1,0.3s-0.1,0.3-0.1,0.3C61,60.9,60.9,61,60.7,61C60.6,61,60.5,60.9,60.4,60.8z M60.4,66.6v-4.7h0.8v4.7H60.4z"
			/>
		<path class="st16" d="M63.5,62.6v2.7c0,0.5,0.2,0.8,0.7,0.8c0.2,0,0.5-0.1,0.6-0.2v0.7c-0.2,0.1-0.4,0.1-0.7,0.1
			c-0.9,0-1.4-0.5-1.4-1.4v-2.7H62v-0.7h0.8v-1.2h0.8v1.2h1.3v0.6H63.5z"/>
		<path class="st16" d="M66,63v-0.8c0.3-0.2,0.8-0.3,1.4-0.3c1.2,0,1.8,0.6,1.8,1.8v3h-0.7v-0.5c-0.2,0.4-0.7,0.6-1.3,0.6
			c-0.4,0-0.8-0.1-1-0.4c-0.3-0.3-0.4-0.5-0.4-1c0-0.5,0.1-0.8,0.5-1s0.8-0.3,1.4-0.3h0.8v-0.2c0-0.3-0.1-0.6-0.3-0.8
			c-0.1-0.2-0.4-0.3-0.8-0.3C66.8,62.6,66.4,62.7,66,63z M68.4,64.5h-0.8c-0.4,0-0.7,0.1-0.9,0.2c-0.2,0.1-0.3,0.3-0.3,0.5
			c0,0.2,0.1,0.4,0.2,0.5c0.1,0.1,0.3,0.2,0.7,0.2s0.6-0.1,0.8-0.3c0.2-0.2,0.3-0.4,0.3-0.7V64.5z"/>
		<path class="st16" d="M71.1,61.9v0.8c0.3-0.5,0.7-0.9,1.2-0.9c0.1,0,0.2,0,0.3,0v0.7c-0.1-0.1-0.3-0.1-0.4-0.1
			c-0.3,0-0.6,0.1-0.8,0.5c-0.2,0.3-0.3,0.6-0.3,1v2.5h-0.8v-4.7L71.1,61.9L71.1,61.9z"/>
		<path class="st16" d="M73.4,60.8c-0.1-0.1-0.1-0.2-0.1-0.3s0.1-0.3,0.1-0.3c0.1-0.1,0.2-0.1,0.3-0.1c0.1,0,0.3,0.1,0.3,0.1
			c0.1,0.1,0.1,0.2,0.1,0.3s-0.1,0.3-0.1,0.3c-0.1,0.1-0.2,0.1-0.3,0.1C73.7,61,73.5,60.9,73.4,60.8z M73.4,66.6v-4.7h0.8v4.7H73.4z
			"/>
		<path class="st16" d="M75.6,63v-0.8c0.3-0.2,0.8-0.3,1.4-0.3c1.2,0,1.8,0.6,1.8,1.8v3h-0.7v-0.5c-0.2,0.4-0.7,0.6-1.3,0.6
			c-0.4,0-0.8-0.1-1-0.4c-0.3-0.3-0.4-0.5-0.4-1c0-0.5,0.1-0.8,0.5-1s0.8-0.3,1.4-0.3h0.8v-0.2c0-0.3-0.1-0.6-0.3-0.8
			c-0.1-0.2-0.4-0.3-0.8-0.3C76.5,62.6,76,62.7,75.6,63z M78.1,64.5h-0.8c-0.4,0-0.7,0.1-0.9,0.2s-0.3,0.3-0.3,0.5
			c0,0.2,0.1,0.4,0.2,0.5c0.1,0.1,0.3,0.2,0.7,0.2s0.6-0.1,0.8-0.3c0.2-0.2,0.3-0.4,0.3-0.7V64.5z"/>
		<path class="st16" d="M80.8,61.9v0.8c0.3-0.5,0.8-0.9,1.4-0.9c0.5,0,0.8,0.1,1.1,0.4c0.3,0.3,0.4,0.6,0.4,1.1v3.2H83v-3
			c0-0.3-0.1-0.6-0.3-0.8c-0.2-0.2-0.4-0.3-0.7-0.3c-0.3,0-0.6,0.1-0.9,0.4s-0.4,0.6-0.4,1.1v2.5H80v-4.7H80.8z"/>
		<path class="st16" d="M89.2,66.8c-0.7,0-1.2-0.2-1.6-0.7c-0.4-0.5-0.6-1-0.6-1.7s0.2-1.2,0.6-1.7c0.4-0.5,0.9-0.7,1.6-0.7
			s1.2,0.2,1.6,0.7c0.4,0.5,0.5,1,0.5,1.7s-0.2,1.2-0.6,1.7C90.4,66.5,89.9,66.8,89.2,66.8z M89.2,62.6c-0.4,0-0.8,0.1-1,0.5
			c-0.3,0.4-0.3,0.8-0.3,1.2c0,0.5,0.1,0.9,0.4,1.2c0.3,0.3,0.6,0.5,1,0.5c0.5,0,0.8-0.1,1.1-0.5c0.3-0.3,0.3-0.8,0.3-1.2
			c0-0.5-0.1-1-0.3-1.3C90.1,62.7,89.7,62.6,89.2,62.6z"/>
		<path class="st16" d="M93.2,61.9v0.8c0.3-0.5,0.7-0.9,1.2-0.9c0.1,0,0.2,0,0.3,0v0.7c-0.1-0.1-0.3-0.1-0.4-0.1
			c-0.3,0-0.6,0.1-0.8,0.5c-0.2,0.3-0.3,0.6-0.3,1v2.5h-0.8v-4.7L93.2,61.9L93.2,61.9z"/>
		<path class="st16" d="M98.5,61.9h0.8v4.3c0,0.7-0.2,1.2-0.6,1.6s-0.9,0.5-1.5,0.5c-0.5,0-1-0.1-1.4-0.3v-0.8
			c0.4,0.2,0.8,0.3,1.4,0.3c0.5,0,0.8-0.1,1-0.3c0.3-0.2,0.4-0.6,0.4-1.1v-0.5c-0.3,0.5-0.8,0.8-1.4,0.8c-0.5,0-1-0.2-1.4-0.6
			c-0.3-0.4-0.5-1-0.5-1.6c0-0.7,0.2-1.2,0.5-1.7s0.8-0.7,1.4-0.7c0.6,0,1.1,0.3,1.4,0.8V61.9L98.5,61.9z M97.2,65.9
			c0.3,0,0.6-0.1,0.9-0.4c0.3-0.3,0.4-0.6,0.4-1.2c0-0.6-0.1-1-0.3-1.3c-0.3-0.3-0.5-0.4-0.9-0.4c-0.4,0-0.7,0.1-1,0.5
			c-0.3,0.3-0.3,0.8-0.3,1.2c0,0.5,0.1,0.9,0.4,1.2C96.5,65.7,96.9,65.9,97.2,65.9z"/>
		<path class="st16" d="M100.6,63v-0.8c0.3-0.2,0.8-0.3,1.4-0.3c1.2,0,1.8,0.6,1.8,1.8v3h-0.7v-0.5c-0.2,0.4-0.7,0.6-1.3,0.6
			c-0.4,0-0.8-0.1-1-0.4c-0.3-0.3-0.4-0.5-0.4-1c0-0.5,0.1-0.8,0.5-1s0.8-0.3,1.4-0.3h0.8v-0.2c0-0.3-0.1-0.6-0.3-0.8
			c-0.1-0.2-0.4-0.3-0.8-0.3C101.4,62.6,100.9,62.7,100.6,63z M103,64.5h-0.8c-0.4,0-0.7,0.1-0.9,0.2S101,65,101,65.2
			c0,0.2,0.1,0.4,0.2,0.5c0.1,0.1,0.3,0.2,0.7,0.2c0.3,0,0.6-0.1,0.8-0.3c0.2-0.2,0.3-0.4,0.3-0.7V64.5z"/>
		<path class="st16" d="M105.7,61.9v0.8c0.3-0.5,0.8-0.9,1.4-0.9c0.5,0,0.8,0.1,1.1,0.4c0.3,0.3,0.4,0.6,0.4,1.1v3.2h-0.8v-3
			c0-0.3-0.1-0.6-0.3-0.8c-0.2-0.2-0.4-0.3-0.7-0.3c-0.3,0-0.6,0.1-0.9,0.4c-0.3,0.3-0.4,0.6-0.4,1.1v2.5H105v-4.7H105.7z"/>
		<path class="st16" d="M110,60.8c-0.1-0.1-0.1-0.2-0.1-0.3s0.1-0.3,0.1-0.3s0.2-0.1,0.3-0.1s0.3,0.1,0.3,0.1s0.1,0.2,0.1,0.3
			s-0.1,0.3-0.1,0.3s-0.2,0.1-0.3,0.1S110.1,60.9,110,60.8z M110,66.6v-4.7h0.8v4.7H110z"/>
		<path class="st16" d="M115.1,61.9v0.5l-2.4,3.5h2.5v0.7h-3.4v-0.6l2.3-3.4h-2.3v-0.7H115.1z"/>
		<path class="st16" d="M116.4,63v-0.8c0.3-0.2,0.8-0.3,1.4-0.3c1.2,0,1.8,0.6,1.8,1.8v3h-0.7v-0.5c-0.2,0.4-0.7,0.6-1.3,0.6
			c-0.4,0-0.8-0.1-1-0.4c-0.3-0.3-0.4-0.5-0.4-1c0-0.5,0.1-0.8,0.5-1s0.8-0.3,1.4-0.3h0.8v-0.2c0-0.3-0.1-0.6-0.3-0.8
			c-0.1-0.2-0.4-0.3-0.8-0.3C117.2,62.6,116.7,62.7,116.4,63z M118.8,64.5H118c-0.4,0-0.7,0.1-0.9,0.2s-0.3,0.3-0.3,0.5
			c0,0.2,0.1,0.4,0.2,0.5c0.1,0.1,0.3,0.2,0.7,0.2s0.6-0.1,0.8-0.3c0.2-0.2,0.3-0.4,0.3-0.7V64.5z"/>
		<path class="st16" d="M121.8,62.6v2.7c0,0.5,0.2,0.8,0.7,0.8c0.2,0,0.5-0.1,0.6-0.2v0.7c-0.2,0.1-0.4,0.1-0.7,0.1
			c-0.9,0-1.4-0.5-1.4-1.4v-2.7h-0.8v-0.7h0.8v-1.2h0.8v1.2h1.3v0.6H121.8z"/>
		<path class="st16" d="M124.2,60.8c-0.1-0.1-0.1-0.2-0.1-0.3s0.1-0.3,0.1-0.3s0.2-0.1,0.3-0.1s0.3,0.1,0.3,0.1
			c0.1,0.1,0.1,0.2,0.1,0.3s-0.1,0.3-0.1,0.3c-0.1,0.1-0.2,0.1-0.3,0.1S124.4,60.9,124.2,60.8z M124.2,66.6v-4.7h0.8v4.7H124.2z"/>
		<path class="st16" d="M128.2,66.8c-0.7,0-1.2-0.2-1.6-0.7c-0.4-0.5-0.6-1-0.6-1.7s0.2-1.2,0.6-1.7c0.4-0.5,0.9-0.7,1.6-0.7
			s1.2,0.2,1.6,0.7c0.4,0.5,0.5,1,0.5,1.7s-0.2,1.2-0.6,1.7C129.4,66.5,128.9,66.8,128.2,66.8z M128.2,62.6c-0.4,0-0.8,0.1-1,0.5
			c-0.3,0.4-0.3,0.8-0.3,1.2c0,0.5,0.1,0.9,0.4,1.2c0.3,0.3,0.6,0.5,1,0.5c0.5,0,0.8-0.1,1.1-0.5s0.3-0.8,0.3-1.2
			c0-0.5-0.1-1-0.3-1.3C129.2,62.7,128.7,62.6,128.2,62.6z"/>
		<path class="st16" d="M132.2,61.9v0.8c0.3-0.5,0.8-0.9,1.4-0.9c0.5,0,0.8,0.1,1.1,0.4c0.3,0.3,0.4,0.6,0.4,1.1v3.2h-0.8v-3
			c0-0.3-0.1-0.6-0.3-0.8c-0.2-0.2-0.4-0.3-0.7-0.3c-0.3,0-0.6,0.1-0.9,0.4c-0.3,0.3-0.4,0.6-0.4,1.1v2.5h-0.7v-4.7H132.2z"/>
		<path class="st16" d="M139,62.2v0.7c-0.3-0.1-0.7-0.3-1.2-0.3c-0.3,0-0.4,0.1-0.5,0.1c-0.1,0.1-0.2,0.3-0.2,0.4
			c0,0.1,0,0.2,0.1,0.3s0.1,0.1,0.3,0.3c0.1,0.1,0.2,0.1,0.3,0.1s0.2,0.1,0.4,0.1c0.4,0.1,0.7,0.3,0.9,0.5s0.3,0.5,0.3,0.8
			c0,0.4-0.1,0.7-0.4,1c-0.3,0.2-0.7,0.3-1.2,0.3c-0.5,0-1-0.1-1.4-0.3v-0.7c0.4,0.3,0.8,0.3,1.3,0.3c0.3,0,0.5-0.1,0.6-0.1
			c0.1-0.1,0.2-0.3,0.2-0.5c0-0.2-0.1-0.4-0.3-0.5c-0.1-0.1-0.4-0.3-0.8-0.4c-0.3-0.1-0.6-0.3-0.8-0.5c-0.2-0.2-0.3-0.5-0.3-0.8
			c0-0.4,0.1-0.7,0.4-0.9c0.3-0.2,0.7-0.3,1.1-0.3C138.3,61.9,138.7,62,139,62.2z"/>
		<path class="st16" d="M145.4,61.9h0.8v4.7h-0.8v-0.8c-0.3,0.5-0.8,0.9-1.4,0.9c-0.5,0-0.8-0.1-1.1-0.4c-0.3-0.3-0.4-0.6-0.4-1.1
			v-3.2h0.8v3c0,0.3,0.1,0.6,0.3,0.8c0.1,0.2,0.4,0.3,0.7,0.3c0.4,0,0.7-0.1,0.9-0.4c0.2-0.3,0.3-0.6,0.3-1.1L145.4,61.9L145.4,61.9
			z"/>
		<path class="st16" d="M150,62.2v0.7c-0.3-0.1-0.7-0.3-1.2-0.3c-0.3,0-0.4,0.1-0.6,0.1c-0.1,0.1-0.2,0.3-0.2,0.4
			c0,0.1,0,0.2,0.1,0.3c0.1,0.1,0.1,0.1,0.3,0.3c0.1,0.1,0.2,0.1,0.3,0.1s0.2,0.1,0.4,0.1c0.4,0.1,0.7,0.3,0.9,0.5s0.3,0.5,0.3,0.8
			c0,0.4-0.1,0.7-0.4,1c-0.3,0.2-0.7,0.3-1.2,0.3c-0.5,0-1-0.1-1.4-0.3v-0.7c0.4,0.3,0.8,0.3,1.3,0.3c0.3,0,0.5-0.1,0.6-0.1
			c0.1-0.1,0.2-0.3,0.2-0.5c0-0.2-0.1-0.4-0.3-0.5c-0.1-0.1-0.4-0.3-0.8-0.4c-0.3-0.1-0.6-0.3-0.8-0.5c-0.2-0.2-0.3-0.5-0.3-0.8
			c0-0.4,0.1-0.7,0.4-0.9c0.3-0.2,0.7-0.3,1.1-0.3C149.3,61.9,149.7,62,150,62.2z"/>
		<path class="st16" d="M154.7,65.7v0.7c-0.3,0.2-0.8,0.3-1.3,0.3c-0.7,0-1.3-0.2-1.7-0.6c-0.4-0.4-0.6-1-0.6-1.7
			c0-0.8,0.2-1.3,0.5-1.8c0.4-0.4,0.9-0.6,1.5-0.6c0.5,0,1,0.2,1.4,0.5c0.3,0.3,0.5,0.9,0.5,1.6c0,0.2,0,0.3-0.1,0.5h-3.2
			c0.1,0.5,0.2,0.8,0.5,1c0.3,0.3,0.7,0.3,1.2,0.3C153.9,66.1,154.3,65.9,154.7,65.7z M154.3,64v-0.2c0-0.4-0.1-0.7-0.3-0.9
			s-0.5-0.3-0.9-0.3c-0.3,0-0.6,0.1-0.9,0.3c-0.3,0.3-0.4,0.6-0.4,1.1H154.3L154.3,64z"/>
		<path class="st16" d="M159,61.9v0.8c0.3-0.5,0.7-0.8,1.3-0.8c0.7,0,1.2,0.3,1.4,0.9c0.1-0.3,0.3-0.5,0.5-0.7s0.5-0.2,0.8-0.2
			c0.5,0,0.8,0.1,1.1,0.4c0.3,0.3,0.3,0.6,0.3,1.1v3.2h-0.8v-3c0-0.7-0.3-1-0.9-1c-0.3,0-0.5,0.1-0.8,0.4c-0.2,0.3-0.3,0.6-0.3,1.1
			v2.5h-0.8v-3c0-0.7-0.3-1-0.9-1c-0.3,0-0.5,0.1-0.8,0.4c-0.2,0.3-0.3,0.6-0.3,1.1v2.5h-0.7v-4.7H159z"/>
		<path class="st16" d="M165.9,63v-0.8c0.3-0.2,0.8-0.3,1.4-0.3c1.2,0,1.8,0.6,1.8,1.8v3h-0.7v-0.5c-0.2,0.4-0.7,0.6-1.3,0.6
			c-0.4,0-0.8-0.1-1-0.4c-0.3-0.3-0.4-0.5-0.4-1c0-0.5,0.1-0.8,0.5-1c0.3-0.2,0.8-0.3,1.4-0.3h0.8v-0.2c0-0.3-0.1-0.6-0.3-0.8
			c-0.1-0.2-0.4-0.3-0.8-0.3C166.8,62.6,166.4,62.7,165.9,63z M168.3,64.5h-0.8c-0.4,0-0.7,0.1-0.9,0.2s-0.3,0.3-0.3,0.5
			c0,0.2,0.1,0.4,0.2,0.5c0.1,0.1,0.3,0.2,0.7,0.2c0.3,0,0.6-0.1,0.8-0.3c0.2-0.2,0.3-0.4,0.3-0.7V64.5z"/>
		<path class="st16" d="M171.1,61.9v0.7c0.3-0.5,0.8-0.8,1.4-0.8s1.1,0.2,1.4,0.7c0.3,0.5,0.5,1,0.5,1.7c0,0.7-0.2,1.3-0.5,1.8
			c-0.3,0.5-0.8,0.7-1.4,0.7s-1.1-0.3-1.4-0.8v2.5h-0.7v-6.6H171.1z M172.4,66.1c0.4,0,0.7-0.1,1-0.5s0.3-0.8,0.3-1.3
			c0-0.5-0.1-0.9-0.3-1.2c-0.3-0.3-0.5-0.5-1-0.5c-0.4,0-0.7,0.1-1,0.4c-0.3,0.3-0.4,0.7-0.4,1.3c0,0.6,0.1,1,0.4,1.3
			C171.8,65.9,172.1,66.1,172.4,66.1z"/>
		<path class="st16" d="M176.3,61.9v0.7c0.3-0.5,0.8-0.8,1.4-0.8c0.6,0,1.1,0.2,1.4,0.7c0.3,0.5,0.5,1,0.5,1.7
			c0,0.7-0.2,1.3-0.5,1.8c-0.3,0.5-0.8,0.7-1.4,0.7c-0.6,0-1.1-0.3-1.4-0.8v2.5h-0.7v-6.6H176.3z M177.6,66.1c0.4,0,0.7-0.1,1-0.5
			s0.3-0.8,0.3-1.3c0-0.5-0.1-0.9-0.3-1.2c-0.3-0.3-0.5-0.5-1-0.5c-0.3,0-0.7,0.1-1,0.4c-0.3,0.3-0.4,0.7-0.4,1.3
			c0,0.6,0.1,1,0.4,1.3C177,65.9,177.3,66.1,177.6,66.1z"/>
		<path class="st16" d="M184.2,65.7v0.7c-0.3,0.2-0.8,0.3-1.3,0.3c-0.7,0-1.3-0.2-1.7-0.6c-0.4-0.4-0.6-1-0.6-1.7
			c0-0.8,0.2-1.3,0.5-1.8c0.4-0.4,0.9-0.6,1.5-0.6c0.5,0,1,0.2,1.4,0.5c0.3,0.3,0.5,0.9,0.5,1.6c0,0.2,0,0.3-0.1,0.5h-3.2
			c0.1,0.5,0.2,0.8,0.5,1c0.3,0.3,0.7,0.3,1.2,0.3C183.5,66.1,183.9,65.9,184.2,65.7z M183.7,64v-0.2c0-0.4-0.1-0.7-0.3-0.9
			s-0.5-0.3-0.9-0.3c-0.3,0-0.6,0.1-0.9,0.3c-0.3,0.3-0.4,0.6-0.4,1.1H183.7L183.7,64z"/>
		<path class="st16" d="M188.8,60.2h0.8v6.5h-0.8V66c-0.3,0.5-0.8,0.8-1.4,0.8s-1.1-0.2-1.4-0.7c-0.3-0.5-0.5-1-0.5-1.6
			c0-0.8,0.2-1.3,0.5-1.8c0.3-0.5,0.8-0.7,1.4-0.7s1.1,0.3,1.4,0.8V60.2z M187.4,66.1c0.4,0,0.7-0.1,1-0.4c0.3-0.3,0.4-0.8,0.4-1.4
			s-0.1-1-0.4-1.3c-0.3-0.3-0.5-0.4-0.9-0.4c-0.4,0-0.7,0.1-1,0.5c-0.3,0.3-0.4,0.8-0.4,1.3c0,0.5,0.1,0.9,0.3,1.2
			C186.7,65.9,187,66.1,187.4,66.1z"/>
	</g>
	<g class="st13">
		<path class="st16" d="M32.5,71.9c-0.1-0.1-0.1-0.2-0.1-0.3c0-0.1,0.1-0.3,0.1-0.3c0.1-0.1,0.2-0.1,0.3-0.1c0.1,0,0.3,0.1,0.3,0.1
			c0.1,0.1,0.1,0.2,0.1,0.3c0,0.1-0.1,0.3-0.1,0.3C33.1,72,33,72,32.8,72C32.7,72,32.6,72,32.5,71.9z M32.5,77.7V73h0.8v4.7
			C33.3,77.7,32.5,77.7,32.5,77.7z"/>
		<path class="st16" d="M35.3,73v0.8c0.3-0.5,0.8-0.9,1.4-0.9c0.5,0,0.8,0.1,1.1,0.4c0.3,0.3,0.4,0.6,0.4,1.1v3.2h-0.8v-3
			c0-0.3-0.1-0.6-0.3-0.8c-0.2-0.2-0.4-0.3-0.7-0.3c-0.3,0-0.6,0.1-0.9,0.4c-0.3,0.3-0.4,0.6-0.4,1.1v2.5h-0.7V73H35.3L35.3,73z"/>
		<path class="st16" d="M41.8,71.2v0.7c-0.1-0.1-0.3-0.1-0.4-0.1c-0.2,0-0.3,0.1-0.5,0.2c-0.1,0.1-0.2,0.3-0.2,0.6V73h1v0.6h-1v4.1
			h-0.8v-4.1h-0.8V73h0.8v-0.4c0-0.5,0.1-0.8,0.3-1.1c0.2-0.3,0.5-0.4,1-0.4C41.4,71.1,41.6,71.2,41.8,71.2z"/>
		<path class="st16" d="M44.5,77.7c-0.7,0-1.2-0.2-1.6-0.7s-0.6-1-0.6-1.7c0-0.7,0.2-1.2,0.6-1.7s0.9-0.7,1.6-0.7
			c0.7,0,1.2,0.2,1.6,0.7c0.4,0.5,0.5,1,0.5,1.7c0,0.7-0.2,1.2-0.6,1.7C45.6,77.5,45.1,77.7,44.5,77.7z M44.5,73.6
			c-0.4,0-0.8,0.1-1,0.5c-0.3,0.4-0.3,0.8-0.3,1.2s0.1,0.9,0.4,1.2c0.3,0.3,0.6,0.5,1,0.5c0.5,0,0.8-0.1,1.1-0.5
			c0.3-0.3,0.3-0.8,0.3-1.2c0-0.5-0.1-1-0.3-1.3C45.4,73.8,44.9,73.6,44.5,73.6z"/>
		<path class="st16" d="M48.4,73v0.8c0.3-0.5,0.7-0.9,1.2-0.9c0.1,0,0.2,0,0.3,0v0.7c-0.1-0.1-0.3-0.1-0.4-0.1
			c-0.3,0-0.6,0.1-0.8,0.5c-0.2,0.3-0.3,0.6-0.3,1v2.5h-0.6v-4.7L48.4,73L48.4,73z"/>
		<path class="st16" d="M51.5,73v0.8c0.3-0.5,0.7-0.8,1.3-0.8c0.7,0,1.2,0.3,1.4,0.9c0.1-0.3,0.3-0.5,0.5-0.7
			c0.2-0.1,0.5-0.2,0.8-0.2c0.5,0,0.8,0.1,1.1,0.4c0.3,0.3,0.3,0.6,0.3,1.1v3.2h-0.8v-3c0-0.7-0.3-1-0.9-1c-0.3,0-0.5,0.1-0.8,0.4
			c-0.2,0.3-0.3,0.6-0.3,1.1v2.5h-0.8v-3c0-0.7-0.3-1-0.9-1c-0.3,0-0.5,0.1-0.8,0.4c-0.2,0.3-0.3,0.6-0.3,1.1v2.5h-0.7V73H51.5
			L51.5,73z"/>
		<path class="st16" d="M58.3,74v-0.8c0.3-0.2,0.8-0.3,1.4-0.3c1.2,0,1.8,0.6,1.8,1.8v3h-0.7v-0.5c-0.2,0.4-0.7,0.6-1.3,0.6
			c-0.4,0-0.8-0.1-1-0.4s-0.4-0.5-0.4-1c0-0.5,0.1-0.8,0.5-1s0.8-0.3,1.4-0.3h0.8v-0.2c0-0.3-0.1-0.6-0.3-0.8
			c-0.1-0.2-0.4-0.3-0.8-0.3C59.2,73.6,58.7,73.7,58.3,74z M60.7,75.6h-0.8c-0.4,0-0.7,0.1-0.9,0.2c-0.2,0.1-0.3,0.3-0.3,0.5
			c0,0.2,0.1,0.4,0.2,0.5c0.1,0.1,0.3,0.2,0.7,0.2s0.6-0.1,0.8-0.3c0.2-0.2,0.3-0.4,0.3-0.7V75.6z"/>
		<path class="st16" d="M63.8,73.6v2.7c0,0.5,0.2,0.8,0.7,0.8c0.2,0,0.5-0.1,0.6-0.2v0.7c-0.2,0.1-0.4,0.1-0.7,0.1
			c-0.9,0-1.4-0.5-1.4-1.4v-2.7h-0.8V73H63v-1.2h0.8V73h1.3v0.6H63.8z"/>
		<path class="st16" d="M66.2,71.9c-0.1-0.1-0.1-0.2-0.1-0.3c0-0.1,0.1-0.3,0.1-0.3c0.1-0.1,0.2-0.1,0.3-0.1s0.3,0.1,0.3,0.1
			c0.1,0.1,0.1,0.2,0.1,0.3c0,0.1-0.1,0.3-0.1,0.3C66.9,72,66.7,72,66.6,72C66.4,72,66.3,72,66.2,71.9z M66.2,77.7V73H67v4.7
			C67,77.7,66.2,77.7,66.2,77.7z"/>
		<path class="st16" d="M70.2,77.7c-0.7,0-1.2-0.2-1.6-0.7c-0.4-0.5-0.5-1-0.5-1.7c0-0.7,0.2-1.2,0.6-1.7s0.9-0.7,1.6-0.7
			s1.2,0.2,1.6,0.7c0.4,0.5,0.5,1,0.5,1.7c0,0.7-0.2,1.2-0.6,1.7S70.9,77.7,70.2,77.7z M70.2,73.6c-0.4,0-0.8,0.1-1,0.5
			c-0.3,0.3-0.3,0.8-0.3,1.2s0.1,0.9,0.4,1.2c0.3,0.3,0.6,0.5,1,0.5c0.5,0,0.8-0.1,1.1-0.5c0.3-0.3,0.3-0.8,0.3-1.2
			c0-0.5-0.1-1-0.3-1.3C71,73.8,70.7,73.6,70.2,73.6z"/>
		<path class="st16" d="M74.2,73v0.8c0.3-0.5,0.8-0.9,1.4-0.9c0.5,0,0.8,0.1,1.1,0.4c0.3,0.3,0.4,0.6,0.4,1.1v3.2h-0.8v-3
			c0-0.3-0.1-0.6-0.3-0.8c-0.2-0.2-0.4-0.3-0.7-0.3c-0.3,0-0.6,0.1-0.9,0.4c-0.3,0.3-0.4,0.6-0.4,1.1v2.5h-0.7V73H74.2L74.2,73z"/>
		<path class="st16" d="M81.7,73.6v2.7c0,0.5,0.2,0.8,0.7,0.8c0.2,0,0.5-0.1,0.6-0.2v0.7c-0.2,0.1-0.4,0.1-0.7,0.1
			c-0.9,0-1.4-0.5-1.4-1.4v-2.7h-0.8V73h0.8v-1.2h0.8V73H83v0.6H81.7z"/>
		<path class="st16" d="M86,77.7c-0.7,0-1.2-0.2-1.6-0.7s-0.6-1-0.6-1.7c0-0.7,0.2-1.2,0.6-1.7s0.9-0.7,1.6-0.7s1.2,0.2,1.6,0.7
			c0.4,0.5,0.5,1,0.5,1.7c0,0.7-0.2,1.2-0.6,1.7C87.1,77.5,86.6,77.7,86,77.7z M86,73.6c-0.4,0-0.8,0.1-1,0.5
			c-0.3,0.4-0.3,0.8-0.3,1.2s0.1,0.9,0.4,1.2c0.3,0.3,0.6,0.5,1,0.5c0.5,0,0.8-0.1,1.1-0.5c0.3-0.3,0.3-0.8,0.3-1.2
			c0-0.5-0.1-1-0.3-1.3C86.9,73.8,86.5,73.6,86,73.6z"/>
		<path class="st16" d="M92.2,73v0.7c0.3-0.5,0.8-0.8,1.4-0.8c0.6,0,1.1,0.2,1.4,0.7s0.5,1,0.5,1.7c0,0.7-0.2,1.3-0.5,1.8
			s-0.8,0.7-1.4,0.7c-0.6,0-1.1-0.3-1.4-0.8v2.5h-0.7v-6.5h0.7V73z M93.6,77.1c0.4,0,0.7-0.1,1-0.5c0.3-0.3,0.3-0.8,0.3-1.3
			c0-0.5-0.1-0.9-0.3-1.2c-0.3-0.3-0.5-0.5-1-0.5s-0.7,0.1-1,0.4c-0.3,0.3-0.4,0.7-0.4,1.3s0.1,1,0.4,1.3
			C92.9,76.9,93.2,77.1,93.6,77.1z"/>
		<path class="st16" d="M96.7,77.7v-6.5h0.8v6.5H96.7z"/>
		<path class="st16" d="M98.9,74v-0.8c0.3-0.2,0.8-0.3,1.4-0.3c1.2,0,1.8,0.6,1.8,1.8v3h-0.7v-0.5c-0.2,0.4-0.7,0.6-1.3,0.6
			c-0.4,0-0.8-0.1-1-0.4c-0.3-0.3-0.4-0.5-0.4-1c0-0.5,0.1-0.8,0.5-1s0.8-0.3,1.4-0.3h0.8v-0.2c0-0.3-0.1-0.6-0.3-0.8
			c-0.1-0.2-0.4-0.3-0.8-0.3C99.8,73.6,99.4,73.7,98.9,74z M101.3,75.6h-0.8c-0.4,0-0.7,0.1-0.9,0.2s-0.3,0.3-0.3,0.5
			c0,0.2,0.1,0.4,0.2,0.5c0.1,0.1,0.3,0.2,0.7,0.2s0.6-0.1,0.8-0.3c0.2-0.2,0.3-0.4,0.3-0.7V75.6z"/>
		<path class="st16" d="M104.1,73v0.8c0.3-0.5,0.8-0.9,1.4-0.9c0.5,0,0.8,0.1,1.1,0.4c0.3,0.3,0.4,0.6,0.4,1.1v3.2h-0.8v-3
			c0-0.3-0.1-0.6-0.3-0.8c-0.2-0.2-0.4-0.3-0.7-0.3c-0.3,0-0.6,0.1-0.9,0.4c-0.3,0.3-0.4,0.6-0.4,1.1v2.5h-0.7V73H104.1L104.1,73z"
			/>
		<path class="st16" d="M111.3,73v0.8c0.3-0.5,0.7-0.9,1.2-0.9c0.1,0,0.2,0,0.3,0v0.7c-0.1-0.1-0.3-0.1-0.4-0.1
			c-0.3,0-0.6,0.1-0.8,0.5c-0.2,0.3-0.3,0.6-0.3,1v2.5h-0.8v-4.7L111.3,73L111.3,73z"/>
		<path class="st16" d="M113.6,71.9c-0.1-0.1-0.1-0.2-0.1-0.3c0-0.1,0.1-0.3,0.1-0.3c0.1-0.1,0.2-0.1,0.3-0.1c0.1,0,0.3,0.1,0.3,0.1
			c0.1,0.1,0.1,0.2,0.1,0.3c0,0.1-0.1,0.3-0.1,0.3c-0.1,0.1-0.2,0.1-0.3,0.1C113.9,72,113.7,72,113.6,71.9z M113.6,77.7V73h0.8v4.7
			C114.4,77.7,113.6,77.7,113.6,77.7z"/>
		<path class="st16" d="M118.3,73.1v0.7c-0.3-0.1-0.7-0.3-1.2-0.3c-0.3,0-0.4,0.1-0.5,0.1c-0.1,0.1-0.2,0.3-0.2,0.4s0,0.2,0.1,0.3
			c0.1,0.1,0.1,0.1,0.3,0.3c0.1,0.1,0.2,0.1,0.3,0.1s0.2,0.1,0.4,0.1c0.4,0.1,0.7,0.3,0.9,0.5c0.2,0.2,0.3,0.5,0.3,0.8
			c0,0.4-0.1,0.7-0.4,1c-0.3,0.2-0.7,0.3-1.2,0.3c-0.5,0-1-0.1-1.4-0.3v-0.7c0.4,0.3,0.8,0.3,1.3,0.3c0.3,0,0.5-0.1,0.6-0.1
			c0.1-0.1,0.2-0.3,0.2-0.5c0-0.2-0.1-0.4-0.3-0.5c-0.1-0.1-0.4-0.3-0.8-0.4c-0.3-0.1-0.6-0.3-0.8-0.5c-0.2-0.2-0.3-0.5-0.3-0.8
			c0-0.4,0.1-0.7,0.4-0.9c0.3-0.2,0.7-0.3,1.1-0.3C117.6,72.9,118,73,118.3,73.1z"/>
		<path class="st16" d="M119.6,77.7v-6.5h0.7v6.5H119.6z M121.2,75.2l1.9,2.5h-0.9l-1.9-2.5l1.9-2.2h0.9L121.2,75.2z"/>
		<path class="st16" d="M126.9,73v0.8c0.3-0.5,0.7-0.9,1.2-0.9c0.1,0,0.2,0,0.3,0v0.7c-0.1-0.1-0.3-0.1-0.4-0.1
			c-0.3,0-0.6,0.1-0.8,0.5c-0.2,0.3-0.3,0.6-0.3,1v2.5h-0.8v-4.7L126.9,73L126.9,73z"/>
		<path class="st16" d="M132.6,76.8v0.7c-0.3,0.2-0.8,0.3-1.3,0.3c-0.7,0-1.3-0.2-1.7-0.6c-0.4-0.4-0.6-1-0.6-1.7
			c0-0.8,0.2-1.3,0.5-1.8c0.4-0.4,0.9-0.6,1.5-0.6c0.5,0,1,0.2,1.4,0.5c0.3,0.3,0.5,0.9,0.5,1.6c0,0.2,0,0.3-0.1,0.5h-3.2
			c0.1,0.5,0.2,0.8,0.5,1c0.3,0.3,0.7,0.3,1.2,0.3C131.9,77.1,132.3,77,132.6,76.8z M132.1,75.1v-0.2c0-0.4-0.1-0.7-0.3-0.9
			s-0.5-0.3-0.9-0.3c-0.3,0-0.6,0.1-0.9,0.3c-0.3,0.3-0.4,0.6-0.4,1.1H132.1L132.1,75.1z"/>
		<path class="st16" d="M137.1,71.2h0.8v6.5h-0.8V77c-0.3,0.5-0.8,0.8-1.4,0.8s-1.1-0.2-1.4-0.7c-0.3-0.5-0.5-1-0.5-1.6
			c0-0.8,0.2-1.3,0.5-1.8c0.3-0.5,0.8-0.7,1.4-0.7s1.1,0.3,1.4,0.8V71.2z M135.8,77.1c0.4,0,0.7-0.1,1-0.4c0.3-0.3,0.4-0.8,0.4-1.4
			s-0.1-1-0.4-1.3c-0.3-0.3-0.5-0.4-0.9-0.4c-0.4,0-0.7,0.1-1,0.5c-0.3,0.3-0.4,0.8-0.4,1.3c0,0.5,0.1,0.9,0.3,1.2
			C135.1,76.9,135.4,77.1,135.8,77.1z"/>
		<path class="st16" d="M142.1,73h0.8v4.7h-0.8v-0.8c-0.3,0.5-0.8,0.9-1.4,0.9c-0.5,0-0.8-0.1-1.1-0.4c-0.3-0.3-0.4-0.6-0.4-1.1V73
			h0.8v3c0,0.3,0.1,0.6,0.3,0.8s0.4,0.3,0.7,0.3c0.4,0,0.7-0.1,0.9-0.4c0.2-0.3,0.3-0.6,0.3-1.1L142.1,73L142.1,73z"/>
		<path class="st16" d="M144.6,75.3c0,0.5,0.1,0.9,0.5,1.2c0.3,0.3,0.8,0.5,1.3,0.5c0.3,0,0.7-0.1,1-0.3v0.7
			c-0.3,0.2-0.7,0.3-1.1,0.3c-0.8,0-1.3-0.2-1.8-0.7c-0.4-0.5-0.6-1-0.6-1.7c0-0.7,0.2-1.2,0.6-1.7s1-0.7,1.8-0.7
			c0.4,0,0.8,0.1,1.1,0.3v0.7c-0.3-0.2-0.6-0.3-1-0.3c-0.5,0-1,0.1-1.2,0.5C144.9,74.5,144.6,74.9,144.6,75.3z"/>
		<path class="st16" d="M149.5,73.6v2.7c0,0.5,0.2,0.8,0.7,0.8c0.2,0,0.5-0.1,0.6-0.2v0.7c-0.2,0.1-0.4,0.1-0.7,0.1
			c-0.9,0-1.4-0.5-1.4-1.4v-2.7H148V73h0.8v-1.2h0.8V73h1.3v0.6H149.5z"/>
		<path class="st16" d="M151.9,71.9c-0.1-0.1-0.1-0.2-0.1-0.3c0-0.1,0.1-0.3,0.1-0.3c0.1-0.1,0.2-0.1,0.3-0.1c0.1,0,0.3,0.1,0.3,0.1
			c0.1,0.1,0.1,0.2,0.1,0.3c0,0.1-0.1,0.3-0.1,0.3c-0.1,0.1-0.2,0.1-0.3,0.1C152.1,72,152.1,72,151.9,71.9z M151.9,77.7V73h0.8v4.7
			C152.7,77.7,151.9,77.7,151.9,77.7z"/>
		<path class="st16" d="M155.9,77.7c-0.7,0-1.2-0.2-1.6-0.7c-0.4-0.5-0.6-1-0.6-1.7c0-0.7,0.2-1.2,0.6-1.7c0.4-0.5,0.9-0.7,1.6-0.7
			c0.7,0,1.2,0.2,1.6,0.7c0.4,0.5,0.5,1,0.5,1.7c0,0.7-0.2,1.2-0.6,1.7C157.1,77.5,156.6,77.7,155.9,77.7z M155.9,73.6
			c-0.4,0-0.8,0.1-1,0.5c-0.3,0.4-0.3,0.8-0.3,1.2s0.1,0.9,0.4,1.2c0.3,0.3,0.6,0.5,1,0.5c0.5,0,0.8-0.1,1.1-0.5
			c0.3-0.3,0.3-0.8,0.3-1.2c0-0.5-0.1-1-0.3-1.3S156.5,73.6,155.9,73.6z"/>
		<path class="st16" d="M159.9,73v0.8c0.3-0.5,0.8-0.9,1.4-0.9c0.5,0,0.8,0.1,1.1,0.4c0.3,0.3,0.4,0.6,0.4,1.1v3.2h-0.8v-3
			c0-0.3-0.1-0.6-0.3-0.8c-0.2-0.2-0.4-0.3-0.7-0.3c-0.3,0-0.6,0.1-0.9,0.4c-0.3,0.3-0.4,0.6-0.4,1.1v2.5h-0.7V73H159.9L159.9,73z"
			/>
		<path class="st16" d="M166.5,74v-0.8c0.3-0.2,0.8-0.3,1.4-0.3c1.2,0,1.8,0.6,1.8,1.8v3H169v-0.5c-0.2,0.4-0.7,0.6-1.3,0.6
			c-0.4,0-0.8-0.1-1-0.4c-0.3-0.3-0.4-0.5-0.4-1c0-0.5,0.1-0.8,0.5-1c0.3-0.2,0.8-0.3,1.4-0.3h0.8v-0.2c0-0.3-0.1-0.6-0.3-0.8
			c-0.1-0.2-0.4-0.3-0.8-0.3C167.3,73.6,166.9,73.7,166.5,74z M169,75.6h-0.8c-0.4,0-0.7,0.1-0.9,0.2s-0.3,0.3-0.3,0.5
			c0,0.2,0.1,0.4,0.2,0.5c0.1,0.1,0.3,0.2,0.7,0.2c0.3,0,0.6-0.1,0.8-0.3c0.2-0.2,0.3-0.4,0.3-0.7V75.6z"/>
		<path class="st16" d="M171.6,73v0.8c0.3-0.5,0.8-0.9,1.4-0.9c0.5,0,0.8,0.1,1.1,0.4c0.3,0.3,0.4,0.6,0.4,1.1v3.2h-0.8v-3
			c0-0.3-0.1-0.6-0.3-0.8c-0.2-0.2-0.4-0.3-0.7-0.3c-0.3,0-0.6,0.1-0.9,0.4c-0.3,0.3-0.4,0.6-0.4,1.1v2.5h-0.7V73H171.6L171.6,73z"
			/>
		<path class="st16" d="M179.1,71.2h0.8v6.5h-0.8V77c-0.3,0.5-0.8,0.8-1.4,0.8s-1.1-0.2-1.4-0.7c-0.3-0.5-0.5-1-0.5-1.6
			c0-0.8,0.2-1.3,0.5-1.8c0.3-0.5,0.8-0.7,1.4-0.7s1.1,0.3,1.4,0.8V71.2z M177.7,77.1c0.4,0,0.7-0.1,1-0.4c0.3-0.3,0.4-0.8,0.4-1.4
			s-0.1-1-0.4-1.3c-0.3-0.3-0.5-0.4-0.9-0.4c-0.4,0-0.7,0.1-1,0.5c-0.3,0.3-0.4,0.8-0.4,1.3c0,0.5,0.1,0.9,0.3,1.2
			C177,76.9,177.3,77.1,177.7,77.1z"/>
	</g>
	<g class="st13">
		<path class="st16" d="M35.6,82.2h0.8v6.5h-0.8v-0.7c-0.3,0.5-0.8,0.8-1.4,0.8s-1.1-0.2-1.4-0.7c-0.3-0.5-0.5-1-0.5-1.6
			c0-0.8,0.2-1.3,0.5-1.8s0.8-0.7,1.4-0.7s1.1,0.3,1.4,0.8V82.2z M34.2,88.1c0.4,0,0.7-0.1,1-0.4c0.3-0.3,0.4-0.8,0.4-1.4
			c0-0.6-0.1-1-0.4-1.3c-0.3-0.3-0.5-0.4-0.9-0.4c-0.4,0-0.7,0.1-1,0.5s-0.4,0.8-0.4,1.3c0,0.5,0.1,0.9,0.3,1.2
			C33.5,88,33.8,88.1,34.2,88.1z"/>
		<path class="st16" d="M37.7,82.9c-0.1-0.1-0.1-0.2-0.1-0.3s0.1-0.3,0.1-0.3c0.1-0.1,0.2-0.1,0.3-0.1s0.3,0.1,0.3,0.1
			s0.1,0.2,0.1,0.3s-0.1,0.3-0.1,0.3S38.2,83,38.1,83C37.9,83,37.8,83,37.7,82.9z M37.6,88.7v-4.7h0.8v4.7H37.6z"/>
		<path class="st16" d="M42.3,84.2v0.7c-0.3-0.1-0.7-0.3-1.2-0.3c-0.3,0-0.4,0.1-0.6,0.1c-0.1,0.1-0.2,0.3-0.2,0.4
			c0,0.1,0,0.2,0.1,0.3s0.1,0.1,0.3,0.3c0.1,0.1,0.2,0.1,0.3,0.1c0.1,0,0.2,0.1,0.4,0.1c0.4,0.1,0.7,0.3,0.9,0.5
			c0.2,0.2,0.3,0.5,0.3,0.8c0,0.4-0.1,0.7-0.4,1c-0.3,0.2-0.7,0.3-1.2,0.3c-0.5,0-1-0.1-1.4-0.3v-0.7c0.4,0.3,0.8,0.3,1.3,0.3
			c0.3,0,0.5-0.1,0.6-0.1c0.1-0.1,0.2-0.3,0.2-0.5s-0.1-0.4-0.3-0.5c-0.1-0.1-0.4-0.3-0.8-0.4c-0.3-0.1-0.6-0.3-0.8-0.5
			c-0.2-0.2-0.3-0.5-0.3-0.8c0-0.4,0.1-0.7,0.4-0.9s0.7-0.3,1.1-0.3C41.6,84,42,84.1,42.3,84.2z"/>
		<path class="st16" d="M43.7,85v-0.8c0.3-0.2,0.8-0.3,1.4-0.3c1.2,0,1.8,0.6,1.8,1.8v3h-0.7v-0.5c-0.2,0.4-0.7,0.6-1.3,0.6
			c-0.4,0-0.8-0.1-1-0.4c-0.3-0.3-0.4-0.5-0.4-1c0-0.5,0.1-0.8,0.5-1c0.3-0.2,0.8-0.3,1.4-0.3h0.8v-0.2c0-0.3-0.1-0.6-0.3-0.8
			c-0.1-0.2-0.4-0.3-0.8-0.3C44.5,84.6,44,84.8,43.7,85z M46.1,86.5h-0.8c-0.4,0-0.7,0.1-0.9,0.2c-0.2,0.1-0.3,0.3-0.3,0.5
			c0,0.2,0.1,0.4,0.2,0.5c0.1,0.1,0.3,0.2,0.7,0.2s0.6-0.1,0.8-0.3c0.2-0.2,0.3-0.4,0.3-0.7V86.5z"/>
		<path class="st16" d="M50.6,84.2v0.7c-0.3-0.1-0.7-0.3-1.2-0.3c-0.3,0-0.4,0.1-0.6,0.1c-0.1,0.1-0.2,0.3-0.2,0.4
			c0,0.1,0,0.2,0.1,0.3c0.1,0.1,0.1,0.1,0.3,0.3c0.1,0.1,0.2,0.1,0.3,0.1s0.2,0.1,0.4,0.1c0.4,0.1,0.7,0.3,0.9,0.5
			c0.2,0.2,0.3,0.5,0.3,0.8c0,0.4-0.1,0.7-0.4,1c-0.3,0.2-0.7,0.3-1.2,0.3c-0.5,0-1-0.1-1.4-0.3v-0.7c0.4,0.3,0.8,0.3,1.3,0.3
			c0.3,0,0.5-0.1,0.6-0.1c0.1-0.1,0.2-0.3,0.2-0.5S50,87,49.8,86.9c-0.1-0.1-0.4-0.3-0.8-0.4c-0.3-0.1-0.6-0.3-0.8-0.5
			c-0.2-0.2-0.3-0.5-0.3-0.8c0-0.4,0.1-0.7,0.4-0.9s0.7-0.3,1.1-0.3C49.9,84,50.4,84.1,50.6,84.2z"/>
		<path class="st16" d="M52.9,84.6v2.7c0,0.5,0.2,0.8,0.7,0.8c0.2,0,0.5-0.1,0.6-0.2v0.7c-0.2,0.1-0.4,0.1-0.7,0.1
			c-0.9,0-1.4-0.5-1.4-1.4v-2.7h-0.8V84h0.8v-1.2h0.8V84h1.3v0.6H52.9z"/>
		<path class="st16" d="M58.7,87.8v0.7c-0.3,0.2-0.8,0.3-1.3,0.3c-0.7,0-1.3-0.2-1.7-0.6c-0.4-0.4-0.6-1-0.6-1.7
			c0-0.8,0.2-1.3,0.5-1.8c0.4-0.4,0.9-0.6,1.5-0.6c0.5,0,1,0.2,1.4,0.5s0.5,0.9,0.5,1.6c0,0.2,0,0.3-0.1,0.5h-3.2
			c0.1,0.5,0.2,0.8,0.5,1c0.3,0.3,0.7,0.3,1.2,0.3C58,88.1,58.4,88,58.7,87.8z M58.3,86.1v-0.2c0-0.4-0.1-0.7-0.3-0.9
			c-0.2-0.2-0.5-0.3-0.9-0.3c-0.3,0-0.6,0.1-0.9,0.3c-0.3,0.3-0.4,0.6-0.4,1.1H58.3L58.3,86.1z"/>
		<path class="st16" d="M60.8,84.1v0.8c0.3-0.5,0.7-0.9,1.2-0.9c0.1,0,0.2,0,0.3,0v0.7c-0.1-0.1-0.3-0.1-0.4-0.1
			c-0.3,0-0.6,0.1-0.8,0.5c-0.2,0.3-0.3,0.6-0.3,1v2.5H60V84L60.8,84.1L60.8,84.1z"/>
		<path class="st16" d="M66,84.1v0.8c0.3-0.5,0.7-0.9,1.2-0.9c0.1,0,0.2,0,0.3,0v0.7c-0.1-0.1-0.3-0.1-0.4-0.1
			c-0.3,0-0.6,0.1-0.8,0.5c-0.2,0.3-0.3,0.6-0.3,1v2.5h-0.8V84L66,84.1L66,84.1z"/>
		<path class="st16" d="M71.7,87.8v0.7c-0.3,0.2-0.8,0.3-1.3,0.3c-0.7,0-1.3-0.2-1.7-0.6c-0.4-0.4-0.6-1-0.6-1.7
			c0-0.8,0.2-1.3,0.5-1.8s0.9-0.6,1.5-0.6c0.5,0,1,0.2,1.4,0.5s0.5,0.9,0.5,1.6c0,0.2,0,0.3-0.1,0.5h-3.2c0.1,0.5,0.2,0.8,0.5,1
			c0.3,0.3,0.7,0.3,1.2,0.3C71,88.1,71.4,88,71.7,87.8z M71.3,86.1v-0.2c0-0.4-0.1-0.7-0.3-0.9c-0.2-0.2-0.5-0.3-0.9-0.3
			c-0.3,0-0.6,0.1-0.9,0.3c-0.3,0.3-0.4,0.6-0.4,1.1H71.3L71.3,86.1z"/>
		<path class="st16" d="M75.6,84.2v0.7c-0.3-0.1-0.7-0.3-1.2-0.3c-0.3,0-0.4,0.1-0.6,0.1c-0.1,0.1-0.2,0.3-0.2,0.4
			c0,0.1,0,0.2,0.1,0.3c0.1,0.1,0.1,0.1,0.3,0.3c0.1,0.1,0.2,0.1,0.3,0.1c0.1,0,0.2,0.1,0.4,0.1c0.4,0.1,0.7,0.3,0.9,0.5
			c0.2,0.2,0.3,0.5,0.3,0.8c0,0.4-0.1,0.7-0.4,1c-0.3,0.2-0.7,0.3-1.2,0.3c-0.5,0-1-0.1-1.4-0.3v-0.7c0.4,0.3,0.8,0.3,1.3,0.3
			c0.3,0,0.5-0.1,0.6-0.1c0.1-0.1,0.2-0.3,0.2-0.5S75,87,74.8,86.9c-0.1-0.1-0.4-0.3-0.8-0.4c-0.3-0.1-0.6-0.3-0.8-0.5
			c-0.2-0.2-0.3-0.5-0.3-0.8c0-0.4,0.1-0.7,0.4-0.9c0.3-0.2,0.7-0.3,1.1-0.3C75,84,75.4,84.1,75.6,84.2z"/>
		<path class="st16" d="M77.6,84.1v0.7c0.3-0.5,0.8-0.8,1.4-0.8c0.6,0,1.1,0.2,1.4,0.7c0.3,0.5,0.5,1,0.5,1.7s-0.2,1.3-0.5,1.8
			c-0.3,0.5-0.8,0.7-1.4,0.7c-0.6,0-1.1-0.3-1.4-0.8v2.5H77v-6.5h0.7V84.1z M78.9,88.1c0.4,0,0.7-0.1,1-0.5s0.3-0.8,0.3-1.3
			c0-0.5-0.1-0.9-0.3-1.2c-0.3-0.3-0.5-0.5-1-0.5c-0.4,0-0.7,0.1-1,0.4c-0.3,0.3-0.4,0.7-0.4,1.3s0.1,1,0.4,1.3
			C78.3,88,78.6,88.1,78.9,88.1z"/>
		<path class="st16" d="M84,88.8c-0.7,0-1.2-0.2-1.6-0.7c-0.4-0.5-0.6-1-0.6-1.7s0.2-1.2,0.6-1.7c0.4-0.5,0.9-0.7,1.6-0.7
			s1.2,0.2,1.6,0.7c0.4,0.5,0.5,1,0.5,1.7s-0.2,1.2-0.6,1.7C85.2,88.6,84.7,88.8,84,88.8z M84,84.6c-0.4,0-0.8,0.1-1,0.5
			c-0.3,0.4-0.3,0.8-0.3,1.2s0.1,0.9,0.4,1.2c0.3,0.3,0.6,0.5,1,0.5c0.5,0,0.8-0.1,1.1-0.5c0.3-0.3,0.3-0.8,0.3-1.2
			c0-0.5-0.1-1-0.3-1.3C85,84.8,84.5,84.6,84,84.6z"/>
		<path class="st16" d="M88,84.1v0.8c0.3-0.5,0.8-0.9,1.4-0.9c0.5,0,0.8,0.1,1.1,0.4c0.3,0.3,0.4,0.6,0.4,1.1v3.2h-0.8v-3
			c0-0.3-0.1-0.6-0.3-0.8c-0.2-0.2-0.4-0.3-0.7-0.3c-0.3,0-0.6,0.1-0.9,0.4c-0.3,0.3-0.4,0.6-0.4,1.1v2.5h-0.7v-4.7H88L88,84.1z"/>
		<path class="st16" d="M94.8,84.2v0.7c-0.3-0.1-0.7-0.3-1.2-0.3c-0.3,0-0.4,0.1-0.5,0.1c-0.1,0.1-0.2,0.3-0.2,0.4
			c0,0.1,0,0.2,0.1,0.3c0.1,0.1,0.1,0.1,0.3,0.3c0.1,0.1,0.2,0.1,0.3,0.1c0.1,0,0.2,0.1,0.4,0.1c0.4,0.1,0.7,0.3,0.9,0.5
			c0.2,0.2,0.3,0.5,0.3,0.8c0,0.4-0.1,0.7-0.4,1c-0.3,0.2-0.7,0.3-1.2,0.3c-0.5,0-1-0.1-1.4-0.3v-0.7c0.4,0.3,0.8,0.3,1.3,0.3
			c0.3,0,0.5-0.1,0.6-0.1c0.1-0.1,0.2-0.3,0.2-0.5s-0.1-0.4-0.3-0.5c-0.1-0.1-0.4-0.3-0.8-0.4c-0.3-0.1-0.6-0.3-0.8-0.5
			c-0.2-0.2-0.3-0.5-0.3-0.8c0-0.4,0.1-0.7,0.4-0.9c0.3-0.2,0.7-0.3,1.1-0.3C94.1,84,94.5,84.1,94.8,84.2z"/>
		<path class="st16" d="M99.5,87.8v0.7c-0.3,0.2-0.8,0.3-1.3,0.3c-0.7,0-1.3-0.2-1.7-0.6c-0.4-0.4-0.6-1-0.6-1.7
			c0-0.8,0.2-1.3,0.5-1.8c0.4-0.4,0.9-0.6,1.5-0.6c0.5,0,1,0.2,1.4,0.5s0.5,0.9,0.5,1.6c0,0.2,0,0.3-0.1,0.5h-3.2
			c0.1,0.5,0.2,0.8,0.5,1c0.3,0.3,0.7,0.3,1.2,0.3C98.7,88.1,99.1,88,99.5,87.8z M99,86.1v-0.2c0-0.4-0.1-0.7-0.3-0.9
			c-0.2-0.2-0.5-0.3-0.9-0.3c-0.3,0-0.6,0.1-0.9,0.3c-0.3,0.3-0.4,0.6-0.4,1.1H99L99,86.1z"/>
		<path class="st16" d="M103.2,85v-0.8c0.3-0.2,0.8-0.3,1.4-0.3c1.2,0,1.8,0.6,1.8,1.8v3h-0.7v-0.5c-0.2,0.4-0.7,0.6-1.3,0.6
			c-0.4,0-0.8-0.1-1-0.4c-0.3-0.3-0.4-0.5-0.4-1c0-0.5,0.1-0.8,0.5-1c0.3-0.2,0.8-0.3,1.4-0.3h0.8v-0.2c0-0.3-0.1-0.6-0.3-0.8
			c-0.1-0.2-0.4-0.3-0.8-0.3C104,84.6,103.6,84.8,103.2,85z M105.6,86.5h-0.8c-0.4,0-0.7,0.1-0.9,0.2c-0.2,0.1-0.3,0.3-0.3,0.5
			c0,0.2,0.1,0.4,0.2,0.5c0.1,0.1,0.3,0.2,0.7,0.2s0.6-0.1,0.8-0.3c0.2-0.2,0.3-0.4,0.3-0.7V86.5z"/>
		<path class="st16" d="M108.1,86.4c0,0.5,0.1,0.9,0.5,1.2s0.8,0.5,1.3,0.5c0.3,0,0.7-0.1,1-0.3v0.7c-0.3,0.2-0.7,0.3-1.1,0.3
			c-0.8,0-1.3-0.2-1.7-0.7c-0.4-0.5-0.6-1-0.6-1.7s0.2-1.2,0.6-1.7s1-0.7,1.8-0.7c0.4,0,0.8,0.1,1.1,0.3V85c-0.3-0.2-0.6-0.3-1-0.3
			c-0.5,0-1,0.1-1.2,0.5C108.3,85.5,108.1,85.9,108.1,86.4z"/>
		<path class="st16" d="M113,84.6v2.7c0,0.5,0.2,0.8,0.7,0.8c0.2,0,0.5-0.1,0.6-0.2v0.7c-0.2,0.1-0.4,0.1-0.7,0.1
			c-0.9,0-1.4-0.5-1.4-1.4v-2.7h-0.8V84h0.8v-1.2h0.8V84h1.3v0.6H113z"/>
		<path class="st16" d="M115.4,82.9c-0.1-0.1-0.1-0.2-0.1-0.3s0.1-0.3,0.1-0.3c0.1-0.1,0.2-0.1,0.3-0.1c0.1,0,0.3,0.1,0.3,0.1
			c0.1,0.1,0.1,0.2,0.1,0.3s-0.1,0.3-0.1,0.3c-0.1,0.1-0.2,0.1-0.3,0.1C115.6,83,115.5,83,115.4,82.9z M115.4,88.7v-4.7h0.8v4.7
			H115.4z"/>
		<path class="st16" d="M118.7,88.7l-1.6-4.7h0.8l0.6,2l0.7,2.1c0.1-0.3,0.3-1,0.7-2.1l0.7-2h0.8l-1.6,4.7H118.7z"/>
		<path class="st16" d="M122.2,82.9c-0.1-0.1-0.1-0.2-0.1-0.3s0.1-0.3,0.1-0.3c0.1-0.1,0.2-0.1,0.3-0.1c0.1,0,0.3,0.1,0.3,0.1
			c0.1,0.1,0.1,0.2,0.1,0.3s-0.1,0.3-0.1,0.3c-0.1,0.1-0.2,0.1-0.3,0.1C122.4,83,122.3,83,122.2,82.9z M122.2,88.7v-4.7h0.8v4.7
			H122.2z"/>
		<path class="st16" d="M125.3,84.6v2.7c0,0.5,0.2,0.8,0.7,0.8c0.2,0,0.5-0.1,0.6-0.2v0.7c-0.2,0.1-0.4,0.1-0.7,0.1
			c-0.9,0-1.4-0.5-1.4-1.4v-2.7h-0.8V84h0.8v-1.2h0.8V84h1.3v0.6H125.3z"/>
		<path class="st16" d="M127.7,82.9c-0.1-0.1-0.1-0.2-0.1-0.3s0.1-0.3,0.1-0.3c0.1-0.1,0.2-0.1,0.3-0.1c0.1,0,0.3,0.1,0.3,0.1
			s0.1,0.2,0.1,0.3s-0.1,0.3-0.1,0.3s-0.2,0.1-0.3,0.1C127.9,83,127.8,83,127.7,82.9z M127.7,88.7v-4.7h0.8v4.7H127.7z"/>
		<path class="st16" d="M133.2,87.8v0.7c-0.3,0.2-0.8,0.3-1.3,0.3c-0.7,0-1.3-0.2-1.7-0.6c-0.4-0.4-0.6-1-0.6-1.7
			c0-0.8,0.2-1.3,0.5-1.8c0.4-0.4,0.9-0.6,1.5-0.6c0.5,0,1,0.2,1.4,0.5c0.3,0.3,0.5,0.9,0.5,1.6c0,0.2,0,0.3-0.1,0.5h-3.2
			c0.1,0.5,0.2,0.8,0.5,1c0.3,0.3,0.7,0.3,1.2,0.3C132.5,88.1,132.9,88,133.2,87.8z M132.8,86.1v-0.2c0-0.4-0.1-0.7-0.3-0.9
			c-0.2-0.2-0.5-0.3-0.9-0.3c-0.3,0-0.6,0.1-0.9,0.3c-0.3,0.3-0.4,0.6-0.4,1.1H132.8L132.8,86.1z"/>
		<path class="st16" d="M137.1,84.2v0.7c-0.3-0.1-0.7-0.3-1.2-0.3c-0.3,0-0.4,0.1-0.5,0.1c-0.1,0.1-0.2,0.3-0.2,0.4
			c0,0.1,0,0.2,0.1,0.3s0.1,0.1,0.3,0.3c0.1,0.1,0.2,0.1,0.3,0.1c0.1,0,0.2,0.1,0.4,0.1c0.4,0.1,0.7,0.3,0.9,0.5
			c0.2,0.2,0.3,0.5,0.3,0.8c0,0.4-0.1,0.7-0.4,1c-0.3,0.2-0.7,0.3-1.2,0.3c-0.5,0-1-0.1-1.4-0.3v-0.7c0.4,0.3,0.8,0.3,1.3,0.3
			c0.3,0,0.5-0.1,0.6-0.1c0.1-0.1,0.2-0.3,0.2-0.5s-0.1-0.4-0.3-0.5c-0.1-0.1-0.4-0.3-0.8-0.4c-0.3-0.1-0.6-0.3-0.8-0.5
			c-0.2-0.2-0.3-0.5-0.3-0.8c0-0.4,0.1-0.7,0.4-0.9s0.7-0.3,1.1-0.3C136.5,84,136.9,84.1,137.1,84.2z"/>
		<path class="st16" d="M141.7,84.6v2.7c0,0.5,0.2,0.8,0.7,0.8c0.2,0,0.5-0.1,0.6-0.2v0.7c-0.2,0.1-0.4,0.1-0.7,0.1
			c-0.9,0-1.4-0.5-1.4-1.4v-2.7h-0.8V84h0.8v-1.2h0.8V84h1.3v0.6H141.7z"/>
		<path class="st16" d="M144.8,82.2v2.7c0.3-0.5,0.8-0.9,1.4-0.9c0.5,0,0.8,0.1,1.1,0.4c0.3,0.3,0.4,0.6,0.4,1.1v3.2H147v-3
			c0-0.3-0.1-0.6-0.3-0.8c-0.2-0.2-0.4-0.3-0.7-0.3c-0.3,0-0.6,0.1-0.9,0.4c-0.3,0.3-0.4,0.6-0.4,1.1v2.5H144v-6.5L144.8,82.2
			L144.8,82.2z"/>
		<path class="st16" d="M149.1,85v-0.8c0.3-0.2,0.8-0.3,1.4-0.3c1.2,0,1.8,0.6,1.8,1.8v3h-0.7v-0.5c-0.2,0.4-0.7,0.6-1.3,0.6
			c-0.4,0-0.8-0.1-1-0.4c-0.3-0.3-0.4-0.5-0.4-1c0-0.5,0.1-0.8,0.5-1c0.3-0.2,0.8-0.3,1.4-0.3h0.8v-0.2c0-0.3-0.1-0.6-0.3-0.8
			c-0.1-0.2-0.4-0.3-0.8-0.3C149.9,84.6,149.5,84.8,149.1,85z M151.5,86.5h-0.8c-0.4,0-0.7,0.1-0.9,0.2c-0.2,0.1-0.3,0.3-0.3,0.5
			c0,0.2,0.1,0.4,0.2,0.5c0.1,0.1,0.3,0.2,0.7,0.2s0.6-0.1,0.8-0.3c0.2-0.2,0.3-0.4,0.3-0.7V86.5z"/>
		<path class="st16" d="M154.5,84.6v2.7c0,0.5,0.2,0.8,0.7,0.8c0.2,0,0.5-0.1,0.6-0.2v0.7c-0.2,0.1-0.4,0.1-0.7,0.1
			c-0.9,0-1.4-0.5-1.4-1.4v-2.7H153V84h0.8v-1.2h0.8V84h1.3v0.6H154.5z"/>
		<path class="st16" d="M161.7,84.2v0.7c-0.3-0.1-0.7-0.3-1.2-0.3c-0.3,0-0.4,0.1-0.5,0.1c-0.1,0.1-0.2,0.3-0.2,0.4
			c0,0.1,0,0.2,0.1,0.3s0.1,0.1,0.3,0.3c0.1,0.1,0.2,0.1,0.3,0.1c0.1,0,0.2,0.1,0.4,0.1c0.4,0.1,0.7,0.3,0.9,0.5
			c0.2,0.2,0.3,0.5,0.3,0.8c0,0.4-0.1,0.7-0.4,1c-0.3,0.2-0.7,0.3-1.2,0.3c-0.5,0-1-0.1-1.4-0.3v-0.7c0.4,0.3,0.8,0.3,1.3,0.3
			c0.3,0,0.5-0.1,0.6-0.1c0.1-0.1,0.2-0.3,0.2-0.5s-0.1-0.4-0.3-0.5c-0.1-0.1-0.4-0.3-0.8-0.4c-0.3-0.1-0.6-0.3-0.8-0.5
			c-0.2-0.2-0.3-0.5-0.3-0.8c0-0.4,0.1-0.7,0.4-0.9c0.3-0.2,0.7-0.3,1.1-0.3C161.1,84,161.4,84.1,161.7,84.2z"/>
		<path class="st16" d="M163.1,85v-0.8c0.3-0.2,0.8-0.3,1.4-0.3c1.2,0,1.8,0.6,1.8,1.8v3h-0.7v-0.5c-0.2,0.4-0.7,0.6-1.3,0.6
			c-0.4,0-0.8-0.1-1-0.4c-0.3-0.3-0.4-0.5-0.4-1c0-0.5,0.1-0.8,0.5-1c0.3-0.2,0.8-0.3,1.4-0.3h0.8v-0.2c0-0.3-0.1-0.6-0.3-0.8
			c-0.1-0.2-0.4-0.3-0.8-0.3C163.9,84.6,163.5,84.8,163.1,85z M165.5,86.5h-0.8c-0.4,0-0.7,0.1-0.9,0.2c-0.2,0.1-0.3,0.3-0.3,0.5
			c0,0.2,0.1,0.4,0.2,0.5c0.1,0.1,0.3,0.2,0.7,0.2c0.3,0,0.6-0.1,0.8-0.3c0.2-0.2,0.3-0.4,0.3-0.7V86.5z"/>
		<path class="st16" d="M168.7,88.7l-1.6-4.7h0.8l0.6,2l0.7,2.1c0.1-0.3,0.3-1,0.7-2.1l0.7-2h0.8l-1.6,4.7H168.7z"/>
		<path class="st16" d="M175.6,87.8v0.7c-0.3,0.2-0.8,0.3-1.3,0.3c-0.7,0-1.3-0.2-1.7-0.6c-0.4-0.4-0.6-1-0.6-1.7
			c0-0.8,0.2-1.3,0.5-1.8c0.3-0.5,0.9-0.6,1.5-0.6c0.5,0,1,0.2,1.4,0.5c0.3,0.3,0.5,0.9,0.5,1.6c0,0.2,0,0.3-0.1,0.5h-3.2
			c0.1,0.5,0.2,0.8,0.5,1c0.3,0.3,0.7,0.3,1.2,0.3C174.8,88.1,175.2,88,175.6,87.8z M175.1,86.1v-0.2c0-0.4-0.1-0.7-0.3-0.9
			c-0.2-0.2-0.5-0.3-0.9-0.3c-0.3,0-0.6,0.1-0.9,0.3c-0.3,0.3-0.4,0.6-0.4,1.1H175.1L175.1,86.1z"/>
		<path class="st16" d="M179.2,88.7v-6.5h0.8v6.5H179.2z"/>
		<path class="st16" d="M181.4,82.9c-0.1-0.1-0.1-0.2-0.1-0.3s0.1-0.3,0.1-0.3c0.1-0.1,0.2-0.1,0.3-0.1c0.1,0,0.3,0.1,0.3,0.1
			s0.1,0.2,0.1,0.3s-0.1,0.3-0.1,0.3s-0.2,0.1-0.3,0.1C181.6,83,181.5,83,181.4,82.9z M181.3,88.7v-4.7h0.8v4.7H181.3z"/>
		<path class="st16" d="M184.6,88.7l-1.6-4.7h0.8l0.6,2l0.7,2.1c0.1-0.3,0.3-1,0.7-2.1l0.7-2h0.8l-1.6,4.7H184.6z"/>
		<path class="st16" d="M191.5,87.8v0.7c-0.3,0.2-0.8,0.3-1.3,0.3c-0.7,0-1.3-0.2-1.7-0.6c-0.4-0.4-0.6-1-0.6-1.7
			c0-0.8,0.2-1.3,0.5-1.8c0.3-0.5,0.9-0.6,1.5-0.6c0.5,0,1,0.2,1.4,0.5c0.3,0.3,0.5,0.9,0.5,1.6c0,0.2,0,0.3-0.1,0.5h-3.2
			c0.1,0.5,0.2,0.8,0.5,1c0.3,0.3,0.7,0.3,1.2,0.3C190.8,88.1,191.2,88,191.5,87.8z M191.1,86.1v-0.2c0-0.4-0.1-0.7-0.3-0.9
			c-0.2-0.2-0.5-0.3-0.9-0.3c-0.3,0-0.6,0.1-0.9,0.3c-0.3,0.3-0.4,0.6-0.4,1.1H191.1L191.1,86.1z"/>
		<path class="st16" d="M195.5,84.2v0.7c-0.3-0.1-0.7-0.3-1.2-0.3c-0.3,0-0.4,0.1-0.6,0.1c-0.1,0.1-0.2,0.3-0.2,0.4
			c0,0.1,0,0.2,0.1,0.3c0.1,0.1,0.1,0.1,0.3,0.3c0.1,0.1,0.2,0.1,0.3,0.1s0.2,0.1,0.4,0.1c0.4,0.1,0.7,0.3,0.9,0.5
			c0.2,0.2,0.3,0.5,0.3,0.8c0,0.4-0.1,0.7-0.4,1c-0.3,0.2-0.7,0.3-1.2,0.3c-0.5,0-1-0.1-1.4-0.3v-0.7c0.4,0.3,0.8,0.3,1.3,0.3
			c0.3,0,0.5-0.1,0.6-0.1c0.1-0.1,0.2-0.3,0.2-0.5s-0.1-0.4-0.3-0.5c-0.1-0.1-0.4-0.3-0.8-0.4c-0.3-0.1-0.6-0.3-0.8-0.5
			c-0.2-0.2-0.3-0.5-0.3-0.8c0-0.4,0.1-0.7,0.4-0.9s0.7-0.3,1.1-0.3C194.8,84,195.1,84.1,195.5,84.2z"/>
	</g>
</g>
</svg>
