<?xml version="1.0" encoding="utf-8"?>
<!-- Generator: Adobe Illustrator 19.1.0, SVG Export Plug-In . SVG Version: 6.00 Build 0)  -->
<svg version="1.1" id="Layer_1" xmlns="http://www.w3.org/2000/svg" xmlns:xlink="http://www.w3.org/1999/xlink" x="0px" y="0px"
	 viewBox="44 -62.5 231.2 338.5" style="enable-background:new 44 -62.5 231.2 338.5;" xml:space="preserve">
<style type="text/css">
	.st0{fill:#303030;}
	.st1{fill:#C7E7E0;}
	.st2{fill:#66C8CB;}
	.st3{fill:#19403E;}
	.st4{fill:#94D3D2;}
	.st5{fill:#28BEC3;}
	.st6{fill:#1C5C57;}
	.st7{fill:#218D8F;}
	.st8{fill:#1B4F4C;}
	.st9{fill:#FFFFFF;}
	.st10{fill:#1E6969;}
	.st11{enable-background:new    ;}
	.st12{fill:#535454;}
	.st13{fill:#030303;}
</style>
<rect x="44" y="-62.5" class="st0" width="231.2" height="38"/>
<rect x="44" y="-24.5" class="st1" width="231.2" height="300.5"/>
<g>
	<path class="st2" d="M200.8,148.6c0-6.5-3.2-12.2-8.1-15.8c1.8,9,4.4,30.3-8.3,35.3C193.7,166.4,200.8,158.3,200.8,148.6z"/>
	<path class="st3" d="M114.5,153.3c0,0-3.7,2.6-0.3,8.4c3.6,5.9,8.3,7.6,7,11.9c-1.4,4.3,10.2,1.1,12.9,0c2.7-1.1,15-1.2,15,0
		c0,1.2,5.9-5.9,5.3-15.5c-0.7-9.6-3.7-18.9-11.6-17.8C134.7,141.4,114.5,153.3,114.5,153.3z"/>
	<path class="st4" d="M127.1,194.7l31.9,8.1l85.4-16.3c0,0-5.7,44.1-86.1,44.1c-29.2,0-47.4-5.9-58.7-13.3
		c-19.6-13-18.4-30.9-18.4-30.9L127.1,194.7z"/>
	<path class="st4" d="M153.5,148.6c0-11-8.9-19.9-19.9-19.9c-6.2,0-11.6,3-15.3,7.4l16.6,7.7l5,4.8c0,0,6.2,9,6.2,15.2
		C150.5,160.3,153.5,154.8,153.5,148.6z"/>
	<path class="st5" d="M139.8,171c0,0,16.1-5.7,12.8,10.3c-3.3,16.1-15,21.6-15,21.6l-5.4-3c0,0,7.7-5.4,10.4-10.3s4.3-11.4,3.2-12.5
		c-1.1-1.1-0.1,12.3-0.1,12.3l-9.4,8.4l-12.5-3.2l3.5-20.9c0,0,3.3-3.6,6.5-3c3.1,0.6,4.8,1,4.8,1L139.8,171z"/>
	<polygon class="st3" points="177.1,202.4 181.6,207.6 220.5,203.9 220.5,202.2 177.1,201.3 	"/>
	<polygon class="st6" points="177.1,201.3 181.6,206 220.5,202.2 211.8,197 	"/>
	<polygon class="st3" points="143.8,202.4 139.3,207.6 100.4,203.9 100.4,202.2 143.8,201.3 	"/>
	<polygon class="st6" points="143.8,201.3 139.3,206 100.4,202.2 109.1,197 	"/>
	<path class="st7" d="M179,172.2c0,0-13.4,3.8-13.5,14.6s-1.6,16.1,6.3,15.9c7.8,0,9.9-2.1,9.9-2.1l1.5-5.7c0,0-7.2,3.6-10.8-2.3
		s0.9-11,0.9-11v15l26.6-0.9l-3.7-19.5c0,0-5.4-6.5-11.3-5.3C179,172.2,179,172.2,179,172.2z"/>
	<path class="st8" d="M161.1,148.6c0,0-4.8,4.2-1.9,8.7c3,4.5,4.3,1,4.3,1L161.1,148.6z"/>
	<g>
		<path class="st8" d="M223.8,162.1c-1.9,25.9-18.8,33.3-27.6,35.4c6,0.3,21.7,1.3,24.7-1.9c3.3-3.6,5-30.2,5-30.2
			S225.9,162.6,223.8,162.1z"/>
		<path class="st6" d="M223.8,162.1c-0.3-0.1-0.3-0.3-0.7-0.3c-3,0-31,0-31,0s-1.8,1.3-1.3,6.6c0.5,5.4-0.1,26.9-0.1,26.9
			s-0.3,2.2,3.9,2.2c0.3,0,1,0,1.5,0C205.1,195.5,222.8,188.4,223.8,162.1z"/>
	</g>
	<path class="st3" d="M210.8,182.6c0,0-3.2,0.7-1.8,3.7s1.8,11,0.7,14.3c-1.1,3.5-2,6-2,6s1.5,2.5,4.1,0s4.2-7.1,4.2-13.6
		C215.9,186.7,213.7,184.2,210.8,182.6z"/>
	<path class="st3" d="M220.5,205.7c0,0-1.5,3.3-6.3,3.7c-4.8,0.3-13,0-13,0s-4.2-0.3-3.3-1.7c0.9-1.4,5.1-1.3,10.1-1.9
		C212.8,205.2,220.5,205.7,220.5,205.7z"/>
	<path class="st3" d="M196.1,136c0,0,0.3-3.7,4.5-1.2c4.2,2.6,4.8,4.7,4.4,7.1s-2.7,2,0.1,5.4c2.8,3.5,1.8,3.2,1.8,3.2
		s-4.3,0.5-5.4-3c-1-3.5-3.8-2.7-3.8-6.9"/>
	<path class="st2" d="M184.3,168.2c0,2.5,1.5,4.8,1.5,4.8s-3.8,0.6-5.4,0.9c-1.6,0.3-2.7-5.6-2.7-5.6H184.3L184.3,168.2z"/>
	<path class="st4" d="M178.5,200.1c0,0,1.2,3.3,4.4,2.7c3.2-0.6,1.3-2.7,1.3-2.7s1.5,2.2,4.2,1.4c2.7-0.9,5.6-4.8,0-5.7
		c-5.6-0.9-5-1.4-6.9-0.3C179.9,196.2,178.5,200.1,178.5,200.1z"/>
	<path class="st1" d="M135.6,168.2c0,0,0.3,5.9,3.1,5.6s0-7.1,0-7.1"/>
	<path class="st1" d="M134.1,197.9c-3.7,0-5.1,3.6-5.1,3.6s-0.6,3.6,1.1,1.3c1.7-2.1,2.8-1.3,2.8-1.3s-3,1.5-0.6,2
		c2.3,0.5,3.3-1,3.2-2c-0.1-1-0.3,2.6,1.4,2.1c1.6-0.5,2.8-3,1.7-3.8C137.7,198.9,138.9,197.9,134.1,197.9z"/>
	<path class="st1" d="M112.6,196.1c-3.7,0-5.1,3.6-5.1,3.6s-0.6,3.6,1.1,1.3c1.7-2.1,2.8-1.3,2.8-1.3s-3,1.5-0.6,2
		c2.3,0.5,3.3-1,3.2-2c-0.1-1-0.3,2.6,1.4,2.1c1.6-0.5,2.8-3,1.7-3.8C116,197.1,117.3,196.1,112.6,196.1z"/>
	<path class="st3" d="M88.7,205.2c0,0,1.5,3.3,6.3,3.7c4.8,0.3,13,0,13,0s4.2-0.3,3.3-1.7c-0.9-1.4-5.1-1.3-10.1-1.9
		C96.3,204.6,88.7,205.2,88.7,205.2z"/>
	<ellipse class="st9" cx="165.2" cy="211.6" rx="13.3" ry="5.6"/>
	<path class="st7" d="M145.8,176.9c0,0-4.1,1.5-3.3,6.5c0.7,4.8-2.5,9.7-3.6,10.6c-1,0.9,0,0,0,0l6.5-7.2L145.8,176.9z"/>
	<path class="st7" d="M144.6,144.8c0,0,1.9,2.1,1.3,3.8c-0.7,1.7-3.3,5.4-3.3,5.4s2.8-1.7,3.5-3.7c0.6-1.9,1-3.3,0.6-4.2
		C146.2,145.5,144.6,144.8,144.6,144.8z"/>
	<path class="st3" d="M165.2,139.5l-3.7,3.3c0,0,3,3.2,1.2,4.5c-1.7,1.3-2.7,1.8-2.7,4.7s2.5,7.6,2.5,7.6s3.7,4.7,5.9-1.3
		C170.7,152.4,165.2,139.5,165.2,139.5z"/>
	<g>
		<path class="st4" d="M193,133.4c-3.3-2.4-7.4-3.9-11.8-3.9c-5,0-9.5,1.8-13,4.8c-2.3,3.2-4.8,7.6-3.8,11.2
			c1.5,6.8-1.4,8.1,1.2,13.4c0.9,1.8,1.4,3.3,1.9,4.7c3.6,3.5,8.3,5.6,13.7,5.6c1.2,0,2.3-0.1,3.6-0.3
			C197.4,163.7,194.9,142.5,193,133.4z"/>
	</g>
	<path class="st3" d="M161.5,142.8c7.6-3.5,11.1-5.6,12.2-6.9c1.2-1.2-1.4,2.2-1.4,2.2s6.2,0,10.6-2.4s8.3-1.7,7.7,2
		c-0.7,3.7,2.4,3.7,4.4,3c1.9-0.7,3,9.3,1.5,11.2c-1.4,1.9-2.7,4.4-0.5,5.4c2.3,0.9,6.3-3.3,4.8-11.4c-1.5-8.1-6.3-17.6-16.4-17.6
		c-10.1,0-15,2.7-19.3,6.3C160.7,138.2,161.5,142.8,161.5,142.8z"/>
	<path class="st10" d="M173.1,130.4c0,0-5.9,2.7-8.7,6.3c-2.8,3.7,5.6-2.7,5.6-2.7L173.1,130.4z"/>
	<path class="st10" d="M179.9,131.1c0,0-1.3,5.4-4.8,5.9s0.9,1.2,3.7-1.7C181.7,132.3,179.9,131.1,179.9,131.1z"/>
	<g>
		<path class="st5" d="M170.4,210.4c0,0-0.8-1.7-1.8-2.7c-0.3-0.3-0.3-0.5-0.5-0.7c-0.8,0.3-1.3,0.7-1.3,0.7l-12,3.9l15.2,2.1
			c0,0,0.3,0.3,0.7,0.3C169.8,212.4,170.4,210.4,170.4,210.4z"/>
		<path class="st4" d="M173.4,213.7c-0.3-2.7-1.1-6.5-3-6.9c-0.9-0.3-1.7,0-2.4,0.3c0,0.3,0.3,0.3,0.5,0.7c1.1,0.9,1.8,2.7,1.8,2.7
			s-0.5,2,0.3,3.7C171.7,214.8,173.7,215.6,173.4,213.7z"/>
	</g>
	<ellipse class="st7" cx="166.4" cy="209.1" rx="1.5" ry="0.6"/>
	<ellipse class="st7" cx="163.6" cy="211.6" rx="1.5" ry="0.6"/>
	<g>
		<path class="st1" d="M139.9,148.6l-5-4.8l-10.3-4.8c-1.8,2.8-7.4,10.3-3.7,15c2.4,3,0.3,9.4,0.7,11.8c3,1.9,8.1,2.6,12,2.6
			c4.8,0,9-1.7,12.4-4.5C146.1,157.7,139.9,148.6,139.9,148.6z"/>
	</g>
	<path class="st4" d="M116,153.3c4.8-0.9,4.3,1.1,7.6,0.7c12.2-1.3,7.4-6.5,6.9-6.5L116,153.3z"/>
	<path class="st4" d="M129.6,155.1c4.8-0.9,2,0.1,5.3-0.9c4.1-1.3,4.3-6.6,3.7-6.6L129.6,155.1z"/>
	<g>
		<g>
			<path class="st10" d="M151.2,156.3c1.1-2.3-0.3-5.3-1.7-8.2c-1.4-3,0.3-4.7,1.7-9c1-3.2-2-7.2-3.9-9.3c-0.6-0.1-1.2-0.3-1.9-0.1
				c-8.3,0.3-2.8-3.7-13.2-2.5c-10.4,1.2-13.3,5.9-16.7,10.5c-3.5,4.7-0.5,7.6-2.8,9c-2.3,1.6,1.2,7-1.8,7.5c-3,0.5,0.5,2.2,3.3,0
				c0,0,7.2,1,11.4-3.5c4.2-4.4,4.4,3.5,3.1,4.7c-1.2,1.2,5-0.5,7.4-4.4c2.4-3.9,6.3,2.2,5.4,4.8c-1,2.6,6.3-3.6,5.9-6.3
				c-0.3-2.8,0.7-0.8,0,7c-0.3,4.8,0.3,8.4,1.8,9.7C148.1,164,150.2,158.4,151.2,156.3z"/>
			<path class="st8" d="M153.5,146.8c1.6-4.2,4.4-4.7,1.8-7.6c-2.4-2.7-2.3-8.9-8.6-9.8c1.8,2.1,4.8,6.2,3.9,9.3
				c-1.4,4.5-3.1,6.2-1.7,9c1.4,3,2.7,5.9,1.7,8.2c-1.1,2.3-3.1,7.8-1.8,9.7c0.9,0.8,2,0.6,3.2-0.9c3.1-3.7,0.1-11.3,3.8-11.1
				C159.5,154.2,151.8,151,153.5,146.8z"/>
		</g>
		<path class="st7" d="M131.5,128.2c0,0-10.2,1.7-13.1,9.2c-2.9,7.5-0.5-1.7,5-4.2C128.7,130.4,131.5,128.2,131.5,128.2z"/>
		<path class="st7" d="M126.4,142.8c0,0-1.4,6.2-6.9,7.7c-5.6,1.5-5.6,1.5-5.6,1.5s7.6,0.1,9.9-2.4
			C126.2,147.1,126.4,142.8,126.4,142.8z"/>
		<path class="st7" d="M116.6,149.2c0,0,2.7,0,4.5-1.7c1.8-1.6,2.8-3.7,2.8-4.8c0-1.1-0.6,1.5-2.2,3.6
			C119.9,148.4,116.6,149.2,116.6,149.2z"/>
	</g>
	<g>
		<path class="st8" d="M85.8,196.1c3.3,3.6,21.8,1.8,26.3,1.8s3.9-2.2,3.9-2.2s-0.6-21.5-0.1-26.9c0.5-5.4-1.3-6.6-1.3-6.6
			C110.5,182.8,85.8,196.1,85.8,196.1z"/>
		<path class="st6" d="M80.8,166.1c0,0,1.6,26.6,5,30.2c0,0,24.9-12.8,28.9-33.7c0,0-28.1,0-31,0C80.6,162.3,80.8,166.1,80.8,166.1z
			"/>
	</g>
	<path class="st3" d="M98.4,182.2c0,0,3.2,0.7,1.8,3.7c-1.4,3-1.8,11-0.7,14.3c1.1,3.5,2,6,2,6s-1.5,2.5-4.1,0
		c-2.6-2.5-4.2-7.1-4.2-13.6C93.3,186.1,95.4,183.6,98.4,182.2z"/>
</g>
<g class="st11">
	<path class="st12" d="M85.7,18.9v2.6c-1-0.6-2-0.9-3-0.9c-0.4,0-0.9,0.1-1,0.3c-0.3,0.3-0.3,0.4-0.3,0.8s0.2,0.6,0.4,0.9
		c0.3,0.3,0.8,0.4,1.4,0.8c0.3,0.2,0.7,0.3,0.9,0.4c0.3,0.2,0.5,0.3,0.8,0.5c0.3,0.3,0.6,0.4,0.8,0.7c0.2,0.3,0.3,0.5,0.4,0.9
		c0.2,0.3,0.3,0.8,0.3,1.2c0,1.1-0.3,2-1.2,2.7c-0.8,0.7-1.9,1-3.2,1c-1.4,0-2.6-0.3-3.6-0.8v-2.8c1.1,0.9,2.3,1.2,3.6,1.2
		c0.4,0,0.8-0.1,1-0.3c0.3-0.3,0.4-0.5,0.4-0.9c0-0.2,0-0.3-0.1-0.3c0-0.1-0.1-0.3-0.3-0.3c-0.1-0.1-0.3-0.2-0.3-0.3
		s-0.3-0.2-0.3-0.3c-0.2-0.1-0.3-0.2-0.4-0.3c-0.2-0.1-0.3-0.2-0.5-0.3c-0.3-0.1-0.4-0.3-0.6-0.3c-0.8-0.3-1.4-0.9-1.9-1.4
		c-0.4-0.5-0.8-1.2-0.8-2.1c0-1,0.3-1.9,1.1-2.6c0.8-0.7,1.8-1,3.2-1C83.8,18.3,84.8,18.5,85.7,18.9z"/>
	<path class="st12" d="M91,23.3v4.2c0,0.3,0.1,0.6,0.3,0.8c0.2,0.2,0.4,0.3,0.8,0.3c0.4,0,0.9-0.2,1.3-0.3v2.2
		c-0.4,0.3-1,0.3-1.8,0.3c-2.1,0-3.1-1-3.1-3.1v-4.2h-1.4v-2h1.4v-2.1h2.6v2.2h2.1v1.8H91z"/>
	<path class="st12" d="M102.1,27.8V30c-0.6,0.3-1.6,0.6-2.9,0.6c-1.5,0-2.7-0.4-3.6-1.3c-0.8-0.9-1.3-2-1.3-3.4
		c0-1.4,0.3-2.6,1.2-3.5c0.8-0.9,1.8-1.3,3-1.3s2.2,0.3,3,1c0.8,0.7,1,1.8,1,3.2c0,0.3-0.1,0.8-0.2,1.4h-5.4c0.2,0.5,0.5,0.9,1,1.2
		c0.4,0.3,1,0.4,1.6,0.4C100.6,28.6,101.5,28.4,102.1,27.8z M100.3,25.1v-0.3c-0.1-1-0.5-1.6-1.4-1.6c-0.4,0-0.8,0.2-1.1,0.4
		C97.4,24,97.2,24.4,97,25C97,25.1,100.3,25.1,100.3,25.1z"/>
	<path class="st12" d="M107.3,21.4v1.4c0.7-1,1.6-1.5,2.8-1.5c1.2,0,2.1,0.4,2.9,1.3c0.8,0.9,1,2,1,3.4c0,1.4-0.3,2.5-1,3.4
		c-0.7,0.9-1.7,1.4-2.9,1.4c-1.3,0-2.2-0.5-2.8-1.5V34h-2.6V21.4H107.3L107.3,21.4z M109.3,28.5c0.6,0,1-0.3,1.4-0.7
		c0.4-0.4,0.5-1,0.5-1.8c0-0.9-0.2-1.4-0.5-1.9s-0.8-0.7-1.4-0.7c-0.5,0-1,0.3-1.4,0.6c-0.3,0.4-0.6,1-0.6,1.8
		c0,0.8,0.3,1.4,0.6,1.9C108.2,28.3,108.7,28.5,109.3,28.5z"/>
	<path class="st12" d="M119.3,23.4v-2.7l3.3-2h2.3v11.9h-2.6v-9L119.3,23.4z"/>
	<path class="st12" d="M127.2,30.3c-0.3-0.3-0.4-0.7-0.4-1.1s0.2-0.9,0.4-1.1c0.3-0.3,0.7-0.4,1.1-0.4s0.9,0.2,1.1,0.4
		c0.3,0.3,0.4,0.7,0.4,1.1s-0.2,0.9-0.4,1.1c-0.3,0.3-0.7,0.4-1.1,0.4S127.5,30.6,127.2,30.3z"/>
</g>
<g>
	<g class="st11">
		<path class="st13" d="M83,50.6h-1l-1.7-2.7l0,0h-1v2.7h-0.8v-6.8h1.7c0.8,0,1.4,0.2,1.8,0.5c0.3,0.3,0.6,0.9,0.6,1.5
			c0,0.4-0.2,0.9-0.3,1.2c-0.3,0.3-0.6,0.5-1,0.7L83,50.6z M79.4,44.5v2.7h1c0.4,0,0.9-0.2,1-0.3c0.3-0.3,0.3-0.6,0.3-1
			c0-0.9-0.5-1.4-1.5-1.4H79.4L79.4,44.5z"/>
		<path class="st13" d="M87.7,49.6v0.8c-0.3,0.3-0.9,0.3-1.4,0.3c-0.8,0-1.4-0.3-1.9-0.7c-0.4-0.5-0.7-1.2-0.7-2
			c0-0.8,0.3-1.4,0.6-2c0.4-0.4,1-0.7,1.7-0.7c0.6,0,1.1,0.3,1.5,0.6c0.4,0.3,0.6,1,0.6,1.7c0,0.3,0,0.3-0.1,0.6h-3.5
			c0.1,0.5,0.3,0.9,0.6,1.1c0.3,0.3,0.8,0.3,1.3,0.3C86.9,49.9,87.3,49.9,87.7,49.6z M87.3,47.7v-0.3c0-0.4-0.2-0.8-0.3-1
			c-0.2-0.3-0.5-0.3-1-0.3c-0.3,0-0.7,0.2-1,0.3c-0.3,0.3-0.4,0.7-0.4,1.2L87.3,47.7L87.3,47.7z"/>
		<path class="st13" d="M90,45.5v0.8c0.3-0.6,0.8-0.9,1.4-0.9c0.8,0,1.3,0.3,1.5,1c0.2-0.3,0.3-0.6,0.6-0.8c0.3-0.2,0.5-0.3,0.9-0.3
			c0.5,0,0.9,0.2,1.2,0.4c0.3,0.3,0.3,0.7,0.3,1.2v3.6h-0.8v-3.3c0-0.8-0.3-1.1-1-1.1c-0.3,0-0.6,0.2-0.9,0.4
			c-0.3,0.3-0.3,0.7-0.3,1.2v2.8H92v-3.3c0-0.8-0.3-1.1-1-1.1c-0.3,0-0.6,0.2-0.9,0.4c-0.3,0.3-0.3,0.7-0.3,1.2v2.8H89v-5.1L90,45.5
			L90,45.5z"/>
		<path class="st13" d="M99.6,50.7c-0.8,0-1.3-0.3-1.7-0.8c-0.4-0.5-0.7-1.1-0.7-1.9c0-0.8,0.3-1.4,0.7-1.9c0.4-0.5,1-0.8,1.7-0.8
			c0.7,0,1.4,0.3,1.8,0.8c0.4,0.5,0.6,1.1,0.6,1.9c0,0.8-0.3,1.4-0.7,1.9S100.3,50.7,99.6,50.7z M99.6,46.1c-0.4,0-0.9,0.2-1.1,0.6
			c-0.3,0.3-0.3,0.8-0.3,1.4s0.2,1,0.4,1.4c0.3,0.3,0.7,0.5,1.1,0.5c0.5,0,0.9-0.2,1.2-0.5c0.3-0.3,0.3-0.9,0.3-1.4
			c0-0.6-0.2-1-0.3-1.4C100.5,46.4,100.1,46.1,99.6,46.1z"/>
		<path class="st13" d="M104.3,46.2v3c0,0.5,0.3,0.8,0.8,0.8c0.3,0,0.5-0.1,0.7-0.3v0.8c-0.3,0.2-0.4,0.2-0.8,0.2
			c-1,0-1.5-0.5-1.5-1.5v-2.9h-0.8v-0.7h0.8v-1.3h0.8v1.3h1.4v0.7L104.3,46.2L104.3,46.2z"/>
		<path class="st13" d="M110.6,49.6v0.8c-0.3,0.3-0.9,0.3-1.4,0.3c-0.8,0-1.4-0.3-1.9-0.7c-0.5-0.5-0.7-1.2-0.7-2
			c0-0.8,0.3-1.4,0.6-2c0.4-0.4,1-0.7,1.7-0.7c0.6,0,1.1,0.3,1.5,0.6c0.4,0.3,0.6,1,0.6,1.7c0,0.3,0,0.3-0.1,0.6h-3.5
			c0.1,0.5,0.3,0.9,0.6,1.1c0.3,0.3,0.8,0.3,1.3,0.3C109.9,49.9,110.3,49.9,110.6,49.6z M110.1,47.7v-0.3c0-0.4-0.2-0.8-0.3-1
			c-0.2-0.3-0.5-0.3-1-0.3c-0.3,0-0.7,0.2-1,0.3c-0.3,0.3-0.4,0.7-0.4,1.2L110.1,47.7L110.1,47.7z"/>
		<path class="st13" d="M115.9,50.6l-1.8-5.1h0.9l0.7,2.2l0.8,2.3c0.1-0.3,0.3-1,0.8-2.3l0.8-2.2h0.8l-1.8,5.1
			C116.8,50.6,115.9,50.6,115.9,50.6z"/>
		<path class="st13" d="M121.8,50.7c-0.8,0-1.3-0.3-1.7-0.8c-0.4-0.5-0.7-1.1-0.7-1.9c0-0.8,0.3-1.4,0.7-1.9c0.4-0.5,1-0.8,1.7-0.8
			s1.4,0.3,1.8,0.8c0.4,0.5,0.6,1.1,0.6,1.9c0,0.8-0.3,1.4-0.7,1.9S122.5,50.7,121.8,50.7z M121.8,46.1c-0.4,0-0.8,0.2-1.1,0.6
			c-0.3,0.3-0.3,0.8-0.3,1.4s0.2,1,0.4,1.4c0.3,0.3,0.7,0.5,1.1,0.5c0.5,0,0.9-0.2,1.2-0.5c0.3-0.3,0.3-0.9,0.3-1.4
			c0-0.6-0.2-1-0.3-1.4C122.7,46.4,122.4,46.1,121.8,46.1z"/>
		<path class="st13" d="M125.4,50.6v-7.1h0.8v7.1H125.4z"/>
		<path class="st13" d="M130.9,45.5h0.8v5.1h-0.8v-0.9c-0.3,0.6-0.9,1-1.6,1c-0.5,0-0.9-0.2-1.2-0.4c-0.3-0.3-0.4-0.7-0.4-1.2v-3.6
			h0.8v3.3c0,0.3,0.1,0.7,0.3,0.8c0.2,0.3,0.4,0.3,0.8,0.3c0.4,0,0.8-0.2,1-0.4c0.3-0.3,0.3-0.7,0.3-1.2L130.9,45.5L130.9,45.5z"/>
		<path class="st13" d="M133.9,45.5v0.9c0.3-0.6,0.9-1,1.6-1c0.5,0,0.9,0.2,1.2,0.4c0.3,0.3,0.4,0.7,0.4,1.2v3.6h-0.8v-3.3
			c0-0.3-0.1-0.7-0.3-0.9c-0.3-0.3-0.4-0.3-0.8-0.3c-0.3,0-0.7,0.2-1,0.4c-0.3,0.3-0.4,0.7-0.4,1.2v2.8H133v-5.1L133.9,45.5
			L133.9,45.5z"/>
		<path class="st13" d="M139.7,46.2v3c0,0.5,0.3,0.8,0.8,0.8c0.3,0,0.5-0.1,0.7-0.3v0.8c-0.3,0.2-0.4,0.2-0.8,0.2
			c-1,0-1.5-0.5-1.5-1.5v-2.9H138v-0.7h0.9v-1.3h0.8v1.3h1.4v0.7L139.7,46.2L139.7,46.2z"/>
		<path class="st13" d="M146.1,49.6v0.8c-0.3,0.3-0.9,0.3-1.4,0.3c-0.8,0-1.4-0.3-1.9-0.7c-0.4-0.4-0.7-1.1-0.7-1.9
			c0-0.9,0.3-1.4,0.6-2c0.4-0.4,1-0.7,1.7-0.7c0.6,0,1.1,0.3,1.5,0.6c0.3,0.3,0.6,1,0.6,1.7c0,0.3,0,0.3-0.1,0.6h-3.5
			c0.1,0.5,0.3,0.9,0.6,1.1c0.3,0.3,0.8,0.3,1.3,0.3C145.2,49.9,145.7,49.9,146.1,49.6z M145.6,47.7v-0.3c0-0.4-0.2-0.8-0.3-1
			c-0.2-0.3-0.5-0.3-1-0.3c-0.3,0-0.7,0.2-1,0.3c-0.3,0.3-0.4,0.7-0.4,1.2L145.6,47.7L145.6,47.7z"/>
		<path class="st13" d="M151.3,49.6v0.8c-0.3,0.3-0.9,0.3-1.4,0.3c-0.8,0-1.4-0.3-1.9-0.7s-0.7-1.1-0.7-1.9c0-0.9,0.3-1.4,0.6-2
			c0.4-0.4,1-0.7,1.7-0.7c0.6,0,1.1,0.3,1.5,0.6c0.3,0.3,0.6,1,0.6,1.7c0,0.3,0,0.3-0.1,0.6h-3.5c0.1,0.5,0.3,0.9,0.6,1.1
			c0.3,0.3,0.8,0.3,1.3,0.3C150.5,49.9,151,49.9,151.3,49.6z M150.8,47.7v-0.3c0-0.4-0.2-0.8-0.3-1c-0.2-0.3-0.5-0.3-1-0.3
			c-0.3,0-0.7,0.2-1,0.3c-0.3,0.3-0.4,0.7-0.4,1.2L150.8,47.7L150.8,47.7z"/>
		<path class="st13" d="M153.6,45.5v0.9c0.3-0.6,0.8-1,1.4-1c0.2,0,0.3,0,0.3,0v0.8c-0.2-0.1-0.3-0.1-0.4-0.1
			c-0.3,0-0.7,0.2-0.9,0.5c-0.3,0.3-0.3,0.7-0.3,1.1v2.8h-0.9v-5.1L153.6,45.5L153.6,45.5z"/>
		<path class="st13" d="M159,45.7v0.8c-0.3-0.2-0.8-0.3-1.3-0.3c-0.3,0-0.4,0.1-0.7,0.2c-0.2,0.2-0.3,0.3-0.3,0.4
			c0,0.2,0,0.3,0.1,0.3c0.1,0.1,0.2,0.2,0.3,0.3c0.2,0.1,0.3,0.2,0.3,0.2c0.1,0,0.3,0.1,0.4,0.2c0.4,0.2,0.8,0.3,1,0.6
			c0.3,0.3,0.3,0.5,0.3,0.9c0,0.4-0.2,0.8-0.4,1c-0.3,0.3-0.8,0.3-1.3,0.3c-0.6,0-1.1-0.1-1.5-0.3v-0.8c0.4,0.3,0.9,0.3,1.4,0.3
			c0.3,0,0.5-0.1,0.7-0.2c0.2-0.2,0.3-0.3,0.3-0.5s-0.1-0.4-0.3-0.6c-0.2-0.2-0.4-0.3-0.9-0.4c-0.3-0.2-0.7-0.3-0.9-0.5
			c-0.3-0.3-0.3-0.5-0.3-0.9c0-0.4,0.2-0.8,0.4-1c0.3-0.3,0.8-0.3,1.2-0.3C158.2,45.4,158.6,45.5,159,45.7z"/>
		<path class="st13" d="M163.8,46.2v3c0,0.5,0.3,0.8,0.8,0.8c0.3,0,0.5-0.1,0.7-0.3v0.8c-0.3,0.2-0.4,0.2-0.8,0.2
			c-1,0-1.5-0.5-1.5-1.5v-2.9h-0.9v-0.7h0.9v-1.3h0.8v1.3h1.4v0.7L163.8,46.2L163.8,46.2L163.8,46.2z"/>
		<path class="st13" d="M167.2,45.5v0.9c0.3-0.6,0.8-1,1.4-1c0.2,0,0.3,0,0.3,0v0.8c-0.2-0.1-0.3-0.1-0.4-0.1
			c-0.3,0-0.7,0.2-0.9,0.5c-0.3,0.3-0.3,0.7-0.3,1.1v2.8h-0.9v-5.1L167.2,45.5L167.2,45.5z"/>
		<path class="st13" d="M169.9,46.5v-0.8c0.3-0.3,0.9-0.3,1.5-0.3c1.3,0,2,0.7,2,2v3.2h-0.8v-0.6c-0.3,0.4-0.8,0.7-1.4,0.7
			c-0.4,0-0.9-0.2-1.1-0.4c-0.3-0.3-0.4-0.6-0.4-1c0-0.5,0.2-0.9,0.5-1.1c0.3-0.3,0.9-0.3,1.5-0.3h0.9v-0.3c0-0.3-0.1-0.7-0.3-0.9
			c-0.2-0.3-0.4-0.3-0.9-0.3C170.8,46.1,170.3,46.3,169.9,46.5z M172.5,48.3h-0.9c-0.4,0-0.8,0.1-1,0.3s-0.3,0.3-0.3,0.6
			c0,0.3,0.1,0.4,0.3,0.6c0.2,0.2,0.3,0.3,0.8,0.3c0.3,0,0.7-0.1,0.9-0.3c0.3-0.3,0.3-0.4,0.3-0.8L172.5,48.3L172.5,48.3z"/>
		<path class="st13" d="M175.2,48.1c0,0.5,0.2,1,0.5,1.4c0.3,0.3,0.8,0.5,1.4,0.5c0.3,0,0.8-0.1,1-0.3v0.8c-0.3,0.3-0.8,0.3-1.2,0.3
			c-0.9,0-1.4-0.3-2-0.8c-0.4-0.5-0.7-1.1-0.7-1.9c0-0.8,0.3-1.4,0.7-1.9c0.4-0.5,1.1-0.8,2-0.8c0.4,0,0.9,0.1,1.2,0.3v0.8
			c-0.3-0.3-0.7-0.3-1-0.3c-0.6,0-1,0.2-1.4,0.5C175.5,47.1,175.2,47.6,175.2,48.1z"/>
		<path class="st13" d="M183.2,49.6v0.8c-0.3,0.3-0.9,0.3-1.4,0.3c-0.8,0-1.4-0.3-1.9-0.7c-0.4-0.4-0.7-1.1-0.7-1.9
			c0-0.9,0.3-1.4,0.6-2c0.4-0.4,1-0.7,1.7-0.7c0.6,0,1.1,0.3,1.5,0.6c0.3,0.3,0.6,1,0.6,1.7c0,0.3,0,0.3-0.1,0.6h-3.5
			c0.1,0.5,0.3,0.9,0.6,1.1c0.3,0.3,0.8,0.3,1.3,0.3C182.4,49.9,182.9,49.9,183.2,49.6z M182.8,47.7v-0.3c0-0.4-0.2-0.8-0.3-1
			c-0.3-0.3-0.5-0.3-1-0.3c-0.3,0-0.7,0.2-1,0.3c-0.3,0.3-0.4,0.7-0.4,1.2L182.8,47.7L182.8,47.7z"/>
	</g>
	<g class="st11">
		<path class="st13" d="M81.2,57.8v0.8c-0.3-0.2-0.8-0.3-1.3-0.3c-0.3,0-0.4,0.1-0.7,0.2c-0.2,0.2-0.3,0.3-0.3,0.4
			c0,0.2,0,0.3,0.1,0.3s0.2,0.2,0.3,0.3c0.2,0.1,0.3,0.2,0.3,0.2s0.3,0.1,0.4,0.2c0.4,0.2,0.8,0.3,1,0.6c0.3,0.3,0.3,0.5,0.3,0.9
			c0,0.4-0.2,0.8-0.4,1c-0.3,0.3-0.8,0.3-1.3,0.3c-0.6,0-1.1-0.1-1.5-0.3v-0.8c0.4,0.3,0.9,0.3,1.4,0.3c0.3,0,0.5-0.1,0.7-0.2
			c0.2-0.2,0.3-0.3,0.3-0.5s-0.2-0.3-0.4-0.5c-0.2-0.2-0.4-0.3-0.9-0.4c-0.3-0.2-0.7-0.3-0.9-0.5c-0.3-0.3-0.3-0.5-0.3-0.9
			c0-0.4,0.2-0.8,0.4-1c0.3-0.3,0.8-0.3,1.2-0.3C80.5,57.6,80.9,57.6,81.2,57.8z"/>
		<path class="st13" d="M82.8,58.7v-0.8c0.3-0.3,0.9-0.3,1.5-0.3c1.3,0,2,0.7,2,2v3.2h-0.8v-0.6c-0.3,0.4-0.8,0.7-1.4,0.7
			c-0.4,0-0.8-0.2-1.1-0.4c-0.3-0.3-0.4-0.6-0.4-1c0-0.5,0.2-0.9,0.5-1.1c0.3-0.2,0.9-0.3,1.5-0.3h0.9v-0.3c0-0.3-0.1-0.7-0.3-0.9
			c-0.2-0.3-0.4-0.3-0.9-0.3C83.6,58.3,83.2,58.4,82.8,58.7z M85.4,60.3h-0.9c-0.4,0-0.8,0.1-1,0.3c-0.3,0.2-0.3,0.3-0.3,0.6
			c0,0.3,0.1,0.4,0.3,0.6c0.2,0.2,0.3,0.3,0.8,0.3c0.4,0,0.7-0.1,0.9-0.3c0.3-0.3,0.3-0.4,0.3-0.8C85.4,60.9,85.4,60.3,85.4,60.3z"
			/>
		<path class="st13" d="M88.7,58.3v3c0,0.5,0.3,0.9,0.8,0.9c0.3,0,0.5-0.1,0.7-0.3v0.8c-0.3,0.2-0.4,0.2-0.8,0.2
			c-1,0-1.5-0.5-1.5-1.5v-3H87v-0.7h0.9v-1.3h0.8v1.3h1.4v0.7L88.7,58.3L88.7,58.3z"/>
		<path class="st13" d="M95,61.7v0.8c-0.3,0.3-0.9,0.3-1.4,0.3c-0.8,0-1.4-0.3-1.9-0.7S91,61,91,60.2c0-0.8,0.3-1.4,0.6-2
			c0.4-0.4,1-0.7,1.7-0.7c0.6,0,1.1,0.3,1.5,0.6c0.3,0.3,0.6,1,0.6,1.7c0,0.3,0,0.3-0.1,0.6h-3.5c0.1,0.5,0.3,0.9,0.6,1.1
			c0.3,0.3,0.8,0.3,1.3,0.3C94.2,62.1,94.7,61.9,95,61.7z M94.6,59.8v-0.3c0-0.4-0.2-0.8-0.3-1c-0.2-0.3-0.5-0.3-1-0.3
			c-0.3,0-0.7,0.2-1,0.3c-0.3,0.3-0.4,0.7-0.4,1.2L94.6,59.8L94.6,59.8z"/>
		<path class="st13" d="M96.6,62.8v-7.1h0.9v7.1H96.6z"/>
		<path class="st13" d="M98.9,62.8v-7.1h0.8v7.1H98.9z"/>
		<path class="st13" d="M101.3,56.3c-0.1-0.1-0.2-0.3-0.2-0.3c0-0.2,0.1-0.3,0.2-0.3c0.1-0.1,0.3-0.2,0.3-0.2c0.2,0,0.3,0.1,0.3,0.2
			c0.1,0.1,0.2,0.3,0.2,0.3c0,0.2-0.1,0.3-0.2,0.3c-0.1,0.1-0.3,0.2-0.3,0.2C101.5,56.5,101.4,56.5,101.3,56.3z M101.3,62.8v-5.1
			h0.8v5.1H101.3z"/>
		<path class="st13" d="M104.7,58.3v3c0,0.5,0.3,0.9,0.8,0.9c0.3,0,0.5-0.1,0.7-0.3v0.8c-0.3,0.2-0.4,0.2-0.8,0.2
			c-1,0-1.5-0.5-1.5-1.5v-3H103v-0.7h0.9v-1.3h0.8v1.3h1.4v0.7L104.7,58.3L104.7,58.3z"/>
		<path class="st13" d="M111.1,61.7v0.8c-0.3,0.3-0.9,0.3-1.4,0.3c-0.8,0-1.4-0.3-1.9-0.7s-0.7-1.1-0.7-1.9c0-0.8,0.3-1.4,0.6-2
			c0.4-0.4,1-0.7,1.7-0.7c0.6,0,1.1,0.3,1.5,0.6c0.3,0.3,0.6,1,0.6,1.7c0,0.3,0,0.3-0.1,0.6h-3.5c0.1,0.5,0.3,0.9,0.6,1.1
			c0.3,0.3,0.8,0.3,1.3,0.3C110.2,62.1,110.7,61.9,111.1,61.7z M110.6,59.8v-0.3c0-0.4-0.2-0.8-0.3-1c-0.2-0.3-0.5-0.3-1-0.3
			c-0.3,0-0.7,0.2-1,0.3c-0.3,0.3-0.4,0.7-0.4,1.2L110.6,59.8L110.6,59.8z"/>
		<path class="st13" d="M115.1,56.3c-0.1-0.1-0.2-0.3-0.2-0.3c0-0.2,0.1-0.3,0.2-0.3c0.1-0.1,0.3-0.2,0.3-0.2c0.2,0,0.3,0.1,0.3,0.2
			c0.1,0.1,0.2,0.3,0.2,0.3c0,0.2-0.1,0.3-0.2,0.3c-0.1,0.1-0.3,0.2-0.3,0.2C115.3,56.5,115.2,56.5,115.1,56.3z M115.1,62.8v-5.1
			h0.9v5.1H115.1z"/>
		<path class="st13" d="M118.2,57.6v0.8c0.3-0.6,0.8-0.9,1.4-0.9c0.8,0,1.3,0.3,1.5,1c0.2-0.3,0.3-0.6,0.6-0.8
			c0.3-0.2,0.5-0.3,0.9-0.3c0.5,0,0.9,0.2,1.2,0.4c0.3,0.3,0.3,0.7,0.3,1.2v3.6h-0.8v-3.3c0-0.8-0.3-1.1-1-1.1
			c-0.3,0-0.6,0.2-0.9,0.4c-0.3,0.3-0.3,0.7-0.3,1.2v2.8h-0.8v-3.3c0-0.8-0.3-1.1-1-1.1c-0.3,0-0.6,0.2-0.9,0.4
			c-0.3,0.3-0.3,0.7-0.3,1.2v2.8h-0.8v-5.1C117.2,57.6,118.2,57.6,118.2,57.6z"/>
		<path class="st13" d="M125.8,58.7v-0.8c0.3-0.3,0.9-0.3,1.5-0.3c1.3,0,2,0.7,2,2v3.2h-0.8v-0.6c-0.3,0.4-0.8,0.7-1.4,0.7
			c-0.4,0-0.8-0.2-1.1-0.4c-0.3-0.3-0.4-0.6-0.4-1c0-0.5,0.2-0.9,0.5-1.1c0.3-0.3,0.9-0.3,1.5-0.3h0.9v-0.3c0-0.3-0.1-0.7-0.3-0.9
			c-0.2-0.3-0.4-0.3-0.9-0.3C126.6,58.3,126.2,58.4,125.8,58.7z M128.4,60.3h-0.9c-0.4,0-0.8,0.1-1,0.3c-0.2,0.2-0.3,0.3-0.3,0.6
			c0,0.3,0.1,0.4,0.3,0.6c0.2,0.2,0.3,0.3,0.8,0.3c0.3,0,0.7-0.1,0.9-0.3c0.3-0.3,0.3-0.4,0.3-0.8L128.4,60.3L128.4,60.3z"/>
		<path class="st13" d="M133.9,57.6h0.9v4.7c0,0.8-0.3,1.4-0.7,1.7c-0.4,0.3-1,0.6-1.7,0.6c-0.6,0-1.1-0.1-1.6-0.3v-0.9
			c0.4,0.3,0.9,0.3,1.5,0.3c0.5,0,0.9-0.2,1.1-0.3c0.3-0.3,0.4-0.7,0.4-1.2v-0.6c-0.3,0.6-0.8,0.9-1.5,0.9c-0.6,0-1-0.3-1.5-0.7
			c-0.3-0.4-0.6-1-0.6-1.8c0-0.8,0.3-1.4,0.6-1.9s0.9-0.8,1.5-0.8c0.7,0,1.2,0.3,1.5,0.9L133.9,57.6L133.9,57.6z M132.5,61.8
			c0.3,0,0.7-0.2,1-0.4c0.3-0.3,0.4-0.7,0.4-1.3c0-0.7-0.2-1.1-0.3-1.4c-0.3-0.3-0.6-0.4-1-0.4s-0.8,0.2-1,0.5
			c-0.3,0.3-0.3,0.8-0.3,1.4c0,0.6,0.2,1,0.4,1.3C131.9,61.7,132.1,61.8,132.5,61.8z"/>
		<path class="st13" d="M139.9,61.7v0.8c-0.3,0.3-0.9,0.3-1.4,0.3c-0.8,0-1.4-0.3-1.9-0.7c-0.4-0.4-0.7-1.1-0.7-1.9
			c0-0.8,0.3-1.4,0.6-2c0.4-0.4,1-0.7,1.7-0.7c0.6,0,1.1,0.3,1.5,0.6c0.3,0.3,0.6,1,0.6,1.7c0,0.3,0,0.3-0.1,0.6h-3.5
			c0.1,0.5,0.3,0.9,0.6,1.1c0.3,0.3,0.8,0.3,1.3,0.3C139.1,62.1,139.5,61.9,139.9,61.7z M139.4,59.8v-0.3c0-0.4-0.2-0.8-0.3-1
			c-0.2-0.3-0.5-0.3-1-0.3c-0.3,0-0.7,0.2-1,0.3c-0.3,0.3-0.4,0.7-0.4,1.2L139.4,59.8L139.4,59.8z"/>
		<path class="st13" d="M142.2,57.6v0.9c0.3-0.6,0.8-1,1.4-1c0.2,0,0.3,0,0.3,0v0.8c-0.2-0.1-0.3-0.1-0.4-0.1
			c-0.3,0-0.7,0.2-0.9,0.5c-0.3,0.3-0.3,0.7-0.3,1.1v2.8h-0.8v-5.1L142.2,57.6L142.2,57.6z"/>
		<path class="st13" d="M146.1,62.6l-2-5h0.9l0.7,1.7l0.9,2.3c0.1-0.2,0.3-1,0.9-2.3l0.6-1.7h0.8l-1.8,5c-0.3,0.7-0.6,1.2-0.9,1.4
			c-0.3,0.3-0.8,0.4-1.2,0.4c-0.2,0-0.3,0-0.4-0.1v-0.8c0.1,0,0.3,0.1,0.3,0.1C145.3,63.7,145.8,63.4,146.1,62.6z"/>
		<path class="st13" d="M152.2,56.3c-0.1-0.1-0.2-0.3-0.2-0.3c0-0.2,0.1-0.3,0.2-0.3c0.1-0.1,0.3-0.2,0.3-0.2c0.2,0,0.3,0.1,0.3,0.2
			c0.1,0.1,0.2,0.3,0.2,0.3c0,0.2-0.1,0.3-0.2,0.3c-0.1,0.1-0.3,0.2-0.3,0.2C152.5,56.5,152.3,56.5,152.2,56.3z M152.2,62.8v-5.1
			h0.9v5.1H152.2z"/>
		<path class="st13" d="M155.3,57.6v0.9c0.3-0.6,0.9-1,1.6-1c0.5,0,0.9,0.2,1.2,0.4c0.3,0.3,0.4,0.7,0.4,1.2v3.6h-0.9v-3.3
			c0-0.3-0.1-0.7-0.3-0.9c-0.3-0.3-0.4-0.3-0.8-0.3c-0.3,0-0.7,0.2-1,0.4c-0.3,0.3-0.4,0.7-0.4,1.2v2.8h-0.8v-5.1L155.3,57.6
			L155.3,57.6z"/>
		<path class="st13" d="M161,58.3v3c0,0.5,0.3,0.9,0.8,0.9c0.3,0,0.5-0.1,0.7-0.3v0.8c-0.3,0.2-0.4,0.2-0.8,0.2
			c-1,0-1.5-0.5-1.5-1.5v-3h-0.9v-0.7h0.9v-1.3h0.9v1.3h1.4v0.7L161,58.3L161,58.3z"/>
		<path class="st13" d="M165.7,62.9c-0.8,0-1.3-0.3-1.7-0.8s-0.7-1.1-0.7-1.9s0.3-1.4,0.7-1.9c0.4-0.5,1-0.8,1.7-0.8
			c0.7,0,1.4,0.3,1.8,0.8c0.4,0.5,0.6,1.1,0.6,1.9s-0.3,1.4-0.7,1.9C167,62.6,166.5,62.9,165.7,62.9z M165.7,58.3
			c-0.4,0-0.8,0.2-1.1,0.6c-0.3,0.3-0.3,0.8-0.3,1.4c0,0.5,0.2,1,0.4,1.4c0.3,0.3,0.7,0.5,1.1,0.5c0.5,0,0.9-0.2,1.2-0.5
			c0.3-0.3,0.3-0.8,0.3-1.4c0-0.6-0.2-1-0.3-1.4C166.6,58.4,166.3,58.3,165.7,58.3z"/>
	</g>
	<g class="st11">
		<path class="st13" d="M78.2,71.4c0-1,0.3-1.9,0.8-2.6c0.5-0.6,1.3-1,2.3-1c1,0,1.7,0.3,2.3,1c0.5,0.6,0.8,1.5,0.8,2.6
			s-0.3,1.9-0.8,2.6c-0.5,0.6-1.3,1-2.3,1c-0.9,0-1.7-0.3-2.2-1C78.5,73.3,78.2,72.5,78.2,71.4z M79,71.4c0,0.8,0.3,1.5,0.6,2
			c0.3,0.5,0.9,0.8,1.6,0.8c0.7,0,1.2-0.3,1.6-0.8c0.3-0.4,0.6-1.1,0.6-2c0-0.8-0.3-1.5-0.6-2s-0.9-0.8-1.6-0.8
			c-0.7,0-1.2,0.3-1.6,0.8C79.3,69.9,79,70.5,79,71.4z"/>
		<path class="st13" d="M86.3,69.7v0.8c0.3-0.6,0.9-0.8,1.6-0.8s1.2,0.3,1.6,0.8c0.3,0.5,0.6,1.1,0.6,1.9c0,0.8-0.3,1.4-0.6,2
			c-0.3,0.5-0.9,0.8-1.6,0.8s-1.2-0.3-1.6-0.9v2.8h-0.8v-7.2H86.3z M87.8,74.2c0.4,0,0.8-0.2,1-0.5c0.3-0.3,0.3-0.8,0.3-1.4
			c0-0.5-0.2-1-0.3-1.4c-0.3-0.3-0.6-0.5-1-0.5c-0.3,0-0.8,0.2-1,0.4c-0.3,0.3-0.4,0.8-0.4,1.4c0,0.7,0.2,1.1,0.4,1.4
			C87.1,74.1,87.3,74.2,87.8,74.2z"/>
		<path class="st13" d="M94.9,73.8v0.8c-0.3,0.3-0.9,0.3-1.4,0.3c-0.8,0-1.4-0.3-1.9-0.7c-0.4-0.4-0.7-1.1-0.7-1.9
			c0-0.8,0.3-1.4,0.6-2c0.4-0.4,1-0.7,1.7-0.7c0.6,0,1.1,0.3,1.5,0.6c0.3,0.3,0.6,1,0.6,1.7c0,0.3,0,0.3-0.1,0.6h-3.5
			c0.1,0.5,0.3,0.9,0.6,1.1c0.3,0.3,0.8,0.3,1.3,0.3C94.1,74.2,94.7,74.1,94.9,73.8z M94.5,72v-0.3c0-0.4-0.2-0.8-0.3-1
			c-0.2-0.3-0.5-0.3-1-0.3c-0.3,0-0.7,0.2-1,0.3c-0.3,0.3-0.4,0.7-0.4,1.2L94.5,72L94.5,72z"/>
		<path class="st13" d="M97.3,69.7v0.9c0.3-0.6,0.8-1,1.6-1c0.5,0,0.9,0.2,1.2,0.4c0.3,0.3,0.4,0.7,0.4,1.2v3.6h-0.8v-3.3
			c0-0.3-0.1-0.7-0.3-0.8c-0.3-0.3-0.4-0.3-0.8-0.3s-0.7,0.2-1,0.4c-0.3,0.3-0.4,0.7-0.4,1.2v2.8h-0.7v-5.1L97.3,69.7L97.3,69.7z"/>
		<path class="st13" d="M105.5,68.2v0.8c-0.3-0.3-0.9-0.3-1.5-0.3c-0.3,0-0.8,0.1-1,0.3c-0.3,0.3-0.3,0.4-0.3,0.8
			c0,0.2,0,0.3,0.1,0.4s0.2,0.3,0.3,0.3c0.2,0.1,0.3,0.3,0.3,0.3c0.2,0.1,0.3,0.2,0.5,0.3c0.3,0.1,0.3,0.2,0.5,0.3
			c0.2,0.1,0.3,0.2,0.4,0.3c0.3,0.2,0.3,0.3,0.4,0.3c0.2,0.2,0.2,0.3,0.3,0.4c0.1,0.3,0.2,0.3,0.2,0.6c0,0.6-0.3,1-0.6,1.4
			s-0.9,0.4-1.6,0.4s-1.3-0.2-1.8-0.4v-0.9c0.5,0.3,1,0.5,1.8,0.5c0.4,0,0.8-0.1,1-0.3s0.3-0.4,0.3-0.8c0-0.2,0-0.3-0.1-0.3
			c-0.1-0.2-0.2-0.3-0.3-0.3c-0.2-0.1-0.3-0.2-0.3-0.3c-0.2-0.1-0.3-0.2-0.4-0.3c-0.1,0-0.1-0.1-0.2-0.1c-0.3-0.2-0.5-0.3-0.7-0.3
			c-0.2-0.1-0.3-0.3-0.5-0.3s-0.3-0.3-0.4-0.5c-0.1-0.3-0.2-0.4-0.2-0.8c0-0.6,0.3-1,0.6-1.4c0.3-0.3,0.9-0.4,1.6-0.4
			C104.6,68,105.1,68,105.5,68.2z"/>
		<path class="st13" d="M108.3,70.3v3c0,0.5,0.3,0.8,0.8,0.8c0.3,0,0.5-0.1,0.7-0.3v0.8c-0.3,0.2-0.4,0.2-0.8,0.2
			c-1,0-1.5-0.5-1.5-1.5v-3h-0.9v-0.8h0.9v-1.2h0.8v1.3h1.4v0.7H108.3z"/>
		<path class="st13" d="M111.7,69.7v0.9c0.3-0.6,0.8-1,1.4-1c0.2,0,0.3,0,0.3,0v0.8c-0.2-0.1-0.3-0.1-0.4-0.1
			c-0.3,0-0.7,0.2-0.9,0.5c-0.3,0.3-0.3,0.7-0.3,1.1v2.8h-0.9v-5.1L111.7,69.7L111.7,69.7z"/>
		<path class="st13" d="M117.9,73.8v0.8c-0.3,0.3-0.9,0.3-1.4,0.3c-0.8,0-1.4-0.3-1.9-0.7c-0.4-0.4-0.7-1.1-0.7-1.9
			c0-0.8,0.3-1.4,0.6-2c0.4-0.4,1-0.7,1.7-0.7c0.6,0,1.1,0.3,1.5,0.6c0.3,0.3,0.6,1,0.6,1.7c0,0.3,0,0.3-0.1,0.6h-3.5
			c0.1,0.5,0.3,0.9,0.6,1.1c0.3,0.3,0.8,0.3,1.3,0.3C117.2,74.2,117.6,74.1,117.9,73.8z M117.5,72v-0.3c0-0.4-0.2-0.8-0.3-1
			c-0.2-0.3-0.5-0.3-1-0.3c-0.3,0-0.7,0.2-1,0.3c-0.3,0.3-0.4,0.7-0.4,1.2L117.5,72L117.5,72z"/>
		<path class="st13" d="M123.2,73.8v0.8c-0.3,0.3-0.9,0.3-1.4,0.3c-0.8,0-1.4-0.3-1.9-0.7c-0.4-0.4-0.7-1.1-0.7-1.9
			c0-0.8,0.3-1.4,0.6-2c0.4-0.4,1-0.7,1.7-0.7c0.6,0,1.1,0.3,1.5,0.6c0.3,0.3,0.6,1,0.6,1.7c0,0.3,0,0.3-0.1,0.6h-3.5
			c0.1,0.5,0.3,0.9,0.6,1.1c0.3,0.3,0.8,0.3,1.3,0.3C122.4,74.2,122.9,74.1,123.2,73.8z M122.7,72v-0.3c0-0.4-0.2-0.8-0.3-1
			c-0.2-0.3-0.5-0.3-1-0.3c-0.3,0-0.7,0.2-1,0.3c-0.3,0.3-0.4,0.7-0.4,1.2L122.7,72L122.7,72z"/>
		<path class="st13" d="M125.8,70.3v3c0,0.5,0.3,0.8,0.8,0.8c0.3,0,0.5-0.1,0.7-0.3v0.8c-0.3,0.2-0.4,0.2-0.8,0.2
			c-1,0-1.5-0.5-1.5-1.5v-3h-0.8v-0.8h0.8v-1.2h0.8v1.3h1.4v0.7H125.8z"/>
		<path class="st13" d="M128.5,74.8L129,68h1l0.9,2.5l1,3.1c0.3-1.1,0.8-2.2,1.1-3.1L134,68h1l0.6,6.8h-0.8l-0.3-2.7l-0.3-3
			c-0.3,1-0.8,2-1.1,3l-1,2.6h-0.8l-0.9-2.6l-0.8-3c0,0.3-0.1,1.3-0.3,3l-0.3,2.7H128.5z"/>
		<path class="st13" d="M137.2,70.8v-0.9c0.3-0.3,0.9-0.3,1.5-0.3c1.3,0,2,0.7,2,2v3.2H140v-0.5c-0.3,0.4-0.8,0.7-1.4,0.7
			c-0.4,0-0.9-0.2-1.1-0.4c-0.3-0.3-0.4-0.6-0.4-1c0-0.5,0.2-0.9,0.5-1.1c0.3-0.3,0.9-0.3,1.5-0.3h0.9v-0.3c0-0.3-0.1-0.7-0.3-0.9
			c-0.2-0.3-0.4-0.3-0.9-0.3C138.2,70.3,137.7,70.5,137.2,70.8z M139.9,72.5h-0.9c-0.4,0-0.8,0.1-1,0.3c-0.3,0.2-0.3,0.3-0.3,0.6
			s0.1,0.4,0.3,0.6s0.3,0.3,0.8,0.3c0.3,0,0.7-0.1,0.9-0.3c0.3-0.3,0.3-0.4,0.3-0.8C139.9,73.1,139.9,72.5,139.9,72.5z"/>
		<path class="st13" d="M142.8,69.7v0.8c0.3-0.6,0.9-0.8,1.6-0.8c0.7,0,1.2,0.3,1.6,0.8c0.3,0.5,0.6,1.1,0.6,1.9
			c0,0.8-0.3,1.4-0.6,2s-0.9,0.8-1.6,0.8c-0.7,0-1.2-0.3-1.6-0.9v2.8h-0.8v-7.2H142.8z M144.4,74.2c0.4,0,0.8-0.2,1-0.5
			c0.3-0.3,0.3-0.8,0.3-1.4c0-0.5-0.2-1-0.3-1.4c-0.3-0.3-0.6-0.5-1-0.5c-0.3,0-0.8,0.2-1,0.4c-0.3,0.3-0.4,0.8-0.4,1.4
			c0,0.7,0.2,1.1,0.4,1.4C143.6,74.1,144,74.2,144.4,74.2z"/>
	</g>
</g>
<g>
	<path class="st9" d="M123.4-50.1h2.1v9.2h-2.1v-3.6h-3.3v3.7H118V-50h2.1v3.7h3.3V-50.1z"/>
	<path class="st9" d="M130.3-40.8c-1.1,0-1.9-0.3-2.5-1c-0.6-0.6-0.9-1.5-0.9-2.5c0-1.1,0.3-1.9,0.9-2.6c0.6-0.7,1.4-1,2.4-1
		c1.1,0,1.9,0.3,2.5,1c0.6,0.7,0.9,1.5,0.9,2.6s-0.3,1.9-0.9,2.6C132.2-41.1,131.4-40.8,130.3-40.8z M130.3-46.3
		c-0.5,0-0.7,0.2-1,0.6c-0.2,0.4-0.3,0.9-0.3,1.4c0,0.6,0.1,1.1,0.3,1.5c0.2,0.4,0.6,0.6,1,0.6s0.7-0.2,1-0.6
		c0.2-0.3,0.3-0.9,0.3-1.4C131.6-45.7,131.1-46.3,130.3-46.3z"/>
	<path class="st9" d="M136.4-40.9l-2.2-6.9h2l0.6,2.3c0.2,0.6,0.3,1.1,0.3,1.5c0.1,0.5,0.2,0.8,0.2,1l0.1,0.3
		c0.1-0.6,0.3-1.5,0.7-2.7l0.7-2.3h1.7l0.7,2.3c0.2,0.6,0.3,1.1,0.4,1.5s0.2,0.8,0.2,1l0.1,0.2c0.1-0.5,0.3-1.5,0.6-2.7l0.6-2.3h2
		l-2.2,6.9h-2l-0.6-2.3c-0.1-0.5-0.2-1-0.3-1.4c-0.1-0.5-0.2-0.7-0.2-0.9l-0.1-0.3c-0.1,0.6-0.3,1.5-0.6,2.6l-0.6,2.3L136.4-40.9
		L136.4-40.9z"/>
	<path class="st9" d="M150.8-40.9l-2.2-6.9h2l0.6,2.3c0.2,0.6,0.3,1.1,0.3,1.5c0.1,0.5,0.2,0.8,0.2,1l0.1,0.3
		c0.1-0.6,0.3-1.5,0.7-2.7l0.7-2.3h1.7l0.7,2.3c0.2,0.6,0.3,1.1,0.4,1.5c0.1,0.5,0.2,0.8,0.2,1l0.1,0.2c0.1-0.5,0.3-1.5,0.6-2.7
		l0.6-2.3h2l-2.2,6.9h-2l-0.6-2.3c-0.1-0.5-0.2-1-0.3-1.4c-0.1-0.5-0.2-0.7-0.2-0.9l-0.1-0.3c-0.1,0.6-0.3,1.5-0.6,2.6l-0.6,2.3
		L150.8-40.9L150.8-40.9z"/>
	<path class="st9" d="M165.8-42.9v1.6c-0.5,0.3-1.2,0.5-2.2,0.5c-1.1,0-2-0.3-2.7-1c-0.6-0.7-1-1.5-1-2.6c0-1.1,0.3-2,0.9-2.6
		c0.6-0.6,1.4-0.9,2.3-0.9c0.9,0,1.6,0.3,2.2,0.8c0.5,0.6,0.8,1.4,0.8,2.4c0,0.2-0.1,0.6-0.1,1.1H162c0.1,0.4,0.4,0.7,0.7,0.9
		c0.3,0.2,0.7,0.3,1.2,0.3C164.6-42.4,165.2-42.5,165.8-42.9z M164.3-45v-0.2c-0.1-0.8-0.4-1.2-1.1-1.2c-0.3,0-0.6,0.1-0.9,0.3
		c-0.2,0.2-0.4,0.6-0.5,1H164.3z"/>
	<path class="st9" d="M172.5-40.9l-2.2-6.9h2l0.6,2.3c0.2,0.6,0.3,1.1,0.3,1.5c0.1,0.5,0.2,0.8,0.2,1l0.1,0.3
		c0.1-0.6,0.3-1.5,0.7-2.7l0.7-2.3h1.7l0.7,2.3c0.2,0.6,0.3,1.1,0.4,1.5s0.2,0.8,0.2,1l0.1,0.2c0.1-0.5,0.3-1.5,0.6-2.7l0.6-2.3h2
		l-2.2,6.9h-2.1l-0.6-2.3c-0.1-0.5-0.2-1-0.3-1.4c-0.1-0.5-0.2-0.7-0.2-0.9l-0.1-0.3c-0.1,0.6-0.3,1.5-0.6,2.6l-0.6,2.3L172.5-40.9
		L172.5-40.9z"/>
	<path class="st9" d="M185-40.8c-1.1,0-1.9-0.3-2.5-1c-0.6-0.6-0.9-1.5-0.9-2.5c0-1.1,0.3-1.9,0.9-2.6c0.6-0.7,1.4-1,2.4-1
		c1.1,0,1.9,0.3,2.5,1c0.6,0.7,0.9,1.5,0.9,2.6s-0.3,1.9-0.9,2.6C186.9-41.1,186.1-40.8,185-40.8z M185-46.3c-0.5,0-0.7,0.2-1,0.6
		s-0.3,0.9-0.3,1.4c0,0.6,0.1,1.1,0.3,1.5c0.2,0.4,0.6,0.6,1,0.6c0.5,0,0.7-0.2,1-0.6c0.2-0.3,0.3-0.9,0.3-1.4
		C186.3-45.7,185.9-46.3,185-46.3z"/>
	<path class="st9" d="M191.7-47.8v1.3c0.1-0.4,0.3-0.7,0.6-1c0.3-0.2,0.6-0.3,1-0.3c0.2,0,0.4,0,0.5,0.1v1.9
		c-0.2-0.1-0.5-0.2-0.7-0.2c-0.5,0-0.8,0.2-1,0.5c-0.3,0.3-0.4,0.7-0.4,1.2v3.5h-2v-6.9L191.7-47.8L191.7-47.8z"/>
	<path class="st9" d="M201.2-40.9h-2.3l-2.2-3.4v3.4h-2v-9.4h2v5.6l2.2-3.1h2.3l-2.4,3.3L201.2-40.9z"/>
</g>
</svg>
