<?xml version="1.0" encoding="utf-8"?>
<!-- Generator: Adobe Illustrator 19.1.0, SVG Export Plug-In . SVG Version: 6.00 Build 0)  -->
<svg version="1.1" id="Layer_1" xmlns="http://www.w3.org/2000/svg" xmlns:xlink="http://www.w3.org/1999/xlink" x="0px" y="0px"
	 viewBox="0 0 211.6 139.6" style="enable-background:new 0 0 211.6 139.6;" xml:space="preserve">
<style type="text/css">
	.st0{fill:#FBDA33;}
	.st1{fill:#693C1D;}
	.st2{fill:none;}
	.st3{fill:#BC5E28;}
	.st4{fill:#D66C27;}
	.st5{fill:#F68C34;}
	.st6{fill:#F1B61F;}
	.st7{fill:#994922;}
	.st8{fill:#F9E38A;}
	.st9{fill:none;stroke:#F1B61F;stroke-miterlimit:10;}
	.st10{clip-path:url(#SVGID_2_);fill:none;stroke:#F1B61F;stroke-miterlimit:10;}
	.st11{clip-path:url(#SVGID_4_);fill:none;stroke:#F68C34;stroke-miterlimit:10;}
</style>
<g>
	<polygon class="st0" points="75.2,33.1 159.6,16.9 201.2,30.4 80.8,51 	"/>
	<g>
		<path class="st1" d="M52.4,77.4c0,0,18.2,6.5,25.4-1.3c7.2-7.8,3.1-21.9,3.1-21.9l-17.3,1.6L52.4,77.4z"/>
		<g>
			
				<rect x="50.8" y="40.2" transform="matrix(-0.5145 -0.8575 0.8575 -0.5145 44.2099 105.4568)" class="st2" width="2.3" height="0"/>
			<polygon class="st3" points="51.4,39.2 36.8,62.1 37.9,64 52.5,41.2 51.4,39.2 			"/>
			<polygon class="st4" points="50.7,85.9 65,62 52.5,41.2 37.9,64 			"/>
			<polygon class="st4" points="51.4,39.2 41.3,22.5 27.4,45.9 36.8,62.1 51.4,39.2 			"/>
			<polygon class="st5" points="75.2,39 81.4,38.5 80.1,36.7 74,37.3 			"/>
			<polygon class="st6" points="80.1,36.7 68.3,20.6 63.3,21 74,37.3 			"/>
			<polygon class="st6" points="81.4,38.5 75.2,39 87.7,57.9 94.9,56.8 			"/>
			<polygon class="st6" points="53.8,21.6 41.4,22.4 41.3,22.5 51.4,39.2 63.6,38.2 			"/>
			<polygon class="st6" points="52.7,41 52.5,41.2 65,62 65.6,61.1 76.2,59.5 64.6,39.9 			"/>
			<polygon class="st5" points="64.6,39.9 63.6,38.2 51.4,39.2 52.5,41.2 52.7,41 			"/>
			<polygon class="st5" points="64.6,39.9 76.2,59.5 87.7,57.9 75.2,39 			"/>
			<polygon class="st5" points="74,37.3 63.3,21 53.8,21.6 63.6,38.2 			"/>
			<polygon class="st5" points="63.6,38.2 64.6,39.9 75.2,39 74,37.3 			"/>
		</g>
		<g>
			<path class="st5" d="M78.9,85.9v-1.1c-3.4-0.4-20.8,3-20.8,3l0.3,1h-6l0.6,14.4C62.7,91.3,73.6,87.2,78.9,85.9z"/>
			<path class="st6" d="M78.9,94.2v-8.3c-5.2,1.3-16.1,5.3-25.9,17.2l0.8,18.3l1.4-0.1v1.4l23.6-5.5V116h1v-8.6h1l-0.5-13.2H78.9z"
				/>
		</g>
		<g>
			<path class="st5" d="M110.7,65.3l-4.6-2.4l-0.8,0.9l-3.2-1.8l-7.1-0.7l-13.4,18c0,0,0.6,0.6,1.3,0.8s0,1.1,0,1.1l2.3,1.2
				C89,78,98.7,68.1,110.7,65.3z"/>
			<path class="st6" d="M125,75c-0.3-0.6,0-1.5,0-1.5l-7-3.4l0.5-0.8l-7.8-4C98.7,68.1,89,78,85.2,82.4l24.2,12.4c0,0,0.2-0.6,1-0.6
				s1.6,0.6,1.6,0.6l14-18.8C126,76.1,125.3,75.6,125,75z"/>
		</g>
		<polygon class="st7" points="60,83.3 59.1,87.8 75,85.3 72.9,81.8 71.8,82.4 72.9,84.8 60.7,86.5 61.2,83.8 		"/>
		<path class="st5" d="M82.4,77.3l1.8,1.4c0,0,1.5-1.3,0.9-1.4c-0.6-0.1-2.3-1.2-2.3-1.2l-1.2,0.6L82.4,77.3z"/>
		<g>
			<path class="st4" d="M79.8,77.2c11.1-8.6,8.9-14,7.6-15.9c-3.2,0.3-12.9,1.3-18.7,4.5c-7,3.8-9.9,11.2-9.9,11.2l-1.7,4.6
				C59.9,83.1,68.5,86,79.8,77.2z"/>
			<path class="st7" d="M88.4,61.3c0,0-0.4,0-1,0.1c1.3,1.8,3.5,7.2-7.6,15.9c-11.3,8.7-19.9,5.8-22.7,4.5L56.6,83
				c0,0,7.3,5.6,22.1-3.2C93.6,71,88.4,61.3,88.4,61.3z"/>
		</g>
		<g>
			<polygon class="st0" points="119.8,58.8 94.9,56.8 68.1,60.7 92.7,62.9 			"/>
			<polygon class="st5" points="92.7,62.9 68.1,60.7 65.6,61.1 92.7,63.8 119.8,60.4 119.8,58.8 			"/>
		</g>
		<path class="st3" d="M65.6,61.1l-9.4,25.7l-13.5,22.6c0,0-0.8,0.4-0.6-0.6c0.2-1,8.6-22.9,8.6-22.9L65.6,61.1z"/>
		<path class="st7" d="M66.7,75c1.1,2.5,5.3,0.4,8.1-1.5c2.9-1.9,5-4.3,3.3-5.9c-1.7-1.6-4.7-0.1-7.4,1.5
			C68.1,70.6,65.6,72.6,66.7,75z"/>
		<path class="st8" d="M54.1,33.1c4.2,0,3.8-3.7,1.7-6c-2.1-2.3-2.7-3.3-7.2-3.3s-3.3,3.5-2,5.2C47.8,30.7,50.3,33.1,54.1,33.1z"/>
	</g>
	<polygon class="st6" points="39.4,42.3 1.5,41.2 1.5,72.3 48,57.9 	"/>
	<line class="st9" x1="84.9" y1="31.2" x2="97.3" y2="48.2"/>
	<g>
		<defs>
			<polygon id="SVGID_1_" points="75.2,33.1 159.6,16.9 201.2,30.4 80.8,51 			"/>
		</defs>
		<clipPath id="SVGID_2_">
			<use xlink:href="#SVGID_1_"  style="overflow:visible;"/>
		</clipPath>
		<line class="st10" x1="109.9" y1="24.2" x2="133.1" y2="48.2"/>
		<line class="st10" x1="133.1" y1="19.4" x2="163.7" y2="40.8"/>
	</g>
	<g>
		<defs>
			<polygon id="SVGID_3_" points="39.4,42.3 1.5,41.2 1.5,72.3 48,57.9 			"/>
		</defs>
		<clipPath id="SVGID_4_">
			<use xlink:href="#SVGID_3_"  style="overflow:visible;"/>
		</clipPath>
		<line class="st11" x1="19.6" y1="38.6" x2="35.1" y2="73"/>
		<line class="st11" x1="2" y1="39" x2="9.8" y2="76"/>
	</g>
</g>
</svg>
