<?xml version="1.0" encoding="utf-8"?>
<!-- Generator: Adobe Illustrator 18.0.0, SVG Export Plug-In . SVG Version: 6.00 Build 0)  -->
<!DOCTYPE svg PUBLIC "-//W3C//DTD SVG 1.1//EN" "http://www.w3.org/Graphics/SVG/1.1/DTD/svg11.dtd">
<svg version="1.1" id="Layer_1" xmlns="http://www.w3.org/2000/svg" xmlns:xlink="http://www.w3.org/1999/xlink" x="0px" y="0px"
	 viewBox="0 0 360 171" enable-background="new 0 0 360 171" xml:space="preserve">
<g>
	<path fill="#003E79" d="M147.3,92.9L147.3,92.9c0.1-0.1,0.2-0.1,0.3-0.2C147.5,92.8,147.4,92.8,147.3,92.9z"/>
	<path fill="#003E79" d="M192.2,159c1.1-2.1,2.2-4.2,3.3-6.3c1.6-0.2,3.2-0.4,4.8-0.7c4.1-0.6,8.1-1.2,12.2-1.8
		c0.8-0.1,1.6-0.4,2.4-0.4c2.8,0,5.7,0.2,8.5,0.3c3.4,0.1,6.8,0,10.1,0c0.7,0,1.2,0.2,1.7,0.6c5.1,3.8,10.3,7.5,15.5,11.3
		c0.3,0.2,0.5,0.3,1,0.6c-0.1-5.3-0.5-10.4-1-15.4c0.1-0.1,0.2-0.2,0.3-0.2c4.8-1.7,9.4-3.8,14-5.9c0.2-0.1,0.5-0.2,0.8-0.2
		c5.2-1.1,10.3-2.2,15.5-3.3c0.5-0.1,0.9-0.1,1.4,0.1c6,2.5,11.9,5,17.9,7.4c0.5,0.2,1,0.4,1.6,0.6c-2.5-4.9-5.4-9.4-8.4-13.9
		c0.2-0.2,0.3-0.3,0.4-0.4c2.2-2.1,4.3-4.2,6.5-6.2c0.7-0.7,1.3-1.5,2.3-2c3.2-1.6,6.4-3.4,9.5-5.1c0.5-0.3,0.9-0.3,1.4-0.2
		c5.6,1.3,11.2,2.5,16.8,3.7c0.5,0.1,0.9,0.1,1.4,0.2c0-0.1,0.1-0.1,0.1-0.2c-4.2-3.7-8.6-7.3-12.9-10.7c0.8-3,1.5-5.8,2.3-8.7
		c-0.8,0-1.4,0-2,0c-2.3,0.1-4.5,0.3-6.8,0.3c-1.5,0.1-3,0-4.5,0.1c-1.2,0.1-2.2-0.1-3.3-0.6c-4.2-2.2-8.5-4.3-12.8-6.5
		c-0.2-0.1-0.4-0.1-0.7-0.2c0.8,2.8,1.9,5.5,2.1,8.4c-4.3,0.5-8.5,1-12.7,1.5c0.2,0.3,0.4,0.4,0.7,0.5c4.9,2.1,9.7,4.3,14.6,6.4
		c0.5,0.2,0.8,0.5,1.1,1c0.6,1.3,1.3,2.5,1.8,3.8c1,2.1,1.8,4.3,2.8,6.6c-2.6-0.3-5.1-0.6-7.6-0.9c-2.7-0.4-5.5-0.8-8.2-1.1
		c-1.3-0.2-2.4-0.4-3.5-1.3c-3.3-2.9-6.8-5.7-10.2-8.5c-0.3-0.3-0.7-0.5-1.1-0.8c-0.8,3.1-1.4,6.1-2.8,8.8c-1.8-0.1-3.5-0.1-5.2-0.2
		c-1.7-0.1-3.5-0.3-5.2-0.4c-1.7-0.1-3.3-0.4-5-0.2c0.8,0.7,1.6,1.4,2.5,2c3.4,2.5,6.8,5,10.3,7.4c0.7,0.5,1.1,1,0.9,2
		c-0.3,2.2-0.4,4.5-0.7,6.7c-0.2,1.3-0.4,2.6-0.6,3.9c-0.3-0.1-0.5-0.1-0.6-0.1c-5.7-1.8-11.4-3.6-17.1-5.4
		c-0.8-0.3-1.3-0.7-1.7-1.4c-2-3.6-4.1-7.1-6.2-10.7c-0.1-0.2-0.3-0.5-0.5-0.7c-0.1,0.1-0.2,0.2-0.3,0.2c-2.4,2.3-4.9,4.7-7.3,7
		c-0.5,0.5-1.1,0.6-1.8,0.5c-4.9-1.2-9.7-2.4-14.6-3.6c-0.2-0.1-0.4-0.1-0.6-0.1c0,0.1-0.1,0.1-0.1,0.2c2.9,4.1,5.8,8.2,8.7,12.3
		c-2.7,3.9-5.5,7.5-8.6,10.9c-0.2-0.1-0.3-0.1-0.4-0.1c-5.2-2.8-10.3-5.8-15.3-9c-0.5-0.3-0.5-0.6-0.5-1.1
		c-0.1-3.8-0.1-7.6-0.2-11.3c0-0.3,0-0.5-0.1-0.9c-0.5,0.2-0.8,0.4-1.2,0.5c-3.7,1.7-7.5,3.3-11.2,5c-0.5,0.2-0.9,0.3-1.3,0
		c-4.1-2-8.3-4-12.5-6c-0.3-0.1-0.6-0.3-1.1-0.5c0.6,4.5,1.2,8.8,1.8,13.1c-4.7,3-9.5,5.8-14.5,8.3c-3.7-3.7-7.1-7.6-10.2-11.6
		c2.3-3.9,4.6-7.7,6.7-11.8c-2.5,0.5-4.9,1-7.2,1.5c-2.4,0.5-4.9,0.9-7.4,1.3c-0.7,0.1-1.2,0-1.7-0.5c-2.1-1.9-4.2-3.7-6.3-5.6
		c-0.8-0.7-1.5-1.5-2.4-2.3c-0.3,0.5-0.5,0.9-0.7,1.4c-1.4,3.2-2.8,6.4-4.1,9.5c-0.3,0.7-0.7,1.1-1.4,1.3c-1.8,0.5-3.7,1.1-5.5,1.6
		c-3.5,0.9-7.1,1.8-10.7,2.8c-0.2-0.5-0.4-0.9-0.5-1.3c-0.8-3.2-1.7-6.4-2.5-9.7c-0.2-0.7,0-1,0.5-1.4c3.5-2.6,6.9-5.3,10.4-7.9
		c0.2-0.2,0.5-0.4,0.7-0.6c0-0.1-0.1-0.1-0.1-0.2c-0.4,0-0.8,0.1-1.2,0.1c-4.3,0-8.5,0-12.8,0c-0.7,0-1.1-0.3-1.4-0.9
		c-0.9-2.1-1.9-4.1-2.8-6.2c-0.3-0.6-0.5-1.1-0.7-1.8c-0.4,0.3-0.7,0.6-1,0.8c-2.9,2.6-5.7,5.2-8.6,7.9c-0.4,0.4-0.8,0.7-1.4,0.7
		c-1,0.1-1.9,0.2-2.9,0.3c-4,0.3-8,0.5-12,0.8c-0.3,0-0.6,0-0.9,0c0-0.2,0-0.3,0-0.5c0.9-3,1.7-5.9,2.6-8.9c0.2-0.8,0.7-1.2,1.4-1.5
		c4.1-1.7,8.3-3.4,12.4-5.2c0.2-0.1,0.5-0.3,0.9-0.5c-4.4-0.7-8.6-1.3-12.8-2.3c0.3-2.7,0.6-5.3,0.9-7.9c-0.3,0.1-0.5,0.1-0.7,0.2
		c-3.7,1.9-7.4,3.8-11.2,5.7c-0.6,0.3-1.1,0.4-1.7,0.4c-2.8-0.2-5.5-0.4-8.3-0.7c-1.5-0.1-3-0.4-4.6-0.6c0.1-0.2,0.1-0.3,0.2-0.3
		c2.2-2.5,4.4-5.1,6.6-7.6c0.2-0.2,0.5-0.4,0.9-0.5c4.1-0.9,8.2-1.8,12.3-2.7c0.5-0.1,0.9-0.2,1.6-0.4c-3.2-1.2-6.1-2.4-9.2-3.5
		c1.3-2.5,2.9-4.5,4.5-6.8c-0.6,0.2-0.9,0.2-1.3,0.3c-3.8,1.1-7.6,2.2-11.4,3.3c-0.4,0.1-0.9,0.1-1.4,0c-1.5-0.3-2.9-0.7-4.4-1.1
		c-1.6-0.5-3.3-1-5-1.5c0.2-0.2,0.3-0.3,0.5-0.4c2.8-1.8,5.5-3.6,8.3-5.4c0.2-0.2,0.6-0.3,0.8-0.3c1.7-0.2,3.5-0.3,5.2-0.4
		c2.3-0.2,4.5-0.3,6.8-0.5c0.2,0,0.3-0.1,0.6-0.2c-1.9-1.4-3.8-2.6-5.7-4c0.9-0.7,1.6-1.3,2.3-1.8c0.7-0.6,1.5-1.1,2.2-1.7
		c0.7-0.5,1.5-0.9,2-1.7c-1.2,0.1-2.4,0.2-3.5,0.4c-2.7,0.4-5.4,0.8-8.1,1.1c-0.3,0-0.6,0-0.9-0.1c-2.1-1-4.1-2.1-6.4-3.2
		c0.5-0.2,0.8-0.4,1.1-0.5c2.7-1.1,5.3-2.1,7.9-3.2c0.9-0.4,1.9-0.5,2.9-0.4c0.8,0.1,1.6,0.1,2.4,0.2c1.7,0.1,3.4,0.2,5.1,0.3
		c0.5,0,1.1,0,1.8,0c-1-1.5-1.9-2.8-2.8-4.2c2.6-1.2,5.1-2.4,7.6-3.6c0-0.1,0-0.2-0.1-0.3c-0.6,0-1.2,0-1.9,0
		c-2.6,0.1-5.3,0.1-7.9,0.2c-0.6,0-1.1-0.2-1.5-0.6c-1-1-2-2-3-3c0,0-0.1-0.1-0.1-0.1c-1.9,1.4-3.8,2.9-5.8,4.3
		c-0.3,0.2-0.7,0.5-1.1,0.6c-2.8,0.5-5.6,1-8.3,1.5c-0.9,0.2-1.8,0.4-2.7,0.6c0,0.1,0,0.1,0,0.2c2.6,0.8,5.2,1.7,7.8,2.5
		c-0.5,1.7-1,3.3-1.5,4.9c-0.1,0.4-0.3,0.7-0.5,1.1c-1.1,1.6-2.3,3.2-3.4,4.9c-0.3,0.4-0.6,0.7-1.2,0.9c-3.7,1.2-7.4,2.4-11,3.6
		c-0.3,0.1-0.5,0.2-0.7,0.3c0,0.1,0,0.1,0,0.2c3.7,0.5,7.3,1.1,10.9,1.6c0.4,1.6,0.6,3.1,1.1,4.6c0.4,1.2,0.4,2.3,0.1,3.4
		c-0.4,1.9-0.6,3.8-0.9,5.6c-3.4,1.8-6.8,3.7-10.3,5.5c-0.7,0.4-1.4,0.7-2.2,1.1c0,0.1,0,0.1,0,0.2c1.9,0,3.8,0.1,5.6,0.1
		c2.4,0,4.8,0,7.2-0.1c1.2-0.1,2,0.3,2.8,1.3c1.4,1.8,3,3.4,4.4,5.1c0.2,0.2,0.4,0.5,0.5,0.8c0.8,2.6,1.8,5.1,3,7.5
		c0.1,0.1,0.1,0.2,0.1,0.4c-3.6,3.2-7.1,6.3-10.5,9.7c0,0.1,0.1,0.1,0.1,0.2c1.3-0.2,2.5-0.3,3.8-0.5c3.1-0.5,6.1-1,9.2-1.6
		c1.2-0.2,2.4-0.5,3.7-0.6c0.3,0,0.7,0,0.9,0.2c3.5,1.9,6.9,3.9,10.4,5.8c0.2,0.1,0.3,0.2,0.5,0.4c2.9,2.8,5.8,5.6,8.9,8.5
		c-2.1,4-4.1,8.3-6,12.9c0.5-0.1,0.7-0.2,1-0.3c5.4-2,10.8-4.1,16.1-6.1c0.6-0.2,1.1-0.2,1.6,0c4.9,1.4,9.9,2.8,14.9,4.1
		c0.3,0.1,0.6,0.2,0.9,0.3c4.7,2.2,9.4,4.5,14,6.7c0.2,0.1,0.5,0.2,0.8,0.4c0.3,5,0.7,10,1.4,15.1c0.4-0.2,0.7-0.4,0.9-0.6
		c4.4-3.3,8.9-6.7,13.3-10.1c0.5-0.4,0.9-0.5,1.5-0.4c2.1,0.2,4.2,0.4,6.4,0.5c2.9,0.2,5.7,0.5,8.6,0.5c3,0,5.8,0.7,8.7,1.4
		c4.5,1,9,1.9,13.5,2.8c0.5,0.1,0.9,0.2,1.2,0.7c3.2,4.7,6.3,9.5,9.5,14.2c0.1,0.1,0.1,0.2,0.1,0.3c0.1,0,0.3,0,0.4,0
		c0.1-0.3,0.2-0.5,0.4-0.8C189.5,163.8,190.9,161.4,192.2,159z"/>
	<path fill="#003E79" d="M168.2,6.7c-2.1,0.2-4.2,0.3-6.3,0.4c-0.2,0-0.4,0.1-0.6,0.2c0,0.1,0,0.1,0,0.2c1.9,0.5,3.8,1.1,5.8,1.6
		c-0.1,0.9-0.2,1.8-0.4,2.7c0.3,0,0.5,0,0.7-0.1c1.3-0.3,2.5-0.6,3.8-0.9c0.8-0.2,1.7-0.3,2.5-0.2c0.8,0,1.6,0.3,2.4,0.5
		c1.2,0.3,2.4,0.5,3.8,0.8c-0.4-1-0.8-1.9-1.2-2.8c1.7-0.7,3.5-0.9,5.4-1.7c-0.3-0.1-0.4-0.2-0.5-0.2c-1.8-0.1-3.6-0.3-5.4-0.4
		c-0.8-0.1-1.6-0.1-2.3-0.4c-1.2-0.5-2.3-1.3-3.4-2c-0.2,0-0.4,0-0.6,0c-0.9,0.6-1.7,1.2-2.6,1.8C169,6.5,168.6,6.6,168.2,6.7z"/>
	<path fill="#003E79" d="M226.2,57c3.5-0.5,6.3-2.2,8.1-5.3c1.6-2.6,2-5.4,1.4-8.4c-0.5-2.7-1.7-5-3.9-6.8c-2.2-1.7-4.7-2.4-7.5-2.4
		c-0.9,0.1-1.7,0.1-2.6,0.3c-2.6,0.5-4.8,1.7-6.6,3.7c-2,2.3-2.9,5.1-2.8,8.1c0.2,4.2,2,7.5,5.8,9.5C220.7,57.1,223.4,57.4,226.2,57
		z M219.7,53.5c-1.3-1.6-2-3.4-2.4-5.4c-0.2-1-0.2-2.1-0.3-3.1c0-1.7,0.2-3.4,0.9-5c1-2.4,2.6-4,5.3-4.3c2.8-0.3,4.9,1,6.3,3.4
		c1.1,1.8,1.6,3.7,1.7,5.7c0.2,2.2,0,4.4-0.8,6.6c-1,2.5-2.7,4-5.4,4.2C222.9,55.8,221.1,55.1,219.7,53.5z"/>
	<path fill="#003E79" d="M264.1,35.1c-0.1-0.6-0.6-0.5-1-0.5c-1.3,0-2.6,0-3.8,0c-0.8,0-1.6,0-2.3,0c-0.4,0-0.7,0-0.8,0.5
		c-0.1,0.5,0.3,0.6,0.7,0.7c0.2,0,0.4,0.1,0.6,0.1c0.9,0.1,1.5,0.5,1.6,1.4c0.1,1,0.3,2.1,0.3,3.1c0.1,2.9,0,5.8,0,8.7
		c0,0.3,0,0.5,0,0.8c-0.1,0.1-0.2,0.1-0.3,0.2c-0.2-0.3-0.3-0.5-0.5-0.8c-2.1-2.4-4.3-4.7-6.4-7c-2.1-2.3-4.2-4.6-5.9-7.3
		c-0.2-0.4-0.5-0.4-0.9-0.4c-1.7,0-3.4,0-5.1,0c-0.8,0-0.8,0-0.7,1c0.3,0.1,0.5,0.2,0.8,0.2c1.9,0.5,2.5,1.3,2.5,3.2
		c0,4,0,7.9,0,11.9c0,1-0.1,2-0.2,2.9c-0.1,0.8-0.4,1.4-1.3,1.4c-0.2,0-0.3,0.1-0.5,0.1c-0.5,0-0.8,0.2-0.7,0.7
		c0.1,0.5,0.5,0.5,0.9,0.5c1.4,0,2.8-0.1,4.2-0.1c0.7,0,1.3,0.1,2,0.1c0.4,0,0.6-0.2,0.6-0.5c0-0.2-0.3-0.5-0.5-0.7
		c-0.1-0.1-0.3,0-0.5-0.1c-1.3-0.2-1.7-0.6-1.9-1.8c-0.1-0.9-0.2-1.7-0.2-2.6c0-2,0-4,0-6c0-1.6,0-3.3,0-4.9c0.1,0,0.1,0,0.2-0.1
		c0.2,0.2,0.5,0.5,0.7,0.7c4.1,4.6,8.2,9.3,12.2,13.9c0.6,0.6,1.1,1.3,1.6,1.9c0.3,0.4,0.7,0.7,1.3,0.5c0.5-0.2,0.4-0.7,0.4-1.1
		c0-0.4,0-0.9,0-1.3c0-4.7,0-9.3,0-14c0-1.1,0.1-2.2,0.2-3.2c0.1-1,0.4-1.3,1.4-1.6c0.1,0,0.2,0,0.3,0
		C263.7,35.8,264.2,35.7,264.1,35.1z"/>
	<path fill="#003E79" d="M160.6,35.1c-0.1,0.3,0,0.6,0.4,0.7c0.2,0,0.3,0.1,0.5,0.1c1.9,0.5,2.6,1.3,2.6,3.3c0,4,0,7.9,0,11.9
		c0,1-0.1,2-0.2,2.9c-0.1,0.7-0.4,1.3-1.2,1.4c-0.3,0-0.6,0.1-0.9,0.2c-0.2,0.1-0.4,0.5-0.4,0.7c0,0.2,0.3,0.4,0.5,0.5
		c0.2,0.1,0.4,0,0.6,0c1.8,0,3.6,0,5.4,0c1,0,1.3,0,1.3-0.5c0-0.7-0.6-0.7-1.1-0.7c-1.2-0.1-1.7-0.6-1.8-1.8
		c-0.1-0.9-0.2-1.8-0.2-2.7c0-3.4,0-6.8,0-10.1c0-0.2,0-0.5,0.1-0.9c0.5,0.5,0.9,0.9,1.2,1.3c2.6,3,5.2,5.9,7.8,8.9
		c1.9,2.2,3.9,4.4,5.8,6.7c0.3,0.4,0.7,0.5,1.1,0.4c0.5-0.2,0.5-0.6,0.5-1c0-4.8-0.1-9.6-0.1-14.4c0-1.1,0.1-2.3,0.1-3.4
		c0-1.4,0.4-2.5,2-2.5c0.3,0,0.7-0.2,0.6-0.7c-0.1-0.5-0.4-0.6-0.8-0.5c-0.1,0-0.2,0-0.3,0c-1.5,0-3,0-4.6,0c-0.5,0-1.1,0-1.6,0
		c-0.4,0-0.6,0.2-0.6,0.5c0,0.2,0.3,0.5,0.5,0.6c0.2,0.1,0.5,0.1,0.8,0.2c0.8,0.1,1.4,0.5,1.5,1.4c0.1,0.7,0.3,1.5,0.3,2.2
		c0,3.5,0,6.9,0,10.4c-0.1,0-0.2,0.1-0.2,0.1c-0.1-0.1-0.1-0.3-0.3-0.4c-1.6-1.8-3.3-3.6-4.9-5.4c-2.7-2.9-5.5-5.8-7.6-9.2
		c-0.2-0.4-0.5-0.4-0.9-0.4c-1.2,0-2.4,0-3.5,0c-0.6,0-1.2-0.1-1.7,0C160.9,34.7,160.6,34.9,160.6,35.1z"/>
	<path fill="#003E79" d="M66.8,38.1c0.6-0.2,1.3-0.3,2-0.2c1.9,0.3,3.8,0.7,5.6,1.1c0.8,0.2,1.7,0.3,2.6,0.4
		c-0.1-1.4-0.5-2.6-0.2-3.9c2.7-0.8,5.3-1.6,7.9-2.4c-0.2-0.2-0.4-0.3-0.6-0.3c-2.5-0.2-5-0.5-7.5-0.6c-0.5,0-0.9-0.2-1.1-0.7
		c-0.3-1-0.7-1.9-1.1-2.9c-0.3,0.1-0.6,0.1-0.9,0.3c-1.9,0.9-3.9,1.9-5.8,2.8c-0.3,0.1-0.6,0.3-0.9,0.3c-1,0.1-1.9,0.1-2.9,0.2
		c-2.1,0.1-4.3,0.3-6.4,0.5c-0.2,0-0.5,0.1-1,0.3c1.8,1,3.5,2,5.2,2.9c-0.4,0.5-0.8,0.9-1.2,1.3c-0.8,1-1.7,2.1-2.5,3.1
		c0,0,0.1,0.1,0.1,0.1C61,39.5,63.9,38.8,66.8,38.1z"/>
	<path fill="#003E79" d="M74.4,28.4C74.4,28.4,74.4,28.4,74.4,28.4C74.4,28.4,74.4,28.4,74.4,28.4L74.4,28.4z"/>
	<path fill="#003E79" d="M121.7,56.2c0.3-0.1,0.5-0.3,0.6-0.6c0.7-1.3,1.1-2.8,1.3-4.2c0.1-0.3,0-0.7-0.4-0.7
		c-0.3,0-0.6,0.1-0.8,0.3c-0.1,0.1-0.2,0.4-0.3,0.5c-0.6,1.1-1.3,2.1-2.3,2.9c-3.1,2.2-7.7,1.5-10.2-1.5c-1.8-2.2-2.5-4.7-2.5-7.5
		c0.1-0.9,0.2-1.9,0.3-2.8c0.7-4.1,3.9-7,8.4-6.9c2.7,0.1,4.7,1.5,5.7,4c0.1,0.2,0.1,0.5,0.3,0.6c0.2,0.2,0.5,0.3,0.8,0.2
		c0.2,0,0.4-0.4,0.4-0.6c-0.1-1.4-0.2-2.9-0.3-4.3c0-0.4-0.2-0.6-0.6-0.7c-3.6-0.9-7.2-1.2-10.9-0.2c-7.3,2-9.8,8.3-8.2,14.2
		c1,3.8,3.7,6.1,7.3,7.3C114.1,57.6,117.9,57.3,121.7,56.2z"/>
	<path fill="#003E79" d="M208.1,38.3c0.1,0.3,0.1,0.5,0.2,0.8c0.1,0.4,0.4,0.5,0.7,0.5c0.3-0.1,0.4-0.3,0.5-0.7
		c0.1-1.3,0.2-2.6,0.3-3.9c0-0.4,0.1-0.7,0.2-1.2c-0.4,0.1-0.8,0-0.9,0.2c-0.6,0.8-1.5,0.7-2.3,0.7c-4.4,0-8.7,0-13.1,0
		c-0.7,0-1.5,0-2.2,0c-0.4,0-0.8-0.1-1-0.5c-0.2-0.2-0.5-0.3-0.8-0.5c-0.2,1-0.4,1.8-0.6,2.5c-0.2,0.7-0.4,1.5-0.6,2.2
		c-0.1,0.4-0.2,0.7,0.3,0.8c0.4,0.2,0.7,0.1,0.9-0.3c0.2-0.3,0.4-0.6,0.5-1c0.6-1,1.4-1.6,2.5-1.7c1.1-0.1,2.2-0.1,3.2-0.2
		c1.2,0,1.3,0.1,1.4,1.3c0,5,0,10.1,0,15.1c0,0.6-0.1,1.1-0.2,1.7c-0.1,0.6-0.4,1-1,1c-0.6,0.1-1.1,0.1-1.7,0.2
		c-0.2,0.1-0.5,0.4-0.5,0.5c0,0.2,0.3,0.5,0.5,0.6c0.3,0.1,0.6,0,0.9,0c1.8,0,3.6-0.1,5.4-0.1c1,0,2,0.1,3,0.1
		c0.2,0,0.5-0.1,0.7-0.3c0.1-0.1,0.1-0.5-0.1-0.6c-0.2-0.2-0.5-0.2-0.7-0.3c-2-0.2-2.1-0.3-2.3-2.3c0-0.1,0-0.1,0-0.2
		c0-5.3,0-10.5,0-15.8c0-0.8,0.2-1,1-1c1.2,0,2.5,0,3.7,0.2C207.1,36.5,207.9,37.1,208.1,38.3z"/>
	<path fill="#003E79" d="M129.9,53c0,0.4-0.1,0.9-0.2,1.3c-0.1,0.6-0.4,0.9-1,1c-0.5,0.1-0.9,0.1-1.4,0.3c-0.2,0.1-0.5,0.4-0.5,0.5
		c0,0.2,0.3,0.5,0.5,0.6c0.1,0.1,0.3,0,0.5,0c1.6,0,3.2-0.1,4.7-0.1c3.3,0,6.6,0.1,9.9,0.1c0.5,0,0.8-0.1,1-0.6
		c0.4-1.4,0.8-2.8,1.2-4.2c-1-0.6-1.1-0.6-1.5,0.2c-0.2,0.4-0.5,0.9-0.7,1.3c-0.5,1-1.4,1.5-2.4,1.6c-1.4,0.1-2.8,0.1-4.2,0
		c-1.2-0.1-1.7-0.6-1.9-1.6c-0.1-0.7-0.2-1.4-0.2-2.1c0-4,0-8,0-12c0-0.3,0.1-0.7,0.1-1c-0.1-1.5,0.5-2.4,2.1-2.4
		c0.3,0,0.7-0.2,0.6-0.6c0-0.5-0.4-0.6-0.8-0.6c-0.9,0-1.8,0-2.6,0c-1.9,0-3.7,0-5.6,0c-0.2,0-0.4,0.1-0.6,0.1c0,0.3,0,0.6,0,0.9
		c0.4,0.1,0.7,0.2,1,0.2c1.7,0.1,1.6,0.7,1.8,1.9c0,0.2,0,0.3,0,0.5C129.9,43.2,129.9,48.1,129.9,53z"/>
	<path fill="#003E79" d="M81.4,27.5c1.3-0.1,2.6-0.5,4,0.1c1.7,0.7,3.5,1.3,5.3,1.9c0.5-1,0.9-1.9,1.4-2.9c0.2-0.4,0.5-0.7,1-0.8
		c0.9-0.1,1.7-0.3,2.6-0.4c1.6-0.3,3.3-0.6,4.9-0.9c-0.2-0.2-0.5-0.4-0.7-0.4c-1.9-0.4-3.7-0.8-5.6-1.2c-0.8-0.2-0.8-0.2-0.7-1
		c0.1-0.8,0.2-1.6,0.3-2.4c-2.3,0.7-4.7,1.4-7,2.1c-0.6,0.2-1.3,0.3-2,0.3c-2.4,0-4.8-0.1-7.2-0.2c-0.2,0-0.5,0.1-0.9,0.1
		c1,1.1,1.9,2,2.9,3c-0.4,0.2-0.7,0.4-1,0.6c-1.2,0.8-2.5,1.6-3.7,2.5c-0.2,0.1-0.3,0.4-0.5,0.5c0.1,0,0.2,0,0.3,0
		C77,28.1,79.2,27.8,81.4,27.5z"/>
	<path fill="#003E79" d="M74.5,28.4C74.5,28.4,74.4,28.4,74.5,28.4L74.5,28.4C74.5,28.4,74.5,28.4,74.5,28.4z"/>
	<path fill="#003E79" d="M93.8,19.4C93.8,19.4,93.8,19.4,93.8,19.4C93.8,19.4,93.9,19.4,93.8,19.4L93.8,19.4z"/>
	<path fill="#003E79" d="M157.1,56.2c0-0.5-0.3-0.6-0.7-0.7c-1.7-0.3-1.8-0.4-2-2.1c0-0.2,0-0.3,0-0.5c0-2.9,0-5.9,0-8.8
		c0-2,0-4,0.1-6c0.1-1.8,0.2-1.9,1.9-2.3c0.4-0.1,0.8-0.2,0.7-0.8c-0.1-0.5-0.5-0.5-0.9-0.5c-1.7,0-3.4,0-5.1,0c-1,0-2,0-2.9,0
		c-0.2,0-0.5,0.3-0.5,0.4c0,0.2,0.1,0.5,0.3,0.6c0.2,0.1,0.6,0.2,0.9,0.2c0.9,0.1,1.2,0.4,1.3,1.3c0.1,0.6,0.2,1.3,0.2,1.9
		c0,2.2,0,4.3,0,6.5c0,2.2,0,4.5,0,6.7c0,0.7-0.1,1.3-0.2,2c-0.1,0.6-0.4,0.9-0.9,1c-0.3,0.1-0.5,0.1-0.8,0.1
		c-0.5,0-0.8,0.1-0.8,0.7c0,0.4,0.3,0.6,1,0.6c0.5,0,1-0.1,1.5-0.1c2,0,4,0.1,6.1,0.1C156.6,56.8,157,56.7,157.1,56.2z"/>
	<path fill="#003E79" d="M235.1,16.9c-1.8,0.7-3.4,1.3-5.1,2c2.5,0.4,5,0.6,7.5,0.8c0.6,0,1.1,0.2,1.6,0.6c1,0.7,1.9,1.5,2.9,2.2
		c0.4,0.3,0.7,0.3,1.1,0.1c0.9-0.6,1.8-1.2,2.7-1.8c0.5-0.3,0.9-0.5,1.5-0.4c2.5,0.1,4.9,0.2,7.4,0.3c0.2,0,0.4-0.1,0.6-0.1
		c0-0.1,0-0.2,0-0.2c-2.3-0.9-4.5-1.8-6.7-2.7c0-1,0-2,0-3c-2,0.2-3.8,0.5-5.7,0.7c-1,0.1-1.9,0.3-2.9,0.1c-1.5-0.4-3-0.7-4.5-0.9
		c-1-0.2-2-0.3-3.1-0.4c0.2,0.2,0.4,0.5,0.6,0.7C233.6,15.5,234.3,16.2,235.1,16.9z"/>
	<path fill="#003E79" d="M232.4,14C232.3,14,232.3,14,232.4,14L232.4,14C232.3,14,232.3,14,232.4,14z"/>
	<path fill="#003E79" d="M102,19.3c0.6,0,1.2,0.1,1.7,0.5c1.2,0.7,2.5,1.4,3.7,2.1c1-0.9,1.8-1.8,2.7-2.5c0.3-0.2,0.7-0.4,1.1-0.4
		c2-0.2,4-0.3,5.9-0.4c0.5,0,0.9-0.1,1.4-0.2c0-0.1,0-0.1,0-0.2c-1.8-0.6-3.6-1.3-5.4-2c0.7-1,1.4-1.9,2.1-2.9c-0.3,0-0.5,0-0.7,0
		c-1.6,0.3-3.2,0.6-4.8,0.9c-1.1,0.2-2.3,0.4-3.4,0.4c-1.2,0-2.4-0.3-3.6-0.5c-1.1-0.1-2.3-0.3-3.6-0.4c0.4,1.1,0.7,2,1,3
		c-0.3,0.1-0.6,0.2-0.8,0.4c-1.8,0.8-3.6,1.6-5.4,2.4c0.4,0,0.8,0.1,1.1,0.1C97.4,19.5,99.7,19.4,102,19.3z"/>
	<path fill="#003E79" d="M93.9,19.4C93.9,19.4,93.9,19.4,93.9,19.4L93.9,19.4C93.9,19.4,93.9,19.4,93.9,19.4z"/>
	<path fill="#003E79" d="M209.1,14.5c0.4,0.2,0.7,0.2,0.9,0.2c1.2,0,2.4,0.1,3.5-0.1c2.3-0.2,4.4,0.3,6.3,1.5
		c0.6,0.4,1.4,0.7,2.1,1.1c0.6-0.8,1.1-1.5,1.7-2.2c0.2-0.2,0.5-0.5,0.8-0.5c0.9-0.1,1.9-0.2,2.8-0.2c1.7-0.1,3.3-0.2,5-0.3
		c-0.2-0.1-0.3-0.2-0.5-0.2c-2.2-0.6-4.3-1.2-6.5-1.8c-0.6-0.2-0.9-0.4-1.1-1c-0.3-0.7-0.7-1.4-1-2.1c-1.3,0.3-2.6,0.6-3.9,0.9
		c-1.2,0.3-2.5,0.6-3.8,0.4c-2.2-0.3-4.3-0.5-6.5-0.7c-0.1,0-0.2,0.1-0.4,0.2c1.4,0.8,2.6,1.6,4,2.4C211.3,13,210.2,13.8,209.1,14.5
		z"/>
	<path fill="#003E79" d="M232.3,14C232.3,14,232.3,14,232.3,14C232.3,14,232.3,14,232.3,14L232.3,14z"/>
	<path fill="#003E79" d="M109.1,81.1c-1.1-0.3-1.3-0.4-1.3-1.5c0-0.8,0-1.6,0-2.3c0-2.5,0-5.1,0-7.6c0-1.2,0.2-1.4,1.3-1.7
		c0.5-0.1,0.6-0.4,0.4-0.8c-1.7,0-3.4,0-5.1,0c-0.1,0-0.2,0-0.2,0c-0.1,0.1-0.3,0.2-0.3,0.3c0,0.1,0.1,0.3,0.2,0.4
		c0.1,0.1,0.3,0.1,0.5,0.1c0.9,0.2,1,0.3,1.1,1.3c0,0.9,0,1.9,0,2.8c0,0.5,0,1,0,1.5c-2.8,0-5.4,0-8.1,0c0-1.5-0.1-2.9,0-4.4
		c0.1-1,0.1-1,1.1-1.2c0.5-0.1,0.7-0.3,0.5-0.8c-1.9,0-3.7,0-5.6,0c-0.2,0.5,0,0.7,0.5,0.8c1.2,0.2,1.3,0.3,1.3,1.5
		c0,3.4,0,6.8,0,10.2c0,1-0.1,1.1-1.1,1.4c-0.3,0.1-0.7,0.2-0.5,0.5c0.1,0.2,0.5,0.4,0.7,0.4c1.2,0,2.4,0,3.5,0c0.4,0,0.7,0.1,1.1,0
		c0.2,0,0.3-0.3,0.4-0.5c0-0.1-0.2-0.3-0.4-0.4c-0.1-0.1-0.3,0-0.4,0c-0.9-0.1-1.1-0.3-1.1-1.1c-0.1-1.5-0.1-3-0.1-4.4
		c0-0.2,0.1-0.4,0.1-0.6c2.7,0,5.3,0,8,0c0,1.5,0,3,0,4.4c0,1.4,0,1.3-1.3,1.8c-0.2,0.1-0.3,0.3-0.5,0.5c0.2,0.1,0.4,0.4,0.6,0.4
		c1.5,0,3,0,4.6,0c0.3,0,0.7-0.1,0.6-0.5C109.6,81.3,109.3,81.1,109.1,81.1z"/>
	<path fill="#003E79" d="M172.5,81.3c-0.1-0.1-0.3-0.2-0.5-0.2c-1.2-0.2-1.4-0.4-1.4-1.6c0-0.8,0-1.6,0-2.3c0-0.7,0-1.5,0-2.2
		c1.6-0.3,7.5-0.2,8.2,0.1c0,1.5,0,2.9,0,4.4c0,1.1-0.1,1.3-1.3,1.6c-0.3,0.1-0.6,0.2-0.5,0.5c0.1,0.2,0.4,0.4,0.6,0.4
		c1.5,0,3,0,4.6,0c0.2,0,0.5-0.2,0.6-0.4c0.1-0.3-0.2-0.4-0.5-0.5c-1.3-0.3-1.3-0.3-1.3-1.6c0-3.2,0-6.5,0-9.7c0-0.5,0-1,0.2-1.4
		c0.2-0.3,0.8-0.3,1.1-0.5c0.2-0.1,0.3-0.3,0.4-0.5c-0.2-0.1-0.4-0.3-0.6-0.3c-1.5,0-3,0-4.6,0c-0.2,0-0.3,0-0.5,0.1
		c-0.2,0.6,0.2,0.8,0.6,0.8c0.7,0,1,0.4,1,1c0,1.5,0,3,0,4.6c-2.7,0-5.4,0-8.1,0c0-1.4,0-2.7,0-4c0-1.1,0.1-1.2,1.3-1.6
		c0.2-0.1,0.4-0.3,0.5-0.5c-0.2-0.1-0.4-0.3-0.6-0.3c-1.2,0-2.5,0-3.7,0c-0.3,0-0.6-0.1-0.9,0c-0.2,0-0.4,0.2-0.6,0.3
		c0.2,0.2,0.3,0.4,0.5,0.5c0.1,0.1,0.3,0,0.4,0c0.5,0,0.8,0.3,0.9,0.8c0.1,0.3,0.1,0.7,0.1,1c0,3.2,0,6.4,0,9.6c0,1.2,0,1.2-1.2,1.7
		c-0.2,0.1-0.3,0.3-0.4,0.5c0.2,0.1,0.3,0.4,0.5,0.4c1.6,0,3.2,0,4.9,0C172.5,81.9,172.6,81.6,172.5,81.3z"/>
	<path fill="#003E79" d="M124.2,14.6c0.5,0.7,1.2,1.3,1.8,2c1.4-0.8,2.6-1.4,3.8-2.1c0.6-0.4,1.2-0.5,1.9-0.4c2,0.1,3.9,0.1,5.9,0.2
		c0.2,0,0.4,0,0.6-0.1c0-0.1,0-0.1,0-0.2c-1.3-0.7-2.6-1.5-4-2.3c1.1-0.8,2.2-1.6,3.2-2.4c-0.3-0.2-0.6-0.2-0.8-0.2
		c-2.2,0.2-4.4,0.4-6.5,0.6c-0.6,0-1.1,0-1.7-0.1c-1.8-0.4-3.6-0.9-5.6-1.4c-0.2,1-0.4,1.9-0.7,2.8c-2.2,0.6-4.5,1.3-6.7,1.9
		c0.2,0.2,0.4,0.3,0.6,0.3c2,0.1,3.9,0.3,5.9,0.4C122.8,13.7,123.6,13.9,124.2,14.6z"/>
	<path fill="#003E79" d="M187.8,12.3c2.1-0.2,4-0.4,6-0.6c0.7-0.1,1.3,0,2,0.1c1.1,0.3,2.2,0.7,3.3,1.1c0.6,0.2,1.3,0.4,2,0.6
		c0.2-1,0.3-1.9,0.4-2.8c2.2-0.3,4.3-0.7,6.5-1c-0.1-0.2-0.3-0.3-0.4-0.4c-1.8-0.3-3.5-0.6-5.3-0.9C201,8.3,199.9,8,199.1,7
		c-0.3-0.4-0.7-0.6-1-1c-0.4-0.4-0.7-0.4-1.2-0.2c-1.1,0.5-2.2,0.9-3.4,1.4c-0.5,0.2-1,0.3-1.5,0.3c-2.1,0-4.1-0.1-6.2-0.1
		c-0.3,0-0.7-0.1-1,0.3c1.6,0.7,3.2,1.3,4.8,2C189.1,10.6,188.3,11.3,187.8,12.3z"/>
	<path fill="#003E79" d="M144.8,10.4c0.4,1,0.8,1.9,1.2,2.8c1.5-0.5,2.9-1,4.2-1.5c0.8-0.3,1.6-0.4,2.5-0.3c0.9,0.1,1.7,0.2,2.6,0.3
		c1.1,0.1,2.2,0.2,3.3,0.4c0-0.1,0.1-0.1,0.1-0.2c-0.9-0.8-1.7-1.6-2.7-2.5c1.7-0.8,3.1-1.4,4.8-2.2c-0.4-0.1-0.6-0.1-0.7-0.1
		c-2.1,0-4.1,0-6.2,0c-0.8,0-1.6-0.1-2.4-0.4c-1.4-0.6-2.8-1.1-4.3-1.7c-0.6,0.7-1.2,1.4-1.7,2.2c-0.2,0.3-0.5,0.5-0.9,0.5
		c-2,0.3-4,0.6-6,1c-0.2,0-0.3,0.1-0.5,0.2c0,0.1,0,0.1,0,0.2C140.5,9.7,142.7,10,144.8,10.4z"/>
	<path fill="#003E79" d="M144.3,92.5c-1.5,0-3,0-4.6,0c-0.1,0-0.4,0.2-0.4,0.3c0,0.1,0.2,0.4,0.3,0.4c0.3,0.1,0.6,0.1,0.9,0.2
		c0.4,0.1,0.7,0.3,0.7,0.7c0,0.3,0.2,0.7,0.2,1c0.1,2.6,0.1,5.1,0.2,7.7c0,0.2-0.1,0.3-0.1,0.7c-3.2-3.8-6.7-7.1-9.4-11
		c-1,0-2,0-3,0c-0.3,0-0.7,0.1-0.7,0.3c-0.1,0.5,0.4,0.4,0.7,0.6c0,0,0.1,0,0.1,0c1.1,0.3,1.3,0.5,1.5,1.6c0,0.4,0.1,0.7,0.1,1.1
		c0,1.9,0,3.7,0,5.6c0,1.2-0.1,2.4-0.2,3.5c-0.1,0.9-0.2,1-1,1.3c-0.2,0-0.4,0-0.5,0.1c-0.1,0.1-0.3,0.2-0.3,0.3
		c0,0.1,0.1,0.3,0.2,0.4c0.2,0.1,0.5,0.1,0.7,0.1c0.7,0,1.5-0.1,2.2-0.1c0.5,0,1,0.1,1.5,0.1c0.5,0,0.7-0.2,0.6-0.8
		c-0.2,0-0.3,0-0.5-0.1c-1.3-0.2-1.4-0.2-1.5-1.6c-0.1-3-0.2-6.1-0.3-9.1c0.1,0,0.2,0,0.2,0c2.4,2.8,4.9,5.6,7.3,8.4
		c0.9,1,1.7,2.1,2.6,3.1c0.1,0.1,0.4,0.3,0.6,0.3c0.1-0.1,0.2-0.4,0.3-0.6c0-0.1,0-0.2,0-0.3c0-2,0-3.9,0-5.9c0-1.7,0-3.4,0-5.2
		c0-1.1,0-2.3,1.6-2.4c0.1,0,0.3-0.3,0.3-0.4C144.7,92.7,144.5,92.5,144.3,92.5z"/>
	<path fill="#003E79" d="M249.9,78.5c-0.7-0.3-0.7,0.4-1,0.8c-0.4,0.6-0.7,1.4-1.6,1.5c-1.4,0.1-2.8,0-4.2,0c-0.4,0-0.8-0.3-0.8-0.8
		c-0.3-1.7-0.2-3.4-0.1-5.2c1.1,0,2.1,0,3.1,0c0.6,0,0.9,0.3,1,0.9c0,0.2,0.1,0.5,0.2,0.7c0.1,0.1,0.3,0.2,0.4,0.2
		c0.1,0,0.3-0.2,0.3-0.3c0.1-0.1,0-0.3,0-0.5c0-1,0-2.1,0-3.1c0-0.3-0.2-0.8-0.3-0.8c-0.5-0.1-0.5,0.4-0.6,0.7
		c-0.1,0.1,0,0.3-0.1,0.4c-0.2,0.2-0.4,0.6-0.7,0.6c-1.1,0.1-2.2,0-3.4,0c0-1.7,0-3.4,0-5c0-0.4,0.3-0.6,0.7-0.5
		c0.8,0,1.7,0.1,2.5,0.1c1.3,0,2.1,0.5,2.5,1.8c0,0.1,0,0.2,0.1,0.2c0.2,0.1,0.3,0.3,0.5,0.3c0.1,0,0.4-0.3,0.4-0.4
		c-0.2-0.9,0-1.9-0.5-2.8c-3.3,0-6.5,0-9.8,0c-0.2,0.5,0,0.7,0.4,0.8c1.1,0.3,1.1,0.4,1.2,1.5c0,3.3,0,6.6,0,9.9
		c0,1.4-0.1,1.5-1.5,1.7c-0.1,0-0.2,0-0.2,0c-0.1,0.1-0.3,0.3-0.3,0.4c0,0.1,0.2,0.4,0.3,0.4c0.3,0.1,0.7,0,1,0c2.5,0,5,0,7.5,0
		c2.8,0,2.2,0.5,3.1-2.3C250,79.3,250.5,78.8,249.9,78.5z"/>
	<path fill="#003E79" d="M122.4,81.9c0.2,0,0.6-0.2,0.7-0.4c0.3-0.8,0.6-1.7,0.8-2.6c0-0.1-0.1-0.5-0.2-0.5c-0.2,0-0.5,0-0.6,0.2
		c-0.3,0.4-0.5,0.9-0.8,1.2c-0.4,0.4-0.8,0.8-1.3,0.8c-1.2,0.1-2.5,0.1-3.7,0c-0.7,0-1.1-0.4-1.2-1.2c-0.2-1.6-0.1-3.2-0.1-4.9
		c0.9,0,1.7,0,2.5,0c1.2,0,1.2,0.1,1.7,1.3c0.1,0.2,0.4,0.4,0.6,0.6c0.1-0.3,0.3-0.5,0.3-0.8c0-1.1,0-2.2,0-3.3
		c0-0.2-0.1-0.5-0.1-0.7c-0.7-0.1-0.8,0.3-0.8,0.8c-0.1,0.4-0.1,0.9-0.7,1c-1.1,0-2.3,0-3.4,0c0-1.8,0-3.6,0-5.5c1.1,0,2.1,0,3.1,0
		c1.3,0,2.2,0.4,2.5,1.8c0,0.1,0,0.1,0.1,0.2c0.1,0.1,0.4,0.3,0.5,0.3c0.2-0.1,0.4-0.3,0.4-0.5c-0.1-0.9-0.2-1.8-0.3-2.7
		c-3.2,0-6.4,0-9.5,0c-0.2,0-0.5,0.2-0.5,0.3c-0.1,0.4,0.2,0.5,0.6,0.5c0.9,0.2,1.1,0.4,1.1,1.2c0,3.5,0,7,0,10.5
		c0,1-0.3,1.2-1.3,1.4c-0.3,0-0.8-0.1-0.8,0.5c0,0.5,0.5,0.4,0.9,0.4c0.1,0,0.1,0,0.2,0c2.4,0,4.8,0,7.2,0
		C120.9,81.9,121.7,81.9,122.4,81.9z"/>
	<path fill="#003E79" d="M245.6,104.6c-0.5,0.8-1,1.6-2.1,1.7c-1.1,0-2.2,0.1-3.2,0c-1.2-0.1-1.4-0.5-1.5-1.7c0-1.3,0-2.6,0-3.9
		c0-0.2,0.1-0.3,0.1-0.5c0.7,0,1.5,0,2.2,0c1.4,0,1.4,0,1.9,1.4c0.1,0.2,0.3,0.3,0.5,0.5c0.1-0.2,0.3-0.4,0.3-0.6c0-1.1,0-2.3,0-3.4
		c0-0.2-0.1-0.4-0.1-0.6c-0.6-0.2-0.8,0.1-0.8,0.6c-0.1,0.5-0.2,1.1-0.8,1.1c-1.1,0-2.2,0-3.3,0c0-1.9,0-3.7,0-5.5
		c1.4-0.1,2.8-0.2,4.2,0.2c0.4,0.1,0.8,0.6,1.1,0.9c0.2,0.2,0.1,0.5,0.3,0.7c0.1,0.2,0.4,0.3,0.6,0.4c0.1-0.2,0.3-0.4,0.3-0.6
		c0-0.8-0.1-1.7-0.2-2.6c-0.4,0-0.6-0.1-0.8-0.1c-2.7,0-5.5,0-8.2,0c-0.2,0-0.5,0-0.7,0c-0.2,0-0.3,0.2-0.5,0.3
		c0.1,0.2,0.2,0.3,0.4,0.5c0.1,0.1,0.3,0.1,0.5,0.1c0.5,0.1,0.7,0.4,0.8,0.8c0.1,0.3,0.1,0.7,0.1,1c0,3,0,6.1,0,9.1
		c0,1.8,0,1.8-1.7,2.2c-0.2,0-0.3,0.2-0.4,0.3c0.1,0.2,0.2,0.4,0.4,0.5c0.2,0.1,0.5,0,0.7,0c0.6,0,1.2-0.1,1.8-0.1
		c2.1,0,4.2,0.1,6.3,0.1c2.4,0,1.9,0.5,2.7-2c0.2-0.4,0.4-0.9,0.1-1.4C246,103.8,245.9,104.3,245.6,104.6z"/>
	<path fill="#003E79" d="M199.9,81c-0.3,0-0.7,0.1-0.6,0.5c0,0.4,0.4,0.4,0.7,0.4c1.5,0,2.9,0,4.4,0c0.2,0,0.6-0.2,0.6-0.3
		c0.1-0.4-0.2-0.5-0.5-0.5c-0.9,0-1.3-0.6-1.6-1.3c-0.2-0.4-0.3-0.8-0.4-1.2c-1.2-3.7-2.5-7.3-3.7-11c-0.1-0.3-0.3-0.6-0.5-0.9
		c-0.6,0.6-1.2,0.8-1.5,1.5c-1.5,4-3,8-4.5,12c-0.2,0.6-0.7,1-1.4,1c-0.2,0-0.4,0-0.6,0.1c-0.2,0.5-0.1,0.8,0.4,0.8
		c0.6,0,1.3,0,1.9,0c0.6,0,1.2,0.1,1.8,0c0.2,0,0.4-0.2,0.6-0.4c-0.2-0.2-0.3-0.4-0.5-0.5c-0.2-0.1-0.5-0.1-0.9-0.1
		c0.1-1.7,0.9-3.1,1.3-4.6c1.6,0,3,0,4.4,0c0.8,1.6,1.4,3.7,1.3,4.6C200.4,80.9,200.2,81,199.9,81z M195.4,75
		c0.6-1.7,1.2-3.2,1.7-4.8c0.1,0,0.2,0,0.3,0c0.5,1.5,1,3.1,1.6,4.8C197.7,75,196.6,75,195.4,75z"/>
	<path fill="#003E79" d="M129.2,81.5c0.1-0.3-0.1-0.5-0.5-0.5c-0.3,0-0.6-0.1-1-0.2c0.5-1.6,1-3.1,1.5-4.5c1.6,0,3,0,4.5,0
		c0.4,1.2,0.8,2.4,1.1,3.6c0.3,0.9,0.3,1-0.7,1.1c-0.3,0.1-0.6,0.1-0.5,0.5c0.1,0.2,0.4,0.4,0.6,0.4c0.6,0,1.3,0,1.9,0
		c0.9,0,1.8,0,2.6,0c0.2,0,0.3-0.2,0.5-0.4c-0.1-0.2-0.3-0.4-0.4-0.5c-1.3,0-1.6-0.9-1.9-1.8c-1.3-3.9-2.7-7.8-4-11.6
		c-0.1-0.3-0.2-0.6-0.4-1c-0.9,0.6-1.7,1.1-1.7,2.2c0,0.1,0,0.1-0.1,0.2c-1.4,3.5-2.8,7.1-4.1,10.6c-0.3,0.9-0.8,1.5-1.8,1.5
		c-0.2,0-0.3,0.2-0.5,0.4c0.2,0.2,0.4,0.4,0.6,0.4c0.5,0.1,0.9,0,1.4,0c0.8,0,1.6,0,2.4,0C128.9,81.9,129.1,81.7,129.2,81.5z
		 M131.4,70.1c0.1,0,0.1,0,0.2,0c0.5,1.6,1.1,3.2,1.6,4.9c-1.2,0-2.3,0-3.6,0C130.3,73.3,130.8,71.7,131.4,70.1z"/>
	<path fill="#003E79" d="M191.7,104.6c-1.3-3.9-2.6-7.8-3.9-11.6c-0.1-0.3-0.3-0.5-0.5-1c-0.5,0.6-1.1,1-1.3,1.5
		c-0.4,0.9-0.7,1.8-1,2.7c-1.1,3-2.3,5.9-3.4,8.9c-0.3,0.9-0.8,1.3-1.8,1.4c-0.1,0-0.3,0-0.5,0.1c0.1,0.8,0.1,0.8,0.7,0.8
		c1.1,0,2.3,0,3.4,0c0.1,0,0.2,0,0.3,0c0.2-0.1,0.3-0.3,0.5-0.4c-0.1-0.1-0.2-0.3-0.4-0.4c-0.3-0.1-0.6-0.2-1.1-0.2
		c0.3-1.6,0.9-3.1,1.4-4.6c1.5,0,3,0,4.5,0c0.5,1.5,1,2.9,1.5,4.5c-0.4,0.1-0.7,0.2-1,0.3c-0.3,0-0.6,0.1-0.5,0.4
		c0.1,0.2,0.4,0.4,0.6,0.4c0.5,0,1.1-0.1,1.6-0.1c0.9,0,1.8,0.1,2.7,0.1c0.5,0,0.8-0.2,0.6-0.8C192.5,106.7,192,105.7,191.7,104.6z
		 M184.5,100.5c0.6-1.7,1.2-3.3,1.8-4.9c0.1,0,0.1,0,0.2,0c0.5,1.6,1.1,3.2,1.6,4.9C186.9,100.5,185.7,100.5,184.5,100.5z"/>
	<path fill="#003E79" d="M226,81.2c1.5,0.8,3,1,4.7,1c0.5,0,1.1,0,1.6,0c2.6-0.2,3.3-0.9,3.8-3.2c0-0.2,0-0.7-0.2-0.8
		c-0.4-0.3-0.6,0.2-0.7,0.4c-0.1,0.1-0.2,0.3-0.2,0.4c-0.5,0.9-1.3,1.6-2.3,1.9c-2.2,0.8-5.1,0.1-6.5-1.8c-1.4-1.8-1.8-3.8-1.6-6.1
		c0.4-3.7,3.3-5.9,7.4-5.3c1.5,0.3,2.5,1.2,2.9,2.6c0.1,0.3,0.3,0.6,0.6,0.5c0.2-0.1,0.3-0.4,0.3-0.7c0-0.7-0.2-1.5-0.2-2.2
		c0-0.5-0.2-0.7-0.7-0.8c-0.5-0.1-1-0.2-1.5-0.3c-2.3-0.4-4.6-0.4-6.7,0.6c-3,1.3-4.6,3.6-4.6,6.9C222,77.4,223.3,79.7,226,81.2z"/>
	<path fill="#003E79" d="M219.9,79.2c0.1-0.4,0.3-0.9-0.1-1.1c-0.5-0.2-0.6,0.3-0.8,0.7c-0.6,1.1-1.5,1.9-2.7,2.3
		c-2.4,0.7-5.4-0.4-6.8-2.7c-1-1.8-1.2-3.7-0.9-5.6c0.3-2.3,1.6-4.1,4-4.8c1.4-0.4,2.8-0.4,4.2,0.1c1.2,0.5,1.8,1.4,2.2,2.5
		c0,0.2,0.3,0.2,0.5,0.4c0.1-0.2,0.3-0.4,0.3-0.6c-0.1-1-0.2-1.9-0.3-3c-2.2-0.6-4.4-0.9-6.6-0.5c-3.8,0.7-6.7,3.3-6.9,7.4
		c-0.1,3.4,1.8,6.2,5,7.3c2,0.7,3.9,0.6,6,0.4C218.6,81.8,219.6,80.9,219.9,79.2z"/>
	<path fill="#003E79" d="M232.9,92.5c-1.2,0-2.4,0-3.6,0c-0.2,0-0.4,0.1-0.6,0.1c-0.2,0.5,0.1,0.6,0.4,0.7c0.3,0.1,0.6,0.2,1,0.3
		c-1.4,3.4-2.8,6.7-4.2,10.1c-0.1,0-0.1,0-0.2,0c-1.4-3.3-2.8-6.6-4-10.1c0.5-0.1,0.8-0.2,1.1-0.3c0.2-0.1,0.2-0.3,0.4-0.4
		c-0.2-0.1-0.3-0.4-0.5-0.4c-1.5,0-3,0-4.4,0c-0.2,0-0.4,0.2-0.5,0.3c0.1,0.1,0.3,0.4,0.4,0.4c0.9,0.1,1.4,0.7,1.7,1.4
		c1.6,4,3.2,8,4.8,12c0.1,0.3,0.1,0.9,0.6,0.9c0.6,0,0.6-0.6,0.7-0.9c1.8-4,3.5-8,5.3-12c0.3-0.8,0.8-1.4,1.8-1.4
		c0.2,0,0.4-0.3,0.4-0.4C233.5,92.5,233.2,92.5,232.9,92.5z"/>
	<path fill="#003E79" d="M160.1,81.9c0.2,0,0.5-0.2,0.6-0.4c0.1-0.4-0.2-0.5-0.6-0.5c-1.3-0.2-1.4-0.3-1.5-1.4c0-3.6,0-7.2-0.1-10.8
		c0-0.6,0.3-0.8,0.8-0.8c0.8,0,1.6,0.1,2.4,0.1c1.2,0.1,1.5,0.3,1.8,1.5c0.1,0.3,0.2,0.6,0.5,0.6c0.2,0,0.3-0.4,0.3-0.6
		c0.1-1,0.2-2,0.3-3.1c-0.2,0-0.4,0-0.5,0c-0.5,0.6-1.2,0.5-1.9,0.5c-2.8,0-5.7,0-8.5,0c-0.8,0-1.7,0.1-2.2-0.7c-0.1,0-0.2,0-0.2,0
		c-0.7,1-0.6,2.3-1,3.4c0,0.1,0.2,0.3,0.3,0.3c0.1,0,0.4,0,0.4-0.1c0.2-0.2,0.2-0.5,0.4-0.7c0.4-0.4,0.7-0.9,1.2-1
		c1.2-0.3,2.4-0.4,3.6-0.2c0,0.3,0.1,0.5,0.1,0.7c0,3.5,0,7.1,0,10.6c0,1.3-0.2,1.4-1.5,1.6c-0.3,0-0.7,0-0.7,0.4
		c0,0.4,0.3,0.4,0.6,0.4C156.7,81.9,158.4,81.9,160.1,81.9z"/>
	<path fill="#003E79" d="M270.6,74.3c-0.9-0.7-1.9-1.2-2.8-1.8c-0.5-0.4-1.1-0.9-1.4-1.5c-0.6-1.1-0.1-2.4,0.9-3
		c1.5-0.7,3.2-0.1,3.9,1.4c0.1,0.2,0.1,0.3,0.2,0.5c0.1,0.2,0.3,0.3,0.5,0.4c0.1-0.2,0.4-0.4,0.4-0.6c-0.1-0.7-0.2-1.3-0.3-2
		c0-0.2-0.3-0.4-0.4-0.5c-1.5-0.4-3.1-0.7-4.7-0.1c-1.7,0.7-2.6,1.9-2.5,3.8c0.1,1.6,1,2.7,2.2,3.5c0.8,0.5,1.6,1,2.4,1.6
		c0.4,0.3,0.9,0.7,1.2,1.1c1.1,1.6,0.5,3.9-1.8,4.1c-1.2,0.1-2.3-0.3-3-1.3c-0.4-0.5-0.6-1.1-0.9-1.7c-0.1-0.2-0.3-0.3-0.5-0.4
		c-0.1,0.2-0.3,0.4-0.3,0.5c0.1,0.7,0.2,1.4,0.3,2.1c0.1,0.6,0.4,1,1.1,1.2c0.8,0.2,1.7,0.4,2.5,0.6c0,0,0-0.1,0-0.1
		c0.4,0,0.8,0,1.2-0.1c2.6-0.4,3.9-2.2,3.8-4.3C272.4,76.3,271.7,75.2,270.6,74.3z"/>
	<path fill="#003E79" d="M169.2,92c-0.6,0.6-1.4,0.6-2.2,0.6c-2.7,0-5.3,0-8,0c-0.9,0-1.9,0.1-2.5-0.8c-0.1,0.1-0.2,0.1-0.3,0.1
		c-0.3,1.1-0.6,2.2-0.9,3.3c0,0.1,0.1,0.3,0.2,0.4c0.1,0.1,0.4,0,0.4-0.1c0.2-0.2,0.3-0.5,0.4-0.7c0.4-0.4,0.8-0.9,1.3-1.1
		c1.1-0.4,2.3-0.3,3.6-0.2c0,0.3,0.1,0.6,0.1,0.8c0,3.4,0,6.9,0,10.3c0,0.2,0,0.5,0,0.7c0,0.7-0.3,1-1,1.1c-0.3,0-0.6,0.1-0.9,0.1
		c-0.1,0-0.3,0.2-0.3,0.3c0,0.1,0.1,0.4,0.2,0.4c0.3,0.1,0.7,0.1,1,0.1c1.3,0,2.7,0,4,0c0.3,0,0.6,0,0.8-0.1c0.1,0,0.3-0.3,0.3-0.4
		c0-0.1-0.2-0.3-0.3-0.3c-0.1-0.1-0.3,0-0.4-0.1c-1.2-0.2-1.2-0.2-1.3-1.4c0-0.2,0-0.4,0-0.6c0-3.4,0-6.8,0-10.1
		c0-0.3,0.1-0.6,0.1-0.9c1,0,1.9,0,2.7,0c1.1,0.1,2.1,0.3,2.1,1.8c0,0.1,0,0.2,0.1,0.2c0.2,0.1,0.3,0.2,0.5,0.2
		c0.1,0,0.3-0.2,0.3-0.4c0.1-1.1,0.2-2.2,0.3-3.3C169.5,92,169.3,91.9,169.2,92z"/>
	<path fill="#003E79" d="M207.2,92c-0.6,0.6-1.3,0.6-2.1,0.6c-2.7,0-5.4,0-8.1,0c-0.9,0-1.8,0.1-2.5-0.8c0,0-0.1,0-0.3,0
		c-0.3,1.1-0.6,2.2-0.9,3.2c0,0.1,0.1,0.4,0.2,0.4c0.2,0.1,0.4,0.1,0.5,0c0.2-0.1,0.2-0.4,0.4-0.6c0.3-0.4,0.6-0.9,1-1
		c1.2-0.5,2.5-0.5,3.9-0.3c0,0.4,0,0.8,0,1.1c0,3.3,0,6.5,0,9.8c0,1.8,0,1.8-1.7,2.1c0,0-0.1,0-0.1,0c-0.1,0.1-0.3,0.2-0.4,0.4
		c0.1,0.2,0.3,0.4,0.4,0.4c0.4,0.1,0.8,0,1.2,0c1.1,0,2.2,0,3.2,0c0.3,0,0.7,0,1,0c0.5,0,0.6-0.4,0.4-0.8c-0.3-0.1-0.6-0.1-0.9-0.2
		c-0.7-0.1-0.9-0.5-1-1.1c0-0.2,0-0.4,0-0.6c0-3.5,0-7,0-10.4c0-0.3,0-0.6,0.1-0.8c1.1,0,2,0,2.9,0c1.1,0,1.9,0.5,2,1.7
		c0,0.2,0.3,0.3,0.4,0.4c0.1-0.2,0.4-0.3,0.4-0.5c0.1-1.1,0.2-2.1,0.3-3.3C207.5,92,207.2,91.9,207.2,92z"/>
	<path fill="#003E79" d="M259.3,74.6c-0.8-0.7-1.7-1.2-2.6-1.8c-0.6-0.4-1.2-0.9-1.7-1.4c-1.1-1.3-0.4-2.8,0.5-3.4
		c1.3-0.8,3.3-0.2,4,1.2c0.1,0.2,0.2,0.5,0.3,0.7c0.1,0.1,0.3,0.3,0.5,0.2c0.1,0,0.3-0.3,0.3-0.4c-0.1-0.7-0.2-1.5-0.3-2.2
		c0-0.2-0.2-0.4-0.4-0.4c-1.8-0.5-3.6-0.7-5.3,0.2c-1.2,0.7-1.9,1.7-1.9,3.1c-0.1,1.8,0.9,3,2.3,4c0.8,0.6,1.6,1.1,2.4,1.6
		c0.4,0.3,0.8,0.7,1.1,1.1c1.1,1.7,0.2,3.9-1.8,4.1c-1.5,0.2-2.6-0.5-3.4-1.8c-0.2-0.4-0.3-0.8-0.6-1.2c-0.1-0.1-0.2-0.2-0.4-0.3
		c0,0-0.1-0.1-0.1-0.1c0,0.1-0.1,0.2-0.2,0.3c-0.1,0.1-0.1,0.2-0.1,0.3c0.1,0.8,0.2,1.5,0.4,2.3c0.1,0.5,0.3,0.7,0.8,0.9
		c0.9,0.3,1.9,0.5,2.8,0.7c1.3-0.1,2.5-0.3,3.5-1.2C261.4,79.4,261.4,76.4,259.3,74.6z"/>
	<path fill="#003E79" d="M252.3,78c0,0-0.1-0.1-0.1-0.1c0,0.1-0.1,0.2-0.2,0.3c0.1-0.1,0.1-0.2,0.2-0.3
		C252.2,77.9,252.3,78,252.3,78z"/>
	<path fill="#003E79" d="M140.7,81c-0.1,0-0.2,0-0.2,0c-0.1,0.1-0.2,0.3-0.2,0.4c0,0.1,0.1,0.3,0.2,0.4c0.2,0.1,0.5,0.1,0.7,0.1
		c2,0,4.1,0,6.1,0c1,0,2,0,3,0c0.2,0,0.6-0.2,0.7-0.4c0.3-0.8,0.6-1.7,0.8-2.6c0-0.1-0.1-0.4-0.2-0.5c-0.2,0-0.5,0-0.6,0.2
		c-0.2,0.3-0.4,0.6-0.5,1c-0.4,0.9-1.1,1.3-2.1,1.2c-0.7,0-1.5,0-2.2,0c-1.3,0-1.7-0.5-1.7-1.7c0-3.2,0-6.5,0-9.7
		c0-1.2,0-1.2,1.3-1.5c0.4-0.1,0.7-0.3,0.5-0.8c-1.9,0-3.9,0-5.8,0c-0.2,0.7,0.3,0.8,0.7,0.8c0.9,0.1,1,0.2,1.1,1.1
		c0,0.3,0.1,0.5,0.1,0.8c0,3.1,0,6.2,0,9.3C142.2,80.7,142.2,80.7,140.7,81z"/>
	<path fill="#003E79" d="M125.7,93.3c0.1,0,0.1-0.1,0.2-0.1c0.1-0.4,0-0.6-0.5-0.6c-1.6,0-3.2,0-4.9,0c-0.3,0-0.6,0-0.6,0.4
		c0,0.2,0.3,0.4,0.5,0.4c1.2,0.3,1.2,0.3,1.3,1.5c0,0.3,0.1,0.5,0.1,0.8c0,2.9,0,5.8,0,8.7c0,1.8,0,1.8-1.8,2.3c0,0,0,0-0.1,0.1
		c-0.2,0.5,0,0.7,0.5,0.7c0.5,0,1.1-0.1,1.6-0.1c1,0,2,0.1,2.9,0.1c0.5,0,0.9,0,0.8-0.8c-0.3-0.1-0.6-0.1-0.8-0.2
		c-0.8-0.2-0.9-0.3-1-1.1c0-0.2,0-0.5,0-0.7c0-3.1,0-6.2,0-9.3C124.1,93.6,124.1,93.6,125.7,93.3z"/>
	<path fill="#003E79" d="M151.3,95.2c0-1.5,0.1-1.5,1.5-1.9c0.2-0.1,0.3-0.3,0.5-0.5c-0.2-0.1-0.4-0.3-0.6-0.3c-0.8,0-1.5,0-2.3,0
		c0,0,0,0,0,0c-0.8,0-1.6,0-2.4,0c-0.1,0-0.2,0.1-0.3,0.1c-0.1,0.1-0.2,0.1-0.3,0.2c0,0,0.1,0.1,0.1,0.1c0.1,0.1,0.2,0.2,0.3,0.2
		c0,0,0.1,0.1,0.1,0.1c1.4,0.4,1.4,0.4,1.4,1.8c0,2.8,0,5.7,0,8.5c0,0.5,0,1,0,1.5c0,1-0.2,1.2-1.1,1.4c-0.1,0-0.3,0-0.4,0.1
		c-0.2,0.1-0.3,0.3-0.4,0.4c0.2,0.1,0.3,0.3,0.5,0.4c0.1,0.1,0.3,0,0.5,0c1.3,0,2.6,0,3.9,0c0.4,0,0.9,0.2,1-0.4
		c0.1-0.6-0.5-0.5-0.9-0.6c-0.8-0.2-1-0.4-1.1-1.2c0-0.2,0-0.4,0-0.6C151.3,101.5,151.3,98.4,151.3,95.2z"/>
	<path fill="#003E79" d="M147.7,93.3c-0.1-0.1-0.2-0.2-0.3-0.2C147.5,93.1,147.6,93.2,147.7,93.3z"/>
	<path fill="#003E79" d="M147.3,92.9c0,0,0.1,0.1,0.1,0.1C147.3,93,147.3,92.9,147.3,92.9L147.3,92.9z"/>
	<path fill="#003E79" d="M215.3,93.3c0.2,0,0.3-0.1,0.5-0.1c0.1-0.6-0.1-0.7-0.6-0.7c-1.5,0-3,0-4.5,0c-0.2,0-0.3,0-0.5,0
		c-0.1,0-0.3,0.2-0.3,0.3c0,0.1,0.1,0.3,0.2,0.4c0.1,0.1,0.3,0.1,0.4,0.1c1.2,0.3,1.3,0.4,1.3,1.6c0,3.1,0,6.3,0,9.4
		c0,0.6,0,1.2-0.3,1.6c-0.2,0.3-0.9,0.4-1.3,0.6c-0.1,0.1-0.3,0.3-0.3,0.4c0,0.1,0.2,0.3,0.4,0.4c0.2,0.1,0.5,0,0.7,0
		c0.8,0,1.6-0.1,2.4-0.1c0.6,0,1.2,0.1,1.8,0.1c0.2,0,0.5-0.2,0.6-0.4c0.1-0.4-0.2-0.4-0.5-0.5c-1.3-0.3-1.4-0.4-1.4-1.8
		c0-3.2,0-6.5,0-9.7C213.9,93.7,214,93.6,215.3,93.3z"/>
	<path fill="#003E79" d="M177.1,93.4c0.3-0.1,0.5-0.1,0.7-0.2c0.1-0.6-0.2-0.7-0.7-0.7c-1.4,0-2.9,0-4.3,0c-0.3,0-0.9-0.2-0.9,0.4
		c0,0.6,0.5,0.4,0.8,0.5c0.8,0.2,0.9,0.3,1,1.1c0,0.3,0,0.5,0,0.8c0,3.1,0,6.1,0,9.2c0,1.7,0,1.7-1.8,2.1c-0.2,0.5-0.1,0.7,0.4,0.8
		c0.2,0,0.3,0,0.5,0c1.3,0,2.6,0,3.9,0c0.2,0,0.5,0,0.7-0.1c0.1-0.1,0.3-0.3,0.3-0.4c0-0.1-0.2-0.3-0.3-0.3c-0.1-0.1-0.3,0-0.4-0.1
		c-1-0.3-1.1-0.3-1.2-1.4c0-0.3,0-0.5,0-0.8c0-2.6,0-5.3,0-7.9c0-0.6,0-1.2,0-1.7C176,93.7,176.1,93.6,177.1,93.4z"/>
</g>
</svg>
