<?xml version="1.0" encoding="utf-8"?>
<!-- Generator: Adobe Illustrator 24.0.0, SVG Export Plug-In . SVG Version: 6.00 Build 0)  -->
<svg version="1.1"
	 id="svg3466" xmlns:cc="http://creativecommons.org/ns#" xmlns:dc="http://purl.org/dc/elements/1.1/" xmlns:rdf="http://www.w3.org/1999/02/22-rdf-syntax-ns#"
	 xmlns="http://www.w3.org/2000/svg" xmlns:xlink="http://www.w3.org/1999/xlink" x="0px" y="0px" viewBox="0 0 640 480"
	 style="enable-background:new 0 0 640 480;" xml:space="preserve">
<style type="text/css">
	.st0{fill:#0000CC;}
	.st1{fill:none;stroke:#FFFFFF;stroke-width:20;}
</style>
<g id="layer1" transform="translate(0,-452.36218)">
	<g id="g3388">
		<rect id="rect4145" y="452.4" class="st0" width="640" height="480"/>
		<path id="path4174" class="st1" d="M129.8,692.4h380.5 M320,882.4c58.4-37.2,95-110.3,95-190s-36.6-152.8-95-190 M454.3,558
			c-22,23.8-75.2,39.3-134.3,39.3S207.7,581.8,185.7,558 M320,882.4c-58.4-37.2-95-110.3-95-190s36.6-152.8,95-190 M320,502.1v380.5
			 M454.3,826.7c-22-23.8-75.2-39.3-134.3-39.3s-112.3,15.6-134.3,39.3 M510,692.4c0,104.9-85.1,190-190,190l0,0
			c-104.9,0-190-85.1-190-190l0,0c0-104.9,85.1-190,190-190S510,587.4,510,692.4L510,692.4z"/>
	</g>
</g>
</svg>
