<?xml version="1.0" encoding="utf-8"?>
<!-- Generator: Adobe Illustrator 19.1.0, SVG Export Plug-In . SVG Version: 6.00 Build 0)  -->
<svg version="1.1" id="Layer_1" xmlns="http://www.w3.org/2000/svg" xmlns:xlink="http://www.w3.org/1999/xlink" x="0px" y="0px"
	 viewBox="840 -2510.7 2400 3046.7" style="enable-background:new 840 -2510.7 2400 3046.7;" xml:space="preserve">
<style type="text/css">
	.st0{fill:#FFFFFF;}
	.st1{opacity:0.2;fill:#FFFFFF;}
	.st2{opacity:0.35;fill:#FFFFFF;}
	.st3{opacity:0.28;fill:#FFFFFF;}
	.st4{opacity:0.2;}
</style>
<g id="Layer_2">
</g>
<g>
	<polygon class="st0" points="3240,535 3240,294.3 2040,535 	"/>
	<polygon class="st0" points="840,535 2040,535 840,294.3 	"/>
</g>
<polygon class="st1" points="2328.7,-201.9 2328.7,-178.9 2510.7,-271.6 2510.7,-278.1 2328.7,-278.1 2328.7,-210.2 2331.9,-203.7 
	"/>
<polygon class="st1" points="1274.2,-119.1 1482.5,-119.1 1482.5,-382.9 1274.2,-277 "/>
<polygon class="st2" points="2628.1,-409.6 2628.1,-408.9 2735.9,-378.1 2740.3,-378.1 2740.3,-377 2816.8,-355.3 2816.8,-454.3 
	2530.2,-535.8 2530.2,-436.7 2625.7,-409.6 "/>
<polygon class="st1" points="1254.7,-297.6 1271.6,-297.6 1344.1,-334.5 1344.1,-475.7 1131,-475.7 1131,-297.2 1254.7,-297.2 "/>
<polygon class="st1" points="2510.7,-421.9 2328.7,-473.6 2328.7,-297.6 2510.7,-297.6 "/>
<polygon class="st3" points="2510.7,-442.1 2510.7,-588.6 2328.7,-588.6 2328.7,-494 "/>
<polygon class="st1" points="1254.7,-44.6 1131,-79.8 1131,198.8 1254.7,233.9 "/>
<polygon class="st1" points="2816.8,-474.7 2816.8,-588.6 2530.2,-588.6 2530.2,-556 "/>
<polygon class="st1" points="2973.1,203.6 2973.1,-326.7 2836.4,-326.7 2836.4,164.7 "/>
<polygon class="st1" points="2452.8,-36.8 2328.7,-36.8 2328.7,199.9 2452.8,235 "/>
<rect x="1131" y="-277.7" class="st3" width="123.7" height="158.6"/>
<polygon class="st1" points="1482.5,59.1 1482.5,20.2 1274.2,-39 1274.2,59.1 "/>
<polygon class="st1" points="2530.2,-416.3 2530.2,-260.7 2530.7,-259.9 2328.7,-157 2328.7,-56.4 2452.8,-56.4 2452.8,-57 
	2472.1,-57 2472.1,61.2 2608.6,99.9 2608.6,-394.2 "/>
<polygon class="st1" points="1373.4,-31.2 1482.5,-0.2 1482.5,-99.5 1373.4,-99.5 "/>
<rect x="2992.6" y="-588.6" class="st1" width="249.1" height="318.9"/>
<polygon class="st1" points="838.1,-588.6 838.1,255.9 922.8,273.9 922.8,-588.6 "/>
<polygon class="st1" points="1132.8,-99.5 1353.9,-36.6 1353.9,-99.5 "/>
<polygon class="st1" points="1274.2,78.6 1274.2,239.4 1482.5,298.6 1482.5,206.2 1482.5,78.6 "/>
<polygon class="st3" points="2628.1,-106.5 2628.1,105.5 2720.7,131.8 2720.7,-80.2 "/>
<polygon class="st1" points="2740.3,137.4 2816.8,159.1 2816.8,-334.9 2740.3,-356.6 "/>
<polygon class="st1" points="2628.1,-126.9 2720.7,-100.4 2720.7,-362.3 2628.1,-388.5 "/>
<polygon class="st1" points="1502.1,16.8 1502.1,196.2 2309.2,-213.9 2309.2,-251 1502.1,-251 1502.1,5.5 1505.1,6.3 "/>
<polygon class="st1" points="2472.1,81.4 2472.1,240.7 2698.8,305.1 2697.7,309.2 2702.9,309.2 2702.9,371.1 2816.8,346.5 
	2816.8,179.5 "/>
<polygon class="st1" points="1111.1,-297.2 1111.5,-297.2 1111.5,-369.2 942.3,-369.2 942.3,145 1111.5,145 1111.5,-277.7 
	1111.1,-277.7 "/>
<polygon class="st3" points="1414.2,299.5 1414.2,378.9 1482.5,393.6 1482.5,319 "/>
<rect x="942.3" y="-588.6" class="st1" width="169.2" height="199.8"/>
<polygon class="st2" points="1131,219 1131,318.3 1394.7,374.7 1394.7,294 "/>
<polygon class="st1" points="942.3,164.5 942.3,278 1111.5,314.2 1111.5,164.5 "/>
<polygon class="st1" points="2309.2,-57.4 2309.2,-193.3 1502.1,217 1502.1,302.9 1505.1,303.8 1502.1,314.4 1502.1,396.4 
	2039.9,511.4 2309.2,453.9 2309.2,-37.9 "/>
<polygon class="st1" points="1765.7,-268.6 1765.7,-352.2 1785.2,-352.2 1785.2,-268.6 2309.2,-268.6 2309.2,-352.2 1502.1,-352.2 
	1502.1,-268.6 "/>
<polygon class="st3" points="1344.1,-495.3 1349.1,-495.3 1363.6,-495.3 1363.6,-344.5 1482.5,-404.8 1482.5,-588.6 1131,-588.6 
	1131,-495.3 "/>
<polygon class="st1" points="2992.6,309 3241.7,255.9 3241.7,-250.1 2992.6,-250.1 "/>
<polygon class="st1" points="2328.7,220.1 2328.7,450.9 2683.4,375.2 2683.4,320.9 "/>
<polygon class="st2" points="2836.4,184.9 2836.4,342.4 2973.1,313.1 2973.1,223.7 "/>
<polyline class="st1" points="1502.1,-382.9 2130,-382.9 2130,-588.6 1502.1,-588.6 "/>
<rect x="2154" y="-588.6" class="st1" width="155.2" height="203"/>
<rect x="2836.4" y="-588.6" class="st1" width="136.7" height="203"/>
<g class="st4">
	<polygon class="st1" points="3238,-1778.9 3238,-2019.6 2038,-1778.9 	"/>
	<polygon class="st1" points="838,-1778.9 2038,-1778.9 838,-2019.6 	"/>
</g>
<polygon class="st1" points="2326.7,-2515.8 2326.7,-2492.8 2508.7,-2585.4 2508.7,-2592 2326.7,-2592 2326.7,-2524 2329.9,-2517.5 
	"/>
<polygon class="st1" points="1272.2,-2432.9 1480.5,-2432.9 1480.5,-2696.8 1272.2,-2590.9 "/>
<polygon class="st1" points="2626.1,-2723.4 2626.1,-2722.8 2733.9,-2692 2738.2,-2692 2738.2,-2690.9 2814.8,-2669.2 
	2814.8,-2768.1 2528.2,-2849.7 2528.2,-2750.6 2623.7,-2723.4 "/>
<polygon class="st1" points="1252.7,-2611.5 1269.6,-2611.5 1342.1,-2648.4 1342.1,-2789.6 1129,-2789.6 1129,-2611.1 
	1252.7,-2611.1 "/>
<polygon class="st1" points="2508.7,-2735.8 2326.7,-2787.4 2326.7,-2611.5 2508.7,-2611.5 "/>
<polygon class="st1" points="2508.7,-2756 2508.7,-2902.4 2326.7,-2902.4 2326.7,-2807.8 "/>
<polygon class="st1" points="1252.7,-2358.5 1129,-2393.7 1129,-2115.1 1252.7,-2079.9 "/>
<polygon class="st1" points="2814.8,-2788.5 2814.8,-2902.4 2528.2,-2902.4 2528.2,-2869.9 "/>
<polygon class="st3" points="2971,-2110.3 2971,-2640.6 2834.4,-2640.6 2834.4,-2149.1 "/>
<polygon class="st1" points="2450.8,-2350.7 2326.7,-2350.7 2326.7,-2114 2450.8,-2078.8 "/>
<rect x="1129" y="-2591.5" class="st1" width="123.7" height="158.6"/>
<polygon class="st1" points="1480.5,-2254.8 1480.5,-2293.6 1272.2,-2352.9 1272.2,-2254.8 "/>
<polygon class="st3" points="2528.2,-2730.2 2528.2,-2574.6 2528.7,-2573.7 2326.7,-2470.9 2326.7,-2370.2 2450.8,-2370.2 
	2450.8,-2370.9 2470.1,-2370.9 2470.1,-2252.6 2606.5,-2214 2606.5,-2708 "/>
<polygon class="st1" points="1371.4,-2345.1 1480.5,-2314 1480.5,-2413.4 1371.4,-2413.4 "/>
<rect x="2990.6" y="-2902.4" class="st1" width="249.1" height="318.9"/>
<polygon class="st1" points="836.1,-2902.4 836.1,-2058 920.7,-2040 920.7,-2902.4 "/>
<polygon class="st1" points="1130.8,-2413.4 1351.8,-2350.5 1351.8,-2413.4 "/>
<polygon class="st1" points="1272.2,-2235.3 1272.2,-2074.5 1480.5,-2015.3 1480.5,-2107.7 1480.5,-2235.3 "/>
<polygon class="st1" points="2626.1,-2420.3 2626.1,-2208.4 2718.7,-2182.1 2718.7,-2394.1 "/>
<polygon class="st1" points="2738.2,-2176.5 2814.8,-2154.8 2814.8,-2648.8 2738.2,-2670.5 "/>
<polygon class="st1" points="2626.1,-2440.7 2718.7,-2414.3 2718.7,-2676.1 2626.1,-2702.4 "/>
<polygon class="st1" points="1500,-2297.1 1500,-2117.7 2307.1,-2527.7 2307.1,-2564.8 1500,-2564.8 1500,-2308.4 1503.1,-2307.5 
	"/>
<polygon class="st1" points="2470.1,-2232.5 2470.1,-2073.2 2696.8,-2008.8 2695.7,-2004.6 2700.9,-2004.6 2700.9,-1942.8 
	2814.8,-1967.3 2814.8,-2134.4 "/>
<polygon class="st1" points="1109.1,-2611.1 1109.5,-2611.1 1109.5,-2683.1 940.3,-2683.1 940.3,-2168.9 1109.5,-2168.9 
	1109.5,-2591.5 1109.1,-2591.5 "/>
<polygon class="st1" points="1412.2,-2014.4 1412.2,-1935 1480.5,-1920.2 1480.5,-1994.9 "/>
<rect x="940.3" y="-2902.4" class="st1" width="169.2" height="199.8"/>
<polygon class="st3" points="1129,-2094.9 1129,-1995.5 1392.6,-1939.1 1392.6,-2019.8 "/>
<polygon class="st1" points="940.3,-2149.4 940.3,-2035.9 1109.5,-1999.7 1109.5,-2149.4 "/>
<polygon class="st1" points="2307.1,-2371.3 2307.1,-2507.1 1500,-2096.8 1500,-2010.9 1503.1,-2010.1 1500,-1999.4 1500,-1917.4 
	2037.9,-1802.4 2307.1,-1859.9 2307.1,-2351.8 "/>
<polygon class="st1" points="1763.6,-2582.5 1763.6,-2666 1783.2,-2666 1783.2,-2582.5 2307.1,-2582.5 2307.1,-2666 1500,-2666 
	1500,-2582.5 "/>
<polygon class="st1" points="1342.1,-2809.1 1347.1,-2809.1 1361.6,-2809.1 1361.6,-2658.3 1480.5,-2718.7 1480.5,-2902.4 
	1129,-2902.4 1129,-2809.1 "/>
<polygon class="st1" points="2990.6,-2004.9 3239.6,-2058 3239.6,-2564 2990.6,-2564 "/>
<polygon class="st3" points="2326.7,-2093.8 2326.7,-1863 2681.4,-1938.7 2681.4,-1992.9 "/>
<polygon class="st1" points="2834.4,-2129 2834.4,-1971.4 2971,-2000.7 2971,-2090.1 "/>
<polyline class="st1" points="1500,-2696.8 2128,-2696.8 2128,-2902.4 1500,-2902.4 "/>
<rect x="2152" y="-2902.4" class="st1" width="155.2" height="203"/>
<rect x="2834.4" y="-2902.4" class="st1" width="136.7" height="203"/>
<g class="st4">
	<polygon class="st1" points="839.8,-1737.6 839.8,-1496.9 2039.8,-1737.6 	"/>
	<polygon class="st1" points="3239.8,-1737.6 2039.8,-1737.6 3239.8,-1496.9 	"/>
</g>
<polygon class="st1" points="1751.1,-1000.6 1751.1,-1023.6 1569.1,-931 1569.1,-924.5 1751.1,-924.5 1751.1,-992.4 1747.9,-998.9 
	"/>
<polygon class="st1" points="2805.6,-1083.5 2597.3,-1083.5 2597.3,-819.7 2805.6,-925.6 "/>
<polygon class="st1" points="1451.7,-793 1451.7,-793.6 1343.9,-824.5 1339.5,-824.5 1339.5,-825.5 1263,-847.2 1263,-748.3 
	1549.6,-666.7 1549.6,-765.9 1454.1,-793 "/>
<polygon class="st3" points="2825.1,-904.9 2808.2,-904.9 2735.7,-868.1 2735.7,-726.8 2948.8,-726.8 2948.8,-905.4 2825.1,-905.4 
	"/>
<polygon class="st1" points="1569.1,-780.6 1751.1,-729 1751.1,-904.9 1569.1,-904.9 "/>
<polygon class="st1" points="1569.1,-760.4 1569.1,-614 1751.1,-614 1751.1,-708.6 "/>
<polygon class="st1" points="2825.1,-1157.9 2948.8,-1122.8 2948.8,-1401.4 2825.1,-1436.5 "/>
<polygon class="st1" points="1263,-727.9 1263,-614 1549.6,-614 1549.6,-646.5 "/>
<polygon class="st1" points="1106.7,-1406.1 1106.7,-875.9 1243.4,-875.9 1243.4,-1367.3 "/>
<polygon class="st1" points="1627,-1165.7 1751.1,-1165.7 1751.1,-1402.4 1627,-1437.6 "/>
<rect x="2825.1" y="-1083.5" class="st1" width="123.7" height="158.6"/>
<polygon class="st1" points="2597.3,-1261.6 2597.3,-1222.8 2805.6,-1163.6 2805.6,-1261.6 "/>
<polygon class="st1" points="1549.6,-786.3 1549.6,-941.8 1549.1,-942.7 1751.1,-1045.5 1751.1,-1146.2 1627,-1146.2 1627,-1145.6 
	1607.7,-1145.6 1607.7,-1263.8 1471.2,-1302.4 1471.2,-808.4 "/>
<polygon class="st3" points="2706.4,-1171.4 2597.3,-1202.4 2597.3,-1103 2706.4,-1103 "/>
<rect x="838.1" y="-932.9" class="st2" width="249.1" height="318.9"/>
<polygon class="st1" points="3241.7,-614 3241.7,-1458.4 3157,-1476.4 3157,-614 "/>
<polygon class="st1" points="2947,-1103 2725.9,-1166 2725.9,-1103 "/>
<polygon class="st1" points="2805.6,-1281.2 2805.6,-1441.9 2597.3,-1501.2 2597.3,-1408.7 2597.3,-1281.2 "/>
<polygon class="st1" points="1451.7,-1096.1 1451.7,-1308.1 1359.1,-1334.3 1359.1,-1122.3 "/>
<polygon class="st1" points="1339.5,-1340 1263,-1361.7 1263,-867.6 1339.5,-845.9 "/>
<polygon class="st3" points="1451.7,-1075.7 1359.1,-1102.2 1359.1,-840.3 1451.7,-814 "/>
<polygon class="st1" points="2577.8,-1219.3 2577.8,-1398.8 1770.7,-988.7 1770.7,-951.6 2577.8,-951.6 2577.8,-1208 
	2574.7,-1208.9 "/>
<polygon class="st1" points="1607.7,-1284 1607.7,-1443.2 1381,-1507.7 1382.1,-1511.8 1376.9,-1511.8 1376.9,-1573.6 1263,-1549.1 
	1263,-1382 "/>
<polygon class="st1" points="2968.7,-905.4 2968.3,-905.4 2968.3,-833.3 3137.5,-833.3 3137.5,-1347.6 2968.3,-1347.6 
	2968.3,-924.9 2968.7,-924.9 "/>
<polygon class="st1" points="2665.6,-1502 2665.6,-1581.4 2597.3,-1596.2 2597.3,-1521.6 "/>
<rect x="2968.3" y="-813.8" class="st1" width="169.2" height="199.8"/>
<polygon class="st3" points="2948.8,-1421.5 2948.8,-1520.9 2685.1,-1577.3 2685.1,-1496.6 "/>
<polygon class="st1" points="3137.5,-1367.1 3137.5,-1480.5 2968.3,-1516.8 2968.3,-1367.1 "/>
<polygon class="st1" points="1770.7,-1145.1 1770.7,-1009.3 2577.8,-1419.6 2577.8,-1505.5 2574.7,-1506.4 2577.8,-1517 
	2577.8,-1599 2039.9,-1714 1770.7,-1656.5 1770.7,-1164.7 "/>
<polygon class="st1" points="2314.1,-933.9 2314.1,-850.4 2294.6,-850.4 2294.6,-933.9 1770.7,-933.9 1770.7,-850.4 2577.8,-850.4 
	2577.8,-933.9 "/>
<polygon class="st1" points="2735.7,-707.3 2730.7,-707.3 2716.2,-707.3 2716.2,-858.1 2597.3,-797.8 2597.3,-614 2948.8,-614 
	2948.8,-707.3 "/>
<polygon class="st1" points="1087.2,-1511.6 838.1,-1458.4 838.1,-952.5 1087.2,-952.5 "/>
<polygon class="st1" points="1751.1,-1422.6 1751.1,-1653.5 1396.4,-1577.7 1396.4,-1523.5 "/>
<polygon class="st3" points="1243.4,-1387.5 1243.4,-1545 1106.7,-1515.7 1106.7,-1426.3 "/>
<polyline class="st1" points="2577.8,-819.7 1949.8,-819.7 1949.8,-614 2577.8,-614 "/>
<rect x="1770.7" y="-817" class="st1" width="155.2" height="203"/>
<rect x="1106.7" y="-817" class="st1" width="136.7" height="203"/>
</svg>
