<?xml version="1.0" encoding="utf-8"?>
<!-- Generator: Adobe Illustrator 26.3.1, SVG Export Plug-In . SVG Version: 6.00 Build 0)  -->
<svg version="1.1" id="Vrstva_1" xmlns="http://www.w3.org/2000/svg" xmlns:xlink="http://www.w3.org/1999/xlink" x="0px" y="0px"
	 viewBox="0 0 930.95 476.19" style="enable-background:new 0 0 930.95 476.19;" xml:space="preserve">
<style type="text/css">
	.st0{clip-path:url(#SVGID_00000114776196866237096650000009707827145420329126_);fill:#9CC653;}
	.st1{clip-path:url(#SVGID_00000114776196866237096650000009707827145420329126_);fill:#E52A24;}
	.st2{clip-path:url(#SVGID_00000114776196866237096650000009707827145420329126_);fill:#ED772B;}
	.st3{clip-path:url(#SVGID_00000114776196866237096650000009707827145420329126_);fill:#FEE819;}
	.st4{clip-path:url(#SVGID_00000114776196866237096650000009707827145420329126_);fill:#5EC2EF;}
	.st5{clip-path:url(#SVGID_00000114776196866237096650000009707827145420329126_);fill:#FFFFFF;}
</style>
<g>
	<defs>
		<rect id="SVGID_1_" width="930.95" height="476.19"/>
	</defs>
	<clipPath id="SVGID_00000164489320376374767170000014654664311805552318_">
		<use xlink:href="#SVGID_1_"  style="overflow:visible;"/>
	</clipPath>
	<path style="clip-path:url(#SVGID_00000164489320376374767170000014654664311805552318_);fill:#9CC653;" d="M138.87,138.41h5.36
		h174.68c-29.2-35.55-73.81-58.37-123.78-58.37c-19.83,0-38.72,3.58-56.13,10.08v48.28H138.87z"/>
	<path style="clip-path:url(#SVGID_00000164489320376374767170000014654664311805552318_);fill:#E52A24;" d="M298.55,243.34H35.59
		c0.94,29.71,10.31,57.3,25.58,80.66h237.37V243.34z"/>
	<path style="clip-path:url(#SVGID_00000164489320376374767170000014654664311805552318_);fill:#ED772B;" d="M327.35,149.82H230.9
		v82.11h123.51C353.2,201.55,343.42,173.43,327.35,149.82"/>
	<path style="clip-path:url(#SVGID_00000164489320376374767170000014654664311805552318_);fill:#FEE819;" d="M310.21,243.34v92.2
		h-11.53H139.01v50.54c17.41,6.51,36.43,10.08,56.12,10.08c86.27,0,156.6-67.92,159.41-152.68h-44.33V243.34z"/>
	<path style="clip-path:url(#SVGID_00000164489320376374767170000014654664311805552318_);fill:#5EC2EF;" d="M127.35,231.93V95.03
		C74.84,119.44,38,171.3,35.72,231.93H127.35z"/>
	<polygon style="clip-path:url(#SVGID_00000164489320376374767170000014654664311805552318_);fill:#FFFFFF;" points="490.38,209.48 
		490.38,144.34 464.77,192.85 454.28,192.85 428.67,144.34 428.67,209.48 409.36,209.48 409.36,111.08 430.07,111.08 459.46,167.07 
		489.12,111.08 509.69,111.08 509.69,209.48 	"/>
	<path style="clip-path:url(#SVGID_00000164489320376374767170000014654664311805552318_);fill:#FFFFFF;" d="M528.58,108.31h18.75
		v18.43h-18.75V108.31z M528.58,136.86h18.75v72.62h-18.75V136.86z"/>
	<path style="clip-path:url(#SVGID_00000164489320376374767170000014654664311805552318_);fill:#FFFFFF;" d="M591.98,210.86
		c-6.16,0-12.18-0.97-18.05-2.91c-5.88-1.94-10.91-4.71-15.11-8.32l7-11.64c4.48,3.14,8.84,5.52,13.08,7.14
		c4.24,1.62,8.47,2.43,12.67,2.43c3.73,0,6.67-0.69,8.82-2.08c2.15-1.39,3.22-3.37,3.22-5.96c0-2.58-1.26-4.48-3.78-5.68
		c-2.52-1.2-6.62-2.59-12.32-4.16c-4.76-1.29-8.82-2.54-12.17-3.74c-3.36-1.2-6.07-2.56-8.12-4.09c-2.05-1.52-3.55-3.28-4.48-5.27
		c-0.93-1.99-1.4-4.37-1.4-7.14c0-3.69,0.72-7.02,2.17-9.98c1.45-2.96,3.47-5.47,6.09-7.55c2.61-2.08,5.67-3.67,9.17-4.78
		c3.5-1.11,7.3-1.66,11.41-1.66c5.5,0,10.66,0.79,15.46,2.36c4.8,1.57,9.21,4.11,13.22,7.62l-7.56,11.23
		c-3.73-2.77-7.35-4.8-10.85-6.1c-3.5-1.29-6.98-1.94-10.43-1.94c-3.17,0-5.83,0.65-7.98,1.94c-2.15,1.3-3.22,3.37-3.22,6.24
		c0,1.3,0.26,2.36,0.77,3.19c0.51,0.83,1.33,1.57,2.45,2.22c1.12,0.65,2.59,1.27,4.41,1.87c1.82,0.6,4.08,1.23,6.79,1.87
		c5.04,1.3,9.35,2.59,12.95,3.88c3.59,1.29,6.53,2.77,8.82,4.43c2.28,1.66,3.96,3.58,5.04,5.75c1.07,2.17,1.61,4.78,1.61,7.83
		c0,7.11-2.66,12.73-7.98,16.84C608.35,208.81,601.12,210.86,591.98,210.86"/>
	<path style="clip-path:url(#SVGID_00000164489320376374767170000014654664311805552318_);fill:#FFFFFF;" d="M661.53,210.86
		c-6.16,0-12.17-0.97-18.05-2.91c-5.88-1.94-10.92-4.71-15.11-8.32l7-11.64c4.48,3.14,8.84,5.52,13.08,7.14
		c4.24,1.62,8.47,2.43,12.67,2.43c3.73,0,6.67-0.69,8.82-2.08c2.15-1.39,3.22-3.37,3.22-5.96c0-2.58-1.26-4.48-3.78-5.68
		c-2.52-1.2-6.62-2.59-12.32-4.16c-4.76-1.29-8.82-2.54-12.17-3.74c-3.36-1.2-6.07-2.56-8.12-4.09c-2.05-1.52-3.55-3.28-4.48-5.27
		c-0.93-1.99-1.4-4.37-1.4-7.14c0-3.69,0.72-7.02,2.17-9.98c1.45-2.96,3.47-5.47,6.09-7.55c2.61-2.08,5.67-3.67,9.17-4.78
		c3.5-1.11,7.3-1.66,11.41-1.66c5.5,0,10.66,0.79,15.46,2.36c4.8,1.57,9.21,4.11,13.22,7.62l-7.56,11.23
		c-3.73-2.77-7.35-4.8-10.85-6.1c-3.5-1.29-6.97-1.94-10.43-1.94c-3.17,0-5.83,0.65-7.98,1.94c-2.15,1.3-3.22,3.37-3.22,6.24
		c0,1.3,0.26,2.36,0.77,3.19c0.51,0.83,1.33,1.57,2.45,2.22c1.12,0.65,2.59,1.27,4.41,1.87c1.82,0.6,4.08,1.23,6.79,1.87
		c5.04,1.3,9.35,2.59,12.94,3.88c3.59,1.29,6.53,2.77,8.82,4.43c2.28,1.66,3.96,3.58,5.04,5.75c1.07,2.17,1.61,4.78,1.61,7.83
		c0,7.11-2.66,12.73-7.98,16.84C677.9,208.81,670.67,210.86,661.53,210.86"/>
	<path style="clip-path:url(#SVGID_00000164489320376374767170000014654664311805552318_);fill:#FFFFFF;" d="M703.37,108.31h18.75
		v18.43h-18.75V108.31z M703.37,136.86h18.75v72.62h-18.75V136.86z"/>
	<path style="clip-path:url(#SVGID_00000164489320376374767170000014654664311805552318_);fill:#FFFFFF;" d="M807.2,209.48h-18.75
		v-40.74c0-5.82-1.03-10.07-3.08-12.75c-2.05-2.68-4.9-4.02-8.54-4.02c-1.87,0-3.78,0.37-5.74,1.11c-1.96,0.74-3.8,1.78-5.53,3.12
		c-1.73,1.34-3.29,2.93-4.69,4.78c-1.4,1.85-2.43,3.88-3.08,6.1v42.41h-18.75v-72.62h16.93v13.44c2.7-4.62,6.62-8.22,11.76-10.81
		c5.13-2.58,10.92-3.88,17.35-3.88c4.57,0,8.3,0.83,11.2,2.49c2.89,1.66,5.13,3.83,6.72,6.51c1.59,2.68,2.68,5.73,3.29,9.15
		c0.6,3.42,0.91,6.88,0.91,10.39V209.48z"/>
	<path style="clip-path:url(#SVGID_00000164489320376374767170000014654664311805552318_);fill:#FFFFFF;" d="M852.26,209.89
		c-4.95,0-9.42-0.97-13.43-2.91c-4.01-1.94-7.49-4.6-10.43-7.97c-2.94-3.37-5.2-7.28-6.79-11.71c-1.59-4.44-2.38-9.15-2.38-14.14
		c0-5.27,0.84-10.16,2.52-14.69c1.68-4.53,4.01-8.5,7-11.92c2.99-3.42,6.58-6.1,10.78-8.04c4.2-1.94,8.82-2.91,13.85-2.91
		c5.69,0,10.68,1.27,14.97,3.81c4.29,2.54,7.84,5.94,10.64,10.19v-12.75h16.37v69.15c0,5.36-1.03,10.16-3.08,14.41
		c-2.05,4.25-4.88,7.85-8.47,10.81c-3.59,2.96-7.89,5.22-12.88,6.79c-4.99,1.57-10.43,2.36-16.3,2.36c-8.02,0-14.76-1.32-20.22-3.95
		s-10.14-6.35-14.06-11.16l10.22-9.84c2.8,3.42,6.32,6.1,10.57,8.04c4.24,1.94,8.75,2.91,13.5,2.91c2.89,0,5.67-0.39,8.33-1.18
		c2.66-0.79,5.01-2.01,7.07-3.67c2.05-1.66,3.66-3.79,4.83-6.37c1.16-2.59,1.75-5.64,1.75-9.15v-9.15
		c-2.43,4.16-5.83,7.37-10.22,9.63C862.01,208.76,857.3,209.89,852.26,209.89 M858.56,195.06c2.05,0,4.01-0.32,5.88-0.97
		c1.86-0.65,3.59-1.52,5.18-2.63c1.58-1.11,2.98-2.4,4.2-3.88c1.21-1.48,2.14-3.05,2.8-4.71v-17.32c-1.68-4.25-4.32-7.67-7.91-10.25
		c-3.59-2.59-7.35-3.88-11.27-3.88c-2.89,0-5.51,0.62-7.84,1.87c-2.33,1.25-4.34,2.91-6.02,4.99c-1.68,2.08-2.96,4.46-3.85,7.14
		c-0.89,2.68-1.33,5.45-1.33,8.32c0,2.96,0.51,5.73,1.54,8.32c1.03,2.59,2.45,4.85,4.27,6.79c1.82,1.94,3.94,3.46,6.37,4.57
		C853.01,194.51,855.67,195.06,858.56,195.06"/>
	<polygon style="clip-path:url(#SVGID_00000164489320376374767170000014654664311805552318_);fill:#FFFFFF;" points="490.38,337.94 
		490.38,272.81 464.77,321.31 454.28,321.31 428.67,272.81 428.67,337.94 409.36,337.94 409.36,239.55 430.07,239.55 459.46,295.53 
		489.12,239.55 509.69,239.55 509.69,337.94 	"/>
	<path style="clip-path:url(#SVGID_00000164489320376374767170000014654664311805552318_);fill:#FFFFFF;" d="M548.6,339.33
		c-3.55,0-6.86-0.58-9.94-1.73c-3.08-1.16-5.74-2.77-7.98-4.85c-2.24-2.08-3.99-4.5-5.25-7.27c-1.26-2.77-1.89-5.82-1.89-9.15
		c0-3.42,0.77-6.58,2.31-9.49s3.68-5.38,6.44-7.41c2.75-2.03,6.04-3.62,9.87-4.78c3.82-1.16,8.02-1.73,12.6-1.73
		c3.26,0,6.46,0.28,9.59,0.83c3.12,0.55,5.9,1.34,8.33,2.36v-4.16c0-4.8-1.38-8.5-4.13-11.09c-2.75-2.59-6.84-3.88-12.24-3.88
		c-3.92,0-7.75,0.69-11.48,2.08c-3.73,1.39-7.56,3.42-11.47,6.1l-5.74-11.78c9.42-6.19,19.59-9.28,30.51-9.28
		c10.54,0,18.73,2.56,24.56,7.69c5.83,5.13,8.75,12.54,8.75,22.24v22.59c0,1.94,0.35,3.33,1.05,4.16c0.7,0.83,1.84,1.29,3.43,1.39
		v15.8c-3.17,0.65-5.92,0.97-8.26,0.97c-3.55,0-6.28-0.79-8.19-2.35c-1.91-1.57-3.1-3.65-3.57-6.24l-0.42-4.02
		c-3.27,4.25-7.23,7.48-11.9,9.7C558.9,338.22,553.91,339.33,548.6,339.33 M553.91,325.75c3.17,0,6.18-0.55,9.03-1.66
		c2.84-1.11,5.06-2.59,6.65-4.43c2.05-1.57,3.08-3.33,3.08-5.27v-8.32c-2.24-0.83-4.67-1.5-7.28-2.01
		c-2.61-0.51-5.13-0.76-7.56-0.76c-4.85,0-8.82,1.09-11.9,3.26c-3.08,2.17-4.62,4.92-4.62,8.25c0,3.14,1.21,5.75,3.64,7.83
		C547.38,324.71,550.37,325.75,553.91,325.75"/>
	<path style="clip-path:url(#SVGID_00000164489320376374767170000014654664311805552318_);fill:#FFFFFF;" d="M652.85,339.33
		c-5.78,0-10.82-1.27-15.11-3.81c-4.29-2.54-7.65-5.98-10.08-10.33v42.27h-18.75V265.32h16.37v12.47c2.71-4.25,6.2-7.6,10.5-10.05
		c4.29-2.45,9.24-3.67,14.83-3.67c4.94,0,9.51,0.99,13.71,2.98c4.2,1.99,7.81,4.67,10.85,8.04c3.03,3.37,5.41,7.35,7.14,11.92
		c1.72,4.57,2.59,9.4,2.59,14.48c0,5.27-0.79,10.21-2.38,14.83c-1.59,4.62-3.8,8.64-6.65,12.06c-2.85,3.42-6.23,6.1-10.15,8.04
		C661.81,338.36,657.51,339.33,652.85,339.33 M646.55,323.53c2.8,0,5.39-0.6,7.77-1.8c2.38-1.2,4.41-2.82,6.09-4.85
		c1.68-2.03,2.98-4.39,3.92-7.07c0.93-2.68,1.4-5.45,1.4-8.31c0-3.05-0.51-5.89-1.54-8.52c-1.03-2.63-2.45-4.92-4.27-6.86
		c-1.82-1.94-3.97-3.46-6.44-4.57c-2.47-1.11-5.16-1.66-8.05-1.66c-1.77,0-3.59,0.3-5.46,0.9c-1.87,0.6-3.59,1.46-5.18,2.56
		c-1.59,1.11-3.01,2.4-4.27,3.88c-1.26,1.48-2.22,3.1-2.87,4.85v17.05c1.68,4.16,4.24,7.6,7.7,10.32
		C638.81,322.17,642.54,323.53,646.55,323.53"/>
	<path style="clip-path:url(#SVGID_00000164489320376374767170000014654664311805552318_);fill:#FFFFFF;" d="M725.34,339.33
		c-6.16,0-12.17-0.97-18.05-2.91c-5.88-1.94-10.92-4.71-15.11-8.32l7-11.64c4.48,3.14,8.84,5.52,13.08,7.14
		c4.24,1.62,8.47,2.42,12.67,2.42c3.73,0,6.67-0.69,8.82-2.08c2.15-1.39,3.22-3.37,3.22-5.96c0-2.59-1.26-4.48-3.78-5.68
		s-6.62-2.59-12.32-4.16c-4.76-1.29-8.82-2.54-12.17-3.74c-3.36-1.2-6.07-2.56-8.12-4.09c-2.05-1.52-3.55-3.28-4.48-5.26
		c-0.93-1.99-1.4-4.37-1.4-7.14c0-3.69,0.72-7.02,2.17-9.98c1.45-2.96,3.47-5.47,6.09-7.55c2.61-2.08,5.67-3.67,9.17-4.78
		c3.5-1.11,7.3-1.66,11.41-1.66c5.5,0,10.66,0.79,15.46,2.36c4.8,1.57,9.21,4.11,13.22,7.62l-7.56,11.22
		c-3.73-2.77-7.35-4.8-10.85-6.1c-3.5-1.29-6.97-1.94-10.43-1.94c-3.17,0-5.83,0.65-7.98,1.94c-2.15,1.29-3.22,3.37-3.22,6.24
		c0,1.3,0.26,2.36,0.77,3.19c0.51,0.83,1.33,1.57,2.45,2.22c1.12,0.65,2.59,1.27,4.41,1.87c1.82,0.6,4.08,1.23,6.79,1.87
		c5.04,1.29,9.35,2.59,12.94,3.88c3.59,1.29,6.53,2.77,8.82,4.43c2.28,1.66,3.96,3.58,5.04,5.75c1.07,2.17,1.61,4.78,1.61,7.83
		c0,7.11-2.66,12.73-7.98,16.84C741.71,337.27,734.48,339.33,725.34,339.33"/>
</g>
</svg>
