<svg id="Layer_1" data-name="Layer 1" xmlns="http://www.w3.org/2000/svg" viewBox="0 0 4148.51 1609.38"><defs><style>.cls-1{fill:#19171f;}.cls-2{fill:#4eb84f;}.cls-3{fill:#ed3831;}.cls-4{fill:#f27d37;}.cls-5{fill:#fbe933;}.cls-6{fill:#49c2f0;}.cls-7{font-size:633px;fill:#231f20;font-family:Raleway-Bold, Raleway;font-weight:700;}.cls-8{letter-spacing:0em;}</style></defs><title>mmaps_banner_with_text_RBL</title><path class="cls-1" d="M436.15,1371.61" transform="translate(-484.35 -537.69)"/><path class="cls-2" d="M973.22,814h852.23c-138.23-168.29-349.4-276.3-585.91-276.3a757.74,757.74,0,0,0-265.68,47.73V814Z" transform="translate(-484.35 -537.69)"/><path class="cls-3" d="M1729.07,1310.69H484.35c4.44,140.65,48.83,271.26,121.1,381.81H1729.07Z" transform="translate(-484.35 -537.69)"/><path class="cls-4" d="M1865.4,868H1408.85v388.7h584.64A740.71,740.71,0,0,0,1865.4,868Z" transform="translate(-484.35 -537.69)"/><path class="cls-5" d="M1784.25,1310.69v436.43H973.87v239.23a760,760,0,0,0,265.68,47.71c408.36,0,741.26-321.49,754.57-722.73H1784.25Z" transform="translate(-484.35 -537.69)"/><path class="cls-6" d="M918.7,1256.69v-648C670.12,724.2,495.75,969.71,485,1256.69Z" transform="translate(-484.35 -537.69)"/><text class="cls-7" transform="translate(1756.23 551.33) scale(1.01 1)">Missing<tspan class="cls-8" x="0" y="560.51">M</tspan><tspan x="544.38" y="560.51">aps</tspan></text><text x="-484.35" y="-537.69"></text></svg>