<?xml version="1.0" encoding="utf-8"?>
<!-- Generator: Adobe Illustrator 18.1.1, SVG Export Plug-In . SVG Version: 6.00 Build 0)  -->
<svg version="1.1"
	 id="svg153" xmlns:cc="http://creativecommons.org/ns#" xmlns:dc="http://purl.org/dc/elements/1.1/" xmlns:rdf="http://www.w3.org/1999/02/22-rdf-syntax-ns#"
	 xmlns="http://www.w3.org/2000/svg" xmlns:xlink="http://www.w3.org/1999/xlink" x="0px" y="0px" viewBox="-49 141 512 512"
	 enable-background="new -49 141 512 512" xml:space="preserve">
<desc  id="desc3066">The United States of America flag, produced by Daniel McRae</desc>
<rect x="-49" y="140.5" fill="#5B92E5" width="512" height="512.5"/>
<g>
	<path fill="#FFFFFF" d="M357.1,535.9c-13.7,3.7-28.3,4.9-41.6,9.4c22.5-19.3,21.3-49.3,36.3-72.1c4.8-6.4,8.8-13.2,14.3-19.3
		c-9.1,18.4-5.2,42.2-15.7,60c-4,7.1-9.8,13.9-16.2,19.5c2.1-0.1,3.9-1.9,5.8-3.1c17.1-17.1,39.4-21.8,57.8-35.7
		c7.4-5.9,14.2-13.6,17.4-22C411.7,501,383.6,527.5,357.1,535.9L357.1,535.9z"/>
	<path fill="#FFFFFF" d="M418.6,421.4c-8.3,11.9-18.5,23-26.2,35.1c0.9-9.6,2-21.3-1.7-30.4c-6.5-19.5-12.1-39.4-14-60.8l0.3-8.2
		c4.9,21.9,26.3,36.9,25,61.5c0.5,5.9-1.4,11-2.5,16.2l0.4,0.4l1-1.1c3.2-12,4.8-24.7,9.7-35.9c7-16.2,15.8-32.5,12.2-52
		C433.5,369.2,430.3,399.9,418.6,421.4L418.6,421.4z"/>
	<path fill="#FFFFFF" d="M405.4,297.4c14.1,19.1,17.2,49.5,6.9,71.5c-3.8,9.3-6.5,19.2-8,29.5c-0.7-1.8-0.9-4.2-1.5-6.1
		c-5.6-21.4-25.9-36.7-34.2-57c-2.6-6.6-4.9-13.4-6.1-20.6c8.9,16.5,30.9,25,36.8,43.2c2.5,4.6,2.3,10.3,3.8,15.3
		c0.3,0,0.6-0.2,0.6-0.6c-2.6-18.7-1.8-38.3,0.7-56.8c-0.1-10-1.1-19.7-6.7-27.5C401.3,290.3,402.9,294.3,405.4,297.4L405.4,297.4z"
		/>
	<path fill="#FFFFFF" d="M395.5,293.7c3.7,16.7-1.7,33,1.7,49.9l-0.1,0.1c-9.1-17.9-28.4-26.4-41.7-40.7c-7.7-8.5-11-18.9-13-29.8
		c7.6,18.4,28.2,22.4,40,37.9c3.9,3.6,5.2,8.5,7.8,12.6l0.4-0.4c-6.8-14.5-9.1-30.8-13.8-46.3c-2.4-6.7-7.1-13.3-13.4-17.5
		C378.8,262.8,392.2,278.9,395.5,293.7L395.5,293.7z"/>
	<path fill="#FFFFFF" d="M354.1,255.4c11.7,10.4,16.9,24,20.3,38l1.9,4.5c-16.9-12.2-32.3-28.6-43.1-45.9L320,238.6
		C331.6,243.5,344.1,246.4,354.1,255.4L354.1,255.4z"/>
	<path fill="#FFFFFF" d="M86.7,240.8C75,251.1,66.9,264,58.2,276.1c-7.8,9.6-17.7,16-26.6,24.3c4.8-9.9,4.9-21.7,11.7-30.8
		C53,252.9,70.8,247,86.7,240.8L86.7,240.8z"/>
	<path fill="#FFFFFF" d="M22.7,276.5c5.7-7.1,12.9-12,21-14.1C28,273.3,29,292.7,24,308.9c-1.6,6-4.4,11.5-5.7,17.6l0.4,0.3
		c2.6-6.9,7.2-13.5,13-19.1c11.2-10.3,27.8-16.8,33.2-32.1c-0.3,21.3-18,38-34.9,49.9c-7,6.1-13.7,13.1-17.6,21
		c-0.4-5.4,0.8-10.8,0.4-16.5C11,311.5,9.6,290.3,22.7,276.5L22.7,276.5z"/>
	<path fill="#FFFFFF" d="M-9.2,340c-0.5-18.8,7.3-34.2,18.3-48.2c0.3-0.2,0.5-0.5,1-0.4C-2,309.8,8,333,7.5,354l-1.6,21.4
		c0.2,0.2,0.2,0.8,0.8,0.6c0.7-2.4,0.9-4.9,1.3-7.4C10.9,351.3,25.9,339,39,327c2.8-3.1,5.3-6.3,6.7-10c-1.1,8.6-3.8,17.3-7.3,25.2
		c-10.2,19.9-29,36.2-32.5,59C4.2,379.5-10.6,363.2-9.2,340L-9.2,340z"/>
	<path fill="#FFFFFF" d="M-18.3,366.8c1.4-5.9,2.4-12,5-17.4c-4.8,24.9,11.9,42.8,17.3,64.4c2.3,8.1,2.9,16.7,6.1,24.3
		c0.3,0.2,0.6-0.2,0.8-0.4c-8.2-22.9,3.6-44.2,15.5-62.1c2.9-4.9,4.5-10.3,6-15.9c1.3,10.4-1.4,22.3-2.9,33.1
		c-2.9,13.7-7.2,26.7-10.9,40c-2.5,8.3-1.8,17.7-0.5,26.4l-1.2-0.9c-8.7-16-25.9-28.5-31-46C-18.4,398.1-21.2,382-18.3,366.8
		L-18.3,366.8z"/>
	<path fill="#FFFFFF" d="M-19.1,415.4c1.9,26.4,30.2,40.3,43.4,62.1c3.1,4.5,5.8,9.4,10,13.1c-0.6-2.8-3.3-5.2-4.2-8
		c-4.6-9.2-6.3-20.1-5.2-31.1c1.3-13.5,6.9-26,4.8-40.1c11.5,24.9,8,56,14.5,83c1.7,5.9,5.1,11.2,7.3,16.8
		c-23.7-16.2-56-31.5-66.5-61.1C-19.6,439.7-20.1,427.1-19.1,415.4L-19.1,415.4z"/>
	<path fill="#FFFFFF" d="M-4.9,475.9c13.2,29.9,46.3,32.4,68.5,50.6c4.1,3.6,8.4,6.7,13,8.9l0.2-0.2c-5.1-4.6-11-9.9-14.6-15.8
		c-13-18.1-8.4-43.4-18.2-62.8c8.8,10.6,16.9,21.6,22.2,33.6c7.9,19.6,11,41.8,29.3,56.6c-19.9-6.6-43.2-4.7-60.7-17
		C15.7,517.9-1.4,497.9-4.9,475.9L-4.9,475.9z"/>
	<path fill="#FFFFFF" d="M29,531.7c21.2,24.1,55.8,16.1,84,22.4c4,0.5,7.6,2.1,11.9,1.5c-3.4-2.1-8-1.9-11.7-3.8
		C91.1,544,87.8,520,75.8,503.8c15.3,10.2,28.2,24,42.4,37.3c10.2,8.9,22.4,13,35.3,15.7c-3.1,1.1-7.2,0.8-10.5,1.7
		c-23.2,5.7-48.9,15-73.5,6.7C53.6,560.1,37.1,547.5,29,531.7L29,531.7z"/>
	<path fill="#FFFFFF" d="M316.6,587.9c-23.9,8.9-48.8-0.4-67.4-14.6c-7.6-4.8-14.2-11.7-24-11.1c-3.5-0.1-7,0.1-10,1
		c18.1,8.4,34.9,20.1,50.3,35c-2.6,3-6,5.7-9.1,8.3c-14.8-16-31.2-31.4-49.6-40.4c-3.6,0.5-7,2.6-10.3,4.4
		c-15,9.5-29.8,21.7-40.9,36.6l-9.6-7.9c15.3-15.5,32.1-27.5,50.6-36.1c-18.1-5.8-30,9.5-43.8,17.2c-16.1,11.2-39.1,16.5-58.5,8.7
		c-10.4-4-20.5-9.8-28.1-19.3c15.3,10.5,38,11.6,55.4,4.8c23.3-10.1,47.5-22.9,75.6-16.8c4.4,0.1,8.6,4.4,12.8,0.7
		c20.9-5.4,44.5-1.7,62.5,7.9l18.5,7.4c17.2,6.4,39.5,4.6,54.2-5.9C337.7,577.3,327.3,584.1,316.6,587.9L316.6,587.9z"/>
	<path fill="#FFFFFF" d="M342.2,563.2c-26.8,10.1-53.8-2.3-79.5-6.5l-4.9-0.6V556c12.3-2.8,24.2-6.4,34-15.3
		c14.4-13.9,27.2-28.1,43.2-39c-11.9,15.2-13.1,36.9-32.7,46.7c-4.8,3.2-11,3.7-16,6.1c7.1,0.2,13.7-2.4,20.7-3.1
		c26.3-4.1,56.3,0.1,74.7-22.3C374.9,544.7,357.8,557.8,342.2,563.2L342.2,563.2z"/>
	<path fill="#FFFFFF" d="M390.9,487.8c-10.6,6.9-21.3,13.4-31.5,21.3v-1c15.6-25.9,8-61.5,17.6-90.1l3.6-9.6
		c-2,17.8,5.7,32.8,5.2,50.7c-0.5,10.8-4.1,20.3-9.7,28.9h1c7.6-10,13.6-20.7,22.5-30.3c13.9-13.4,27.9-27.1,29.8-45.6
		C433.9,443.1,416.6,470.2,390.9,487.8L390.9,487.8z"/>
</g>
<polygon fill="#FFFFFF" points="202.8,420.3 207.7,420.3 207.7,541 202.8,541 "/>
<polygon fill="#FFFFFF" points="176.8,408.4 180.2,411.8 94.8,497.1 91.4,493.7 "/>
<polygon fill="#FFFFFF" points="168.6,383.3 168.6,388.1 48,387.9 48,383.1 "/>
<polygon fill="#FFFFFF" points="180.1,360 176.7,363.4 91.4,278 94.8,274.6 "/>
<polygon fill="#FFFFFF" points="207.6,350.1 202.8,350.1 202.9,229.3 207.7,229.3 "/>
<polygon fill="#FFFFFF" points="231.7,361.6 228.3,358.2 313.7,272.9 317.1,276.3 "/>
<polygon fill="#FFFFFF" points="241,388.4 241,383.6 361.6,383.5 361.6,388.3 "/>
<polygon fill="#FFFFFF" points="227.1,413 230.5,409.6 315.9,494.9 312.5,498.3 "/>
<path fill="#FFFFFF" d="M250.2,264.9c-66.4-24.9-140.5,8.9-165.3,75.4c-24.8,66.5,8.9,140.6,75.3,165.5
	c66.4,24.9,140.5-8.9,165.3-75.4C350.4,363.8,316.6,289.7,250.2,264.9z M320.4,428.4c-23.8,63.6-94.6,95.9-158.2,72.2
	c-63.5-23.8-95.8-94.7-72.1-158.3c23.8-63.6,94.6-95.9,158.1-72.2C311.8,293.8,344.1,364.8,320.4,428.4z"/>
<path fill="#FFFFFF" d="M239.9,292.5c-51.2-19.2-108.3,6.9-127.4,58.1c-19.1,51.2,6.9,108.4,58.1,127.6
	c51.2,19.2,108.3-6.9,127.4-58.1C317.1,368.8,291.1,311.6,239.9,292.5z M292.8,418c-18.1,48.4-71.9,72.9-120.2,54.9
	c-48.3-18.1-72.9-72-54.8-120.4c18.1-48.4,71.9-72.9,120.2-54.9C286.3,315.8,310.8,369.7,292.8,418z"/>
<path fill="#FFFFFF" d="M229.9,319.2c-36.4-13.6-77.1,4.9-90.7,41.4c-13.6,36.5,4.9,77.1,41.3,90.8c36.4,13.6,77.1-4.9,90.7-41.4
	C284.9,373.5,266.4,332.9,229.9,319.2z M266.5,408.2c-12.6,33.8-50.3,51-84.1,38.4c-33.8-12.6-51-50.4-38.3-84.2
	c12.6-33.8,50.3-51,84.1-38.4S279.1,374.4,266.5,408.2z"/>
<path fill="#FFFFFF" d="M218.7,349.3c-19.8-7.4-42,2.7-49.4,22.5c-7.4,19.9,2.7,42,22.5,49.4c19.8,7.4,42-2.7,49.4-22.5
	C248.6,378.9,238.5,356.8,218.7,349.3z M236,396.8c-6.3,17-25.3,25.6-42.2,19.3c-17-6.4-25.6-25.3-19.3-42.3
	c6.3-17,25.3-25.6,42.2-19.3C233.7,360.9,242.3,379.8,236,396.8z"/>
<path fill="#FFFFFF" d="M280.2,245.8c-77.7-42.8-174.3-15-215.7,62c-41.4,77-11.9,174.2,65.8,217c77.7,42.8,174.3,15,215.7-62
	C387.4,385.8,357.9,288.6,280.2,245.8z M340.9,460c-39.9,74.2-133,101-207.8,59.7C58.2,478.5,29.8,384.8,69.6,310.6
	c39.9-74.2,133-101,207.8-59.7C352.3,292.1,380.7,385.8,340.9,460z"/>
<path fill="#FFFFFF" d="M299,459.9c0.1,0.8-0.2,2.9,0.2,3.3c0.4,0.6,1.9,0.5,2.5,0.3c1.8-0.7,3.5-3,4.3-4.7c0.6-0.9,1-1.9,0.8-3.1
	l-1.2-3.7c-0.3-1.3-0.7-3.6-2.1-4.2c0.1-0.3,0.6-0.9,0.5-1.4c-0.3-1.5-2.8-1.1-3.7,0c-0.4,0.5-0.3,1.7-0.4,2.4
	c0,1.3-0.4,4.1-0.9,5.3c-0.5,1.2-2,2.9-2,4.2C297.1,459.2,298.2,459.8,299,459.9L299,459.9z M217,449.5l0.4,1c0,0.2,0.2,0.5,0.4,0.5
	c1.1,1.1,2.7-1.4,0.8-1.7c-0.2,0-0.5-0.1-0.7,0.1C217.7,449.3,217.3,449.4,217,449.5L217,449.5z M218.3,447.1
	c-0.8,0.7-1,1.3,0.2,1.8L218.3,447.1L218.3,447.1z M198.3,432.5c-1.2,1.1-1.1,0.4-1.7,0.8c-0.5,0.4-0.1,0.8-0.5,1.5
	c-0.1,0.3-0.6,0.6-0.6,0.9c-0.1,0.5,0.4,0.8,0.9,0.9c0.7,0.1,2.7-0.1,3.3-0.5c0.6-0.6,0.4-1.2,0.7-1.7c0.1-0.2,0.4-0.5,0.6-0.7
	C201.1,432.9,199.3,431.9,198.3,432.5L198.3,432.5z M246.2,427.4l0.2,1.7l-0.2,1.4c1.8-0.3,2.9-0.9,4.5-1.6c0.5-0.2,1.4-0.6,1.8-0.3
	c0.5,0.3,0.2,0.8,0.1,1.2c-0.3,0.7-1.3,2-1.7,2.5c-1.3,1.5-3.3,1.6-5,3.1c-0.9,0.9-1.1,1.8-2,2.7c-0.9,0.9-1.5,1.1-2,1.5
	c-0.4,0.5-0.1,0.8-1,1.4l0.5-1.2c-0.5-0.1-1.2-0.1-1.6-0.5c-0.2-0.5-0.3-1-0.2-1.5c0.2-1,0.4-3.7,1-4.4c0.1-0.2,1.4-0.6,1.9-0.8
	l-0.2,1c0.5,0,1.3-0.1,1.6-0.3c0.8-0.2,1.6-2,2-2.7l-2.2,0.9C244.1,430.2,245.2,428.1,246.2,427.4L246.2,427.4z M201.8,432.3
	c-0.3,1.5,0.6,0.9,1.2,1.6c0.4,0.3,0.4,0.8,0.5,1.3l-1.3,0.3l-0.6,0.9l-0.7,0.9l2.2,0.6c-1.1,0.4-1.8,0.3-2.5,1.4l2.8-0.3
	c1.8,0,3.2,0.4,4.9-0.6l-0.4-0.3l0.5-1.6l-1.2-0.7l-0.4-1l-2.1-2.5l-0.7-0.3c0.6-0.7,1.8-2,0.1-2.4l-0.8-0.1l0.7-0.9
	c-1-0.1-1.9-0.2-2.6,0.6C200.5,430.5,200.4,431.8,201.8,432.3L201.8,432.3z M200.9,410.9l0,1.2l-0.4-0.5l0,2
	c0.3,1.1,1.6,0.7,1.9,0.3c0.3-0.2,0.4-0.9,0.4-1.2c0-0.3-0.2-0.6-0.4-0.8c-0.4-0.1-0.5-0.1-0.8-0.1l-0.1-1L200.9,410.9L200.9,410.9z
	 M64.7,421.4c-0.1,2.5,0.6,2.5,1.2,4.6c0.3,1.1-0.2,1.5,0.7,3.8c0.4,1,0.7,1.9,1.8,2.4c-0.3-2.8-0.6-4.5-1.6-7
	c-0.7-1.6-1.2-1.7-1.7-3.7L64.7,421.4L64.7,421.4z M292.9,393.9c-0.8,0.4-1.1,0.9-1,1.8c-0.1,0.8,0.7,1.4,1.5,1.2
	C294.5,396.4,294.7,393.6,292.9,393.9L292.9,393.9z M136.8,393.5c-0.4,0.9-0.5,1.7,0.4,2.3C137.1,395,137.4,394.1,136.8,393.5
	L136.8,393.5z M185.6,394.3l0.6,0.5c1.2-1.1,1.5-1.8,2.4-2.9c0.7-0.9,1.2-0.9,1.7-1.3c0.3-0.4,0.3-0.7,0.4-1.2
	c0.3-0.7,0.7-0.9,0.6-2.1c0.1-1-0.6-2.5-1.7-2.2l-0.3-0.8c-0.5,0-1.3,0.3-1.8,0.7c-0.5,0.4-0.2,1-0.8,1.6c-0.7,0.9-2,1.4-2.3,1.5
	c-0.5,0.2-0.3,0.7-1,1.3c-1.1,0.8-1.8,0.3-2.4,0.6c-0.8,0.2-2,1.5-2.6,2.1c-0.9,1.1-1.1,1.8-1.5,3c-0.1,0.3-0.4,0.9-0.2,1.2
	c0.2,0.3,0.7,0.3,1,0.1c0.6-0.2,2.1-1,2.6-0.9c0.5,0,0.7,0.3,1,0.4c0.5,0.1,0.8,0.1,1.2,0.2c0.3,0.1,0.7,0.6,1.1,0.9
	c0.9,0.4,1.8-0.7,2-1.4C185.5,395.2,185.6,394.8,185.6,394.3L185.6,394.3z M186.5,381.5l0,0.2l-0.2-0.1L186.5,381.5L186.5,381.5z
	 M188,382.7c0.4,1,2.1,2,3,2.7c0.3-0.2,0.5-0.4,0.6-0.7c0.4-0.9,0.2-2.5-0.7-3c-0.5-0.3-1.2-0.1-1.7,0.1c0-0.2-0.2-0.6-0.4-0.8
	C187.5,379.9,185.9,383.4,188,382.7L188,382.7z M181.1,380.5c1.1,1.1,1.1,1.2,2.6,1.1c-0.2,1-1.5,2.6-2.6,1.9
	c-0.7-0.4-0.8-1.1-1.1-1.2c-0.5-0.3-0.6,0.9-0.9,1.2c-0.7,1.2-1.9,1.2-2,3.2l0.6-0.4c0.6,1.3,1.8-0.2,2.6-0.6
	c-0.1,0.2-0.4,0.5-0.6,0.9c-0.1,0.5,0.4,1,0.9,0.8c0.5-0.2,1.1-1.1,1.5-1.5c0.5-0.4,0.6-0.4,1.1-0.6c0.5-0.4,1.1-0.9,1.5-1.3
	c1.4-1.1,1.4-0.5,1.9-2.2c0-0.3,0.1-0.5,0.1-0.8c-0.7-1.4-3-0.2-3.2-0.4l-1-0.2C182.2,380.3,181.6,380.5,181.1,380.5L181.1,380.5z
	 M188.7,380.2l-0.8,0.1l0.2,0.5c1-0.3,1.6-0.3,1.7-1.5C189,379.3,188.8,379.3,188.7,380.2L188.7,380.2z M136.7,383.3l-0.8,3.8
	l0.3,1.6l0.7,3.3c0.4-0.7,1.2-2.9,1.3-3.8l0.2-1.4c0.1-1,0.2-1.4-0.2-2.3l-1.1,0.9l-0.1-2.2L136.7,383.3L136.7,383.3z M190.4,379
	c-0.1-1,0.1-0.8,0.9-0.8l0-1.7c-0.5,0.2-1.1,0.3-1.6,0.6C189,378.1,189.1,379,190.4,379L190.4,379z M185.5,376.8l0.6,0.6
	c1.1-0.3,1.5,0,2.5,0.3l-0.4-0.6l0.4-0.7c1-0.1,1.1-0.9,0.6-1.7c-0.2-0.2-0.5-0.3-0.7-0.4c-1.8-1-1.9,0.5-2.4,1.2L185.5,376.8
	L185.5,376.8z M189.8,376.2c0.3,0,0.7-0.1,1-0.3c0.6-0.6,0.3-2.2-0.3-2.5c-0.5-0.1-0.8,0.4-0.8,0.7l-0.1,0.5l0.1,0.8L189.8,376.2
	L189.8,376.2z M136.7,380.3c0.6-0.7,0.8-1.9,0.9-2.8C136.5,378.2,136.6,379.2,136.7,380.3L136.7,380.3z M142.6,369.6
	c0.2,1.5,0,2.8-0.6,4.2c-0.7,1.6-2.3,3.7-2.6,5.3l-0.4-0.5c-0.7,1.1-0.8,3.4-0.3,4.5c0.9-0.9,1.1-2.1,1.7-3.2
	c1.1-2.3,2.5-4.2,3.1-6.8c0.1-0.7,0.2-2.5-0.2-3.2C143.1,369.7,142.9,369.7,142.6,369.6L142.6,369.6z M293,374
	c0.9-1.2,1.1-3.8,1.4-5.3c0.8-3.6,2.4-5.2,2-9.7c-0.1-1-0.5-3-1.7-3.2c-1.9-0.2-1.1,2.3-1.2,2.8c0.1,0.5-0.1,0.8-0.2,1.2
	c-0.8,1.7-0.4,3.7-0.4,5.6l-0.4,6.1L293,374L293,374z M266.2,345.4c0,0.3,0.2,0.5,0.4,0.8c0.2,0.2,0.4,0.3,0.5,0.5
	c1.1,0.6,1.6-0.5,1.2-1.1c-0.2-0.3-0.9-0.4-1.2-0.4C266.9,345.2,266.5,345.3,266.2,345.4L266.2,345.4z M290.9,342.6
	c0.2,1.5,0.8,3.9,1.4,5.2l1.5,2.7l1.7,5.2c0.9-1.1,0.4-2.4,0.1-3.5c-0.7-2.3-1.8-4.5-2.7-6.6C292.3,344.4,291.8,343.3,290.9,342.6
	L290.9,342.6z M281.8,339.9l-0.1,1.9l-2.3-0.8c0,1.2,0.5,3,1.4,3.9l1.8,1.3c1.5,1.2,2.9,2.6,4.3,4c1.2,1.4,1.2,1.9,1.6,2.5
	c0.4,0.3,0.7,0.6,1.2,0.4c0.3-0.2,0.4-1,0.5-1.4l0.6-1.1c0.2-0.9-0.4-2.1-0.8-2.9l-1.1-2.4c-0.5-1.1-0.7-2.1-1.5-3
	c-1.3-1.2-2.3-1.1-3.7-1.5L281.8,339.9L281.8,339.9z M235.8,342.2c-0.1,0.7-0.2,1.7-1,1.9c-0.2,0-0.8-0.1-1-0.2l-0.6,1.9
	c-0.3,0.5-0.8,1.9-0.7,2.4c-0.1,0.8,1.1,0.7,1.7,0c0.6-0.6,0.7-1.4,1.1-2.1c0.7-1.4,1.9-2,2.1-3.7L235.8,342.2L235.8,342.2z
	 M287,335.9c0.5,1.5,0.8,1.6,1.6,2.9c0.4,0.8,0.3,1.3,1.3,1.1C289.4,339,287.8,336.3,287,335.9L287,335.9z M217.8,344.8
	c-1.9-0.2-0.6,1.9-0.9,2.8c-0.4,0.9-2.3,2.2-3.2,1.6c-0.5,0.2-1,0.3-1.5,0.1c-0.5-0.1-0.9-0.4-1.4-0.4l-2.6,1.9
	c-0.5,0.4-1.1,0.8-1.7,0.8c-0.5,0-1.2,0.1-1.4,0.5c-0.5,0.4,0,1.3,0.2,1.8l0.8,1.1c-1.6,0.5-1.5,1.6-1.3,3.1
	c0.1,0.8,0.4,3.8,0.6,4.5c0.3,0.8,1.3,1.6,2.2,1.8c0.5,0.3,1.4,0.4,1.9,0.3l0.1-2l0.5,0l0.5,1.6c0.2,0,0.5,0,0.7-0.1l2.1,0.5
	c0.2,0.2,0.2,0.2,0.4,0.3c0.2,0.5-0.2,1.4-0.1,1.9c0.3,1.1,1.5,1.4,2.5,1.3c0,1.3,0.1,1,0,1.8c0.1,0.8-0.4,0.9,0.6,2.6
	c0.2,0.3,0.6,1.1,1.1,1.1c0.5,0,1.5-1.3,2.6-1.9c0.3,0.8,0.3,1,1,1.4l-0.2,0.9l1.9-1.2c-0.6,2.6-1.6,2-2.8,3.6
	c-0.4,0.9-0.2,1.7-0.4,2.5l0.2,0.1l0.6-0.4l0.5-0.2c1.5-0.3,0.3,1.5,0.4,1.8c0.1,0.5,0.4,0.6,0.7,0.8l-0.8,0.6l0.5,1.1l-3,0.3
	c-1.5,0.3-2.7,1.4-3.9,2.4l0,0.3l0.5,0.1l-2.8,1.4c0.9,0.3,2-0.2,2.8-0.3c0.8-0.2,0.7-0.1,1.6-0.3l0.5,0.3l-0.1,0.7l3.6,1.2
	c0.9,0.3,1.5-0.1,2,0.2c0.7,0.4,0.5,1.3,1.7,1.5c1.4,0.4,2.5-0.4,3.6-0.7l-1.3,1.5l0.6,1.1l1.6-0.5c-1.2,1.3-1.1,0.3-3.5,0.5
	c0.5,0.3,2.1,1,2.5,1.1c0.9,0.3,1.3-0.1,2.5,0.3c1,0.2,2.3,1,2.6-0.6c0.2,0.3,0.4,0.6,0.6,0.8c0.5,0.3,0.9,0.3,1.4,0.4
	c0.7,0.1,2.3,1.1,2.2,2c-0.1,0.2-0.3,0.4-0.4,0.5c-0.2-0.5-0.4-1-0.8-1.4c-0.9-1.1-2.4-0.6-3.6-0.9l-2.4-0.6l-1.9-0.2
	c-1-0.1-1.6-0.7-2.6-0.6c-0.3,0-0.8,0.2-0.8,0.6c0,0.3,0.4,0.6,0.6,0.8c1.1,0.6,0.7,0.1,2.3,1.1c0.9,0.6,1.2,0.4,2.1,0.6l0.9,0.4
	c0.7,0.1,0.8-0.2,1.5-0.1c0.3,0,1,0.1,1.4,0.2l-2.9,1.3l-2.2-0.3c0.4,1,0.6,1.1-0.1,2l-0.4-0.6c-0.4,0.5-0.4,0.9-0.8,1.4l-0.7,0.9
	c-0.1,0.3-0.6,0.9-0.9,0.9c-0.5,0-1.1-0.6-1.4-0.9c-0.7-0.4-1-0.4-1.9-0.2c0.6,1,0.9,0.8,1.8,1.2c0.7,0.4,2.5,1.9,3.1,2.6
	c-0.2,0-0.3,0-0.5,0.4c-0.3,0.4,0,1.8,0.4,2.3c0.4,0.3,0.7,0.4,1.2,0.4l-2,1.9c0.9,0.3,1.2,0.1,1.9,0.7l-1.7,0.1l-2.2-1.6l-2.3-1
	c0.8,0.1,2.2,0.1,3-0.3c1.4-0.8,0.7-2.4-0.4-3.3c-0.7-0.4-1.2-0.4-2-0.5c-0.7-0.1-1.7-0.5-2.4-0.5l-1.8,0.3l0.1-0.5
	c-0.5-0.1-0.7-0.3-1.2,0.1c-0.5-0.5-0.6-0.6-1.2-0.7l0.1,0.8l-0.8-0.8l-0.1,0.8c-0.4-0.6-0.4-0.8-1.1-1.1l0.6,2.1l-0.3,0.5
	c-0.9,0.8-0.9,2.4-0.8,3.4c0.2,2-0.2,2.5-0.4,4c0,1.2,0.3,1.6,0,3.3c-0.1,0.7-0.7,2.6-1,3.1l-0.7,0.9l-0.6,1.1
	c-0.3,0.5-0.7,0.9-1,1.4c-0.3,0.7,0.1,1,0.3,1.3c0.3,1-0.4,0.7,0.7,2.1l-0.6,0.7l0.7-0.1c-0.4,1.2,0.4,2,1.5,1.7
	c0.8-0.2,1.7-1.3,1.9-2.2l0.3,0l2.2,3.6c0.4,0.5,0.5,1.3,1.2,1.4c0.7,0.1,0.9-0.6,1.2-1.1c0.3-0.4,0.6-0.6,0.9-0.9
	c0.4-0.9-0.4-2.1-0.3-3c0.1-0.7,0.6-1.1,0.6-1.9c-0.1-1.2-1-1.4-1.6-2c-0.6-0.6-0.6-1.3-0.7-2.1c-0.2-1.8,0.7-2.4,0.9-3.9
	c0.1-1-0.5-1.6-0.6-2.3c-0.1-0.5,0.1-1,0.6-1.1c1.1-0.3,1.3,1.1,1.4,1.9l-0.2,1.7c-0.1,0.7-0.4,1.2-0.3,2c0.2,0.6,0.6,1.1,0.8,1.6
	c0.4,0.5,0.4,1,0.8,1.3c0.3,0.1,0.5,0.3,0.9,0.3c0.3,0.1,0.7,0.3,1,0.2c0.8-0.2,1.6-1.8,2.4-2.4c0.5-0.4,1.1-0.3,1.6-0.3
	c-0.3,0.5-1,1.4-1.3,1.8c-0.6,0.4-1.8,0.7-1.8,1.7c-0.4,1.4,1.5,1.2,1.4,2.4c-0.1,0.8-1.4-0.2-1.7,0.8c-0.6,1.1,0.2,1.7,0.4,2.5
	c0.1,0.5-0.2,1-0.3,1.5c-0.7,1.2-1.3,0.5-2.2,1c-0.8,0.4-1.7,1.7-2.5,1.9c-0.6,0.2-1.2-0.2-1.7-0.2c-0.7,0.1-1.2,1.1-2.3,0.2
	c-1.1-1.1,0.2-1.7-0.1-2.7l-0.7-1.6c-0.9,0.6-1.9,1.3-1.6,2.6c0.5,1.1,1.6,2,1,2.9c-0.5,0.4-1.5,0.5-2.2,1c-0.9,0.6-1.9,2.3-2.2,2.5
	c-0.5,0.4-1,0.4-1.4,0.8l-1.7,1.7c-0.1,0.2-0.1,0.2-0.3,0.4l-2.1-0.6l0.1,1.2c-0.8,0.1-0.8,0.1-1.5,0c-0.5-0.1-1.5-0.2-1.8,0.5
	c-0.3,0.5,1.1,0.9,1.4,1c2.1,1,2.5,3.3,1.6,4.2c-0.6,0.6-1.7,0.1-2.3,0c-1.5-0.2-3.9-0.8-5.4-0.9c-2,0.2-1.3,1.5-1.7,2.5
	c-0.1,0.7-0.7,1.1-0.8,1.6c-0.1,0.2-0.1,0.3-0.1,0.5c0-0.2,0.5,2,0.5,1.8c0.2,0.6,1.4,0.5,2.1,0.7c0.9,0.3,1.1,0.7,1.8,1.2
	c0.7,0.3,1,0.1,1.7-0.1c1.5-0.1,2.9,0.6,5.1-0.6c0.5-0.2,0.9-0.6,1.1-0.9c0.4-0.5,0.2-1,0.8-1.6c0.8-0.7,2.2-1,3-1.6
	c0.6-0.6,0.2-1.5,1.3-2c0.8-0.2,1.7,0.3,2.8-0.1c1-0.3,2-1.4,3-1.6c1-0.1,1.6,1,3,1.4l5.5,1.2c0.2,0,0.5,0.1,0.7,0.3
	c1.5,1.2-0.6,1.7-1.5,2c-0.6,0.2-0.8,0.2-1.5,0.3c0.2,0.2,0.2,0.3,0.4,0.5c0.7,0.3,2.4,0.5,3-0.1c0.3-0.4,0.3-0.7,0.2-1.2
	c0.6-0.2,1-0.4,1.2-1.1c-0.1-0.5-0.3-1,0.2-1.4c0.3-0.4,1-0.4,1.5-0.5c-0.8-0.9-1.4-0.5-2.4-0.6c-0.5-0.1-0.7-0.4-1.2-0.6
	c-0.5,0-1,0.4-1.6,0.1c-0.5-0.1-1.1-0.6-1.6-0.7c-0.5-0.3-1.9-0.5-1.8-1.3c0.1-0.3,0.3-0.5,0.6-0.6c0.1-0.2,0.3-0.2,0.5-0.2l0.2,0.7
	c1.8-0.7,1.2,0.2,2.7,0.4c1.4,0.4,3-0.1,4.4,0.4c0.9,0.3,0.6,0.8,1.3,1.6c0.9,0.8,2.2,0.5,3.4,0.4c-0.1,0.2-0.3,0.2-0.3,0.4
	c-0.3,0.5,0.1,0.8,0.4,1c1.2,0.7,3.1-0.8,1.5-1.5l2.5-1.2c-1.2-0.6-1.8,0-3.4-1c0.8-0.1,1-0.1,1.6-0.6l0.1-0.7l2.7-1.4
	c-0.8,1.4,0.1,1,0.4,2.5c0.8-0.1,1.9,0.2,2.7,0.1c0.6-0.2,2.4-0.9,2.9-1.3c0.5-0.4,0.6-0.9,1-1.3l1.9-0.8c0.8-0.6,1.4-1.3,2-2
	c0.3-0.4,0.6-0.7,1.1-0.6c0.7,0.3,0.9,1.9,0.9,2.6c0.2,0.5,0.5,1.1,0.5,1.6c-0.1,2.2-2.4,2.6-3.8,3.7c-0.9,0.8-1.6,2-2.6,2.4
	c-1.2,0.9-4.8,2.3-6.4,2.7l-3.4,0.6c-0.8,0.4-1.7,1.2-2,1.9c-0.3,0.7,0.2,1.5-0.6,1.9c-0.8,0.4-4.1,0.9-4.9,0.8
	c-1.4-0.2-0.9-0.6-2.9-0.4c-1.8,0.2-3.8,0.5-5.6,0.2c0.3-0.4,0.9-1.1,1-1.6c0.1-0.3-0.1-0.5-0.1-0.8c0-0.2-0.1-0.5-0.2-0.6
	c-0.4-0.5-1.7-0.4-2.2-0.3c-1.1,0.3-0.9,0.6-2.8,0.7l-6.1,0.7c-3,0.3-5.3,1.5-6.5,1.6c-0.8,0.1-2.7-0.1-3.5-0.4
	c-0.7-0.3-1.4-0.9-2.2-0.5c-0.8,0.2-1.1,0.9-2,1.4c-1,0.4-2.8,0.6-3.9,1.4c-1.1,0.8-0.5,1.4-1.8,2c-0.6,0.2-2.8,0.2-3.6,0.3
	c-1.8,0-2.8,0.8-4.4,1.4l-1.8,0.7c-0.6,0.2-1.9,0.5-2.2,1c-0.3,0.5,0.1,1.2,0.2,1.7c0.1,0.5-0.1,1-0.2,1.5c-0.9,1.2-3.1,2.3-2.7,4.1
	c0.3,1.1,1,1.2,2.2,2.3c1.7,1.7,2.9,4.1,4.8,5.4c2.3,1.6,5.7,3.7,8.6,4.2l5,0.2c2.7,0.3,4.8,0.9,7.6,0.8l6.2-1.1
	c1.3-0.1,3.3-0.5,4.7-0.1c1.4,0.4,1.6,1.4,4.1,1.1l3.5-0.5c0.8-0.2,1.5-0.5,2.3,0c2.1,1.1-1.5,3.3,0.2,4.7c0.9,0.8,3.9,1,5.2,1.4
	c0.8,0.1,3.5,1.5,4.1,2.1c0.4,0.3,0.4,0.6,0.8,1.1c0.4,0.5,1.2,0.7,1.3,1.2c0.1,0.5-1,1.4-1.3,1.8c-0.9,0.9-2.7,3.2-1.7,4.7
	c0.4,0.5,1.4,0.9,2,1.2l4.8,1.4c2.1,0.8,2.3,2.5,3.5,3.4c0.9,0.6,2.4,0.5,3.6,0.5l5,1.2c1.7,0.5,1,1.6,2.4,1.8
	c2.9,0.2,7.3-2.3,9.6-3.9l4.7-2.4c1.9-1,3.6-2.2,5.3-3.3c3.2-2.5,5.9-5.7,7.5-9.4c0.6-1.1,2.1-3.5,2.2-4.2c0.2-1-0.8-1.6-0.4-2.5
	c0.5-1.2,2.7-2.9,3.2-4.3c0.4-0.7,0.3-1.9-0.4-2.3c-0.7-0.3-1.2,0.1-2.5-0.3c1-2.8,2.9-5.4,4.5-7.9c0.7-1.1,2-3,2-4.4
	c0-1.5-1.3-1.6-1.9-2.2c-0.5-0.5-0.4-0.8-0.8-0.9c-0.7-0.3-1.8,0.3-2.5,0.2c-0.5,0-0.9-0.3-1.2-0.4c-0.5-0.3-1.2-0.1-1.7,0
	c-0.7-2.3,0.8-6.4,1.6-8.7c1.5-4.8,3.5-9.7,2.7-14.8l-0.8-3.9c-0.2-0.5-0.6-1.1-1.3-0.9c-1,0.3-1.8,3.2-2.2,4l-2.2,4.1
	c-0.6,0.9-0.9,2.1-1.7,2.8c-0.6,0.6-1.6,1-2.4,1.4c-0.3-0.8-0.7-0.6-1.4-0.4l-3,1.6c-0.6,0.4-1.9,1.3-2.7,1.4c-0.7,0.1-1-0.4-2-0.2
	c-0.7,0.1-1.8,0.5-2.3,0.4c-0.7-0.1-1.4-0.7-2.1-0.8c-0.5-0.1-1.5,0.1-2,0.3c-1.6,0.2-4.2-0.6-5.9-1c0.3-0.2,0.6-0.2,0.6-0.6
	c0.2-0.9-1.1-2.2,0.5-2.7c0.2,0,0.5,0,0.7-0.1l2.8-0.1l1.6-0.3c0.8,0.1,1.1,0.6,2.2,0.5l4.1-1c1.7-0.1,2.3,1.5,4,0.3
	c1.4-1,2.7-4.3,3.2-5.8l1.4-3.6l0.6-2.6c0.6-1.9,1.2-2.8,1-4.9l-0.3-3.1c-0.1-1.3-0.4-2.3-1.8-1c-1.1,1.1-1.4,2.3-3.1,2.1
	c-0.4,2-0.2,4.7-2.2,5.9c-0.8,0.6-1.6,0.3-2.4,0.6c-0.5,0.2-1.1,0.6-1.5,0.5c-0.5,0-0.9-0.3-0.9-0.8c0.1-0.7,1.2-1.1,1.7-1.3
	c1.6-0.6,2.4-0.9,3.6-2.3c0.7-1.1,0.8-1.9,1.4-2.8c0.6-0.7,1.1-0.6,1.7-1.3c0.4-0.5,1.3-2.3,1.7-3l2-6c1-1.8,2.6-2.1,3-4.3l0.3,0.8
	c1.7-0.8,1.7-2.5,1.4-4.1c1-0.1,3,0.1,3.8-0.2l3.7-2.3c0.9-0.6,2.5-1.7,2.7-2.8c0.3-0.7-0.8-2.9-1.2-3.4c-0.2-0.3-0.4-0.5-0.7-0.6
	c-0.9-0.3-2,0-2.6-1.1c-0.8-0.9-1.6-4.2-2.3-5.5c-1.4-3.4-1.5-2.7-2.1-4c-0.4-0.8-0.3-1.6-0.4-2.5c-0.2-0.6-0.6-1.1-0.6-1.4
	c-0.1-0.7,0.4-1,0.8-1.6c0.7-1.2,0.6-2.2,1.3-3c0.6-0.6,1.1-0.3,1.4-0.8c1-1.4-1.4-2.5-0.6-4.1c0.4-0.7,1.6-2,2.4-2.1
	c0.6-0.2,1.2,0.1,1.8-0.2c0.6-0.4,0.7-1.6,0.9-2.3c0.6-1.7,1.7-1.7,1.9-4c0.1-0.8,0.1-2-0.3-2.7c-0.8-0.9-1.9-0.2-2.1,0.5
	c-0.6,0.9-0.4,2-0.3,3c-0.1,1-0.2,2.4-0.8,3.2c-0.7,1.2-2.1,0.4-2.5-0.3c-0.2-0.3-0.1-0.7-0.1-1c0-1.3-0.4-1.8,0-3.3
	c0.1-0.7,0.7-2.6,0.5-2.9c-0.1-0.5-1.6-2.2-2-2.7c-0.8-0.8-2.1-2.5-3.4-1.7c-1.1,0.6-0.9,2.8-1.1,3.9c-0.1,0.5-0.3,1.5-0.8,1.6
	c-0.3,0.2-0.9-0.3-1.2-0.6c-0.9-0.9-1.5-1.5-1.7-3c0.5,0.1,1.9,0.5,2-0.2c-0.1-0.7-0.9-1.8-1.5-1.7c-0.7-0.1-0.8,0.6-1.7,0
	c-0.7-0.6-2.4-3.3-3.1-4.2c-1-1.3-2.4-2.3-3.8-3c-0.9-0.3-3.6-1.3-4.4-0.8c-0.3,0.2-0.3,0.7-0.4,1c-0.2-0.1-0.4-0.3-0.7-0.3
	c-1.2-0.2-1.5,1.1-1.6,2c0,0.3,0.1,1-0.4,1.2c-0.5,0.2-0.8-0.1-1.2-0.4c-0.9-0.6-0.9-0.8-2.1-1.1c0.2,0.6,0.5,1.3,0.9,1.9
	c1,1.3,1.6,1.2,1.5,2.9c-1.4-0.5-3-1.2-3.9-2.3l1.3-0.5l0-0.3c-0.5-0.3-2.3-1.6-2.4-2.3c0-0.5,0.6-0.6,0.6-1.1
	c0.1-0.5-0.4-0.8-0.2-1.5c0.4-0.5,1.4-1,1.3-1.6c0-0.3-0.4-0.6-0.8-0.8c-0.7-0.4-2-1.3-2.7-0.6c-0.6,0.6-0.1,1.7-0.5,3.2
	c-0.5-0.1-1.4-0.5-1.9-0.7c-0.7-0.1-1.5,0.3-2.3-0.1c-1.2-0.4-1.6-1.4-2.7-1.8c-1.9-0.8-3.5-0.3-5.3,0c-0.8,0.1-2.1,0.2-2.9,0.6
	c-0.6,0.4-0.9,0.9-1.2,1.4c-0.7,0.9-2.2,1.4-2,2.7c0.3,1.1,1.3,1.2,1.7,1.5l1.1,2.1c-1.1,0.3-1.7,0-2.7,0.1l-3.9,0.9
	c-2,0-2.6-1.1-3.8-1.7c-0.7-0.3-1.2-0.2-1.7-0.5c-0.5-0.4-0.6-0.9-0.8-1.1c-0.4-0.5-2.1-0.6-2.6-0.6c0,0.3,0,0.5-0.2,0.9
	c-0.3,0.5-1.7,1.3-2.4,1.4c-0.3,0.2-0.8,0.1-1.2-0.1l0.1-0.7c0.1-0.8-0.4-0.8-1.1-0.6c-1,0.3-1.6,1-2.3,1.5c0.3-0.5,0.5-1.2,1-1.8
	c0.6-0.6,1.4-0.8,2.2-1.2l2.5-1.6c0.6-0.4,1.6-0.8,2-1.2c1.4-1.1,1.7-4.7,1.3-6.5c-2.6,1.1-1.9,1.2-3.6,2.2c-0.6,0.4-1,0.4-1.4,0.6
	C218,343.8,217.9,344.3,217.8,344.8L217.8,344.8z M235.3,338.7l1.6,1.2l1.2,2.2c1-0.4,1.1-0.8,1.7-1c0.3-0.2,2.4,0.3,1.9-1
	c-0.2-0.1-0.4-0.3-0.5-0.5l-0.1,0.5c-0.5-0.5-1.3-1.1-2-1.3C238.5,338.6,236.1,338.6,235.3,338.7L235.3,338.7z M240.9,339.5
	c2.3-0.2,1.9-0.8,3.2-1c0.6-0.2,1.7,0,2.3,0.1l-0.1,0.7c1.4,0.5,1.3-0.3,2.3,0c1,0.4,1.7,1.7,3.4,2.2c0.7,0.3,1,0.4,1.7,0
	c0.4,0.6,0.6,0.6,1.2,0.6c0.1-0.8,0.6-1.1,0.3-1.5c-0.2-0.5-2-1.2-2.1,0.5c-0.6-0.8-0.3-1-0.5-1.5c-0.6-0.8-1.8-0.8-2.6-0.6
	c-0.3-1.6-0.1-1.2-2.4-2.3c-0.7-0.4-2.3-1.1-3.1-1.2c-1-0.1-1.3,0.6-2.1,1c-0.4,0.5-1,0.4-1.4,0.8
	C240.7,337.9,240.8,338.9,240.9,339.5L240.9,339.5z M275.8,332.2l2.1,2.3c0.8,1.1,1.6,2.2,2.5,3.1c0.7,0.6,1.8,1,2.7,0.8
	c0.6-0.2,2.6-2.2,1-3.1c-0.5-0.3-1.3,0.1-1.8,0.2c0-1.2,0-1.8-0.3-3c0-0.3-0.1-1-0.8-0.8c-0.8,0.4,0.1,2.8-1.1,2.1l-0.5-0.3
	l-0.5-0.5c-0.6,0.7,0.1,1,0.7,1.6c0.7,0.6,1.3,1.2,1.4,2.2c-1.8-1.2-1.9-2.2-3.1-3.6C277.3,332.6,276.8,332.1,275.8,332.2
	L275.8,332.2z M283,330.6c0.5,1.1,2.2,3.6,3.4,4C285.6,333.2,284.5,331.1,283,330.6L283,330.6z M160.7,342.7c0.5,0,1.2-0.1,1.5-0.1
	l4.3,1.3c1.2,0.2,2.4,0.3,3.2,1.4c-2.1,0.2-1.7-0.2-3.4-0.5c-1.5-0.2-2,0.2-3.2,0.1c-0.7-0.1-1-0.2-1.5-0.4l-4.4,0.7
	c-1.2-0.1-1.4-0.9-2.1-1.1c-0.7-0.4-1.4-0.2-2,0.2c-1.1,0.4-2.2,1.2-3.3,2c-2,1.4-4.4,2.9-5.8,4.9c-1,1.4-0.8,2.2-1.8,3.7
	c-1,1.3-3.4,2.5-5,4.6c-1.2,1.6-1.1,2.6-1.5,3.1c-0.3,0.4-2.3,1.5-2.8,1.8c-0.5,0.2-1,0.3-1.3,0.5c-0.5,0.4-0.7,0.9-1,1.4l-1.6,1.8
	c-0.4,0.7-2.1,3.4-2.2,4c0,1.2,1.9,1.7,0.9,3.3c-0.1,0.2-0.3,0.4-0.4,0.5c-1.1,0.8-1.4-0.4-2.2-0.5c-1-0.2-2.6,1.1-3.5,0.3
	c-0.6-0.6-0.3-1.5-0.4-2.1c-0.3-0.8-0.6-1.1-0.9-1.8c-0.4-0.8-0.1-2.3-1.3-3.9c-0.6-0.9-1.3-1.2-1.8,0l-0.4,1
	c-0.7-1.4-0.3-2.6-1.5-2.9c-1.5-0.2-2,1.7-2.9,2.8c-2.2,2.7-2.6,2.4-4.3,3.7l-2.2,2.4l-1.4,1c-0.8,0.7-1.3,2.3-1.6,3.3l-1.6,6.7
	c-0.4,1.4-0.9,3.6-2.4,4.1c-0.5,0.2-2,0.2-2.5,0.1c-0.5-0.3-0.9-0.8-1.4-0.9c-0.5,0-1.8,0.2-3-0.4c-0.7-0.6-1.7-1.9-2.4-2.1
	c-0.7-0.3-1.4-0.2-2-0.2c-0.8,0.1-2,0.2-2.7,0.1c-1.7-0.5-2.8-3.1-3.5-4.5c-0.2-0.6-0.7-1.6-1.2-1.9c-0.7-0.6-1.6,0.5-2.5,0.2
	c-0.7-0.1-2.2-1.6-3.1-2.1c-0.2-0.2-0.7-0.6-1-0.4c-0.3,0-0.4,0.7-0.6,1.1c0,1.3,0.3,1.6,1.1,2.6c0.2,0.1,0.8,0.8,0.3,1.1
	c-0.8,0.6-1.9-2-2.8-0.8c-0.1,0.3-0.1,0.5-0.3,0.7l-0.3,0l-0.8-2.8l-0.1-1.2l-1.1-2.6l-1.4,1.3l-0.3-1.5l-0.5-1.1
	c-0.3-0.8-0.9-0.8-1.5-0.4c-1.2,0.9-2.1,2.4-2.9,2.9c-0.9,0.6-1.7,0.1-2.3,0.4c-0.8,0.4-1.3,1.5-1.6,2.3l-1.3,6.8
	c-1.1,5.3-1.8,6.5-1.2,12.1l0.7,3.1l0.6,4.3l0.6,2.1l0.3,0c-0.2-2.2-0.2-6.2,0.4-8.2c0.6-2.2,1.6-2.6,1.6-5.3l0.4,2.1
	c0.9-0.9,0.8-1.6,2.1-2.2c0.4,0.8,0.6,0.9,0.9,1.9c0.3,0.8,0.3,1.5,0.7,2.3c0.4,0.8,0.8,0.9,1.2,1.6c0.4,0.5,0.6,1.3,0.9,1.9
	c0.5,1.1,0.8,2.9,2.2,3.3c0.5-1.2,0.4-2.7,0.4-4.1c0.1-0.3,0.2-1.4,0.5-1.5c0.8-0.2,1.1,1.2,1.2,1.7c0.5,1.3,0.8,2.9,1.6,4
	c0.8,1.4,1.5,1.2,2.5,3.5l0.2-0.9c0.5,1.1-0.1,2,1.1,2.7c-0.1-0.7-0.2-3.5,0.1-4c0.1-0.3,0.6-0.4,1-0.4l0.8,5.6
	c0.1,0.7,0.3,1.5,0.7,1.9c0.9,0.9,2,0.2,2.4,1l0.7,3c0.6,2.1,1.3,4.7,2.2,6.7c0.7,1.4,1.5,3.4,2.6,4.4c0.4,0.5,1,1.1,1.6,0.9
	c0.6-0.2,0.4-1,0.5-1.5c0.1-0.7,0.4-0.9,0.5-1.4c0.1-0.8-0.2-1.8,0.2-2.5c-0.2,1,0.1,1.2,0.2,2.2c0.1,1.3,0.5,2.8,0.9,4.1
	c0.7,1.9,1.2,3.7,2.4,5.5c0.8,1.1,2.6,2.4,3.7,3.4c1.5,1.5,3,2.9,4.8,4.3l2.2,1.5l1.8,1.2c1.6,0.9,1.8-0.7,2.8-0.7
	c0.5,0.1,2.3,1.5,2.9,1.9c2.8,2.6,1.9,1.8,3.8,4.2l4.3,4.6c1.1,1.1,2.5,3.1,4,3.3l1.5,0.2c1.7,0.4,3.6,1,5.4,0.5
	c0.7-0.1,1.1-0.4,1.4-0.8c0.4-0.5,0.7-1.2,1.4-1.3c0.7,0.1,2.3,0.8,2.9,1.1c1.8,0.8,4.3,2.3,6.1,2.6c1.9,0.3,3.2-1.1,2.9-2.4
	c-0.5-1.3-2.5-2.6-3.5-4.7c-1-1.7-1.7-3.7-2.9-5.3l-2.7-3.3l-1.6-2.5l-0.8-1.1c-0.2-0.3-0.5-1.5-0.5-2l-1.8-4.7
	c-0.8-1.6-2.5-1.4-3.6-3.7c0.8,0.9,2.2,2.1,3.3,2.5c-0.5-1.3-1.5-3.4-2.3-4.5l-1.7-1.7c0.9,0.8,1.6,1.4,2.8,1.6l0.4-1.4
	c0.5-1.4,1-1.6,1-3.3c-0.1-2.8-2.8-6.9-3.1-10.4c-0.2-1.5,0.2-3,0.3-4.5l0-2.7c-0.1-0.5,0.2-0.9,0.3-1.5l0-1.8
	c0.2-1,0.4-1.4,0.2-2.4L128,400l-0.1-2l-0.3-2.6c-0.2-2,0.9-2.9,1-4.3c0.1-0.7-0.8-2.4-1.1-2.7c-0.5-0.3-1.7,0-1.3-0.9
	c0.4-0.9,1.9,0.7,2.3,1.1c0.5-1.7,0.1-2-0.2-3.5l-0.6-4.3c-0.3-1.1-1-1.7-1.1-2.2c0.1-0.5,0.6-0.6,1.2-1.3c0.6-0.7,0.8-1.6,0.9-2.4
	l0-2.8c0.2-1.4,1.3-3.1,2.8-3.6c1.5-0.3,3,1.2,3.8,1.2c0.8-0.1,1.2-0.9,1.5-1.5l1.9-5.5l0.3,0c0.8,1.4,1.7,1.7,2.8,2.8l1,1.1
	c0.2,0.1,0.5,0,0.8-0.2c0.6-0.7,1.3-3.5,0.9-4.3c-0.2-0.6-1-1.3-1.2-2.1c-0.1-0.5,0.2-1,0.5-1.5c0.4-1,0.6-2.2,1.3-3
	c1.5-1.6,4.5-1.9,6.3-0.6c0.9,0.8,0.8,1.3,1.2,1.7c0.6,0.6,1.4,0.5,1.7,1.5c0,0.3,0,1.2-0.2,1.7c0.1,1,0.3,1.3-0.1,2.4
	c-0.6,1.1-1.5,1.8-1.8,3c-0.5,1.4,0.3,1.5,0.1,2.7c-0.4,1.2-1.3,2.1-1.6,3.3c-0.4,0.7-0.4,1.4-1.1,1.9c-0.6,0.4-1.6,0.3-2.3,0.4
	c-1,0.3-1.7,0.8-2.5,1.2c0,0.3,0.1,0.7,0.3,1c0.3,1,1.1,0.9,1.9,0.7c1.3-0.3,3-1.3,4.3-0.2c1.1,1.1,1.5,4.2,2.4,5.3
	c0.9,0.8,1.6,0.7,2.6,0.9c0.7,0.3,1.2,0.6,1.8,1c1.3,1.1,0.9,1.9,1.5,2.7c0.5,0.5,1,0.2,1.6,0.9l2.4,4l1.7-1.5
	c0.6,0.6,1.2,0.6,1.3-0.3c-0.1-0.5-0.3-1.5-0.5-2c1.1,1.1,1.2,1.9,1.2,3.4c0,0.3-0.1,0.7,0.1,1c0.1,0.7,0.9,1.9,1.4,2.4
	c0.7,0.4,1.2,0.2,1.8-0.2c0.6-0.9,0.9-2.4,1.8-3.5c0.7-0.9,2.2-1.2,3.5-2.8c-0.3-0.1-1.4-0.5-1.3-1.1c0.3-0.7,1.3-0.8,1.9-1.2
	c0.9-0.8,1.6-2,1.8-3.2l-2-0.2l-1.2-0.2l-1.7,0.1l-1.6-1.2l-2.3-0.1c0.4-0.9,0.7-1.4,1.7-1.5c0.5,0,1.2,0.2,1.5,0
	c0.6-0.2,0.6-0.9,1-1.3c0.9-1.1,2.2-1.4,2.4-2.7c1.4,0.2,1.7-0.1,2.3,0c1.4,0.5,1.8,3,2.5,4.3c-1.7-0.5-1.4,1-1.4,2.1
	c0.6-0.4,1.4-1.3,2-1.5l2.2,0c0.5,0,0.6-0.2,1.1-0.4c1.1-0.3,1.9,0.5,2.5,1.4c0.6-0.4,0.6-0.7,0.2-1.4l0.8-0.1l-0.5-1.3
	c-0.8,0.1-1-0.1-1.2,0.8c-0.7-0.4-0.7-0.4-1.6-0.5l0.6-0.6l0-0.3c-1.4-0.7,0.2-1.2,0.4-2c0.1-0.5-0.1-0.8-0.3-1.1l2.1-0.9
	c0.9-1.1,1.6-0.3,2-1.5c1.7,0.3,1.1-1.8,2.4-2.2c0.3-0.2,0.8-0.1,1.2-0.1c0.5-0.2,1-0.4,1.4-0.6c0.7-0.1,1-0.1,1.6-0.3
	c0.6-0.4,1.2-1.3,1.6-1.8c0.3-0.4,0.9-0.9,1-1.3c0.1-0.5-0.1-1-0.2-1.8c0.7,0.1,1.2,0.1,1.6-0.5c0.5-0.4,0.4-1-0.3-1.3
	c-0.2,0-0.7,0.1-0.8,0.1l2.3-2l0.4-2l-0.6,0.2l0.2-1l-1.8,0.2c0.3-0.4,1.2-1.4,1.5-1.8c0.8-0.6,1.6-0.5,2-1.5
	c-1.6,0.3-3.6,1.8-4.7,3.1l-1.6,2.2l0.1-0.7c-1.6,0.5-1.5,1.5-2.1,1.9l-0.3,0.2c0.5,0-2.8,0.1-2.3,0.2c-0.8-0.1-1.8-0.8-2.5-1.4
	c-0.6-0.5-0.9-0.9-1.6-0.5l-3.1-2.4c0.3-0.4,0.4-0.5,0.1-0.8c-0.4-0.3-1.2-0.6-1.9-1c-1.3-1.1-1.2-2.1-1.4-3.6
	c-0.1-1.3-0.3-1.3-0.8-2.4c-0.2-0.5-0.3-0.8-0.6-1.3c-0.4-0.5-1.3-1.1-1.8-1.5c-0.7-0.6-1.6-1.4-2.5-1.4c-1.2-0.2-2.1,0.5-3.1,0.3
	c-0.9-0.3-2-1.3-3-1.7c-0.7-0.1-1.5,0-2.2,0c0-0.3-0.1-1-0.5-1.1c-0.5-0.3-1.5,0.1-2.1,0.2c-0.7,0.1-0.9-0.4-1.4-0.5
	c-0.5-0.1-2.8-0.1-3.1,0.3C160.4,341.9,160.6,342.4,160.7,342.7L160.7,342.7z M278.7,325.4c1.4,1.7,3.8,4,5.8,4.3
	c-0.6-1-1.1-1.1-1.8-1.7C281.6,327.3,279.8,325.8,278.7,325.4L278.7,325.4z M265.5,318.8l-0.4-0.8c0.7,0.3,1.4,0.5,1.8,1.2
	c0.2,0.5,0.3,0.8,0.3,1.3c0.1,1,1.8,3.2,2.9,3.3c0.3,0.1,0.3,0,0.7-0.1l-0.9-3.3c-0.4-0.5-0.9-0.3-1.4-0.9l-3.4-4
	c-0.2-0.3-1-1.3-0.9-1.8c0.3-0.4,1.1-0.4,1.5-0.5l-3.1-2.9c-0.4-0.3-0.9-0.9-1.6-0.7c-0.6,0.2-0.9,1.1-1.2,1.6
	c-0.3,0.5-0.7,1.1-0.7,1.6c0.2,0.6,1,1.4,1.4,1.9l2.9,2.4C264.1,317.9,264.5,318.3,265.5,318.8L265.5,318.8z M308.3,318.4
	c-0.4-2.5-2-4.8-3.9-6.7l-2.9-2.4c-1.1-1.2-2.4-3.3-4-4.8c-1.8-1.5-3.2-1.9-4.8-3.1l-2.8-2.4l-4.9-4.1c-1.3-1.1-2.8-2.8-3.8-4
	c-1-1.4-0.7-1.9-1.3-2.6c-0.4-0.5-1.8-1-2.5-1.1l0.3-0.7l-1.2-0.6c0.7-1.4-0.3-1-1.2-2.2c-0.4-0.5-0.5-1.1-1.1-2.1
	c-0.9-1.1-2.2-2-3.5-2.7l-6-3.3c-1.9-1-4.6-2.4-6.8-2.6c-1.7,0-2.7,0.9-4.4,1.2c-1.5,0.3-4.6,0.3-5.7,1.7c-1,1.3,1.6,3.5,2.5,4.5
	l2.6,2.6c0.8,0.8,1,1.3,1.7,2.2c0.7,0.6,2.2,1.5,2.8,2.3c0.6,0.8-0.4,1,0.4,2.1c0.6,0.9,2.1,2.2,2.5,3.1c0.2,0.6,0.3,1.6,0.9,2.1
	c0.5,0.3,1.2-0.1,1.6-0.2c0.8-0.2,3.2-1.5,3.9-1c0.7,0.4,3.1,2.9,3.7,3.5c0.4,0.3,1.1,1.1,1,1.6c0.1,0.8-2.5-0.1-1.9,1
	c0.2,0.3,1.8,1.2,2.3,1.6l2,1.8l2.4,1.8c0.6,0.5,1.1,1.4,1.7,1.7c1,0.4,1.6-0.8,2.5-0.2c1.8,0.8,3,3.2,4.8,4.7
	c1.2,0.7,1.6,0.5,2.6,0.9c0.9,0.4,1.5,1,2.3,1.6c1.4,0.7,1.5,0.2,3.2,1.6c2.2,1.8,4.1,3.6,5.9,5.7c0.7,0.8,2.6,2.4,3.5,2.7
	c0.2,0,0.3,0,0.5,0l1.9-1c0,0,0.2,0,0.1-0.2c0.1-0.5,0-1.2,0.1-1.7c0.1-0.5,0.4-0.7,0.5-1.4c0.1-0.5,0-1.5,0.5-1.7
	C307.1,317.5,308,318.3,308.3,318.4L308.3,318.4z M268,275.4c-0.1-0.7-0.3-0.8-0.5-1.5c-1-1.4-2.1-2.3-3.6-2.9
	c-0.5-0.1-2.1-0.5-2.3,0c-0.4,0.7,1.4,1.9,1.9,2.2c0.6,0.5,1.2,0.7,1.8,1.2C266.3,275,266.8,275.1,268,275.4L268,275.4z
	 M203.3,261.5c2.2,0.1,3,0.1,5.1,0.9c1.9,0.7,3,1.7,5.2,1.9l-2.4-2.6l1.4-1c-0.7-0.6-1.1-0.6-1.8-1c-0.4-0.3-0.4-0.6-0.8-0.9
	c-0.3,0-1.2,0.1-1.5,0.1c-1,0.3-1.8,0.5-2.9,0.9C204.7,260,203.4,260.3,203.3,261.5L203.3,261.5z M213.3,256.9
	c-0.2,0.9-1,1.1-1.8,1.7c0.2,0.1,0.2,0.3,0.4,0.5c0.5,0.3,3.3,0.7,3.9,0.8c1.7,0,1.7-1,3.7-1.3l2.5-0.4c2.3-0.2,5.5-0.3,7.5-1.3
	c-0.8-1.1-1.3-1.1-2.5-1.4c-1.9-0.5-3.9-0.7-5.8,0c-1.8,0.5-1.7,1.2-4,1.4L213.3,256.9L213.3,256.9z M178.2,540.3
	C139.7,532.1,186.1,542,178.2,540.3L178.2,540.3z"/>
</svg>
