<?xml version="1.0" encoding="UTF-8" standalone="no"?>
<svg width="100%" height="100%" viewBox="0 0 1024 460" version="1.1" xmlns="http://www.w3.org/2000/svg" xmlns:xlink="http://www.w3.org/1999/xlink">
    <!-- Generator: Sketch 3.6 (26304) - http://www.bohemiancoding.com/sketch -->
    <title>Process-Template 2</title>
    <desc>Created with Sketch.</desc>
    <defs></defs>
    <g id="Page-1" stroke="none" stroke-width="1" fill="none" fill-rule="evenodd">
        <g id="Process-Template">
            <g id="ProcessAll">
                <g id="Group">
                    <g id="Shape">
                        <path d="M390,0.290000916 L274,458.999992 L645.3,458.999992 L755.7,0.290000916 L390,0.290000916 L390,0.290000916 Z" fill="#E6EFC6"></path>
                        <path d="M0,0.290000916 L0,458.999992 L281.8,458.999992 L412.7,0.290000916 L0,0.290000916 L0,0.290000916 Z" fill="#C6E7E0"></path>
                        <path d="M1023.8,0.290000916 L726.3,0.290000916 L629.9,458.999992 L1024,458.999992 L1023.8,0.290000916 L1023.8,0.290000916 Z" fill="#F7E9AD"></path>
                    </g>
                    <path d="M127.8,361.2 C127.8,361.2 -113.8,88.1 218.4,49.1 C412.9,23.5 471.8,290 471.8,290" id="Shape" stroke="#010101" stroke-width="4" stroke-dasharray="14" opacity="0.1"></path>
                    <path d="M511.3,289.5 C511.3,289.5 514.4,158.1 664.8,157.4 C809,156.9 857.8,265 857.8,265" id="Shape" stroke="#010101" stroke-width="4" stroke-dasharray="14" opacity="0.1"></path>
                    <g transform="translate(63.000000, 242.000000)">
                        <path d="M159.3,29.1 C159.3,20.4 155,12.9 148.6,8.1 C151,20.1 154.5,48.3 137.6,54.9 C149.9,52.7 159.3,42 159.3,29.1 L159.3,29.1 L159.3,29.1 Z" id="Shape" fill="#65C8CB"></path>
                        <path d="M44.7,35.3 C44.7,35.3 39.7,38.8 44.3,46.5 C49,54.3 55.4,56.5 53.5,62.3 C51.6,68.1 67,63.8 70.6,62.3 C74.2,60.8 90.4,60.7 90.4,62.3 C90.4,63.9 98.3,54.5 97.4,41.8 C96.5,29.1 92.4,16.8 82,18.1 C71.6,19.5 44.7,35.3 44.7,35.3 L44.7,35.3 L44.7,35.3 Z" id="Shape" fill="#173F3D"></path>
                        <path d="M61.5,90.2 L103.8,100.9 L217.2,79.2 C217.2,79.2 209.6,137.8 102.9,137.8 C64.1,137.8 40,130 25,120.1 C-1.1,102.8 0.6,79.1 0.6,79.1 L61.5,90.2 L61.5,90.2 L61.5,90.2 Z" id="Shape" fill="#94D3D2"></path>
                        <path d="M96.5,29.1 C96.5,14.5 84.7,2.7 70.1,2.7 C61.9,2.7 54.6,6.6 49.8,12.5 L71.8,22.8 L78.5,29.1 C78.5,29.1 86.7,41.1 86.7,49.3 C92.6,44.5 96.5,37.3 96.5,29.1 L96.5,29.1 L96.5,29.1 Z" id="Shape" fill="#94D3D2"></path>
                        <path d="M78.4,58.7 C78.4,58.7 99.7,51.1 95.4,72.4 C91,93.7 75.6,101 75.6,101 L68.4,97 C68.4,97 78.7,89.8 82.2,83.3 C85.7,76.9 88,68.2 86.5,66.7 C85,65.2 86.2,83.2 86.2,83.2 L73.8,94.4 L57.2,90.1 L61.8,62.3 C61.8,62.3 66.2,57.6 70.4,58.4 C74.5,59.2 76.7,59.7 76.7,59.7 L78.4,58.7 L78.4,58.7 L78.4,58.7 Z" id="Shape" fill="#25BDC2"></path>
                        <path d="M127.9,100.5 L133.8,107.4 L185.5,102.4 L185.5,100.1 L127.9,99 L127.9,100.5 L127.9,100.5 Z" id="Shape" fill="#173F3D"></path>
                        <path d="M127.9,99 L133.8,105.2 L185.5,100.1 L173.9,93.3 L127.9,99 L127.9,99 Z" id="Shape" fill="#1A5B56"></path>
                        <path d="M83.6,100.5 L77.7,107.4 L26.1,102.4 L26.1,100.1 L83.6,99 L83.6,100.5 L83.6,100.5 Z" id="Shape" fill="#173F3D"></path>
                        <path d="M83.6,99 L77.7,105.2 L26.1,100.1 L37.6,93.3 L83.6,99 L83.6,99 Z" id="Shape" fill="#1A5B56"></path>
                        <path d="M130.4,60.3 C130.4,60.3 112.6,65.4 112.5,79.7 C112.4,94 110.4,101 120.8,100.8 C131.2,100.8 133.9,98 133.9,98 L135.9,90.4 C135.9,90.4 126.3,95.1 121.6,87.3 C116.9,79.5 122.8,72.7 122.8,72.7 L122.8,92.6 L158.1,91.4 L153.3,65.6 C153.3,65.6 146.1,57 138.3,58.6 L130.4,60.3 L130.4,60.3 L130.4,60.3 Z" id="Shape" fill="#1F8C8F"></path>
                        <path d="M106.7,29.1 C106.7,29.1 100.4,34.6 104.2,40.6 C108.1,46.6 110,41.9 110,41.9 L106.7,29.1 L106.7,29.1 L106.7,29.1 Z" id="Shape" fill="#194E4B"></path>
                        <g id="Shape" transform="translate(145.000000, 46.000000)">
                            <path d="M44.8,0.9 C42.3,35.3 19.9,45.1 8.1,47.9 C16.1,48.2 36.9,49.6 40.9,45.4 C45.3,40.7 47.5,5.4 47.5,5.4 C47.5,5.4 47.6,1.7 44.8,0.9 L44.8,0.9 L44.8,0.9 Z" fill="#194E4B"></path>
                            <path d="M44.8,0.9 C44.5,0.8 44.3,0.6 43.9,0.6 L2.7,0.6 C2.7,0.6 0.3,2.3 1,9.4 C1.7,16.5 0.9,45 0.9,45 C0.9,45 0.4,47.9 6.1,47.9 L8.1,47.9 C20,45.2 43.6,35.9 44.8,0.9 L44.8,0.9 L44.8,0.9 Z" fill="#1A5B56"></path>
                        </g>
                        <path d="M172.5,74.2 C172.5,74.2 168.2,75.1 170.1,79 C172,82.9 172.5,93.5 171,98 C169.5,102.6 168.3,106 168.3,106 C168.3,106 170.3,109.3 173.7,106 C177.1,102.7 179.3,96.5 179.3,87.9 C179.3,79.6 176.4,76.3 172.5,74.2 L172.5,74.2 L172.5,74.2 Z" id="Shape" fill="#173F3D"></path>
                        <path d="M185.5,104.9 C185.5,104.9 183.5,109.3 177.2,109.7 C170.9,110.2 159.9,109.7 159.9,109.7 C159.9,109.7 154.3,109.2 155.5,107.4 C156.7,105.5 162.3,105.7 168.9,104.9 C175.3,104.2 185.5,104.9 185.5,104.9 L185.5,104.9 L185.5,104.9 Z" id="Shape" fill="#173F3D"></path>
                        <path d="M153.1,12.4 C153.1,12.4 153.6,7.4 159.1,10.8 C164.6,14.2 165.5,17 165,20.2 C164.5,23.4 161.4,22.9 165.1,27.4 C168.8,32 167.5,31.7 167.5,31.7 C167.5,31.7 161.7,32.4 160.4,27.8 C159.1,23.2 155.3,24.2 155.3,18.7" id="Shape" fill="#173F3D"></path>
                        <path d="M137.4,55 C137.4,58.3 139.4,61.3 139.4,61.3 C139.4,61.3 134.3,62.1 132.3,62.4 C130.2,62.7 128.7,55 128.7,55 L137.4,55 L137.4,55 L137.4,55 L137.4,55 Z" id="Shape" fill="#65C8CB"></path>
                        <path d="M129.8,97.3 C129.8,97.3 131.4,101.7 135.7,100.9 C140,100.1 137.4,97.3 137.4,97.3 C137.4,97.3 139.4,100.2 143,99.2 C146.6,98.1 150.4,92.8 143,91.6 C135.6,90.4 136.4,89.7 133.9,91.1 C131.6,92.3 129.8,97.3 129.8,97.3 L129.8,97.3 L129.8,97.3 Z" id="Shape" fill="#94D3D2"></path>
                        <path d="M72.8,55 C72.8,55 73.3,62.9 76.9,62.4 C80.5,61.9 76.9,52.9 76.9,52.9" id="Shape" fill="#C6E7E0"></path>
                        <path d="M70.8,94.5 C66,94.5 64,99.2 64,99.2 C64,99.2 63.2,103.9 65.5,100.9 C67.8,98.1 69.2,99.2 69.2,99.2 C69.2,99.2 65.3,101.2 68.4,101.9 C71.5,102.6 72.8,100.6 72.7,99.2 C72.6,97.8 72.4,102.7 74.6,102 C76.7,101.3 78.3,98 76.9,96.9 C75.5,95.7 77.1,94.5 70.8,94.5 L70.8,94.5 L70.8,94.5 Z" id="Shape" fill="#C6E7E0"></path>
                        <path d="M42.3,92 C37.5,92 35.5,96.7 35.5,96.7 C35.5,96.7 34.7,101.4 37,98.4 C39.3,95.6 40.7,96.7 40.7,96.7 C40.7,96.7 36.8,98.7 39.9,99.4 C43,100.1 44.3,98.1 44.2,96.7 C44.1,95.3 43.9,100.2 46.1,99.5 C48.2,98.8 49.8,95.5 48.4,94.4 C46.8,93.4 48.4,92.2 42.3,92 L42.3,92 L42.3,92 Z" id="Shape" fill="#C6E7E0"></path>
                        <path d="M10.6,104.2 C10.6,104.2 12.6,108.6 18.9,109 C25.2,109.5 36.2,109 36.2,109 C36.2,109 41.8,108.5 40.6,106.7 C39.4,104.8 33.8,105 27.2,104.2 C20.6,103.4 10.6,104.2 10.6,104.2 L10.6,104.2 L10.6,104.2 Z" id="Shape" fill="#173F3D"></path>
                        <ellipse id="Oval" fill="#FFFFFF" cx="112.1" cy="112.7" rx="17.7" ry="7.5"></ellipse>
                        <path d="M86.4,66.7 C86.4,66.7 81,68.7 82,75.3 C82.9,81.7 78.7,88.2 77.3,89.4 C76,90.6 77.3,89.4 77.3,89.4 L85.9,79.8 L86.4,66.7 L86.4,66.7 L86.4,66.7 Z" id="Shape" fill="#1F8C8F"></path>
                        <path d="M84.8,24 C84.8,24 87.3,26.8 86.5,29.1 C85.6,31.4 82.1,36.3 82.1,36.3 C82.1,36.3 85.8,34 86.7,31.5 C87.5,29 88,27.1 87.5,26 C86.8,24.9 84.8,24 84.8,24 L84.8,24 L84.8,24 Z" id="Shape" fill="#1F8C8F"></path>
                        <path d="M112.1,17 L107.3,21.4 C107.3,21.4 111.2,25.7 108.9,27.4 C106.6,29.1 105.3,29.8 105.3,33.6 C105.3,37.4 108.6,43.6 108.6,43.6 C108.6,43.6 113.4,49.8 116.4,41.9 C119.4,34 112.1,17 112.1,17 L112.1,17 L112.1,17 Z" id="Shape" fill="#173F3D"></path>
                        <path d="M149,8.9 C144.6,5.7 139.2,3.7 133.3,3.7 C126.7,3.7 120.7,6.1 116,10.1 C112.9,14.4 109.7,20.1 110.9,25 C112.9,34 109,35.7 112.5,42.8 C113.7,45.2 114.4,47.2 115,49 C119.7,53.6 126.1,56.4 133.2,56.4 C134.8,56.4 136.3,56.3 137.9,56 C154.8,49.1 151.4,21 149,8.9 L149,8.9 L149,8.9 Z" id="Shape" fill="#94D3D2"></path>
                        <path d="M107.2,21.4 C117.4,16.8 121.9,13.9 123.5,12.3 C125.1,10.7 121.6,15.2 121.6,15.2 C121.6,15.2 129.8,15.2 135.7,12 C141.6,8.8 146.8,9.7 145.9,14.7 C145,19.5 149.1,19.5 151.8,18.6 C154.3,17.7 155.7,30.9 153.8,33.5 C151.9,36 150.2,39.4 153.1,40.6 C156.2,41.8 161.4,36.2 159.4,25.5 C157.4,14.8 151.1,2.1 137.6,2.1 C124.1,2.1 117.8,5.7 112,10.5 C106.1,15.2 107.2,21.4 107.2,21.4 L107.2,21.4 L107.2,21.4 Z" id="Shape" fill="#173F3D"></path>
                        <path d="M122.6,4.9 C122.6,4.9 114.8,8.5 111.1,13.3 C107.4,18.1 118.5,9.7 118.5,9.7 L122.6,4.9 L122.6,4.9 L122.6,4.9 Z" id="Shape" fill="#1C6868"></path>
                        <path d="M131.6,5.8 C131.6,5.8 129.9,12.9 125.3,13.6 C120.7,14.3 126.5,15.2 130.3,11.3 C134,7.4 131.6,5.8 131.6,5.8 L131.6,5.8 L131.6,5.8 Z" id="Shape" fill="#1C6868"></path>
                        <g id="Shape" transform="translate(98.000000, 106.000000)">
                            <path d="M21,5.1 C21,5.1 19.9,2.8 18.6,1.5 C18.2,1.1 18.1,0.8 17.9,0.6 C16.8,1 16.2,1.5 16.2,1.5 L0.3,6.7 L20.5,9.5 C20.5,9.5 20.9,9.8 21.4,10 C20.2,7.7 21,5.1 21,5.1 L21,5.1 L21,5.1 Z" fill="#25BDC2"></path>
                            <path d="M25,9.5 C24.6,5.9 23.5,0.9 21.1,0.4 C19.9,0.1 18.8,0.4 17.9,0.7 C17.9,1 18.2,1.2 18.6,1.6 C20.1,2.8 21,5.2 21,5.2 C21,5.2 20.3,7.9 21.4,10.2 C22.7,10.8 25.3,12 25,9.5 L25,9.5 L25,9.5 Z" fill="#94D3D2"></path>
                        </g>
                        <ellipse id="Oval" fill="#1F8C8F" cx="113.6" cy="109.3" rx="2" ry="0.8"></ellipse>
                        <ellipse id="Oval" fill="#1F8C8F" cx="109.9" cy="112.7" rx="2" ry="0.8"></ellipse>
                        <path d="M78.5,29.1 L71.8,22.8 L58.1,16.4 C55.7,20.1 48.3,30.1 53.3,36.3 C56.5,40.3 53.6,48.7 54.2,52 C58.2,54.5 64.9,55.5 70.1,55.5 C76.4,55.5 82.1,53.2 86.6,49.5 C86.7,41.2 78.5,29.1 78.5,29.1 L78.5,29.1 L78.5,29.1 Z" id="Shape" fill="#C6E7E0"></path>
                        <path d="M46.8,35.3 C53.1,34.1 52.6,36.8 57,36.2 C73.3,34.5 66.8,27.5 66.1,27.6 L46.8,35.3 L46.8,35.3 L46.8,35.3 Z" id="Shape" fill="#94D3D2"></path>
                        <path d="M64.8,37.7 C71.1,36.5 67.5,37.8 71.8,36.5 C77.2,34.8 77.6,27.7 76.8,27.7 L64.8,37.7 L64.8,37.7 L64.8,37.7 Z" id="Shape" fill="#94D3D2"></path>
                        <g id="Shape" transform="translate(38.000000, 0.000000)">
                            <g id="Group">
                                <path d="M55.5,39.2 C57,36.1 55.2,32.2 53.2,28.4 C51.3,24.5 53.6,22.2 55.5,16.4 C56.8,12.1 52.8,6.8 50.3,4 C49.5,3.9 48.7,3.7 47.8,3.9 C36.7,4.3 44.1,-1.1 30.3,0.6 C16.5,2.2 12.6,8.4 8.1,14.5 C3.5,20.7 7.4,24.5 4.4,26.5 C1.3,28.6 6,35.7 2,36.4 C-2,37.1 2.7,39.3 6.4,36.4 C6.4,36.4 16,37.7 21.5,31.8 C27,25.9 27.4,36.4 25.6,38 C24,39.6 32.2,37.3 35.4,32.1 C38.6,26.9 43.8,35 42.5,38.4 C41.2,41.8 50.9,33.7 50.4,30 C49.9,26.3 51.3,28.9 50.4,39.2 C49.9,45.5 50.9,50.4 52.8,52.1 C51.4,49.5 54.1,42.1 55.5,39.2 L55.5,39.2 L55.5,39.2 Z" id="Shape" fill="#1C6868"></path>
                                <path d="M58.5,26.7 C60.6,21.2 64.4,20.5 60.9,16.7 C57.7,13.1 57.8,4.8 49.5,3.7 C51.9,6.5 55.9,11.9 54.7,16.1 C52.8,22.1 50.6,24.3 52.4,28.1 C54.3,32 56,36 54.7,38.9 C53.2,42 50.6,49.3 52.3,51.8 C53.5,52.9 55,52.6 56.6,50.7 C60.7,45.7 56.7,35.7 61.7,36 C66.5,36.5 56.3,32.2 58.5,26.7 L58.5,26.7 L58.5,26.7 Z" id="Shape" fill="#194E4B"></path>
                            </g>
                            <path d="M29.3,2 C29.3,2 15.8,4.3 11.9,14.2 C8,24.1 11.2,11.9 18.5,8.6 C25.7,5 29.3,2 29.3,2 L29.3,2 L29.3,2 Z" fill="#1F8C8F"></path>
                            <path d="M22.6,21.4 C22.6,21.4 20.7,29.6 13.5,31.6 L6.1,33.6 C6.1,33.6 16.1,33.7 19.2,30.4 C22.3,27.1 22.6,21.4 22.6,21.4 L22.6,21.4 L22.6,21.4 Z" fill="#1F8C8F"></path>
                            <path d="M9.5,29.9 C9.5,29.9 13.1,29.9 15.5,27.6 C17.9,25.5 19.2,22.6 19.2,21.2 C19.2,19.7 18.4,23.2 16.3,25.9 C14,28.7 9.5,29.9 9.5,29.9 L9.5,29.9 L9.5,29.9 Z" fill="#1F8C8F"></path>
                        </g>
                        <g id="Shape" transform="translate(0.000000, 47.000000)">
                            <path d="M6.7,45.2 C11.1,49.9 35.7,47.6 41.5,47.6 C47.4,47.6 46.7,44.7 46.7,44.7 C46.7,44.7 45.9,16.2 46.6,9.1 C47.3,2 44.9,0.3 44.9,0.3 C39.5,27.4 6.7,45.2 6.7,45.2 L6.7,45.2 L6.7,45.2 Z" fill="#194E4B"></path>
                            <path d="M0.1,5.2 C0.1,5.2 2.2,40.5 6.7,45.2 C6.7,45.2 39.8,28.2 45,0.4 L3.8,0.4 C-0.2,0.3 0.1,5.2 0.1,5.2 L0.1,5.2 L0.1,5.2 Z" fill="#1A5B56"></path>
                        </g>
                        <path d="M23.4,73.6 C23.4,73.6 27.7,74.5 25.8,78.4 C23.9,82.3 23.4,92.9 24.9,97.4 C26.4,102 27.6,105.4 27.6,105.4 C27.6,105.4 25.6,108.7 22.2,105.4 C18.8,102.1 16.6,95.9 16.6,87.3 C16.6,78.8 19.5,75.4 23.4,73.6 L23.4,73.6 L23.4,73.6 Z" id="Shape" fill="#173F3D"></path>
                    </g>
                    <g id="Shape" transform="translate(743.000000, 196.000000)">
                        <path d="M92.1,108.6 C92.1,108.6 87.5,157.5 91.3,159.7 C95.1,161.9 98.8,164.1 102.5,162.5 C106.2,160.9 102.1,115.2 108.4,113.6 C114.6,112.1 117.2,114.7 117.2,114.7 C117.2,114.7 116.3,161.4 118.9,160.9 C121.6,160.4 129.5,163.4 129.1,158.9 C128.7,154.3 134.9,107.5 129.1,102.4 C123.3,97.3 92.1,108.6 92.1,108.6 L92.1,108.6 L92.1,108.6 Z" fill="#BD5F28"></path>
                        <path d="M63,152.6 L106.2,163.6 L222,141.4 C222,141.4 214.2,201.2 105.1,201.2 C-4,201.2 0.6,141.4 0.6,141.4 L63,152.6 L63,152.6 L63,152.6 Z" fill="#F9E27A"></path>
                        <path d="M70.4,126.4 C70.4,126.4 72.9,143.3 72.9,151.3 C72.9,159.3 71.3,169.9 72.9,169.6 C74.5,169.3 82.1,171.3 84.3,168.3 C86.4,165.2 83.8,144.6 82.3,139.4 C80.7,134.2 84,129.1 88.5,127.5 C92.9,125.9 96,128.3 96,135 C96,141.7 96.5,146.1 96,150.9 C95.5,155.9 94.4,164 96.3,165.9 C98.2,167.8 107.3,168.3 106.9,165.9 C106.5,163.5 105.8,118 100.2,114.4 C94.2,110.7 70.4,126.4 70.4,126.4 L70.4,126.4 L70.4,126.4 Z" fill="#F1B61E"></path>
                        <path d="M173.7,122.5 L173.7,125.7 C173.7,128 174,130.4 175.8,130.4 C177.7,130.4 175.8,127.5 175.8,127.5 C175.8,127.5 178.3,129 178.6,131.5 C178.9,134 184.4,135.2 183.8,131.5 C183.3,127.8 182.6,121.5 178.7,121.1 C174.9,120.6 173.7,122.5 173.7,122.5 L173.7,122.5 L173.7,122.5 Z" fill="#D66D27"></path>
                        <path d="M64.5,66.6 C64.5,66.6 55,73.2 54.7,75.7 C54.4,78.2 65.5,82 66.9,80.1 C68.4,78.2 72.4,69.3 71.3,67.9 C70.2,66.6 64.5,66.6 64.5,66.6 L64.5,66.6 L64.5,66.6 Z" fill="#F1B61E"></path>
                        <path d="M133.8,167 C133.8,167 130.9,171 125.9,171.3 C120.9,171.6 120,173.2 119.5,174.5 C119,175.8 116.2,182.3 130.1,179.5 C144,176.7 142.3,173.6 142.3,173.6 C142.3,173.6 141,166 139.8,166 C138.5,165.9 133.8,167 133.8,167 L133.8,167 L133.8,167 Z" fill="#6A3D1E"></path>
                        <path d="M152.2,173.7 C147.4,177 147,182.5 150.3,182.7 C153.6,183 161.3,185.8 163,181.1 C164.7,176.4 164.2,170.4 164.2,170.4 L162.3,165 L156.3,166.1 C156.3,166.1 157.1,169 155.8,170.4 C154.3,171.9 152.2,173.7 152.2,173.7 L152.2,173.7 L152.2,173.7 Z" fill="#6A3D1E"></path>
                        <path d="M104.8,51.6 C104.8,51.6 108.9,50.3 111.4,50.3 C113.9,50.3 117.2,51.6 117.2,51.6 C117.2,51.6 117.6,53.3 120.8,53.3 C124,53.3 125.9,51 133.2,54.6 C140.4,58.2 170.5,73.7 170.5,73.7 C170.5,73.7 165.3,75.7 155.5,75.2 C145.7,74.5 127.8,64.9 127.8,64.9 C127.8,64.9 132.1,94.3 132.1,101.2 C132.1,108 122.5,110 122.5,110 L110.2,107.7 L99.8,110.9 L90.3,102.1 C90.3,102.1 88.8,87.2 92.3,78.1 C95.8,69 97,62.3 97,62.3 C97,62.3 86.3,74.7 81.3,74.7 C76.3,74.7 71.7,64 71.7,64 C71.7,64 96.5,51.6 99.5,51.6 C102.5,51.6 103.8,52.8 104.8,51.6 L104.8,51.6 L104.8,51.6 Z" fill="#F1B61E"></path>
                        <path d="M68.4,69.5 C68.4,69.5 49.1,71.8 54.5,99.8 C59.9,127.8 60.9,123.4 60.9,123.4 C60.9,123.4 68,121.7 68.4,118.7 C68.8,115.7 59.4,95 63.3,90.3 C67.2,85.6 64.5,123.1 67,125.6 C69.5,128.1 101,123.3 102.5,117.6 C104.1,112 82.8,67.1 78,67.3 C73.2,67.5 69.7,69.2 68.4,69.5 L68.4,69.5 L68.4,69.5 Z" fill="#D66D27"></path>
                        <path d="M93.1,34.2 C93.1,34.2 94,40.2 96.4,42.8 C98.8,45.3 101.6,47.6 101.6,47.6 C101.6,47.6 100.8,45.2 102.4,45.3 C104,45.4 101.7,46 103.9,47.3 C106,48.5 112.6,50.5 118.1,47.7 C123.6,44.9 128.5,42.7 128.8,39.9 C129.1,37.1 135.6,27.2 130.7,23.2 C127.4,20.5 103.7,16.4 93.6,20.5 C88.7,22.4 93.1,34.2 93.1,34.2 L93.1,34.2 L93.1,34.2 Z" fill="#994A23"></path>
                        <g id="Group" transform="translate(44.000000, 45.000000)">
                            <path d="M0.7,21.7 C0.7,21.7 8.6,29.9 23.5,22.8 C26.3,21.5 31.3,21.7 31.3,21.7 C31.3,21.7 40.4,19.4 45,15.4 C48.7,12.1 48.2,7.6 48.2,0.9 L27.6,12.5 L0.7,21.7 L0.7,21.7 L0.7,21.7 Z" id="Shape" fill="#994A23"></path>
                            <path d="M6.2,33.1 C5.1,36.2 1.2,39.3 6.2,41.4 C11.2,43.4 11.2,40.6 11.2,38.9 C11.2,37.2 14.8,40.2 15.1,36.6 C15.4,33 12.7,27.1 9.5,30.2 C6.2,33.2 6.2,33.1 6.2,33.1 L6.2,33.1 L6.2,33.1 Z" id="Shape" fill="#FBDA35"></path>
                        </g>
                        <path d="M67.8,66.6 C67.8,66.6 66.1,72.6 67.8,73.2 C69.5,73.9 73,74.5 75.3,73.2 C77.6,71.9 71.7,69.2 73.6,65.3 C75.5,61.4 67.8,66.6 67.8,66.6 L67.8,66.6 L67.8,66.6 Z" fill="#E7D170"></path>
                        <path d="M114.9,63.8 L109.2,63.8 L109.2,69.1 L103.8,69.1 L103.8,74.7 L109.2,74.7 L109.2,80.1 L114.9,80.1 L114.9,74.7 L120.2,74.7 L120.2,69.1 L114.9,69.1 L114.9,63.8 L114.9,63.8 Z" fill="#D66D27"></path>
                        <g id="Group" transform="translate(141.000000, 28.000000)">
                            <path d="M1.5,26.7 C1.5,26.7 0.6,29.2 1.2,31 C4.5,36.6 9.6,40 16.7,40 C26.2,33 26.2,27.8 27.1,20.5 C27.8,15.3 23,6.4 19.7,1.1 C18.8,1 17.7,0.8 16.8,0.8 C13.9,0.8 11,1.5 8.6,2.7 C5.7,6.7 2.7,11.3 1.9,14.3 C0.2,20.7 0.6,23.4 0.6,23.4" id="Shape" fill="#D66D27"></path>
                            <path d="M19.1,1 C22.3,6.2 27.1,15.2 26.5,20.4 C25.6,27.8 25.6,33.1 16.1,39.9 L16.2,39.9 C27,39.9 35.7,31.1 35.7,20.4 C35.7,10.5 28.4,2.3 19.1,1 L19.1,1 L19.1,1 Z" id="Shape" fill="#BD5F28"></path>
                        </g>
                        <g id="Group" transform="translate(106.000000, 43.000000)">
                            <path d="M8.5,7 C7.6,7.3 6.4,7.4 4.6,7.3 C2.9,7.3 1.7,7 0.9,6.6 C0.6,7.9 0.5,9.3 1,9.7 C2.6,10.9 7.2,13.2 8.5,9.7 C8.8,9 8.8,8 8.5,7 L8.5,7 L8.5,7 Z" id="Shape" fill="#FBDA35"></path>
                            <path d="M8.5,7 C8,3.9 5.6,0.6 5.6,0.6 L3.1,0.6 C3.1,0.6 1.5,3.9 1,6.6 C1.9,7 3.1,7.1 4.7,7.3 C6.4,7.4 7.6,7.2 8.5,7 L8.5,7 L8.5,7 Z" id="Shape" fill="#DBB82A"></path>
                        </g>
                        <path d="M141,31 C141,31 136.4,34.2 143,34.6 C149.6,34.9 153.8,32.1 155.2,31 C156.5,29.9 158.1,36.2 161.6,36.2 C165.1,36.2 167.4,39.4 168.3,36.2 C169.2,33 167.5,42.2 171,43.7 C174.5,45.2 169.8,51.6 171,52.9 C172.2,54.2 168.6,58.8 171,58.8 C173.4,58.8 179.7,54.1 180.4,49 C181.2,44 178.4,41 178.4,41 C178.4,41 182.3,36.4 180.5,33 C178.8,29.7 173.3,27.8 173.3,27.8 C173.3,27.8 173.7,23.1 166.6,23.4 C159.6,23.7 154,25 154,25 C154,25 151.9,21.9 146.6,23.4 C141.4,24.9 144.3,27.4 144.3,27.4 L141,31 L141,31 L141,31 Z" fill="#994A23"></path>
                        <g id="Group" transform="translate(92.000000, 8.000000)">
                            <path d="M9.2,12.3 C11.9,16.9 13.9,16.9 13.9,16.9 C13.9,16.9 13.8,7.4 18.7,5.9 C21.9,5.1 24.9,3.1 26.6,1.8 C24.5,1 22,0.5 19.6,0.5 C16.9,0.5 14.5,1 12.1,2 C10,5.3 7.7,9.7 9.2,12.3 L9.2,12.3 L9.2,12.3 Z" id="Shape" fill="#DBB82A"></path>
                            <path d="M26.6,1.5 C24.9,2.8 21.8,2.4 18.7,3.4 C13.7,4.7 13.9,16.7 13.9,16.7 C13.9,16.7 11.8,16.8 9.2,12.1 C7.7,9.6 10,5.1 12.3,1.7 C7.5,3.7 3.6,7.6 1.6,12.3 C1.7,20.3 3.1,28.8 4.1,31.7 C7.7,36.4 13.3,39.5 19.6,39.5 C23.9,39.5 25.2,38.8 30,36.3 C32.5,33.9 34,31.6 35.4,27.6 C36.5,24.4 36.9,15.8 37.1,11 C35,6.8 31.2,3.3 26.6,1.5 L26.6,1.5 L26.6,1.5 Z" id="Shape" fill="#FBDA35"></path>
                            <path d="M0.5,14.4 C3.2,19 5.2,19 5.2,19 C5.2,19 5.1,9.5 10,8 C13.2,7.2 16.2,5.2 17.9,3.9 C15.8,3.1 13.3,2.6 10.9,2.6 C8.2,2.6 5.8,3.1 3.4,4.1 C1.3,7.4 -0.9,11.9 0.5,14.4 L0.5,14.4 L0.5,14.4 Z" id="Shape" fill="#DBB82A"></path>
                        </g>
                        <path d="M92.7,33.1 C92.7,33.1 87.7,27.2 89.1,21.2 C90.4,15.3 86.4,8.8 94.7,5.9 C103,3.1 95.8,-1.3 111.6,1.5 C127.4,4.3 123.8,12.3 123.8,12.3 C123.8,12.3 132.9,8.6 133,16.7 C133.1,24.9 135.4,27.3 131.3,30.4 C127.2,33.5 131.8,26 127.2,20.6 C122.5,15.2 120.9,16.9 120.9,16.9 C120.9,16.9 118.8,7.5 111.8,9.4 C104.8,11.3 103.9,21.8 103.9,21.8 C103.9,21.8 100.2,21.1 100,17 C99.9,12.9 94.2,21.6 96.5,25.4 C98.8,29.3 92.6,28.5 92.4,26.7 C92.1,24.8 92.7,33.1 92.7,33.1 L92.7,33.1 L92.7,33.1 Z" fill="#D66D27"></path>
                        <path d="M103.8,7.4 C103.8,7.4 100.1,12.9 101.1,16.2 C102.2,19.4 102.3,20.3 102.3,20.3 C102.3,20.3 100.7,16.2 102.3,12.8 C104,9.5 103.8,7.4 103.8,7.4 L103.8,7.4 L103.8,7.4 Z" fill="#F68D35"></path>
                        <path d="M97.7,5.9 C97.7,5.9 93,7.9 91.9,9.9 C90.8,11.9 91.1,16.9 91.1,16.9 C91.1,16.9 91.6,12.2 93.4,10.6 C95.1,9 97.7,5.9 97.7,5.9 L97.7,5.9 L97.7,5.9 Z" fill="#F68D35"></path>
                        <g id="Group" transform="translate(47.000000, 27.000000)">
                            <path d="M12,26.3 C8.3,19.9 9.5,10.2 11.1,2.9 C4.9,6.2 0.8,12.7 0.8,20.2 C0.8,31 9.6,39.7 20.3,39.7 C21.2,39.7 22.3,39.6 23.2,39.4 C20.2,36.9 15.7,32.6 12,26.3 L12,26.3 L12,26.3 Z" id="Shape" fill="#E7D170"></path>
                            <path d="M35,7.2 C31.4,3.2 26.2,0.5 20.3,0.5 C17,0.5 13.7,1.3 10.9,2.9 C9.3,10.1 8.1,19.9 11.8,26.3 C15.5,32.6 20,37 23,39.6 C27.8,38.9 32.2,36.4 35.2,32.8 C38.4,25.5 36.9,14.8 35,7.2 L35,7.2 L35,7.2 Z" id="Shape" fill="#F9E289"></path>
                        </g>
                        <path d="M133.2,122.1 C133.2,122.1 126.5,160.1 132.9,166 C139.2,171.9 141.3,166 141.3,166 C141.3,166 138.5,130.4 146.3,130.1 C154.1,129.8 155.1,130.5 155.1,130.5 C155.1,130.5 150.1,166.6 155.6,168.6 C161.1,170.6 164.6,168.5 164.6,168.5 C164.6,168.5 170.5,127.9 166.3,123.4 C162.2,118.9 133.2,122.1 133.2,122.1 L133.2,122.1 L133.2,122.1 Z" fill="#BD5F28"></path>
                        <g id="Group" transform="translate(34.000000, 20.000000)">
                            <path d="M25,6.5 C25,6.5 20.3,1.7 15.5,7.4 C10.5,13.2 14.3,42.9 3.5,40.1 C-7.3,37.3 10.5,52.5 18.2,48.8 C26,45.1 25.2,44.8 25.2,44.8 C25.2,44.8 17.7,40.4 17.2,37.8 C17.2,37.8 25.6,33.5 27.1,21.7 C27.1,17.6 26.8,11.1 25.2,6.2 L25,6.5 L25,6.5 L25,6.5 Z" id="Shape" fill="#F68D35"></path>
                            <path d="M58.1,26 C58.1,26 54.2,27.7 53,19.6 C51.8,11.3 47,-3.2 35.5,1 C27.2,3.9 25.5,5.7 25.1,6.4 C26.7,11.4 27,17.8 27,21.9 C27,21.6 27.1,21.2 27.1,21 C28.3,8.4 33.3,12.6 34.3,13.2 C35.4,14 33.1,7.3 41,9.2 C48.9,11.1 45.8,30.5 52.1,31.6 C58.3,32.4 58.1,26 58.1,26 L58.1,26 L58.1,26 Z" id="Shape" fill="#D66D27"></path>
                        </g>
                        <path d="M153.9,71.9 C153.9,71.9 140.4,75.6 136.1,85.7 C131.7,95.7 123.9,115.4 125,117.2 C126.1,118.9 130.4,126.3 132.9,123.9 C135.4,121.6 141.5,87.1 143.9,87.1 C146.3,87.1 127.2,120.8 130.9,122.6 C134.6,124.3 136.5,129.3 154.1,127 C171.6,124.7 170,121.6 170,121.6 C170,121.6 163,89.1 166.4,88.5 C169.7,88 170,125.7 173.4,125.7 C176.7,125.7 181.3,122.1 181.3,122.1 C181.3,122.1 177.3,79.5 171.7,75.7 C165.7,71.8 153.9,71.9 153.9,71.9 L153.9,71.9 L153.9,71.9 Z" fill="#6A3D1E"></path>
                        <path d="M152.4,74.6 C151.1,73.3 152,74.5 151.1,73.3 C153.8,71.7 153.6,63.7 153.8,62.5 C153.9,61 159.7,65.7 159.7,65.7 C160,64.5 159.8,73.2 159.4,72.7 C157.6,74.7 155,77 152.4,74.6 L152.4,74.6 L152.4,74.6 Z" fill="#D66D27"></path>
                        <path d="M174.8,73.7 C174.8,73.7 167.8,69.8 167,73.7 C166.2,77.6 158.2,85.3 167,82.4 C175.8,79.6 171.4,77.4 171.4,77.4 C171.4,77.4 166.7,86 171.4,85.4 C176.1,84.9 177.6,85.9 177.3,82.3 C177.1,78.7 179.5,82 174.8,73.7 L174.8,73.7 L174.8,73.7 Z" fill="#FBDA35"></path>
                        <path d="M74.1,165.9 C74.1,165.9 71,173.7 74.1,175.7 C77.2,177.7 74.9,184.3 85.7,181.1 C96.5,178 82.9,167.2 82.9,167.2 L74.1,165.9 L74.1,165.9 L74.1,165.9 Z" fill="#BD5F28"></path>
                        <path d="M95.9,165.9 C95.9,165.9 93.4,169.6 95.9,171.3 C98.4,172.9 105.7,174.8 109.8,171.3 C113.9,167.8 103.8,165.1 103.8,165.1 L95.9,165.9 L95.9,165.9 L95.9,165.9 Z" fill="#BD5F28"></path>
                        <path d="M63.1,122.7 C63.1,122.7 59.6,124.2 63.1,127.7 C66.6,131.2 68.3,134 68.3,134 C68.3,134 70.8,130.8 70.2,126.5 C69.5,122.2 68.3,118.9 68.3,118.9 L63.1,122.7 L63.1,122.7 L63.1,122.7 Z" fill="#F9E289"></path>
                        <path d="M11.1,137.4 L25.1,132.2 L54.3,137.4 L42.1,145.3 L11.1,137.4 L11.1,137.4 Z" fill="#F68D35"></path>
                        <g id="Group" transform="translate(11.000000, 137.000000)">
                            <path d="M31.1,8.3 L0.1,0.4 L6.4,18.6 L32.5,22.7 L31.4,8.1 L31.1,8.3 L31.1,8.3 Z" id="Shape" fill="#D66D27"></path>
                            <path d="M31.4,8.1 L32.5,22.7 L32.9,22.7 L43.3,16.6 L43.3,0.4 L31.4,8.1 L31.4,8.1 Z" id="Shape" fill="#BD5F28"></path>
                        </g>
                        <path d="M216.3,127.5 L200.3,127.6 L184,141.3 L184,142.3 L200.3,142.6 L216.3,127.5 L216.3,127.5 Z" fill="#F68D35"></path>
                        <g id="Group" transform="translate(184.000000, 127.000000)">
                            <path d="M16.3,15.6 L0,15.3 L0,28.6 L17.3,30.6 L16.3,15.6 L16.3,15.6 Z" id="Shape" fill="#D66D27"></path>
                            <path d="M32.8,0.5 L32.3,0.5 L16.3,15.6 L17.3,30.6 L32.8,15.3 L32.8,0.5 L32.8,0.5 Z" id="Shape" fill="#BD5F28"></path>
                        </g>
                    </g>
                    <g transform="translate(402.000000, 224.000000)">
                        <path d="M14.4,122.4 C14.4,122.4 9.2,92.1 11.2,85.2 C13.2,78.2 31.9,56 31.9,56 C31.9,56 52.4,76.6 52.8,80 C53.2,83.5 59.8,126.2 55.1,125.6 C50.4,124.9 36.4,125.9 36.4,125.9 L14.4,122.4 L14.4,122.4 L14.4,122.4 Z" id="Shape" fill="#668639"></path>
                        <path d="M150.5,89.7 C150.5,89.7 160.4,95.5 177.5,97.3 C194.5,99.2 206.8,98.8 206.8,98.8 C206.8,98.8 210.9,98.8 206.8,90.9 C202.7,83 165,74.3 159.8,77.5 C154.9,80.7 150.5,89.7 150.5,89.7 L150.5,89.7 L150.5,89.7 Z" id="Shape" fill="#4B5D2A"></path>
                        <path d="M6.9,93.2 L30.7,57.6 L58,86.6 L59.3,83.3 L30.8,49.9 L6.1,89.4 L6.9,93.2 L6.9,93.2 Z" id="Shape" fill="#4B5D2A"></path>
                        <path d="M24.4,120.9 C24.4,120.9 18.4,88.2 34.4,85.3 C50.3,82.4 47.9,121.3 47.9,121.3 L24.4,120.9 L24.4,120.9 L24.4,120.9 Z" id="Shape" fill="#4B5D2A"></path>
                        <path d="M150.5,125.3 L156.1,84.5 C156.1,84.5 164.9,78.3 181.9,80.1 C198.9,81.8 204.4,92.8 204.4,92.8 L198.2,127.9 L162.6,127.9 L150.5,125.3 L150.5,125.3 L150.5,125.3 Z" id="Shape" fill="#77A340"></path>
                        <path d="M162.8,128 C162.8,128 160.4,85.8 177.5,91.6 C194.5,97.4 181.4,129.5 181.4,129.5 L162.8,128 L162.8,128 L162.8,128 Z" id="Shape" fill="#668639"></path>
                        <g id="Shape" transform="translate(0.000000, 111.000000)">
                            <path d="M124.7,18.6 L106,22.2 L62.9,11.4 L53.3,9.7 C48.9,10.9 44.5,12.5 40.3,14.9 C30.8,20.4 22.5,27.5 15.9,34.2 C29.6,47.6 55.7,59.9 104.9,59.9 C113.1,59.9 120.7,59.5 127.7,59 C117.8,47.2 109.8,31.3 124.7,18.6 L124.7,18.6 L124.7,18.6 Z" fill="#D0E39D"></path>
                            <path d="M40.3,14.8 C44.4,12.4 48.9,10.8 53.3,9.6 L0.8,0.1 C0.8,0.1 -0.5,17.9 15.9,34 C22.5,27.4 30.8,20.2 40.3,14.8 L40.3,14.8 L40.3,14.8 Z" fill="#B3D56E"></path>
                            <path d="M221.2,0.1 L124.7,18.6 C109.8,31.3 117.9,47.2 127.6,58.8 C214.6,51 221.2,0.1 221.2,0.1 L221.2,0.1 L221.2,0.1 Z" fill="#B3D56E"></path>
                        </g>
                        <path d="M73.4,120.5 C73.4,120.5 68.8,110.3 61.4,115.8 C53.9,121.3 60.7,126.4 65,128.2 C69.3,130.2 80.7,129 80.7,129 L79.9,123.5 L73.4,120.5 L73.4,120.5 L73.4,120.5 Z" id="Shape" fill="#4B5D2A"></path>
                        <path d="M95.7,88.1 L72.8,119.3 C72.8,119.3 79.1,126.5 81.2,124.4 C83.3,122.3 99.7,91.9 99.7,91.9 L106.4,91.9 C106.4,91.9 106.1,111.3 115,113.7 C123.8,116.1 136.6,104.7 136.6,104.7 L133.3,97.6 C133.3,97.6 124.3,106.3 119.1,106.2 C114,106.1 113.5,92.9 116.6,86.9 C119.6,81.1 95.7,88.1 95.7,88.1 L95.7,88.1 L95.7,88.1 Z" id="Shape" fill="#8DC546"></path>
                        <path d="M94.3,52.2 C94.3,52.2 91.5,76.7 86.3,78.6 C83.6,79.5 81.5,78.6 81.5,78.6 L84,84.6 C84,84.6 99.8,86.3 101.4,70.5 C103,54.7 98.5,52.3 98.5,52.3 L94.3,52.2 L94.3,52.2 L94.3,52.2 L94.3,52.2 L94.3,52.2 L94.3,52.2 Z" id="Shape" fill="#77A340"></path>
                        <path d="M98.3,43.9 C98.3,43.9 98,49.9 100,49.9 C102,49.9 105.2,50 103.9,47.2 C102.6,44.4 100,42.6 100,42.6 L98.3,43.9 L98.3,43.9 L98.3,43.9 Z" id="Shape" fill="#77A340"></path>
                        <path d="M83.8,4.4 C83.8,4.4 82.6,6.5 81,9.5 C81.7,9.1 82.5,8.7 83.3,8.3 L83.8,4.4 L83.8,4.4 L83.8,4.4 Z" id="Shape" fill="#4B5D2A"></path>
                        <path d="M82.1,13.8 C77.3,17.9 77.5,24.4 77.5,25 C77.5,25.6 86.7,21.4 87.5,18.6 C88.3,15.8 90,14.2 95,13.8 C100,13.4 93.8,15.8 94.2,18.6 C94.6,21.4 96.9,22.5 96.9,22.5 C96.9,22.5 96.6,16.9 99.2,16.9 C101.7,16.9 102.8,25.7 100.5,26.8 C98.2,27.9 107.2,24.4 107.2,20.2 C107.2,16 107.5,11.9 105.5,11.9 C103.5,11.9 94.4,8 90.1,8.3 C85.8,8.6 82.1,13.8 82.1,13.8 L82.1,13.8 L82.1,13.8 Z" id="Shape" fill="#4B5D2A"></path>
                        <path d="M94.3,52.2 C94.3,52.2 101,46.3 109.3,46.3 C117.6,46.3 121.2,60 121.2,67.9 C121.2,75.8 115,91.2 115,91.2 C115,91.2 104.7,87.1 95.7,88.1 C86.9,89.2 95.7,66 95.7,66 C95.7,66 100.3,52.6 94.3,52.2 L94.3,52.2 L94.3,52.2 Z" id="Shape" fill="#668639"></path>
                        <path d="M109.3,46.3 C109.3,46.3 116.7,55.5 116.5,63.7 C116.4,71.9 101,78 96.6,78.4 C92.2,78.8 89.6,77.5 89.6,77.5 L89.6,70.3 C89.6,70.3 107,73.1 109.3,65.5 C111.6,58 105.4,50 105.4,50 C105.4,50 104.3,48 106.2,46.7 C108.1,45.3 109.3,46.3 109.3,46.3 L109.3,46.3 L109.3,46.3 Z" id="Shape" fill="#77A340"></path>
                        <circle id="Oval" fill="#B3D56E" cx="86.2" cy="71.1" r="5.6"></circle>
                        <path d="M136.6,104.8 C136.6,104.8 142.8,112.8 146.4,111.1 C153,108.2 146.4,102.5 146.4,102.5 L138.9,93.3 L133.3,97.7 L136.6,104.8 L136.6,104.8 L136.6,104.8 Z" id="Shape" fill="#4B5D2A"></path>
                        <g id="Shape" transform="translate(74.000000, 6.000000)">
                            <path d="M30.3,27.2 C29.8,17.7 24.3,6.9 24.3,6.9 L22,0.7 C20.7,0.4 19.3,0.3 18,0.3 C14.9,0.3 11.8,1 9.2,2.3 C8.4,2.7 7.7,3.1 6.9,3.5 C4.1,8.9 0.3,17 1.1,20.8 C2.3,25.9 4.3,29 3.8,35.7 L3.8,35.7 C7.4,39.2 12.4,41.3 17.9,41.3 C20,41.3 22,41 23.9,40.4 C26.8,37.9 30.6,33.4 30.3,27.2 L30.3,27.2 L30.3,27.2 Z" fill="#B3D56E"></path>
                            <path d="M38.5,20.8 C38.5,10.9 31.4,2.6 22,0.7 L24.3,6.9 C24.3,6.9 29.8,17.7 30.3,27.2 C30.7,33.4 26.8,37.8 24,40.3 C32.3,37.8 38.5,30 38.5,20.8 L38.5,20.8 L38.5,20.8 Z" fill="#8DC546"></path>
                        </g>
                        <path d="M83.7,7 C83.7,7 78.5,7.8 76.6,10.9 C74.9,13.8 76.2,15.7 72.2,16.9 C68.2,18.1 77.6,20.2 84.4,14.9 C91.4,9.7 94.3,12.8 96,13 C97.7,13.1 98.7,12.2 103.6,15.7 C108.6,19.2 99.7,17.8 104.1,21.9 C108.5,26 106.1,28.7 106.1,28.7 C106.1,28.7 110,30.7 107.4,33.9 C104.9,37.1 108.7,36.8 108.7,36.8 C108.7,36.8 114.7,35.5 114.7,27.8 C114.7,20.1 109.1,14.7 109.1,14.7 C109.1,14.7 111.5,9.2 105.2,6.8 C98.9,4.4 97.6,4.9 95.3,1.6 C92.9,-1.7 94.8,4.5 94.8,4.5 C94.8,4.5 92,3.8 89.4,2.2 C86.9,0.6 89.7,4.7 89.7,4.7 C89.7,4.7 86.4,3.9 83.7,7 L83.7,7 L83.7,7 Z" id="Shape" fill="#4B5D2A"></path>
                        <g id="Shape" transform="translate(59.000000, 55.000000)">
                            <path d="M22.7,21.2 L15.7,2.5 C15.4,1.7 14.6,1 13.7,1 L6.9,23.8 C7.4,24.3 8.2,24.7 9,24.6 L21.7,23 C22.1,23 22.4,22.9 22.6,22.6 C23,22.1 23,21.6 22.7,21.2 L22.7,21.2 L22.7,21.2 Z" fill="#668639"></path>
                            <path d="M13.2,1 L1.6,2.7 C1.2,2.7 0.9,2.8 0.7,3.1 C0.6,3.5 0.6,3.9 0.7,4.3 L6.6,22.9 C6.7,23.2 6.9,23.4 7,23.7 L13.8,0.9 C13.6,1 13.4,1 13.2,1 L13.2,1 L13.2,1 Z" fill="#77A340"></path>
                        </g>
                        <path d="M68.2,80.6 C68.2,80.6 69.9,84.6 74.1,84.6 C78.2,84.7 83.7,84.6 83.7,84.6 L81.2,78.6 C81.2,78.6 75,81.1 75.8,78.6 C76.6,76.1 76.9,75.7 75.3,75.7 C73.7,75.7 73.7,77.6 73.7,77.6 C73.7,77.6 74.1,75.7 73,75.6 C71.9,75.5 71.3,77.3 71.3,77.3 C71.3,77.3 72.5,75.3 70.8,75 C69.1,74.7 68.9,77 68.9,77 C68.9,77 68,76 68.2,80.6 L68.2,80.6 L68.2,80.6 Z" id="Shape" fill="#B3D56E"></path>
                        <g id="Shape" transform="translate(59.000000, 54.000000)">
                            <path d="M14.3,0.5 L2.7,2.2 C1.8,2.3 1,3.1 0.7,3.9 C1,3.8 1.2,3.6 1.6,3.5 L13.2,1.8 L13.9,1.8 L14.3,0.5 L14.3,0.5 L14.3,0.5 L14.3,0.5 Z" fill="#8DC546"></path>
                            <path d="M23.8,20.7 L16.8,2 C16.4,0.9 15.5,0.4 14.4,0.5 L13.9,2 C14.7,2.1 15.5,2.7 15.8,3.5 L22.8,22.2 C22.9,22.6 22.9,23.1 22.9,23.5 C23.8,23 24.2,21.8 23.8,20.7 L23.8,20.7 L23.8,20.7 Z" fill="#77A340"></path>
                        </g>
                        <path d="M150.5,89.7 C150.5,89.7 167,79 179.1,81.4 C191.2,83.8 197,85.1 200.7,89.7 C204.3,94.3 206.7,98.8 206.7,98.8 C206.7,98.8 208.7,100.1 211.1,96.9 C213.5,93.8 210.7,77.4 202.5,69.2 C194.3,60.9 172.4,56.2 160.3,68 C148.2,79.8 144.9,87.3 145.6,88.3 C146.3,89.4 150.5,89.7 150.5,89.7 L150.5,89.7 L150.5,89.7 Z" id="Shape" fill="#668639"></path>
                    </g>
                    <path d="M490,254.4 C490,254.4 484.5,256.6 484.7,259.5 C484.9,262.4 487.6,264.7 490.9,262.4 C494.2,260 490,254.4 490,254.4 L490,254.4 L490,254.4 Z" id="Shape" fill="#8DC546"></path>
                    <path d="M188.8,291.3 C188.8,291.3 197.3,291.9 200.5,289.2 C203.7,286.4 206.4,283.6 206.4,283.6 C206.4,283.6 205.9,291.1 201.5,292.6 C197.1,294.2 188.8,291.3 188.8,291.3 L188.8,291.3 L188.8,291.3 Z" id="Shape" fill="#C6E7E0"></path>
                    <path d="M845.6,232.8 C845.6,232.8 847.4,237.8 853.7,237.8 C860,237.8 861.6,232.8 861.6,232.8" id="Shape" fill="#F7E9AD"></path>
                    <path d="M895.8,244.6 C895.8,244.6 892.8,243.9 891.1,247.9 C889.5,251.9 890.9,252 894.3,252.9 C897.7,253.9 895.8,244.6 895.8,244.6 L895.8,244.6 L895.8,244.6 Z" id="Shape" fill="#BD5F28"></path>
                </g>
                <g id="Step1" transform="translate(74.000000, 115.000000)" font-family="Hind">
                    <text id="{{site.data[locale].how_we_work.step1.line1}}" fill="#606161" font-size="13" font-weight="300">
                        <tspan x="0" y="51">{{site.data[locale].how_we_work.step1.line1}}</tspan>
                    </text>
                    <text id="{{site.data[locale].how_we_work.step1.line2}}" fill="#606161" font-size="13" font-weight="300">
                        <tspan x="0" y="67">{{site.data[locale].how_we_work.step1.line2}}</tspan>
                    </text>
                    <text id="{{site.data[locale].how_we_work.step1.text}}" fill="#414D4B" font-size="23" font-weight="700">
                        <tspan x="0.1105" y="23" fill="#606161">{{site.data[locale].how_we_work.step1.text}}</tspan>
                    </text>
                </g>
                <g id="Step2" transform="translate(412.000000, 48.000000)" font-family="Hind" font-weight="700">
                    <text id="{{site.data[locale].how_we_work.step2.line1}}" fill="#606161" font-size="13" font-weight="300">
                        <tspan x="0" y="51">{{site.data[locale].how_we_work.step2.line1}}</tspan>
                    </text>
                    <text id="{{site.data[locale].how_we_work.step2.line2}}" fill="#606161" font-size="13" font-weight="300">
                        <tspan x="0" y="67">{{site.data[locale].how_we_work.step2.line2}}</tspan>
                    </text>
                    <text id="{{site.data[locale].how_we_work.step2.line3}}" fill="#606161" font-size="13" font-weight="300">
                        <tspan x="0" y="83">{{site.data[locale].how_we_work.step2.line3}}</tspan>
                    </text>
                    <text id="{{site.data[locale].how_we_work.step2.text}}" fill="#414D4B" font-size="23">
                        <tspan x="0.1105" y="23" fill="#606161">{{site.data[locale].how_we_work.step2.text}}</tspan>
                    </text>
                </g>
                <g id="Step3" transform="translate(735.000000, 62.000000)" font-family="Hind" font-weight="700">
                    <text id="{{site.data[locale].how_we_work.step3.line1}}" fill="#606161" font-size="13" font-weight="300">
                        <tspan x="1" y="51">{{site.data[locale].how_we_work.step3.line1}}</tspan>
                    </text>
                    <text id="{{site.data[locale].how_we_work.step3.line2}}" fill="#606161" font-size="13" font-weight="300">
                        <tspan x="1" y="67">{{site.data[locale].how_we_work.step3.line2}}</tspan>
                    </text>
                    <text id="{{site.data[locale].how_we_work.step3.line3}}" fill="#606161" font-size="13" font-weight="300">
                        <tspan x="1" y="83">{{site.data[locale].how_we_work.step3.line3}}</tspan>
                    </text>
                    <text id="{{site.data[locale].how_we_work.step3.line4}}" fill="#606161" font-size="13" font-weight="300">
                        <tspan x="1" y="99">{{site.data[locale].how_we_work.step3.line4}}</tspan>
                    </text>
                    <text id="{{site.data[locale].how_we_work.step3.text}}" fill="#414D4B" font-size="23">
                        <tspan x="0.1105" y="23" fill="#606161">{{site.data[locale].how_we_work.step3.text}}</tspan>
                    </text>
                </g>
            </g>
        </g>
    </g>
</svg>
