<?xml version="1.0" encoding="UTF-8" standalone="no"?>
<svg width="100%" height="100%" viewBox="0 0 232 902" version="1.1" xmlns="http://www.w3.org/2000/svg" xmlns:xlink="http://www.w3.org/1999/xlink">
    <!-- Generator: Sketch 3.6 (26304) - http://www.bohemiancoding.com/sketch -->
    <title>Template</title>
    <desc>Created with Sketch.</desc>
    <defs></defs>
    <g id="Page-1" stroke="none" stroke-width="1" fill="none" fill-rule="evenodd">
        <g id="Process-Template-Mobile">
            <g id="FullProcess">
                <g id="Process-PartThree" transform="translate(0.000000, 601.000000)">
                    <rect id="Rectangle-path" fill="#F7E8AC" x="0" y="0" width="100%" height="300.5"></rect>
                    <g id="Group" transform="translate(35.000000, 107.000000)">
                        <path d="M67.3,79.1 C67.3,79.1 63.9,114.9 66.7,116.5 C69.5,118.1 72.2,119.7 74.9,118.5 C77.6,117.3 74.6,83.9 79.2,82.7 C83.7,81.6 85.6,83.5 85.6,83.5 C85.6,83.5 84.9,117.7 86.8,117.3 C88.8,116.9 94.6,119.1 94.3,115.8 C94,112.4 98.5,78.2 94.3,74.4 C90.2,70.9 67.3,79.1 67.3,79.1 L67.3,79.1 L67.3,79.1 Z" id="Shape" fill="#BE6028"></path>
                        <path d="M46,111.3 L77.6,119.4 L162.4,103.1 C162.4,103.1 156.7,146.9 76.8,146.9 C-3.1,146.9 0.3,103.1 0.3,103.1 L46,111.3 L46,111.3 L46,111.3 Z" id="Shape" fill="#F9E27B"></path>
                        <path d="M51.5,92.2 C51.5,92.2 53.3,104.6 53.3,110.4 C53.3,116.2 52.1,124 53.3,123.8 C54.5,123.6 60,125 61.6,122.8 C63.1,120.5 61.2,105.5 60.1,101.6 C58.9,97.8 61.3,94.1 64.6,92.9 C67.8,91.7 70.1,93.5 70.1,98.4 C70.1,103.3 70.5,106.5 70.1,110 C69.7,113.7 68.9,119.6 70.3,121 C71.7,122.4 78.4,122.8 78.1,121 C77.8,119.2 77.3,85.9 73.2,83.3 C68.9,80.7 51.5,92.2 51.5,92.2 L51.5,92.2 L51.5,92.2 Z" id="Shape" fill="#F1B61C"></path>
                        <path d="M127.1,89.3 L127.1,91.6 C127.1,93.2 127.3,95 128.6,95 C130,95 128.6,92.9 128.6,92.9 C128.6,92.9 130.4,94 130.6,95.8 C130.8,97.6 134.8,98.5 134.4,95.8 C134,93.1 133.5,88.5 130.7,88.2 C128,87.9 127.1,89.3 127.1,89.3 L127.1,89.3 L127.1,89.3 Z" id="Shape" fill="#D66E27"></path>
                        <path d="M47.1,48.4 C47.1,48.4 40.1,53.2 39.9,55.1 C39.7,57 47.8,59.7 48.8,58.3 C49.9,56.9 52.8,50.4 52,49.4 C51.3,48.4 47.1,48.4 47.1,48.4 L47.1,48.4 L47.1,48.4 Z" id="Shape" fill="#F1B61C"></path>
                        <path d="M97.9,121.9 C97.9,121.9 95.8,124.8 92.1,125 C88.4,125.2 87.8,126.4 87.4,127.3 C87,128.2 85,133 95.2,131 C105.4,129 104.1,126.7 104.1,126.7 C104.1,126.7 103.1,121.1 102.3,121.1 C101.3,121.1 97.9,121.9 97.9,121.9 L97.9,121.9 L97.9,121.9 Z" id="Shape" fill="#6B3E1E"></path>
                        <path d="M111.3,126.8 C107.8,129.2 107.5,133.2 109.9,133.4 C112.3,133.6 118,135.7 119.2,132.2 C120.4,128.7 120.1,124.4 120.1,124.4 L118.7,120.4 L114.3,121.2 C114.3,121.2 114.9,123.3 113.9,124.3 C112.9,125.5 111.3,126.8 111.3,126.8 L111.3,126.8 L111.3,126.8 Z" id="Shape" fill="#6B3E1E"></path>
                        <path d="M76.6,37.4 C76.6,37.4 79.6,36.4 81.4,36.4 C83.2,36.4 85.6,37.4 85.6,37.4 C85.6,37.4 85.9,38.6 88.2,38.6 C90.5,38.6 91.9,36.9 97.3,39.6 C102.6,42.2 124.6,53.6 124.6,53.6 C124.6,53.6 120.8,55.1 113.6,54.7 C106.4,54.2 93.3,47.2 93.3,47.2 C93.3,47.2 96.4,68.7 96.4,73.8 C96.4,78.8 89.4,80.2 89.4,80.2 L80.4,78.5 L72.8,80.8 L65.8,74.4 C65.8,74.4 64.7,63.5 67.3,56.8 C69.9,50.1 70.7,45.2 70.7,45.2 C70.7,45.2 62.9,54.3 59.2,54.3 C55.5,54.3 52.2,46.5 52.2,46.5 C52.2,46.5 70.4,37.4 72.6,37.4 C75,37.4 75.9,38.3 76.6,37.4 L76.6,37.4 L76.6,37.4 Z" id="Shape" fill="#F1B61C"></path>
                        <path d="M50,50.5 C50,50.5 35.9,52.2 39.8,72.7 C43.8,93.2 44.5,90 44.5,90 C44.5,90 49.7,88.8 50,86.6 C50.3,84.4 43.4,69.3 46.3,65.8 C49.2,62.4 47.2,89.8 49,91.6 C50.8,93.4 73.9,89.9 75,85.7 C76.2,81.6 60.6,48.7 57.1,48.9 C53.5,49 50.9,50.3 50,50.5 L50,50.5 L50,50.5 Z" id="Shape" fill="#D66E27"></path>
                        <path d="M68.1,24.7 C68.1,24.7 68.8,29.1 70.5,31 C72.3,32.8 74.3,34.5 74.3,34.5 C74.3,34.5 73.7,32.7 74.9,32.8 C76.1,32.9 74.4,33.3 76,34.3 C77.5,35.2 82.4,36.6 86.4,34.6 C90.4,32.6 94,30.9 94.2,28.9 C94.4,26.9 99.2,19.6 95.6,16.7 C93.2,14.7 75.8,11.7 68.4,14.7 C64.9,16 68.1,24.7 68.1,24.7 L68.1,24.7 L68.1,24.7 Z" id="Shape" fill="#9A4C24"></path>
                        <g id="Shape" transform="translate(32.000000, 33.000000)">
                            <path d="M0.6,15.4 C0.6,15.4 6.4,21.4 17.3,16.2 C19.3,15.2 23,15.4 23,15.4 C23,15.4 29.7,13.7 33,10.8 C35.7,8.4 35.3,5.1 35.3,0.2 L20.2,8.7 L0.6,15.4 L0.6,15.4 L0.6,15.4 Z" fill="#9A4C24"></path>
                            <path d="M4.7,23.8 C3.9,26.1 1,28.3 4.7,29.9 C8.4,31.4 8.4,29.3 8.4,28.1 C8.4,26.9 11,29.1 11.3,26.4 C11.5,23.8 9.5,19.4 7.2,21.7 C4.7,23.9 4.7,23.8 4.7,23.8 L4.7,23.8 L4.7,23.8 Z" fill="#FBDA37"></path>
                        </g>
                        <path d="M49.6,48.4 C49.6,48.4 48.4,52.8 49.6,53.2 C50.8,53.7 53.4,54.2 55.1,53.2 C56.8,52.2 52.5,50.3 53.9,47.4 C55.2,44.6 49.6,48.4 49.6,48.4 L49.6,48.4 L49.6,48.4 Z" id="Shape" fill="#E7D170"></path>
                        <path d="M84,46.3 L79.9,46.3 L79.9,50.2 L75.9,50.2 L75.9,54.3 L79.9,54.3 L79.9,58.3 L84,58.3 L84,54.3 L87.9,54.3 L87.9,50.2 L84,50.2 L84,46.3 L84,46.3 Z" id="Shape" fill="#D66E27"></path>
                        <g id="Shape" transform="translate(103.000000, 20.000000)">
                            <path d="M1.2,19.7 C1.2,19.7 0.5,21.5 1,22.8 C3.4,26.9 7.1,29.4 12.3,29.4 C19.3,24.3 19.3,20.5 19.9,15.1 C20.4,11.3 16.9,4.8 14.5,0.9 C13.8,0.8 13,0.7 12.4,0.7 C10.3,0.7 8.2,1.2 6.4,2.1 C4.3,5 2.1,8.4 1.5,10.6 C0.3,15.3 0.5,17.3 0.5,17.3" fill="#D66E27"></path>
                            <path d="M14.1,0.9 C16.4,4.7 20,11.3 19.5,15.1 C18.8,20.5 18.8,24.4 11.9,29.4 L12,29.4 C19.9,29.4 26.3,23 26.3,15.1 C26.3,7.8 20.9,1.8 14.1,0.9 L14.1,0.9 L14.1,0.9 Z" fill="#BE6028"></path>
                        </g>
                        <g id="Shape" transform="translate(77.000000, 31.000000)">
                            <path d="M6.7,5.2 C6,5.4 5.2,5.5 3.8,5.4 C2.6,5.4 1.7,5.2 1.1,4.9 C0.9,5.9 0.8,6.9 1.2,7.2 C2.4,8.1 5.7,9.8 6.7,7.2 C7,6.7 7,6 6.7,5.2 L6.7,5.2 L6.7,5.2 Z" fill="#FBDA37"></path>
                            <path d="M6.7,5.2 C6.3,2.9 4.6,0.5 4.6,0.5 L2.8,0.5 C2.8,0.5 1.6,2.9 1.3,4.9 C2,5.2 2.8,5.3 4,5.4 C5.2,5.5 6.1,5.4 6.7,5.2 L6.7,5.2 L6.7,5.2 Z" fill="#DBB82A"></path>
                        </g>
                        <path d="M103.1,22.3 C103.1,22.3 99.7,24.6 104.6,24.9 C109.4,25.1 112.5,23.1 113.5,22.3 C114.5,21.5 115.6,26.1 118.2,26.1 C120.8,26.1 122.4,28.4 123.1,26.1 C123.8,23.8 122.5,30.5 125.1,31.6 C127.7,32.7 124.2,37.4 125.1,38.3 C126,39.2 123.3,42.6 125.1,42.6 C126.9,42.6 131.5,39.2 132,35.4 C132.6,31.7 130.5,29.5 130.5,29.5 C130.5,29.5 133.4,26.1 132,23.6 C130.8,21.2 126.7,19.8 126.7,19.8 C126.7,19.8 127,16.4 121.8,16.6 C116.7,16.8 112.6,17.8 112.6,17.8 C112.6,17.8 111.1,15.5 107.2,16.6 C103.4,17.7 105.5,19.5 105.5,19.5 L103.1,22.3 L103.1,22.3 L103.1,22.3 Z" id="Shape" fill="#9A4C24"></path>
                        <g id="Shape" transform="translate(67.000000, 5.000000)">
                            <path d="M7,9.5 C9,12.9 10.4,12.9 10.4,12.9 C10.4,12.9 10.3,5.9 13.9,4.8 C16.2,4.2 18.4,2.8 19.7,1.8 C18.2,1.2 16.3,0.8 14.6,0.8 C12.6,0.8 10.9,1.2 9.1,1.9 C7.6,4.4 5.9,7.6 7,9.5 L7,9.5 L7,9.5 Z" fill="#DBB82A"></path>
                            <path d="M19.7,1.6 C18.5,2.6 16.2,2.3 13.9,3 C10.2,4 10.4,12.7 10.4,12.7 C10.4,12.7 8.9,12.8 7,9.3 C5.9,7.5 7.6,4.2 9.3,1.7 C5.8,3.2 2.9,6 1.5,9.5 C1.6,15.4 2.6,21.6 3.3,23.7 C5.9,27.1 10,29.4 14.6,29.4 C17.7,29.4 18.7,28.9 22.2,27.1 C24,25.3 25.1,23.7 26.2,20.7 C27,18.4 27.3,12.1 27.4,8.5 C25.9,5.5 23.1,2.9 19.7,1.6 L19.7,1.6 L19.7,1.6 Z" fill="#FBDA37"></path>
                            <path d="M0.6,11 C2.6,14.4 4,14.4 4,14.4 C4,14.4 3.9,7.4 7.5,6.3 C9.8,5.7 12,4.3 13.3,3.3 C11.8,2.7 9.9,2.3 8.2,2.3 C6.2,2.3 4.5,2.7 2.7,3.4 C1.2,5.9 -0.4,9.2 0.6,11 L0.6,11 L0.6,11 Z" fill="#DBB82A"></path>
                        </g>
                        <path d="M67.8,23.9 C67.8,23.9 64.1,19.6 65.2,15.2 C66.2,10.9 63.2,6.1 69.3,4 C75.4,2 70.1,-1.3 81.7,0.8 C93.3,2.8 90.6,8.7 90.6,8.7 C90.6,8.7 97.3,6 97.3,11.9 C97.4,17.9 99.1,19.7 96.1,21.9 C93.1,24.2 96.5,18.7 93.1,14.7 C89.7,10.7 88.5,12 88.5,12 C88.5,12 87,5.1 81.8,6.5 C76.7,7.9 76,15.6 76,15.6 C76,15.6 73.3,15.1 73.1,12.1 C73,9.1 68.9,15.5 70.5,18.2 C72.2,21.1 67.6,20.5 67.5,19.2 C67.3,17.8 67.8,23.9 67.8,23.9 L67.8,23.9 L67.8,23.9 Z" id="Shape" fill="#D66E27"></path>
                        <path d="M75.9,5 C75.9,5 73.2,9 73.9,11.4 C74.7,13.7 74.8,14.4 74.8,14.4 C74.8,14.4 73.6,11.4 74.8,8.9 C76.1,6.6 75.9,5 75.9,5 L75.9,5 L75.9,5 Z" id="Shape" fill="#F78D36"></path>
                        <path d="M71.4,3.9 C71.4,3.9 68,5.4 67.2,6.8 C66.4,8.3 66.6,11.9 66.6,11.9 C66.6,11.9 67,8.5 68.3,7.3 C69.5,6.2 71.4,3.9 71.4,3.9 L71.4,3.9 L71.4,3.9 Z" id="Shape" fill="#F78D36"></path>
                        <g id="Shape" transform="translate(34.000000, 19.000000)">
                            <path d="M9.1,19.6 C6.4,14.9 7.3,7.8 8.4,2.5 C3.9,4.9 0.9,9.7 0.9,15.2 C0.9,23.1 7.3,29.5 15.2,29.5 C15.9,29.5 16.7,29.4 17.3,29.3 C15.1,27.4 11.8,24.3 9.1,19.6 L9.1,19.6 L9.1,19.6 Z" fill="#E7D170"></path>
                            <path d="M26,5.7 C23.4,2.8 19.6,0.8 15.2,0.8 C12.8,0.8 10.4,1.4 8.3,2.6 C7.1,7.9 6.3,15 9,19.7 C11.7,24.3 15,27.5 17.2,29.4 C20.7,28.9 23.9,27.1 26.1,24.4 C28.4,19.1 27.3,11.2 26,5.7 L26,5.7 L26,5.7 Z" fill="#F8E289"></path>
                        </g>
                        <path d="M97.4,89 C97.4,89 92.5,116.8 97.2,121.1 C101.8,125.4 103.3,121.1 103.3,121.1 C103.3,121.1 101.3,95 107,94.8 C112.7,94.6 113.4,95.1 113.4,95.1 C113.4,95.1 109.7,121.5 113.8,123 C117.9,124.5 120.4,122.9 120.4,122.9 C120.4,122.9 124.7,93.2 121.6,89.9 C118.7,86.7 97.4,89 97.4,89 L97.4,89 L97.4,89 Z" id="Shape" fill="#BE6028"></path>
                        <g id="Shape" transform="translate(24.000000, 14.000000)">
                            <path d="M19.1,5 C19.1,5 15.7,1.5 12.1,5.7 C8.4,9.9 11.2,31.7 3.3,29.6 C-4.6,27.5 8.4,38.7 14.1,36 C19.8,33.3 19.2,33.1 19.2,33.1 C19.2,33.1 13.7,29.9 13.3,28 C13.3,28 19.4,24.9 20.5,16.2 C20.5,13.2 20.3,8.4 19.1,4.9 L19.1,5 L19.1,5 L19.1,5 Z" fill="#F78D36"></path>
                            <path d="M43.3,19.3 C43.3,19.3 40.4,20.5 39.6,14.6 C38.7,8.5 35.2,-2.1 26.8,1 C20.7,3.1 19.5,4.4 19.2,5 C20.4,8.7 20.6,13.3 20.6,16.3 C20.6,16.1 20.7,15.8 20.7,15.6 C21.6,6.4 25.2,9.5 26,9.9 C26.8,10.5 25.1,5.6 30.9,7 C36.7,8.4 34.4,22.6 39,23.4 C43.5,24 43.3,19.3 43.3,19.3 L43.3,19.3 L43.3,19.3 Z" fill="#D66E27"></path>
                        </g>
                        <path d="M112.6,52.3 C112.6,52.3 102.7,55 99.6,62.4 C96.4,69.7 90.7,84.1 91.5,85.5 C92.3,86.7 95.5,92.2 97.3,90.4 C99.1,88.7 103.6,63.5 105.4,63.5 C107.2,63.5 93.2,88.2 95.9,89.5 C98.6,90.7 100,94.4 112.9,92.7 C125.7,91 124.5,88.7 124.5,88.7 C124.5,88.7 119.4,64.9 121.9,64.5 C124.3,64.1 124.5,91.7 127,91.7 C129.4,91.7 132.8,89.1 132.8,89.1 C132.8,89.1 129.9,57.9 125.8,55.1 C121.2,52.2 112.6,52.3 112.6,52.3 L112.6,52.3 L112.6,52.3 Z" id="Shape" fill="#6B3E1E"></path>
                        <path d="M111.5,54.2 C110.5,53.2 111.2,54.1 110.5,53.2 C112.5,52 112.3,46.2 112.5,45.3 C112.6,44.2 116.8,47.6 116.8,47.6 C117,46.7 116.9,53.1 116.6,52.7 C115.3,54.3 113.4,56 111.5,54.2 L111.5,54.2 L111.5,54.2 Z" id="Shape" fill="#D66E27"></path>
                        <path d="M127.9,53.6 C127.9,53.6 122.8,50.7 122.2,53.6 C121.6,56.5 115.8,62.1 122.2,60 C128.6,58 125.4,56.3 125.4,56.3 C125.4,56.3 122,62.6 125.4,62.2 C128.8,61.8 129.9,62.6 129.7,59.9 C129.6,57.2 131.3,59.6 127.9,53.6 L127.9,53.6 L127.9,53.6 Z" id="Shape" fill="#FBDA37"></path>
                        <path d="M54.2,121.1 C54.2,121.1 51.9,126.8 54.2,128.3 C56.5,129.8 54.8,134.6 62.7,132.3 C70.6,130 60.7,122.1 60.7,122.1 L54.2,121.1 L54.2,121.1 L54.2,121.1 Z" id="Shape" fill="#BE6028"></path>
                        <path d="M70.1,121.1 C70.1,121.1 68.3,123.8 70.1,125.1 C71.9,126.3 77.3,127.7 80.3,125.1 C83.3,122.5 75.9,120.6 75.9,120.6 L70.1,121.1 L70.1,121.1 L70.1,121.1 Z" id="Shape" fill="#BE6028"></path>
                        <path d="M46.1,89.4 C46.1,89.4 43.5,90.5 46.1,93.1 C48.7,95.7 49.9,97.7 49.9,97.7 C49.9,97.7 51.7,95.4 51.3,92.2 C50.8,89.1 49.9,86.6 49.9,86.6 L46.1,89.4 L46.1,89.4 L46.1,89.4 Z" id="Shape" fill="#F8E289"></path>
                        <path d="M8,100.2 L18.3,96.4 L39.7,100.2 L30.7,106 L8,100.2 L8,100.2 Z" id="Shape" fill="#F78D36"></path>
                        <g id="Shape" transform="translate(8.000000, 100.000000)">
                            <path d="M22.7,6 L0,0.2 L4.7,13.5 L23.8,16.5 L23,5.8 L22.7,6 L22.7,6 Z" fill="#D66E27"></path>
                            <path d="M23,5.8 L23.8,16.5 L24.1,16.5 L31.7,12.1 L31.7,0.2 L23,5.8 L23,5.8 Z" fill="#BE6028"></path>
                        </g>
                        <path d="M158.3,93 L146.6,93 L134.6,103.1 L134.6,103.8 L146.6,104 L158.3,93 L158.3,93 Z" id="Shape" fill="#F78D36"></path>
                        <g id="Shape" transform="translate(134.000000, 93.000000)">
                            <path d="M12.6,11 L0.6,10.8 L0.6,20.5 L13.3,22 L12.6,11 L12.6,11 Z" fill="#D66E27"></path>
                            <path d="M24.6,0 L24.3,0 L12.6,11 L13.3,22 L24.6,10.8 L24.6,0 L24.6,0 Z" fill="#BE6028"></path>
                        </g>
                    </g>
                </g>
                <g id="Process-PartTwo" transform="translate(0.000000, 300.000000)">
                    <rect id="Rectangle-path" fill="#E6EFC6" x="0" y="0.5" width="100%" height="300.5"></rect>
                    <g id="Group" transform="translate(37.000000, 130.000000)">
                        <path d="M10.5,90.2 C10.5,90.2 6.7,67.9 8.1,62.8 C9.5,57.6 23.3,41.3 23.3,41.3 C23.3,41.3 38.3,56.4 38.7,59 C39,61.6 43.9,93 40.4,92.5 C36.9,92 26.6,92.8 26.6,92.8 L10.5,90.2 L10.5,90.2 L10.5,90.2 Z" id="Shape" fill="#67863A"></path>
                        <path d="M110.6,66.1 C110.6,66.1 117.9,70.3 130.5,71.7 C143,73.1 152,72.8 152,72.8 C152,72.8 155,72.8 152,67 C149,61.2 121.2,54.8 117.4,57.1 C113.8,59.5 110.6,66.1 110.6,66.1 L110.6,66.1 L110.6,66.1 Z" id="Shape" fill="#4D5E2B"></path>
                        <path d="M5,68.7 L22.5,42.5 L42.6,63.8 L43.5,61.4 L22.5,36.9 L4.4,65.9 L5,68.7 L5,68.7 Z" id="Shape" fill="#4D5E2B"></path>
                        <path d="M17.9,89.1 C17.9,89.1 13.5,65 25.3,62.9 C37,60.8 35.2,89.3 35.2,89.3 L17.9,89.1 L17.9,89.1 L17.9,89.1 Z" id="Shape" fill="#4D5E2B"></path>
                        <path d="M110.6,92.3 L114.7,62.3 C114.7,62.3 121.2,57.7 133.7,59.1 C146.2,60.4 150.3,68.4 150.3,68.4 L145.7,94.2 L119.5,94.2 L110.6,92.3 L110.6,92.3 L110.6,92.3 Z" id="Shape" fill="#77A340"></path>
                        <path d="M119.6,94.3 C119.6,94.3 117.8,63.3 130.4,67.5 C142.9,71.7 133.3,95.4 133.3,95.4 L119.6,94.3 L119.6,94.3 L119.6,94.3 Z" id="Shape" fill="#67863A"></path>
                        <g id="Shape" transform="translate(0.000000, 81.000000)">
                            <path d="M91.6,14.5 L77.8,17.1 L46.1,9.2 L39,7.9 C35.8,8.8 32.5,9.9 29.5,11.7 C22.5,15.8 16.4,21 11.6,25.9 C21.7,35.8 40.8,44.8 77,44.8 C83,44.8 88.6,44.5 93.7,44.1 C86.5,35.5 80.7,23.8 91.6,14.5 L91.6,14.5 L91.6,14.5 Z" fill="#D1E49E"></path>
                            <path d="M29.5,11.7 C32.5,9.9 35.8,8.7 39,7.9 L0.4,0.9 C0.4,0.9 -0.5,14 11.5,25.8 C16.4,20.9 22.5,15.6 29.5,11.7 L29.5,11.7 L29.5,11.7 Z" fill="#B3D56E"></path>
                            <path d="M162.5,0.9 L91.5,14.5 C80.5,23.9 86.5,35.5 93.6,44.1 C157.7,38.3 162.5,0.9 162.5,0.9 L162.5,0.9 L162.5,0.9 Z" fill="#B3D56E"></path>
                        </g>
                        <path d="M53.9,88.7 C53.9,88.7 50.5,81.2 45.1,85.2 C39.6,89.3 44.6,93 47.7,94.3 C50.8,95.7 59.3,94.9 59.3,94.9 L58.7,90.8 L53.9,88.7 L53.9,88.7 L53.9,88.7 Z" id="Shape" fill="#4D5E2B"></path>
                        <path d="M70.3,64.9 L53.5,87.8 C53.5,87.8 58.1,93.1 59.7,91.5 C61.2,90 73.3,67.6 73.3,67.6 L78.2,67.6 C78.2,67.6 77.9,81.9 84.5,83.7 C91,85.5 100.4,77.1 100.4,77.1 L97.9,71.9 C97.9,71.9 91.3,78.3 87.4,78.2 C83.7,78.1 83.3,68.4 85.5,64 C87.8,59.8 70.3,64.9 70.3,64.9 L70.3,64.9 L70.3,64.9 Z" id="Shape" fill="#8EC547"></path>
                        <path d="M69.3,38.5 C69.3,38.5 67.3,56.5 63.4,57.9 C61.4,58.6 59.8,57.9 59.8,57.9 L61.7,62.3 C61.7,62.3 73.3,63.6 74.5,51.9 C75.7,40.3 72.4,38.6 72.4,38.6 L69.3,38.5 L69.3,38.5 L69.3,38.5 L69.3,38.5 L69.3,38.5 L69.3,38.5 Z" id="Shape" fill="#77A340"></path>
                        <path d="M72.2,32.5 C72.2,32.5 71.9,36.9 73.5,36.9 C75,36.9 77.3,37 76.4,34.9 C75.5,32.9 73.5,31.5 73.5,31.5 L72.2,32.5 L72.2,32.5 L72.2,32.5 Z" id="Shape" fill="#77A340"></path>
                        <path d="M61.6,3.4 C61.6,3.4 60.7,4.9 59.6,7.1 C60.1,6.8 60.7,6.5 61.3,6.3 L61.6,3.4 L61.6,3.4 L61.6,3.4 Z" id="Shape" fill="#4D5E2B"></path>
                        <path d="M60.3,10.3 C56.7,13.3 56.9,18.1 56.9,18.5 C56.9,18.9 63.7,15.9 64.3,13.8 C64.9,11.8 66.2,10.6 69.8,10.2 C73.5,9.9 68.9,11.6 69.2,13.8 C69.5,15.8 71.2,16.7 71.2,16.7 C71.2,16.7 70.9,12.6 72.9,12.6 C74.8,12.6 75.5,19.1 73.8,19.9 C72.1,20.7 78.7,18.1 78.7,15.1 C78.7,12 79,9 77.4,9 C75.8,9 69.2,6.1 66.1,6.4 C63,6.5 60.3,10.3 60.3,10.3 L60.3,10.3 L60.3,10.3 Z" id="Shape" fill="#4D5E2B"></path>
                        <path d="M69.3,38.5 C69.3,38.5 74.2,34.2 80.4,34.2 C86.5,34.2 89.2,44.3 89.2,50.1 C89.2,55.9 84.6,67.3 84.6,67.3 C84.6,67.3 77,64.3 70.4,65 C63.9,65.8 70.4,48.8 70.4,48.8 C70.4,48.8 73.6,38.8 69.3,38.5 L69.3,38.5 L69.3,38.5 Z" id="Shape" fill="#67863A"></path>
                        <path d="M80.2,34.2 C80.2,34.2 85.6,41 85.5,47 C85.4,53 74.1,57.5 70.9,57.8 C67.7,58.1 65.7,57.1 65.7,57.1 L65.7,51.8 C65.7,51.8 78.5,53.8 80.1,48.2 C81.8,42.7 77.2,36.8 77.2,36.8 C77.2,36.8 76.3,35.4 77.8,34.3 C79.4,33.5 80.2,34.2 80.2,34.2 L80.2,34.2 L80.2,34.2 Z" id="Shape" fill="#77A340"></path>
                        <circle id="Oval" fill="#B3D56E" cx="63.3" cy="52.4" r="4.1"></circle>
                        <path d="M100.3,77.2 C100.3,77.2 104.9,83.1 107.5,81.8 C112.3,79.7 107.5,75.5 107.5,75.5 L102,68.7 L97.9,71.9 L100.3,77.2 L100.3,77.2 L100.3,77.2 Z" id="Shape" fill="#4D5E2B"></path>
                        <g id="Shape" transform="translate(55.000000, 4.000000)">
                            <path d="M21.6,20.6 C21.3,13.6 17.2,5.6 17.2,5.6 L15.5,1 C14.6,0.7 13.5,0.7 12.5,0.7 C10.2,0.7 7.9,1.2 6,2.1 C5.4,2.4 4.9,2.7 4.3,2.9 C2.3,6.9 -0.5,12.8 0.1,15.7 C1,19.4 2.5,21.7 2.1,26.7 L2.1,26.7 C4.7,29.3 8.4,30.8 12.5,30.8 C14,30.8 15.5,30.5 16.9,30.1 C19,28.5 21.9,25.2 21.6,20.6 L21.6,20.6 L21.6,20.6 Z" fill="#B3D56E"></path>
                            <path d="M27.6,15.9 C27.6,8.6 22.4,2.6 15.4,1.1 L17.1,5.7 C17.1,5.7 21.2,13.6 21.5,20.7 C21.8,25.3 19,28.5 16.9,30.3 C23,28.4 27.6,22.6 27.6,15.9 L27.6,15.9 L27.6,15.9 Z" fill="#8EC547"></path>
                        </g>
                        <path d="M61.5,5.3 C61.5,5.3 57.7,5.9 56.3,8.2 C55,10.3 56,11.8 53.1,12.6 C50.1,13.4 57.1,15.1 62.1,11.2 C67.3,7.4 69.4,9.7 70.6,9.8 C71.9,9.9 72.6,9.2 76.2,11.8 C79.9,14.3 73.3,13.3 76.5,16.4 C79.7,19.4 77.9,21.4 77.9,21.4 C77.9,21.4 80.8,22.8 78.8,25.2 C76.9,27.6 79.7,27.3 79.7,27.3 C79.7,27.3 84.1,26.4 84.1,20.7 C84.1,15 80,11.1 80,11.1 C80,11.1 81.8,7 77.1,5.3 C72.5,3.5 71.5,3.9 69.8,1.5 C68,-1 69.5,3.6 69.5,3.6 C69.5,3.6 67.5,3.1 65.5,1.9 C63.6,0.7 65.8,3.8 65.8,3.8 C65.8,3.8 63.4,3.1 61.5,5.3 L61.5,5.3 L61.5,5.3 Z" id="Shape" fill="#4D5E2B"></path>
                        <g id="Shape" transform="translate(43.000000, 41.000000)">
                            <path d="M17,15.2 L11.8,1.4 C11.5,0.8 10.9,0.3 10.4,0.3 L5.4,17 C5.7,17.3 6.3,17.7 6.9,17.6 L16.3,16.4 C16.6,16.4 16.8,16.3 17,16.1 C17.2,15.9 17.2,15.4 17,15.2 L17,15.2 L17,15.2 Z" fill="#67863A"></path>
                            <path d="M10,0.3 L1.5,1.6 C1.2,1.6 1,1.7 0.8,1.9 C0.7,2.2 0.7,2.5 0.8,2.8 L5.1,16.5 C5.2,16.8 5.4,16.8 5.4,17.1 L10.4,0.4 C10.3,0.3 10.1,0.3 10,0.3 L10,0.3 L10,0.3 Z" fill="#77A340"></path>
                        </g>
                        <path d="M50.1,59.4 C50.1,59.4 51.4,62.4 54.4,62.4 C57.4,62.5 61.5,62.4 61.5,62.4 L59.6,58 C59.6,58 55,59.9 55.6,58 C56.2,56.1 56.5,55.9 55.3,55.9 C54.1,55.9 54.1,57.3 54.1,57.3 C54.1,57.3 54.4,55.9 53.6,55.9 C52.7,55.8 52.3,57.2 52.3,57.2 C52.3,57.2 53.2,55.8 52,55.5 C50.7,55.2 50.6,56.9 50.6,56.9 C50.6,56.9 49.9,56 50.1,59.4 L50.1,59.4 L50.1,59.4 Z" id="Shape" fill="#B3D56E"></path>
                        <g id="Shape" transform="translate(43.000000, 40.000000)">
                            <path d="M10.8,0.2 L2.3,1.5 C1.6,1.6 1,2.2 0.9,2.8 C1.2,2.7 1.2,2.5 1.6,2.5 L10.1,1.2 L10.6,1.2 L10.8,0.2 L10.8,0.2 L10.8,0.2 L10.8,0.2 Z" fill="#8EC547"></path>
                            <path d="M17.8,15.1 L12.6,1.3 C12.3,0.4 11.7,0.1 10.8,0.2 L10.5,1.3 C11.1,1.4 11.7,1.8 11.9,2.4 L17.1,16.2 C17.2,16.5 17.2,16.9 17.2,17.1 C17.8,16.8 18.1,15.9 17.8,15.1 L17.8,15.1 L17.8,15.1 Z" fill="#77A340"></path>
                        </g>
                        <path d="M110.6,66.1 C110.6,66.1 122.8,58.2 131.6,60 C140.5,61.8 144.8,62.7 147.5,66.1 C150.1,69.5 151.9,72.8 151.9,72.8 C151.9,72.8 153.3,73.7 155.1,71.4 C156.9,69.1 154.8,57 148.8,51 C142.8,44.9 126.7,41.5 117.8,50.2 C108.9,58.9 106.5,64.4 107,65.2 C107.4,65.9 110.6,66.1 110.6,66.1 L110.6,66.1 L110.6,66.1 Z" id="Shape" fill="#67863A"></path>
                    </g>
                </g>
                <g id="Process-PartOne">
                    <rect id="Rectangle-path" fill="#C7E7E0" x="0" y="0.5" width="100%" height="300.5"></rect>
                    <g id="Group" transform="translate(36.000000, 151.000000)">
                        <path d="M120.8,22.6 C120.8,16.1 117.6,10.4 112.7,6.8 C114.5,15.8 117.1,37.1 104.4,42.1 C113.7,40.4 120.8,32.3 120.8,22.6 L120.8,22.6 L120.8,22.6 Z" id="Shape" fill="#66C8CB"></path>
                        <path d="M34.5,27.3 C34.5,27.3 30.8,29.9 34.2,35.7 C37.8,41.6 42.5,43.3 41.2,47.6 C39.8,51.9 51.4,48.7 54.1,47.6 C56.8,46.5 69.1,46.4 69.1,47.6 C69.1,48.8 75,41.7 74.4,32.1 C73.7,22.5 70.7,13.2 62.8,14.3 C54.7,15.4 34.5,27.3 34.5,27.3 L34.5,27.3 L34.5,27.3 Z" id="Shape" fill="#19403E"></path>
                        <path d="M47.1,68.7 L79,76.8 L164.4,60.5 C164.4,60.5 158.7,104.6 78.3,104.6 C49.1,104.6 30.9,98.7 19.6,91.3 C-7.10542736e-15,78.3 1.2,60.4 1.2,60.4 L47.1,68.7 L47.1,68.7 L47.1,68.7 Z" id="Shape" fill="#94D3D2"></path>
                        <path d="M73.5,22.6 C73.5,11.6 64.6,2.7 53.6,2.7 C47.4,2.7 42,5.7 38.3,10.1 L54.9,17.8 L59.9,22.6 C59.9,22.6 66.1,31.6 66.1,37.8 C70.5,34.3 73.5,28.8 73.5,22.6 L73.5,22.6 L73.5,22.6 Z" id="Shape" fill="#94D3D2"></path>
                        <path d="M59.8,45 C59.8,45 75.9,39.3 72.6,55.3 C69.3,71.4 57.6,76.9 57.6,76.9 L52.2,73.9 C52.2,73.9 59.9,68.5 62.6,63.6 C65.3,58.7 66.9,52.2 65.8,51.1 C64.7,50 65.7,63.4 65.7,63.4 L56.3,71.8 L43.8,68.6 L47.3,47.7 C47.3,47.7 50.6,44.1 53.8,44.7 C56.9,45.3 58.6,45.7 58.6,45.7 L59.8,45 L59.8,45 L59.8,45 Z" id="Shape" fill="#28BEC3"></path>
                        <path d="M97.1,76.4 L101.6,81.6 L140.5,77.9 L140.5,76.2 L97.1,75.3 L97.1,76.4 L97.1,76.4 Z" id="Shape" fill="#19403E"></path>
                        <path d="M97.1,75.3 L101.6,80 L140.5,76.2 L131.8,71 L97.1,75.3 L97.1,75.3 Z" id="Shape" fill="#1C5C57"></path>
                        <path d="M63.8,76.4 L59.3,81.6 L20.4,77.9 L20.4,76.2 L63.8,75.3 L63.8,76.4 L63.8,76.4 Z" id="Shape" fill="#19403E"></path>
                        <path d="M63.8,75.3 L59.3,80 L20.4,76.2 L29.1,71 L63.8,75.3 L63.8,75.3 Z" id="Shape" fill="#1C5C57"></path>
                        <path d="M99,46.2 C99,46.2 85.6,50 85.5,60.8 C85.4,71.6 83.9,76.9 91.8,76.7 C99.6,76.7 101.7,74.6 101.7,74.6 L103.2,68.9 C103.2,68.9 96,72.5 92.4,66.6 C88.8,60.7 93.3,55.6 93.3,55.6 L93.3,70.6 L119.9,69.7 L116.2,50.2 C116.2,50.2 110.8,43.7 104.9,44.9 L99,46.2 L99,46.2 L99,46.2 Z" id="Shape" fill="#218D8F"></path>
                        <path d="M81.1,22.6 C81.1,22.6 76.3,26.8 79.2,31.3 C82.2,35.8 83.5,32.3 83.5,32.3 L81.1,22.6 L81.1,22.6 L81.1,22.6 Z" id="Shape" fill="#1B4F4C"></path>
                        <g id="Shape" transform="translate(110.000000, 35.000000)">
                            <path d="M33.8,1.1 C31.9,27 15,34.4 6.2,36.5 C12.2,36.8 27.9,37.8 30.9,34.6 C34.2,31 35.9,4.4 35.9,4.4 C35.9,4.4 35.9,1.6 33.8,1.1 L33.8,1.1 L33.8,1.1 Z" fill="#1B4F4C"></path>
                            <path d="M33.8,1.1 C33.5,1 33.5,0.8 33.1,0.8 L2.1,0.8 C2.1,0.8 0.3,2.1 0.8,7.4 C1.3,12.8 0.7,34.3 0.7,34.3 C0.7,34.3 0.4,36.5 4.6,36.5 L6.1,36.5 C15.1,34.5 32.8,27.4 33.8,1.1 L33.8,1.1 L33.8,1.1 Z" fill="#1C5C57"></path>
                        </g>
                        <path d="M130.8,56.6 C130.8,56.6 127.6,57.3 129,60.3 C130.4,63.3 130.8,71.3 129.7,74.6 C128.6,78.1 127.7,80.6 127.7,80.6 C127.7,80.6 129.2,83.1 131.8,80.6 C134.4,78.1 136,73.5 136,67 C135.9,60.7 133.7,58.2 130.8,56.6 L130.8,56.6 L130.8,56.6 Z" id="Shape" fill="#19403E"></path>
                        <path d="M140.5,79.7 C140.5,79.7 139,83 134.2,83.4 C129.4,83.7 121.2,83.4 121.2,83.4 C121.2,83.4 117,83.1 117.9,81.7 C118.8,80.3 123,80.4 128,79.8 C132.8,79.2 140.5,79.7 140.5,79.7 L140.5,79.7 L140.5,79.7 Z" id="Shape" fill="#19403E"></path>
                        <path d="M116.1,10 C116.1,10 116.4,6.3 120.6,8.8 C124.8,11.4 125.4,13.5 125,15.9 C124.6,18.3 122.3,17.9 125.1,21.3 C127.9,24.8 126.9,24.5 126.9,24.5 C126.9,24.5 122.6,25 121.5,21.5 C120.5,18 117.7,18.8 117.7,14.6" id="Shape" fill="#19403E"></path>
                        <path d="M104.3,42.2 C104.3,44.7 105.8,47 105.8,47 C105.8,47 102,47.6 100.4,47.9 C98.8,48.2 97.7,42.3 97.7,42.3 L104.3,42.3 L104.3,42.2 L104.3,42.2 L104.3,42.2 Z" id="Shape" fill="#66C8CB"></path>
                        <path d="M98.5,74.1 C98.5,74.1 99.7,77.4 102.9,76.8 C106.1,76.2 104.2,74.1 104.2,74.1 C104.2,74.1 105.7,76.3 108.4,75.5 C111.1,74.6 114,70.7 108.4,69.8 C102.8,68.9 103.4,68.4 101.5,69.5 C99.9,70.2 98.5,74.1 98.5,74.1 L98.5,74.1 L98.5,74.1 Z" id="Shape" fill="#94D3D2"></path>
                        <path d="M55.6,42.2 C55.6,42.2 55.9,48.1 58.7,47.8 C61.5,47.5 58.7,40.7 58.7,40.7" id="Shape" fill="#C7E7E0"></path>
                        <path d="M54.1,71.9 C50.4,71.9 49,75.5 49,75.5 C49,75.5 48.4,79.1 50.1,76.8 C51.8,74.7 52.9,75.5 52.9,75.5 C52.9,75.5 49.9,77 52.3,77.5 C54.6,78 55.6,76.5 55.5,75.5 C55.4,74.5 55.2,78.1 56.9,77.6 C58.5,77.1 59.7,74.6 58.6,73.8 C57.7,72.9 58.9,71.9 54.1,71.9 L54.1,71.9 L54.1,71.9 Z" id="Shape" fill="#C7E7E0"></path>
                        <path d="M32.6,70.1 C28.9,70.1 27.5,73.7 27.5,73.7 C27.5,73.7 26.9,77.3 28.6,75 C30.3,72.9 31.4,73.7 31.4,73.7 C31.4,73.7 28.4,75.2 30.8,75.7 C33.1,76.2 34.1,74.7 34,73.7 C33.9,72.7 33.7,76.3 35.4,75.8 C37,75.3 38.2,72.8 37.1,72 C36,71.1 37.3,70.1 32.6,70.1 L32.6,70.1 L32.6,70.1 Z" id="Shape" fill="#C7E7E0"></path>
                        <path d="M8.7,79.2 C8.7,79.2 10.2,82.5 15,82.9 C19.8,83.2 28,82.9 28,82.9 C28,82.9 32.2,82.6 31.3,81.2 C30.4,79.8 26.2,79.9 21.2,79.3 C16.3,78.6 8.7,79.2 8.7,79.2 L8.7,79.2 L8.7,79.2 Z" id="Shape" fill="#19403E"></path>
                        <ellipse id="Oval" fill="#FFFFFF" cx="85.2" cy="85.6" rx="13.3" ry="5.6"></ellipse>
                        <path d="M65.8,50.9 C65.8,50.9 61.7,52.4 62.5,57.4 C63.2,62.2 60,67.1 58.9,68 C57.9,68.9 58.9,68 58.9,68 L65.4,60.8 L65.8,50.9 L65.8,50.9 L65.8,50.9 Z" id="Shape" fill="#218D8F"></path>
                        <path d="M64.6,18.8 C64.6,18.8 66.5,20.9 65.9,22.6 C65.2,24.3 62.6,28 62.6,28 C62.6,28 65.4,26.3 66.1,24.3 C66.7,22.4 67.1,21 66.7,20.1 C66.2,19.5 64.6,18.8 64.6,18.8 L64.6,18.8 L64.6,18.8 Z" id="Shape" fill="#218D8F"></path>
                        <path d="M85.2,13.5 L81.5,16.8 C81.5,16.8 84.5,20 82.7,21.3 C81,22.6 80,23.1 80,26 C80,28.9 82.5,33.6 82.5,33.6 C82.5,33.6 86.2,38.3 88.4,32.3 C90.7,26.4 85.2,13.5 85.2,13.5 L85.2,13.5 L85.2,13.5 Z" id="Shape" fill="#19403E"></path>
                        <path d="M113,7.4 C109.7,5 105.6,3.5 101.2,3.5 C96.2,3.5 91.7,5.3 88.2,8.3 C85.9,11.5 83.4,15.9 84.4,19.5 C85.9,26.3 83,27.6 85.6,32.9 C86.5,34.7 87,36.2 87.5,37.6 C91.1,41.1 95.8,43.2 101.2,43.2 C102.4,43.2 103.5,43.1 104.8,42.9 C117.4,37.7 114.9,16.5 113,7.4 L113,7.4 L113,7.4 Z" id="Shape" fill="#94D3D2"></path>
                        <path d="M81.5,16.8 C89.1,13.3 92.6,11.2 93.7,9.9 C94.9,8.7 92.3,12.1 92.3,12.1 C92.3,12.1 98.5,12.1 102.9,9.7 C107.3,7.3 111.2,8 110.6,11.7 C109.9,15.4 113,15.4 115,14.7 C116.9,14 118,24 116.5,25.9 C115.1,27.8 113.8,30.3 116,31.3 C118.3,32.2 122.3,28 120.8,19.9 C119.3,11.8 114.5,2.3 104.4,2.3 C94.3,2.3 89.4,5 85.1,8.6 C80.7,12.2 81.5,16.8 81.5,16.8 L81.5,16.8 L81.5,16.8 Z" id="Shape" fill="#19403E"></path>
                        <path d="M93.1,4.4 C93.1,4.4 87.2,7.1 84.4,10.7 C81.6,14.4 90,8 90,8 L93.1,4.4 L93.1,4.4 L93.1,4.4 Z" id="Shape" fill="#1E6969"></path>
                        <path d="M99.9,5.1 C99.9,5.1 98.6,10.5 95.1,11 C91.6,11.5 96,12.2 98.8,9.3 C101.7,6.3 99.9,5.1 99.9,5.1 L99.9,5.1 L99.9,5.1 Z" id="Shape" fill="#1E6969"></path>
                        <g id="Shape" transform="translate(74.000000, 80.000000)">
                            <path d="M16.4,4.4 C16.4,4.4 15.6,2.7 14.6,1.7 C14.3,1.4 14.3,1.2 14.1,1 C13.3,1.3 12.8,1.7 12.8,1.7 L0.8,5.6 L16,7.7 C16,7.7 16.3,8 16.7,8 C15.8,6.4 16.4,4.4 16.4,4.4 L16.4,4.4 L16.4,4.4 Z" fill="#28BEC3"></path>
                            <path d="M19.4,7.7 C19.1,5 18.3,1.2 16.4,0.8 C15.5,0.5 14.7,0.8 14,1.1 C14,1.4 14.3,1.4 14.5,1.8 C15.6,2.7 16.3,4.5 16.3,4.5 C16.3,4.5 15.8,6.5 16.6,8.2 C17.7,8.8 19.7,9.6 19.4,7.7 L19.4,7.7 L19.4,7.7 Z" fill="#94D3D2"></path>
                        </g>
                        <ellipse id="Oval" fill="#218D8F" cx="86.4" cy="83.1" rx="1.5" ry="0.6"></ellipse>
                        <ellipse id="Oval" fill="#218D8F" cx="83.6" cy="85.6" rx="1.5" ry="0.6"></ellipse>
                        <path d="M59.9,22.6 L54.9,17.8 L44.6,13 C42.8,15.8 37.2,23.3 40.9,28 C43.3,31 41.2,37.4 41.6,39.8 C44.6,41.7 49.7,42.4 53.6,42.4 C58.4,42.4 62.6,40.7 66,37.9 C66.1,31.7 59.9,22.6 59.9,22.6 L59.9,22.6 L59.9,22.6 Z" id="Shape" fill="#C7E7E0"></path>
                        <path d="M36,27.3 C40.8,26.4 40.3,28.4 43.6,28 C55.8,26.7 51,21.5 50.5,21.5 L36,27.3 L36,27.3 L36,27.3 Z" id="Shape" fill="#94D3D2"></path>
                        <path d="M49.6,29.1 C54.4,28.2 51.6,29.2 54.9,28.2 C59,26.9 59.2,21.6 58.6,21.6 L49.6,29.1 L49.6,29.1 L49.6,29.1 Z" id="Shape" fill="#94D3D2"></path>
                        <g id="Shape" transform="translate(29.000000, 0.000000)">
                            <g id="Group">
                                <path d="M42.2,30.3 C43.3,28 41.9,25 40.5,22.1 C39.1,19.1 40.8,17.4 42.2,13.1 C43.2,9.9 40.2,5.9 38.3,3.8 C37.7,3.7 37.1,3.5 36.4,3.7 C28.1,4 33.6,1.95399252e-14 23.2,1.2 C12.8,2.4 9.9,7.1 6.5,11.7 C3,16.4 6,19.3 3.7,20.7 C1.4,22.3 4.9,27.7 1.9,28.2 C-1.1,28.7 2.4,30.4 5.2,28.2 C5.2,28.2 12.4,29.2 16.6,24.7 C20.8,20.3 21,28.2 19.7,29.4 C18.5,30.6 24.7,28.9 27.1,25 C29.5,21.1 33.4,27.2 32.5,29.8 C31.5,32.4 38.8,26.2 38.4,23.5 C38.1,20.7 39.1,22.7 38.4,30.5 C38.1,35.3 38.7,38.9 40.2,40.2 C39.1,38 41.2,32.4 42.2,30.3 L42.2,30.3 L42.2,30.3 Z" id="Shape" fill="#1E6969"></path>
                                <path d="M44.5,20.8 C46.1,16.6 48.9,16.1 46.3,13.2 C43.9,10.5 44,4.3 37.7,3.4 C39.5,5.5 42.5,9.6 41.6,12.7 C40.2,17.2 38.5,18.9 39.9,21.7 C41.3,24.7 42.6,27.6 41.6,29.9 C40.5,32.2 38.5,37.7 39.8,39.6 C40.7,40.4 41.8,40.2 43,38.7 C46.1,35 43.1,27.4 46.8,27.6 C50.5,28.2 42.8,25 44.5,20.8 L44.5,20.8 L44.5,20.8 Z" id="Shape" fill="#1B4F4C"></path>
                            </g>
                            <path d="M22.5,2.2 C22.5,2.2 12.3,3.9 9.4,11.4 C6.5,18.9 8.9,9.7 14.4,7.2 C19.7,4.4 22.5,2.2 22.5,2.2 L22.5,2.2 L22.5,2.2 Z" fill="#218D8F"></path>
                            <path d="M17.4,16.8 C17.4,16.8 16,23 10.5,24.5 L4.9,26 C4.9,26 12.5,26.1 14.8,23.6 C17.2,21.1 17.4,16.8 17.4,16.8 L17.4,16.8 L17.4,16.8 Z" fill="#218D8F"></path>
                            <path d="M7.6,23.2 C7.6,23.2 10.3,23.2 12.1,21.5 C13.9,19.9 14.9,17.8 14.9,16.7 C14.9,15.6 14.3,18.2 12.7,20.3 C10.9,22.4 7.6,23.2 7.6,23.2 L7.6,23.2 L7.6,23.2 Z" fill="#218D8F"></path>
                        </g>
                        <g id="Shape" transform="translate(0.000000, 36.000000)">
                            <path d="M5.8,34.1 C9.1,37.7 27.6,35.9 32.1,35.9 C36.6,35.9 36,33.7 36,33.7 C36,33.7 35.4,12.2 35.9,6.8 C36.4,1.4 34.6,0.2 34.6,0.2 C30.5,20.8 5.8,34.1 5.8,34.1 L5.8,34.1 L5.8,34.1 Z" fill="#1B4F4C"></path>
                            <path d="M0.8,4.1 C0.8,4.1 2.4,30.7 5.8,34.3 C5.8,34.3 30.7,21.5 34.7,0.6 L3.7,0.6 C0.6,0.3 0.8,4.1 0.8,4.1 L0.8,4.1 L0.8,4.1 Z" fill="#1C5C57"></path>
                        </g>
                        <path d="M18.4,56.2 C18.4,56.2 21.6,56.9 20.2,59.9 C18.8,62.9 18.4,70.9 19.5,74.2 C20.6,77.7 21.5,80.2 21.5,80.2 C21.5,80.2 20,82.7 17.4,80.2 C14.8,77.7 13.2,73.1 13.2,66.6 C13.3,60.1 15.4,57.6 18.4,56.2 L18.4,56.2 L18.4,56.2 Z" id="Shape" fill="#19403E"></path>
                    </g>
                </g>
                <g id="Step3" transform="translate(26.000000, 630.000000)" font-family="Hind" font-weight="700">
                    <text id="{{site.data[locale].how_we_work.step3.line1}}" fill="#606161" font-size="9" font-weight="300">
                        <tspan x="0" y="38">{{site.data[locale].how_we_work.step3.line1}}</tspan>
                    </text>
                    <text id="{{site.data[locale].how_we_work.step3.line2}}" fill="#606161" font-size="9" font-weight="300">
                        <tspan x="0" y="49">{{site.data[locale].how_we_work.step3.line2}}</tspan>
                    </text>
                    <text id="{{site.data[locale].how_we_work.step3.line3}}" fill="#606161" font-size="9" font-weight="300">
                        <tspan x="0" y="60">{{site.data[locale].how_we_work.step3.line3}}</tspan>
                    </text>
                    <text id="{{site.data[locale].how_we_work.step3.line4}}" fill="#606161" font-size="9" font-weight="300">
                        <tspan x="0" y="71">{{site.data[locale].how_we_work.step3.line4}}</tspan>
                    </text>
                    <text id="{{site.data[locale].how_we_work.step3.text}}" fill="#535454" font-size="18" font-weight="700">
                        <tspan x="0" y="18" fill="#606161">{{site.data[locale].how_we_work.step3.text}}</tspan>
                    </text>
                </g>
                <g id="Step2" transform="translate(26.000000, 337.000000)" font-family="Hind" font-weight="700">
                    <text id="{{site.data[locale].how_we_work.step2.line1}}" fill="#606161" font-size="9" font-weight="300">
                        <tspan x="0" y="37">{{site.data[locale].how_we_work.step2.line1}}</tspan>
                    </text>
                    <text id="{{site.data[locale].how_we_work.step2.line2}}" fill="#606161" font-size="9" font-weight="300">
                        <tspan x="0" y="48">{{site.data[locale].how_we_work.step2.line2}}</tspan>
                    </text>
                    <text id="{{site.data[locale].how_we_work.step2.line3}}" fill="#606161" font-size="9" font-weight="300">
                        <tspan x="0" y="59">{{site.data[locale].how_we_work.step2.line3}}</tspan>
                    </text>
                    <text id="{{site.data[locale].how_we_work.step2.text}}" fill="#535454" font-size="18" font-weight="700">
                        <tspan x="0" y="18" fill="#606161">{{site.data[locale].how_we_work.step2.text}}</tspan>
                    </text>
                </g>
                <g id="Step1" transform="translate(26.000000, 37.000000)" font-family="Hind" font-weight="700">
                    <text id="{{site.data[locale].how_we_work.step1.line1}}" fill="#606161" font-size="9" font-weight="300">
                        <tspan x="0" y="37">{{site.data[locale].how_we_work.step1.line1}}</tspan>
                    </text>
                    <text id="{{site.data[locale].how_we_work.step1.line2}}" fill="#606161" font-size="9" font-weight="300">
                        <tspan x="0" y="48">{{site.data[locale].how_we_work.step1.line2}}</tspan>
                    </text>
                    <text id="{{site.data[locale].how_we_work.step1.text}}" fill="#535454" font-size="18" font-weight="700">
                        <tspan x="0" y="18" fill="#606161">{{site.data[locale].how_we_work.step1.text}}</tspan>
                    </text>
                </g>
            </g>
        </g>
    </g>
</svg>
