<?xml version="1.0" encoding="utf-8"?>
<!-- Generator: Adobe Illustrator 19.1.0, SVG Export Plug-In . SVG Version: 6.00 Build 0)  -->
<svg version="1.1" id="Layer_1" xmlns="http://www.w3.org/2000/svg" xmlns:xlink="http://www.w3.org/1999/xlink" x="0px" y="0px"
	 viewBox="38 199.4 795.1 323.6" style="enable-background:new 38 199.4 795.1 323.6;" xml:space="preserve">
<style type="text/css">
	.st0{fill:#FFFFFF;}
	.st1{fill:#F17A22;}
	.st2{fill:#F6EB00;}
	.st3{fill:#E62825;}
	.st4{fill:#9DC950;}
	.st5{fill:#57C2F0;}
	.st6{enable-background:new    ;}
</style>
<circle class="st0" cx="194.8" cy="368" r="155"/>
<g>
	<path class="st1" d="M331.3,361.7H225.9v-71.1h81.6C321.5,311,330.1,335.4,331.3,361.7z"/>
	<path class="st2" d="M331.4,370.6c-0.5,26.1-8.3,50.5-21.5,71.1c-2,3.1-4,6-6.2,8.9c-3.4,4.5-7.2,8.8-11.1,12.9
		c-2.8,2.9-5.8,5.7-8.9,8.4c-16.4,14-36.1,24.2-57.7,29.2c-2.9,0.7-5.9,1.3-8.9,1.8c-7.2,1.2-14.6,1.8-22.2,1.8
		c-16.7,0-32.8-3-47.6-8.5v-45.5h145.3v-80L331.4,370.6L331.4,370.6z"/>
	<path class="st3" d="M283.6,370.6v71.1H79.7c-13.2-20.6-21-44.9-21.5-71.1H283.6z"/>
	<path class="st4" d="M300.8,281.7H147.2v-41.8c14.8-5.5,30.9-8.5,47.6-8.5c7.5,0,15,0.6,22.2,1.8c3,0.5,6,1.1,8.9,1.8
		c21.7,5,41.4,15.2,57.7,29.2c3.1,2.7,6.1,5.4,8.9,8.3C295.4,275.4,298.2,278.5,300.8,281.7z"/>
	<g>
		<path class="st5" d="M138.3,243.5v118.2h-80c1.2-26.3,9.8-50.7,23.9-71.1c2.1-3.1,4.3-6,6.7-8.9
			C102.1,265.5,119,252.3,138.3,243.5z"/>
	</g>
</g>
<g class="st6">
	<path class="st0" d="M454,361.2v-53.9l-19.5,39.2h-11.2l-19.5-39.2v53.9H383v-90h22.6l23.3,47l23.4-47h22.4v90H454z"/>
	<path class="st0" d="M490.4,287.1v-18.4h20.3v18.4H490.4z M490.4,361.2v-66.5h20.3v66.5H490.4z"/>
	<path class="st0" d="M550.8,362.5c-5.7,0-11.2-0.9-16.7-2.7c-5.5-1.8-10.1-4.5-13.9-7.9l7.2-12.4c4.1,2.8,8,4.9,11.9,6.5
		c3.8,1.5,7.5,2.3,11.1,2.3c2.6,0,4.6-0.5,6.1-1.4c1.4-0.9,2.2-2.3,2.2-4.1s-0.9-3.2-2.7-4.2c-1.8-1.1-5-2.2-9.6-3.4
		c-4.5-1.3-8.3-2.5-11.3-3.7c-3.1-1.2-5.6-2.5-7.5-3.9c-1.9-1.4-3.3-3.1-4.2-4.9c-0.8-1.9-1.3-4.1-1.3-6.6c0-3.4,0.7-6.5,2-9.3
		c1.4-2.8,3.2-5.2,5.6-7.1c2.4-1.9,5.2-3.5,8.4-4.6c3.3-1.1,6.8-1.6,10.6-1.6c5,0,9.7,0.7,14,2c4.4,1.4,8.6,3.8,12.6,7.4l-7.9,12.2
		c-3.8-2.6-7.2-4.5-10.1-5.7c-3-1.2-5.8-1.8-8.6-1.8c-2.2,0-4.1,0.4-5.6,1.3c-1.5,0.9-2.3,2.3-2.3,4.2c0,1.9,0.8,3.3,2.5,4.2
		c1.6,0.9,4.7,1.9,9.2,3c4.7,1.3,8.7,2.5,12,3.8c3.3,1.3,5.9,2.7,7.9,4.2c2,1.6,3.5,3.4,4.4,5.4c0.9,2,1.4,4.4,1.4,7.2
		c0,6.6-2.5,11.8-7.4,15.7C565.8,360.5,559.2,362.5,550.8,362.5z"/>
	<path class="st0" d="M614.1,362.5c-5.7,0-11.2-0.9-16.7-2.7c-5.5-1.8-10.1-4.5-13.9-7.9l7.2-12.4c4.1,2.8,8,4.9,11.9,6.5
		c3.8,1.5,7.5,2.3,11.1,2.3c2.6,0,4.6-0.5,6.1-1.4c1.4-0.9,2.2-2.3,2.2-4.1s-0.9-3.2-2.7-4.2c-1.8-1.1-5-2.2-9.6-3.4
		c-4.5-1.3-8.3-2.5-11.3-3.7c-3.1-1.2-5.6-2.5-7.5-3.9c-1.9-1.4-3.3-3.1-4.2-4.9c-0.8-1.9-1.3-4.1-1.3-6.6c0-3.4,0.7-6.5,2-9.3
		c1.4-2.8,3.2-5.2,5.6-7.1c2.4-1.9,5.2-3.5,8.4-4.6c3.3-1.1,6.8-1.6,10.6-1.6c5,0,9.7,0.7,14,2c4.4,1.4,8.6,3.8,12.6,7.4l-7.9,12.2
		c-3.8-2.6-7.2-4.5-10.1-5.7c-3-1.2-5.8-1.8-8.6-1.8c-2.2,0-4.1,0.4-5.6,1.3c-1.5,0.9-2.3,2.3-2.3,4.2c0,1.9,0.8,3.3,2.5,4.2
		c1.6,0.9,4.7,1.9,9.2,3c4.7,1.3,8.7,2.5,12,3.8c3.3,1.3,5.9,2.7,7.9,4.2c2,1.6,3.5,3.4,4.4,5.4c0.9,2,1.4,4.4,1.4,7.2
		c0,6.6-2.5,11.8-7.4,15.7C629.1,360.5,622.4,362.5,614.1,362.5z"/>
	<path class="st0" d="M651.1,287.1v-18.4h20.3v18.4H651.1z M651.1,361.2v-66.5h20.3v66.5H651.1z"/>
	<path class="st0" d="M749.4,361.2h-20.3v-37.4c0-4.4-0.8-7.6-2.5-9.6c-1.6-2-3.8-3-6.5-3c-1.4,0-2.9,0.3-4.3,0.9
		c-1.4,0.6-2.8,1.4-4.2,2.5c-1.4,1.1-2.6,2.3-3.6,3.7c-1.1,1.4-1.9,3-2.5,4.7v38.2h-20.3v-66.5h18.3v11.2c2.4-4,5.9-7,10.4-9.2
		c4.5-2.2,9.6-3.2,15.5-3.2c4.3,0,7.8,0.8,10.4,2.3c2.6,1.6,4.6,3.6,6.1,6.1c1.4,2.5,2.4,5.2,2.9,8.2c0.5,3,0.7,5.8,0.7,8.6V361.2z"
		/>
	<path class="st0" d="M788.7,361.5c-4.4,0-8.4-0.9-12-2.7c-3.6-1.8-6.7-4.2-9.3-7.2c-2.6-3-4.6-6.6-6-10.6
		c-1.4-4.1-2.2-8.4-2.2-13.1c0-4.9,0.8-9.4,2.3-13.6c1.5-4.2,3.6-7.8,6.3-10.9c2.7-3.1,6-5.5,9.8-7.3c3.8-1.8,8-2.7,12.5-2.7
		c5.1,0,9.5,1.1,13.2,3.2c3.8,2.2,6.8,5.1,9.1,8.9v-10.9H830v62c0,5.1-1,9.6-2.9,13.7s-4.5,7.5-7.9,10.3c-3.4,2.8-7.4,5-12.2,6.5
		c-4.7,1.5-9.9,2.3-15.6,2.3c-7.2,0-13.3-1.1-18.4-3.4c-5.1-2.3-9.5-5.6-13.3-9.9l10.9-11c2.4,2.8,5.5,5,9.1,6.7
		c3.6,1.6,7.5,2.5,11.7,2.5c2.4,0,4.8-0.3,7-1c2.2-0.7,4.1-1.7,5.8-3.1c1.7-1.4,3-3.2,4-5.5c1-2.2,1.5-4.9,1.5-8v-6.5
		c-2,3.7-4.9,6.5-8.7,8.4S793.1,361.5,788.7,361.5z M795.7,345.4c3.1,0,5.9-0.9,8.4-2.6c2.5-1.7,4.4-3.9,5.7-6.7v-13.9
		c-1.4-3.5-3.4-6.4-6.2-8.4c-2.8-2.1-5.7-3.1-8.9-3.1c-2.2,0-4.2,0.5-6,1.5c-1.8,1-3.4,2.3-4.7,3.9c-1.3,1.6-2.3,3.5-3,5.7
		c-0.7,2.2-1.1,4.4-1.1,6.7c0,2.5,0.4,4.7,1.2,6.8c0.8,2.1,1.9,3.9,3.4,5.4c1.4,1.5,3.1,2.7,5,3.5
		C791.3,344.9,793.4,345.4,795.7,345.4z"/>
</g>
<g class="st6">
	<path class="st0" d="M454,475.2v-53.9l-19.5,39.2h-11.2l-19.5-39.2v53.9H383v-90h22.6l23.3,47l23.4-47h22.4v90H454z"/>
	<path class="st0" d="M508.6,476.5c-3.3,0-6.4-0.5-9.2-1.6c-2.8-1.1-5.3-2.5-7.3-4.4s-3.6-4.1-4.8-6.7c-1.2-2.6-1.8-5.4-1.8-8.4
		c0-3.3,0.7-6.3,2.1-9c1.4-2.7,3.4-5,5.9-7c2.5-1.9,5.5-3.5,9-4.6c3.5-1.1,7.3-1.6,11.5-1.6c2.8,0,5.5,0.2,8.1,0.7
		c2.6,0.5,4.9,1.2,6.8,2.1v-3c0-7.7-4.4-11.5-13.3-11.5c-3.6,0-7.1,0.6-10.4,1.8c-3.3,1.2-6.8,3.1-10.4,5.5l-6-12.7
		c4.4-2.9,9-5,13.7-6.5c4.7-1.4,9.8-2.2,15.1-2.2c10.1,0,17.8,2.4,23.3,7.1c5.5,4.7,8.2,11.7,8.2,20.8v17.1c0,2,0.3,3.4,1,4.2
		c0.6,0.8,1.8,1.3,3.4,1.5v17.1c-1.8,0.4-3.4,0.7-4.8,0.8c-1.4,0.1-2.7,0.2-3.9,0.2c-3.8,0-6.7-0.7-8.6-2.2
		c-1.9-1.5-3.2-3.6-3.7-6.3l-0.4-3c-3,3.8-6.5,6.7-10.6,8.7C517.5,475.5,513.2,476.5,508.6,476.5z M514.6,461.9
		c2.2,0,4.3-0.4,6.4-1.1c2.1-0.8,3.8-1.8,5.1-3c1.9-1.5,2.9-3.1,2.9-4.8v-6.3c-1.8-0.7-3.7-1.2-5.8-1.6c-2.1-0.4-4-0.6-5.8-0.6
		c-3.7,0-6.8,0.8-9.2,2.5c-2.4,1.7-3.6,3.9-3.6,6.6c0,2.5,0.9,4.5,2.8,6C509.3,461.1,511.7,461.9,514.6,461.9z"/>
	<path class="st0" d="M606.1,476.5c-5.1,0-9.5-1.1-13.2-3.2c-3.7-2.1-6.6-5.1-8.6-8.9v37.8H564v-93.5h17.6v10.8
		c2.5-3.8,5.5-6.8,9.2-8.9c3.7-2.1,8-3.2,13.1-3.2c4.5,0,8.6,0.9,12.4,2.7c3.8,1.8,7,4.2,9.8,7.3c2.7,3.1,4.9,6.7,6.5,10.9
		c1.6,4.2,2.3,8.7,2.3,13.5c0,5-0.7,9.6-2.2,13.8c-1.4,4.2-3.4,7.9-6,11c-2.5,3.1-5.6,5.5-9.1,7.3S610.2,476.5,606.1,476.5z
		 M599.2,459.4c2.2,0,4.2-0.5,6-1.5c1.8-1,3.4-2.3,4.8-3.9c1.4-1.6,2.4-3.5,3.1-5.6c0.7-2.2,1.1-4.4,1.1-6.8c0-2.5-0.4-4.7-1.2-6.8
		c-0.8-2.1-1.9-3.9-3.3-5.4c-1.4-1.5-3.1-2.7-5.1-3.5c-2-0.8-4.1-1.3-6.4-1.3c-2.8,0-5.5,0.8-8,2.5c-2.6,1.6-4.5,3.9-5.9,6.7v13.7
		c1.4,3.4,3.4,6.2,6.1,8.5C593.2,458.2,596.1,459.4,599.2,459.4z"/>
	<path class="st0" d="M671.4,476.5c-5.7,0-11.2-0.9-16.7-2.7c-5.5-1.8-10.1-4.5-13.9-7.9l7.2-12.4c4.1,2.8,8,4.9,11.9,6.5
		c3.8,1.5,7.5,2.3,11.1,2.3c2.6,0,4.6-0.5,6.1-1.4c1.4-0.9,2.2-2.3,2.2-4.1s-0.9-3.2-2.7-4.2c-1.8-1.1-5-2.2-9.6-3.4
		c-4.5-1.3-8.3-2.5-11.3-3.7c-3.1-1.2-5.6-2.5-7.5-3.9c-1.9-1.4-3.3-3.1-4.2-4.9c-0.8-1.9-1.3-4.1-1.3-6.6c0-3.4,0.7-6.5,2-9.3
		c1.4-2.8,3.2-5.2,5.6-7.1c2.4-1.9,5.2-3.5,8.4-4.6c3.3-1.1,6.8-1.6,10.6-1.6c5,0,9.7,0.7,14,2c4.4,1.4,8.6,3.8,12.6,7.4l-7.9,12.2
		c-3.8-2.6-7.2-4.5-10.1-5.7c-3-1.2-5.8-1.8-8.6-1.8c-2.2,0-4.1,0.4-5.6,1.3c-1.5,0.9-2.3,2.3-2.3,4.2c0,1.9,0.8,3.3,2.5,4.2
		c1.6,0.9,4.7,1.9,9.2,3c4.7,1.3,8.7,2.5,12,3.8c3.3,1.3,5.9,2.7,7.9,4.2c2,1.6,3.5,3.4,4.4,5.4c0.9,2,1.4,4.4,1.4,7.2
		c0,6.6-2.5,11.8-7.4,15.7C686.3,474.5,679.7,476.5,671.4,476.5z"/>
</g>
</svg>
