<?xml version="1.0" encoding="utf-8"?>
<!-- Generator: Adobe Illustrator 19.1.0, SVG Export Plug-In . SVG Version: 6.00 Build 0)  -->
<svg version="1.1" id="Layer_1" xmlns="http://www.w3.org/2000/svg" xmlns:xlink="http://www.w3.org/1999/xlink" x="0px" y="0px"
	 viewBox="-57 60 27.3 26" style="enable-background:new -57 60 27.3 26;" xml:space="preserve">
<style type="text/css">
	.st0{fill:#898989;}
	.st1{fill:#ABABAB;}
</style>
<rect x="-45.2" y="69.1" class="st0" width="2.2" height="3.1"/>
<g>
	<g>
		<path class="st0" d="M-44,75.5c0.4,0,0.9,0.6,1.8,0.6c0.1-0.3,0.1-0.5,0.1-0.5V70l-2.4,0.4c0,0-0.3-2.9,0,5.2c0,0.1,0,0.1,0,0.2
			C-44.3,75.6-44.2,75.5-44,75.5z"/>
		<path class="st1" d="M-40.3,82.8c0.1,0,0.2,0,0.3,0c1.9,0,4.3-0.6,0.1-0.9c-2.9-0.2-2.7-4.1-2.4-5.8c-0.9,0-1.4-0.7-1.8-0.6
			c-0.1,0-0.3,0.1-0.5,0.3c0.2,7.9-4.7,6-4.7,6c-3.1,0.7-0.4,0.8,1.6,0.8c0.4,0,0.7,0,0.9,0c-0.9,0.7-2.4,1.3-0.8,1.2
			c1.8-0.1,3.8-2,5-1.1C-42.1,82.9-40.3,82.8-40.3,82.8z"/>
	</g>
	<circle class="st0" cx="-45.6" cy="74.8" r="1"/>
	<ellipse class="st0" cx="-44.3" cy="74.3" rx="1.1" ry="1"/>
	<ellipse class="st0" cx="-41.5" cy="74.4" rx="1" ry="0.9"/>
	<ellipse class="st0" cx="-40.5" cy="73.5" rx="1.3" ry="1.6"/>
	<ellipse class="st0" cx="-39.7" cy="72.9" rx="1.6" ry="1.4"/>
	<ellipse class="st0" cx="-35.7" cy="70.1" rx="0.6" ry="1.1"/>
	<ellipse class="st0" cx="-36.8" cy="72.7" rx="1.1" ry="0.8"/>
	<ellipse class="st0" cx="-36" cy="72.1" rx="1.1" ry="0.9"/>
	<ellipse class="st0" cx="-50.3" cy="72.5" rx="1.5" ry="1.2"/>
	<ellipse class="st0" cx="-48.8" cy="72.9" rx="0.7" ry="0.7"/>
	<ellipse class="st0" cx="-46.1" cy="75.9" rx="0.5" ry="0.4"/>
	<ellipse class="st0" cx="-42.2" cy="75.5" rx="0.5" ry="0.4"/>
	<ellipse class="st0" cx="-39.9" cy="74.9" rx="0.3" ry="0.3"/>
	<ellipse class="st0" cx="-38.4" cy="74" rx="0.4" ry="0.5"/>
	<ellipse class="st0" cx="-35" cy="70.1" rx="0.4" ry="0.3"/>
	<ellipse class="st0" cx="-34.3" cy="70.1" rx="0.3" ry="0.3"/>
	<ellipse class="st0" cx="-35" cy="71.3" rx="0.4" ry="0.3"/>
	<path class="st1" d="M-35.4,70.1c0,0.2-0.1,0.4-0.1,0.6c0.5,0.1,0.8,0.4,0.8,0.8c0,0.5-0.5,0.9-1.1,0.9c-0.1,0-0.3,0-0.4-0.1
		c0.2,0.2,0.3,0.4,0.4,0.7c0.3,0.1,0.4,0.3,0.4,0.6s-0.3,0.6-0.7,0.6c-0.3,0.4-0.7,0.6-1.2,0.6c-0.7,0-1.4-0.5-1.5-1.3
		c-0.3,0-0.5-0.1-0.8-0.2c0,0-0.1,0-0.1,0.1c-0.1,0.8-0.8,1.4-1.6,1.4c-0.5,0-1-0.3-1.3-0.6c0,0-0.1,0-0.2,0h-0.1
		c-0.6,0.4-1.3,0.6-2,0.6c-0.2,0-0.4,0-0.6-0.1c-0.2,0.9-1,1.5-1.8,1.5c-1.1,0-1.9-0.9-1.9-2.1c0-0.4,0.1-0.8,0.3-1.1
		c-0.1-0.1-0.2-0.1-0.4-0.2c-0.4,0.4-1,0.7-1.6,0.7c-1.1,0-2.1-0.9-2.1-1.9c0-0.4,0.1-0.7,0.3-1c-0.1-0.1-0.2-0.4-0.2-0.6
		c0-0.5,0.5-1,1.1-1.1c-0.3-0.3-0.5-0.6-0.5-1c0-0.8,0.8-1.5,1.8-1.5c0.4,0,0.7,0.1,1,0.3c0.1-0.1,0.1-0.1,0.2-0.1
		c-0.3-0.2-0.4-0.5-0.4-0.8c0-0.5,0.4-0.9,0.9-1c0-0.1,0-0.3,0-0.4c0-1.3,1-2.3,2.2-2.3c1,0,1.8,0.7,2.1,1.7
		c0.1-0.1,0.3-0.1,0.4-0.1c0.3,0,0.5,0.1,0.7,0.2c0.2-1,1-1.8,2-1.8c0.9,0,1.7,0.7,2,1.6c0.4,0,0.8,0.1,1.1,0.3
		c0.2-0.2,0.5-0.3,0.8-0.3c0.6,0,1.1,0.5,1.1,1.1c0,0.6-0.4,1-1,1.1l0,0c0.4,0.1,0.6,0.3,0.8,0.5c0.1,0,0.1,0,0.2,0s0.2,0,0.2,0
		c0.1-0.3,0.4-0.6,0.7-0.6c0.4,0,0.7,0.4,0.7,0.8c0,0.2-0.1,0.4-0.2,0.5c0.1,0.2,0.2,0.4,0.2,0.6l0,0c0.7,0,1.3,0.6,1.3,1.3
		c0,0.7-0.6,1.3-1.4,1.3C-35,70.2-35.3,70.2-35.4,70.1z"/>
</g>
</svg>
