<?xml version="1.0" encoding="utf-8"?>
<!-- Generator: Adobe Illustrator 18.1.1, SVG Export Plug-In . SVG Version: 6.00 Build 0)  -->
<svg version="1.1"
	 id="svg153" xmlns:cc="http://creativecommons.org/ns#" xmlns:dc="http://purl.org/dc/elements/1.1/" xmlns:rdf="http://www.w3.org/1999/02/22-rdf-syntax-ns#"
	 xmlns="http://www.w3.org/2000/svg" xmlns:xlink="http://www.w3.org/1999/xlink" x="0px" y="0px" viewBox="-49 141 512 512"
	 enable-background="new -49 141 512 512" xml:space="preserve">
<desc  id="desc3066">The United States of America flag, produced by Daniel McRae</desc>
<rect x="-49" y="141" fill="#5B92E5" width="512" height="512"/>
<g>
	<path fill="#FFFFFF" d="M359.1,529.9c-13.7,3.7-28.3,4.9-41.6,9.4c22.5-19.3,21.3-49.3,36.3-72.1c4.8-6.4,8.8-13.2,14.3-19.3
		c-9.1,18.4-5.2,42.2-15.7,60c-4,7.1-9.8,13.9-16.2,19.5c2.1-0.1,3.9-1.9,5.8-3.1c17.1-17.1,39.4-21.8,57.8-35.7
		c7.4-5.9,14.2-13.6,17.4-22C413.7,495,385.6,521.5,359.1,529.9L359.1,529.9z"/>
	<path fill="#FFFFFF" d="M420.6,415.4c-8.3,11.9-18.5,23-26.2,35.1c0.9-9.6,2-21.3-1.7-30.4c-6.5-19.5-12.1-39.4-14-60.8l0.3-8.2
		c4.9,21.9,26.3,36.9,25,61.5c0.5,5.9-1.4,11-2.5,16.2l0.4,0.4l1-1.1c3.2-12,4.8-24.7,9.7-35.9c7-16.2,15.8-32.5,12.2-52
		C435.5,363.2,432.3,393.9,420.6,415.4L420.6,415.4z"/>
	<path fill="#FFFFFF" d="M407.4,291.4c14.1,19.1,17.2,49.5,6.9,71.5c-3.8,9.3-6.5,19.2-8,29.5c-0.7-1.8-0.9-4.2-1.5-6.1
		c-5.6-21.4-25.9-36.7-34.2-57c-2.6-6.6-4.9-13.4-6.1-20.6c8.9,16.5,30.9,25,36.8,43.2c2.5,4.6,2.3,10.3,3.8,15.3
		c0.3,0,0.6-0.2,0.6-0.6c-2.6-18.7-1.8-38.3,0.7-56.8c-0.1-10-1.1-19.7-6.7-27.5C403.3,284.3,404.9,288.3,407.4,291.4L407.4,291.4z"
		/>
	<path fill="#FFFFFF" d="M397.5,287.7c3.7,16.7-1.7,33,1.7,49.9l-0.1,0.1c-9.1-17.9-28.4-26.4-41.7-40.7c-7.7-8.5-11-18.9-13-29.8
		c7.6,18.4,28.2,22.4,40,37.9c3.9,3.6,5.2,8.5,7.8,12.6l0.4-0.4c-6.8-14.5-9.1-30.8-13.8-46.3c-2.4-6.7-7.1-13.3-13.4-17.5
		C380.8,256.8,394.2,272.9,397.5,287.7L397.5,287.7z"/>
	<path fill="#FFFFFF" d="M356.1,249.4c11.7,10.4,16.9,24,20.3,38l1.9,4.5c-16.9-12.2-32.3-28.6-43.1-45.9L322,232.6
		C333.6,237.5,346.1,240.4,356.1,249.4L356.1,249.4z"/>
	<path fill="#FFFFFF" d="M88.7,234.8C77,245.1,68.9,258,60.2,270.1c-7.8,9.6-17.7,16-26.6,24.3c4.8-9.9,4.9-21.7,11.7-30.8
		C55,246.9,72.8,241,88.7,234.8L88.7,234.8z"/>
	<path fill="#FFFFFF" d="M24.7,270.5c5.7-7.1,12.9-12,21-14.1C30,267.3,31,286.7,26,302.9c-1.6,6-4.4,11.5-5.7,17.6l0.4,0.3
		c2.6-6.9,7.2-13.5,13-19.1c11.2-10.3,27.8-16.8,33.2-32.1c-0.3,21.3-18,38-34.9,49.9c-7,6.1-13.7,13.1-17.6,21
		c-0.4-5.4,0.8-10.8,0.4-16.5C13,305.5,11.6,284.3,24.7,270.5L24.7,270.5z"/>
	<path fill="#FFFFFF" d="M-7.2,334c-0.5-18.8,7.3-34.2,18.3-48.2c0.3-0.2,0.5-0.5,1-0.4C0,303.8,10,327,9.5,348l-1.6,21.4
		c0.2,0.2,0.2,0.8,0.8,0.6c0.7-2.4,0.9-4.9,1.3-7.4C12.9,345.3,27.9,333,41,321c2.8-3.1,5.3-6.3,6.7-10c-1.1,8.6-3.8,17.3-7.3,25.2
		c-10.2,19.9-29,36.2-32.5,59C6.2,373.5-8.6,357.2-7.2,334L-7.2,334z"/>
	<path fill="#FFFFFF" d="M-16.3,360.8c1.4-5.9,2.4-12,5-17.4c-4.8,24.9,11.9,42.8,17.3,64.4c2.3,8.1,2.9,16.7,6.1,24.3
		c0.3,0.2,0.6-0.2,0.8-0.4c-8.2-22.9,3.6-44.2,15.5-62.1c2.9-4.9,4.5-10.3,6-15.9c1.3,10.4-1.4,22.3-2.9,33.1
		c-2.9,13.7-7.2,26.7-10.9,40c-2.5,8.3-1.8,17.7-0.5,26.4l-1.2-0.9c-8.7-16-25.9-28.5-31-46C-16.4,392.1-19.2,376-16.3,360.8
		L-16.3,360.8z"/>
	<path fill="#FFFFFF" d="M-17.1,409.4c1.9,26.4,30.2,40.3,43.4,62.1c3.1,4.5,5.8,9.4,10,13.1c-0.6-2.8-3.3-5.2-4.2-8
		c-4.6-9.2-6.3-20.1-5.2-31.1c1.3-13.5,6.9-26,4.8-40.1c11.5,24.9,8,56,14.5,83c1.7,5.9,5.1,11.2,7.3,16.8
		c-23.7-16.2-56-31.5-66.5-61.1C-17.6,433.7-18.1,421.1-17.1,409.4L-17.1,409.4z"/>
	<path fill="#FFFFFF" d="M-2.9,469.9c13.2,29.9,46.3,32.4,68.5,50.6c4.1,3.6,8.4,6.7,13,8.9l0.2-0.2c-5.1-4.6-11-9.9-14.6-15.8
		c-13-18.1-8.4-43.4-18.2-62.8c8.8,10.6,16.9,21.6,22.2,33.6c7.9,19.6,11,41.8,29.3,56.6c-19.9-6.6-43.2-4.7-60.7-17
		C17.7,511.9,0.6,491.9-2.9,469.9L-2.9,469.9z"/>
	<path fill="#FFFFFF" d="M31,525.7c21.2,24.1,55.8,16.1,84,22.4c4,0.5,7.6,2.1,11.9,1.5c-3.4-2.1-8-1.9-11.7-3.8
		C93.1,538,89.8,514,77.8,497.8c15.3,10.2,28.2,24,42.4,37.3c10.2,8.9,22.4,13,35.3,15.7c-3.1,1.1-7.2,0.8-10.5,1.7
		c-23.2,5.7-48.9,15-73.5,6.7C55.6,554.1,39.1,541.5,31,525.7L31,525.7z"/>
	<path fill="#FFFFFF" d="M318.6,581.9c-23.9,8.9-48.8-0.4-67.4-14.6c-7.6-4.8-14.2-11.7-24-11.1c-3.5-0.1-7,0.1-10,1
		c18.1,8.4,34.9,20.1,50.3,35c-2.6,3-6,5.7-9.1,8.3c-14.8-16-31.2-31.4-49.6-40.4c-3.6,0.5-7,2.6-10.3,4.4
		c-15,9.5-29.8,21.7-40.9,36.6l-9.6-7.9c15.3-15.5,32.1-27.5,50.6-36.1c-18.1-5.8-30,9.5-43.8,17.2c-16.1,11.2-39.1,16.5-58.5,8.7
		c-10.4-4-20.5-9.8-28.1-19.3c15.3,10.5,38,11.6,55.4,4.8c23.3-10.1,47.5-22.9,75.6-16.8c4.4,0.1,8.6,4.4,12.8,0.7
		c20.9-5.4,44.5-1.7,62.5,7.9l18.5,7.4c17.2,6.4,39.5,4.6,54.2-5.9C339.7,571.3,329.3,578.1,318.6,581.9L318.6,581.9z"/>
	<path fill="#FFFFFF" d="M344.2,557.2c-26.8,10.1-53.8-2.3-79.5-6.5l-4.9-0.6V550c12.3-2.8,24.2-6.4,34-15.3
		c14.4-13.9,27.2-28.1,43.2-39c-11.9,15.2-13.1,36.9-32.7,46.7c-4.8,3.2-11,3.7-16,6.1c7.1,0.2,13.7-2.4,20.7-3.1
		c26.3-4.1,56.3,0.1,74.7-22.3C376.9,538.7,359.8,551.8,344.2,557.2L344.2,557.2z"/>
	<path fill="#FFFFFF" d="M392.9,481.8c-10.6,6.9-21.3,13.4-31.5,21.3v-1c15.6-25.9,8-61.5,17.6-90.1l3.6-9.6
		c-2,17.8,5.7,32.8,5.2,50.7c-0.5,10.8-4.1,20.3-9.7,28.9h1c7.6-10,13.6-20.7,22.5-30.3c13.9-13.4,27.9-27.1,29.8-45.6
		C435.9,437.1,418.6,464.2,392.9,481.8L392.9,481.8z"/>
</g>
<polygon fill="#FFFFFF" points="204.8,414.3 209.7,414.3 209.7,535 204.8,535 "/>
<polygon fill="#FFFFFF" points="178.8,402.4 182.2,405.8 96.8,491.1 93.4,487.7 "/>
<polygon fill="#FFFFFF" points="170.6,377.3 170.6,382.1 50,381.9 50,377.1 "/>
<polygon fill="#FFFFFF" points="182.1,354 178.7,357.4 93.4,272 96.8,268.6 "/>
<polygon fill="#FFFFFF" points="209.6,344.1 204.8,344.1 204.9,223.3 209.7,223.3 "/>
<polygon fill="#FFFFFF" points="233.7,355.6 230.3,352.2 315.7,266.9 319.1,270.3 "/>
<polygon fill="#FFFFFF" points="243,382.4 243,377.6 363.6,377.5 363.6,382.3 "/>
<polygon fill="#FFFFFF" points="229.1,407 232.5,403.6 317.9,488.9 314.5,492.3 "/>
<path fill="#FFFFFF" d="M252.2,258.9c-66.4-24.9-140.5,8.9-165.3,75.4c-24.8,66.5,8.9,140.6,75.3,165.5
	c66.4,24.9,140.5-8.9,165.3-75.4C352.4,357.8,318.6,283.7,252.2,258.9z M322.4,422.4c-23.8,63.6-94.6,95.9-158.2,72.2
	c-63.5-23.8-95.8-94.7-72.1-158.3c23.8-63.6,94.6-95.9,158.1-72.2C313.8,287.8,346.1,358.8,322.4,422.4z"/>
<path fill="#FFFFFF" d="M241.9,286.5c-51.2-19.2-108.3,6.9-127.4,58.1c-19.1,51.2,6.9,108.4,58.1,127.6
	c51.2,19.2,108.3-6.9,127.4-58.1C319.1,362.8,293.1,305.6,241.9,286.5z M294.8,412c-18.1,48.4-71.9,72.9-120.2,54.9
	c-48.3-18.1-72.9-72-54.8-120.4c18.1-48.4,71.9-72.9,120.2-54.9C288.3,309.8,312.8,363.7,294.8,412z"/>
<path fill="#FFFFFF" d="M231.9,313.2c-36.4-13.6-77.1,4.9-90.7,41.4c-13.6,36.5,4.9,77.1,41.3,90.8c36.4,13.6,77.1-4.9,90.7-41.4
	C286.9,367.5,268.4,326.9,231.9,313.2z M268.5,402.2c-12.6,33.8-50.3,51-84.1,38.4c-33.8-12.6-51-50.4-38.3-84.2
	c12.6-33.8,50.3-51,84.1-38.4S281.1,368.4,268.5,402.2z"/>
<path fill="#FFFFFF" d="M220.7,343.3c-19.8-7.4-42,2.7-49.4,22.5c-7.4,19.9,2.7,42,22.5,49.4c19.8,7.4,42-2.7,49.4-22.5
	C250.6,372.9,240.5,350.8,220.7,343.3z M238,390.8c-6.3,17-25.3,25.6-42.2,19.3c-17-6.4-25.6-25.3-19.3-42.3
	c6.3-17,25.3-25.6,42.2-19.3C235.7,354.9,244.3,373.8,238,390.8z"/>
<path fill="#FFFFFF" d="M282.2,239.8c-77.7-42.8-174.3-15-215.7,62c-41.4,77-11.9,174.2,65.8,217c77.7,42.8,174.3,15,215.7-62
	C389.4,379.8,359.9,282.6,282.2,239.8z M342.9,454c-39.9,74.2-133,101-207.8,59.7C60.2,472.5,31.8,378.8,71.6,304.6
	c39.9-74.2,133-101,207.8-59.7C354.3,286.1,382.7,379.8,342.9,454z"/>
<path fill="#FFFFFF" d="M301,453.9c0.1,0.8-0.2,2.9,0.2,3.3c0.4,0.6,1.9,0.5,2.5,0.3c1.8-0.7,3.5-3,4.3-4.7c0.6-0.9,1-1.9,0.8-3.1
	l-1.2-3.7c-0.3-1.3-0.7-3.6-2.1-4.2c0.1-0.3,0.6-0.9,0.5-1.4c-0.3-1.5-2.8-1.1-3.7,0c-0.4,0.5-0.3,1.7-0.4,2.4
	c0,1.3-0.4,4.1-0.9,5.3c-0.5,1.2-2,2.9-2,4.2C299.1,453.2,300.2,453.8,301,453.9L301,453.9z M219,443.5l0.4,1c0,0.2,0.2,0.5,0.4,0.5
	c1.1,1.1,2.7-1.4,0.8-1.7c-0.2,0-0.5-0.1-0.7,0.1C219.7,443.3,219.3,443.4,219,443.5L219,443.5z M220.3,441.1
	c-0.8,0.7-1,1.3,0.2,1.8L220.3,441.1L220.3,441.1z M200.3,426.5c-1.2,1.1-1.1,0.4-1.7,0.8c-0.5,0.4-0.1,0.8-0.5,1.5
	c-0.1,0.3-0.6,0.6-0.6,0.9c-0.1,0.5,0.4,0.8,0.9,0.9c0.7,0.1,2.7-0.1,3.3-0.5c0.6-0.6,0.4-1.2,0.7-1.7c0.1-0.2,0.4-0.5,0.6-0.7
	C203.1,426.9,201.3,425.9,200.3,426.5L200.3,426.5z M248.2,421.4l0.2,1.7l-0.2,1.4c1.8-0.3,2.9-0.9,4.5-1.6c0.5-0.2,1.4-0.6,1.8-0.3
	c0.5,0.3,0.2,0.8,0.1,1.2c-0.3,0.7-1.3,2-1.7,2.5c-1.3,1.5-3.3,1.6-5,3.1c-0.9,0.9-1.1,1.8-2,2.7c-0.9,0.9-1.5,1.1-2,1.5
	c-0.4,0.5-0.1,0.8-1,1.4l0.5-1.2c-0.5-0.1-1.2-0.1-1.6-0.5c-0.2-0.5-0.3-1-0.2-1.5c0.2-1,0.4-3.7,1-4.4c0.1-0.2,1.4-0.6,1.9-0.8
	l-0.2,1c0.5,0,1.3-0.1,1.6-0.3c0.8-0.2,1.6-2,2-2.7l-2.2,0.9C246.1,424.2,247.2,422.1,248.2,421.4L248.2,421.4z M203.8,426.3
	c-0.3,1.5,0.6,0.9,1.2,1.6c0.4,0.3,0.4,0.8,0.5,1.3l-1.3,0.3l-0.6,0.9l-0.7,0.9l2.2,0.6c-1.1,0.4-1.8,0.3-2.5,1.4l2.8-0.3
	c1.8,0,3.2,0.4,4.9-0.6l-0.4-0.3l0.5-1.6l-1.2-0.7l-0.4-1l-2.1-2.5l-0.7-0.3c0.6-0.7,1.8-2,0.1-2.4l-0.8-0.1l0.7-0.9
	c-1-0.1-1.9-0.2-2.6,0.6C202.5,424.5,202.4,425.8,203.8,426.3L203.8,426.3z M202.9,404.9l0,1.2l-0.4-0.5l0,2
	c0.3,1.1,1.6,0.7,1.9,0.3c0.3-0.2,0.4-0.9,0.4-1.2c0-0.3-0.2-0.6-0.4-0.8c-0.4-0.1-0.5-0.1-0.8-0.1l-0.1-1L202.9,404.9L202.9,404.9z
	 M66.7,415.4c-0.1,2.5,0.6,2.5,1.2,4.6c0.3,1.1-0.2,1.5,0.7,3.8c0.4,1,0.7,1.9,1.8,2.4c-0.3-2.8-0.6-4.5-1.6-7
	c-0.7-1.6-1.2-1.7-1.7-3.7L66.7,415.4L66.7,415.4z M294.9,387.9c-0.8,0.4-1.1,0.9-1,1.8c-0.1,0.8,0.7,1.4,1.5,1.2
	C296.5,390.4,296.7,387.6,294.9,387.9L294.9,387.9z M138.8,387.5c-0.4,0.9-0.5,1.7,0.4,2.3C139.1,389,139.4,388.1,138.8,387.5
	L138.8,387.5z M187.6,388.3l0.6,0.5c1.2-1.1,1.5-1.8,2.4-2.9c0.7-0.9,1.2-0.9,1.7-1.3c0.3-0.4,0.3-0.7,0.4-1.2
	c0.3-0.7,0.7-0.9,0.6-2.1c0.1-1-0.6-2.5-1.7-2.2l-0.3-0.8c-0.5,0-1.3,0.3-1.8,0.7c-0.5,0.4-0.2,1-0.8,1.6c-0.7,0.9-2,1.4-2.3,1.5
	c-0.5,0.2-0.3,0.7-1,1.3c-1.1,0.8-1.8,0.3-2.4,0.6c-0.8,0.2-2,1.5-2.6,2.1c-0.9,1.1-1.1,1.8-1.5,3c-0.1,0.3-0.4,0.9-0.2,1.2
	c0.2,0.3,0.7,0.3,1,0.1c0.6-0.2,2.1-1,2.6-0.9c0.5,0,0.7,0.3,1,0.4c0.5,0.1,0.8,0.1,1.2,0.2c0.3,0.1,0.7,0.6,1.1,0.9
	c0.9,0.4,1.8-0.7,2-1.4C187.5,389.2,187.6,388.8,187.6,388.3L187.6,388.3z M188.5,375.5l0,0.2l-0.2-0.1L188.5,375.5L188.5,375.5z
	 M190,376.7c0.4,1,2.1,2,3,2.7c0.3-0.2,0.5-0.4,0.6-0.7c0.4-0.9,0.2-2.5-0.7-3c-0.5-0.3-1.2-0.1-1.7,0.1c0-0.2-0.2-0.6-0.4-0.8
	C189.5,373.9,187.9,377.4,190,376.7L190,376.7z M183.1,374.5c1.1,1.1,1.1,1.2,2.6,1.1c-0.2,1-1.5,2.6-2.6,1.9
	c-0.7-0.4-0.8-1.1-1.1-1.2c-0.5-0.3-0.6,0.9-0.9,1.2c-0.7,1.2-1.9,1.2-2,3.2l0.6-0.4c0.6,1.3,1.8-0.2,2.6-0.6
	c-0.1,0.2-0.4,0.5-0.6,0.9c-0.1,0.5,0.4,1,0.9,0.8c0.5-0.2,1.1-1.1,1.5-1.5c0.5-0.4,0.6-0.4,1.1-0.6c0.5-0.4,1.1-0.9,1.5-1.3
	c1.4-1.1,1.4-0.5,1.9-2.2c0-0.3,0.1-0.5,0.1-0.8c-0.7-1.4-3-0.2-3.2-0.4l-1-0.2C184.2,374.3,183.6,374.5,183.1,374.5L183.1,374.5z
	 M190.7,374.2l-0.8,0.1l0.2,0.5c1-0.3,1.6-0.3,1.7-1.5C191,373.3,190.8,373.3,190.7,374.2L190.7,374.2z M138.7,377.3l-0.8,3.8
	l0.3,1.6l0.7,3.3c0.4-0.7,1.2-2.9,1.3-3.8l0.2-1.4c0.1-1,0.2-1.4-0.2-2.3l-1.1,0.9l-0.1-2.2L138.7,377.3L138.7,377.3z M192.4,373
	c-0.1-1,0.1-0.8,0.9-0.8l0-1.7c-0.5,0.2-1.1,0.3-1.6,0.6C191,372.1,191.1,373,192.4,373L192.4,373z M187.5,370.8l0.6,0.6
	c1.1-0.3,1.5,0,2.5,0.3l-0.4-0.6l0.4-0.7c1-0.1,1.1-0.9,0.6-1.7c-0.2-0.2-0.5-0.3-0.7-0.4c-1.8-1-1.9,0.5-2.4,1.2L187.5,370.8
	L187.5,370.8z M191.8,370.2c0.3,0,0.7-0.1,1-0.3c0.6-0.6,0.3-2.2-0.3-2.5c-0.5-0.1-0.8,0.4-0.8,0.7l-0.1,0.5l0.1,0.8L191.8,370.2
	L191.8,370.2z M138.7,374.3c0.6-0.7,0.8-1.9,0.9-2.8C138.5,372.2,138.6,373.2,138.7,374.3L138.7,374.3z M144.6,363.6
	c0.2,1.5,0,2.8-0.6,4.2c-0.7,1.6-2.3,3.7-2.6,5.3l-0.4-0.5c-0.7,1.1-0.8,3.4-0.3,4.5c0.9-0.9,1.1-2.1,1.7-3.2
	c1.1-2.3,2.5-4.2,3.1-6.8c0.1-0.7,0.2-2.5-0.2-3.2C145.1,363.7,144.9,363.7,144.6,363.6L144.6,363.6z M295,368
	c0.9-1.2,1.1-3.8,1.4-5.3c0.8-3.6,2.4-5.2,2-9.7c-0.1-1-0.5-3-1.7-3.2c-1.9-0.2-1.1,2.3-1.2,2.8c0.1,0.5-0.1,0.8-0.2,1.2
	c-0.8,1.7-0.4,3.7-0.4,5.6l-0.4,6.1L295,368L295,368z M268.2,339.4c0,0.3,0.2,0.5,0.4,0.8c0.2,0.2,0.4,0.3,0.5,0.5
	c1.1,0.6,1.6-0.5,1.2-1.1c-0.2-0.3-0.9-0.4-1.2-0.4C268.9,339.2,268.5,339.3,268.2,339.4L268.2,339.4z M292.9,336.6
	c0.2,1.5,0.8,3.9,1.4,5.2l1.5,2.7l1.7,5.2c0.9-1.1,0.4-2.4,0.1-3.5c-0.7-2.3-1.8-4.5-2.7-6.6C294.3,338.4,293.8,337.3,292.9,336.6
	L292.9,336.6z M283.8,333.9l-0.1,1.9l-2.3-0.8c0,1.2,0.5,3,1.4,3.9l1.8,1.3c1.5,1.2,2.9,2.6,4.3,4c1.2,1.4,1.2,1.9,1.6,2.5
	c0.4,0.3,0.7,0.6,1.2,0.4c0.3-0.2,0.4-1,0.5-1.4l0.6-1.1c0.2-0.9-0.4-2.1-0.8-2.9l-1.1-2.4c-0.5-1.1-0.7-2.1-1.5-3
	c-1.3-1.2-2.3-1.1-3.7-1.5L283.8,333.9L283.8,333.9z M237.8,336.2c-0.1,0.7-0.2,1.7-1,1.9c-0.2,0-0.8-0.1-1-0.2l-0.6,1.9
	c-0.3,0.5-0.8,1.9-0.7,2.4c-0.1,0.8,1.1,0.7,1.7,0c0.6-0.6,0.7-1.4,1.1-2.1c0.7-1.4,1.9-2,2.1-3.7L237.8,336.2L237.8,336.2z
	 M289,329.9c0.5,1.5,0.8,1.6,1.6,2.9c0.4,0.8,0.3,1.3,1.3,1.1C291.4,333,289.8,330.3,289,329.9L289,329.9z M219.8,338.8
	c-1.9-0.2-0.6,1.9-0.9,2.8c-0.4,0.9-2.3,2.2-3.2,1.6c-0.5,0.2-1,0.3-1.5,0.1c-0.5-0.1-0.9-0.4-1.4-0.4l-2.6,1.9
	c-0.5,0.4-1.1,0.8-1.7,0.8c-0.5,0-1.2,0.1-1.4,0.5c-0.5,0.4,0,1.3,0.2,1.8l0.8,1.1c-1.6,0.5-1.5,1.6-1.3,3.1
	c0.1,0.8,0.4,3.8,0.6,4.5c0.3,0.8,1.3,1.6,2.2,1.8c0.5,0.3,1.4,0.4,1.9,0.3l0.1-2l0.5,0l0.5,1.6c0.2,0,0.5,0,0.7-0.1l2.1,0.5
	c0.2,0.2,0.2,0.2,0.4,0.3c0.2,0.5-0.2,1.4-0.1,1.9c0.3,1.1,1.5,1.4,2.5,1.3c0,1.3,0.1,1,0,1.8c0.1,0.8-0.4,0.9,0.6,2.6
	c0.2,0.3,0.6,1.1,1.1,1.1c0.5,0,1.5-1.3,2.6-1.9c0.3,0.8,0.3,1,1,1.4l-0.2,0.9l1.9-1.2c-0.6,2.6-1.6,2-2.8,3.6
	c-0.4,0.9-0.2,1.7-0.4,2.5l0.2,0.1l0.6-0.4l0.5-0.2c1.5-0.3,0.3,1.5,0.4,1.8c0.1,0.5,0.4,0.6,0.7,0.8l-0.8,0.6l0.5,1.1l-3,0.3
	c-1.5,0.3-2.7,1.4-3.9,2.4l0,0.3l0.5,0.1l-2.8,1.4c0.9,0.3,2-0.2,2.8-0.3c0.8-0.2,0.7-0.1,1.6-0.3l0.5,0.3l-0.1,0.7l3.6,1.2
	c0.9,0.3,1.5-0.1,2,0.2c0.7,0.4,0.5,1.3,1.7,1.5c1.4,0.4,2.5-0.4,3.6-0.7l-1.3,1.5l0.6,1.1l1.6-0.5c-1.2,1.3-1.1,0.3-3.5,0.5
	c0.5,0.3,2.1,1,2.5,1.1c0.9,0.3,1.3-0.1,2.5,0.3c1,0.2,2.3,1,2.6-0.6c0.2,0.3,0.4,0.6,0.6,0.8c0.5,0.3,0.9,0.3,1.4,0.4
	c0.7,0.1,2.3,1.1,2.2,2c-0.1,0.2-0.3,0.4-0.4,0.5c-0.2-0.5-0.4-1-0.8-1.4c-0.9-1.1-2.4-0.6-3.6-0.9l-2.4-0.6l-1.9-0.2
	c-1-0.1-1.6-0.7-2.6-0.6c-0.3,0-0.8,0.2-0.8,0.6c0,0.3,0.4,0.6,0.6,0.8c1.1,0.6,0.7,0.1,2.3,1.1c0.9,0.6,1.2,0.4,2.1,0.6l0.9,0.4
	c0.7,0.1,0.8-0.2,1.5-0.1c0.3,0,1,0.1,1.4,0.2l-2.9,1.3l-2.2-0.3c0.4,1,0.6,1.1-0.1,2l-0.4-0.6c-0.4,0.5-0.4,0.9-0.8,1.4l-0.7,0.9
	c-0.1,0.3-0.6,0.9-0.9,0.9c-0.5,0-1.1-0.6-1.4-0.9c-0.7-0.4-1-0.4-1.9-0.2c0.6,1,0.9,0.8,1.8,1.2c0.7,0.4,2.5,1.9,3.1,2.6
	c-0.2,0-0.3,0-0.5,0.4c-0.3,0.4,0,1.8,0.4,2.3c0.4,0.3,0.7,0.4,1.2,0.4l-2,1.9c0.9,0.3,1.2,0.1,1.9,0.7l-1.7,0.1l-2.2-1.6l-2.3-1
	c0.8,0.1,2.2,0.1,3-0.3c1.4-0.8,0.7-2.4-0.4-3.3c-0.7-0.4-1.2-0.4-2-0.5c-0.7-0.1-1.7-0.5-2.4-0.5l-1.8,0.3l0.1-0.5
	c-0.5-0.1-0.7-0.3-1.2,0.1c-0.5-0.5-0.6-0.6-1.2-0.7l0.1,0.8l-0.8-0.8l-0.1,0.8c-0.4-0.6-0.4-0.8-1.1-1.1l0.6,2.1l-0.3,0.5
	c-0.9,0.8-0.9,2.4-0.8,3.4c0.2,2-0.2,2.5-0.4,4c0,1.2,0.3,1.6,0,3.3c-0.1,0.7-0.7,2.6-1,3.1l-0.7,0.9l-0.6,1.1
	c-0.3,0.5-0.7,0.9-1,1.4c-0.3,0.7,0.1,1,0.3,1.3c0.3,1-0.4,0.7,0.7,2.1l-0.6,0.7l0.7-0.1c-0.4,1.2,0.4,2,1.5,1.7
	c0.8-0.2,1.7-1.3,1.9-2.2l0.3,0l2.2,3.6c0.4,0.5,0.5,1.3,1.2,1.4c0.7,0.1,0.9-0.6,1.2-1.1c0.3-0.4,0.6-0.6,0.9-0.9
	c0.4-0.9-0.4-2.1-0.3-3c0.1-0.7,0.6-1.1,0.6-1.9c-0.1-1.2-1-1.4-1.6-2c-0.6-0.6-0.6-1.3-0.7-2.1c-0.2-1.8,0.7-2.4,0.9-3.9
	c0.1-1-0.5-1.6-0.6-2.3c-0.1-0.5,0.1-1,0.6-1.1c1.1-0.3,1.3,1.1,1.4,1.9l-0.2,1.7c-0.1,0.7-0.4,1.2-0.3,2c0.2,0.6,0.6,1.1,0.8,1.6
	c0.4,0.5,0.4,1,0.8,1.3c0.3,0.1,0.5,0.3,0.9,0.3c0.3,0.1,0.7,0.3,1,0.2c0.8-0.2,1.6-1.8,2.4-2.4c0.5-0.4,1.1-0.3,1.6-0.3
	c-0.3,0.5-1,1.4-1.3,1.8c-0.6,0.4-1.8,0.7-1.8,1.7c-0.4,1.4,1.5,1.2,1.4,2.4c-0.1,0.8-1.4-0.2-1.7,0.8c-0.6,1.1,0.2,1.7,0.4,2.5
	c0.1,0.5-0.2,1-0.3,1.5c-0.7,1.2-1.3,0.5-2.2,1c-0.8,0.4-1.7,1.7-2.5,1.9c-0.6,0.2-1.2-0.2-1.7-0.2c-0.7,0.1-1.2,1.1-2.3,0.2
	c-1.1-1.1,0.2-1.7-0.1-2.7l-0.7-1.6c-0.9,0.6-1.9,1.3-1.6,2.6c0.5,1.1,1.6,2,1,2.9c-0.5,0.4-1.5,0.5-2.2,1c-0.9,0.6-1.9,2.3-2.2,2.5
	c-0.5,0.4-1,0.4-1.4,0.8l-1.7,1.7c-0.1,0.2-0.1,0.2-0.3,0.4l-2.1-0.6l0.1,1.2c-0.8,0.1-0.8,0.1-1.5,0c-0.5-0.1-1.5-0.2-1.8,0.5
	c-0.3,0.5,1.1,0.9,1.4,1c2.1,1,2.5,3.3,1.6,4.2c-0.6,0.6-1.7,0.1-2.3,0c-1.5-0.2-3.9-0.8-5.4-0.9c-2,0.2-1.3,1.5-1.7,2.5
	c-0.1,0.7-0.7,1.1-0.8,1.6c-0.1,0.2-0.1,0.3-0.1,0.5c0-0.2,0.5,2,0.5,1.8c0.2,0.6,1.4,0.5,2.1,0.7c0.9,0.3,1.1,0.7,1.8,1.2
	c0.7,0.3,1,0.1,1.7-0.1c1.5-0.1,2.9,0.6,5.1-0.6c0.5-0.2,0.9-0.6,1.1-0.9c0.4-0.5,0.2-1,0.8-1.6c0.8-0.7,2.2-1,3-1.6
	c0.6-0.6,0.2-1.5,1.3-2c0.8-0.2,1.7,0.3,2.8-0.1c1-0.3,2-1.4,3-1.6c1-0.1,1.6,1,3,1.4l5.5,1.2c0.2,0,0.5,0.1,0.7,0.3
	c1.5,1.2-0.6,1.7-1.5,2c-0.6,0.2-0.8,0.2-1.5,0.3c0.2,0.2,0.2,0.3,0.4,0.5c0.7,0.3,2.4,0.5,3-0.1c0.3-0.4,0.3-0.7,0.2-1.2
	c0.6-0.2,1-0.4,1.2-1.1c-0.1-0.5-0.3-1,0.2-1.4c0.3-0.4,1-0.4,1.5-0.5c-0.8-0.9-1.4-0.5-2.4-0.6c-0.5-0.1-0.7-0.4-1.2-0.6
	c-0.5,0-1,0.4-1.6,0.1c-0.5-0.1-1.1-0.6-1.6-0.7c-0.5-0.3-1.9-0.5-1.8-1.3c0.1-0.3,0.3-0.5,0.6-0.6c0.1-0.2,0.3-0.2,0.5-0.2l0.2,0.7
	c1.8-0.7,1.2,0.2,2.7,0.4c1.4,0.4,3-0.1,4.4,0.4c0.9,0.3,0.6,0.8,1.3,1.6c0.9,0.8,2.2,0.5,3.4,0.4c-0.1,0.2-0.3,0.2-0.3,0.4
	c-0.3,0.5,0.1,0.8,0.4,1c1.2,0.7,3.1-0.8,1.5-1.5l2.5-1.2c-1.2-0.6-1.8,0-3.4-1c0.8-0.1,1-0.1,1.6-0.6l0.1-0.7l2.7-1.4
	c-0.8,1.4,0.1,1,0.4,2.5c0.8-0.1,1.9,0.2,2.7,0.1c0.6-0.2,2.4-0.9,2.9-1.3c0.5-0.4,0.6-0.9,1-1.3l1.9-0.8c0.8-0.6,1.4-1.3,2-2
	c0.3-0.4,0.6-0.7,1.1-0.6c0.7,0.3,0.9,1.9,0.9,2.6c0.2,0.5,0.5,1.1,0.5,1.6c-0.1,2.2-2.4,2.6-3.8,3.7c-0.9,0.8-1.6,2-2.6,2.4
	c-1.2,0.9-4.8,2.3-6.4,2.7l-3.4,0.6c-0.8,0.4-1.7,1.2-2,1.9c-0.3,0.7,0.2,1.5-0.6,1.9c-0.8,0.4-4.1,0.9-4.9,0.8
	c-1.4-0.2-0.9-0.6-2.9-0.4c-1.8,0.2-3.8,0.5-5.6,0.2c0.3-0.4,0.9-1.1,1-1.6c0.1-0.3-0.1-0.5-0.1-0.8c0-0.2-0.1-0.5-0.2-0.6
	c-0.4-0.5-1.7-0.4-2.2-0.3c-1.1,0.3-0.9,0.6-2.8,0.7l-6.1,0.7c-3,0.3-5.3,1.5-6.5,1.6c-0.8,0.1-2.7-0.1-3.5-0.4
	c-0.7-0.3-1.4-0.9-2.2-0.5c-0.8,0.2-1.1,0.9-2,1.4c-1,0.4-2.8,0.6-3.9,1.4c-1.1,0.8-0.5,1.4-1.8,2c-0.6,0.2-2.8,0.2-3.6,0.3
	c-1.8,0-2.8,0.8-4.4,1.4l-1.8,0.7c-0.6,0.2-1.9,0.5-2.2,1c-0.3,0.5,0.1,1.2,0.2,1.7c0.1,0.5-0.1,1-0.2,1.5c-0.9,1.2-3.1,2.3-2.7,4.1
	c0.3,1.1,1,1.2,2.2,2.3c1.7,1.7,2.9,4.1,4.8,5.4c2.3,1.6,5.7,3.7,8.6,4.2l5,0.2c2.7,0.3,4.8,0.9,7.6,0.8l6.2-1.1
	c1.3-0.1,3.3-0.5,4.7-0.1c1.4,0.4,1.6,1.4,4.1,1.1l3.5-0.5c0.8-0.2,1.5-0.5,2.3,0c2.1,1.1-1.5,3.3,0.2,4.7c0.9,0.8,3.9,1,5.2,1.4
	c0.8,0.1,3.5,1.5,4.1,2.1c0.4,0.3,0.4,0.6,0.8,1.1c0.4,0.5,1.2,0.7,1.3,1.2c0.1,0.5-1,1.4-1.3,1.8c-0.9,0.9-2.7,3.2-1.7,4.7
	c0.4,0.5,1.4,0.9,2,1.2l4.8,1.4c2.1,0.8,2.3,2.5,3.5,3.4c0.9,0.6,2.4,0.5,3.6,0.5l5,1.2c1.7,0.5,1,1.6,2.4,1.8
	c2.9,0.2,7.3-2.3,9.6-3.9l4.7-2.4c1.9-1,3.6-2.2,5.3-3.3c3.2-2.5,5.9-5.7,7.5-9.4c0.6-1.1,2.1-3.5,2.2-4.2c0.2-1-0.8-1.6-0.4-2.5
	c0.5-1.2,2.7-2.9,3.2-4.3c0.4-0.7,0.3-1.9-0.4-2.3c-0.7-0.3-1.2,0.1-2.5-0.3c1-2.8,2.9-5.4,4.5-7.9c0.7-1.1,2-3,2-4.4
	c0-1.5-1.3-1.6-1.9-2.2c-0.5-0.5-0.4-0.8-0.8-0.9c-0.7-0.3-1.8,0.3-2.5,0.2c-0.5,0-0.9-0.3-1.2-0.4c-0.5-0.3-1.2-0.1-1.7,0
	c-0.7-2.3,0.8-6.4,1.6-8.7c1.5-4.8,3.5-9.7,2.7-14.8l-0.8-3.9c-0.2-0.5-0.6-1.1-1.3-0.9c-1,0.3-1.8,3.2-2.2,4l-2.2,4.1
	c-0.6,0.9-0.9,2.1-1.7,2.8c-0.6,0.6-1.6,1-2.4,1.4c-0.3-0.8-0.7-0.6-1.4-0.4l-3,1.6c-0.6,0.4-1.9,1.3-2.7,1.4c-0.7,0.1-1-0.4-2-0.2
	c-0.7,0.1-1.8,0.5-2.3,0.4c-0.7-0.1-1.4-0.7-2.1-0.8c-0.5-0.1-1.5,0.1-2,0.3c-1.6,0.2-4.2-0.6-5.9-1c0.3-0.2,0.6-0.2,0.6-0.6
	c0.2-0.9-1.1-2.2,0.5-2.7c0.2,0,0.5,0,0.7-0.1l2.8-0.1l1.6-0.3c0.8,0.1,1.1,0.6,2.2,0.5l4.1-1c1.7-0.1,2.3,1.5,4,0.3
	c1.4-1,2.7-4.3,3.2-5.8l1.4-3.6l0.6-2.6c0.6-1.9,1.2-2.8,1-4.9l-0.3-3.1c-0.1-1.3-0.4-2.3-1.8-1c-1.1,1.1-1.4,2.3-3.1,2.1
	c-0.4,2-0.2,4.7-2.2,5.9c-0.8,0.6-1.6,0.3-2.4,0.6c-0.5,0.2-1.1,0.6-1.5,0.5c-0.5,0-0.9-0.3-0.9-0.8c0.1-0.7,1.2-1.1,1.7-1.3
	c1.6-0.6,2.4-0.9,3.6-2.3c0.7-1.1,0.8-1.9,1.4-2.8c0.6-0.7,1.1-0.6,1.7-1.3c0.4-0.5,1.3-2.3,1.7-3l2-6c1-1.8,2.6-2.1,3-4.3l0.3,0.8
	c1.7-0.8,1.7-2.5,1.4-4.1c1-0.1,3,0.1,3.8-0.2l3.7-2.3c0.9-0.6,2.5-1.7,2.7-2.8c0.3-0.7-0.8-2.9-1.2-3.4c-0.2-0.3-0.4-0.5-0.7-0.6
	c-0.9-0.3-2,0-2.6-1.1c-0.8-0.9-1.6-4.2-2.3-5.5c-1.4-3.4-1.5-2.7-2.1-4c-0.4-0.8-0.3-1.6-0.4-2.5c-0.2-0.6-0.6-1.1-0.6-1.4
	c-0.1-0.7,0.4-1,0.8-1.6c0.7-1.2,0.6-2.2,1.3-3c0.6-0.6,1.1-0.3,1.4-0.8c1-1.4-1.4-2.5-0.6-4.1c0.4-0.7,1.6-2,2.4-2.1
	c0.6-0.2,1.2,0.1,1.8-0.2c0.6-0.4,0.7-1.6,0.9-2.3c0.6-1.7,1.7-1.7,1.9-4c0.1-0.8,0.1-2-0.3-2.7c-0.8-0.9-1.9-0.2-2.1,0.5
	c-0.6,0.9-0.4,2-0.3,3c-0.1,1-0.2,2.4-0.8,3.2c-0.7,1.2-2.1,0.4-2.5-0.3c-0.2-0.3-0.1-0.7-0.1-1c0-1.3-0.4-1.8,0-3.3
	c0.1-0.7,0.7-2.6,0.5-2.9c-0.1-0.5-1.6-2.2-2-2.7c-0.8-0.8-2.1-2.5-3.4-1.7c-1.1,0.6-0.9,2.8-1.1,3.9c-0.1,0.5-0.3,1.5-0.8,1.6
	c-0.3,0.2-0.9-0.3-1.2-0.6c-0.9-0.9-1.5-1.5-1.7-3c0.5,0.1,1.9,0.5,2-0.2c-0.1-0.7-0.9-1.8-1.5-1.7c-0.7-0.1-0.8,0.6-1.7,0
	c-0.7-0.6-2.4-3.3-3.1-4.2c-1-1.3-2.4-2.3-3.8-3c-0.9-0.3-3.6-1.3-4.4-0.8c-0.3,0.2-0.3,0.7-0.4,1c-0.2-0.1-0.4-0.3-0.7-0.3
	c-1.2-0.2-1.5,1.1-1.6,2c0,0.3,0.1,1-0.4,1.2c-0.5,0.2-0.8-0.1-1.2-0.4c-0.9-0.6-0.9-0.8-2.1-1.1c0.2,0.6,0.5,1.3,0.9,1.9
	c1,1.3,1.6,1.2,1.5,2.9c-1.4-0.5-3-1.2-3.9-2.3l1.3-0.5l0-0.3c-0.5-0.3-2.3-1.6-2.4-2.3c0-0.5,0.6-0.6,0.6-1.1
	c0.1-0.5-0.4-0.8-0.2-1.5c0.4-0.5,1.4-1,1.3-1.6c0-0.3-0.4-0.6-0.8-0.8c-0.7-0.4-2-1.3-2.7-0.6c-0.6,0.6-0.1,1.7-0.5,3.2
	c-0.5-0.1-1.4-0.5-1.9-0.7c-0.7-0.1-1.5,0.3-2.3-0.1c-1.2-0.4-1.6-1.4-2.7-1.8c-1.9-0.8-3.5-0.3-5.3,0c-0.8,0.1-2.1,0.2-2.9,0.6
	c-0.6,0.4-0.9,0.9-1.2,1.4c-0.7,0.9-2.2,1.4-2,2.7c0.3,1.1,1.3,1.2,1.7,1.5l1.1,2.1c-1.1,0.3-1.7,0-2.7,0.1l-3.9,0.9
	c-2,0-2.6-1.1-3.8-1.7c-0.7-0.3-1.2-0.2-1.7-0.5c-0.5-0.4-0.6-0.9-0.8-1.1c-0.4-0.5-2.1-0.6-2.6-0.6c0,0.3,0,0.5-0.2,0.9
	c-0.3,0.5-1.7,1.3-2.4,1.4c-0.3,0.2-0.8,0.1-1.2-0.1l0.1-0.7c0.1-0.8-0.4-0.8-1.1-0.6c-1,0.3-1.6,1-2.3,1.5c0.3-0.5,0.5-1.2,1-1.8
	c0.6-0.6,1.4-0.8,2.2-1.2l2.5-1.6c0.6-0.4,1.6-0.8,2-1.2c1.4-1.1,1.7-4.7,1.3-6.5c-2.6,1.1-1.9,1.2-3.6,2.2c-0.6,0.4-1,0.4-1.4,0.6
	C220,337.8,219.9,338.3,219.8,338.8L219.8,338.8z M237.3,332.7l1.6,1.2l1.2,2.2c1-0.4,1.1-0.8,1.7-1c0.3-0.2,2.4,0.3,1.9-1
	c-0.2-0.1-0.4-0.3-0.5-0.5l-0.1,0.5c-0.5-0.5-1.3-1.1-2-1.3C240.5,332.6,238.1,332.6,237.3,332.7L237.3,332.7z M242.9,333.5
	c2.3-0.2,1.9-0.8,3.2-1c0.6-0.2,1.7,0,2.3,0.1l-0.1,0.7c1.4,0.5,1.3-0.3,2.3,0c1,0.4,1.7,1.7,3.4,2.2c0.7,0.3,1,0.4,1.7,0
	c0.4,0.6,0.6,0.6,1.2,0.6c0.1-0.8,0.6-1.1,0.3-1.5c-0.2-0.5-2-1.2-2.1,0.5c-0.6-0.8-0.3-1-0.5-1.5c-0.6-0.8-1.8-0.8-2.6-0.6
	c-0.3-1.6-0.1-1.2-2.4-2.3c-0.7-0.4-2.3-1.1-3.1-1.2c-1-0.1-1.3,0.6-2.1,1c-0.4,0.5-1,0.4-1.4,0.8
	C242.7,331.9,242.8,332.9,242.9,333.5L242.9,333.5z M277.8,326.2l2.1,2.3c0.8,1.1,1.6,2.2,2.5,3.1c0.7,0.6,1.8,1,2.7,0.8
	c0.6-0.2,2.6-2.2,1-3.1c-0.5-0.3-1.3,0.1-1.8,0.2c0-1.2,0-1.8-0.3-3c0-0.3-0.1-1-0.8-0.8c-0.8,0.4,0.1,2.8-1.1,2.1l-0.5-0.3
	l-0.5-0.5c-0.6,0.7,0.1,1,0.7,1.6c0.7,0.6,1.3,1.2,1.4,2.2c-1.8-1.2-1.9-2.2-3.1-3.6C279.3,326.6,278.8,326.1,277.8,326.2
	L277.8,326.2z M285,324.6c0.5,1.1,2.2,3.6,3.4,4C287.6,327.2,286.5,325.1,285,324.6L285,324.6z M162.7,336.7c0.5,0,1.2-0.1,1.5-0.1
	l4.3,1.3c1.2,0.2,2.4,0.3,3.2,1.4c-2.1,0.2-1.7-0.2-3.4-0.5c-1.5-0.2-2,0.2-3.2,0.1c-0.7-0.1-1-0.2-1.5-0.4l-4.4,0.7
	c-1.2-0.1-1.4-0.9-2.1-1.1c-0.7-0.4-1.4-0.2-2,0.2c-1.1,0.4-2.2,1.2-3.3,2c-2,1.4-4.4,2.9-5.8,4.9c-1,1.4-0.8,2.2-1.8,3.7
	c-1,1.3-3.4,2.5-5,4.6c-1.2,1.6-1.1,2.6-1.5,3.1c-0.3,0.4-2.3,1.5-2.8,1.8c-0.5,0.2-1,0.3-1.3,0.5c-0.5,0.4-0.7,0.9-1,1.4l-1.6,1.8
	c-0.4,0.7-2.1,3.4-2.2,4c0,1.2,1.9,1.7,0.9,3.3c-0.1,0.2-0.3,0.4-0.4,0.5c-1.1,0.8-1.4-0.4-2.2-0.5c-1-0.2-2.6,1.1-3.5,0.3
	c-0.6-0.6-0.3-1.5-0.4-2.1c-0.3-0.8-0.6-1.1-0.9-1.8c-0.4-0.8-0.1-2.3-1.3-3.9c-0.6-0.9-1.3-1.2-1.8,0l-0.4,1
	c-0.7-1.4-0.3-2.6-1.5-2.9c-1.5-0.2-2,1.7-2.9,2.8c-2.2,2.7-2.6,2.4-4.3,3.7l-2.2,2.4l-1.4,1c-0.8,0.7-1.3,2.3-1.6,3.3l-1.6,6.7
	c-0.4,1.4-0.9,3.6-2.4,4.1c-0.5,0.2-2,0.2-2.5,0.1c-0.5-0.3-0.9-0.8-1.4-0.9c-0.5,0-1.8,0.2-3-0.4c-0.7-0.6-1.7-1.9-2.4-2.1
	c-0.7-0.3-1.4-0.2-2-0.2c-0.8,0.1-2,0.2-2.7,0.1c-1.7-0.5-2.8-3.1-3.5-4.5c-0.2-0.6-0.7-1.6-1.2-1.9c-0.7-0.6-1.6,0.5-2.5,0.2
	c-0.7-0.1-2.2-1.6-3.1-2.1c-0.2-0.2-0.7-0.6-1-0.4c-0.3,0-0.4,0.7-0.6,1.1c0,1.3,0.3,1.6,1.1,2.6c0.2,0.1,0.8,0.8,0.3,1.1
	c-0.8,0.6-1.9-2-2.8-0.8c-0.1,0.3-0.1,0.5-0.3,0.7l-0.3,0l-0.8-2.8l-0.1-1.2l-1.1-2.6l-1.4,1.3l-0.3-1.5l-0.5-1.1
	c-0.3-0.8-0.9-0.8-1.5-0.4c-1.2,0.9-2.1,2.4-2.9,2.9c-0.9,0.6-1.7,0.1-2.3,0.4c-0.8,0.4-1.3,1.5-1.6,2.3l-1.3,6.8
	c-1.1,5.3-1.8,6.5-1.2,12.1l0.7,3.1l0.6,4.3l0.6,2.1l0.3,0c-0.2-2.2-0.2-6.2,0.4-8.2c0.6-2.2,1.6-2.6,1.6-5.3l0.4,2.1
	c0.9-0.9,0.8-1.6,2.1-2.2c0.4,0.8,0.6,0.9,0.9,1.9c0.3,0.8,0.3,1.5,0.7,2.3c0.4,0.8,0.8,0.9,1.2,1.6c0.4,0.5,0.6,1.3,0.9,1.9
	c0.5,1.1,0.8,2.9,2.2,3.3c0.5-1.2,0.4-2.7,0.4-4.1c0.1-0.3,0.2-1.4,0.5-1.5c0.8-0.2,1.1,1.2,1.2,1.7c0.5,1.3,0.8,2.9,1.6,4
	c0.8,1.4,1.5,1.2,2.5,3.5l0.2-0.9c0.5,1.1-0.1,2,1.1,2.7c-0.1-0.7-0.2-3.5,0.1-4c0.1-0.3,0.6-0.4,1-0.4l0.8,5.6
	c0.1,0.7,0.3,1.5,0.7,1.9c0.9,0.9,2,0.2,2.4,1l0.7,3c0.6,2.1,1.3,4.7,2.2,6.7c0.7,1.4,1.5,3.4,2.6,4.4c0.4,0.5,1,1.1,1.6,0.9
	c0.6-0.2,0.4-1,0.5-1.5c0.1-0.7,0.4-0.9,0.5-1.4c0.1-0.8-0.2-1.8,0.2-2.5c-0.2,1,0.1,1.2,0.2,2.2c0.1,1.3,0.5,2.8,0.9,4.1
	c0.7,1.9,1.2,3.7,2.4,5.5c0.8,1.1,2.6,2.4,3.7,3.4c1.5,1.5,3,2.9,4.8,4.3l2.2,1.5l1.8,1.2c1.6,0.9,1.8-0.7,2.8-0.7
	c0.5,0.1,2.3,1.5,2.9,1.9c2.8,2.6,1.9,1.8,3.8,4.2l4.3,4.6c1.1,1.1,2.5,3.1,4,3.3l1.5,0.2c1.7,0.4,3.6,1,5.4,0.5
	c0.7-0.1,1.1-0.4,1.4-0.8c0.4-0.5,0.7-1.2,1.4-1.3c0.7,0.1,2.3,0.8,2.9,1.1c1.8,0.8,4.3,2.3,6.1,2.6c1.9,0.3,3.2-1.1,2.9-2.4
	c-0.5-1.3-2.5-2.6-3.5-4.7c-1-1.7-1.7-3.7-2.9-5.3l-2.7-3.3l-1.6-2.5l-0.8-1.1c-0.2-0.3-0.5-1.5-0.5-2l-1.8-4.7
	c-0.8-1.6-2.5-1.4-3.6-3.7c0.8,0.9,2.2,2.1,3.3,2.5c-0.5-1.3-1.5-3.4-2.3-4.5l-1.7-1.7c0.9,0.8,1.6,1.4,2.8,1.6l0.4-1.4
	c0.5-1.4,1-1.6,1-3.3c-0.1-2.8-2.8-6.9-3.1-10.4c-0.2-1.5,0.2-3,0.3-4.5l0-2.7c-0.1-0.5,0.2-0.9,0.3-1.5l0-1.8
	c0.2-1,0.4-1.4,0.2-2.4L130,394l-0.1-2l-0.3-2.6c-0.2-2,0.9-2.9,1-4.3c0.1-0.7-0.8-2.4-1.1-2.7c-0.5-0.3-1.7,0-1.3-0.9
	c0.4-0.9,1.9,0.7,2.3,1.1c0.5-1.7,0.1-2-0.2-3.5l-0.6-4.3c-0.3-1.1-1-1.7-1.1-2.2c0.1-0.5,0.6-0.6,1.2-1.3c0.6-0.7,0.8-1.6,0.9-2.4
	l0-2.8c0.2-1.4,1.3-3.1,2.8-3.6c1.5-0.3,3,1.2,3.8,1.2c0.8-0.1,1.2-0.9,1.5-1.5l1.9-5.5l0.3,0c0.8,1.4,1.7,1.7,2.8,2.8l1,1.1
	c0.2,0.1,0.5,0,0.8-0.2c0.6-0.7,1.3-3.5,0.9-4.3c-0.2-0.6-1-1.3-1.2-2.1c-0.1-0.5,0.2-1,0.5-1.5c0.4-1,0.6-2.2,1.3-3
	c1.5-1.6,4.5-1.9,6.3-0.6c0.9,0.8,0.8,1.3,1.2,1.7c0.6,0.6,1.4,0.5,1.7,1.5c0,0.3,0,1.2-0.2,1.7c0.1,1,0.3,1.3-0.1,2.4
	c-0.6,1.1-1.5,1.8-1.8,3c-0.5,1.4,0.3,1.5,0.1,2.7c-0.4,1.2-1.3,2.1-1.6,3.3c-0.4,0.7-0.4,1.4-1.1,1.9c-0.6,0.4-1.6,0.3-2.3,0.4
	c-1,0.3-1.7,0.8-2.5,1.2c0,0.3,0.1,0.7,0.3,1c0.3,1,1.1,0.9,1.9,0.7c1.3-0.3,3-1.3,4.3-0.2c1.1,1.1,1.5,4.2,2.4,5.3
	c0.9,0.8,1.6,0.7,2.6,0.9c0.7,0.3,1.2,0.6,1.8,1c1.3,1.1,0.9,1.9,1.5,2.7c0.5,0.5,1,0.2,1.6,0.9l2.4,4l1.7-1.5
	c0.6,0.6,1.2,0.6,1.3-0.3c-0.1-0.5-0.3-1.5-0.5-2c1.1,1.1,1.2,1.9,1.2,3.4c0,0.3-0.1,0.7,0.1,1c0.1,0.7,0.9,1.9,1.4,2.4
	c0.7,0.4,1.2,0.2,1.8-0.2c0.6-0.9,0.9-2.4,1.8-3.5c0.7-0.9,2.2-1.2,3.5-2.8c-0.3-0.1-1.4-0.5-1.3-1.1c0.3-0.7,1.3-0.8,1.9-1.2
	c0.9-0.8,1.6-2,1.8-3.2l-2-0.2l-1.2-0.2l-1.7,0.1l-1.6-1.2l-2.3-0.1c0.4-0.9,0.7-1.4,1.7-1.5c0.5,0,1.2,0.2,1.5,0
	c0.6-0.2,0.6-0.9,1-1.3c0.9-1.1,2.2-1.4,2.4-2.7c1.4,0.2,1.7-0.1,2.3,0c1.4,0.5,1.8,3,2.5,4.3c-1.7-0.5-1.4,1-1.4,2.1
	c0.6-0.4,1.4-1.3,2-1.5l2.2,0c0.5,0,0.6-0.2,1.1-0.4c1.1-0.3,1.9,0.5,2.5,1.4c0.6-0.4,0.6-0.7,0.2-1.4l0.8-0.1l-0.5-1.3
	c-0.8,0.1-1-0.1-1.2,0.8c-0.7-0.4-0.7-0.4-1.6-0.5l0.6-0.6l0-0.3c-1.4-0.7,0.2-1.2,0.4-2c0.1-0.5-0.1-0.8-0.3-1.1l2.1-0.9
	c0.9-1.1,1.6-0.3,2-1.5c1.7,0.3,1.1-1.8,2.4-2.2c0.3-0.2,0.8-0.1,1.2-0.1c0.5-0.2,1-0.4,1.4-0.6c0.7-0.1,1-0.1,1.6-0.3
	c0.6-0.4,1.2-1.3,1.6-1.8c0.3-0.4,0.9-0.9,1-1.3c0.1-0.5-0.1-1-0.2-1.8c0.7,0.1,1.2,0.1,1.6-0.5c0.5-0.4,0.4-1-0.3-1.3
	c-0.2,0-0.7,0.1-0.8,0.1l2.3-2l0.4-2l-0.6,0.2l0.2-1l-1.8,0.2c0.3-0.4,1.2-1.4,1.5-1.8c0.8-0.6,1.6-0.5,2-1.5
	c-1.6,0.3-3.6,1.8-4.7,3.1l-1.6,2.2l0.1-0.7c-1.6,0.5-1.5,1.5-2.1,1.9l-0.3,0.2c0.5,0-2.8,0.1-2.3,0.2c-0.8-0.1-1.8-0.8-2.5-1.4
	c-0.6-0.5-0.9-0.9-1.6-0.5l-3.1-2.4c0.3-0.4,0.4-0.5,0.1-0.8c-0.4-0.3-1.2-0.6-1.9-1c-1.3-1.1-1.2-2.1-1.4-3.6
	c-0.1-1.3-0.3-1.3-0.8-2.4c-0.2-0.5-0.3-0.8-0.6-1.3c-0.4-0.5-1.3-1.1-1.8-1.5c-0.7-0.6-1.6-1.4-2.5-1.4c-1.2-0.2-2.1,0.5-3.1,0.3
	c-0.9-0.3-2-1.3-3-1.7c-0.7-0.1-1.5,0-2.2,0c0-0.3-0.1-1-0.5-1.1c-0.5-0.3-1.5,0.1-2.1,0.2c-0.7,0.1-0.9-0.4-1.4-0.5
	c-0.5-0.1-2.8-0.1-3.1,0.3C162.4,335.9,162.6,336.4,162.7,336.7L162.7,336.7z M280.7,319.4c1.4,1.7,3.8,4,5.8,4.3
	c-0.6-1-1.1-1.1-1.8-1.7C283.6,321.3,281.8,319.8,280.7,319.4L280.7,319.4z M267.5,312.8l-0.4-0.8c0.7,0.3,1.4,0.5,1.8,1.2
	c0.2,0.5,0.3,0.8,0.3,1.3c0.1,1,1.8,3.2,2.9,3.3c0.3,0.1,0.3,0,0.7-0.1l-0.9-3.3c-0.4-0.5-0.9-0.3-1.4-0.9l-3.4-4
	c-0.2-0.3-1-1.3-0.9-1.8c0.3-0.4,1.1-0.4,1.5-0.5l-3.1-2.9c-0.4-0.3-0.9-0.9-1.6-0.7c-0.6,0.2-0.9,1.1-1.2,1.6
	c-0.3,0.5-0.7,1.1-0.7,1.6c0.2,0.6,1,1.4,1.4,1.9l2.9,2.4C266.1,311.9,266.5,312.3,267.5,312.8L267.5,312.8z M310.3,312.4
	c-0.4-2.5-2-4.8-3.9-6.7l-2.9-2.4c-1.1-1.2-2.4-3.3-4-4.8c-1.8-1.5-3.2-1.9-4.8-3.1l-2.8-2.4l-4.9-4.1c-1.3-1.1-2.8-2.8-3.8-4
	c-1-1.4-0.7-1.9-1.3-2.6c-0.4-0.5-1.8-1-2.5-1.1l0.3-0.7l-1.2-0.6c0.7-1.4-0.3-1-1.2-2.2c-0.4-0.5-0.5-1.1-1.1-2.1
	c-0.9-1.1-2.2-2-3.5-2.7l-6-3.3c-1.9-1-4.6-2.4-6.8-2.6c-1.7,0-2.7,0.9-4.4,1.2c-1.5,0.3-4.6,0.3-5.7,1.7c-1,1.3,1.6,3.5,2.5,4.5
	l2.6,2.6c0.8,0.8,1,1.3,1.7,2.2c0.7,0.6,2.2,1.5,2.8,2.3c0.6,0.8-0.4,1,0.4,2.1c0.6,0.9,2.1,2.2,2.5,3.1c0.2,0.6,0.3,1.6,0.9,2.1
	c0.5,0.3,1.2-0.1,1.6-0.2c0.8-0.2,3.2-1.5,3.9-1c0.7,0.4,3.1,2.9,3.7,3.5c0.4,0.3,1.1,1.1,1,1.6c0.1,0.8-2.5-0.1-1.9,1
	c0.2,0.3,1.8,1.2,2.3,1.6l2,1.8l2.4,1.8c0.6,0.5,1.1,1.4,1.7,1.7c1,0.4,1.6-0.8,2.5-0.2c1.8,0.8,3,3.2,4.8,4.7
	c1.2,0.7,1.6,0.5,2.6,0.9c0.9,0.4,1.5,1,2.3,1.6c1.4,0.7,1.5,0.2,3.2,1.6c2.2,1.8,4.1,3.6,5.9,5.7c0.7,0.8,2.6,2.4,3.5,2.7
	c0.2,0,0.3,0,0.5,0l1.9-1c0,0,0.2,0,0.1-0.2c0.1-0.5,0-1.2,0.1-1.7c0.1-0.5,0.4-0.7,0.5-1.4c0.1-0.5,0-1.5,0.5-1.7
	C309.1,311.5,310,312.3,310.3,312.4L310.3,312.4z M270,269.4c-0.1-0.7-0.3-0.8-0.5-1.5c-1-1.4-2.1-2.3-3.6-2.9
	c-0.5-0.1-2.1-0.5-2.3,0c-0.4,0.7,1.4,1.9,1.9,2.2c0.6,0.5,1.2,0.7,1.8,1.2C268.3,269,268.8,269.1,270,269.4L270,269.4z
	 M205.3,255.5c2.2,0.1,3,0.1,5.1,0.9c1.9,0.7,3,1.7,5.2,1.9l-2.4-2.6l1.4-1c-0.7-0.6-1.1-0.6-1.8-1c-0.4-0.3-0.4-0.6-0.8-0.9
	c-0.3,0-1.2,0.1-1.5,0.1c-1,0.3-1.8,0.5-2.9,0.9C206.7,254,205.4,254.3,205.3,255.5L205.3,255.5z M215.3,250.9
	c-0.2,0.9-1,1.1-1.8,1.7c0.2,0.1,0.2,0.3,0.4,0.5c0.5,0.3,3.3,0.7,3.9,0.8c1.7,0,1.7-1,3.7-1.3l2.5-0.4c2.3-0.2,5.5-0.3,7.5-1.3
	c-0.8-1.1-1.3-1.1-2.5-1.4c-1.9-0.5-3.9-0.7-5.8,0c-1.8,0.5-1.7,1.2-4,1.4L215.3,250.9L215.3,250.9z M180.2,534.3
	C141.7,526.1,188.1,536,180.2,534.3L180.2,534.3z"/>
</svg>
