<?xml version="1.0" encoding="utf-8"?>
<!-- Generator: Adobe Illustrator 19.1.0, SVG Export Plug-In . SVG Version: 6.00 Build 0)  -->
<svg version="1.1" id="Layer_1" xmlns="http://www.w3.org/2000/svg" xmlns:xlink="http://www.w3.org/1999/xlink" x="0px" y="0px"
	 viewBox="0 0 27.3 26" style="enable-background:new 0 0 27.3 26;" xml:space="preserve">
<style type="text/css">
	.st0{fill:#ABABAB;}
	.st1{fill:#898989;}
</style>
<g>
	<path class="st0" d="M543.8,323.1L543.8,323.1c0,4.5,5.6,4.1,5.6,0c0,4.5,5.5,4.1,5.5,0h0c0,4.5,5.5,4.1,5.5,0h0.1
		c0,4.5,5.5,4.1,5.5,0h0c0,2.3,2.4,2.9,4.7,2.7c0.8-1.4,1.4-3,1.7-4.6c-2.5,0.5-5.6,0.1-5.6-2.6h0c0,4.1-5.5,4.5-5.5,0h-0.1
		c0,4.1-5.5,4.5-5.5,0h0c0,4.1-5.5,4.5-5.5,0c0,4.1-5.5,4.5-5.5,0h0c0,2.5-2.7,3.1-4.7,2.6c0.3,1.6,0.9,3.1,1.7,4.6
		C542.7,325.5,543.8,324.6,543.8,323.1z"/>
	<path class="st1" d="M545.5,330.7c-0.1-0.2-0.1-0.4-0.2-0.7c2.1,0.5,4.7-0.1,4.7-2.6h0c0,4.5,5.5,4.1,5.5,0c0,4.5,5.5,4.1,5.5,0h0
		c0,4.5,5.5,4.1,5.5,0h0.1c0,1.1,0.3,1.8,0.8,2.4c1.2-1.2,2.3-2.6,3.1-4.1c-2.3,0.2-4.7-0.4-4.7-2.7h0c0,4.1-5.5,4.5-5.5,0h-0.1
		c0,4.1-5.5,4.5-5.5,0h0c0,4.1-5.5,4.5-5.5,0c0,4.1-5.5,4.5-5.5,0h0c0,1.6-1,2.4-2.3,2.7C542.5,327.7,543.9,329.4,545.5,330.7z"/>
	<path class="st0" d="M548.7,332L548.7,332c0,0.3,0,0.6,0.1,0.9c1.4,0.7,3,1.2,4.6,1.5c0.5-0.5,0.8-1.3,0.8-2.3h0.1
		c0,1.2,0.4,2,0.9,2.5c0.3,0,0.5,0,0.8,0c1,0,2-0.1,3-0.3c0.5-0.5,0.8-1.3,0.8-2.3h0c0,0.8,0.3,1.5,0.8,1.9c2.6-0.8,5-2.1,6.9-4
		c-0.5-0.5-0.8-1.3-0.8-2.4h-0.1c0,4.1-5.5,4.5-5.5,0h0c0,4.1-5.5,4.5-5.5,0c0,4.1-5.5,4.5-5.5,0h0c0,2.5-2.7,3.1-4.7,2.6
		c0,0.2,0.1,0.4,0.2,0.7c0.9,0.8,2,1.4,3.1,2C548.7,332.5,548.7,332.2,548.7,332z"/>
	<path class="st1" d="M548.7,332c0,0.3,0,0.5-0.1,0.8c0.1,0,0.1,0.1,0.2,0.1C548.8,332.6,548.7,332.3,548.7,332L548.7,332z"/>
	<path class="st1" d="M559.9,332L559.9,332c0,1-0.3,1.7-0.8,2.3c0.6-0.1,1.1-0.2,1.6-0.4C560.2,333.4,559.9,332.8,559.9,332z"/>
	<path class="st1" d="M554.4,332L554.4,332c-0.1,1-0.4,1.8-0.9,2.3c0.6,0.1,1.2,0.2,1.9,0.2C554.7,334,554.4,333.1,554.4,332z"/>
</g>
<circle class="st0" cx="9.8" cy="6.5" r="2.9"/>
<circle class="st0" cx="7.4" cy="12.2" r="1.4"/>
<circle class="st0" cx="9.8" cy="19.1" r="1.4"/>
<circle class="st0" cx="20.2" cy="9.2" r="1.4"/>
<circle class="st0" cx="14.3" cy="13.7" r="4"/>
</svg>
