<?xml version="1.0" encoding="utf-8"?>
<!-- Generator: Adobe Illustrator 19.1.0, SVG Export Plug-In . SVG Version: 6.00 Build 0)  -->
<svg version="1.1" id="Layer_1" xmlns="http://www.w3.org/2000/svg" xmlns:xlink="http://www.w3.org/1999/xlink" x="0px" y="0px"
	 viewBox="0 0 27.3 26" style="enable-background:new 0 0 27.3 26;" xml:space="preserve">
<style type="text/css">
	.st0{fill:#ABABAB;}
	.st1{fill:#898989;}
</style>
<g>
	<path class="st0" d="M543.8,323.1L543.8,323.1c0,4.5,5.6,4.1,5.6,0c0,4.5,5.5,4.1,5.5,0h0c0,4.5,5.5,4.1,5.5,0h0.1
		c0,4.5,5.5,4.1,5.5,0h0c0,2.3,2.4,2.9,4.7,2.7c0.8-1.4,1.4-3,1.7-4.6c-2.5,0.5-5.6,0.1-5.6-2.6h0c0,4.1-5.5,4.5-5.5,0h-0.1
		c0,4.1-5.5,4.5-5.5,0h0c0,4.1-5.5,4.5-5.5,0c0,4.1-5.5,4.5-5.5,0h0c0,2.5-2.7,3.1-4.7,2.6c0.3,1.6,0.9,3.1,1.7,4.6
		C542.7,325.5,543.8,324.6,543.8,323.1z"/>
	<path class="st1" d="M545.5,330.7c-0.1-0.2-0.1-0.4-0.2-0.7c2.1,0.5,4.7-0.1,4.7-2.6h0c0,4.5,5.5,4.1,5.5,0c0,4.5,5.5,4.1,5.5,0h0
		c0,4.5,5.5,4.1,5.5,0h0.1c0,1.1,0.3,1.8,0.8,2.4c1.2-1.2,2.3-2.6,3.1-4.1c-2.3,0.2-4.7-0.4-4.7-2.7h0c0,4.1-5.5,4.5-5.5,0h-0.1
		c0,4.1-5.5,4.5-5.5,0h0c0,4.1-5.5,4.5-5.5,0c0,4.1-5.5,4.5-5.5,0h0c0,1.6-1,2.4-2.3,2.7C542.5,327.7,543.9,329.4,545.5,330.7z"/>
	<path class="st0" d="M548.7,332L548.7,332c0,0.3,0,0.6,0.1,0.9c1.4,0.7,3,1.2,4.6,1.5c0.5-0.5,0.8-1.3,0.8-2.3h0.1
		c0,1.2,0.4,2,0.9,2.5c0.3,0,0.5,0,0.8,0c1,0,2-0.1,3-0.3c0.5-0.5,0.8-1.3,0.8-2.3h0c0,0.8,0.3,1.5,0.8,1.9c2.6-0.8,5-2.1,6.9-4
		c-0.5-0.5-0.8-1.3-0.8-2.4h-0.1c0,4.1-5.5,4.5-5.5,0h0c0,4.1-5.5,4.5-5.5,0c0,4.1-5.5,4.5-5.5,0h0c0,2.5-2.7,3.1-4.7,2.6
		c0,0.2,0.1,0.4,0.2,0.7c0.9,0.8,2,1.4,3.1,2C548.7,332.5,548.7,332.2,548.7,332z"/>
	<path class="st1" d="M548.7,332c0,0.3,0,0.5-0.1,0.8c0.1,0,0.1,0.1,0.2,0.1C548.8,332.6,548.7,332.3,548.7,332L548.7,332z"/>
	<path class="st1" d="M559.9,332L559.9,332c0,1-0.3,1.7-0.8,2.3c0.6-0.1,1.1-0.2,1.6-0.4C560.2,333.4,559.9,332.8,559.9,332z"/>
	<path class="st1" d="M554.4,332L554.4,332c-0.1,1-0.4,1.8-0.9,2.3c0.6,0.1,1.2,0.2,1.9,0.2C554.7,334,554.4,333.1,554.4,332z"/>
</g>
<g>
	<path class="st0" d="M4.3,14.5L4.3,14.5c0,3.3,4,3,4,0c0,3.3,4,3,4,0h0c0,3.3,4,3,4,0h0.1c0,3.3,4,3,4,0h0c0,1.7,1.7,2.1,3.4,2
		c0.6-1,1-2.2,1.2-3.3c-1.8,0.4-4.1,0-4.1-1.9h0c0,3-4,3.3-4,0h-0.1c0,3-4,3.3-4,0h0c0,3-4,3.3-4,0c0,3-4,3.3-4,0h0
		c0,1.8-1.9,2.3-3.4,1.9c0.2,1.2,0.7,2.3,1.2,3.3C3.6,16.2,4.3,15.6,4.3,14.5z"/>
	<path class="st1" d="M5.6,20.1c0-0.2-0.1-0.3-0.1-0.5c1.5,0.4,3.4,0,3.4-1.9h0c0,3.3,4,3,4,0c0,3.3,4,3,4,0h0c0,3.3,4,3,4,0h0.1
		c0,0.8,0.2,1.3,0.6,1.7c0.9-0.9,1.7-1.9,2.3-3c-1.7,0.2-3.4-0.3-3.4-2h0c0,3-4,3.3-4,0h-0.1c0,3-4,3.3-4,0h0c0,3-4,3.3-4,0
		c0,3-4,3.3-4,0h0c0,1.1-0.8,1.7-1.7,1.9C3.4,17.8,4.4,19.1,5.6,20.1z"/>
	<path class="st0" d="M7.9,20.9L7.9,20.9c0,0.2,0,0.4,0.1,0.6c1,0.5,2.2,0.9,3.4,1.1c0.4-0.4,0.6-1,0.6-1.7H12
		c0,0.8,0.3,1.4,0.7,1.8c0.2,0,0.4,0,0.6,0c0.7,0,1.5-0.1,2.2-0.2c0.3-0.4,0.6-0.9,0.6-1.7h0c0,0.6,0.2,1.1,0.6,1.4
		c1.9-0.6,3.6-1.6,5-2.9c-0.3-0.4-0.6-1-0.6-1.7H21c0,3-4,3.3-4,0h0c0,3-4,3.3-4,0c0,3-4,3.3-4,0h0c0,1.8-1.9,2.3-3.4,1.9
		c0,0.2,0.1,0.3,0.1,0.5c0.7,0.6,1.4,1,2.2,1.4C7.9,21.3,7.9,21.1,7.9,20.9z"/>
	<path class="st1" d="M7.9,20.9c0,0.2,0,0.4-0.1,0.6c0,0,0.1,0,0.1,0.1C8,21.4,7.9,21.2,7.9,20.9L7.9,20.9z"/>
	<path class="st1" d="M16.1,20.9L16.1,20.9c0,0.7-0.2,1.3-0.6,1.7c0.4-0.1,0.8-0.2,1.2-0.3C16.3,22,16.1,21.6,16.1,20.9z"/>
	<path class="st1" d="M12,20.9L12,20.9c-0.1,0.7-0.3,1.3-0.7,1.7c0.4,0.1,0.9,0.1,1.3,0.1C12.3,22.4,12,21.8,12,20.9z"/>
</g>
</svg>
