<?xml version="1.0" encoding="utf-8"?>
<!-- Generator: Adobe Illustrator 19.1.0, SVG Export Plug-In . SVG Version: 6.00 Build 0)  -->
<svg version="1.1" id="Layer_1" xmlns="http://www.w3.org/2000/svg" xmlns:xlink="http://www.w3.org/1999/xlink" x="0px" y="0px"
	 viewBox="172 21.6 488 210.4" style="enable-background:new 172 21.6 488 210.4;" xml:space="preserve">
<style type="text/css">
	.st0{fill:#076B69;}
	.st1{fill:#E1BF6F;}
	.st2{fill:#CCAE73;}
	.st3{fill:#9BA95F;}
	.st4{fill:#566B30;}
	.st5{fill:#6F8E3F;}
	.st6{fill:#6EA1A0;}
	.st7{fill:#1F8C8F;}
	.st8{opacity:0.26;fill:#455526;enable-background:new    ;}
	.st9{fill:#455526;}
	.st10{fill:none;stroke:#566B30;stroke-miterlimit:10;}
	.st11{fill:none;stroke:#455526;stroke-miterlimit:10;}
	.st12{opacity:0.25;fill:#6A3D1E;enable-background:new    ;}
	.st13{fill:#6A3D1E;}
	.st14{fill:#D66D27;}
	.st15{fill:#BD5F28;}
	.st16{fill:#F1B61E;}
	.st17{fill:#994A23;}
	.st18{fill:#FBDA35;}
	.st19{fill:none;stroke:#020202;stroke-width:0.5;stroke-miterlimit:10;}
	.st20{fill:#E7D170;}
	.st21{fill:#DBB82A;}
	.st22{fill:#F68D35;}
	.st23{fill:#F9E289;}
	.st24{opacity:0.25;fill:#114541;enable-background:new    ;}
	.st25{fill:#114541;}
	.st26{fill:#0B5753;}
	.st27{fill:none;stroke:#114541;stroke-miterlimit:10;}
	.st28{fill:none;stroke:#0B5753;stroke-width:0.5;stroke-miterlimit:10;}
</style>
<path class="st0" d="M267.9,98.5c-1.4,1.5-3.8,2.3-8.8,2.8c-5,0.4-3.8-1.6-7.9-0.5c-0.3,0.1-0.6,0.1-0.9,0.2
	c0.4,1.3,1.3,4.2,2.6,6.3c8.1-0.3,17.6-0.9,19-2.6C274.6,101.6,269.3,96.9,267.9,98.5z"/>
<g>
	<path class="st1" d="M366.7,194.8c-2.8,1.3-14.2,6.4-25.2,7.5c-11.7,1.1-18.2,4-19.1,4.4v6.9l45.1-11.8l-0.2-7
		C367,194.8,366.8,194.8,366.7,194.8z"/>
	<path class="st1" d="M365.8,177.8c0,0,0.4,0,1.1,0.1l-0.4-15.4c-2.4,0.5-6.6,1.2-13.9,1.6c-12.3,0.7-27.1,5.5-30.2,6.5v19.7
		c0,0,16.3-2.6,27.1-7.4C360.3,178.1,365.8,177.8,365.8,177.8z"/>
	<path class="st1" d="M366.2,153.5l-35,6.3c6.6-1.1,19.1-2.9,35.1-3.9L366.2,153.5z"/>
	<path class="st1" d="M326.2,160.6l-3.9,0.7v0.3C323.9,161.2,325.1,160.9,326.2,160.6z"/>
	<path class="st1" d="M422.3,161.2l-4.1,0.2l-25.7-4.3c16.8,4,29,12.9,29,12.9L422.3,161.2z"/>
	<path class="st1" d="M375,155.4c2.8-0.1,5.6,0,8.3,0.2l-15.1-2.5l-1.9,0.3l0.1,2.4C369.1,155.6,372,155.5,375,155.4z"/>
	<path class="st1" d="M419.8,181c0,0-2.2-0.8-11.5-8.4c-9.3-7.5-39.1-11-39.1-11s-0.6,0.4-2.8,0.9l0.4,15.4
		c4.8,0.5,24.4,2.5,33.4,5.6c10.3,3.6,19,6.9,19,6.9s0.2,0.1,0.6,0.2l0.8-10.1C420.1,180.8,419.8,181,419.8,181z"/>
	<path class="st1" d="M382,195.3c-8.7-0.2-12.9-0.3-14.8-0.4l0.2,7l0.7-0.2l49.8,11.2l0.3-3.3C399.8,201.4,404.6,195.7,382,195.3z"
		/>
	<path class="st2" d="M272.6,189.8c5.5-8.4,22.3-7.3,34.1-4.2c11.8,3.1,15.7,4.7,15.7,4.7v-19.7c-0.4,0.1-0.6,0.2-0.6,0.2
		s-23.3,2.6-37.8,1s-27.2-9.2-27.2-9.2s0,0-0.1,0.1l-8,30.5l0.2-0.1l23.8,6.6C271.1,196,270.8,192.6,272.6,189.8z"/>
	<path class="st2" d="M292.6,161.6c15.9,2.6,24.5,1.2,29.7,0v-0.3l-0.3,0.1l-59-14l-2.6,1l-1.3,5C259.2,153.5,271,158,292.6,161.6z"
		/>
	<path class="st2" d="M322.2,206.8c0,0-28.9-11.5-21.8,0.7l21.9,6.1h0.1v-6.9C322.3,206.7,322.2,206.8,322.2,206.8z"/>
	<path class="st1" d="M224.5,171.8c-7.6,0-10.1-2.1-9.6-5.1l-21.6,8.7L172,222.8l76.8-29.5l8-30.5
		C255.7,163.7,245.8,171.9,224.5,171.8z"/>
	<path class="st1" d="M259.2,153.5l1.3-5l-27.7,11.1c0.7,0.7,3.4,0.6,7.2,2.1C248.5,164.8,259.2,153.5,259.2,153.5z"/>
	<path class="st2" d="M574.4,147.4L548,161.6c1.1,0.3,2.5,0.6,4.6,1.1c10.2,2.3,20.5,7,5.2,12.4c-15.3,5.4-23.6,10.5-23.6,10.5
		l5.9,37l0.5,0.2l41.9-28.9l1.4,0.7l-9.3-47L574.4,147.4z"/>
	<path class="st1" d="M633.3,182.1c-5.8,0.1-12.1,0.1-15.9-2.3c-4.7-3-5.1-8.3-4.4-12.5l-38.3-19.7l9.3,47l31.7,15.6
		c9.1-2,19.2-4.8,27.9-8.8L633.3,182.1z"/>
	<path class="st3" d="M617.4,179.8c3.8,2.4,10.1,2.4,15.9,2.3L630,176l-17.1-8.8C612.3,171.4,612.6,176.8,617.4,179.8z"/>
	<path class="st3" d="M643.6,201.4c-8.7,4-18.8,6.9-27.9,8.8L660,232L643.6,201.4z"/>
	<path class="st2" d="M464.1,205.9c-3.4,0-9.2,2.4-16.3,4.3l20.6-1.8c-1.4-0.9-2.6-1.8-3.6-2.5C464.7,205.9,464.4,205.9,464.1,205.9
		z"/>
	<path class="st2" d="M489.1,199.8v-3.7c0,0-1.8,1-4.5,2.4C486.1,198.9,487.6,199.3,489.1,199.8z"/>
	<path class="st2" d="M447.6,185.6c-13.5-11.6-24-7-26.9-5.2l-0.8,10.1c2.7,0.7,14.5,2.9,29.4-3.4
		C448.7,186.6,448.2,186.1,447.6,185.6z"/>
	<path class="st2" d="M435.2,167.4c9.8-0.1,9.4,0.5,18.2,5.9c4,2.4,7.2,4.3,9.6,6.5c8.1-5.1,10.3-7.2,26.1-6.2v-15.4l-1.5-0.4
		l-65.4,3.5l-0.7,8.9C421.5,170.1,425.4,167.5,435.2,167.4z"/>
	<path class="st2" d="M418.2,209.5l-0.3,3.3l0.2,0.1l8.9-0.8c-2.8-0.4-5.7-1.2-8.6-2.5C418.4,209.6,418.3,209.5,418.2,209.5z"/>
	<path class="st1" d="M518.8,165.9l-29.6-7.8v15.4C502.6,174.4,518.6,171.1,518.8,165.9z"/>
	<path class="st1" d="M512.5,193.2c-18.3-1.2-23.4,2.9-23.4,2.9v3.7c9.5,3.3,6,0.4,9.7,3.4c1.2,1,3,4,4.8,7.8l36.5,11.7l-5.9-37
		C534.3,185.6,530.8,194.5,512.5,193.2z"/>
	<path class="st3" d="M367.3,194.5l-0.4-16.6c-0.7-0.1-1.1-0.1-1.1-0.1s-5.5,0.3-16.3,5.2s-27.1,7.4-27.1,7.4v16.3
		c0.9-0.4,7.4-3.3,19.1-4.4c11-1.1,22.4-6.1,25.2-7.5C365,194.6,366.9,194.5,367.3,194.5z"/>
	<path class="st4" d="M367.3,194.5c-0.4,0-2.3,0.1-0.6,0.3C367,194.7,367.2,194.6,367.3,194.5L367.3,194.5z"/>
	<path class="st4" d="M366.7,194.8c0.2,0,0.4,0,0.6,0v-0.3C367.2,194.6,367,194.7,366.7,194.8z"/>
	<path class="st3" d="M400.2,183.5c-9-3.1-28.6-5.2-33.4-5.6l0.4,16.6h0.1c0,0,0,0-0.1,0v0.3c1.8,0.1,6,0.3,14.8,0.4
		c22.6,0.4,17.8,6.1,36.2,14.2l1.6-19c-0.4-0.1-0.6-0.2-0.6-0.2S410.6,187.1,400.2,183.5z"/>
	<path class="st4" d="M367.3,194.5L367.3,194.5L367.3,194.5L367.3,194.5z"/>
	<path class="st5" d="M322.2,206.8c0,0,0.1,0,0.1-0.1v-16.3c0,0-3.9-1.6-15.7-4.7c-11.8-3.1-28.6-4.3-34.1,4.2
		c-1.8,2.8-1.6,6.2,0.2,10l27.6,7.7C293.3,195.3,322.2,206.8,322.2,206.8z"/>
	<path class="st5" d="M557.8,175.1c15.3-5.4,4.9-10.1-5.2-12.4c-2-0.5-3.5-0.8-4.6-1.1l-14.9,8l-1.5-0.4l2.6,16.4
		C534.3,185.6,542.6,180.6,557.8,175.1z"/>
	<path class="st5" d="M463,179.8c3,2.7,4.9,5.6,5.5,10c0.9,6.7,8.2,6.9,16.1,8.7c2.7-1.4,4.5-2.4,4.5-2.4v-22.6
		C473.3,172.5,471.1,174.7,463,179.8z"/>
	<path class="st5" d="M464.9,205.9c-6.8-5.5-3.5-7.9-15.7-18.8c-14.9,6.3-26.7,4.1-29.4,3.4l-1.6,19c0.1,0,0.2,0.1,0.2,0.1
		c2.9,1.3,5.7,2,8.6,2.5l20.8-1.8c7.1-1.9,12.9-4.3,16.3-4.3C464.4,205.9,464.7,205.9,464.9,205.9z"/>
	<path class="st3" d="M489.1,173.5v22.6c0,0,5-4.1,23.4-2.9c18.4,1.2,21.8-7.6,21.8-7.6l-2.6-16.4l-12.9-3.4
		C518.6,171.1,502.6,174.4,489.1,173.5z"/>
	<path class="st5" d="M326.9,160.5c-0.2,0-0.5,0.1-0.7,0.2l5-0.9C329.3,160.1,327.8,160.3,326.9,160.5z"/>
	<path class="st5" d="M383.2,155.6l9.3,1.5C389.5,156.4,386.4,155.9,383.2,155.6z"/>
	<path class="st6" d="M322.4,170.7c3.2-1.1,18-5.9,30.2-6.5c7.3-0.4,11.5-1.1,13.9-1.6l-0.2-6.7c-16,1-28.4,2.8-35.1,3.9l-5,0.9
		c-1.1,0.2-2.3,0.6-3.9,1v9H322.4z"/>
	<path class="st6" d="M375,155.4c-3,0.1-5.9,0.3-8.7,0.5l0.2,6.7c2.1-0.5,2.8-0.9,2.8-0.9s29.7,3.5,39.1,11
		c9.3,7.5,11.5,8.4,11.5,8.4s0.3-0.2,0.8-0.6l0.9-10.3c0,0-12.2-9-29-12.9l-9.3-1.5C380.5,155.3,377.8,155.2,375,155.4z"/>
	<path class="st7" d="M292.6,161.6c-21.6-3.6-33.5-8.2-33.5-8.2l-2.4,9.3c0.1-0.1,0.1-0.1,0.1-0.1s12.7,7.6,27.2,9.2
		c14.5,1.6,37.8-1,37.8-1s0.2-0.1,0.6-0.2v-9C317.1,162.9,308.5,164.3,292.6,161.6z"/>
	<path class="st6" d="M224.5,171.8c21.3,0.1,31.2-8.1,32.2-9l2.4-9.3c0,0-10.7,11.4-19.2,8.2c-3.8-1.4-6.6-1.4-7.2-2.1l-17.9,7.2
		C214.4,169.7,216.9,171.8,224.5,171.8z"/>
	<path class="st7" d="M484.6,198.5c-5.4,2.8-14.4,7-19.7,7.4c1,0.8,2.1,1.6,3.6,2.5l20.6-1.8v-6.8
		C487.6,199.3,486.1,198.9,484.6,198.5z"/>
	<path class="st7" d="M463,179.8c-2.4-2.1-5.7-4.1-9.6-6.5c-8.9-5.3-8.5-6-18.2-5.9c-9.8,0.1-13.6,2.7-13.6,2.7l-0.9,10.3
		c2.9-1.8,13.4-6.4,26.9,5.2c0.6,0.5,1.2,1,1.7,1.5c1.1-0.4,2.2-0.9,3.2-1.5C457.1,183.4,460.4,181.4,463,179.8z"/>
	<path class="st6" d="M489.1,199.8v6.8l0.8-0.1l13.8,4.4c-1.8-3.7-3.6-6.8-4.8-7.8C495.1,200.2,498.7,203,489.1,199.8z"/>
	<path class="st7" d="M468.5,189.8c-0.6-4.4-2.5-7.4-5.5-10c-2.6,1.7-5.9,3.6-10.5,5.9c-1.1,0.5-2.2,1-3.2,1.5
		c12.2,10.9,8.9,13.3,15.7,18.8c5.3-0.4,14.2-4.6,19.7-7.4C476.7,196.7,469.4,196.6,468.5,189.8z"/>
</g>
<g>
	<path class="st8" d="M537.3,187.4c-2.8-0.6-13.2-1.7-14,3.5c-0.8,5.1,4.4,5.4,9.3,6.1s3.9-1,8.9-0.7c5,0.4,5.2,1.7,5.2,1.7
		s3.8,0.7,4.5-4.3c0.7-5,1-6.3-2.5-6.2s-2.8,1.8-2.8,1.8S542.1,188.5,537.3,187.4z"/>
	<path class="st4" d="M528.2,187.5c0,0-1.9,4.3-0.6,4.6c1.3,0.3,2.4,2.3,7,2.1c4.6-0.2,3.1-2.2,3.1-2.2s-1-0.3-3.2-2.9
		S528.2,187.5,528.2,187.5z"/>
	<path class="st4" d="M540.5,187.5c0,0-1.6,4.3-0.5,4.6c1,0.4,2,2.3,5.8,2.1s2.5-2.2,2.5-2.2s-0.8-0.3-2.6-2.9
		C543.9,186.6,540.5,187.5,540.5,187.5z"/>
	<g>
		<path class="st5" d="M546.4,119.6c0,0,9.8,6.1,10.1,9.9c0.3,3.8-8.9,8.8-8.3,10.5c0.5,1.7,2.7,3.3,1,4c-1.8,0.7-8.3-7.2-5.7-8.8
			s7.7-3.5,7.2-5.7c-0.5-2.2-7.8-7.8-7.8-7.8L546.4,119.6z"/>
		<path class="st9" d="M524.8,146.5c0,0,1.4,41.4,3.6,42c2.2,0.6,6.2,0,6.2,0s-5.5-36.8-2.4-36.5c3,0.3,6.3,0,6.3,0l1.9,36.8
			c0,0,3.3,0.3,4.4,0s3.1-42.6,0-42.3C541.7,146.8,524.8,146.5,524.8,146.5z"/>
		<path class="st4" d="M533.4,110.9c-2.2,0-4.2,1.1-5,1.5c-0.8,0.4-1.9-0.5-5.4,1.9c-3.4,2.4-1.8,9.3-1.8,9.3v22.5
			c0,0,0.5,3.1,6.5,4.2c5.4,1,16.3,0,16.7,0c0.8,0,4.6-3.5,3.7-6.9c-0.9-3.3-3.3-17.7-4.6-23.8C542.3,113.6,533.4,110.9,533.4,110.9
			z"/>
		<path class="st4" d="M540,113.1c0,0,6.1-0.1,8.8,3.8s-7.6,8.1-7.6,8.1S534.6,115.8,540,113.1z"/>
		<path class="st5" d="M518.4,118c0,0-11.9,12-9.3,16.4s9.9,7.4,9.9,7.4s0.1,5.6,2.3,4.2c2.2-1.3,4.4-4.6,2.2-7.1
			c-2.2-2.5-10-6.8-10-6.8l7.8-8.6C521.2,123.5,521.4,118.8,518.4,118z"/>
		<path class="st4" d="M525.5,113.7c0,0-6.1-0.1-8.8,3.8c-2.6,4,7.6,8.1,7.6,8.1S530.9,116.4,525.5,113.7z"/>
		<path class="st4" d="M533.1,106.9c0,0,1.2,2,2.3,3s-0.9-0.8,1.8-1.5c2.7-0.7,1.3,1.5,2.7,1.8s0-2.1,2.2-3.2
			c2.2-1.1,3.6-3.8,3.6-3.8s0.5,0-2.2-0.4s1-2.1,0.5-3.5s-1.3-2-1.7-5.7L533.1,106.9z"/>
		<path class="st5" d="M529.7,106.4v5.5c0,0,0.6,1.9,2.3,1.9c1.7,0,2.5-2.3,2.5-2.3v-5.1H529.7z"/>
		<g>
			<path class="st5" d="M542,100.6c-0.2-1.5,0.9-3.7,1.5-7.9c0.2-1.4-0.1-3.1-0.5-4.9c-2.4-3.4-6.3-5.6-10.8-5.6
				c-7.3,0-13.2,5.9-13.2,13.2s5.9,13.2,13.2,13.2c3.8,0,7.2-1.6,9.6-4.1C542.4,102.9,542.1,101.3,542,100.6z"/>
		</g>
		<path class="st4" d="M524.8,82.2c-4.7,0.9-5.2,3.2-5.9,6.4c-0.7,3.2-2.2,3.6-2.5,2.7c-0.3-0.9-0.2,2.6,1.3,2.1s-0.4,1.6,0,4.2
			c0.4,2.6,0.1,4.2-1.3,3.7c-1.4-0.6,1.2,1.9,2.5,0.9c1.3-1.1,0.5,2.6,1.5,2.9s2.5,1.6,1.7,2.1c-0.8,0.5,2,1.6,2.7,0
			c0.7-1.6-0.6,1,2,0.8c2.6-0.2,0.6-1.6,0.6-1.6s-2.3,0.4-3.9-4.1c-1.6-4.5-0.5-8,0-8.8s3.3,1.3,1.2,2.2c-2,0.9,3.6,0.2,2.5-3.4
			c-1.1-3.6,2.6-7.1,2.4-3.9s3.7,1,4.2-1.6s2.4,1.9,4.2,1.9s-0.2-2.5-0.8-3.1s1.8,0.8,3.7,1.5s3.8,3.7,3.8,3.7s2.8-2.4,1.4-4.4
			c-1.4-1.9-0.6-2.3,1.2-1.6c1.8,0.6,0.6-2.4-2.5-2.7c-3.1-0.3-2.8-0.1-4.6-1.1c-1.8-1-1.8-2.4-6.8-2.1
			C528.4,79.2,528.8,81.5,524.8,82.2z"/>
		<path class="st10" d="M529.7,103c0,0,3.9,2.1,8.1,0.4"/>
	</g>
</g>
<g>
	<path class="st8" d="M603.9,176.6c0,0-2.9-0.7-4.9,0s-9,6,4,7.2s18.7,1.5,20.5-2.7s3.2-6.2,0-5.9s-10.1-0.9-13.4,0
		C606.8,176.1,605.9,176.1,603.9,176.6z"/>
	<path class="st4" d="M619.8,174.3c0,0,1.9,4.3,0.6,4.6c-1.3,0.3-2.4,2.3-7,2.1c-4.6-0.2-3.1-2.2-3.1-2.2s1-0.3,3.2-2.9
		C615.6,173.3,619.8,174.3,619.8,174.3z"/>
	<path class="st4" d="M607.5,174.3c0,0,1.6,4.3,0.5,4.6s-2,2.3-5.8,2.1s-2.5-2.2-2.5-2.2s0.8-0.3,2.6-2.9
		C604.1,173.3,607.5,174.3,607.5,174.3z"/>
	<g>
		<g>
			<path class="st4" d="M593.3,96.3c0.2-1.5-0.9-3.7-1.5-7.9c-0.2-1.4,0.1-3.1,0.5-4.9c2.4-3.4,6.3-5.6,10.8-5.6
				c7.3,0,13.2,5.9,13.2,13.2c0,7.3-5.9,13.2-13.2,13.2c-3.8,0-7.2-1.6-9.6-4.1C592.9,98.7,593.2,97.1,593.3,96.3z"/>
		</g>
		<path class="st9" d="M589.3,85.4c-1.6-1.8-1.3-2,0-3.3s1.1,1.2,2.4-3c1.3-4.2,5.7-4.1,7.5-4.3c1.8-0.2,0.6,1,3.6,1.1
			c3,0.1-4-0.2,2.9,0.2c6.9,0.4,8.4,1.7,9.5,4c1.1,2.3,2.3,1.3,2.9,6.3s0.7,5.9-1.1,8.1c-1.8,2.2-1.3,1.9-2.6,3.6s-2.1,1.9-1.8-2.3
			c0.3-4.2,4.2-2.2,2.9-5.8c-1.3-3.6-3.4-2.7-3.2,0c0.2,2.7-2.1,3.7-2.1,3.7s0.5-1.2,0-3.7s0.3-2.6-1.1-4.6c-1.5-2-1.8-2.7-5-2
			c-3.2,0.7-5.8,3.8-8.1,3.7C593.7,86.9,592.7,89.2,589.3,85.4z"/>
		<path class="st4" d="M603.4,103.2c0,0-1,4.4,0,5s2.6,2.3,3.6,0s-1.3-6.6-1.3-6.6L603.4,103.2z"/>
		<path class="st4" d="M604,107.1c0,0-4.7,4.2-6.2,9.1c-1.4,4.8,1.5,22.2,0.2,23.6c-1.3,1.4,4,5,14.5,3.7s5.8-8.9,5.9-12.3
			c0.1-3.4-5.7-17.8-6.9-20.7C610.5,107.6,604,107.1,604,107.1z"/>
		<path class="st9" d="M597.9,140.2c0,0,0.8,29.9,3.3,33s4.5,1.5,6.1,1.5c1.5,0,0.2-5.5,0-7.4s-4.8-16.6-2.1-18.7
			c2.7-2.1,8.2-0.2,8.2-0.2s-1,26.7,0.8,26.8c1.8,0.1,4.1,0.1,5.4,0c1.4-0.1-0.4-27.1,0-29.8c0.4-2.7,0.4-4.3,0-5.3
			c-0.8-2.2-4.8,4.3-12.3,3.1C599.7,141.7,597.9,140.2,597.9,140.2z"/>
		<path class="st4" d="M598.6,113.3c0,0-2.2,17.6-6.2,24c-0.8,1.2-2.4,5.5-2.6,7.8c-0.1,0.9,1,0.7,0.9,1.1c-0.1,0.9,0.7,0.4,1.8,0.8
			c1.1,0.3,0.6-2.7,1.1-2.2c0.7,0.7,0,2.9,0.5,2.3c1.8-1.8,1.5-3.7,1.5-5.6s3.2-14.1,3-20.4C598.4,114.8,598.6,113.3,598.6,113.3z"
			/>
		<path class="st4" d="M610.8,109.4c0,0,16.7,6.2,16.7,9.4s-3.9,12.8-7.6,13c-3.7,0.2-3.4-4.3-3.7-4.1c-0.3,0.1,1-3.4,3.1-4.4
			s1-3.8,1-4s-4.4-0.5-7.7-1.2S610.8,109.4,610.8,109.4z"/>
		<path class="st11" d="M602.9,100.3c0,0,4.4-1.1,5.5-2.9"/>
	</g>
</g>
<path class="st6" d="M229.4,165.7c0,0,10-5.9,13.1-0.8s-1.5-19.4-1.7-23.6c-0.2-4.2,0.6-4.2-3.2-4.2s-6.9-1.9-8.3,0.5s0,29.1,0,29.1
	V165.7z"/>
<g>
	<path class="st12" d="M374.9,170.4c0,0-7.3,4.2-6.5,7s2.4,5.2,7.7,6.9c5.4,1.6,12.5,1,16.6-2.4c4.1-3.4,6.6-3.3,10.9-3.4
		c4.3-0.1,7.6-3.1,8.5,0c0.8,3.1-2,6.1,7.2,5.9c9.3-0.2,12.3-2.4,14.4-2c2.2,0.4,1.8-2.2,3.7,1.2s9.2,8.8,16.7,4.7s7-7.6,6.4-12.4
		c-0.6-4.9-12.8-9.1-18.3-7.3s-13.5-1.9-19.9-3.2s-6.2,0.4-14.6,0c-8.3-0.4-10-2.7-14.4-3.4C389,161.3,378.2,168.1,374.9,170.4z"/>
	<path class="st13" d="M414.6,164.2c0,0-1.7,3.4-0.5,4.7s2,4.1,5.8,4.1c3.9,0,4.9-0.6,6-1.9c1.1-1.3,2.8-6.8-3.2-6.9
		C416.8,164,414.6,164.2,414.6,164.2z"/>
	<path class="st13" d="M398.9,163.6c0,0,1.5,5.7,0.3,7c-1.2,1.3-6.9,0-10.8,0s-1.8-3-1.5-4.1c0.5-1.6,1.1-2.3,3.8-2.9
		C396.6,162.3,398.9,163.6,398.9,163.6z"/>
	<g>
		<path class="st14" d="M465,131.7c-0.3,0.3-0.5,0.7-0.5,1.1v2.3c0,2,0.2,4.2,1.9,4.2c0.2,0,0.3,0,0.4-0.1c0.9-0.4,2,0,2.1,0.9v0.1
			c0.2,2.3,5.1,3.3,4.7,0c-0.5-3.3-1.1-9-4.5-9.3C466.9,130.7,465.7,131.2,465,131.7z"/>
	</g>
	<g>
		<path class="st15" d="M374.6,169.2c0,0-2.8,6.9,0,8.7s0.7,7.7,10.4,4.8c9.7-2.8-2.5-12.4-2.5-12.4L374.6,169.2z"/>
		<path class="st15" d="M390.6,118.1c0,0-4.1,43.6-0.7,45.7c3.3,2,6.7,3.9,10,2.5c3.3-1.4-0.4-42.2,5.3-43.6c5.5-1.3,7.9,1,7.9,1
			s-0.8,41.7,1.6,41.3c2.4-0.5,9.4,2.3,9.1-1.8c-0.4-4.1,5.1-45.9,0-50.5S390.6,118.1,390.6,118.1z"/>
		<path class="st16" d="M371.3,134c0,0,2.3,15.1,2.3,22.2c0,7.2-1.4,16.6,0,16.4c1.4-0.2,8.3,1.6,10.2-1.2
			c1.9-2.8-0.5-21.2-1.8-25.8c-1.4-4.7,1.6-9.2,5.5-10.6c3.9-1.4,6.7,0.7,6.7,6.7s0.5,9.9,0,14.2c-0.5,4.4-1.4,11.7,0.2,13.4
			c1.7,1.7,9.8,2.2,9.4,0c-0.4-2.2-1-42.8-6-46C392.5,120,371.3,134,371.3,134z"/>
		<path class="st14" d="M463.6,130.5c0,0,0,0.8,0,2.9c0,2,0.2,4.2,1.9,4.2c1.7,0,0-2.6,0-2.6s2.3,1.3,2.5,3.6c0.2,2.3,5.1,3.3,4.7,0
			c-0.5-3.3-1.1-9-4.5-9.3C464.6,128.8,463.6,130.5,463.6,130.5z"/>
		<path class="st16" d="M366,80.5c0,0-8.5,5.9-8.7,8.1c-0.2,2.3,9.7,5.6,10.9,3.9c1.3-1.7,4.9-9.7,3.9-10.9
			C371.1,80.5,366,80.5,366,80.5z"/>
		<path class="st13" d="M427.9,170.2c0,0-2.6,3.6-7.1,3.8c-4.4,0.2-5.3,1.7-5.7,2.9c-0.4,1.2-3,6.9,9.4,4.4
			c12.4-2.5,10.9-5.3,10.9-5.3s-1.2-6.8-2.3-6.8C432.1,169.2,427.9,170.2,427.9,170.2z"/>
		<path class="st13" d="M444.3,176.2c-4.3,3-4.7,7.9-1.7,8c3,0.2,9.8,2.8,11.4-1.4s1.1-9.6,1.1-9.6l-1.7-4.8l-5.4,1
			c0,0,0.7,2.6-0.5,3.8C446.2,174.6,444.3,176.2,444.3,176.2z"/>
		<path class="st16" d="M402,67.1c0,0,3.7-1.2,5.9-1.2s5.1,1.2,5.1,1.2s0.4,1.6,3.2,1.6c2.9,0,4.5-2,11.1,1.2
			c6.5,3.2,33.4,17.1,33.4,17.1s-4.7,1.8-13.4,1.3c-8.7-0.6-24.8-9.2-24.8-9.2s3.8,26.3,3.8,32.4s-8.6,7.9-8.6,7.9l-11-2l-9.3,2.9
			l-8.5-7.9c0,0-1.3-13.3,1.8-21.4s4.2-14.1,4.2-14.1s-9.6,11.1-14,11.1c-4.4,0-8.6-9.6-8.6-9.6s22.1-11.1,24.9-11.1
			S401.1,68.2,402,67.1z"/>
		<path class="st14" d="M369.5,83.2c0,0-17.2,2-12.4,27s5.7,21,5.7,21s6.3-1.6,6.7-4.2s-8-21.2-4.5-25.4s1.1,29.3,3.3,31.6
			c2.2,2.3,30.4-2,31.7-7.2c1.4-5-17.6-45.1-21.9-45C373.8,81.4,370.7,82.9,369.5,83.2z"/>
		<path class="st17" d="M391.6,51.6c0,0,0.8,5.4,3,7.7s4.7,4.3,4.7,4.3s-0.7-2.2,0.7-2c1.4,0.1-0.6,0.6,1.3,1.8
			c1.9,1.1,7.8,2.9,12.7,0.4c4.9-2.5,9.3-4.4,9.6-6.9s6.1-11.4,1.7-14.9c-3-2.4-24.2-6.1-33.1-2.4C387.6,41.1,391.6,51.6,391.6,51.6
			z"/>
		<g>
			<path class="st17" d="M348.3,80.6c0,0,7.1,7.3,20.3,1c2.5-1.2,6.9-1,6.9-1s8.1-2,12.2-5.6c3.3-3,2.9-6.9,2.9-12.9l-18.4,10.4
				L348.3,80.6z"/>
			<path class="st18" d="M353.2,90.8c-1,2.8-4.4,5.5,0,7.4c4.4,1.8,4.4-0.7,4.4-2.3c0-1.6,3.2,1.2,3.5-2c0.2-3.2-2.2-8.5-5-5.7
				C353.2,90.9,353.2,90.8,353.2,90.8z"/>
			<path class="st19" d="M372.1,75"/>
			<path class="st19" d="M362.8,73.2"/>
		</g>
		<path class="st20" d="M369,80.5c0,0-1.6,5.4,0,5.9c1.6,0.6,4.7,1.2,6.7,0s-3.2-3.6-1.6-7.1C375.8,75.9,369,80.5,369,80.5z"/>
		<g>
			<path class="st14" d="M435.7,69.9c0,0-0.8,2.3-0.2,3.8c3,5,7.5,8,13.9,8c8.5-6.2,8.5-10.9,9.3-17.5c0.6-4.7-3.7-12.6-6.6-17.3
				c-0.8-0.1-1.8-0.2-2.6-0.2c-2.6,0-5.1,0.6-7.3,1.7c-2.6,3.6-5.3,7.7-6,10.4c-1.6,5.7-1.2,8.1-1.2,8.1"/>
			<path class="st15" d="M451.4,46.9c2.9,4.7,7.2,12.7,6.6,17.3c-0.8,6.6-0.8,11.4-9.3,17.5h0.1c9.7,0,17.5-7.9,17.5-17.5
				C466.2,55.4,459.7,48.1,451.4,46.9z"/>
		</g>
		<g>
			<path class="st18" d="M410.7,65.7c-0.8,0.2-1.9,0.4-3.5,0.2c-1.6,0-2.6-0.2-3.3-0.6c-0.2,1.2-0.4,2.4,0.1,2.8
				c1.4,1.1,5.5,3.1,6.7,0C411,67.5,411,66.6,410.7,65.7z"/>
			<path class="st21" d="M410.7,65.7c-0.5-2.8-2.6-5.7-2.6-5.7h-2.3c0,0-1.4,3-1.9,5.4c0.8,0.4,1.9,0.5,3.3,0.6
				C408.8,66.1,409.9,65.9,410.7,65.7z"/>
		</g>
		<path class="st17" d="M434.4,48.7c0,0-4.1,2.9,1.8,3.2c5.9,0.2,9.7-2.3,10.9-3.2c1.2-1,2.6,4.7,5.7,4.7s5.1,2.9,6,0
			s-0.7,5.4,2.4,6.7s-1.1,7.1,0,8.3c1.1,1.2-2.2,5.3,0,5.3s7.8-4.2,8.4-8.7c0.7-4.4-1.8-7.2-1.8-7.2s3.5-4.1,1.9-7.2
			c-1.6-3-6.5-4.7-6.5-4.7s0.4-4.2-6-3.9c-6.2,0.2-11.2,1.4-11.2,1.4s-1.9-2.8-6.6-1.4c-4.7,1.4-2,3.6-2,3.6L434.4,48.7z"/>
		<g>
			<path class="st21" d="M398.8,39.1c2.4,4.1,4.2,4.1,4.2,4.1s-0.1-8.5,4.3-9.8c2.9-0.7,5.5-2.5,7.1-3.7c-1.9-0.7-4.1-1.2-6.2-1.2
				c-2.4,0-4.5,0.5-6.7,1.3C399.5,32.9,397.4,36.9,398.8,39.1z"/>
			<path class="st18" d="M414.3,29.6c-1.6,1.2-4.3,0.8-7.1,1.7c-4.4,1.2-4.3,11.8-4.3,11.8s-1.9,0.1-4.2-4.1
				c-1.3-2.3,0.7-6.2,2.8-9.3c-4.3,1.8-7.8,5.3-9.6,9.4c0.1,7.2,1.3,14.7,2.3,17.3c3.2,4.2,8.3,6.9,13.9,6.9c3.8,0,5-0.6,9.3-2.9
				c2.3-2.2,3.6-4.2,4.8-7.8c1-2.9,1.3-10.5,1.6-14.8C421.8,34.2,418.5,31.1,414.3,29.6z"/>
			<path class="st21" d="M391,41.1c2.4,4.1,4.2,4.1,4.2,4.1s-0.1-8.5,4.3-9.8c2.9-0.7,5.5-2.5,7.1-3.7c-1.9-0.7-4.1-1.2-6.2-1.2
				c-2.4,0-4.5,0.5-6.7,1.3C391.7,34.8,389.8,38.8,391,41.1z"/>
		</g>
		<path class="st14" d="M391.2,50.6c0,0-4.4-5.3-3.2-10.6s-2.4-11.1,5-13.6s1-6.5,15.1-3.9c14.1,2.5,10.9,9.7,10.9,9.7
			s8.1-3.3,8.3,3.9c0.1,7.3,2.2,9.4-1.6,12.2c-3.8,2.8,0.5-3.9-3.7-8.7s-5.6-3.3-5.6-3.3s-1.9-8.4-8.1-6.7c-6.3,1.5-7.2,11-7.2,11
			s-3.3-0.6-3.5-4.3c-0.1-3.7-5.1,4.1-3.1,7.5c2,3.5-3.5,2.8-3.7,1.2C390.6,43.2,391.2,50.6,391.2,50.6z"/>
		<path class="st22" d="M401.1,27.7c0,0-3.3,4.9-2.4,7.9c1,2.9,1.1,3.7,1.1,3.7s-1.4-3.7,0-6.7S401.1,27.7,401.1,27.7z"/>
		<path class="st22" d="M395.6,26.4c0,0-4.2,1.8-5.1,3.6s-0.7,6.2-0.7,6.2s0.5-4.2,2-5.6C393.3,29.2,395.6,26.4,395.6,26.4z"/>
		<g>
			<path class="st20" d="M361.1,68.7c-3.3-5.7-2.3-14.3-0.8-20.9c-5.5,3-9.2,8.7-9.2,15.4c0,9.7,7.9,17.5,17.5,17.5
				c0.8,0,1.8-0.1,2.6-0.2C368.4,78.1,364.4,74.3,361.1,68.7z"/>
			<path class="st23" d="M381.7,51.6c-3.2-3.6-7.9-6-13.2-6c-3,0-5.9,0.7-8.4,2.2c-1.4,6.5-2.5,15.2,0.8,20.9
				c3.3,5.6,7.3,9.6,10,11.8c4.3-0.6,8.3-2.9,10.9-6.1C384.6,68,383.3,58.4,381.7,51.6z"/>
		</g>
		<path class="st15" d="M427.3,130.1c0,0-6,34-0.2,39.2c5.6,5.3,7.5,0,7.5,0s-2.5-31.8,4.4-32s7.9,0.4,7.9,0.4s-4.4,32.3,0.5,34.1
			s8-0.1,8-0.1s5.3-36.2,1.6-40.3C453.3,127.3,427.3,130.1,427.3,130.1z"/>
		<g>
			<path class="st22" d="M361.1,44.8c0,0-4.2-4.3-8.5,0.8c-4.4,5.1-1.1,31.7-10.8,29.2c-9.7-2.5,6.2,11.1,13.2,7.8
				c6.9-3.3,6.2-3.6,6.2-3.6s-6.7-3.9-7.2-6.2c0,0,7.5-3.8,8.8-14.3c0-3.7-0.2-9.4-1.7-13.9C361.1,44.8,361.1,44.8,361.1,44.8z"/>
			<path class="st14" d="M390.6,62.1c0,0-3.5,1.6-4.5-5.7c-1.1-7.4-5.4-20.3-15.7-16.6c-7.4,2.6-9,4.2-9.3,4.8
				c1.4,4.4,1.7,10.2,1.7,13.9c0-0.2,0.1-0.6,0.1-0.8c1.1-11.2,5.5-7.5,6.5-6.9c1,0.7-1.1-5.3,6-3.6c7.1,1.7,4.3,19,9.9,20
				C390.9,67.8,390.6,62.1,390.6,62.1z"/>
		</g>
		<path class="st13" d="M445.9,85.3c0,0-12.1,3.3-15.9,12.3c-3.9,9-10.9,26.5-9.9,28.1s4.8,8.1,7.1,6c2.3-2,7.7-32.9,9.8-32.9
			s-14.9,30.1-11.6,31.7s5,6,20.7,3.9c15.7-2.1,14.2-4.8,14.2-4.8s-6.3-29-3.3-29.5s3.2,33.2,6.2,33.2s7.1-3.2,7.1-3.2
			s-3.6-38-8.6-41.5C456.4,85.2,445.9,85.3,445.9,85.3z"/>
		<path class="st14" d="M444.6,87.7c-1.2-1.2-0.4-0.1-1.2-1.2c2.4-1.4,2.3-8.6,2.4-9.7c0.1-1.3,5.3,2.9,5.3,2.9
			c0.2-1.1,0.1,6.7-0.2,6.2C449.2,87.8,446.8,89.8,444.6,87.7z"/>
		<path class="st15" d="M394.1,169.2c0,0-2.3,3.3,0,4.8s8.7,3.1,12.4,0s-5.4-5.5-5.4-5.5L394.1,169.2z"/>
		<path class="st23" d="M364.8,130.6c0,0-3.1,1.3,0,4.4c3.1,3.1,4.7,5.6,4.7,5.6s2.3-2.9,1.7-6.7c-0.6-3.8-1.7-6.8-1.7-6.8
			L364.8,130.6z"/>
		<path class="st18" d="M464.5,86.9c0,0-6.2-3.5-6.9,0c-0.7,3.5-7.9,10.4,0,7.8c7.9-2.5,3.9-4.4,3.9-4.4s-4.2,7.7,0,7.2
			s5.5,0.5,5.3-2.8C466.6,91.4,468.7,94.3,464.5,86.9z"/>
	</g>
	<g>
		<polygon class="st14" points="411.1,78 405.9,78 405.9,82.8 401.1,82.8 401.1,87.8 405.9,87.8 405.9,92.6 411.1,92.6 411.1,87.8 
			415.7,87.8 415.7,82.8 411.1,82.8 		"/>
	</g>
</g>
<path class="st0" d="M240.8,107.8c-0.3-0.1,0.4-0.1,1.7-0.2c-1.3-2.2-3.4-6-4.4-9.4c-2.6,0.2-3.3-0.3-3.3-0.3s-6,1.3-7.5,3.4
	c-1.5,2.1-8.5,10.8-11.3,17.4c-2.8,6.7-2.2,7.8,0,8.7c2.2,0.8,4.2,0.8,4.2,0.8s2.6-6.8,4.3-10.8s4-8.5,4-8.5s-9.2,23.5-7.2,24.3
	c2,0.9,8,3,13.5,2.9c5.5-0.1,12-0.6,11.8-1.8C246.4,133.2,242.3,108.3,240.8,107.8z"/>
<path class="st7" d="M253.9,107.6c-1.3-2.1-3.3-5.4-3.6-6.7c-4,0.4-9.1-3-11.9-2.8c-0.1,0-0.2,0-0.3,0c0.9,3.4,3.1,8.3,4.5,10.5
	C244.7,108.6,249.6,107.8,253.9,107.6z"/>
<path class="st24" d="M252,160c0,0-23.8,7.8-29.2,12.3c-5.3,4.5-2.7,9.3,5.2,8.1s8.2-3,12.3-2.9c4.1,0.1,7.6,0,7.6,0s4.4,2.1,8.9,0
	c4.5-2.1,5.8,6.5,15.7,3.1c10-3.4,7.5-12.4,0-13.4S252,160,252,160z"/>
<path class="st25" d="M227.1,170.3c0,0-1.8,4-0.6,4.3s2.3,2.2,6.6,2c4.3-0.2,2.9-2,2.9-2s-0.9-0.3-3-2.7
	C231,169.4,227.1,170.3,227.1,170.3z"/>
<path class="st25" d="M241.2,169.4c0,0-1.5,4-0.5,4.3s1.9,2.2,5.5,2s2.4-2,2.4-2s-0.7-0.3-2.5-2.7
	C244.3,168.5,241.2,169.4,241.2,169.4z"/>
<path class="st25" d="M273.5,170.5c0,0,1.8,4,0.6,4.3c-1.2,0.3-2.3,2.2-6.6,2s-2.9-2-2.9-2s0.9-0.3,3-2.7
	C269.7,169.6,273.5,170.5,273.5,170.5z"/>
<path class="st25" d="M259.5,169.6c0,0,1.5,4,0.5,4.3s-1.9,2.2-5.5,2s-2.4-2-2.4-2s0.7-0.3,2.5-2.7
	C256.3,168.8,259.5,169.6,259.5,169.6z"/>
<path class="st25" d="M253.8,131.3c0,0-1,39.1,1.2,40.4c2.2,1.3,5.6,1,5.6,1s-4-33.1-1.6-33.1c2.3-0.1,9.2,0,9.2,0v33.1
	c0,0,3.9,0.2,5.5-1c1.6-1.2,0.9-38.5,0.9-38.5L253.8,131.3z"/>
<g>
	<path class="st0" d="M271.9,114.4c0,0-0.4-1.8,0.5-1.5c0.7,0.2,3.9-0.7,5.6-1.2c0-2-0.1-3.9-0.4-5.4c-1-6.2-14.8-11.3-14.8-11.3
		c-2.3,0-3.5,0.7-4.4,1.1c-0.9,0.4-2.3,1.1-3.8,4.1c-1.7,3.7-2.9,12.8-2.9,12.8l-1.5,19.4c0,0,0.5,3.2,6.7,4.4
		c4.2,0.8,11.8-0.8,15.3-1.1C271.8,127.1,271.9,114.4,271.9,114.4z"/>
	<path class="st7" d="M278,111.7c-1.7,0.5-5,1.4-5.6,1.2c-0.9-0.3-0.5,1.5-0.5,1.5s-0.1,12.6,0.3,21.3c1.1-0.1,1.7-0.1,1.8-0.1
		c0.6,0,2.5,0.9,3-1.1c0.2-0.9-0.1-4.1-0.4-5.1C275.9,126.9,278.1,118.1,278,111.7z"/>
</g>
<path class="st26" d="M233.3,70.8c0,0-1.1-1-3.8-0.1c-2.7,0.9-3.1,1.7-3.1,1.7s-3.5,0.3-4.4,4.9s-1,4.5-0.4,9.6
	c0.6,5.1,1.5,8.3,0.6,10.1c-0.8,1.8-0.2,2.4,3,1.5s2.6-0.8,5.6-0.6c3.1,0.2,5.8,0.6,9.9-0.7c4.1-1.3,6.3,0.8,6.9,0.5
	c0.7-0.3,1.4,0.4,0-2.3c-1.4-2.7,0.8-9.3,0.8-10.5s1-9.7-4.3-13.1C238.9,68.4,238.1,68.9,233.3,70.8z"/>
<path class="st26" d="M223.8,131.5c0,0,1.8,31.8,2.3,34.6s0.2,5,1.4,5s4.3,1.2,4.4,0c0.1-1.2-5.9-32.3,0.9-32.3
	c3.5,0,4.8,0.7,4.8,0.7s2.2,7.1,2.2,14.3s0,16.8,0,16.8s3.8,1.7,6.2,0.2c2.3-1.5-0.2-18.3,0-22.8s-1.8-16.2-2.8-16.8
	C242.5,130.7,223.8,131.5,223.8,131.5z"/>
<g>
	<g>
		<circle class="st7" cx="262.8" cy="79.8" r="12.6"/>
		<path class="st7" d="M265.1,91.5v5.2c0,0-0.6,1.8-2.2,1.8s-2.4-2.2-2.4-2.2v-4.8H265.1z"/>
	</g>
	<path class="st6" d="M268.6,68.6c0,0-0.9,2.3-5.8,2.3c-4.9,0-5.8-2.3-5.8-2.3s-1.2-1.4,5.8-1.4C269.9,67.2,268.6,68.6,268.6,68.6z"
		/>
	<path class="st6" d="M255.5,69.6c0,0-5.3,2.7-5.3,6.5s1,3.8,1,3.8s0.1-1.5,0.1-3.8s1.1-1.6,1.5-3C253.3,71.6,255.5,69.6,255.5,69.6
		z"/>
	<path class="st6" d="M270.2,69.6c0,0,5.3,2.7,5.3,6.5s-1,3.8-1,3.8s-0.1-1.5-0.1-3.8s-1.1-1.6-1.5-3
		C272.4,71.6,270.2,69.6,270.2,69.6z"/>
</g>
<path class="st6" d="M257.7,88c0,0,6-2.4,8.9-3.1c1.7-0.4,0.8,0.8,1.1,0.5c0.9-0.8-1.1,1.9-3.6,2.5C261.7,88.7,257.7,88,257.7,88z"
	/>
<path class="st7" d="M272.4,135.2c0,0,0.6,4.5,1.3,6s1.9,2.5,1.8,1.1c-0.1-1.3-0.5-2.3-0.5-2.3s0.6,0.8,1.5,2.7
	c0.9,1.9,0.8,4.3,2.5,3.3c1.7-1,2-0.3,1.7-1.9c-0.4-1.6-0.9-3.4-0.9-4.3c0-0.9,0.8-3.4-1.1-4.9c-1.9-1.5-1.8-1.5-1.8-1.5
	S275.4,135.2,272.4,135.2z"/>
<path class="st6" d="M215.2,127c0,0-1.5,3.4-1.1,5.4c0.4,2,0.1,4.1,1.1,3.7s4-1.6,4-1.6s-0.1-3.3,0-4.8
	C219.3,128.2,215.2,127,215.2,127z"/>
<path class="st6" d="M232.5,95c0,0-1,4.7,0,5.2s4.2,1,5,0s-1.9-5.2-1.9-5.2H232.5z"/>
<path class="st6" d="M272.9,96.7c-1.2-0.1-3,0.5-3.6,0c-0.6-0.5-1.2,0.6-1.2,0.6c1.9,1.6,2,2,3.1,2.3c1.1,0.3-0.9,1.8,0,3.3
	c0.9,1.5,1.5,2.4,1.6,0c0.1-2.4,1-2.5,1-0.8s-1.1,3.9,0.4,3.4c1.4-0.5,1.2-0.7,1.1-2.5c-0.1-1.8,0.8-1.8,0.1-4.1
	C274.8,96.5,272.9,96.7,272.9,96.7z"/>
<path class="st6" d="M275.4,98.8c0,0,1.8,1.3,1.9,2.3c0.1,1-0.2,3-0.2,3s-0.9,0.6-2.6-2.6C272.8,98.3,275.4,98.8,275.4,98.8z"/>
<g>
	<path class="st6" d="M244,84.1c0.2-2.9-0.5-5.8-0.9-7.3c-2.1-2.1-5.1-3.5-8.3-3.5c-3,0-5.8,1.2-7.8,3c-0.4,1.3-1.3,4.5-1.1,7.7
		c0.2,2.9-0.9,5.9,0.1,8.5c2.1,2.4,5.3,4,8.8,4c3.8,0,7.2-1.8,9.3-4.6C244.7,89.5,243.8,86.7,244,84.1z"/>
</g>
<path class="st26" d="M226.4,76.9c0,0,2.5-1,4.7,3.5c2.2,4.5,5.1,2.3,9.3,1.8c4.2-0.5,4,1,4,1s2.4-8-2.1-9.9s-1.1,0-7.9,0
	C227.6,73.3,226.4,76.9,226.4,76.9z"/>
<path class="st7" d="M232.2,97.5c-1.6-0.3-8.4,2.4-8.9,3.3c-0.5,0.8-5.2,3.5,2,7l6.4-6.4L232.2,97.5z"/>
<path class="st25" d="M230.8,101.7c0,0-0.5,3.7,1.3,5.3c1.8,1.6,3.3,2.3,3.3,2.3s2.2-0.6,2.9-2.5s1.2-5.4,0.6-5.8
	c-0.7-0.4-0.3-0.5-0.3,0.6s0,4-0.8,4.8s-2.3,2-2.3,2s-2.6-1.7-3.3-4.4c-0.7-2.6-0.7-3.8-0.7-3.8L230.8,101.7z"/>
<path class="st6" d="M237.5,100.2c0,0,7.1,22.8,6.8,34.2s1.2,31.2,1.2,31.2s4,1.9,4.1-7s-2.6-27.2-4.5-35.1s-2.5-10.6-2.5-10.6
	s0.9,0.6,4.9-1c4-1.6,5.5-4.6,5.5-4.6s-3.3,0.4-5.9,0.3c-2.6-0.1-5-3.5-6.2-4.8c-1.2-1.3-0.6-4-1.3-4s-0.8-1.2-2-0.8
	S237.5,100.2,237.5,100.2z"/>
<path class="st6" d="M232.2,99.7c0,0-6.5,30.2-6.6,36.4c-0.1,6.2,0.5,30.1,0.5,30.1s-8.1,3.1-7.7-4.4s0.5-26.7,4-36.4
	c3.5-9.7,5.5-15.3,5.5-15.3s-2.8,5.7-4.1,9.1c-1.3,3.4-3.6,9.1-3.6,9.1s-6.4-0.7-6.2-2.5s0.8-6.3,4.6-12c3.7-5.7,6.3-10.3,7.8-11.7
	c1.5-1.3,1.9-2,3.8-2.7C232.1,98.7,232.3,96.6,232.2,99.7z"/>
<path class="st27" d="M234.9,108.4c0,0,2.1,10.6-0.9,14.5"/>
<circle class="st25" cx="232.8" cy="123.8" r="2.1"/>
<circle class="st6" cx="232.8" cy="123.8" r="1.6"/>
<path class="st7" d="M260.5,95.3c0,0-1.4,1.6-2.1,2.6c-0.8,1,2.4,3.6,3.1,4.9s7.2-3.8,6.4-4.3s-3.1-2.2-3.8-2.5s-2.6-0.7-2.6-0.7
	H260.5z"/>
<path class="st28" d="M262.9,114c-0.7-1.9,0.5-5.6,0.5-5.6l5.4,0c0,0,2.6,4.4,0.6,6"/>
<polygon class="st6" points="264.4,108.8 265.7,115.6 271.2,114.2 269.5,107.9 "/>
<g>
	<path class="st0" d="M260.5,103.4l-2.6-6.8c0,0-3,2-6.8,4.3c0.8,1.5,1.9,3.8,2.8,6.4C258.2,104.2,260.5,103.4,260.5,103.4z"/>
	<path class="st0" d="M253.9,107.3c-0.2,0.1-0.3,0.2-0.5,0.4l2.1,5.3C255.1,111,254.5,109,253.9,107.3z"/>
	<path class="st0" d="M251.1,100.9c-0.1,0-0.2,0.1-0.2,0.1l2.6,6.6c0.2-0.1,0.3-0.2,0.5-0.4C252.9,104.6,251.8,102.3,251.1,100.9z"
		/>
</g>
<ellipse class="st7" cx="225" cy="103.7" rx="2.6" ry="2"/>
<path class="st7" d="M222.9,103.4c0,0-0.4,1.8,0.2,2.8c0.5,1,0.9,1.3,1.2,1.1c0.4-0.2,0.4-2.1,0.4-2.1s0.1,1.4,0.5,1.9
	c0.4,0.4,0.7,0.7,0.8,0.3c0.3-0.8-0.3-2.2-0.3-2.2s0.9,2.6,1.7,2.1s0.7-3.8-0.2-4.5"/>
<path class="st28" d="M257.7,98.9c0,0,0.3,2.8,2,4.1c1.8,1.3,2.2,1.8,2.2,1.8s2.8-0.5,4.4-2c1.6-1.6,2.2-2.5,2.2-2.5"/>
<path class="st28" d="M228.1,86.9c0,0.8,0.1,1.2,0.9,1.2s3.2,0,3.2,0s1.1-0.3,1.1-1.1s-0.9-1.1-0.9-1.1H229
	C229,85.9,228.1,85.8,228.1,86.9z"/>
<path class="st28" d="M241.4,86.9c0,0.8-0.1,1.2-0.9,1.2s-3.2,0-3.2,0s-1.1-0.3-1.1-1.1s0.9-1.1,0.9-1.1h3.3
	C240.5,85.9,241.4,85.8,241.4,86.9z"/>
<path class="st28" d="M233.3,87.1c0,0,1.7-1.2,2.9,0"/>
<polyline class="st28" points="228.1,86.9 227.2,86.9 224.8,84.8 "/>
<polyline class="st28" points="241.4,86.9 242.2,86.9 245,84.8 "/>
</svg>
