<?xml version="1.0" encoding="utf-8"?>
<!-- Generator: Adobe Illustrator 19.1.0, SVG Export Plug-In . SVG Version: 6.00 Build 0)  -->
<svg version="1.1" id="Layer_1" xmlns="http://www.w3.org/2000/svg" xmlns:xlink="http://www.w3.org/1999/xlink" x="0px" y="0px"
	 viewBox="0 0 170.1 170.1" style="enable-background:new 0 0 170.1 170.1;" xml:space="preserve">
<style type="text/css">
	.st0{fill:#DEDEDD;}
	.st1{fill:#FFFFFF;}
	.st2{fill:#EF7B22;}
	.st3{fill:#F5EB01;}
	.st4{fill:#E42B27;}
	.st5{fill:#9DC850;}
	.st6{fill:#5BC1EE;}
	.st7{fill:none;stroke:#DEDEDD;stroke-width:6;stroke-miterlimit:10;}
</style>
<circle class="st0" cx="85.1" cy="85.1" r="85.1"/>
<g>
	<circle class="st1" cx="85.8" cy="85.8" r="78.4"/>
	<g>
		<g>
			<path class="st2" d="M154.9,82.6h-53.3v-36h41.3C149.9,56.9,154.3,69.2,154.9,82.6z"/>
			<path class="st3" d="M155,87.1c-0.2,13.2-4.2,25.5-10.9,36c-1,1.5-2,3.1-3.2,4.5c-1.7,2.3-3.6,4.5-5.6,6.5
				c-1.4,1.5-2.9,2.9-4.5,4.2c-8.3,7.1-18.2,12.2-29.2,14.8c-1.5,0.3-3,0.6-4.5,0.9c-3.6,0.6-7.4,0.9-11.2,0.9
				c-8.5,0-16.6-1.5-24.1-4.3v-23h73.5V87.1H155z"/>
			<path class="st4" d="M130.8,87.1v36H27.6c-6.7-10.4-10.6-22.7-10.9-36H130.8z"/>
			<path class="st5" d="M139.4,42.1H61.7V20.9c7.5-2.8,15.6-4.3,24.1-4.3c3.8,0,7.6,0.3,11.2,0.9c1.5,0.2,3,0.5,4.5,0.9
				c11,2.5,20.9,7.7,29.2,14.8c1.6,1.3,3.1,2.8,4.5,4.2C136.7,38.9,138.1,40.5,139.4,42.1z"/>
			<g>
				<path class="st6" d="M57.2,22.8v59.8H16.7c0.6-13.3,5-25.6,12.1-36c1.1-1.6,2.2-3.1,3.4-4.5C38.9,33.9,47.5,27.2,57.2,22.8z"/>
			</g>
		</g>
	</g>
</g>
<path class="st7" d="M245.1,111.8"/>
</svg>
