<?xml version="1.0" encoding="utf-8"?>
<!-- Generator: Adobe Illustrator 16.0.4, SVG Export Plug-In . SVG Version: 6.00 Build 0)  -->
<!DOCTYPE svg PUBLIC "-//W3C//DTD SVG 1.1//EN" "http://www.w3.org/Graphics/SVG/1.1/DTD/svg11.dtd">
<svg version="1.1" id="Layer_1" xmlns="http://www.w3.org/2000/svg" xmlns:xlink="http://www.w3.org/1999/xlink" x="0px" y="0px"
	 width="612px" height="339.484px" viewBox="0 0 612 339.484" enable-background="new 0 0 612 339.484" xml:space="preserve">
<g>
	<defs>
		<path id="SVGID_1_" d="M0,339.484c0,0,286.385-150.516,612,0"/>
	</defs>
	<clipPath id="SVGID_2_">
		<use xlink:href="#SVGID_1_"  overflow="visible"/>
	</clipPath>
	<ellipse clip-path="url(#SVGID_2_)" fill="#7AC364" cx="306.426" cy="509.928" rx="442.023" ry="236.5"/>
</g>
<path fill="none" stroke="#911A1C" stroke-width="6" stroke-miterlimit="10" d="M395.489,255.16"/>
<rect x="135.102" y="140.603" fill="none" width="164.682" height="59.375"/>
<text transform="matrix(1 0 0 1 135.1021 148.3691)"><tspan x="0" y="0" fill="#4D5051" font-family="'AkzidenzGroteskStd-Regular'" font-size="11">Community volunteers add local </tspan><tspan x="0" y="13.2" fill="#4D5051" font-family="'AkzidenzGroteskStd-Regular'" font-size="11">detail such neighborhoods, street </tspan><tspan x="0" y="26.4" fill="#4D5051" font-family="'AkzidenzGroteskStd-Regular'" font-size="11">names, and evacuation centers</tspan></text>
<rect x="29.823" y="15.724" fill="none" width="133.089" height="63"/>
<text transform="matrix(1 0 0 1 29.8247 24.1958)"><tspan x="0" y="0" fill="#4D5051" font-family="'AkzidenzGroteskStd-Regular'" font-size="12">Remote volunteers trace </tspan><tspan x="0" y="14.4" fill="#4D5051" font-family="'AkzidenzGroteskStd-Regular'" font-size="12">satellite imagery into </tspan><tspan x="0" y="28.8" fill="#4D5051" font-family="'AkzidenzGroteskStd-Regular'" font-size="12">OpenStreetMap</tspan></text>
<g>
	<g>
		<path fill="none" stroke="#555859" stroke-width="5" stroke-miterlimit="10" d="M276.797,58.274h-131.3
			c0,0-41.364,6.709-44.537,146.717"/>
		<g>
			<polygon fill="#555859" points="88.682,201.13 100.767,222.932 113.607,201.565 			"/>
		</g>
	</g>
</g>
<g>
	<g>
		<line fill="none" stroke="#4D5051" stroke-width="4" stroke-miterlimit="10" x1="164.25" y1="261.86" x2="216.653" y2="252.691"/>
		<g>
			<polygon fill="#4D5051" points="215.451,263.43 231.355,250.12 211.876,242.999 			"/>
		</g>
	</g>
</g>
<g>
	<g>
		
			<line fill="none" stroke="#4D5051" stroke-width="4" stroke-miterlimit="10" x1="426.596" y1="259.23" x2="475.431" y2="267.646"/>
		<g>
			<polygon fill="#4D5051" points="470.679,277.35 490.14,270.181 474.202,256.91 			"/>
		</g>
	</g>
</g>
<rect x="435.455" y="189.019" fill="none" width="161.519" height="61.22"/>
<text transform="matrix(1 0 0 1 435.4546 196.7847)"><tspan x="0" y="0" fill="#4D5051" font-family="'AkzidenzGroteskStd-Regular'" font-size="11">Humanitarian organizations use </tspan><tspan x="0" y="13.2" fill="#4D5051" font-family="'AkzidenzGroteskStd-Regular'" font-size="11">mapped information to plan risk </tspan><tspan x="0" y="26.4" fill="#4D5051" font-family="'AkzidenzGroteskStd-Regular'" font-size="11">reduction and disaster response </tspan><tspan x="0" y="39.6" fill="#4D5051" font-family="'AkzidenzGroteskStd-Regular'" font-size="11">activities that save lives</tspan></text>
<g>
	<g>
		<g>
			
				<line fill="none" stroke="#555859" stroke-width="3" stroke-miterlimit="10" x1="340.886" y1="90.665" x2="340.701" y2="96.662"/>
			
				<line fill="none" stroke="#555859" stroke-width="3" stroke-miterlimit="10" stroke-dasharray="10.9391,10.9391" x1="340.363" y1="107.596" x2="337.149" y2="211.468"/>
			
				<line fill="none" stroke="#555859" stroke-width="3" stroke-miterlimit="10" x1="336.98" y1="216.935" x2="336.794" y2="222.932"/>
		</g>
	</g>
	<g>
		<path fill="#FBCC42" d="M321.718,64.445c-1.794,4.866,0.697,10.264,5.562,12.057l22.026,8.116
			c4.864,1.791,10.265-0.697,12.057-5.562l8.116-22.026c1.793-4.865-0.697-10.263-5.563-12.057l-22.026-8.116
			c-4.864-1.793-10.264,0.698-12.055,5.564L321.718,64.445z"/>
		
			<rect x="290.841" y="39.441" transform="matrix(-0.9414 -0.3373 0.3373 -0.9414 579.3789 195.0996)" fill="#FBCC42" width="31.591" height="15.565"/>
		
			<rect x="369.868" y="66.089" transform="matrix(-0.9414 -0.3372 0.3372 -0.9414 723.8306 273.4649)" fill="#FBCC42" width="31.593" height="15.564"/>
	</g>
	<g>
		<g>
			
				<line fill="none" stroke="#555859" stroke-width="3" stroke-miterlimit="10" x1="335.083" y1="92.616" x2="333.185" y2="98.308"/>
			
				<line fill="none" stroke="#555859" stroke-width="3" stroke-miterlimit="10" stroke-dasharray="11.024,11.024" x1="329.697" y1="108.765" x2="296.559" y2="208.113"/>
			
				<line fill="none" stroke="#555859" stroke-width="3" stroke-miterlimit="10" x1="294.815" y1="213.341" x2="292.917" y2="219.033"/>
		</g>
	</g>
	<g>
		<g>
			<line fill="none" stroke="#555859" stroke-width="3" stroke-miterlimit="10" x1="346.151" y1="92.274" x2="347.94" y2="98.001"/>
			
				<line fill="none" stroke="#555859" stroke-width="3" stroke-miterlimit="10" stroke-dasharray="13.0907,13.0907" x1="351.844" y1="110.497" x2="381.124" y2="204.209"/>
			
				<line fill="none" stroke="#555859" stroke-width="3" stroke-miterlimit="10" x1="383.076" y1="210.457" x2="384.865" y2="216.184"/>
		</g>
	</g>
</g>
<path fill="none" d="M240.858,132.185c-0.026-0.069-0.056-0.138-0.088-0.204c-0.255-0.53-0.13-1.141,0.265-1.535l-1.916-1.917
	C239.651,129.589,240.227,130.794,240.858,132.185z"/>
<g id="XMLID_3_">
	<g>
		<path fill="#A8936B" d="M410.566,262.979c0.08,0.51-0.05,1.04-0.38,1.45c-0.7,0.85-1.46,1.61-2.29,2.29v17.2
			c0,0.41-0.14,0.81-0.4,1.13c-4.35,5.35-17.17,5.5-18.62,5.5c-1.319,0-12.989-0.15-17.34-5.5c-0.26-0.32-0.399-0.72-0.399-1.13
			v-17.15c-0.82-0.689-1.57-1.47-2.29-2.34c-0.32-0.4-0.46-0.92-0.37-1.43c0.08-0.511,0.38-0.96,0.82-1.23l18.829-11.66
			c0.561-0.35,1.28-0.35,1.851-0.02l19.729,11.66C410.156,262.02,410.466,262.46,410.566,262.979z M404.316,283.22v-14.29
			c-3.7,1.69-8.57,2.44-15.25,2.44c-6.35,0-10.86-0.69-14.34-2.311v14.16c1.16,1.13,3.04,1.99,5.229,2.6v-8.939
			c0-0.391,0.17-0.76,0.471-1.021c0.3-0.26,0.689-0.37,1.08-0.31l5.83,0.9c0.649,0.1,1.14,0.659,1.14,1.329v9.181
			c0.13,0,0.26,0.01,0.399,0.01c4.761,0,12.551-1.01,15.431-3.75H404.316z M385.786,286.83v-7.9l-3.14-0.479v7.97
			C383.676,286.6,384.736,286.739,385.786,286.83z"/>
		<path fill="#FFFFFF" d="M404.316,268.93v14.29h-0.01c-2.88,2.74-10.67,3.75-15.431,3.75c-0.14,0-0.27-0.01-0.399-0.01v-9.181
			c0-0.67-0.49-1.229-1.14-1.329l-5.83-0.9c-0.391-0.061-0.78,0.05-1.08,0.31c-0.301,0.261-0.471,0.63-0.471,1.021v8.939
			c-2.189-0.609-4.069-1.47-5.229-2.6v-14.16c3.479,1.62,7.99,2.311,14.34,2.311C395.746,271.37,400.616,270.62,404.316,268.93z"/>
		<path fill="#FFFFFF" d="M385.786,278.93v7.9c-1.05-0.091-2.109-0.23-3.14-0.41v-7.97L385.786,278.93z"/>
	</g>
	<g>
	</g>
</g>
<g id="XMLID_1_">
	<g>
		<path fill="#A8936B" d="M354.78,268.218c0.073,0.414-0.04,0.844-0.3,1.169c-0.495,0.601-1.023,1.136-1.607,1.623v12.267
			c0,0.333-0.113,0.657-0.325,0.917c-3.174,3.905-12.452,4.019-13.5,4.019c-0.958,0-9.408-0.113-12.582-4.019
			c-0.212-0.26-0.325-0.584-0.325-0.917v-12.234c-0.568-0.486-1.104-1.039-1.607-1.655c-0.26-0.325-0.373-0.747-0.3-1.161
			c0.064-0.406,0.308-0.771,0.665-0.99l13.517-8.37c0.463-0.292,1.047-0.292,1.51-0.016l14.166,8.369
			C354.448,267.438,354.699,267.795,354.78,268.218z M349.958,282.7v-9.921c-2.646,1.145-6.097,1.656-10.772,1.656
			c-4.449,0-7.647-0.463-10.132-1.559v9.831c2.014,1.892,6.981,2.59,9.985,2.59c0.081,0,0.171,0,0.252,0v-6.43
			c0-0.527,0.373-0.982,0.9-1.071l4.189-0.73c0.309-0.058,0.642,0.032,0.885,0.243c0.252,0.203,0.39,0.512,0.39,0.828v6.413
			C347.499,284.112,349.074,283.495,349.958,282.7z M343.472,284.965v-5.528l-1.997,0.349v5.407
			C342.14,285.144,342.814,285.062,343.472,284.965z"/>
		<path fill="#FFFFFF" d="M349.958,272.779v9.921c-0.885,0.795-2.46,1.412-4.303,1.851v-6.413c0-0.316-0.138-0.625-0.39-0.828
			c-0.243-0.211-0.576-0.301-0.885-0.243l-4.189,0.73c-0.527,0.089-0.9,0.544-0.9,1.071v6.43c-0.081,0-0.171,0-0.252,0
			c-3.004,0-7.972-0.698-9.985-2.59v-9.831c2.484,1.096,5.683,1.559,10.132,1.559C343.862,274.436,347.312,273.924,349.958,272.779z
			"/>
		<path fill="#FFFFFF" d="M343.472,279.437v5.528c-0.658,0.098-1.332,0.179-1.997,0.228v-5.407L343.472,279.437z"/>
	</g>
	<g>
	</g>
</g>
<g id="XMLID_4_">
	<g>
		<path fill="#A8936B" d="M304.717,266.055c0.08,0.51-0.05,1.04-0.38,1.45c-0.7,0.85-1.46,1.609-2.29,2.29v17.199
			c0,0.41-0.14,0.811-0.4,1.13c-4.35,5.351-17.17,5.5-18.62,5.5c-1.32,0-12.99-0.149-17.34-5.5c-0.26-0.319-0.4-0.72-0.4-1.13
			v-17.149c-0.82-0.69-1.57-1.471-2.29-2.34c-0.32-0.4-0.46-0.921-0.37-1.431c0.08-0.51,0.38-0.96,0.82-1.229l18.83-11.66
			c0.56-0.35,1.28-0.35,1.85-0.021l19.73,11.66C304.307,265.095,304.617,265.534,304.717,266.055z M298.467,286.295v-14.29
			c-3.7,1.689-8.57,2.439-15.25,2.439c-6.35,0-10.86-0.689-14.34-2.31v14.16c1.16,1.13,3.04,1.989,5.23,2.6v-8.94
			c0-0.39,0.17-0.76,0.47-1.02c0.3-0.26,0.69-0.37,1.08-0.311l5.83,0.9c0.65,0.1,1.14,0.66,1.14,1.33v9.18
			c0.13,0,0.26,0.011,0.4,0.011c4.76,0,12.55-1.011,15.43-3.75H298.467z M279.938,289.904v-7.899l-3.14-0.48v7.97
			C277.827,289.675,278.887,289.814,279.938,289.904z"/>
		<path fill="#FFFFFF" d="M298.467,272.005v14.29h-0.01c-2.88,2.739-10.67,3.75-15.43,3.75c-0.14,0-0.27-0.011-0.4-0.011v-9.18
			c0-0.67-0.49-1.23-1.14-1.33l-5.83-0.9c-0.39-0.06-0.78,0.051-1.08,0.311c-0.3,0.26-0.47,0.63-0.47,1.02v8.94
			c-2.19-0.61-4.07-1.47-5.23-2.6v-14.16c3.48,1.62,7.99,2.31,14.34,2.31C289.897,274.444,294.768,273.694,298.467,272.005z"/>
		<path fill="#FFFFFF" d="M279.938,282.005v7.899c-1.05-0.09-2.11-0.229-3.14-0.41v-7.97L279.938,282.005z"/>
	</g>
	<g>
	</g>
</g>
<g>
	<polygon fill="#03BEEF" points="100.768,279.343 102.508,285.533 106.512,284.408 124.531,279.347 128.535,278.222 
		126.795,272.029 	"/>
	<path fill="#03BEEF" d="M108.169,267.24c-0.161-0.57-0.738-0.906-1.291-0.752c-0.442,0.124-0.722,0.526-0.737,0.975l-0.014-0.001
		l-0.233,5.985l-5.285,1.485c-0.555,0.155-0.872,0.743-0.712,1.313c0.161,0.571,0.738,0.907,1.292,0.75l6.729-1.89l0.292-7.525
		l-0.013,0.001C108.201,267.468,108.202,267.355,108.169,267.24z"/>
	
		<ellipse transform="matrix(-0.2704 -0.9627 0.9627 -0.2704 -132.41 416.6835)" fill="#03BEEF" cx="91.676" cy="258.512" rx="4.824" ry="4.68"/>
	<path fill="#03BEEF" d="M100.872,268.178l-8.623,2.423l-4.527-6.413l-0.012,0.011c-0.735-1.149-2.117-1.749-3.462-1.372
		c-0.483,0.136-0.897,0.391-1.242,0.713l-0.009-0.01c-5.885,5.479-7.44,14.493-4.382,25.377c0.48,1.71,2.213,2.718,3.873,2.252
		l9.009-2.531l2.9,10.321c0.48,1.71,2.213,2.718,3.873,2.252c1.659-0.465,2.614-2.229,2.133-3.938l-3.769-13.418
		c-0.481-1.71-2.215-2.719-3.874-2.252l-8.883,2.495c-0.884-4.553-0.959-9.712,1.582-13.639l4.45,4.032l0.007-0.006
		c0.519,0.583,1.322,0.863,2.105,0.644l10.011-2.812c1.105-0.311,1.743-1.486,1.422-2.627
		C103.134,268.539,101.979,267.868,100.872,268.178z"/>
	<path fill="#03BEEF" d="M124.636,268.183l-5.285,1.485l-3.315-4.989l-0.011,0.007c-0.248-0.372-0.696-0.57-1.137-0.446
		c-0.555,0.154-0.872,0.742-0.711,1.313c0.032,0.117,0.091,0.212,0.153,0.305l-0.012,0.008l4.169,6.271l6.728-1.89
		c0.554-0.155,0.871-0.743,0.711-1.313C125.766,268.363,125.189,268.027,124.636,268.183z"/>
	
		<ellipse transform="matrix(-0.2704 -0.9627 0.9627 -0.2704 -83.0541 436.0844)" fill="#03BEEF" cx="123.709" cy="249.512" rx="4.825" ry="4.681"/>
	<path fill="#03BEEF" d="M133.733,249.276l-0.001,0.012c-0.463-0.094-0.95-0.098-1.433,0.039c-1.345,0.378-2.21,1.61-2.241,2.974
		l-0.017-0.002l-0.523,7.832l-8.626,2.423c-1.105,0.311-1.742,1.486-1.422,2.626c0.32,1.139,1.478,1.812,2.582,1.501l10.011-2.812
		c0.785-0.22,1.323-0.878,1.463-1.647l0.007,0.003l1.7-5.759c4.216,2.027,6.84,6.471,8.454,10.819l-8.884,2.494
		c-1.658,0.467-2.614,2.23-2.133,3.94l3.77,13.418c0.481,1.709,2.214,2.718,3.873,2.252c1.659-0.466,2.614-2.229,2.134-3.94
		l-2.899-10.32l9.011-2.531c1.658-0.467,2.614-2.229,2.133-3.941C147.633,257.773,141.609,250.889,133.733,249.276z"/>
</g>
<g>
	<path fill="#EB3E54" d="M522.024,282.283c-0.36,0.178-0.77,0.199-1.238,0.081c2.684-7.138,5.205-13.867,5.255-14.002
		c0.183-0.485-0.043-1.016-0.549-1.209c-0.485-0.182-1.028,0.066-1.21,0.549c-0.098,0.268-10.002,26.704-11.472,30.372
		c-0.327,0.819-0.903,1.795-1.771,1.772c-0.581-0.009-1.173-0.426-1.527-0.819c0.048-0.069,0.093-0.135,0.138-0.21l0.035-0.062
		c0.264-0.43,3.943-9.724,6.114-15.222c0.19-0.481-0.047-1.025-0.524-1.218c0,0-0.005-0.001-0.006-0.002
		c-0.481-0.19-1.027,0.044-1.217,0.531c-2.252,5.703-5.705,14.399-5.97,14.937l-0.056,0.09c-0.038,0.064-0.078,0.134-0.124,0.203
		c-0.202,0.107-0.355,0.282-0.436,0.486c-0.392,0.291-1.012,0.422-2.087-0.008c-1.451-0.581-0.56-3.059-0.545-3.104l5.21-15.124
		c0.295-0.036,0.582-0.134,0.854-0.293c1.66-0.978,2.469-4.066,3.282-7.704c0.166-0.738,0.308-1.381,0.434-1.811
		c0.329-1.121,2.619-3.904,3.987-5.394c0.35-0.385,0.326-0.976-0.059-1.328c-0.382-0.349-0.977-0.326-1.326,0.058
		c-0.392,0.429-3.847,4.229-4.403,6.135c-0.145,0.49-0.296,1.158-0.467,1.932c-0.457,2.045-1.307,5.851-2.401,6.494
		c-0.092,0.053-0.156,0.063-0.252,0.034c-0.154-0.048-0.347-0.14-0.505-0.465c-0.754-1.58,0.334-6.013,1.799-9.577
		c1.07-2.6,4.129-6.398,6.468-7.399c2.359-1.01,7.453,0.506,9.818,3.646c1.54,2.048-0.159,7.511-1.793,10.558
		c-0.303,0.563-0.553,1.35-0.846,2.261C524.075,279.234,523.306,281.65,522.024,282.283z"/>
	<path fill="none" stroke="#EB3E54" stroke-miterlimit="10" d="M545.261,273.916c-0.369,0.073-0.675,0.308-0.84,0.641
		c-3.115,6.333-13.816,30.177-14.361,31.393c-0.379,0.626-1.153,0.971-1.859,0.822c-0.694-0.146-1.135-0.728-1.258-1.64
		c0.048-0.079,0.099-0.155,0.145-0.241c0.019-0.034,0.037-0.07,0.053-0.108l6.513-16.394c0.191-0.48-0.043-1.025-0.523-1.217
		c-0.002-0.001-0.002-0.002-0.002-0.002c-0.482-0.192-1.029,0.045-1.222,0.526l-6.491,16.335c-0.363,0.636-0.973,1.277-1.819,0.879
		c-0.84-0.397-1.466-1.621-1.006-2.784c0.09-0.261,8.951-26.124,10.857-31.523c0.132-0.371,0.082-0.777-0.138-1.108
		c-0.424-0.646-1.637-1.071-3.607-1.277c0.158-1.493,0.046-2.948-0.566-4.113c4.223,0.76,13.455,3.047,22.252,9.368
		c-0.994,0.484-1.875,1.313-2.641,2.294C546.384,273.701,545.538,273.861,545.261,273.916z"/>
	<path fill="#EB3E54" d="M547.877,312.716c-0.011,0.024-1.077,2.432-2.529,1.85c-1.077-0.432-1.433-0.956-1.514-1.435
		c0.082-0.204,0.092-0.434,0.02-0.651c0.018-0.082,0.036-0.161,0.053-0.234l0.013-0.061c0.188-0.616,3.696-9.29,6.005-14.97
		c0.196-0.48-0.035-1.027-0.514-1.225c-0.004-0.001-0.004-0.001-0.007-0.001c-0.479-0.193-1.025,0.038-1.22,0.518
		c-2.229,5.479-5.98,14.741-6.087,15.232l-0.018,0.072c-0.02,0.084-0.03,0.163-0.046,0.243c-0.525,0.043-1.242-0.064-1.671-0.459
		c-0.642-0.586-0.387-1.687-0.058-2.509c1.469-3.664,12.561-29.625,12.673-29.888c0.203-0.477-0.018-1.029-0.495-1.233
		c-0.473-0.219-1.029,0.018-1.233,0.495c-0.057,0.131-2.878,6.74-5.866,13.758c-0.42-0.239-0.703-0.539-0.84-0.915
		c-0.489-1.343,0.623-3.621,1.434-5.287c0.42-0.857,0.781-1.601,0.95-2.218c0.921-3.331,3.465-8.457,5.996-8.875
		c3.877-0.64,8.605,1.782,9.617,4.139c1.001,2.343,0.591,7.203-0.429,9.82c-1.402,3.593-3.677,7.551-5.314,8.172
		c-0.339,0.125-0.545,0.059-0.686-0.014c-0.089-0.044-0.128-0.095-0.157-0.198c-0.347-1.222,1.667-4.565,2.749-6.358
		c0.408-0.679,0.76-1.261,0.994-1.715c0.91-1.765,1.038-6.901,1.05-7.48c0.011-0.519-0.403-0.946-0.921-0.955
		c-0.52-0.012-0.947,0.4-0.958,0.919c-0.04,2.021-0.304,5.616-0.84,6.653c-0.207,0.398-0.544,0.959-0.937,1.608
		c-1.925,3.193-3.474,5.986-2.946,7.843c0.085,0.301,0.224,0.57,0.413,0.8L547.877,312.716z"/>
	<polygon fill="#EB3E54" points="542.716,275.058 539.997,273.988 541.065,271.269 538.344,270.197 537.275,272.918 534.555,271.85 
		533.484,274.568 536.205,275.639 535.136,278.359 537.856,279.429 538.926,276.709 541.646,277.778 	"/>
	
		<ellipse transform="matrix(0.0733 -0.9973 0.9973 0.0733 243.6421 783.1852)" fill="#EB3E54" cx="543.244" cy="260.492" rx="4.824" ry="4.681"/>
	
		<ellipse transform="matrix(0.0733 -0.9973 0.9973 0.0733 231.066 760.6464)" fill="#EB3E54" cx="524.825" cy="255.99" rx="4.824" ry="4.68"/>
	
		<ellipse transform="matrix(0.0733 -0.9973 0.9973 0.0733 249.8874 807.9794)" fill="#EB3E54" cx="559.705" cy="269.529" rx="4.824" ry="4.68"/>
</g>
</svg>
